<svg xmlns="http://www.w3.org/2000/svg" width="110.5" height="18" viewBox="0 0 110.5 18">
    <defs>
        <style>
            .cls-2{fill:#fff;stroke:transparent;stroke-miterlimit:10}
        </style>
    </defs>
    <g id="logo" transform="translate(0.5)">
        <path id="Combined_Shape" fill="#fff" d="M98.618 18a.467.467 0 0 1-.466-.468V.468A.467.467 0 0 1 98.618 0h10.915a.467.467 0 0 1 .467.468v3.024a.467.467 0 0 1-.466.468h-6.984v3.1h6.445a.468.468 0 0 1 .467.468v2.844a.468.468 0 0 1-.467.468h-6.445v3.2h6.984a.467.467 0 0 1 .466.468v3.024a.467.467 0 0 1-.466.468zm-16.529 0a.468.468 0 0 1-.467-.468V.468A.468.468 0 0 1 82.089 0H89.6a4.987 4.987 0 0 1 3.584 1.322 4.551 4.551 0 0 1 1.305 3.3 5.054 5.054 0 0 1-2.345 4.014h.006a4.34 4.34 0 0 1 1.372.916 4.745 4.745 0 0 1 1.381 3.514 4.657 4.657 0 0 1-1.525 3.759A5.833 5.833 0 0 1 89.585 18h-7.5zm3.931-3.6h2.6a1.691 1.691 0 0 0 1.812-1.89c0-1.254-.666-1.89-1.98-1.89H86.02zm0-7.02h2.567c.759 0 1.569-.508 1.569-1.931A1.774 1.774 0 0 0 88.284 3.6H86.02zM73.12 18a.467.467 0 0 1-.466-.468V.468A.467.467 0 0 1 73.12 0h3.735a.467.467 0 0 1 .466.468v17.064a.467.467 0 0 1-.466.468zm-14.23 0a.47.47 0 0 1-.436-.3L51.691.64a.468.468 0 0 1 .435-.64h4.092a.469.469 0 0 1 .441.309l3.974 11 3.973-11A.469.469 0 0 1 65.048 0h4.092a.468.468 0 0 1 .436.64L62.812 17.7a.47.47 0 0 1-.436.3z"/>
        <g id="그룹_34">
            <path id="Fill_13" d="M6.255 0v4.4L3.248 0H0v8.724h3.238v-4.4l3.006 4.4h3.249V0z" class="cls-2" transform="translate(0 4.906)"/>
            <path id="Fill_16" d="M3.239 8.725H0V0h4.046c2.736 0 4.122 1 4.122 2.968A2.419 2.419 0 0 1 6.276 5.46l2.616 3.262h-3.72L3.239 6v2.724zm-.1-6.531v1.718h.691a1.508 1.508 0 0 0 .854-.23.736.736 0 0 0 .278-.613.8.8 0 0 0-.262-.641 1.519 1.519 0 0 0-.881-.235z" class="cls-2" transform="translate(37.972 4.906)"/>
            <path id="Fill_18" d="M0 0h6.565v2.271H3.207V3.3H6.3v2.143H3.207v1.009h3.46v2.272H0z" class="cls-2" transform="translate(30.08 4.906)"/>
            <path id="Fill_20" d="M3.6 8.724H0L3.407 0H7.1l3.408 8.722h-3.6l-.315-1.14H3.917L3.6 8.724zm1.609-6.035l-.761 2.878h1.613L5.3 2.689z" class="cls-2" transform="translate(10.188 4.906)"/>
            <path id="Fill_22" d="M6.813 0l-1.6 5.259h-.09L3.532 0H0l3.643 8.724H6.7L10.345 0z" class="cls-2" transform="translate(19.04 4.906)"/>
        </g>
    </g>
</svg>
