<svg xmlns="http://www.w3.org/2000/svg" width="102" height="26"><defs><style>.cls-1{fill:#fff}</style></defs><g id="Layer_2" data-name="Layer 2"><g id="_1_logo_w" data-name="1 logo w"><g id="그룹_4686" data-name="그룹 4686"><g id="그룹_4686-2" data-name="그룹 4686-2"><path id="패스_11614" data-name="패스 11614" class="cls-1" d="M43.84 22.18L36.25 4.07a.32.32 0 01.17-.42.21.21 0 01.12 0h4.35a.31.31 0 01.29.2l5 12.29 5-12.29a.3.3 0 01.29-.2h4.35a.32.32 0 01.32.33.27.27 0 010 .12L48.6 22.18a.31.31 0 01-.29.2h-4.19a.3.3 0 01-.28-.2z"/><rect id="사각형_188" data-name="사각형 188" class="cls-1" x="59.18" y="3.62" width="4.58" height="18.65" rx=".37"/><path id="패스_11615" data-name="패스 11615" class="cls-1" d="M68.38 22V4a.32.32 0 01.31-.33h8.64A7.21 7.21 0 0181.91 5a4.5 4.5 0 011.65 3.64 4.36 4.36 0 01-2.37 4.05 4.32 4.32 0 013.16 4.4 4.73 4.73 0 01-1.73 3.78 7.44 7.44 0 01-4.76 1.43h-9.17a.32.32 0 01-.31-.32zm8.87-3.6a3.23 3.23 0 002-.55 1.62 1.62 0 00.62-1.34c0-1.37-1.37-1.66-2.51-1.66H73v3.55zm-.64-7.17c1.61 0 2.57-.73 2.57-1.94 0-1.44-1.4-1.75-2.57-1.75H73v3.69z"/><path id="패스_11616" data-name="패스 11616" class="cls-1" d="M87.28 22V4a.33.33 0 01.31-.33h13.1A.33.33 0 01101 4v3.41a.32.32 0 01-.31.33h-8.83V11h7.58a.32.32 0 01.32.33v3.38a.33.33 0 01-.32.33h-7.58v3.1h8.83a.33.33 0 01.31.33V22a.32.32 0 01-.31.32h-13.1a.31.31 0 01-.31-.32z"/></g><g id="그룹_4687" data-name="그룹 4687"><rect id="사각형_189" data-name="사각형 189" class="cls-1" x="1" y="4.82" width="4.05" height="9.19" rx="1.36"/><rect id="사각형_190" data-name="사각형 190" class="cls-1" x="7.16" y="1" width="4.05" height="17.89" rx="1.36"/><rect id="사각형_191" data-name="사각형 191" class="cls-1" x="13.32" y="7.87" width="4.05" height="17.13" rx="1.36"/><rect id="사각형_192" data-name="사각형 192" class="cls-1" x="19.49" y="1" width="4.05" height="17.89" rx="1.36"/><rect id="사각형_193" data-name="사각형 193" class="cls-1" x="25.65" y="4.82" width="4.05" height="9.19" rx="1.36"/></g></g><path fill="none" d="M0 0h102v26H0z"/></g></g></svg>