<?xml version="1.0" encoding="utf-8"?><svg width="232" height="171" viewBox="0 0 232 171" xmlns="http://www.w3.org/2000/svg" xmlns:xlink="http://www.w3.org/1999/xlink"><svg width="32" height="32" viewBox="-4 -4 32 32" id="btn_share" x="181.5" y="82" xmlns="http://www.w3.org/2000/svg"><path fill="none" d="M0 0h24v24H0z"/><path fill="#fff" d="M19 19H5V5h6V3H5a2 2 0 00-2 2v14a2 2 0 002 2h14a2.006 2.006 0 002-2v-6h-2zM14 3v2h3.59l-9 9.007 1.41 1.41 9-9.007V10h2V3z"/></svg><svg width="32" height="32" viewBox="-4 -4 32 32" id="btn_share_black" x="181.5" y="50" xmlns="http://www.w3.org/2000/svg"><path fill="none" d="M0 0h24v24H0z"/><path d="M19 19H5V5h6V3H5a2 2 0 00-2 2v14a2 2 0 002 2h14a2.006 2.006 0 002-2v-6h-2zM14 3v2h3.59l-9 9.007 1.41 1.41 9-9.007V10h2V3z"/></svg><svg width="63" height="63" viewBox="-4 -4 63 63" id="ico_ar_down" y="52" xmlns="http://www.w3.org/2000/svg"><path fill="none" stroke="#fff" stroke-width="2" d="M16 22l11.5 11L39 22"/></svg><svg width="63" height="63" viewBox="-4 -4 63 63" id="ico_ar_down_black" x="118.5" xmlns="http://www.w3.org/2000/svg"><path fill="none" stroke="#000" stroke-width="2" d="M16 22l11.5 11L39 22"/></svg><svg width="56" height="56" viewBox="-4 -4 56 56" id="ico_ar_left" y="115" xmlns="http://www.w3.org/2000/svg"><g opacity=".6"><path fill="rgba(255,255,255,0)" d="M0 0h48v48H0z"/><path fill="#fff" d="M14 24l17-10v20z"/></g></svg><svg width="50" height="50" viewBox="-4 -4 50 50" id="ico_ar_left2" x="63" y="52" xmlns="http://www.w3.org/2000/svg"><defs><style>.fcls-1{fill:#fff}.fcls-2{fill:none}</style></defs><g id="fLayer_2" data-name="Layer 2"><g id="fLayer_1-2" data-name="Layer 1"><path d="M21 1a20 20 0 0120 20 20 20 0 01-20 20A20 20 0 011 21 20 20 0 0121 1z"/><path class="fcls-1" d="M11.39 21l14-8v16z"/><path class="fcls-2" d="M0 0h42v42H0z"/></g></g></svg><svg width="50" height="50" viewBox="-4 -4 50 50" id="ico_ar_left2_gray" x="118.5" y="63" xmlns="http://www.w3.org/2000/svg"><defs><style>.gcls-1{fill:#999}.gcls-2{fill:#fff}.gcls-3{fill:none}</style></defs><g id="gLayer_2" data-name="Layer 2"><g id="gLayer_1-2" data-name="Layer 1"><path class="gcls-1" d="M21 1a20 20 0 0120 20 20 20 0 01-20 20A20 20 0 011 21 20 20 0 0121 1z"/><path class="gcls-2" d="M11.39 21l14-8v16z"/><path class="gcls-3" d="M0 0h42v42H0z"/></g></g></svg><svg width="56" height="56" viewBox="-4 -4 56 56" id="ico_ar_right" x="56" y="115" xmlns="http://www.w3.org/2000/svg"><g opacity=".6"><path fill="rgba(255,255,255,0)" d="M0 0h48v48H0z"/><path fill="#fff" d="M34 24L17 34V14z"/></g></svg><svg width="50" height="50" viewBox="-4 -4 50 50" id="ico_ar_right2" x="112" y="115" xmlns="http://www.w3.org/2000/svg"><defs><style>.icls-1{fill:#fff}.icls-2{fill:none}</style></defs><g id="iLayer_2" data-name="Layer 2"><g id="iLayer_1-2" data-name="Layer 1"><path d="M21 1a20 20 0 0120 20 20 20 0 01-20 20A20 20 0 011 21 20 20 0 0121 1z"/><path class="icls-1" d="M30.61 21l-14 8V13z"/><path class="icls-2" d="M0 0h42v42H0z"/></g></g></svg><svg width="50" height="50" viewBox="-4 -4 50 50" id="ico_ar_right2_gray" x="181.5" xmlns="http://www.w3.org/2000/svg"><defs><style>.jcls-1{fill:#999}.jcls-2{fill:#fff}.jcls-3{fill:none}</style></defs><g id="jLayer_2" data-name="Layer 2"><g id="jLayer_1-2" data-name="Layer 1"><path class="jcls-1" d="M21 1a20 20 0 0120 20 20 20 0 01-20 20A20 20 0 011 21 20 20 0 0121 1z"/><path class="jcls-2" d="M30.61 21l-14 8V13z"/><path class="jcls-3" d="M0 0h42v42H0z"/></g></g></svg><svg width="118.5" height="26" viewBox="-4 -4 118.5 26" id="logo" y="26" xmlns="http://www.w3.org/2000/svg"><defs><style>.kcls-2{fill:#fff;stroke:transparent;stroke-miterlimit:10}</style></defs><g id="klogo" transform="translate(.5)"><path id="kCombined_Shape" fill="#fff" d="M98.618 18a.467.467 0 01-.466-.468V.468A.467.467 0 0198.618 0h10.915a.467.467 0 01.467.468v3.024a.467.467 0 01-.466.468h-6.984v3.1h6.445a.468.468 0 01.467.468v2.844a.468.468 0 01-.467.468h-6.445v3.2h6.984a.467.467 0 01.466.468v3.024a.467.467 0 01-.466.468zm-16.529 0a.468.468 0 01-.467-.468V.468A.468.468 0 0182.089 0H89.6a4.987 4.987 0 013.584 1.322 4.551 4.551 0 011.305 3.3 5.054 5.054 0 01-2.345 4.014h.006a4.34 4.34 0 011.372.916 4.745 4.745 0 011.381 3.514 4.657 4.657 0 01-1.525 3.759A5.833 5.833 0 0189.585 18h-7.5zm3.931-3.6h2.6a1.691 1.691 0 001.812-1.89c0-1.254-.666-1.89-1.98-1.89H86.02zm0-7.02h2.567c.759 0 1.569-.508 1.569-1.931A1.774 1.774 0 0088.284 3.6H86.02zM73.12 18a.467.467 0 01-.466-.468V.468A.467.467 0 0173.12 0h3.735a.467.467 0 01.466.468v17.064a.467.467 0 01-.466.468zm-14.23 0a.47.47 0 01-.436-.3L51.691.64a.468.468 0 01.435-.64h4.092a.469.469 0 01.441.309l3.974 11 3.973-11A.469.469 0 0165.048 0h4.092a.468.468 0 01.436.64L62.812 17.7a.47.47 0 01-.436.3z"/><g id="k그룹_34"><path id="kFill_13" d="M6.255 0v4.4L3.248 0H0v8.724h3.238v-4.4l3.006 4.4h3.249V0z" class="kcls-2" transform="translate(0 4.906)"/><path id="kFill_16" d="M3.239 8.725H0V0h4.046c2.736 0 4.122 1 4.122 2.968A2.419 2.419 0 016.276 5.46l2.616 3.262h-3.72L3.239 6v2.724zm-.1-6.531v1.718h.691a1.508 1.508 0 00.854-.23.736.736 0 00.278-.613.8.8 0 00-.262-.641 1.519 1.519 0 00-.881-.235z" class="kcls-2" transform="translate(37.972 4.906)"/><path id="kFill_18" d="M0 0h6.565v2.271H3.207V3.3H6.3v2.143H3.207v1.009h3.46v2.272H0z" class="kcls-2" transform="translate(30.08 4.906)"/><path id="kFill_20" d="M3.6 8.724H0L3.407 0H7.1l3.408 8.722h-3.6l-.315-1.14H3.917L3.6 8.724zm1.609-6.035l-.761 2.878h1.613L5.3 2.689z" class="kcls-2" transform="translate(10.188 4.906)"/><path id="kFill_22" d="M6.813 0l-1.6 5.259h-.09L3.532 0H0l3.643 8.724H6.7L10.345 0z" class="kcls-2" transform="translate(19.04 4.906)"/></g></g></svg><svg width="118.5" height="26" viewBox="-4 -4 118.5 26" id="logo_black" xmlns="http://www.w3.org/2000/svg"><defs><style>.lcls-1{stroke:transparent;stroke-miterlimit:10}</style></defs><g id="llogo" transform="translate(.5)"><path id="lCombined_Shape" d="M98.618 18a.467.467 0 01-.466-.468V.468A.467.467 0 0198.618 0h10.915a.467.467 0 01.467.468v3.024a.467.467 0 01-.466.468h-6.984v3.1h6.445a.468.468 0 01.467.468v2.844a.468.468 0 01-.467.468h-6.445v3.2h6.984a.467.467 0 01.466.468v3.024a.467.467 0 01-.466.468zm-16.529 0a.468.468 0 01-.467-.468V.468A.468.468 0 0182.089 0H89.6a4.987 4.987 0 013.584 1.322 4.551 4.551 0 011.305 3.3 5.054 5.054 0 01-2.345 4.014h.006a4.34 4.34 0 011.372.916 4.745 4.745 0 011.381 3.514 4.657 4.657 0 01-1.525 3.759A5.833 5.833 0 0189.585 18h-7.5zm3.931-3.6h2.6a1.691 1.691 0 001.812-1.89c0-1.254-.666-1.89-1.98-1.89H86.02zm0-7.02h2.567c.759 0 1.569-.508 1.569-1.931A1.774 1.774 0 0088.284 3.6H86.02zM73.12 18a.467.467 0 01-.466-.468V.468A.467.467 0 0173.12 0h3.735a.467.467 0 01.466.468v17.064a.467.467 0 01-.466.468zm-14.23 0a.47.47 0 01-.436-.3L51.691.64a.468.468 0 01.435-.64h4.092a.469.469 0 01.441.309l3.974 11 3.973-11A.469.469 0 0165.048 0h4.092a.468.468 0 01.436.64L62.812 17.7a.47.47 0 01-.436.3z"/><g id="l그룹_34"><path id="lFill_13" d="M6.255 0v4.4L3.248 0H0v8.724h3.238v-4.4l3.006 4.4h3.249V0z" class="lcls-1" transform="translate(0 4.906)"/><path id="lFill_16" d="M3.239 8.725H0V0h4.046c2.736 0 4.122 1 4.122 2.968A2.419 2.419 0 016.276 5.46l2.616 3.262h-3.72L3.239 6v2.724zm-.1-6.531v1.718h.691a1.508 1.508 0 00.854-.23.736.736 0 00.278-.613.8.8 0 00-.262-.641 1.519 1.519 0 00-.881-.235z" class="lcls-1" transform="translate(37.972 4.906)"/><path id="lFill_18" d="M0 0h6.565v2.271H3.207V3.3H6.3v2.143H3.207v1.009h3.46v2.272H0z" class="lcls-1" transform="translate(30.08 4.906)"/><path id="lFill_20" d="M3.6 8.724H0L3.407 0H7.1l3.408 8.722h-3.6l-.315-1.14H3.917L3.6 8.724zm1.609-6.035l-.761 2.878h1.613L5.3 2.689z" class="lcls-1" transform="translate(10.188 4.906)"/><path id="lFill_22" d="M6.813 0l-1.6 5.259h-.09L3.532 0H0l3.643 8.724H6.7L10.345 0z" class="lcls-1" transform="translate(19.04 4.906)"/></g></g></svg></svg>