<?xml version="1.0" encoding="utf-8"?><svg width="229" height="181" viewBox="0 0 229 181" xmlns="http://www.w3.org/2000/svg" xmlns:xlink="http://www.w3.org/1999/xlink"><svg width="32" height="32" viewBox="-4 -4 32 32" id="btn_share" x="132" y="131" xmlns="http://www.w3.org/2000/svg"><path fill="none" d="M0 0h24v24H0z"/><path fill="#fff" d="M19 19H5V5h6V3H5a2 2 0 00-2 2v14a2 2 0 002 2h14a2.006 2.006 0 002-2v-6h-2zM14 3v2h3.59l-9 9.007 1.41 1.41 9-9.007V10h2V3z"/></svg><svg width="32" height="32" viewBox="-4 -4 32 32" id="btn_share_black" x="100" y="131" xmlns="http://www.w3.org/2000/svg"><path fill="none" d="M0 0h24v24H0z"/><path d="M19 19H5V5h6V3H5a2 2 0 00-2 2v14a2 2 0 002 2h14a2.006 2.006 0 002-2v-6h-2zM14 3v2h3.59l-9 9.007 1.41 1.41 9-9.007V10h2V3z"/></svg><svg width="63" height="63" viewBox="-4 -4 63 63" id="ico_ar_down" x="110" xmlns="http://www.w3.org/2000/svg"><path fill="none" stroke="#fff" stroke-width="2" d="M16 22l11.5 11L39 22"/></svg><svg width="63" height="63" viewBox="-4 -4 63 63" id="ico_ar_down_black" y="68" xmlns="http://www.w3.org/2000/svg"><path fill="none" stroke="#000" stroke-width="2" d="M16 22l11.5 11L39 22"/></svg><svg width="56" height="56" viewBox="-4 -4 56 56" id="ico_ar_left" x="63" y="68" xmlns="http://www.w3.org/2000/svg"><g opacity=".6"><path fill="rgba(255,255,255,0)" d="M0 0h48v48H0z"/><path fill="#fff" d="M14 24l17-10v20z"/></g></svg><svg width="50" height="50" viewBox="-4 -4 50 50" id="ico_ar_left2" x="119" y="68" xmlns="http://www.w3.org/2000/svg"><defs><style>.fcls-1{fill:#fff}.fcls-2{fill:none}</style></defs><g id="fLayer_2" data-name="Layer 2"><g id="fLayer_1-2" data-name="Layer 1"><path d="M21 1a20 20 0 0120 20 20 20 0 01-20 20A20 20 0 011 21 20 20 0 0121 1z"/><path class="fcls-1" d="M11.39 21l14-8v16z"/><path class="fcls-2" d="M0 0h42v42H0z"/></g></g></svg><svg width="50" height="50" viewBox="-4 -4 50 50" id="ico_ar_left2_gray" x="173" y="56" xmlns="http://www.w3.org/2000/svg"><defs><style>.gcls-1{fill:#999}.gcls-2{fill:#fff}.gcls-3{fill:none}</style></defs><g id="gLayer_2" data-name="Layer 2"><g id="gLayer_1-2" data-name="Layer 1"><path class="gcls-1" d="M21 1a20 20 0 0120 20 20 20 0 01-20 20A20 20 0 011 21 20 20 0 0121 1z"/><path class="gcls-2" d="M11.39 21l14-8v16z"/><path class="gcls-3" d="M0 0h42v42H0z"/></g></g></svg><svg width="56" height="56" viewBox="-4 -4 56 56" id="ico_ar_right" x="173" xmlns="http://www.w3.org/2000/svg"><g opacity=".6"><path fill="rgba(255,255,255,0)" d="M0 0h48v48H0z"/><path fill="#fff" d="M34 24L17 34V14z"/></g></svg><svg width="50" height="50" viewBox="-4 -4 50 50" id="ico_ar_right2" y="131" xmlns="http://www.w3.org/2000/svg"><defs><style>.icls-1{fill:#fff}.icls-2{fill:none}</style></defs><g id="iLayer_2" data-name="Layer 2"><g id="iLayer_1-2" data-name="Layer 1"><path d="M21 1a20 20 0 0120 20 20 20 0 01-20 20A20 20 0 011 21 20 20 0 0121 1z"/><path class="icls-1" d="M30.61 21l-14 8V13z"/><path class="icls-2" d="M0 0h42v42H0z"/></g></g></svg><svg width="50" height="50" viewBox="-4 -4 50 50" id="ico_ar_right2_gray" x="50" y="131" xmlns="http://www.w3.org/2000/svg"><defs><style>.jcls-1{fill:#999}.jcls-2{fill:#fff}.jcls-3{fill:none}</style></defs><g id="jLayer_2" data-name="Layer 2"><g id="jLayer_1-2" data-name="Layer 1"><path class="jcls-1" d="M21 1a20 20 0 0120 20 20 20 0 01-20 20A20 20 0 011 21 20 20 0 0121 1z"/><path class="jcls-2" d="M30.61 21l-14 8V13z"/><path class="jcls-3" d="M0 0h42v42H0z"/></g></g></svg><svg width="110" height="34" viewBox="-4 -4 110 34" id="logo" y="34" xmlns="http://www.w3.org/2000/svg"><defs><style>.kcls-1{fill:#fff}.kcls-2{fill:none}</style></defs><g id="kLayer_2" data-name="Layer 2"><g id="k_1_logo_w" data-name="1 logo w"><g id="k그룹_4686" data-name="그룹 4686"><g id="k그룹_4686-2" data-name="그룹 4686-2"><path id="k패스_11614" data-name="패스 11614" class="kcls-1" d="M43.84 22.18L36.25 4.07a.32.32 0 01.17-.42.21.21 0 01.12 0h4.35a.31.31 0 01.29.2l5 12.29 5-12.29a.3.3 0 01.29-.2h4.35a.32.32 0 01.32.33.27.27 0 010 .12L48.6 22.18a.31.31 0 01-.29.2h-4.19a.3.3 0 01-.28-.2z"/><rect id="k사각형_188" data-name="사각형 188" class="kcls-1" x="59.18" y="3.62" width="4.58" height="18.65" rx=".37"/><path id="k패스_11615" data-name="패스 11615" class="kcls-1" d="M68.38 22V4a.32.32 0 01.31-.33h8.64A7.21 7.21 0 0181.91 5a4.5 4.5 0 011.65 3.64 4.36 4.36 0 01-2.37 4.05 4.32 4.32 0 013.16 4.4 4.73 4.73 0 01-1.73 3.78 7.44 7.44 0 01-4.76 1.43h-9.17a.32.32 0 01-.31-.32zm8.87-3.6a3.23 3.23 0 002-.55 1.62 1.62 0 00.62-1.34c0-1.37-1.37-1.66-2.51-1.66H73v3.55zm-.64-7.17c1.61 0 2.57-.73 2.57-1.94 0-1.44-1.4-1.75-2.57-1.75H73v3.69z"/><path id="k패스_11616" data-name="패스 11616" class="kcls-1" d="M87.28 22V4a.33.33 0 01.31-.33h13.1A.33.33 0 01101 4v3.41a.32.32 0 01-.31.33h-8.83V11h7.58a.32.32 0 01.32.33v3.38a.33.33 0 01-.32.33h-7.58v3.1h8.83a.33.33 0 01.31.33V22a.32.32 0 01-.31.32h-13.1a.31.31 0 01-.31-.32z"/></g><g id="k그룹_4687" data-name="그룹 4687"><rect id="k사각형_189" data-name="사각형 189" class="kcls-1" x="1" y="4.82" width="4.05" height="9.19" rx="1.36"/><rect id="k사각형_190" data-name="사각형 190" class="kcls-1" x="7.16" y="1" width="4.05" height="17.89" rx="1.36"/><rect id="k사각형_191" data-name="사각형 191" class="kcls-1" x="13.32" y="7.87" width="4.05" height="17.13" rx="1.36"/><rect id="k사각형_192" data-name="사각형 192" class="kcls-1" x="19.49" y="1" width="4.05" height="17.89" rx="1.36"/><rect id="k사각형_193" data-name="사각형 193" class="kcls-1" x="25.65" y="4.82" width="4.05" height="9.19" rx="1.36"/></g></g><path class="kcls-2" d="M0 0h102v26H0z"/></g></g></svg><svg width="110" height="34" viewBox="-4 -4 110 34" id="logo_black" xmlns="http://www.w3.org/2000/svg"><defs><style>.lcls-1{fill:none}</style></defs><g id="lLayer_2" data-name="Layer 2"><g id="lLayer_1-2" data-name="Layer 1"><path d="M43.84 22.18L36.25 4.07a.32.32 0 01.17-.42.21.21 0 01.12 0h4.35a.31.31 0 01.29.2l5 12.28 5-12.28a.3.3 0 01.29-.2h4.35a.32.32 0 01.32.33.27.27 0 010 .12L48.6 22.18a.31.31 0 01-.29.2h-4.19a.3.3 0 01-.28-.2z"/><rect x="59.18" y="3.62" width="4.58" height="18.65" rx=".37"/><path d="M68.38 22V4a.32.32 0 01.31-.33h8.64A7.21 7.21 0 0181.91 5a4.5 4.5 0 011.65 3.64 4.36 4.36 0 01-2.37 4.05 4.32 4.32 0 013.16 4.4 4.73 4.73 0 01-1.73 3.78 7.44 7.44 0 01-4.76 1.43h-9.17a.32.32 0 01-.31-.32zm8.87-3.6a3.23 3.23 0 002-.55 1.62 1.62 0 00.62-1.34c0-1.37-1.37-1.66-2.51-1.66H73v3.55zm-.64-7.17c1.61 0 2.57-.73 2.57-1.94 0-1.44-1.4-1.75-2.57-1.75H73v3.69zM87.28 22V4a.33.33 0 01.31-.33h13.1A.33.33 0 01101 4v3.41a.32.32 0 01-.31.33h-8.83V11h7.58a.32.32 0 01.32.33v3.38a.33.33 0 01-.32.33h-7.58v3.1h8.83a.33.33 0 01.31.33V22a.32.32 0 01-.31.32h-13.1a.31.31 0 01-.31-.32z"/><rect x="1" y="4.82" width="4.05" height="9.19" rx="1.36"/><rect x="7.16" y="1" width="4.05" height="17.89" rx="1.36"/><rect x="13.32" y="7.87" width="4.05" height="17.13" rx="1.36"/><rect x="19.49" y="1" width="4.05" height="17.89" rx="1.36"/><rect x="25.65" y="4.82" width="4.05" height="9.19" rx="1.36"/><path class="lcls-1" d="M0 0h102v26H0z"/></g></g></svg></svg>