<svg xmlns="http://www.w3.org/2000/svg" width="243" height="65"><defs><style>.cls-3{fill:#fff}.cls-4{stroke:none}.cls-5{fill:none}</style></defs><g id="_9_btn" data-name="9_btn" transform="translate(-16)"><g id="Rectangle" transform="translate(19 5)" stroke="#000" stroke-miterlimit="10" stroke-width="2"><rect class="cls-4" width="240" height="60" rx="30"/><rect class="cls-5" x="1" y="1" width="238" height="58" rx="29"/></g><g id="Rectangle-2" data-name="Rectangle" transform="translate(16)" fill="#ff006b" stroke="#000" stroke-miterlimit="10" stroke-width="2"><rect class="cls-4" width="240" height="60" rx="30"/><rect class="cls-5" x="1" y="1" width="238" height="58" rx="29"/></g><path id="_내돈내듣에_공감하기" data-name="#내돈내듣에 공감하기" class="cls-3" d="M-39.91-15.5v7.04h-11.96v-7.04zm-4.98 17.1h-2.04v-6h-7v-1.66h16.1v1.66h-7.06zm2.94-11.72v-3.72h-7.86v3.72zm19.86 4.78h-2.66v3.02h4.22v1.64h-16.1v-1.64h4.18v-3.02h-2.12v-5.76h9.92v-2.26h-9.96V-15h12v5.56h-9.9V-7h10.42zm-8.34 0v3.02h3.66v-3.02zm19.92 1.7l-1.18 1.44a8.123 8.123 0 01-1.99-1.79 6.338 6.338 0 01-1.29-2.33 6.828 6.828 0 01-1.3 2.58 7.771 7.771 0 01-2.14 1.98l-1.28-1.38a7.978 7.978 0 003.74-7.04h-3.1v-1.64h8.08v1.64h-2.98a8.331 8.331 0 00.97 4.02 6.553 6.553 0 002.47 2.52zm2.7 4.38h-1.94v-7.5h-2.26v-1.7h2.26v-7.42h1.94zm3.5.84h-1.96v-17.82h1.96zm-8.3-14.72h-4.66v-1.66h4.66zm23.22 4.42H7.87v-1.72h2.74v-5.8h2.04v10.96h-2.04zm2.04 10.06H1.01v-5.72h11.64zM10.61-.28v-2.5H3.07v2.5zM5.67-14.44H.45v-1.64h5.22zm2.5 2.64h-10.3v-1.62h10.3zm-.96 3.6a2.463 2.463 0 01-1.19 2.1 5.15 5.15 0 01-2.99.82A5.245 5.245 0 01.02-6.1a2.454 2.454 0 01-1.21-2.1 2.49 2.49 0 011.2-2.14 5.234 5.234 0 013.02-.82 5.15 5.15 0 012.99.82A2.5 2.5 0 017.21-8.2zm-2 0a1.17 1.17 0 00-.64-1.03 2.9 2.9 0 00-1.54-.39 3.06 3.06 0 00-1.57.38A1.161 1.161 0 00.81-8.2a1.153 1.153 0 00.66 1.01 3.011 3.011 0 001.56.39 2.9 2.9 0 001.54-.39 1.156 1.156 0 00.64-1.01zm30 9.78h-2.04v-17.82h2.04zm-3.82-5.66l-1.22 1.54a10.758 10.758 0 01-2.4-2.25 9.394 9.394 0 01-1.68-2.89 8.878 8.878 0 01-1.65 3.11 10.2 10.2 0 01-2.69 2.43l-1.26-1.5a10.16 10.16 0 003.31-3.51 9.215 9.215 0 001.21-4.63v-2.92h2.12v2.8a9.138 9.138 0 001.13 4.54 9.049 9.049 0 003.13 3.28zm6.66-9.32v-1.7h9.38v1.7h-3.56v.04a4.918 4.918 0 001.19 3.27 6.33 6.33 0 002.85 1.97l-1.12 1.64a8.007 8.007 0 01-2.3-1.48 6.827 6.827 0 01-1.68-2.2 5.748 5.748 0 01-1.6 2.46A7.558 7.558 0 0138.59-6l-1.2-1.58a7.3 7.3 0 003.16-2.26 5.377 5.377 0 001.22-3.46v-.1zm2 8.54h11.64V1.6h-2.06v-4.84h-9.58zm14.24-5.36h-2.62v4.42h-2.06v-10.44h2.06v4.32h2.62z" transform="translate(136 36)"/><path id="_내돈내듣에_공감하기-2" data-name="#내돈내듣에 공감하기" class="cls-3" d="M-39.91-15.5v7.04h-11.96v-7.04zm-4.98 17.1h-2.04v-6h-7v-1.66h16.1v1.66h-7.06zm2.94-11.72v-3.72h-7.86v3.72zm19.86 4.78h-2.66v3.02h4.22v1.64h-16.1v-1.64h4.18v-3.02h-2.12v-5.76h9.92v-2.26h-9.96V-15h12v5.56h-9.9V-7h10.42zm-8.34 0v3.02h3.66v-3.02zm19.92 1.7l-1.18 1.44a8.123 8.123 0 01-1.99-1.79 6.338 6.338 0 01-1.29-2.33 6.828 6.828 0 01-1.3 2.58 7.771 7.771 0 01-2.14 1.98l-1.28-1.38a7.978 7.978 0 003.74-7.04h-3.1v-1.64h8.08v1.64h-2.98a8.331 8.331 0 00.97 4.02 6.553 6.553 0 002.47 2.52zm2.7 4.38h-1.94v-7.5h-2.26v-1.7h2.26v-7.42h1.94zm3.5.84h-1.96v-17.82h1.96zm-8.3-14.72h-4.66v-1.66h4.66zm23.22 4.42H7.87v-1.72h2.74v-5.8h2.04v10.96h-2.04zm2.04 10.06H1.01v-5.72h11.64zM10.61-.28v-2.5H3.07v2.5zM5.67-14.44H.45v-1.64h5.22zm2.5 2.64h-10.3v-1.62h10.3zm-.96 3.6a2.463 2.463 0 01-1.19 2.1 5.15 5.15 0 01-2.99.82A5.245 5.245 0 01.02-6.1a2.454 2.454 0 01-1.21-2.1 2.49 2.49 0 011.2-2.14 5.234 5.234 0 013.02-.82 5.15 5.15 0 012.99.82A2.5 2.5 0 017.21-8.2zm-2 0a1.17 1.17 0 00-.64-1.03 2.9 2.9 0 00-1.54-.39 3.06 3.06 0 00-1.57.38A1.161 1.161 0 00.81-8.2a1.153 1.153 0 00.66 1.01 3.011 3.011 0 001.56.39 2.9 2.9 0 001.54-.39 1.156 1.156 0 00.64-1.01zm30 9.78h-2.04v-17.82h2.04zm-3.82-5.66l-1.22 1.54a10.758 10.758 0 01-2.4-2.25 9.394 9.394 0 01-1.68-2.89 8.878 8.878 0 01-1.65 3.11 10.2 10.2 0 01-2.69 2.43l-1.26-1.5a10.16 10.16 0 003.31-3.51 9.215 9.215 0 001.21-4.63v-2.92h2.12v2.8a9.138 9.138 0 001.13 4.54 9.049 9.049 0 003.13 3.28zm6.66-9.32v-1.7h9.38v1.7h-3.56v.04a4.918 4.918 0 001.19 3.27 6.33 6.33 0 002.85 1.97l-1.12 1.64a8.007 8.007 0 01-2.3-1.48 6.827 6.827 0 01-1.68-2.2 5.748 5.748 0 01-1.6 2.46A7.558 7.558 0 0138.59-6l-1.2-1.58a7.3 7.3 0 003.16-2.26 5.377 5.377 0 001.22-3.46v-.1zm2 8.54h11.64V1.6h-2.06v-4.84h-9.58zm14.24-5.36h-2.62v4.42h-2.06v-10.44h2.06v4.32h2.62z" transform="translate(136 36)"/></g></svg>