<svg xmlns="http://www.w3.org/2000/svg" width="118" height="44"><rect width="118" height="44" fill="#ff006b" rx="22"/><path fill="#fff" d="M29.321 15.644v5.878h-9.662v-5.878zm-3.833 13.724h-2.109v-4.722H18v-1.659h12.963v1.659h-5.475zm1.707-9.517v-2.532H21.8v2.528zm15.814 3.961h-1.965v2.093h3.2v1.675H31.285v-1.678h3.2v-2.093h-1.573v-4.9h7.6v-1.381h-7.616v-1.707h9.743v4.8h-7.6v1.5h7.971zm-6.457 0v2.093h2.464v-2.096zm15.136 1.076l-1.127 1.61a5.562 5.562 0 01-1.482-1.3 5.275 5.275 0 01-1.03-1.73 4.919 4.919 0 01-.978 1.814 6.465 6.465 0 01-1.675 1.473l-1.159-1.514a5.175 5.175 0 002.021-1.916 6.827 6.827 0 00.733-3.092h-2.259v-1.658h6.457v1.659h-2.142a6.171 6.171 0 00.741 2.923 5.02 5.02 0 001.9 1.731zm2.367 3.817h-1.984v-6.024h-1.623v-1.707h1.623v-5.716h1.981zm2.754.644h-2V15h2zm-6.876-11.676h-3.784v-1.642h3.784zm19.838 11.53h-9.886v-4.509h9.886zm-2.14-1.626v-1.256h-5.588v1.256zm2.142-3.43h-2.158v-2.8h-1.744v-1.822h1.739V15h2.161zm-3.559-5.057h-8.358v-1.622h8.358zm-1.659 1a2 2 0 01.008 3.438 4.8 4.8 0 01-4.992 0 2 2 0 01.008-3.438 4.722 4.722 0 014.976 0zm-1.514 2.39a.815.815 0 00.386-.668.836.836 0 00-.386-.676 1.565 1.565 0 00-.97-.29 1.5 1.5 0 00-.95.29.845.845 0 00-.37.676.816.816 0 00.37.676 1.557 1.557 0 00.95.274 1.6 1.6 0 00.97-.282zm-3.108-5.612v-1.61h4.316v1.61zm26.732 12.48h-2.174V15h2.174zm-2.786-4.98l-1.24 1.707a8.386 8.386 0 01-2-1.594 5.126 5.126 0 01-1.288-2.045 5.818 5.818 0 01-1.288 2.271 6.812 6.812 0 01-2.029 1.707l-1.337-1.643a6.747 6.747 0 002.673-2.7 8.447 8.447 0 00.837-3.921v-1.974h2.222v1.916a6.63 6.63 0 003.45 6.276zm4.332-6.888v-1.723h7.569v1.723h-2.609a4 4 0 00.99 2.432 5.2 5.2 0 002.23 1.449l-1.143 1.659a5.316 5.316 0 01-1.811-1.112 5.064 5.064 0 01-1.345-1.707 4.341 4.341 0 01-1.288 1.9 5.559 5.559 0 01-2.061 1.288l-1.128-1.706a5.065 5.065 0 002.416-1.594 4.329 4.329 0 00.934-2.609zm1.626 6.538h9.485v5.35h-2.125v-3.659h-7.359zm11.45-3.929h-2v3.317h-2.106V15h2.11v3.333h2z"/></svg>