<svg xmlns="http://www.w3.org/2000/svg" width="240" height="60"><defs><style>.cls-1{fill:#fff}</style></defs><g id="_7_btn" transform="translate(-57 -129.611)"><path id="Rectangle" d="M27.692 0h184.616C227.6 0 240 13.431 240 30s-12.4 30-27.692 30H27.692C12.4 60 0 46.569 0 30S12.4 0 27.692 0z" transform="translate(57 129.611)"/><g id="그룹_28" transform="translate(-6 -.101)"><path id="_내돈내듣에_공감하기" d="M-42.79-4.22l-1.2 1.5a10.424 10.424 0 01-2.64-2.22 8.076 8.076 0 01-1.76-2.82 7.991 7.991 0 01-1.59 3.03 8.79 8.79 0 01-2.79 2.37l-1.3-1.5a8.914 8.914 0 003.4-3.29 9.139 9.139 0 001.22-4.73v-.88h-3.72v-1.62h9.46v1.62h-3.62v.86a8.447 8.447 0 001.24 4.58 8.775 8.775 0 003.3 3.1zm3.54 5.8h-2.04v-17.82h2.04zm16.66-.22h-11.98v-6.54h11.98zm-.06-16.84a30.749 30.749 0 01-.56 6.42h2.68v1.66h-16.1v-1.66h11.46a23.317 23.317 0 00.48-4.78h-9.88v-1.64zm-1.98 15.2v-3.3h-7.9v3.3zm24.4 1.64h-11.4v-6.24h11.4zm-13.44-12.82v-1.64h9.34v1.64h-3.58a4.092 4.092 0 001.38 2.47 6.494 6.494 0 002.64 1.37l-1.06 1.58a7.121 7.121 0 01-2.31-1.25 5.987 5.987 0 01-1.73-2.03 5.818 5.818 0 01-1.67 2.26 7.774 7.774 0 01-2.61 1.54l-1.16-1.56a7.324 7.324 0 002.92-1.7 4.661 4.661 0 001.38-2.68zm16.06 1.4H-.23v4.24h-2.06v-10.42h2.06v4.48h2.62zM-2.29-.28V-3.3h-7.28v3.02zm-9.24-13.96v-1.64h5.06v1.64zm24.52 9.08l.04-1.64h2.82v-4.08h-2.82l-.04-1.66h2.86v-3.7h2.06V1.58h-2.06v-6.74zM4.62-4.08a7.773 7.773 0 01-1.21-4.56 7.773 7.773 0 011.21-4.56 3.8 3.8 0 013.27-1.72 3.823 3.823 0 013.28 1.72 7.763 7.763 0 011.22 4.58 7.687 7.687 0 01-1.22 4.54 3.823 3.823 0 01-3.28 1.72 3.8 3.8 0 01-3.27-1.72zm5.1-1.18a7.051 7.051 0 00.69-3.38 6.99 6.99 0 00-.69-3.37 2.061 2.061 0 00-1.83-1.25 2.029 2.029 0 00-1.8 1.25 7.077 7.077 0 00-.68 3.37 7.139 7.139 0 00.68 3.38A2.029 2.029 0 007.89-4a2.061 2.061 0 001.83-1.26zm20.13-.5a3.539 3.539 0 01-1.18 2.71 4.331 4.331 0 01-3.06 1.09 4.446 4.446 0 01-3.09-1.07 3.508 3.508 0 01-1.19-2.73 3.525 3.525 0 011.19-2.71 4.4 4.4 0 013.09-1.09 4.38 4.38 0 013.06 1.07 3.522 3.522 0 011.18 2.73zm-2.62 1.53a2.051 2.051 0 00.6-1.53 2 2 0 00-.63-1.53 2.235 2.235 0 00-1.59-.59 2.226 2.226 0 00-1.6.59 2.017 2.017 0 00-.62 1.53 2.017 2.017 0 00.62 1.53 2.226 2.226 0 001.6.59 2.21 2.21 0 001.62-.59zm3.52-6.19H20.39v-1.66h10.36zm-7.84-3.1v-1.68h5.4v1.68zm11.46-2.72v7.32h2.76v1.72h-2.76v8.78h-2.06v-17.82zM52.51 1.58h-2.04v-17.82h2.04zm-5.46-15.94q-.18 8.3-8.02 12.6l-1.28-1.56a12.533 12.533 0 004.93-3.94 10.568 10.568 0 002.17-5.42h-6.06v-1.68z" class="cls-1" transform="translate(199 166.712)"/><path id="_내돈내듣에_공감하기-2" d="M-42.79-4.22l-1.2 1.5a10.424 10.424 0 01-2.64-2.22 8.076 8.076 0 01-1.76-2.82 7.991 7.991 0 01-1.59 3.03 8.79 8.79 0 01-2.79 2.37l-1.3-1.5a8.914 8.914 0 003.4-3.29 9.139 9.139 0 001.22-4.73v-.88h-3.72v-1.62h9.46v1.62h-3.62v.86a8.447 8.447 0 001.24 4.58 8.775 8.775 0 003.3 3.1zm3.54 5.8h-2.04v-17.82h2.04zm16.66-.22h-11.98v-6.54h11.98zm-.06-16.84a30.749 30.749 0 01-.56 6.42h2.68v1.66h-16.1v-1.66h11.46a23.317 23.317 0 00.48-4.78h-9.88v-1.64zm-1.98 15.2v-3.3h-7.9v3.3zm24.4 1.64h-11.4v-6.24h11.4zm-13.44-12.82v-1.64h9.34v1.64h-3.58a4.092 4.092 0 001.38 2.47 6.494 6.494 0 002.64 1.37l-1.06 1.58a7.121 7.121 0 01-2.31-1.25 5.987 5.987 0 01-1.73-2.03 5.818 5.818 0 01-1.67 2.26 7.774 7.774 0 01-2.61 1.54l-1.16-1.56a7.324 7.324 0 002.92-1.7 4.661 4.661 0 001.38-2.68zm16.06 1.4H-.23v4.24h-2.06v-10.42h2.06v4.48h2.62zM-2.29-.28V-3.3h-7.28v3.02zm-9.24-13.96v-1.64h5.06v1.64zm24.52 9.08l.04-1.64h2.82v-4.08h-2.82l-.04-1.66h2.86v-3.7h2.06V1.58h-2.06v-6.74zM4.62-4.08a7.773 7.773 0 01-1.21-4.56 7.773 7.773 0 011.21-4.56 3.8 3.8 0 013.27-1.72 3.823 3.823 0 013.28 1.72 7.763 7.763 0 011.22 4.58 7.687 7.687 0 01-1.22 4.54 3.823 3.823 0 01-3.28 1.72 3.8 3.8 0 01-3.27-1.72zm5.1-1.18a7.051 7.051 0 00.69-3.38 6.99 6.99 0 00-.69-3.37 2.061 2.061 0 00-1.83-1.25 2.029 2.029 0 00-1.8 1.25 7.077 7.077 0 00-.68 3.37 7.139 7.139 0 00.68 3.38A2.029 2.029 0 007.89-4a2.061 2.061 0 001.83-1.26zm20.13-.5a3.539 3.539 0 01-1.18 2.71 4.331 4.331 0 01-3.06 1.09 4.446 4.446 0 01-3.09-1.07 3.508 3.508 0 01-1.19-2.73 3.525 3.525 0 011.19-2.71 4.4 4.4 0 013.09-1.09 4.38 4.38 0 013.06 1.07 3.522 3.522 0 011.18 2.73zm-2.62 1.53a2.051 2.051 0 00.6-1.53 2 2 0 00-.63-1.53 2.235 2.235 0 00-1.59-.59 2.226 2.226 0 00-1.6.59 2.017 2.017 0 00-.62 1.53 2.017 2.017 0 00.62 1.53 2.226 2.226 0 001.6.59 2.21 2.21 0 001.62-.59zm3.52-6.19H20.39v-1.66h10.36zm-7.84-3.1v-1.68h5.4v1.68zm11.46-2.72v7.32h2.76v1.72h-2.76v8.78h-2.06v-17.82zM52.51 1.58h-2.04v-17.82h2.04zm-5.46-15.94q-.18 8.3-8.02 12.6l-1.28-1.56a12.533 12.533 0 004.93-3.94 10.568 10.568 0 002.17-5.42h-6.06v-1.68z" class="cls-1" transform="translate(199 166.712)"/><g id="ic_instagram" transform="translate(89.999 123.659)"><g id="그룹_50" transform="translate(23.001 24.053)"><path id="패스_13" d="M38 31.9a6.153 6.153 0 106.152 6.153A6.143 6.143 0 0038 31.9zm0 10.153a4 4 0 114-4 4.007 4.007 0 01-4 4zm7.838-10.405a1.435 1.435 0 11-1.435-1.435 1.432 1.432 0 011.438 1.435zm4.077 1.452a6.646 6.646 0 00-6.965-6.967c-1.981-.112-7.918-.112-9.9 0a6.638 6.638 0 00-6.965 6.967c-.112 1.981-.112 7.92 0 9.9a6.646 6.646 0 006.965 6.967c1.981.112 7.918.112 9.9 0A6.646 6.646 0 0049.915 43c.113-1.981.113-7.915 0-9.9zm-2.559 12.026a4.049 4.049 0 01-2.281 2.281c-1.579.627-5.327.482-7.073.482s-5.5.139-7.073-.482a4.049 4.049 0 01-2.281-2.281c-.626-1.58-.482-5.328-.482-7.074s-.139-5.5.482-7.074A4.049 4.049 0 0130.93 28.7c1.579-.627 5.327-.482 7.073-.482s5.5-.139 7.073.482a4.049 4.049 0 012.281 2.281c.626 1.58.482 5.328.482 7.074s.144 5.497-.483 7.071z" class="cls-1" transform="translate(-26.001 -26.053)"/></g></g></g></g></svg>