<svg xmlns="http://www.w3.org/2000/svg" width="142" height="36"><defs><style>.cls-1{fill:none}</style></defs><g id="Layer_2" data-name="Layer 2"><g id="Layer_1-2" data-name="Layer 1"><path class="cls-1" d="M18 1h106a17 17 0 0117 17 17 17 0 01-17 17H18A17 17 0 011 18 17 17 0 0118 1z"/><path d="M18 2h106a16 16 0 0116 16h0a16 16 0 01-16 16H18A16 16 0 012 18h0A16 16 0 0118 2z" stroke="#000" stroke-width="2" fill="none"/><path class="cls-1" d="M0 0h142v36H0z"/><path d="M45.08 11.84v12.24h-1.85V11.84zm-8.81 3.8V20c0 1.38.55 2 1.53 2s1.54-.63 1.54-2v-4.36c0-1.36-.55-2-1.54-2s-1.53.65-1.53 2zM34.5 20v-4.36c0-2.43 1.31-3.74 3.3-3.74s3.33 1.31 3.33 3.74V20c0 2.41-1.32 3.71-3.33 3.71s-3.3-1.34-3.3-3.71zM58 22.3V24H47.61v-3.9h1.87v2.18zM52.12 12v2.85h1.14v-3H55v8.6h-1.74v-4h-1.14v2.7h-4.9V12h1.7v2.08h1.5V12zm-3.2 5.64h1.5v-2h-1.5zm7 3v-8.8h1.78v8.86zm5.91-7v1.53h8.54v1.62h-8.56v1.63h8.67v1.65H60V12h10.4v1.65zm9.13 8.22v1.71h-11.6V21.9zm11.88-3.84h-3.57c-2.24 0-3.68-1.25-3.68-3.1s1.44-3.12 3.68-3.12h3.55c2.23 0 3.69 1.25 3.69 3.12s-1.46 3.1-3.69 3.1zm-3.54-1.68h3.48c1.14 0 1.81-.52 1.81-1.38s-.67-1.42-1.81-1.42H79.3c-1.12 0-1.8.55-1.8 1.42s.68 1.39 1.8 1.39zm7.53 3v1.73h-2.48v3.12h-1.87v-3.1h-2.9v3.12h-1.83v-3.12h-2.5v-1.73zm8.6-4a3.42 3.42 0 01-3.28 3.54h-.35a3.39 3.39 0 01-3.61-3.16 2.28 2.28 0 010-.37 3.4 3.4 0 013.26-3.54h.35A3.41 3.41 0 0195.42 15a1.82 1.82 0 010 .33zm-1.81 0A1.79 1.79 0 0092 13.43h-.2A1.8 1.8 0 0090 15.2a.86.86 0 000 .16 1.8 1.8 0 001.65 1.94h.17a1.79 1.79 0 001.82-1.78v-.15zm3.3 8.72V11.84h1.85v12.24zm-9.07-.46v-1.7h8.27v1.72zm14.11.1l-1.71-.83A22.56 22.56 0 00102.61 12h1.86a35.57 35.57 0 01-.24 4.12 14.34 14.34 0 003.57 6.32l-1.4 1.2a14.14 14.14 0 01-2.77-4.23 19.12 19.12 0 01-1.63 4.3zm9.15-5.47v5.83h-1.85V11.84h1.86v4.6h1.57v1.8zm14.18-3.56v1.78h-1.57v2.85h-1.86v-7.46h1.86v2.85zM117 19h-.52c-1.65 0-2.9-.89-2.9-2.35s1.25-2.37 2.9-2.37h.52c1.65 0 2.9.91 2.9 2.37S118.65 19 117 19zm-.52-1.44h.52c.64 0 1.12-.37 1.12-.91a1 1 0 00-1-.94h-.6c-.66 0-1.12.36-1.12.93s.42.94 1.08.94zm4.58 6.63h-4.5c-1.82 0-2.92-.78-2.92-2.25s1.1-2.27 2.92-2.27h4.5c1.79 0 2.91.91 2.91 2.27s-1.12 2.27-2.91 2.27zm-4.5-1.54h4.16c.84 0 1.35-.16 1.35-.71s-.5-.73-1.35-.73h-3.82c-.87 0-1.34.17-1.34.73s.36.73 1 .73zm3.87-10.3v1.55h-7.31v-1.53h2.66v-1h1.87v1zM17 17h10v2H17z"/><path d="M23.32 12.91v10.24h-1.71V12.91z"/></g></g></svg>