<svg xmlns="http://www.w3.org/2000/svg" width="142" height="36"><defs><style>.cls-1{fill:none}</style></defs><g id="Layer_2" data-name="Layer 2"><g id="Layer_1-2" data-name="Layer 1"><path class="cls-1" d="M18 1h106a17 17 0 0117 17 17 17 0 01-17 17H18A17 17 0 011 18 17 17 0 0118 1z"/><path d="M18 2h106a16 16 0 0116 16h0a16 16 0 01-16 16H18A16 16 0 012 18h0A16 16 0 0118 2z" stroke="#000" stroke-width="2" fill="none"/><path d="M45.08 11.84v12.1h-1.85v-12.1zm-8.81 3.75v4.27c0 1.36.55 2 1.53 2s1.54-.63 1.54-2v-4.27c0-1.34-.55-2-1.54-2s-1.53.65-1.53 2zm-1.77 4.27v-4.27c0-2.39 1.31-3.7 3.3-3.7s3.33 1.3 3.33 3.7v4.27c0 2.38-1.32 3.67-3.33 3.67s-3.3-1.29-3.3-3.67zM58 22.17v1.69H47.61V20h1.87v2.16zM52.12 12v2.81h1.14V11.9H55v8.5h-1.74v-3.92h-1.14v2.67h-4.9V12h1.7v2.1h1.5V12zm-3.2 5.57h1.5v-2h-1.5zm7 3v-8.73h1.78v8.75zm5.91-6.93v1.51h8.54v1.6h-8.56v1.61h8.67V20H60v-8h10.4v1.62zm9.13 8.12v1.69h-11.6v-1.67zM82.82 18h-3.55c-2.24 0-3.68-1.24-3.68-3.07s1.44-3.08 3.68-3.08h3.55c2.23 0 3.69 1.23 3.69 3.08S85.05 18 82.82 18zm-3.52-1.7h3.48c1.14 0 1.81-.52 1.81-1.37s-.67-1.4-1.81-1.4H79.3c-1.12 0-1.8.55-1.8 1.4s.68 1.36 1.8 1.36zm7.53 3V21h-2.48v3.08h-1.87V21h-2.9v3.08h-1.83V21h-2.5v-1.73zm8.6-3.94a3.4 3.4 0 01-3.29 3.49h-.34a3.37 3.37 0 01-3.61-3.12 2.16 2.16 0 010-.36 3.38 3.38 0 013.25-3.5h.36A3.4 3.4 0 0195.42 15v.33zm-1.81 0A1.78 1.78 0 0092 13.41h-.2a1.77 1.77 0 00-1.8 1.74 1.08 1.08 0 000 .18 1.79 1.79 0 001.64 1.91 1.08 1.08 0 00.18 0 1.77 1.77 0 001.82-1.74v-.17zm3.3 8.61V11.84h1.85v12.1zm-9.07-.47v-1.72h8.27v1.69zm14.11.1l-1.71-.81A22.06 22.06 0 00102.61 12h1.86a34.59 34.59 0 01-.24 4.07 14.12 14.12 0 003.57 6.24l-1.4 1.19a13.79 13.79 0 01-2.77-4.18 18.74 18.74 0 01-1.63 4.25zm9.15-5.4v5.77h-1.85V11.84h1.86v4.55h1.57v1.78zm14.18-3.52v1.77h-1.57v2.81h-1.86v-7.42h1.86v2.81zM117 18.94h-.52c-1.65 0-2.9-.88-2.9-2.33s1.25-2.33 2.9-2.33h.52c1.65 0 2.9.9 2.9 2.33s-1.25 2.33-2.9 2.33zm-.52-1.43h.52c.64 0 1.12-.36 1.12-.9s-.48-.92-1.12-.92h-.52c-.66 0-1.12.36-1.12.92s.46.9 1.12.9zm4.58 6.55h-4.5c-1.82 0-2.92-.77-2.92-2.22s1.1-2.24 2.92-2.24h4.5c1.79 0 2.91.9 2.91 2.24s-1.12 2.22-2.91 2.22zm-4.5-1.52h4.16c.84 0 1.35-.16 1.35-.7s-.5-.72-1.35-.72h-3.82c-.87 0-1.34.17-1.34.72s.36.7 1 .7zm3.87-10.18v1.51h-7.31v-1.51h2.66v-1h1.87v1zM16 17h11v2H16z"/><path class="cls-1" d="M0 0h142v36H0z"/></g></g></svg>