<svg xmlns="http://www.w3.org/2000/svg" width="460" height="370"><defs><style>.cls-1{fill:#592bc4}.cls-3,.cls-5{fill:none;stroke:#9263ff;stroke-width:1.3px}.cls-4{fill:#9263ff}.cls-5{stroke-linecap:round}.cls-10,.cls-5,.cls-6,.cls-7{stroke-linejoin:round}.cls-6{fill:#fdd835}.cls-10,.cls-6,.cls-7{stroke:#231815;stroke-width:2px}.cls-7{fill:#fed843}.cls-10{fill:#fff176}</style></defs><g id="Layer_2" data-name="Layer 2"><g id="Layer_1-2" data-name="Layer 1"><g id="_2_img" data-name="2 img"><g id="_2_particle" data-name="2 particle"><g id="그룹_3932" data-name="그룹 3932"><path id="패스_8692" data-name="패스 8692" class="cls-1" d="M71.54 190.4l2.31-5.28L84.54 197l-3.47 7.91z"/></g><g id="그룹_3933" data-name="그룹 3933"><path id="패스_8693" data-name="패스 8693" class="cls-1" d="M372.68 3.82l5.9 6.17-7.71 18.35-5.87-6.17z"/></g><g id="그룹_3934" data-name="그룹 3934"><path id="패스_8694" data-name="패스 8694" class="cls-1" d="M116.66 79.05l7.85.62 1.57 21.3-4.58-.37z"/></g><g id="그룹_3936" data-name="그룹 3936"><path id="패스_8696" data-name="패스 8696" class="cls-1" d="M135.72 238.29l2.2 11.62c-4.52-2.24-7.53-2.76-11.56.84l-2.2-11.62c3.71-3.02 6.38-3.6 11.56-.84z"/></g><g id="그룹_3937" data-name="그룹 3937"><path id="패스_8697" data-name="패스 8697" class="cls-1" d="M141.78 5.4l.74 12.44c-4.74-3.95-8-5.63-13.1-3.57l-.74-12.44c4.62-1.59 7.71-1.16 13.1 3.57z"/></g><g id="그룹_3938" data-name="그룹 3938"><path id="패스_8698" data-name="패스 8698" class="cls-1" d="M348.41 257.34l-2.85 9.66-11.68-12.21 2.85-9.63z"/></g><g id="그룹_3940" data-name="그룹 3940"><path id="패스_8700" data-name="패스 8700" class="cls-1" d="M384.84 331.82l-2.57-11.41 11.16-1.94 2.57 11.41z"/></g><g id="그룹_3944" data-name="그룹 3944"><path id="패스_8704" data-name="패스 8704" class="cls-1" d="M72 298.71l-5-4.4 2.54-18.63 7.42 6.6z"/></g><g id="그룹_3945" data-name="그룹 3945"><path id="패스_8705" data-name="패스 8705" class="cls-1" d="M359.92 164.62l-6.84-5.06-.47-18.71 6.84 5.07z"/></g><g id="그룹_3946" data-name="그룹 3946"><path id="패스_8706" data-name="패스 8706" class="cls-1" d="M285.38 304.34l-1.24 9.66-10.82-9.4.73-5.66z"/></g><g id="그룹_3948" data-name="그룹 3948"><path id="패스_8708" data-name="패스 8708" class="cls-1" d="M163 324.48l-2.55-11.12 9.8-6.65 2.55 11.12z"/></g><g id="그룹_3951" data-name="그룹 3951"><path id="패스_8711" data-name="패스 8711" class="cls-1" d="M163.66 145.92l-3.18 4.08-9.48-14.91 4.76-6.08z"/></g><g id="그룹_3952" data-name="그룹 3952"><path id="패스_8712" data-name="패스 8712" class="cls-1" d="M235.86 347.94l5.58-6.35 11.7 15.62-5.58 6.36z"/></g><g id="그룹_3957" data-name="그룹 3957"><path id="패스_8717" data-name="패스 8717" class="cls-1" d="M265.84 171.54l-5.58 4.14-7-17.28 5.58-4.14z"/></g></g><ellipse id="타원_33" data-name="타원 33" cx="264.53" cy="347.94" rx="50.67" ry="16.51" transform="rotate(-17.57 264.573 347.972)" style="isolation:isolate" fill="#050505" opacity=".12"/><g id="그룹_3962" data-name="그룹 3962"><g id="그룹_4491" data-name="그룹 4491"><path id="패스_11052" data-name="패스 11052" class="cls-3" d="M347.21 197.49c3.23-2.35 7.92-5.77 9.54-7a.79.79 0 00.19-1c-1.22-2-5.59-7.86-11.5-2a15.68 15.68 0 001.77 10z"/><path id="패스_11053" data-name="패스 11053" class="cls-3" d="M366.23 225.78a1.06 1.06 0 00-.8.25 85.28 85.28 0 01-8.62 6.38 61.31 61.31 0 01-11.25 5.85.38.38 0 00-.23.49.39.39 0 00.27.23 19.63 19.63 0 0010.72-.2c.46-.14.91-.3 1.35-.47 3.3-1.73 10.88-6.22 15.48-13a22.37 22.37 0 01-6.92.47z"/><path id="패스_11054" data-name="패스 11054" class="cls-3" d="M350.31 201a12.41 12.41 0 01-3.1-3.51 15.62 15.62 0 01-1.76-10.07l-1.92 1.89a163 163 0 01-14.3 11.79 6 6 0 00-1.77 7.49c4.87 9.54 22.65 12.17 28.6 22.21a11.27 11.27 0 01.78 1.6 83.75 83.75 0 008.61-6.39 1.09 1.09 0 01.8-.24 22.41 22.41 0 006.93-.46 24.06 24.06 0 001.68-2.86c4.31-8.68-17.75-16.2-24.53-21.46z"/><path id="패스_8733" data-name="패스 8733" class="cls-4" d="M346.51 210.81a1 1 0 00.36.54l-.72.6-.21-.07a.7.7 0 00-.78.24.88.88 0 00-.13.69v.07l-.42.4a1.35 1.35 0 00-.35.47.6.6 0 00-.09.41 1 1 0 00.23.4 1.07 1.07 0 00.26.26.77.77 0 00.35.12.7.7 0 00.29 0 1.77 1.77 0 00.31-.15c.11-.08.21-.14.3-.22s.17-.16.26-.22l.2-.16.12-.09 5.11 3.9c-.05.11-.11.23-.16.35s-.09.19-.15.31-.07.22-.11.35v.35a.62.62 0 00.05.27.7.7 0 00.22.31 1 1 0 00.33.17.8.8 0 00.43.09.58.58 0 00.39-.19 1.82 1.82 0 00.34-.48l.3-.61h.13a.77.77 0 00.45-.3.8.8 0 000-1c.06-.13.11-.26.17-.4s.12-.31.18-.46a1.15 1.15 0 00.63.15.77.77 0 00.46-.3c.44-.6 0-1.07-.42-1.48l.81-2 .42-1.05c.11-.25.16-.52.26-.79a1.08 1.08 0 000-.64c-.43-1.14-1.51-.36-2.21.1-.33.22-1.5 1.17-2.3 1.65.12-.52.77-2.29.83-2.61a3.56 3.56 0 00.19-1.71c-.23-.71-.82-.7-1.39-.4a5.78 5.78 0 00-.87.59c-.73.57-1.61 1.36-2.34 2a3.81 3.81 0 00-.8-.35.69.69 0 00-.77.24.85.85 0 00-.12.69zm1.33 2.18l.58-.48 1.26.93a4.32 4.32 0 00-.14.8c-.55-.42-1.11-.84-1.7-1.26zm2.81 2.09a3.73 3.73 0 00.7-.4l1.25.92c-.09.21-.18.44-.27.67-.51-.38-1.09-.79-1.67-1.21zm2.68-1.12l-.48-.35.89-.67a7.49 7.49 0 01-.41 1zm-3.12-2.31l-.42-.31.62-.52c0 .23-.11.51-.2.83z"/></g><g id="그룹_3964" data-name="그룹 3964"><path id="패스_11045" data-name="패스 11045" class="cls-5" d="M104.62 220l8 20.82s17.55-22.47 48.9-23.09L153.18 190s-35.06 4-48.56 30z"/><path id="패스_8735" data-name="패스 8735" class="cls-4" d="M133.53 208.45a1.1 1.1 0 00-.71.15c-.11-.33-.21-.67-.32-1l.16-.18a.77.77 0 00.07-.91 1 1 0 00-.66-.42H132v-.06c-.08-.2-.15-.41-.24-.6a1.41 1.41 0 00-.34-.56.67.67 0 00-.39-.26 1 1 0 00-.51.07 1.11 1.11 0 00-.39.16.86.86 0 00-.26.31.71.71 0 00-.1.31 1.7 1.7 0 000 .39c0 .15.06.27.1.4a3.17 3.17 0 01.13.36l.08.28.05.16-6.13 3.72c-.09-.11-.19-.21-.29-.32s-.16-.17-.26-.28l-.32-.26-.35-.19a.56.56 0 00-.31-.06.76.76 0 00-.41.1 1.18 1.18 0 00-.32.27.88.88 0 00-.26.41.66.66 0 000 .48 2.24 2.24 0 00.35.55l.52.58a.5.5 0 000 .13.84.84 0 00.12.6.89.89 0 001 .45l.35.34.4.38a1.34 1.34 0 00-.42.6.84.84 0 00.12.6c.44.71 1.11.48 1.71.19l1.73 1.67.92.87a8.8 8.8 0 00.72.6 1.17 1.17 0 00.68.24c1.36 0 1-1.43.82-2.35-.1-.44-.6-2.06-.77-3.09.5.35 2.07 1.77 2.38 2 .5.32 1.06.88 1.7.91.84.06 1.07-.56 1-1.28a6.35 6.35 0 00-.24-1.15c-.3-1-.75-2.24-1.08-3.26a4.5 4.5 0 00.7-.68.8.8 0 00.07-.91 1 1 0 00-.67-.42zm-2.82.48c.09.27.17.54.26.8l-1.5.92a5.52 5.52 0 00-.77-.48c.65-.4 1.3-.81 2.01-1.24zm-3.35 2a4.63 4.63 0 00.12.9l-1.48.9-.58-.56zm0 3.26l.57-.36c.11.41.22.82.33 1.21a10.38 10.38 0 01-.86-.8zm3.72-2.29l.5-.31c.11.34.22.66.27.87a9.49 9.49 0 01-.73-.46z"/></g><g id="그룹_4489" data-name="그룹 4489"><path id="패스_11045-2" data-name="패스 11045-2" class="cls-5" d="M319.37 313l9.89 17s13.41-21.72 42.18-26.34l-11-22.88s-31.81 7.99-41.07 32.22z"/><path id="패스_8735-2" data-name="패스 8735-2" class="cls-4" d="M345.43 299a1.07 1.07 0 00-.62.2l-.37-.87.13-.18a.71.71 0 000-.82.86.86 0 00-.57-.33h-.08v-.06c-.09-.17-.17-.35-.26-.52a1.35 1.35 0 00-.35-.47.59.59 0 00-.37-.2.93.93 0 00-.46.1 1.41 1.41 0 00-.32.17.81.81 0 00-.22.3.72.72 0 00-.06.29 1.35 1.35 0 00.06.34 2.89 2.89 0 00.11.35c0 .11.11.22.14.31l.09.25.06.13-5.17 3.84a3.45 3.45 0 01-.28-.26l-.26-.23c-.11-.06-.19-.13-.31-.21l-.32-.14a.67.67 0 00-.28 0 .77.77 0 00-.36.12 1.33 1.33 0 00-.26.27.81.81 0 00-.2.39.54.54 0 00.06.43 2.28 2.28 0 00.36.46l.5.47v.13a.73.73 0 00.16.51.78.78 0 00.93.32l.34.29.38.3a1.21 1.21 0 00-.33.57.77.77 0 00.16.52c.44.6 1 .34 1.54 0l1.67 1.36.89.7a7.39 7.39 0 00.68.48 1 1 0 00.62.15c1.22-.08.79-1.35.55-2.16-.12-.38-.69-1.78-.92-2.68.47.27 2 1.41 2.27 1.56.47.24 1 .7 1.58.68.75 0 .91-.59.78-1.23a5 5 0 00-.31-1c-.33-.86-.83-1.94-1.21-2.82a3.61 3.61 0 00.57-.66.69.69 0 000-.81.89.89 0 00-.74-.34zm-2.47.65c.09.24.19.47.29.7l-1.26.94a4.5 4.5 0 00-.73-.36zm-2.83 2.1a3.53 3.53 0 00.18.78l-1.25.93-.56-.45 1.65-1.24zm.29 2.89l.47-.36q.21.54.39 1.05a8 8 0 01-.85-.69zm3.13-2.33l.45-.31c.14.29.25.56.32.75a7.44 7.44 0 01-.77-.47z"/></g></g><g id="그룹_4675" data-name="그룹 4675"><path id="패스_11544" data-name="패스 11544" class="cls-6" d="M235.78 323.4c.25-3.6-.78-7.76-3.26-12.2-7.86-14.07-27.3-25.67-43.41-25.9-5.09-.07-9.23 1-12.28 2.93l-1.13-.67-2.35 3.86a12.31 12.31 0 00-1.3 2.18c-2 4.43-1.48 10.27 2.12 16.73 7.86 14.07 27.3 25.67 43.42 25.9 7.78.11 13.35-2.46 16.17-6.72l3.15-5.5z"/><path id="패스_11545" data-name="패스 11545" class="cls-7" d="M236.31 304.85c7.86 14.08 1.16 25.3-15 25.07S185.8 318.1 177.94 304s-1.17-25.3 14.95-25.07 35.56 11.85 43.42 25.92z"/><path id="패스_11546" data-name="패스 11546" class="cls-6" d="M213.27 311.72l-15.16-9 13.46-30.06 21.76 13z"/><path id="패스_11547" data-name="패스 11547" d="M232.85 280.56c3.07 5.49.46 9.87-5.83 9.78s-13.87-4.62-16.94-10.1-.45-9.87 5.84-9.78 13.87 4.61 16.93 10.1z" fill="#ffee58" stroke="#231815" stroke-width="2" stroke-linejoin="round"/><path id="패스_11548" data-name="패스 11548" class="cls-7" d="M234.88 277.15c3.07 5.49.45 9.87-5.83 9.78s-13.87-4.62-16.94-10.1-.45-9.87 5.83-9.78 13.88 4.61 16.94 10.1z"/><path id="패스_11549" data-name="패스 11549" d="M231.83 171.17l-1.73 4-6.17 3.15 4.44-13.06 5.47 1.54z" fill="#e5c335" stroke="#231815" stroke-width="2" stroke-linejoin="round"/><g id="그룹_4673" data-name="그룹 4673"><path id="패스_11550" data-name="패스 11550" class="cls-7" d="M214.12 223.17c-5.18-9.27-4.57-23.6 1.82-42.61 5-15 10.88-22.83 15.6-29.58l14.59 25.85-9.44.71-6.12-11c-6.79 14.75-15.89 40.27-9.08 52.47z"/></g><path id="패스_11551" data-name="패스 11551" class="cls-7" d="M250.74 282.39a35.54 35.54 0 01-28.58-3.45l-.39-.24A35.51 35.51 0 01205 254.18c-3-17.43 3.32-40.28 16.41-71.83l86.42 51.55c-20.2 27.28-39.28 43.06-57.05 48.49z"/><path id="패스_11552" data-name="패스 11552" class="cls-10" d="M298.53 241.68l-.35-.63-1.28.71-6.12.31 1.32 2.37-1.3.73 9.43 16.89c-6.07 5.85-18.65 16.17-26.67 15.19a6.34 6.34 0 01-2.64-.9l-2.92-3.3-8.06-.14 1.62 3.74-.94.52a19.14 19.14 0 002.85 3.9l1.95 4.5 8.45.16h.75c14.64-.05 31.91-17.95 33.92-20.09l2.12-2.25z"/><path id="패스_11553" data-name="패스 11553" class="cls-10" d="M240.14 151.1l-8.6-.12 14.59 25.85 8.54.44z"/><ellipse id="타원_255" data-name="타원 255" class="cls-10" cx="264.53" cy="208.21" rx="29.05" ry="50.31" transform="rotate(-59.18 264.539 208.219)"/><ellipse id="타원_256" data-name="타원 256" class="cls-7" cx="264.53" cy="208.21" rx="24.87" ry="43.07" transform="rotate(-59.18 264.539 208.219)"/><path id="패스_11554" data-name="패스 11554" d="M295.93 215c-9.47-17-32.89-30.93-52.31-31.21-7.84-.11-13.83 2-17.56 5.73-1.48 5-.52 11.33 3.3 18.17 9.47 17 32.89 30.93 52.31 31.21 7.84.11 13.83-2 17.56-5.73 1.49-5.02.53-11.31-3.3-18.17z" fill="#c67f22" stroke="#231815" stroke-width="2" stroke-linejoin="round"/><g id="그룹_4674" data-name="그룹 4674"><path id="패스_11555" data-name="패스 11555" class="cls-7" d="M258.65 283.51a17.13 17.13 0 01-6.08-6.48l7.38-4.12c1.88 3.37 4.07 4 5.55 4.19 8 1 20.61-9.34 26.68-15.19l-6-10.43 5.48-7.87 11 19.66-2.11 2.25c-2.1 2.24-21 21.81-36 20a14.69 14.69 0 01-5.9-2.01z"/></g><path id="패스_11556" data-name="패스 11556" class="cls-6" d="M213.2 306.85c2 3.47.29 6.23-3.71 6.18a13.91 13.91 0 01-10.77-6.39c-1.95-3.46-.28-6.23 3.71-6.17a13.85 13.85 0 0110.77 6.38z"/></g></g><path fill="none" d="M0 0h460v370H0z"/></g></g></svg>