<svg xmlns="http://www.w3.org/2000/svg" width="460" height="198.65"><defs><style>.cls-1{fill:#231815;opacity:.1;isolation:isolate}.cls-18,.cls-2,.cls-21{fill:#fff}.cls-10,.cls-11,.cls-12,.cls-13,.cls-14,.cls-15,.cls-17,.cls-18,.cls-19,.cls-2,.cls-20,.cls-21,.cls-23,.cls-3,.cls-31,.cls-4,.cls-5,.cls-6,.cls-7,.cls-9{stroke:#231815;stroke-linecap:round}.cls-15,.cls-17,.cls-19,.cls-2,.cls-20,.cls-21,.cls-3,.cls-4,.cls-5,.cls-6,.cls-7{stroke-linejoin:round}.cls-2,.cls-3,.cls-4,.cls-5,.cls-6,.cls-7{stroke-width:1.29px}.cls-15,.cls-20,.cls-23,.cls-3,.cls-9{fill:#8d29ff}.cls-17,.cls-19,.cls-31,.cls-4{fill:#4776f7}.cls-11,.cls-12,.cls-6{fill:#00c3ee}.cls-7{fill:none}.cls-12,.cls-13,.cls-14,.cls-15,.cls-17,.cls-18,.cls-23,.cls-31{stroke-width:1.24px}.cls-10,.cls-11,.cls-12,.cls-13,.cls-14,.cls-18,.cls-23,.cls-31,.cls-9{stroke-miterlimit:10}.cls-10,.cls-11,.cls-19,.cls-20,.cls-21,.cls-9{stroke-width:.82px}.cls-14{fill:#ff0}</style></defs><g id="Layer_2" data-name="Layer 2"><g id="Layer_1-2" data-name="Layer 1"><g id="_3_img" data-name="3 img"><path id="패스_9337" data-name="패스 9337" class="cls-1" d="M206.54 44.87l-66.8-30.46a.51.51 0 00-.48 0l-126 74.35a.47.47 0 00-.24.42v-.29a.49.49 0 00.24.42l57.93 33.84a.48.48 0 00.24.06.5.5 0 00.24-.06l134.87-77.83a.48.48 0 00.24-.42v.39a.49.49 0 00-.24-.42z"/><path id="패스_9338" data-name="패스 9338" class="cls-1" d="M312 37.16l-134.92 81 137.67 79.26 139.67-81.26-5-18 5 18z"/><g id="그룹_4080" data-name="그룹 4080"><path id="패스_8823" data-name="패스 8823" class="cls-2" d="M180.51 48.12L151 31.07 50.84 88.88l26.76 15.45v3.2z"/><path id="패스_8825" data-name="패스 8825" class="cls-3" d="M71.61 118.16l-55.1-31.81V76l55.1 31.81z"/><path id="패스_8826" data-name="패스 8826" class="cls-3" d="M180.51 48.12L151 31.07V28l29.54 17z"/><path id="패스_8827" data-name="패스 8827" class="cls-4" d="M71.61 118.16v-10.37l6-3.46v3.2l102.9-59.41V45l21.66-12.5v10.28l-21.66 12.51z"/><path id="패스_8828" data-name="패스 8828" class="cls-4" d="M151 31.07L50.83 88.88l-2.69-1.55L151 28z"/><g id="그룹_4019" data-name="그룹 4019"><g id="그룹_4009" data-name="그룹 4009"><path id="패스_8829" data-name="패스 8829" class="cls-3" d="M159.68 44.75l2.07-1.2 2.07-1.2V44l-2.07 1.2-2.07 1.2z"/><path id="패스_8830" data-name="패스 8830" class="cls-5" d="M159.69 44.75L142 34.56v1.66l17.65 10.19z"/><path id="패스_8831" data-name="패스 8831" class="cls-4" d="M146.18 32.17l17.65 10.19-4.14 2.39L142 34.56z"/></g><g id="그룹_4010" data-name="그룹 4010"><path id="패스_8832" data-name="패스 8832" class="cls-3" d="M152.82 48.71l2.07-1.2 2.08-1.2V48l-2.08 1.2-2.07 1.2z"/><path id="패스_8833" data-name="패스 8833" class="cls-5" d="M152.82 48.71l-17.64-10.19v1.67l17.64 10.18z"/><path id="패스_8834" data-name="패스 8834" class="cls-4" d="M139.32 36.13L157 46.32l-4.15 2.39-17.67-10.18z"/></g><g id="그룹_4011" data-name="그룹 4011"><path id="패스_8835" data-name="패스 8835" class="cls-3" d="M139.1 56.64l2.07-1.2 2.07-1.2v1.66l-2.07 1.2-2.07 1.2z"/><path id="패스_8836" data-name="패스 8836" class="cls-5" d="M139.1 56.64l-17.65-10.19v1.66L139.1 58.3z"/><path id="패스_8837" data-name="패스 8837" class="cls-4" d="M125.6 44.06l17.64 10.19-4.14 2.39-17.65-10.19z"/></g><g id="그룹_4012" data-name="그룹 4012"><path id="패스_8838" data-name="패스 8838" class="cls-3" d="M132.24 60.59l2.07-1.2 2.07-1.2v1.67l-2.07 1.2-2.07 1.2z"/><path id="패스_8839" data-name="패스 8839" class="cls-5" d="M132.24 60.6l-17.65-10.19v1.66l17.65 10.19z"/><path id="패스_8840" data-name="패스 8840" class="cls-4" d="M118.73 48l17.65 10.19-4.14 2.39-17.65-10.17z"/></g><g id="그룹_4013" data-name="그룹 4013"><path id="패스_8841" data-name="패스 8841" class="cls-3" d="M125.37 64.56l2.07-1.2 2.08-1.2v1.66L127.44 65l-2.07 1.2z"/><path id="패스_8842" data-name="패스 8842" class="cls-5" d="M125.37 64.56l-17.64-10.19V56l17.64 10.18z"/><path id="패스_8843" data-name="패스 8843" class="cls-4" d="M111.87 52l17.65 10.19-4.15 2.39-17.64-10.21z"/></g><g id="그룹_4014" data-name="그룹 4014"><path id="패스_8844" data-name="패스 8844" class="cls-3" d="M111.65 72.48l2.07-1.2 2.07-1.2v1.67L113.72 73l-2.07 1.2z"/><path id="패스_8845" data-name="패스 8845" class="cls-5" d="M111.65 72.48L94 62.3V64l17.65 10.19z"/><path id="패스_8846" data-name="패스 8846" class="cls-4" d="M98.14 59.91l17.65 10.18-4.14 2.4L94 62.3z"/></g><g id="그룹_4015" data-name="그룹 4015"><path id="패스_8847" data-name="패스 8847" class="cls-3" d="M104.79 76.45l2.07-1.2 2.07-1.2v1.66l-2.07 1.2-2.07 1.2z"/><path id="패스_8848" data-name="패스 8848" class="cls-5" d="M104.79 76.45L87.14 66.26v1.66l17.65 10.19z"/><path id="패스_8849" data-name="패스 8849" class="cls-4" d="M91.28 63.87l17.65 10.19-4.14 2.39-17.65-10.19z"/></g><g id="그룹_4016" data-name="그룹 4016"><path id="패스_8850" data-name="패스 8850" class="cls-3" d="M91.06 84.37l2.07-1.2L95.2 82v1.66l-2.07 1.2L91.06 86z"/><path id="패스_8851" data-name="패스 8851" class="cls-5" d="M91.07 84.37L73.42 74.18v1.66L91.07 86z"/><path id="패스_8852" data-name="패스 8852" class="cls-4" d="M77.56 71.79L95.21 82l-4.15 2.39-17.64-10.21z"/></g><g id="그룹_4017" data-name="그룹 4017"><path id="패스_8853" data-name="패스 8853" class="cls-3" d="M84.2 88.33l2.07-1.2 2.07-1.2v1.66l-2.07 1.2L84.2 90z"/><path id="패스_8854" data-name="패스 8854" class="cls-5" d="M84.2 88.33L66.55 78.14v1.67L84.2 90z"/><path id="패스_8855" data-name="패스 8855" class="cls-4" d="M70.7 75.75l17.64 10.19-4.14 2.39-17.64-10.19z"/></g><g id="그룹_4018" data-name="그룹 4018"><path id="패스_8856" data-name="패스 8856" class="cls-3" d="M77.34 92.29l2.07-1.2 2.07-1.2v1.67l-2.07 1.2L77.34 94z"/><path id="패스_8857" data-name="패스 8857" class="cls-5" d="M77.34 92.29L59.69 82.11v1.66L77.34 94z"/><path id="패스_8858" data-name="패스 8858" class="cls-4" d="M63.84 79.71L81.48 89.9l-4.14 2.39-17.65-10.18z"/></g></g><g id="그룹_4020" data-name="그룹 4020"><path id="패스_8859" data-name="패스 8859" class="cls-6" d="M16.51 76L147 .65l55.17 31.85L180.45 45 151 28 48.15 87.33l29.45 17-6 3.46z"/></g><path id="패스_8860" data-name="패스 8860" class="cls-5" d="M171.47 19.27l15 8.68-5.94 3.42-15-8.67z"/><g id="그룹_4021" data-name="그룹 4021"><path id="패스_8861" data-name="패스 8861" class="cls-2" d="M172.69 20h-.27.13z"/><path id="패스_8862" data-name="패스 8862" class="cls-2" d="M171.4 20.09h.1z"/><path id="패스_8863" data-name="패스 8863" class="cls-2" d="M173.33 20.09l.32.12z"/><path id="패스_8864" data-name="패스 8864" class="cls-2" d="M173.8 20.27a4.52 4.52 0 01.49.25 4.52 4.52 0 00-.49-.25z"/><path id="패스_8865" data-name="패스 8865" class="cls-2" d="M172.87 20l.28.06z"/><path id="패스_8866" data-name="패스 8866" class="cls-2" d="M171.73 20h.13z"/><path id="패스_8868" data-name="패스 8868" class="cls-2" d="M174.88 20.91a10.49 10.49 0 012.9 3.55 12.72 12.72 0 011.4 4.65 12.14 12.14 0 00-4.3-8.2z"/><path id="패스_8869" data-name="패스 8869" class="cls-6" d="M174.88 20.91c-.19-.14-.39-.27-.59-.39a4.52 4.52 0 00-.49-.25l-.15-.06-.32-.12-.18-.05-.28-.06h-1.14a2 2 0 00-.23.06h-.1l-.32.14 3.17-1.83a2.6 2.6 0 011.47-.31 4 4 0 011.74.59 9.77 9.77 0 013.54 4 12.73 12.73 0 011.41 4.66l-3.17 1.83a12.44 12.44 0 00-1.41-4.65 10.43 10.43 0 00-2.9-3.56z"/><path id="패스_8870" data-name="패스 8870" class="cls-3" d="M181.88 24.91a11.31 11.31 0 01.47 2.37l-1.58.92-1.58.91a12 12 0 00-.47-2.37z"/><path id="패스_8871" data-name="패스 8871" class="cls-4" d="M178.71 26.74a13.3 13.3 0 00-.93-2.28l1.58-.92 1.59-.91a13.3 13.3 0 01.93 2.28z"/><path id="패스_8872" data-name="패스 8872" class="cls-4" d="M171.08 20.24l.31-.14h.11l.23-.07h1.14l.28.06.18.05.32.12.15.06a4.44 4.44 0 01.49.24c.2.13.4.26.59.4a12.18 12.18 0 014.3 8.2l-9.79-5.65a3.93 3.93 0 011.69-3.22z"/><path id="패스_8873" data-name="패스 8873" class="cls-2" d="M171.09 20.24a3 3 0 01.31-.15 3 3 0 00-.31.15z"/><path id="패스_8874" data-name="패스 8874" class="cls-2" d="M171.86 20h.22z"/><path id="패스_8875" data-name="패스 8875" class="cls-2" d="M171.5 20.06l.23-.07z"/><path id="패스_8876" data-name="패스 8876" class="cls-2" d="M173.65 20.21l.15.06z"/><path id="패스_8879" data-name="패스 8879" class="cls-2" d="M172.69 20h.18z"/><path id="패스_8880" data-name="패스 8880" class="cls-2" d="M173.15 20l.18.05z"/></g><path id="패스_8881" data-name="패스 8881" class="cls-5" d="M163.06 24.11l15 8.68-5.93 3.42-15-8.67z"/><g id="그룹_4022" data-name="그룹 4022"><path id="패스_8882" data-name="패스 8882" class="cls-2" d="M164.28 24.79h-.26.12z"/><path id="패스_8883" data-name="패스 8883" class="cls-2" d="M163 24.93h.11z"/><path id="패스_8884" data-name="패스 8884" class="cls-2" d="M164.92 24.93a2.08 2.08 0 01.32.12 2.08 2.08 0 00-.32-.12z"/><path id="패스_8885" data-name="패스 8885" class="cls-2" d="M165.39 25.11a3.23 3.23 0 01.49.25 3.23 3.23 0 00-.49-.25z"/><path id="패스_8886" data-name="패스 8886" class="cls-2" d="M164.46 24.82l.28.06z"/><path id="패스_8887" data-name="패스 8887" class="cls-2" d="M163.32 24.83h.14z"/><path id="패스_8889" data-name="패스 8889" class="cls-2" d="M166.47 25.75a10.39 10.39 0 012.9 3.55 12.53 12.53 0 011.4 4.65 12.14 12.14 0 00-4.3-8.2z"/><path id="패스_8890" data-name="패스 8890" class="cls-6" d="M166.47 25.75c-.19-.14-.39-.27-.59-.39s-.32-.18-.48-.25l-.16-.06c-.11 0-.21-.09-.32-.12l-.18-.05a2.3 2.3 0 00-.28-.06h-1.14l-.22.06h-.11l-.31.14 3.17-1.83a2.52 2.52 0 011.47-.31 4.13 4.13 0 011.73.58 9.82 9.82 0 013.5 3.95 12.72 12.72 0 011.4 4.66L170.78 34a12.53 12.53 0 00-1.4-4.65 10.42 10.42 0 00-2.91-3.55z"/><path id="패스_8891" data-name="패스 8891" class="cls-3" d="M173.47 29.75a11.31 11.31 0 01.47 2.37l-1.58.92-1.58.91a12 12 0 00-.47-2.37z"/><path id="패스_8892" data-name="패스 8892" class="cls-4" d="M170.3 31.58a13.3 13.3 0 00-.93-2.28l1.58-.92 1.59-.91a13.3 13.3 0 01.93 2.28z"/><path id="패스_8893" data-name="패스 8893" class="cls-4" d="M162.68 25.08a1.73 1.73 0 01.31-.14h.1l.23-.07h1.12a1.4 1.4 0 01.28.06l.18.05a2.08 2.08 0 01.32.12.94.94 0 01.15.06 4.44 4.44 0 01.49.24c.2.12.4.26.59.4a12.16 12.16 0 014.3 8.2L161 28.29a3.91 3.91 0 011.7-3.21z"/><path id="패스_8894" data-name="패스 8894" class="cls-2" d="M162.68 25.08a3 3 0 01.31-.15 3 3 0 00-.31.15z"/><path id="패스_8895" data-name="패스 8895" class="cls-2" d="M163.46 24.81h.22z"/><path id="패스_8896" data-name="패스 8896" class="cls-2" d="M163.1 24.9l.22-.07z"/><path id="패스_8897" data-name="패스 8897" class="cls-2" d="M165.24 25.05l.15.06z"/><path id="패스_8898" data-name="패스 8898" class="cls-2" d="M166.47 25.75a6 6 0 00-.59-.39 6 6 0 01.59.39z"/><path id="패스_8900" data-name="패스 8900" class="cls-2" d="M164.28 24.79h.18z"/><path id="패스_8901" data-name="패스 8901" class="cls-2" d="M164.74 24.88l.18.05z"/></g><g id="그룹_4044" data-name="그룹 4044"><g id="그룹_4023" data-name="그룹 4023"><path id="패스_8902" data-name="패스 8902" class="cls-6" d="M36.67 77.42a3.37 3.37 0 01-3.39 0l-6.05-3.51a1.35 1.35 0 01-.49-1.85 1.24 1.24 0 01.49-.5l44.82-25.95a3.4 3.4 0 013.38 0l6.06 3.49A1.36 1.36 0 0182 51a1.38 1.38 0 01-.49.5z"/></g><g id="그룹_4028" data-name="그룹 4028"><g id="그룹_4026" data-name="그룹 4026"><g id="그룹_4024" data-name="그룹 4024"><path id="패스_8903" data-name="패스 8903" class="cls-4" d="M30 70.2a2.57 2.57 0 001.47 2.07 7.09 7.09 0 003.55.86 8 8 0 002.38-.35v2.66a8 8 0 01-2.4.36 7.2 7.2 0 01-3.55-.86A2.54 2.54 0 0130 72.85V70.2z"/><path id="패스_8904" data-name="패스 8904" class="cls-6" d="M38.52 72.27A2.53 2.53 0 0040 70.2v2.66a2.54 2.54 0 01-1.47 2.08 5.64 5.64 0 01-1.16.5v-2.66a6.29 6.29 0 001.16-.51z"/></g><path id="패스_8905" data-name="패스 8905" class="cls-6" d="M30 70.19c0-1.61 2.24-2.93 5-2.93s5 1.32 5 2.94-2.24 2.93-5 2.93-5-1.31-5-2.93z"/><g id="그룹_4025" data-name="그룹 4025"><path id="패스_8906" data-name="패스 8906" class="cls-3" d="M30 70.2a2.57 2.57 0 001.47 2.07 6.55 6.55 0 002.32.77v2.66a6.34 6.34 0 01-2.32-.76A2.54 2.54 0 0130 72.85V70.2z"/></g></g><g id="그룹_4027" data-name="그룹 4027"><path id="패스_8907" data-name="패스 8907" class="cls-5" d="M31.43 72.27a6.3 6.3 0 00.69.34v2.66a4.37 4.37 0 01-.69-.33l-.28-.18v-2.67a2.68 2.68 0 00.28.18z"/></g></g><g id="그룹_4033" data-name="그룹 4033"><g id="그룹_4031" data-name="그룹 4031"><g id="그룹_4029" data-name="그룹 4029"><path id="패스_8908" data-name="패스 8908" class="cls-4" d="M42.47 63a2.53 2.53 0 001.47 2 7.05 7.05 0 003.54.86 7.67 7.67 0 002.38-.35v2.67a8.31 8.31 0 01-2.38.35 7.16 7.16 0 01-3.54-.86 2.54 2.54 0 01-1.47-2.08V63z"/><path id="패스_8909" data-name="패스 8909" class="cls-6" d="M51 65a2.57 2.57 0 001.5-2v2.66a2.58 2.58 0 01-1.5 2.05 6.1 6.1 0 01-1.17.51v-2.67A5.06 5.06 0 0051 65z"/></g><path id="패스_8910" data-name="패스 8910" class="cls-6" d="M42.47 63c0-1.62 2.25-2.94 5-2.94s5 1.32 5 2.94-2.25 2.93-5 2.93-5-1.31-5-2.93z"/><g id="그룹_4030" data-name="그룹 4030"><path id="패스_8911" data-name="패스 8911" class="cls-3" d="M42.47 63a2.53 2.53 0 001.47 2 6.5 6.5 0 002.31.77v2.66a6.29 6.29 0 01-2.31-.76 2.54 2.54 0 01-1.47-2.08V63z"/></g></g><g id="그룹_4032" data-name="그룹 4032"><path id="패스_8912" data-name="패스 8912" class="cls-5" d="M43.94 65.05a7.32 7.32 0 00.69.33V68a4.37 4.37 0 01-.69-.33l-.29-.18v-2.63z"/></g></g><g id="그룹_4038" data-name="그룹 4038"><g id="그룹_4036" data-name="그룹 4036"><g id="그룹_4034" data-name="그룹 4034"><path id="패스_8913" data-name="패스 8913" class="cls-4" d="M55 55.74a2.53 2.53 0 001.47 2.07 7 7 0 003.54.86 7.67 7.67 0 002.38-.35V61a8.31 8.31 0 01-2.38.35 7.2 7.2 0 01-3.55-.86A2.58 2.58 0 0155 58.4v-2.67z"/><path id="패스_8914" data-name="패스 8914" class="cls-6" d="M63.53 57.82A2.58 2.58 0 0065 55.74v2.66a2.57 2.57 0 01-1.47 2.08 6.29 6.29 0 01-1.16.51v-2.67a5.64 5.64 0 001.16-.5z"/></g><path id="패스_8915" data-name="패스 8915" class="cls-6" d="M55 55.74c0-1.62 2.24-2.94 5-2.94s5 1.32 5 2.94-2.24 2.93-5 2.93-5-1.31-5-2.93z"/><g id="그룹_4035" data-name="그룹 4035"><path id="패스_8916" data-name="패스 8916" class="cls-3" d="M55 55.74a2.53 2.53 0 001.47 2.07 6.5 6.5 0 002.31.77v2.66a6.4 6.4 0 01-2.32-.76A2.58 2.58 0 0155 58.4v-2.67z"/></g></g><g id="그룹_4037" data-name="그룹 4037"><path id="패스_8917" data-name="패스 8917" class="cls-5" d="M56.44 57.81a5.52 5.52 0 00.69.34v2.66a5.47 5.47 0 01-.69-.33l-.28-.19v-2.66a1.67 1.67 0 00.28.18z"/></g></g><g id="그룹_4043" data-name="그룹 4043"><g id="그룹_4041" data-name="그룹 4041"><g id="그룹_4039" data-name="그룹 4039"><path id="패스_8918" data-name="패스 8918" class="cls-4" d="M67.47 48.51a2.57 2.57 0 001.47 2.07 7.09 7.09 0 003.55.86 7.67 7.67 0 002.38-.35v2.67a8 8 0 01-2.38.35 7.09 7.09 0 01-3.55-.86 2.55 2.55 0 01-1.47-2.08v-2.66z"/><path id="패스_8919" data-name="패스 8919" class="cls-6" d="M76 50.59a2.53 2.53 0 001.47-2.08v2.66A2.53 2.53 0 0176 53.25a5.75 5.75 0 01-1.16.51V51.1a5.75 5.75 0 001.16-.51z"/></g><path id="패스_8920" data-name="패스 8920" class="cls-6" d="M67.48 48.51c0-1.62 2.25-2.94 5-2.94s5 1.32 5 2.94-2.24 2.94-5 2.94-5-1.32-5-2.94z"/><g id="그룹_4040" data-name="그룹 4040"><path id="패스_8921" data-name="패스 8921" class="cls-3" d="M67.48 48.51A2.51 2.51 0 0069 50.58a6.5 6.5 0 002.31.77V54a6.62 6.62 0 01-2.32-.77 2.58 2.58 0 01-1.47-2.08v-2.64z"/></g></g><g id="그룹_4042" data-name="그룹 4042"><path id="패스_8922" data-name="패스 8922" class="cls-5" d="M69 50.59a4.73 4.73 0 00.68.33v2.67a7.33 7.33 0 01-.69-.34l-.28-.18V50.4a2.9 2.9 0 00.29.19z"/></g></g></g><g id="그룹_4066" data-name="그룹 4066"><g id="그룹_4045" data-name="그룹 4045"><path id="패스_8923" data-name="패스 8923" class="cls-6" d="M88 47.68a3.39 3.39 0 01-3.4 0l-6-3.51a1.36 1.36 0 01-.49-1.85 1.38 1.38 0 01.49-.5l44.82-25.95a3.4 3.4 0 013.38 0l6.06 3.49a1.35 1.35 0 01.49 1.85 1.28 1.28 0 01-.49.49z"/></g><g id="그룹_4050" data-name="그룹 4050"><g id="그룹_4048" data-name="그룹 4048"><g id="그룹_4046" data-name="그룹 4046"><path id="패스_8924" data-name="패스 8924" class="cls-4" d="M81.28 40.46a2.57 2.57 0 001.47 2.07 7.09 7.09 0 003.55.86 7.71 7.71 0 002.38-.39v2.7a8 8 0 01-2.38.36 7.2 7.2 0 01-3.55-.86 2.54 2.54 0 01-1.47-2.08v-2.67z"/><path id="패스_8925" data-name="패스 8925" class="cls-6" d="M89.84 42.53a2.53 2.53 0 001.47-2.07v2.66a2.54 2.54 0 01-1.47 2.08 6.29 6.29 0 01-1.16.51V43a5.18 5.18 0 001.16-.47z"/></g><path id="패스_8926" data-name="패스 8926" class="cls-6" d="M81.29 40.46c0-1.62 2.25-2.94 5-2.94s5 1.32 5 2.94-2.24 2.93-5 2.93-5-1.31-5-2.93z"/><g id="그룹_4047" data-name="그룹 4047"><path id="패스_8927" data-name="패스 8927" class="cls-3" d="M81.28 40.46a2.57 2.57 0 001.47 2.07 6.55 6.55 0 002.32.77V46a6.74 6.74 0 01-2.32-.76 2.56 2.56 0 01-1.47-2.09v-2.7z"/></g></g><g id="그룹_4049" data-name="그룹 4049"><path id="패스_8928" data-name="패스 8928" class="cls-5" d="M82.76 42.53a6.16 6.16 0 00.68.34v2.66a4.83 4.83 0 01-.69-.33l-.28-.2v-2.65l.29.18z"/></g></g><g id="그룹_4055" data-name="그룹 4055"><g id="그룹_4053" data-name="그룹 4053"><g id="그룹_4051" data-name="그룹 4051"><path id="패스_8929" data-name="패스 8929" class="cls-4" d="M93.79 33.23a2.53 2.53 0 001.47 2.07 7.08 7.08 0 003.54.86 8 8 0 002.38-.35v2.66a8 8 0 01-2.38.36 7.19 7.19 0 01-3.54-.83 2.54 2.54 0 01-1.47-2.09v-2.68z"/><path id="패스_8930" data-name="패스 8930" class="cls-6" d="M102.35 35.3a2.57 2.57 0 001.47-2.07v2.66a2.58 2.58 0 01-1.47 2.11 6.1 6.1 0 01-1.17.51v-2.7a6.1 6.1 0 001.17-.51z"/></g><path id="패스_8931" data-name="패스 8931" class="cls-6" d="M93.79 33.22c0-1.61 2.25-2.93 5-2.93s5 1.32 5 2.94-2.25 2.93-5 2.93-5-1.31-5-2.93z"/><g id="그룹_4052" data-name="그룹 4052"><path id="패스_8932" data-name="패스 8932" class="cls-3" d="M93.79 33.23a2.53 2.53 0 001.47 2.07 6.5 6.5 0 002.31.77v2.66a6.29 6.29 0 01-2.31-.73 2.54 2.54 0 01-1.47-2.09v-2.68z"/></g></g><g id="그룹_4054" data-name="그룹 4054"><path id="패스_8933" data-name="패스 8933" class="cls-5" d="M95.26 35.3a5.52 5.52 0 00.69.34v2.66a4.37 4.37 0 01-.69-.33l-.26-.18v-2.67c.1.06.19.13.29.18z"/></g></g><g id="그룹_4060" data-name="그룹 4060"><g id="그룹_4058" data-name="그룹 4058"><g id="그룹_4056" data-name="그룹 4056"><path id="패스_8934" data-name="패스 8934" class="cls-4" d="M106.29 26a2.57 2.57 0 001.47 2.07 7.09 7.09 0 003.55.86 7.71 7.71 0 002.38-.35v2.67a8.36 8.36 0 01-2.38.35 7.2 7.2 0 01-3.55-.86 2.54 2.54 0 01-1.47-2.08V26z"/><path id="패스_8935" data-name="패스 8935" class="cls-6" d="M114.85 28.07a2.53 2.53 0 001.47-2.07v2.66a2.54 2.54 0 01-1.47 2.08 6.29 6.29 0 01-1.16.51v-2.67a5.18 5.18 0 001.16-.51z"/></g><path id="패스_8936" data-name="패스 8936" class="cls-6" d="M106.29 26c0-1.62 2.25-2.94 5-2.94s5 1.32 5 2.94-2.24 2.93-5 2.93-5-1.31-5-2.93z"/><g id="그룹_4057" data-name="그룹 4057"><path id="패스_8937" data-name="패스 8937" class="cls-3" d="M106.29 26a2.57 2.57 0 001.47 2.07 6.57 6.57 0 002.31.77v2.66a6.35 6.35 0 01-2.31-.76 2.54 2.54 0 01-1.47-2.08V26z"/></g></g><g id="그룹_4059" data-name="그룹 4059"><path id="패스_8938" data-name="패스 8938" class="cls-5" d="M107.76 28.08a7.32 7.32 0 00.69.33v2.66a4.37 4.37 0 01-.69-.33l-.28-.18v-2.67z"/></g></g><g id="그룹_4065" data-name="그룹 4065"><g id="그룹_4063" data-name="그룹 4063"><g id="그룹_4061" data-name="그룹 4061"><path id="패스_8939" data-name="패스 8939" class="cls-4" d="M118.8 18.77a2.53 2.53 0 001.47 2.07 7.05 7.05 0 003.54.86 7.67 7.67 0 002.38-.35V24a8.31 8.31 0 01-2.38.35 7.16 7.16 0 01-3.54-.86 2.57 2.57 0 01-1.48-2.08v-2.64z"/><path id="패스_8940" data-name="패스 8940" class="cls-6" d="M127.36 20.85a2.55 2.55 0 001.46-2.08v2.66a2.53 2.53 0 01-1.47 2.08 5.75 5.75 0 01-1.16.51v-2.67a5.5 5.5 0 001.17-.5z"/></g><path id="패스_8941" data-name="패스 8941" class="cls-6" d="M118.8 18.77c0-1.62 2.25-2.94 5-2.94s5 1.32 5 2.94-2.24 2.93-5 2.93-5-1.31-5-2.93z"/><g id="그룹_4062" data-name="그룹 4062"><path id="패스_8942" data-name="패스 8942" class="cls-3" d="M118.8 18.77a2.53 2.53 0 001.47 2.07 6.5 6.5 0 002.31.77v2.66a6.29 6.29 0 01-2.31-.76 2.57 2.57 0 01-1.48-2.08v-2.66z"/></g></g><g id="그룹_4064" data-name="그룹 4064"><path id="패스_8943" data-name="패스 8943" class="cls-5" d="M120.27 20.85a5.47 5.47 0 00.69.33v2.66a4.37 4.37 0 01-.69-.33l-.29-.18v-2.67a2.9 2.9 0 00.29.19z"/></g></g></g><g id="그룹_4067" data-name="그룹 4067"><path id="패스_8944" data-name="패스 8944" class="cls-6" d="M49.28 75.46l2.22 1.28L53.72 78a1 1 0 01.5.86 1 1 0 01-.5.86L51.5 81l-2.22 1.29a2.42 2.42 0 01-1.24.33 2.49 2.49 0 01-1.25-.33L44.57 81l-2.22-1.29a1 1 0 01-.49-.86 1 1 0 01.5-.86l2.22-1.28 2.22-1.28a2.48 2.48 0 011.2-.3 2.55 2.55 0 011.24.33z"/><path id="패스_8945" data-name="패스 8945" class="cls-4" d="M41.86 79.93a1 1 0 00.49.86l2.22 1.29 2.22 1.28a2.47 2.47 0 002.5 0l2.22-1.28 2.22-1.29a1 1 0 00.5-.86v-1.05a1 1 0 01-.5.86L51.51 81l-2.22 1.29a2.5 2.5 0 01-2.5 0L44.57 81l-2.21-1.29a1 1 0 01-.5-.86z"/><path id="패스_8946" data-name="패스 8946" class="cls-3" d="M49.28 83.37a2.58 2.58 0 01-1.28.33 2.5 2.5 0 01-1.25-.34v-1a2.51 2.51 0 002.49 0z"/><path id="패스_8947" data-name="패스 8947" class="cls-5" d="M46.8 82.32L44.57 81l-2.21-1.29a1 1 0 01-.5-.86v1.05a1 1 0 00.5.86l2.22 1.29 2.22 1.29z"/></g><g id="그룹_4068" data-name="그룹 4068"><path id="패스_8948" data-name="패스 8948" class="cls-6" d="M62.22 68l2.22 1.28 2.22 1.28a1 1 0 010 1.72l-2.22 1.29-2.22 1.28a2.45 2.45 0 01-2.49 0l-2.22-1.29-2.23-1.29a1 1 0 01-.49-.86 1 1 0 01.5-.85l2.22-1.28L59.74 68a2.38 2.38 0 011.26-.35 2.45 2.45 0 011.24.33z"/><path id="패스_8949" data-name="패스 8949" class="cls-4" d="M54.8 72.44a1 1 0 00.49.86l2.22 1.29 2.23 1.29a2.43 2.43 0 001.24.34 2.5 2.5 0 001.25-.34l2.22-1.29 2.22-1.28a1 1 0 00.49-.86v-1a1 1 0 01-.49.86l-2.22 1.29-2.22 1.28a2.5 2.5 0 01-1.25.34 2.43 2.43 0 01-1.24-.34l-2.23-1.29-2.22-1.29a1 1 0 01-.49-.86z"/><path id="패스_8950" data-name="패스 8950" class="cls-3" d="M62.23 75.88a2.5 2.5 0 01-1.25.34 2.43 2.43 0 01-1.24-.34v-1a2.43 2.43 0 001.24.34 2.5 2.5 0 001.25-.34z"/><path id="패스_8951" data-name="패스 8951" class="cls-5" d="M59.74 74.83l-2.23-1.29-2.22-1.29a1 1 0 01-.49-.86v1a1 1 0 00.49.86l2.22 1.29 2.23 1.29z"/></g><g id="그룹_4069" data-name="그룹 4069"><path id="패스_8952" data-name="패스 8952" class="cls-6" d="M75.16 60.5l2.22 1.28 2.22 1.28a1 1 0 010 1.72l-2.22 1.29-2.22 1.28a2.5 2.5 0 01-1.25.34 2.43 2.43 0 01-1.24-.34l-2.22-1.29-2.23-1.29a1 1 0 01-.49-.86 1 1 0 01.5-.86l2.22-1.27 2.22-1.28a2.49 2.49 0 011.24-.34 2.56 2.56 0 011.24.34z"/><path id="패스_8953" data-name="패스 8953" class="cls-4" d="M67.74 65a1 1 0 00.49.86l2.22 1.29 2.22 1.29a2.47 2.47 0 002.5 0l2.22-1.29 2.22-1.28a1 1 0 00.49-.87v-1a1 1 0 01-.49.86l-2.22 1.28-2.22 1.29a2.47 2.47 0 01-2.5 0l-2.22-1.29-2.22-1.29a1 1 0 01-.49-.86z"/><path id="패스_8954" data-name="패스 8954" class="cls-3" d="M75.16 68.4a2.43 2.43 0 01-1.24.34 2.5 2.5 0 01-1.25-.34v-1.05a2.5 2.5 0 001.25.34 2.43 2.43 0 001.24-.34z"/><path id="패스_8955" data-name="패스 8955" class="cls-5" d="M72.67 67.35l-2.22-1.29-2.22-1.29a1 1 0 01-.49-.86v1a1 1 0 00.49.86l2.22 1.29 2.22 1.29z"/></g><g id="그룹_4070" data-name="그룹 4070"><path id="패스_8956" data-name="패스 8956" class="cls-6" d="M88.1 53l2.22 1.29 2.22 1.28a1 1 0 01.5.86 1 1 0 01-.49.86l-2.22 1.28-2.22 1.29a2.5 2.5 0 01-1.25.34 2.43 2.43 0 01-1.24-.34l-2.23-1.29-2.22-1.29a1 1 0 01-.49-.86 1 1 0 01.5-.86l2.22-1.28L85.62 53a2.58 2.58 0 011.24-.33 2.55 2.55 0 011.24.33z"/><path id="패스_8957" data-name="패스 8957" class="cls-4" d="M80.68 57.48a1 1 0 00.49.86l2.22 1.29 2.22 1.29a2.53 2.53 0 002.5 0l2.22-1.29 2.22-1.29a1 1 0 00.49-.86v-1a1 1 0 01-.49.87l-2.22 1.28-2.22 1.29a2.53 2.53 0 01-2.5 0l-2.22-1.29-2.22-1.29a1 1 0 01-.49-.86z"/><path id="패스_8958" data-name="패스 8958" class="cls-3" d="M88.1 60.92a2.42 2.42 0 01-1.24.33 2.49 2.49 0 01-1.25-.33v-1.05a2.5 2.5 0 001.25.34 2.43 2.43 0 001.24-.34z"/><path id="패스_8959" data-name="패스 8959" class="cls-5" d="M85.61 59.87l-2.22-1.29-2.22-1.29a1 1 0 01-.49-.86v1a1 1 0 00.49.86l2.22 1.29 2.22 1.29z"/></g><g id="그룹_4071" data-name="그룹 4071"><path id="패스_8960" data-name="패스 8960" class="cls-6" d="M101 45.53l2.22 1.28 2.22 1.28a1 1 0 01.5.86 1 1 0 01-.49.86l-2.22 1.29-2.22 1.29a2.49 2.49 0 01-1.25.33 2.53 2.53 0 01-1.24-.33l-2.19-1.29-2.22-1.29a1 1 0 01-.49-.86 1 1 0 01.5-.86l2.22-1.28 2.22-1.28a2.48 2.48 0 011.24-.33 2.45 2.45 0 011.24.33z"/><path id="패스_8961" data-name="패스 8961" class="cls-4" d="M93.62 50a1 1 0 00.49.86l2.22 1.29 2.22 1.28a2.5 2.5 0 001.25.34 2.43 2.43 0 001.24-.34l2.22-1.28 2.23-1.29A1 1 0 00106 50v-1a1 1 0 01-.49.86l-2.23 1.29-2.28 1.24a2.42 2.42 0 01-1.24.33 2.5 2.5 0 01-1.25-.34l-2.18-1.28-2.22-1.29a1 1 0 01-.49-.86z"/><path id="패스_8962" data-name="패스 8962" class="cls-3" d="M101 53.44a2.42 2.42 0 01-1.24.33 2.5 2.5 0 01-1.25-.34v-1a2.59 2.59 0 001.25.33 2.42 2.42 0 001.24-.33z"/><path id="패스_8963" data-name="패스 8963" class="cls-5" d="M98.55 52.39l-2.22-1.29-2.22-1.29a1 1 0 01-.49-.86v1a1 1 0 00.49.86l2.22 1.29 2.22 1.28z"/></g><g id="그룹_4072" data-name="그룹 4072"><path id="패스_8964" data-name="패스 8964" class="cls-6" d="M114 38.05l2.22 1.28 2.23 1.28a1 1 0 01.5.86 1 1 0 01-.5.86l-2.22 1.29L114 44.9a2.5 2.5 0 01-1.25.34 2.43 2.43 0 01-1.24-.34l-2.23-1.28-2.28-1.29a1 1 0 01-.49-.86 1 1 0 01.5-.86l2.22-1.28 2.22-1.28a2.48 2.48 0 011.24-.33 2.42 2.42 0 011.24.33z"/><path id="패스_8965" data-name="패스 8965" class="cls-4" d="M106.56 42.51a1 1 0 00.49.87l2.22 1.28 2.22 1.34a2.5 2.5 0 001.25.34A2.43 2.43 0 00114 46l2.22-1.28 2.22-1.29a1 1 0 00.5-.86v-1.1a1 1 0 01-.5.86l-2.22 1.29-2.22 1.29a2.53 2.53 0 01-1.24.33 2.59 2.59 0 01-1.25-.33l-2.22-1.29-2.22-1.29a1 1 0 01-.49-.86z"/><path id="패스_8966" data-name="패스 8966" class="cls-3" d="M114 46a2.38 2.38 0 01-1.24.33 2.49 2.49 0 01-1.25-.33v-1.1a2.45 2.45 0 002.49 0z"/><path id="패스_8967" data-name="패스 8967" class="cls-5" d="M111.49 44.9l-2.22-1.28-2.22-1.29a1 1 0 01-.49-.86v1a1 1 0 00.49.87l2.22 1.28 2.22 1.38z"/></g><g id="그룹_4073" data-name="그룹 4073"><path id="패스_8968" data-name="패스 8968" class="cls-6" d="M126.92 30.57l2.22 1.28 2.22 1.28a1 1 0 01.5.86 1 1 0 01-.49.86l-2.22 1.28-2.22 1.29a2.47 2.47 0 01-2.5 0l-2.22-1.29-2.21-1.29a1 1 0 01-.49-.86 1 1 0 01.5-.86l2.22-1.28 2.22-1.28a2.58 2.58 0 011.24-.33 2.49 2.49 0 011.24.34z"/><path id="패스_8969" data-name="패스 8969" class="cls-4" d="M119.5 35a1 1 0 00.49.86l2.22 1.29 2.22 1.29a2.51 2.51 0 002.49 0l2.22-1.29 2.22-1.28a1 1 0 00.5-.86V34a1 1 0 01-.5.86l-2.22 1.29-2.22 1.28a2.45 2.45 0 01-2.49 0l-2.22-1.29-2.21-1.3a1 1 0 01-.49-.86z"/><path id="패스_8970" data-name="패스 8970" class="cls-3" d="M126.92 38.47a2.51 2.51 0 01-2.49 0v-1a2.45 2.45 0 002.49 0z"/><path id="패스_8971" data-name="패스 8971" class="cls-5" d="M124.43 37.42l-2.22-1.29-2.21-1.29a1 1 0 01-.49-.86V35a1 1 0 00.49.86l2.22 1.29 2.22 1.29z"/></g><g id="그룹_4074" data-name="그룹 4074"><path id="패스_8972" data-name="패스 8972" class="cls-6" d="M139.86 23.08l2.22 1.28 2.22 1.29a1 1 0 01.5.86 1 1 0 01-.5.86l-2.22 1.28-2.22 1.29a2.51 2.51 0 01-2.49 0l-2.22-1.29-2.22-1.29a1 1 0 01-.5-.86 1 1 0 01.5-.86l2.22-1.28 2.23-1.28a2.42 2.42 0 011.24-.33 2.58 2.58 0 011.24.33z"/><path id="패스_8973" data-name="패스 8973" class="cls-4" d="M132.44 27.54a1 1 0 00.49.86l2.22 1.29 2.22 1.31a2.47 2.47 0 002.5 0l2.22-1.28 2.22-1.29a1 1 0 00.5-.86V26.5a1 1 0 01-.5.86l-2.22 1.29-2.22 1.28a2.47 2.47 0 01-2.5 0l-2.22-1.29-2.22-1.29a1 1 0 01-.49-.86z"/><path id="패스_8974" data-name="패스 8974" class="cls-3" d="M139.86 31a2.51 2.51 0 01-2.49 0v-1a2.51 2.51 0 002.49 0z"/><path id="패스_8975" data-name="패스 8975" class="cls-5" d="M137.37 29.94l-2.22-1.29-2.22-1.29a1 1 0 01-.5-.86v1a1 1 0 00.5.86l2.22 1.29 2.22 1.35z"/></g><g id="그룹_4075" data-name="그룹 4075"><path id="패스_8976" data-name="패스 8976" class="cls-6" d="M149.44 6.19l1.9 1.1 1.9 1.1a.86.86 0 01.43.74.83.83 0 01-.43.73l-1.9 1.1-1.9 1.1a2.09 2.09 0 01-1.06.29 2.12 2.12 0 01-1.07-.29l-1.9-1.1-1.9-1.1a.85.85 0 010-1.47l1.9-1.09 1.9-1.1a2.18 2.18 0 012.12 0z"/><path id="패스_8977" data-name="패스 8977" class="cls-4" d="M143.1 10a.82.82 0 00.42.73l1.9 1.1 1.9 1.1a2.09 2.09 0 001.06.29 2.22 2.22 0 001.07-.28l1.9-1.1 1.9-1.1a.87.87 0 00.42-.74v-.9a.84.84 0 01-.42.73l-1.9 1.1-1.9 1.1a2.12 2.12 0 01-1.07.29 2.09 2.09 0 01-1.06-.29l-1.9-1.1-1.9-1.1a.82.82 0 01-.42-.73z"/><path id="패스_8978" data-name="패스 8978" class="cls-3" d="M149.45 13a2.11 2.11 0 01-1.07.28 2.08 2.08 0 01-1.06-.28v-.9a2.08 2.08 0 001.06.28 2.11 2.11 0 001.07-.28z"/><path id="패스_8979" data-name="패스 8979" class="cls-5" d="M147.32 12.05l-1.9-1.1-1.9-1.1a.81.81 0 01-.42-.74V10a.81.81 0 00.42.74l1.9 1.1 1.9 1.1z"/></g><g id="그룹_4076" data-name="그룹 4076"><path id="패스_8980" data-name="패스 8980" class="cls-6" d="M141.64 10.68l1.9 1.1 1.9 1.1a.85.85 0 01.43.73.84.84 0 01-.43.74l-1.9 1.1-1.9 1.1a2.09 2.09 0 01-1.06.29 2.12 2.12 0 01-1.07-.29l-1.9-1.1-1.9-1.1a.85.85 0 01-.42-.74.83.83 0 01.43-.73l1.9-1.09 1.9-1.1a2.14 2.14 0 011-.28 2.08 2.08 0 011.07.27z"/><path id="패스_8981" data-name="패스 8981" class="cls-4" d="M135.3 14.5a.82.82 0 00.42.73l1.9 1.1 1.9 1.1a2.13 2.13 0 002.13 0l1.9-1.1 1.9-1.1a.82.82 0 00.42-.73v-.9a.82.82 0 01-.42.73l-1.9 1.1-1.9 1.1a2.1 2.1 0 01-2.13 0l-1.9-1.1-1.9-1.1a.84.84 0 01-.42-.73z"/><path id="패스_8982" data-name="패스 8982" class="cls-3" d="M141.65 17.44a2.12 2.12 0 01-1.07.29 2.09 2.09 0 01-1.06-.29v-.9a2.09 2.09 0 001.06.29 2.12 2.12 0 001.07-.29z"/><path id="패스_8983" data-name="패스 8983" class="cls-5" d="M139.52 16.54l-1.9-1.1-1.9-1.1a.83.83 0 01-.43-.73v.9a.83.83 0 00.43.73l1.9 1.1 1.9 1.1z"/></g><g id="그룹_4077" data-name="그룹 4077"><path id="패스_8984" data-name="패스 8984" class="cls-6" d="M149.44 15.21l1.9 1.1 1.9 1.1a.86.86 0 01.43.74.83.83 0 01-.43.73l-1.9 1.1-1.9 1.1a2.09 2.09 0 01-1.06.29 2.12 2.12 0 01-1.07-.29l-1.9-1.1-1.9-1.1a.85.85 0 01-.42-.74.83.83 0 01.43-.73l1.9-1.09 1.9-1.1a2.15 2.15 0 011.06-.28 2.07 2.07 0 011.06.27z"/><path id="패스_8985" data-name="패스 8985" class="cls-4" d="M143.1 19a.83.83 0 00.42.74l1.9 1.1 1.9 1.1a2.09 2.09 0 001.06.29 2.12 2.12 0 001.07-.29l1.9-1.1 1.9-1.1a.84.84 0 00.42-.73v-.9a.84.84 0 01-.42.73l-1.9 1.1-1.9 1.1a2.12 2.12 0 01-1.07.29 2.09 2.09 0 01-1.06-.29l-1.9-1.1-1.9-1.1a.83.83 0 01-.42-.74z"/><path id="패스_8986" data-name="패스 8986" class="cls-3" d="M149.45 22a2.22 2.22 0 01-1.07.28 2.18 2.18 0 01-1.06-.28v-.9a2.18 2.18 0 001.06.28 2.11 2.11 0 001.07-.28z"/><path id="패스_8987" data-name="패스 8987" class="cls-5" d="M147.32 21.07l-1.9-1.1-1.9-1.1a.8.8 0 01-.42-.73V19a.8.8 0 00.42.73l1.9 1.1 1.9 1.1z"/></g><g id="그룹_4078" data-name="그룹 4078"><path id="패스_8988" data-name="패스 8988" class="cls-6" d="M157.24 10.72l1.9 1.1 1.9 1.1a.85.85 0 01.43.73.84.84 0 01-.43.74l-1.9 1.1-1.9 1.1a2.08 2.08 0 01-1.06.28 2.11 2.11 0 01-1.07-.28l-1.9-1.1-1.9-1.1a.85.85 0 01-.42-.74.83.83 0 01.43-.73l1.9-1.1 1.9-1.09a2.14 2.14 0 011-.28 2.1 2.1 0 011.07.27z"/><path id="패스_8989" data-name="패스 8989" class="cls-4" d="M150.9 14.54a.82.82 0 00.42.73l1.9 1.1 1.9 1.1a2.1 2.1 0 002.13 0l1.9-1.1 1.9-1.1a.84.84 0 00.42-.73v-.9a.84.84 0 01-.42.73l-1.9 1.1-1.9 1.1a2.1 2.1 0 01-2.13 0l-1.9-1.1-1.9-1.1a.82.82 0 01-.42-.73z"/><path id="패스_8990" data-name="패스 8990" class="cls-3" d="M157.25 17.48a2.25 2.25 0 01-1.07.28 2.18 2.18 0 01-1.06-.28v-.9a2.18 2.18 0 001.06.28 2.25 2.25 0 001.07-.28z"/><path id="패스_8991" data-name="패스 8991" class="cls-5" d="M155.12 16.58l-1.9-1.1-1.9-1.1a.85.85 0 01-.42-.74v.9a.85.85 0 00.42.74l1.9 1.1 1.9 1.1z"/></g><path id="선_30" data-name="선 30" class="cls-3" d="M168.62 41.25l11.89 6.87"/><g id="그룹_4079" data-name="그룹 4079"><path id="패스_8992" data-name="패스 8992" class="cls-7" d="M161.76 45.22l11.88 6.86v7.17"/><path id="패스_8993" data-name="패스 8993" class="cls-7" d="M151 31.07l29.54 17v7.17"/><path id="패스_8994" data-name="패스 8994" class="cls-7" d="M154.89 49.18L166.78 56v7.17"/><path id="패스_8995" data-name="패스 8995" class="cls-7" d="M134.31 61.06l11.89 6.87v7.17"/><path id="패스_8996" data-name="패스 8996" class="cls-7" d="M141.17 57.1l11.89 6.9v7.17"/><path id="패스_8997" data-name="패스 8997" class="cls-7" d="M130.41 43l29.51 17v7.18"/><path id="패스_8998" data-name="패스 8998" class="cls-7" d="M127.45 65l11.88 6.86v7.17"/><path id="패스_8999" data-name="패스 8999" class="cls-7" d="M113.72 73l11.89 6.86V87"/><path id="패스_9000" data-name="패스 9000" class="cls-7" d="M82.46 70.75l29.42 17v7.17"/><path id="패스_9001" data-name="패스 9001" class="cls-7" d="M106.86 76.91l11.88 6.87V91"/><path id="패스_9002" data-name="패스 9002" class="cls-7" d="M102.94 58.8l29.53 17V83"/><path id="패스_9003" data-name="패스 9003" class="cls-7" d="M86.27 88.8l11.89 6.86v7.17"/><path id="패스_9004" data-name="패스 9004" class="cls-7" d="M55 86.57l29.47 17v7.17"/><path id="패스_9005" data-name="패스 9005" class="cls-7" d="M79.41 92.76l11.89 6.87v7.17"/><path id="패스_9006" data-name="패스 9006" class="cls-7" d="M93.13 84.84L105 91.7v7.17"/></g><path id="선_31" data-name="선 31" class="cls-7" d="M77.6 107.53v7"/></g><g id="그룹_4154" data-name="그룹 4154"><path id="패스_9272" data-name="패스 9272" d="M314.59 16.89l131 75.63-131 75.63-131-75.63z" stroke-width="1.24" fill="#00c3ee" stroke-linejoin="round" stroke="#231815" stroke-linecap="round"/><g id="그룹_4115" data-name="그룹 4115"><g id="그룹_4112" data-name="그룹 4112"><path id="패스_9273" data-name="패스 9273" class="cls-9" d="M408.08 80.34a12.37 12.37 0 005.76 0 9 9 0 002.35-.92 5.27 5.27 0 001.59-1.42 3 3 0 00.58-1.69v6.37a3 3 0 01-.58 1.69 5.14 5.14 0 01-1.59 1.38 9.14 9.14 0 01-2.35.93 12.37 12.37 0 01-5.76 0 10.33 10.33 0 01-1.54-.52v-6.34a9.3 9.3 0 001.54.52z"/><path id="패스_9274" data-name="패스 9274" class="cls-9" d="M403.56 76.35a2.88 2.88 0 00.58 1.69 5 5 0 001.18 1.11v6.38a4.66 4.66 0 01-1.18-1.12 2.89 2.89 0 01-.59-1.7v-6.36z"/><path id="패스_9275" data-name="패스 9275" class="cls-10" d="M405.73 79.42a7.61 7.61 0 00.81.4v6.37a6.09 6.09 0 01-.81-.4 3.07 3.07 0 01-.4-.26v-6.38l.4.27z"/></g><g id="그룹_4113" data-name="그룹 4113"><path id="패스_9276" data-name="패스 9276" class="cls-11" d="M411 80.68a10.46 10.46 0 005.23-1.27 3.75 3.75 0 002.17-3.06v6.37a3.76 3.76 0 01-2.17 3.07 10.57 10.57 0 01-5.23 1.27z"/><path id="패스_9277" data-name="패스 9277" class="cls-11" d="M409 86.92l1.22.14v-6.4l-1.22-.14z"/></g><g id="그룹_4114" data-name="그룹 4114"><path id="패스_9278" data-name="패스 9278" class="cls-10" d="M411 72c4.09 0 7.4 1.94 7.4 4.33s-3.31 4.33-7.4 4.33-7.4-1.94-7.4-4.33S406.88 72 411 72z"/></g></g><g id="그룹_4120" data-name="그룹 4120"><path id="패스_9279" data-name="패스 9279" class="cls-12" d="M285 148l29.58 17.08 8.65-5-29.58-17.07z"/><g id="그룹_4116" data-name="그룹 4116"><path id="패스_9280" data-name="패스 9280" class="cls-13" d="M316.22 164.17l1.09-.63 1.08-.62-29.57-17.08-1.09.63-1.09.62z"/></g><g id="그룹_4117" data-name="그룹 4117"><path id="선_37" data-name="선 37" class="cls-14" d="M315.93 158.65l1.63-.93"/><path id="선_38" data-name="선 38" class="cls-14" d="M313.47 157.23l1.63-.94"/><path id="선_39" data-name="선 39" class="cls-14" d="M318.4 160.08l1.63-.94"/><path id="선_40" data-name="선 40" class="cls-14" d="M311 155.81l1.63-.94"/><path id="선_41" data-name="선 41" class="cls-14" d="M308.54 154.39l1.63-.94"/><path id="선_42" data-name="선 42" class="cls-14" d="M306.07 153l1.63-.94"/><path id="선_43" data-name="선 43" class="cls-14" d="M303.61 151.54l1.63-.94"/><path id="선_44" data-name="선 44" class="cls-14" d="M301.14 150.12l1.63-.94"/><path id="선_45" data-name="선 45" class="cls-14" d="M298.68 148.69l1.63-.94"/><path id="선_46" data-name="선 46" class="cls-14" d="M296.21 147.27l1.63-.94"/><path id="선_47" data-name="선 47" class="cls-14" d="M293.75 145.85l1.63-.94"/></g><path id="패스_9281" data-name="패스 9281" class="cls-15" d="M322.49 160.56l-28.83-16.64v-.86l29.58 17.07z"/><g id="그룹_4118" data-name="그룹 4118"><path id="패스_9282" data-name="패스 9282" d="M301.2 146.62l2.29 1.32-5.25 3-2.24-1.31z" stroke-width="1.24" stroke-linejoin="round" stroke="#231815" stroke-linecap="round" fill="#fff"/><path id="패스_9283" data-name="패스 9283" class="cls-15" d="M298.24 151v4.71l-2.24-1.37v-4.71z"/></g><g id="그룹_4119" data-name="그룹 4119"><path id="패스_9284" data-name="패스 9284" class="cls-17" d="M285.79 148.45l7.87-4.54v-.86L285 148z"/></g><path id="패스_9285" data-name="패스 9285" class="cls-17" d="M298.25 151v4.71l5.25-3v-4.7z"/></g><path id="패스_9286" data-name="패스 9286" class="cls-13" d="M322.29 155.82c-2.34-1.33-2.35-3.5 0-4.83a9.47 9.47 0 018.46 0c2.34 1.33 2.35 3.49 0 4.82a9.47 9.47 0 01-8.46 0"/><path id="패스_9287" data-name="패스 9287" class="cls-18" d="M322.37 154.92c-2.29-1.31-2.3-3.43 0-4.74a9.29 9.29 0 018.3 0c2.3 1.31 2.3 3.43 0 4.73a9.26 9.26 0 01-8.3 0"/><g id="그룹_4121" data-name="그룹 4121"><path id="패스_9288" data-name="패스 9288" class="cls-10" d="M422.09 82.64l17.27 10-17.22 9.94-17.27-10z"/><path id="패스_9289" data-name="패스 9289" class="cls-19" d="M422.14 99.83l16-9.25v2.14l-16 9.24z"/><path id="패스_9290" data-name="패스 9290" class="cls-20" d="M422.13 99.83l-16.05-9.27v2.14l16.05 9.3z"/><path id="패스_9291" data-name="패스 9291" class="cls-21" d="M422.09 81.32l16.05 9.26-16 9.25-16-9.27z"/></g><g id="그룹_4122" data-name="그룹 4122"><path id="패스_9292" data-name="패스 9292" class="cls-10" d="M418.23 100.3l3.91 2.25-8.58 5-3.91-2.26z"/><path id="패스_9293" data-name="패스 9293" class="cls-19" d="M413.56 104.78l7.36-4.25v2.13l-7.36 4.25z"/><path id="패스_9294" data-name="패스 9294" d="M413.56 104.78l-2.7-1.56v2.14l2.7 1.55z" stroke-width=".82" stroke-linejoin="round" stroke="#231815" stroke-linecap="round"/><path id="패스_9295" data-name="패스 9295" class="cls-21" d="M418.23 99l2.69 1.56-7.36 4.25-2.7-1.56z"/></g><g id="그룹_4131" data-name="그룹 4131"><g id="그룹_4124" data-name="그룹 4124"><g id="그룹_4123" data-name="그룹 4123"><path id="패스_9296" data-name="패스 9296" class="cls-13" d="M227 85.54a30.07 30.07 0 001.65 9.63 36.55 36.55 0 004.83 9.35 50.2 50.2 0 008 8.77 70.69 70.69 0 0011.21 7.92 107.21 107.21 0 0028.93 11.1 145.25 145.25 0 0032.9 3.69 144.55 144.55 0 0032.9-3.67 106.42 106.42 0 0028.92-11.07 70.75 70.75 0 0011.21-7.93 49.77 49.77 0 008-8.79 36.65 36.65 0 004.77-9.37 30.21 30.21 0 001.56-9.66v4.11a30.14 30.14 0 01-1.56 9.65 36.17 36.17 0 01-4.77 9.37 49.1 49.1 0 01-8 8.8 70.23 70.23 0 01-11.21 7.92 106.12 106.12 0 01-28.92 11.08 145.68 145.68 0 01-32.9 3.67 145.88 145.88 0 01-32.91-3.72 106.9 106.9 0 01-28.93-11.11 71.28 71.28 0 01-11.21-7.91 50.26 50.26 0 01-8-8.78 36.49 36.49 0 01-4.83-9.34 30.13 30.13 0 01-1.64-9.61z"/></g></g><g id="그룹_4125" data-name="그룹 4125"><ellipse id="타원_235" data-name="타원 235" class="cls-23" cx="314.42" cy="85.54" rx="87.45" ry="50.49"/><ellipse id="타원_236" data-name="타원 236" cx="314.42" cy="85.54" rx="79.94" ry="46.15" fill="#8433fe" stroke-miterlimit="10" stroke-width="1.24" stroke="#231815" stroke-linecap="round"/><ellipse id="타원_237" data-name="타원 237" cx="314.43" cy="85.54" rx="72.42" ry="41.81" fill="#7c3cfd" stroke-miterlimit="10" stroke-width="1.24" stroke="#231815" stroke-linecap="round"/><ellipse id="타원_238" data-name="타원 238" cx="314.42" cy="85.54" rx="64.9" ry="37.47" fill="#7346fc" stroke-miterlimit="10" stroke-width="1.24" stroke="#231815" stroke-linecap="round"/><ellipse id="타원_239" data-name="타원 239" cx="314.42" cy="85.54" rx="57.38" ry="33.13" fill="#6a50fb" stroke-miterlimit="10" stroke-width="1.24" stroke="#231815" stroke-linecap="round"/><ellipse id="타원_240" data-name="타원 240" cx="314.43" cy="85.54" rx="49.86" ry="28.79" fill="#6159fa" stroke-miterlimit="10" stroke-width="1.24" stroke="#231815" stroke-linecap="round"/><ellipse id="타원_241" data-name="타원 241" cx="314.42" cy="85.54" rx="42.34" ry="24.45" fill="#5963f9" stroke-miterlimit="10" stroke-width="1.24" stroke="#231815" stroke-linecap="round"/><ellipse id="타원_242" data-name="타원 242" cx="314.42" cy="85.54" rx="34.83" ry="20.11" fill="#506cf8" stroke-miterlimit="10" stroke-width="1.24" stroke="#231815" stroke-linecap="round"/><ellipse id="타원_243" data-name="타원 243" class="cls-31" cx="314.43" cy="85.54" rx="27.31" ry="15.77"/></g><g id="그룹_4130" data-name="그룹 4130"><ellipse id="타원_244" data-name="타원 244" class="cls-18" cx="314.25" cy="85.54" rx="20.27" ry="11.7"/><g id="그룹_4129" data-name="그룹 4129"><path id="패스_9297" data-name="패스 9297" class="cls-13" d="M311.35 86.58c-1.6-.91-1.62-2.4 0-3.31a6.49 6.49 0 015.81 0c1.6.92 1.61 2.4 0 3.31a6.44 6.44 0 01-5.8 0"/><g id="그룹_4128" data-name="그룹 4128"><g id="그룹_4126" data-name="그룹 4126"><path id="패스_9298" data-name="패스 9298" class="cls-13" d="M310.84 79.67a1.71 1.71 0 001 1.42 5.32 5.32 0 004.83 0 1.75 1.75 0 001-1.42V85a1.75 1.75 0 01-1 1.42 5.24 5.24 0 01-4.83 0 1.71 1.71 0 01-1-1.42z"/><path id="패스_9299" data-name="패스 9299" class="cls-12" d="M314.25 81.67a4.84 4.84 0 002.42-.58 1.75 1.75 0 001-1.42V85a1.78 1.78 0 01-1 1.42 4.84 4.84 0 01-2.42.58z"/><path id="패스_9300" data-name="패스 9300" class="cls-14" d="M310.84 79.67c0-1.1 1.53-2 3.41-2s3.42.9 3.42 2-1.53 2-3.42 2-3.41-.9-3.41-2z"/></g><g id="그룹_4127" data-name="그룹 4127"><path id="패스_9301" data-name="패스 9301" class="cls-12" d="M310.84 79.67c0-1.1 1.53-2 3.41-2s3.42.9 3.42 2-1.53 2-3.42 2-3.41-.9-3.41-2z"/><path id="패스_9302" data-name="패스 9302" class="cls-12" d="M311.24 79.08c0-1 1.35-1.76 3-1.76s3 .79 3 1.76-1.35 1.77-3 1.77-3-.79-3-1.77z"/><path id="패스_9303" data-name="패스 9303" class="cls-12" d="M311.63 78.49c0-.84 1.18-1.53 2.62-1.53s2.62.69 2.62 1.53S315.7 80 314.25 80s-2.62-.69-2.62-1.54z"/><path id="패스_9304" data-name="패스 9304" class="cls-12" d="M312 77.9c0-.71 1-1.3 2.22-1.3s2.22.59 2.22 1.3-1 1.3-2.22 1.3-2.22-.58-2.22-1.3z"/><path id="패스_9305" data-name="패스 9305" class="cls-12" d="M312.43 77.31c0-.58.82-1.06 1.82-1.06s1.82.48 1.82 1.06-.81 1.07-1.82 1.07-1.82-.48-1.82-1.07z"/><path id="패스_9306" data-name="패스 9306" class="cls-12" d="M312.83 76.72c0-.45.64-.83 1.42-.83s1.42.38 1.42.84-.63.83-1.42.83-1.42-.37-1.42-.83z"/><path id="패스_9307" data-name="패스 9307" class="cls-18" d="M313.23 76.14c0-.33.46-.6 1-.6s1 .26 1 .6-.45.6-1 .6-1-.27-1-.6z"/></g></g></g></g></g><g id="그룹_4132" data-name="그룹 4132"><path id="패스_9308" data-name="패스 9308" class="cls-10" d="M409.65 105.25l3.91 2.25-8.58 5-3.91-2.26z"/><path id="패스_9309" data-name="패스 9309" d="M405 109.73l7.36-4.25v2.13l-7.36 4.26z" stroke-width=".82" stroke-miterlimit="10" fill="#4776f7" stroke="#231815" stroke-linecap="round"/><path id="패스_9310" data-name="패스 9310" class="cls-20" d="M405 109.73l-2.69-1.56v2.14l2.69 1.55z"/><path id="패스_9311" data-name="패스 9311" class="cls-21" d="M409.65 103.92l2.7 1.56-7.35 4.25-2.69-1.56z"/></g><g id="그룹_4134" data-name="그룹 4134"><g id="그룹_4133" data-name="그룹 4133"><path id="패스_9312" data-name="패스 9312" class="cls-17" d="M314.59 189.66l131-75.62V92.52l-131 75.62z"/></g></g><g id="그룹_4136" data-name="그룹 4136"><g id="그룹_4135" data-name="그룹 4135"><path id="패스_9313" data-name="패스 9313" class="cls-15" d="M183.6 114l131 75.62v-21.48l-131-75.62z"/></g></g><g id="그룹_4138" data-name="그룹 4138"><g id="그룹_4137" data-name="그룹 4137"><path id="패스_9314" data-name="패스 9314" d="M411 73.51c-3.38 0-5.91 1.5-5.91 2.84v0c0 1.34 2.55 2.83 5.91 2.83s5.9-1.5 5.9-2.85-2.52-2.84-5.9-2.84m0-1.49c4.09 0 7.4 1.94 7.4 4.33s-3.31 4.33-7.4 4.33-7.4-1.94-7.4-4.33S406.88 72 411 72z" stroke-width=".82" stroke-miterlimit="10" stroke="#231815" stroke-linecap="round" fill="#fff"/></g></g><g id="그룹_4152" data-name="그룹 4152"><g id="그룹_4142" data-name="그룹 4142"><g id="그룹_4141" data-name="그룹 4141"><g id="그룹_4139" data-name="그룹 4139"><path id="패스_9315" data-name="패스 9315" class="cls-13" d="M196.12 63.91a2.73 2.73 0 011.4.36c1.2.67 2 2.25 2 4.51 0 4.1-2.49 8.85-5.57 10.63a4.5 4.5 0 01-2.2.67 2.86 2.86 0 01-1.43-.38c-1.18-.67-1.93-2.25-1.93-4.5 0-4.1 2.49-8.85 5.56-10.62a4.36 4.36 0 012.21-.67z"/></g><g id="그룹_4140" data-name="그룹 4140"><path id="패스_9316" data-name="패스 9316" class="cls-31" d="M184.35 76.27a3.46 3.46 0 01-1.41-1.66 7.26 7.26 0 01-.52-2.84 13.75 13.75 0 011.63-6.18 11 11 0 013.95-4.44 4.61 4.61 0 012-.66 3 3 0 011.65.34l3 1.72 3 1.71a3 3 0 00-1.65-.34 4.53 4.53 0 00-2 .66 11 11 0 00-4 4.42 13.75 13.75 0 00-1.63 6.18 7.26 7.26 0 00.52 2.84 3.46 3.46 0 001.41 1.66l-3-1.72z"/></g></g></g><g id="그룹_4143" data-name="그룹 4143"><path id="패스_9317" data-name="패스 9317" class="cls-31" d="M200.13 76.82a3.81 3.81 0 01-1.46 1 1.49 1.49 0 01-1.3-.07L195 76.38 192.71 75a1.62 1.62 0 01-.72-1.12 3.89 3.89 0 01.12-1.73l4 2.32z"/><path id="패스_9318" data-name="패스 9318" class="cls-13" d="M192 73.92a3.59 3.59 0 01.12-1.72l4 2.32 4 2.31a3.92 3.92 0 01-1.46 1z"/><path id="패스_9319" data-name="패스 9319" class="cls-12" d="M192.67 70.86c1-1.72 2.65-2.66 3.63-2l4.7 2.64c1 .62 1 2.45 0 4.18a6.56 6.56 0 01-.87 1.15l-8-4.63a6.35 6.35 0 01.54-1.34z"/><path id="패스_9320" data-name="패스 9320" class="cls-31" d="M201 75.68a6.56 6.56 0 01-.87 1.15l-8-4.63a5.84 5.84 0 01.56-1.34z"/></g><g id="그룹_4147" data-name="그룹 4147"><path id="패스_9321" data-name="패스 9321" class="cls-13" d="M224.1 92.32c0 5-6.9 9-15.42 9s-15.44-4.07-15.44-9 6.9-9 15.44-9 15.42 4.01 15.42 9z"/><g id="그룹_4146" data-name="그룹 4146"><g id="그룹_4144" data-name="그룹 4144"><path id="패스_9322" data-name="패스 9322" class="cls-31" d="M194.87 76.9c0 2.23 1.55 4.25 4 5.72a19.7 19.7 0 009.82 2.38 22 22 0 006.55-1v14.66a22 22 0 01-6.55 1 19.67 19.67 0 01-9.77-2.37c-2.5-1.46-4-3.49-4-5.73V76.9z"/><path id="패스_9323" data-name="패스 9323" class="cls-12" d="M218.45 82.62c2.5-1.46 4-3.48 4-5.71v14.62c0 2.24-1.55 4.27-4 5.73a16.52 16.52 0 01-3.2 1.4V84a15.16 15.16 0 003.2-1.38z"/></g><path id="패스_9324" data-name="패스 9324" class="cls-12" d="M194.88 76.9c0-4.46 6.19-8.09 13.81-8.09s13.8 3.64 13.8 8.1-6.18 8.09-13.8 8.09-13.81-3.62-13.81-8.08z"/><g id="그룹_4145" data-name="그룹 4145"><path id="패스_9325" data-name="패스 9325" class="cls-23" d="M194.87 76.9c0 2.23 1.55 4.25 4 5.72a17.94 17.94 0 006.37 2.11v14.65a18.14 18.14 0 01-6.37-2.11c-2.5-1.47-4-3.49-4-5.74V76.91z"/></g></g></g><g id="그룹_4150" data-name="그룹 4150"><g id="그룹_4148" data-name="그룹 4148"><path id="패스_9326" data-name="패스 9326" class="cls-12" d="M219 86.05c1-1.71 2.66-2.65 3.63-2l34.46 19.77c1 .62 1 2.45.05 4.19a6.43 6.43 0 01-.88 1.14l-37.83-21.76a5.84 5.84 0 01.57-1.34z"/><path id="패스_9327" data-name="패스 9327" class="cls-31" d="M257.13 108a6.43 6.43 0 01-.88 1.14l-37.82-21.75a6.32 6.32 0 01.56-1.34z"/><path id="패스_9328" data-name="패스 9328" class="cls-31" d="M256.25 109.11a3.88 3.88 0 01-1.45 1 1.52 1.52 0 01-1.3-.08l-20.2-11.58-14.3-8.21a1.66 1.66 0 01-.72-1.13 3.59 3.59 0 01.12-1.72l15.94 9.19z"/><path id="패스_9329" data-name="패스 9329" class="cls-13" d="M218.32 89.12a3.75 3.75 0 01.11-1.73l15.94 9.19 21.88 12.53a3.88 3.88 0 01-1.45 1z"/></g><g id="그룹_4149" data-name="그룹 4149"><path id="패스_9330" data-name="패스 9330" class="cls-12" d="M258.92 100.75l21.48 12.41-9.68 5.6-21.44-12.4z"/><path id="패스_9331" data-name="패스 9331" class="cls-23" d="M263.76 114.74l6.95 4v9.46l-7.4-4.28-1.45-4.17-12.59-7.29v-6.12l14.49 8.38"/><path id="패스_9332" data-name="패스 9332" class="cls-31" d="M270.71 118.76v9.46l9.68-5.61v-9.45z"/></g></g><g id="그룹_4151" data-name="그룹 4151"><path id="패스_9333" data-name="패스 9333" class="cls-23" d="M183 68.26l5.93 3.44a13.63 13.63 0 00-.49 2.45l-5.93-3.43a13.92 13.92 0 01.49-2.46z"/><path id="패스_9334" data-name="패스 9334" class="cls-23" d="M188.87 78a3.42 3.42 0 001.41 1.66l-3-1.71-3-1.72a3.42 3.42 0 01-1.41-1.66 6.36 6.36 0 01-.37-1.57l5.94 3.43a6 6 0 00.43 1.57z"/><path id="패스_9335" data-name="패스 9335" class="cls-13" d="M182.48 70.72l5.93 3.43c0 .35-.06.71-.06 1a7.81 7.81 0 00.09 1.18l-5.93-3.44a7.59 7.59 0 01-.09-1.17c0-.35 0-.7.06-1z"/></g></g><g id="그룹_4153" data-name="그룹 4153"><path id="패스_9336" data-name="패스 9336" class="cls-13" d="M198.92 82.63a15 15 0 001.9.91v14.65a14.47 14.47 0 01-1.9-.92l-.78-.5V82.13l.78.5z"/></g></g></g><path fill="none" d="M0 .65h460v198H0z"/></g></g></svg>