<svg xmlns="http://www.w3.org/2000/svg" width="375" height="430"><defs><style>.cls-1{fill:#fed843}.cls-2{fill:#ffb5c5}</style></defs><g id="Layer_2" data-name="Layer 2"><g id="Layer_1-2" data-name="Layer 1"><g id="_5_img" data-name="5 img"><g id="COIN"><g id="그룹_4098" data-name="그룹 4098"><ellipse id="타원_44" data-name="타원 44" class="cls-1" cx="338.5" cy="415.9" rx="5.84" ry="16.81" transform="rotate(-47 338.498 415.904)"/><path id="패스_9269" data-name="패스 9269" d="M334.14 420.58c-6.25-5.82-11.07-13.59-8.34-16.52s10.81 1.35 17.06 7.17 11.06 13.59 8.34 16.52-10.82-1.35-17.06-7.17zm8-8.54c-7.11-6.63-13.75-9.09-15.49-7.22s1.17 8.32 8.28 14.95 13.75 9.09 15.5 7.22-1.22-8.32-8.33-14.99z"/></g><path id="패스_9270" data-name="패스 9270" class="cls-1" d="M330 401.22l-3.6 3.78 9.35 13.81 14.34 8.28 3.78-4.06z"/><g id="그룹_4099" data-name="그룹 4099"><ellipse id="타원_45" data-name="타원 45" class="cls-1" cx="341.62" cy="412.56" rx="5.84" ry="16.81" transform="rotate(-47 341.621 412.558)"/><path id="패스_9271" data-name="패스 9271" d="M337.26 417.23c-6.24-5.82-11.07-13.59-8.34-16.52s10.82 1.35 17.06 7.17 11.07 13.59 8.34 16.52-10.82-1.35-17.06-7.17zm8-8.54c-7.11-6.63-13.75-9.09-15.49-7.22s1.17 8.32 8.28 14.95 13.76 9.09 15.5 7.22-1.17-8.32-8.29-14.95z"/></g><g id="그룹_4100" data-name="그룹 4100"><path id="선_32" data-name="선 32" class="cls-1" d="M353.91 424l-3.44 3.69"/><path id="사각형_129" data-name="사각형 129" d="M353.51 423.64l.81.76-3.44 3.69-.81-.76z"/></g><g id="그룹_4101" data-name="그룹 4101"><path id="선_33" data-name="선 33" class="cls-1" d="M329.32 401.09l-3.43 3.69"/><path id="사각형_130" data-name="사각형 130" d="M328.92 400.71l.81.76-3.44 3.69-.81-.76z"/></g><g id="그룹_4102" data-name="그룹 4102"><path id="선_34" data-name="선 34" class="cls-1" d="M334.47 420.13l3.4-3.64"/><path id="사각형_131" data-name="사각형 131" d="M337.47 416.11l.8.75-3.4 3.65-.81-.76z"/></g><g id="그룹_4103" data-name="그룹 4103"><path id="선_35" data-name="선 35" class="cls-1" d="M339 424.34l3.4-3.65"/><path id="사각형_132" data-name="사각형 132" d="M342 420.32l.81.75-3.4 3.65-.81-.76z"/></g><g id="그룹_4104" data-name="그룹 4104"><path id="선_36" data-name="선 36" class="cls-1" d="M345 427.48l3.41-3.64"/><path id="사각형_133" data-name="사각형 133" d="M348 423.46l.81.75-3.4 3.65-.81-.76z"/></g></g><g id="COIN-2"><g id="그룹_4098-2" data-name="그룹 4098-2"><ellipse id="타원_44-2" data-name="타원 44-2" class="cls-1" cx="33.66" cy="20.76" rx="21.84" ry="7.59" transform="rotate(-51 33.654 20.762)"/><path id="패스_9269-2" data-name="패스 9269-2" d="M27.2 15.53C34.18 6.91 43.82 0 47.86 3.23S47.09 17.37 40.11 26 23.5 41.57 19.46 38.3s.76-14.15 7.74-22.77zM39 25.09c8-9.82 10.53-18.66 8-20.74S36.27 6.62 28.32 16.44s-10.54 18.65-8 20.74S31 34.91 39 25.09z"/></g><path id="패스_9270-2" data-name="패스 9270-2" class="cls-1" d="M51.91 8.37L46.65 4.1 29.59 17.47l-9.43 19.34 5.6 4.53z"/><g id="그룹_4099-2" data-name="그룹 4099-2"><ellipse id="타원_45-2" data-name="타원 45-2" class="cls-1" cx="38.28" cy="24.51" rx="21.84" ry="7.59" transform="rotate(-51 38.28 24.5)"/><path id="패스_9271-2" data-name="패스 9271-2" d="M31.82 19.28C38.8 10.66 48.44 3.7 52.48 7s-.76 14.14-7.74 22.76S28.12 45.31 24.08 42s.76-14.1 7.74-22.72zm11.8 9.55c8-9.82 10.53-18.65 8-20.74s-10.73 2.27-18.68 12.09S22.41 38.84 25 40.92s10.67-2.27 18.62-12.09z"/></g><g id="그룹_4100-2" data-name="그룹 4100-2"><path id="선_32-2" data-name="선 32-2" class="cls-1" d="M24.53 41.48l-5.09-4.12"/><path id="사각형_129-2" data-name="사각형 129-2" d="M19 37.92l.9-1.12 5.1 4.12-.92 1.08z"/></g><g id="그룹_4101-2" data-name="그룹 4101-2"><path id="선_33-2" data-name="선 33-2" class="cls-1" d="M52 7.53l-5.06-4.12"/><path id="사각형_130-2" data-name="사각형 130-2" d="M46.48 4l.91-1.12L52.48 7l-.91 1.12z"/></g><g id="그룹_4102-2" data-name="그룹 4102-2"><path id="선_34-2" data-name="선 34-2" class="cls-1" d="M27.81 15.92l5 4.08"/><path id="사각형_131-2" data-name="사각형 131-2" d="M27.36 16.48l.9-1.11 5 4.07-.91 1.12z"/></g><g id="그룹_4103-2" data-name="그룹 4103-2"><path id="선_35-2" data-name="선 35-2" class="cls-1" d="M22.77 22.15l5 4.08"/><path id="사각형_132-2" data-name="사각형 132-2" d="M22.31 22.71l.91-1.11 5 4.07-.9 1.12z"/></g><g id="그룹_4104-2" data-name="그룹 4104-2"><path id="선_36-2" data-name="선 36-2" class="cls-1" d="M19.24 30.25l5 4.08"/><path id="사각형_133-2" data-name="사각형 133-2" d="M18.78 30.81l.91-1.12 5 4.08-.91 1.12z"/></g></g><g id="그룹_4097" data-name="그룹 4097"><g id="그룹_4095" data-name="그룹 4095"><path id="패스_9268" data-name="패스 9268" class="cls-2" d="M334.39 75v.27s.16 2.92 1.55 4.2a11.21 11.21 0 004.2 1.91s-3.25.22-4.2 1.28-1.55 4.52-1.55 4.52-.48-3.83-1.8-4.52a33 33 0 00-4-1.54s3.35-.21 4.52-2.08.9-2.75.9-2.75l.42-1.67z"/><path id="패스_9265" data-name="패스 9265" class="cls-2" d="M334.39 90.78l-.4-2.55c-.78-5-1.31-5.63-5.16-6.6l-1.56-.4 1.56-.4c3.85-1 4.38-1.65 5.16-6.6l.4-2.55.4 2.55c.78 5 1.31 5.63 5.16 6.6l1.56.4-1.56.4c-3.85 1-4.38 1.65-5.16 6.6zm-4-9.55c2.44.79 3.33 1.8 4 4.68.64-2.88 1.53-3.89 4-4.68-2.44-.79-3.33-1.81-4-4.68-.64 2.87-1.53 3.89-4 4.68z"/></g><g id="그룹_4096" data-name="그룹 4096"><path id="패스_9267" data-name="패스 9267" class="cls-2" d="M348.22 62.33s.1 4.84 2.92 7a13.65 13.65 0 004.74 2.6s-4.1 1.22-5.1 3.14-2 7.39-2 7.39-.48-4.73-2-6.86-5.9-3.4-5.9-3.4a10.42 10.42 0 004.68-2.34c1.7-1.74 2.66-7.53 2.66-7.53z"/><path id="패스_9266" data-name="패스 9266" class="cls-2" d="M348.81 86.67l-.48-2.93c-1.34-8.28-2.23-9.51-7.88-11l-1.35-.36 1.33-.43c5.57-1.78 6.39-3.06 7.32-11.38l.33-3 .47 2.94c1.35 8.27 2.23 9.5 7.89 11l1.34.35-1.32.43c-5.57 1.78-6.4 3.06-7.32 11.39zm-6.89-14.37c4.29 1.31 5.62 2.94 6.75 8.65.84-5.76 2.08-7.45 6.3-9-4.29-1.31-5.62-2.93-6.75-8.65-.84 5.77-2.09 7.46-6.3 9z"/></g></g><path id="패스_11168" data-name="패스 11168" class="cls-2" d="M80.4 260.7l-.09-.43c0-.14-.09-.28-.13-.41l-5.64-21.07-17.47 8.8L61 262.14a6.18 6.18 0 104.25 7.63 6.37 6.37 0 00.21-2.3h.08l-4.16-15.55 11.92-6.22 2.7 10.22a6.18 6.18 0 104.27 7.62 6.09 6.09 0 00.14-2.72z"/></g><path fill="none" d="M0 0h375v430H0z"/></g></g></svg>