<svg xmlns="http://www.w3.org/2000/svg" width="375" height="16"><g data-name="Layer 2"><g data-name="Layer 1"><path d="M61 15.1h-1.9V.85H61zm-10.43-4.5a6.21 6.21 0 01-1-3.68 6.37 6.37 0 011-3.7 3.29 3.29 0 014.59-.81 3.5 3.5 0 01.82.81 6.36 6.36 0 011 3.7 6.25 6.25 0 01-1 3.67 3.32 3.32 0 01-4.63.79 3.21 3.21 0 01-.78-.78zm4.6-3.68a5.54 5.54 0 00-.53-2.63 1.58 1.58 0 00-1.38-1 1.54 1.54 0 00-1.33 1 5.56 5.56 0 00-.52 2.63 5.4 5.4 0 00.52 2.62 1.52 1.52 0 001.33 1 1.57 1.57 0 001.38-1 5.49 5.49 0 00.53-2.61zm13.49 2h-5.78v-7h1.89V4h2V1.9h1.88v2.64h1.28V1.1h1.77V11h-1.76V6h-1.28zm6.19 5.86H64.78v-4.61h1.86v3.09h8.21zm-.35-3.34h-1.78V.85h1.78zm-7.72-4V5.47h-2v2zm19.73-.91h-7.42v1.53H87v1.48h-9.77V2h9.62v1.44h-7.76V5h7.42zm1.95 5.33v1.47H75.58v-1.49zm15.69 3.26h-1.88V.85h1.88zM99.76 2.34a11.28 11.28 0 01-6.37 10.19l-1.15-1.41a9.74 9.74 0 003.81-3.07 8.06 8.06 0 001.7-4.16h-4.64V2.34zm19 4.11h-2v4.72h-1.88V.85h1.88v4.06h2zm-6-4.51a7.11 7.11 0 01-1.83 4.93 9.09 9.09 0 01-4.6 2.7l-.93-1.49a7.45 7.45 0 003.46-1.58 4.94 4.94 0 001.88-3h-4.62V1.94zm4.34 12.75h-9.52v-4.6h1.88v3.1h7.64zm6-8V4.75h2v1.89zm0 5.79v-1.94h2v1.89zm6.92.76V12l2.1-2.21a21.88 21.88 0 002.07-2.44 3.34 3.34 0 00.67-1.9 1.74 1.74 0 00-.52-1.41 2.51 2.51 0 00-1.59-.43 4.47 4.47 0 00-2.27.74l-.32-1.46a6.08 6.08 0 013.12-.83 3.93 3.93 0 012.7.82 2.88 2.88 0 01.92 2.32 4 4 0 01-.24 1.38 5.4 5.4 0 01-.82 1.42c-.35.47-.66.86-.92 1.15s-.62.67-1.06 1.14l-1.3 1.33H137v1.54zm12.21.19a4 4 0 01-3.09-1.3 5.75 5.75 0 01-1.16-4v-.7a8 8 0 01.34-2.48 4.12 4.12 0 01.95-1.66 3.86 3.86 0 011.35-.9 4.31 4.31 0 011.63-.29 4 4 0 013 1.28 5.81 5.81 0 011.17 4v.69a5.81 5.81 0 01-1.18 4 4 4 0 01-3.06 1.29zm0-1.5a1.86 1.86 0 001.67-.87 5.57 5.57 0 00.54-2.81v-.88c0-2.5-.73-3.76-2.19-3.76a1.84 1.84 0 00-1.68.88 5.41 5.41 0 00-.57 2.77v.85c0 2.51.74 3.76 2.21 3.76zm5.41 1.31V12l2.1-2.21a22.91 22.91 0 002.06-2.44 3.35 3.35 0 00.68-1.9 1.77 1.77 0 00-.52-1.41 2.52 2.52 0 00-1.6-.43 4.5 4.5 0 00-2.27.74l-.32-1.46a6.1 6.1 0 013.12-.83 4 4 0 012.7.82 3 3 0 01.93 2.32 4.32 4.32 0 01-.25 1.38 5.4 5.4 0 01-.82 1.42c-.35.48-.66.86-.92 1.15s-.61.68-1.06 1.15l-1.3 1.33h4.4v1.53zm9.54.06v-9l-1.84.37V3.44l2.78-1.25h1v11.06zm15.47 1.47h-9.68V10.4h1.85v2.83h7.83zm-4.39-7.39l.23 1.5a27 27 0 01-5.81.5h-1.42V1.76h1.85v6a19 19 0 005.11-.43zm2.21-3.39h-3.57V2.48h3.53V.85h1.87v10.33h-1.87V6.41h-3.53V5h3.53zm11.19 9.44a3.62 3.62 0 01-3-1.29 5.58 5.58 0 01-1-3.58v-.83a6 6 0 011.3-4.26 4.49 4.49 0 013.41-1.36 5 5 0 012.56.61l-.39 1.44a3.89 3.89 0 00-.94-.33 4.26 4.26 0 00-1.12-.15 2.55 2.55 0 00-2 .81 4.52 4.52 0 00-.83 2.8 3.85 3.85 0 012.56-1 3.28 3.28 0 012.36.88 3.2 3.2 0 01.9 2.4 3.78 3.78 0 01-1 2.7 3.53 3.53 0 01-2.74 1.06zm-.05-1.46a1.73 1.73 0 001.38-.57 2.28 2.28 0 00.5-1.59c0-1.34-.64-2-1.93-2a2 2 0 00-1.1.32 2.85 2.85 0 00-.87.75v.1c0 2 .67 3 2 3zm16.81 3.23h-10.2v-3.26H196v-.64h-7.87V10h9.74v3.2h-7.85v.66h8.33zM186.88 3.41a2 2 0 011-1.7 4.59 4.59 0 012.53-.66 4.36 4.36 0 012.48.67 2 2 0 011 1.72 2 2 0 01-1 1.68 4.44 4.44 0 01-2.48.65 4.58 4.58 0 01-2.53-.65 2 2 0 01-1-1.71zm6.32 5.65V7.82h2.87v-7h1.85v8.6h-1.85v-.37zm-2.06.38h-1.87V7.71c-1.64.07-2.71.1-3.2.1l-.26-1.49c1.76 0 3.3 0 4.62-.08 1.86-.09 3.4-.21 4.63-.37l.14 1.39c-1.08.15-2.43.27-4.06.37zm-1.91-6.76a.85.85 0 00-.46.75.82.82 0 00.46.73 2.78 2.78 0 002.41 0 .83.83 0 00.46-.72.86.86 0 00-.46-.74 2.22 2.22 0 00-1.2-.29 2.33 2.33 0 00-1.22.28zM203 13.18V12l2.1-2.21a21.88 21.88 0 002.07-2.44 3.34 3.34 0 00.67-1.9 1.74 1.74 0 00-.52-1.41 2.51 2.51 0 00-1.59-.43 4.53 4.53 0 00-2.28.74l-.32-1.46a6.13 6.13 0 013.12-.83 3.93 3.93 0 012.7.82 2.92 2.92 0 01.93 2.32 3.83 3.83 0 01-.25 1.38 5.37 5.37 0 01-.76 1.42c-.35.47-.66.86-.92 1.15s-.62.67-1.07 1.14l-1.3 1.33H210v1.54zm9.54.07v-9l-1.84.37V3.44l2.78-1.25h1v11.06zM228.16 15h-9.81v-3.83h7.5v-1h-7.59V8.7h9.44v3.81h-7.48v1h7.93zm-.44-7h-1.86V.85h1.86zm-11.37-3.36a3 3 0 011.07-2.37 4.4 4.4 0 015.42 0 3 3 0 011.06 2.39 2.84 2.84 0 01-1.05 2.3 4.08 4.08 0 01-2.7.88 4.22 4.22 0 01-2.7-.87 2.79 2.79 0 01-1.1-2.33zm2.43-1.26a1.61 1.61 0 00-.58 1.24 1.49 1.49 0 00.56 1.19 2.09 2.09 0 001.38.46 2 2 0 001.38-.48 1.49 1.49 0 00.48-1.17 1.63 1.63 0 00-.51-1.25 1.89 1.89 0 00-1.39-.5 2 2 0 00-1.36.51zm18.74 3.45l.28.2.31.22.29.17a1.41 1.41 0 00.32.17l.29.09a1.26 1.26 0 00.33.05 1 1 0 00.78-.44 1.93 1.93 0 00.4-1.08l1.35.48a3.07 3.07 0 01-.85 2 2.33 2.33 0 01-1.66.63 3.44 3.44 0 01-1.86-.64 4.47 4.47 0 00-1.79-1 1 1 0 00-.85.32 1.85 1.85 0 00-.52 1l-.58-.28-.67-.33a2.92 2.92 0 011.06-1.87 2.29 2.29 0 011.7-.42 3.35 3.35 0 011.66.77zm9.58 6.35l4-9.34h-5V2.29h7.1v1.16l-3.95 9.73zm19 2h-10.2v-3.24h7.86v-.64h-7.87V10h9.74v3.2h-7.86v.66h8.34zM254.59 3.41a2 2 0 011-1.7 4.58 4.58 0 012.52-.66 4.44 4.44 0 012.49.66 2 2 0 011 1.72 1.93 1.93 0 01-1 1.68 4.4 4.4 0 01-2.48.66 4.58 4.58 0 01-2.52-.66 2 2 0 01-1-1.7zm6.32 5.64V7.82h2.87v-7h1.85v8.6h-1.85v-.37zm-2.06.39H257V7.71c-1.65.07-2.71.1-3.2.1l-.26-1.49c1.76 0 3.3 0 4.62-.08 1.86-.08 3.4-.21 4.63-.37l.14 1.4c-1.08.15-2.43.27-4.06.36zm-1.91-6.76a.83.83 0 000 1.48 2.76 2.76 0 002.4 0 .85.85 0 00.47-.73.85.85 0 00-.47-.73 2.18 2.18 0 00-1.2-.29 2.26 2.26 0 00-1.2.27zm16.72 10.66a7.58 7.58 0 01-1.83-.23 4.56 4.56 0 01-1.38-.54l.32-1.42a4.47 4.47 0 001.17.44 6.54 6.54 0 001.39.18 2.79 2.79 0 001.73-.46 1.64 1.64 0 00.6-1.38c0-1.09-.75-1.64-2.27-1.66h-1.13V6.81h1a2.63 2.63 0 001.54-.46 1.39 1.39 0 00.58-1.17c0-1-.66-1.5-2-1.5a5.56 5.56 0 00-2.33.57l-.23-1.45a5 5 0 011.4-.49 7.28 7.28 0 011.68-.2 3.94 3.94 0 012.48.71 2.38 2.38 0 01.92 2 2.57 2.57 0 01-2 2.56 2.53 2.53 0 012.33 2.69 2.92 2.92 0 01-1.09 2.4 4.59 4.59 0 01-3 .87zm6.61-.1v-9l-1.84.37V3.44l2.79-1.25h1v11.06zM295.89 15h-9.81v-3.83h7.5v-1H286V8.7h9.44v3.81H288v1h7.93zm-.45-7h-1.86V.85h1.86zm-11.36-3.36a3 3 0 011.07-2.37 4.38 4.38 0 015.41 0 3 3 0 011.07 2.39 2.84 2.84 0 01-1.05 2.3 4.08 4.08 0 01-2.7.88 4.22 4.22 0 01-2.7-.87 2.79 2.79 0 01-1.1-2.31zm2.43-1.26a1.6 1.6 0 00-.57 1.24 1.48 1.48 0 00.55 1.19 2.09 2.09 0 001.38.46 2 2 0 001.38-.48 1.53 1.53 0 00.53-1.17 1.68 1.68 0 00-.52-1.25 1.87 1.87 0 00-1.39-.5 2 2 0 00-1.36.51zM311.65.85v5.66h2v1.55h-2v7h-1.81V.85zm-6.91 1.49A16.42 16.42 0 01304 7.9a11.77 11.77 0 01-2.59 4.1L300 10.93a8.84 8.84 0 002.21-3.22 9.81 9.81 0 00.79-3.82h-2.07V2.34zm3.95 0a21.33 21.33 0 01-.67 6 12.81 12.81 0 01-2.55 4.5l-1.45-1a11 11 0 002.91-7.92h-1.55V2.34zm13.85 7.92l-1 1.45a7.3 7.3 0 01-2.05-1.66 6.26 6.26 0 01-1.39-2.16 5.82 5.82 0 01-1.24 2.34 6.34 6.34 0 01-2.2 1.82l-1.12-1.39q3.57-1.9 3.57-6.48v-.39h-2.85V2.3h7.57v1.49H319v.37a6.3 6.3 0 003.51 6.09zm2.88 4.85h-1.87V.85h1.87z"/><path fill="none" d="M0 0h375v16H0z"/></g></g></svg>