<svg xmlns="http://www.w3.org/2000/svg" width="375" height="234"><defs><style>.cls-1{fill:#5525d7}.cls-3{fill:#fff}</style></defs><g id="Layer_2" data-name="Layer 2"><g id="Layer_1-2" data-name="Layer 1"><g id="_2_txt" data-name="2 txt"><g id="그룹_4081" data-name="그룹 4081"><path id="사각형_127" data-name="사각형 127" class="cls-1" d="M51.64 198h274v10h-274z"/><path id="사각형_128" data-name="사각형 128" class="cls-1" d="M58.64 224h260v10h-260z"/></g><path id="패스_11243" data-name="패스 11243" d="M130.6 13.72v3.18h-16.54v-3.18zm-14.64-3L113.88 8a10.27 10.27 0 007-8l3.66.56a11.74 11.74 0 01-.84 2.84 14.26 14.26 0 007.12 4l-1.92 2.8a14.86 14.86 0 01-7-3.9 13.75 13.75 0 01-6 4.44zm31.7-6.06v2.86H136V9h11.8v3h-15.18V.38h15v3H136v1.28zm.74 9.1v3.14h-16.54v-3.14zM165.46.2v17.28H162V.2zm-5.26 13.38v3.14h-10v-10h5.8V3.54h-5.74V.38h9.16v9.5h-5.74v3.7zm17-13.2v8.84H168V.38zm-6 6.12h2.8V3.1h-2.82zm12-6.3v9.72h-3.42V.2zm-4.32 17.46h-6.22c-2.72 0-4.5-1.5-4.5-3.64s1.78-3.68 4.5-3.68h6.22c2.72 0 4.5 1.5 4.5 3.68s-1.72 3.64-4.44 3.64zm-6.22-2.82h6.22c.64 0 1-.36 1-.82a.89.89 0 00-.93-.87h-6.31c-.66 0-1 .38-1 .86s.42.83 1.08.83zM192.58 17l-3.2-1.44c2.48-4.6 3.16-9.68 3.16-15.14H196a49.7 49.7 0 01-.3 5.72 20.5 20.5 0 005.06 8.68l-2.6 2.12a19.17 19.17 0 01-3.52-5.08 24.41 24.41 0 01-2 5.14zM205.56.2v17.28h-3.42V9.22h-4.3V5.84h4.3V.2zm17.8 0v17.28h-3.42V.2zm-5.9.18v16.34h-9.34V.38h3.24v4.7h2.88V.38zm-6.1 13.2h2.88V8.24h-2.88zm30.54.14v3.18h-16.54v-3.18zm-14.64-3L225.18 8a10.27 10.27 0 007-8l3.66.56A11.74 11.74 0 01235 3.4a14.26 14.26 0 007.12 4l-1.92 2.8a14.86 14.86 0 01-7-3.9 13.75 13.75 0 01-6 4.44zm26.8-5.46a5.26 5.26 0 01-10.52 0 5.26 5.26 0 0110.52 0zm-3.26 0a2 2 0 10-4 0 2 2 0 104 .52 1.51 1.51 0 000-.52zm4.74 12.22V.2H259v17.28zm-12.38-.58v-3.14h11.5v3.14zm-136.77 23v-1.3h-8.2v1.28zm3.42-3.9v6.48h-15V36zM94 32.5h16.54v2.68H94zm11.66-.68h-6.75c-2.82 0-4.34-1.16-4.34-3.32 0-2 1.52-3.3 4.34-3.3h6.76c2.82 0 4.32 1.32 4.32 3.3.01 2.16-1.5 3.32-4.32 3.32zm-6.74-2.66h6.7c.56 0 .9-.22.9-.66s-.34-.66-.9-.66h-6.7c-.56 0-.9.24-.9.66s.35.66.91.66zM124.19 38h-3.46v-2.46h3.46V25.2h3.42v13.3h-3.42zm3.8 1.48v3H113v-4.8h3.42v1.78zM118.21 32h-1.7c-2.72 0-4.32-1.34-4.32-3.4s1.6-3.4 4.32-3.4h1.7c2.72 0 4.32 1.32 4.32 3.4s-1.6 3.4-4.32 3.4zm-1.7-2.54h1.7c.66 0 1.12-.28 1.12-.86s-.46-.86-1.12-.86h-1.7c-.66 0-1.12.28-1.12.86s.46.86 1.12.86zm6.52 3V35h-4.7v2.28h-3.42V35h-3.1v-2.5zm11.64-4.32v-2.8h9.4v2.8H141a8 8 0 01-.24 1.18 12.4 12.4 0 004.16 3.42L143 35.22a13.91 13.91 0 01-3.56-2.78 9.47 9.47 0 01-3.14 3.06l-2.34-2.1a7.63 7.63 0 003.68-5.22zm11 14.48h-6.38c-2.74 0-4.42-1.44-4.42-3.56s1.68-3.56 4.42-3.56h6.38c2.74 0 4.42 1.44 4.42 3.56s-1.68 3.6-4.42 3.6zm-6.38-2.82h6.38c.62 0 .94-.3.94-.74s-.32-.74-.94-.74h-6.38c-.62 0-.94.32-.94.74s.32.78.94.78zm10.62-14.6v10h-3.42v-3.72h-2.78V28.6h2.78v-3.4zm17.8 14.14v3.14h-14.86v-5.94h3.42v2.8zm1.68-9.88v3.34h-2.06v4.94h-3.42V25.2h3.42v4.26zm-14.1-4.26h3.42a18.13 18.13 0 01-.4 3.88 14 14 0 004.64 4.2l-2 2.5a15.52 15.52 0 01-3.84-3.2 9.55 9.55 0 01-3.11 3.48l-2.46-2.2c2.44-1.78 3.76-4.52 3.76-8.66zm29.16.18v9.32h-9.68v-9.32H178v2.12h3.3v-2.12zM178 32h3.3v-1.82H178zm13.72-3.4V32h-2.06v3.26h-3.42v-10h3.42v3.42zm-6.1 14h-6.2c-2.74 0-4.42-1.44-4.42-3.56s1.68-3.56 4.42-3.56h6.2c2.72 0 4.42 1.44 4.42 3.56s-1.73 3.62-4.45 3.62zm-6.2-2.82h6.2c.62 0 .94-.3.94-.74s-.32-.74-.94-.74h-6.2c-.62 0-.94.32-.94.74s.29.8.91.8zm28.39-14.58v10.28h-3.42V25.2zm0 11v6.46h-3.42v-3.38H193V36.2zm-12.42-11h3.42a17.11 17.11 0 01-.4 3.7 13.94 13.94 0 004.62 4l-2 2.48a15.86 15.86 0 01-3.86-3.16 9.82 9.82 0 01-3.06 3.44l-2.46-2.2c2.44-1.78 3.76-4.32 3.76-8.28zm28.82.18v16.34h-9.34V25.38h3.24v4.7H221v-4.7zm5.52 9.3v7.8h-3.42V25.2h3.42v6.1h2.06v3.38zm-11.62 3.9H221v-5.34h-2.88zm29.8-13.2v6.94h-11.62v1.36h11.8v2.9h-15.22V29.5h11.62v-1.2h-11.62v-2.92zm.74 13.38v3.14h-16.54v-3.14h6.36V37h3.74v1.76zm17.06 1.36v2.36h-14.86v-5.32h11.06v-.6h-11.06v-2.34h14.48v5.3h-11.06v.6zm1.68-12.24v3.32h-2.06v2.52h-3.42V25.2h3.42v2.68zm-14.1 1.64A1.6 1.6 0 10255 28h-.06a1.49 1.49 0 00-1.59 1.37.91.91 0 00-.06.15zm-3.38 0c0-2.54 2.08-4.32 5-4.32s5 1.78 5 4.32-2.06 4.32-5 4.32-5-1.78-5-4.32zm33.6-4.32v17.28h-3.42V25.2zm-15 .18h8.64V30a12.9 12.9 0 01-7.2 11.7l-2.38-2.4c3.88-1.88 6.16-5.2 6.16-8.94v-1.82h-5.22z" fill="#fed843"/><path id="패스_11244" data-name="패스 11244" class="cls-3" d="M81.22 63.16V77h-1.5v-6.93h-2.4v6.75h-1.5v-13.6h1.5v5.49h2.4v-5.55zM75 75v1.36h-5.51V63.45h5.13v1.36H71V75zm20.76-11.55v7.07H84v-7.07h1.5v2.11h8.72v-2.11zm.75 8.55v1.36h-5.85v3.75h-1.5v-3.73h-5.88V72zm-11-2.84h8.72v-2.24h-8.69zm24.62-5.73v6h-11.7v-6h1.5v1.74h8.72v-1.72zm-5 10.85h-1.5v-2.1h-5.95v-1.36h13.23v1.36h-5.79zm5.2 1.18v1.35h-11.9v-3.6h1.5v2.25zm-10.39-7.31h8.72V66.5h-8.72zm12.14 8.23V75h9.73v1.36zm10.83.6V63.16h1.5V77zm-2.25-9.92a4.07 4.07 0 11-3.91-3.9 4.07 4.07 0 013.91 3.9zm-1.5 0a2.56 2.56 0 10-2.56 2.56 2.56 2.56 0 002.56-2.56zm24.32 8v1.36h-13.24V75zm-12.32-3.81l-.92-1.12a9.23 9.23 0 006.13-6.93l1.49.29a8.51 8.51 0 01-.62 2 12.34 12.34 0 006.23 4l-.78 1.2a13.92 13.92 0 01-6.15-3.89 11.2 11.2 0 01-5.39 4.4zm15.74-6.4v2.4h10.22v1.36H146.9v2.48h10.38v1.36h-11.89v-9h11.73v1.36zm11 10.21v1.36h-13.26V75zm9.74 0v1.36h-8V69h5.41v-4.19h-5.41v-1.36h6.92v6.93h-5.41V75zm3.76-11.86V77h-1.5V63.16zm12.9 7.78v-7.82h1.5v7.78zm-1.81 6.19H178c-2.26 0-3.6-1.14-3.6-2.77s1.34-2.78 3.6-2.78h4.51c2.26 0 3.62 1.13 3.62 2.78s-1.37 2.77-3.63 2.77zM178 75.8h4.51c1.2 0 2-.56 2-1.44s-.84-1.46-2-1.46H178c-1.2 0-2 .56-2 1.46s.75 1.44 2 1.44zm3.17-12.35v6.62H174v-6.62zm-5.57 5.26h4.07v-3.9h-4.07zm18.7-5.41h1.5a32.77 32.77 0 01-.3 4.64 16.19 16.19 0 004.13 7.41l-1.1 1a16.49 16.49 0 01-3.53-5.56 21.37 21.37 0 01-2.2 5.77l-1.34-.7a25.37 25.37 0 002.84-12.56zm8.13-.14h1.5V77h-1.5v-7h-4.37v-1.32h4.37zm15.9 0V77h-1.5V63.16zm-4.81.28v12.94h-6.92V63.45h1.5V68h3.9v-4.55zM208.11 75H212v-5.68h-3.9zm25.52 0v1.36H220.4V75zm-12.32-3.8l-.91-1.12a9.2 9.2 0 006.12-6.92l1.49.28a8.13 8.13 0 01-.61 2 12.34 12.34 0 006.23 4l-.79 1.2a14 14 0 01-6.14-3.89 11.2 11.2 0 01-5.39 4.4zm13.49-1.13H248v1.36h-13.2zm12.64 5.41v1.34h-11.89v-4.19h1.5v2.85zm-11.89-7.25V63.3h1.5v3.62h10.39v1.31zm20.11-4.93h1.5a32.77 32.77 0 01-.3 4.64 16.19 16.19 0 004.14 7.41l-1.1 1a16.49 16.49 0 01-3.53-5.58 21.37 21.37 0 01-2.2 5.77l-1.34-.7a25.37 25.37 0 002.83-12.54zm7.83-.14H265v5.52h1.95V70H265v7h-1.5zm12.45 5.1H272v1.38h3.9zm-5.41-.06c-1.71-.2-2.53-1.09-2.53-2.5s1.2-2.54 3.6-2.54h4.81c2.42 0 3.62 1 3.62 2.54s-.85 2.26-2.56 2.5v1.44h3.15V71h-13.26v-1.36h3.17zm1-1.25h4.81c1.5 0 2-.5 2-1.25s-.53-1.23-2-1.23h-4.81c-1.35 0-2 .48-2 1.23s.53 1.3 2.04 1.3zm4.81 10.18h-4.81c-2.4 0-3.6-1-3.6-2.55s1.2-2.56 3.6-2.56h4.81c2.42 0 3.62 1 3.62 2.56s-1.16 2.55-3.58 2.55zm-4.81-1.33h4.81c1.5 0 2-.48 2-1.22s-.53-1.23-2-1.23h-4.81c-1.35 0-2 .48-2 1.23s.53 1.22 2.04 1.22zm10.8-11v-1.35h7.34v1.36h-3.13a26.76 26.76 0 01-.34 3.89 15.24 15.24 0 004.3 6.75l-1.13.93a17.12 17.12 0 01-3.7-5.26 17 17 0 01-2.59 5.45l-1.36-.7c2.43-3.28 3.24-6.9 3.31-11.05zm9.92-1.65h1.5v5.52h1.95V70h-1.95v7h-1.5zm3.87 13.22V75h9.73v1.36zM307 77V63.16h1.5V77zm-2.25-9.92a4.07 4.07 0 11-3.91-3.9 4.07 4.07 0 013.9 3.88zm-1.5 0a2.56 2.56 0 00-5.12 0 2.56 2.56 0 105.12 0zM50.48 96.68H49v-5.87H38.75v-1.36h11.73zm.75 1v1.36h-5.85v4h-1.5v-4H38v-1.32zm1.92-3.63v-4.6h11.73v1.33H54.66v2H65v1.33h-5.3v1.7h5.93v1.34H52.4v-1.37h5.79v-1.7zm0 5.87v-1.29h11.73v4.5h-1.5V100zm26.29-3.62v1.36H67.55v-4.82h10.23v-2H67.55v-1.39h11.73v4.75H69.06v2.1zM80 101v1.36H66.8V101h3v-2.67h1.5V101h4.21v-2.67H77V101zm13.8.51v1.3H82V99.5h10.18v-.7H82v-1.3h11.68v3.28H83.46v.75zm-12.6-6.04h13.23v1.31H81.2zm12.64-2v1.3H82v-3.3h10.18v-.72H82v-1.3h11.68v3.3H83.46v.72zm6.28 5.61v-2a3.54 3.54 0 017.07 0v2a3.54 3.54 0 01-7.07 0zm11.28-3v7h-1.5V89.16h1.5v5.52h1.94V96zm-9.78 1.1v2a2 2 0 104.06.13.28.28 0 000-.13v-2a2 2 0 00-4.06-.18zm6-5h-8v-1.37h3.2V88.7h1.5v2.11h3.27zm6.73 10.21V89.45h1.5V101h6.91v1.36zM125.8 96v7h-1.5V89.16h1.5v5.52h1.94V96zm2.36 6.36V101h9.73v1.36zM139 103V89.16h1.5V103zm-2.26-9.92a4.07 4.07 0 11-4.23-3.89h.17a3.83 3.83 0 014 3.59v.31zm-1.5 0a2.56 2.56 0 10-2.56 2.56 2.44 2.44 0 002.55-2.34.81.81 0 000-.22zm23.57 2.7h-1.5V94.2h-10.24v-1.34h10.23v-2h-10.23v-1.41h11.73zm.16 5.72v1.34h-11.9v-3.76h1.5v2.4zm-12.64-5h13.23v1.36h-13.24zm25.53-7.08v12.94h-6.76V89.45h1.5V94h3.76v-4.55zm4.66 6.58v7H175V89.16h1.5v5.52h1.95V96zm-9.92 5h3.76v-5.7h-3.76zm24.77-4.33h-1.5v-5.86h-10.24v-1.36h11.73zm.75 1v1.36h-5.86v4h-1.5v-4h-5.87v-1.31zm13.5-8.56V103h-1.5V89.16zm-11.73 13.22V89.45h1.5V101h7.21v1.36zM220 103h-1.5V89.16h1.5zm-10.37-10.69v7.22c0 1.2.53 1.65 1.28 1.65s1.28-.45 1.28-1.65v-7.22c0-1.2-.53-1.65-1.28-1.65s-1.28.45-1.28 1.65zm-1.5 7.22v-7.22a2.79 2.79 0 015.57-.42 2.94 2.94 0 010 .42v2.4h1.73v-5.49h1.5v13.6h-1.5v-6.75h-1.73v3.46a2.79 2.79 0 01-5.57.39 2.54 2.54 0 010-.39zm29.75-2v5.24h-11.12v-5.19zm-9.62 3.92h8.11V98.9h-8.11zm11.57-9.33v1.34h-2v3.43h-1.5v-7.73h1.5v3zm-5 2.54v1.36h-8.43v-6.57h7.6v1.36h-6v3.9zm18 6.77v1.34H241v-3.6h1.5v2.26zm-12.64-5h13.24v1.36h-13.19zm8.88-1.34h-4.51c-2.41 0-3.76-1.06-3.76-3s1.35-3 3.76-3h4.51c2.4 0 3.76 1.2 3.76 3s-1.36 3-3.76 3zm-4.51-1.36h4.51c1.5 0 2.1-.68 2.1-1.65s-.59-1.67-2.1-1.67h-4.51c-1.36 0-2.11.69-2.11 1.67s.6 1.65 2.11 1.65zm22.51 3.76h-4.2c-2.1 0-3.76-.76-3.76-2.63s1.66-2.64 3.76-2.64h4.2c2.12 0 3.76.75 3.76 2.64s-1.65 2.63-3.76 2.63zm4.52 1V100h-5.86v3.15h-1.5V100h-5.87v-1.37zm-8.72-2.41h4.2c1.5 0 2.2-.52 2.2-1.27s-.69-1.28-2.2-1.28h-4.2c-1.5 0-2.18.53-2.18 1.28s.67 1.27 2.17 1.27zm8.12-4.8H259v-1.22h5.15V88.7h1.58v1.36H271zm1.64 12.32l-.45-.61a2 2 0 00.9-1.95v-.74h1.71v.74a2.56 2.56 0 01-2.17 2.56zm8-14.29h5.85v1.36h-2.25a34.65 34.65 0 01-.21 3.53 19.77 19.77 0 003.26 6.87l-1.23.86a21.19 21.19 0 01-2.53-4.86 18.63 18.63 0 01-2.12 5.36l-1.38-.59c2-3.28 2.67-6.8 2.7-11.17h-2.1zm11.73-.29V103h-1.5v-6.93h-1.76v6.75h-1.5v-13.6h1.5v5.49h1.81v-5.55zm14.4 0v7.89h-1.5v-3.24h-1.76v3.38h-1.47v-7.83h1.47v3.09h1.76v-3.15zm-3.32 14H299c-2.25 0-3.6-1.14-3.6-2.77s1.35-2.78 3.6-2.78h4.51c2.26 0 3.62 1.13 3.62 2.78s-1.37 2.88-3.63 2.88zM299 101.8h4.51c1.2 0 2-.56 2-1.44s-.84-1.46-2-1.46H299c-1.2 0-2 .56-2 1.46s.79 1.44 2 1.44zm-2.1-12.64h1.5a16.11 16.11 0 01-.24 2.77 9.68 9.68 0 003.36 3.6l-1 1.12a13.66 13.66 0 01-2.88-3 9.07 9.07 0 01-2.05 3.44l-1.32-.81c1.91-1.79 2.6-4.31 2.6-7.17zm28.4 12.42l-.61 1.24a11.33 11.33 0 01-5.55-2.3 7.93 7.93 0 01-5.18 2.3l-.7-1.21c2.56-.24 4.75-1.27 5.6-3.31l1.44.41a6.43 6.43 0 01-.39.79 10.82 10.82 0 005.4 2.08zm-1.82-12.42H325v9.73h-1.5zm-7.12 2.42H318c1.65 0 2.8.81 2.8 2.11s-1.15 2.1-2.8 2.1h-.13v.9h4.47V98h-9.73v-1.32h3.76v-.9c-1.65 0-2.8-.82-2.8-2.1s1.13-2.1 2.78-2.1zm0 2.94H318c.85 0 1.3-.34 1.3-.83s-.45-.88-1.3-.88h-1.68c-.85 0-1.3.38-1.3.88s.48.83 1.33.83zm.08-4.77v-1h1.5v1.06h3.6v1.31h-8.59v-1.37zm11.35 5.65l-.79-1.2a7.77 7.77 0 006.13-5l1.49.29a7.41 7.41 0 01-.5 1.2 12.29 12.29 0 006.11 3l-.67 1.23a13.4 13.4 0 01-6.16-3.07 9.62 9.62 0 01-5.62 3.55zm12.5 1.73v1.34h-5.86v4.66h-1.5v-4.66H327v-1.34zm-260.82 18V129H78v-13.84zm-4.82.29v12.93h-6.92v-12.9h1.5V120h3.9v-4.51zM69.23 127h3.9v-5.7h-3.9zM94 115.45v1.36h-4.61a6.12 6.12 0 01-.5.64 12.14 12.14 0 005.57 2l-.77 1.2a12.78 12.78 0 01-5.69-2.27 10.77 10.77 0 01-5.36 2.48l-.77-1.19a9.83 9.83 0 005.71-2.86h-5.31v-1.36zm-3.46 13.68h-4.81c-2.32 0-3.6-1-3.6-2.47s1.28-2.48 3.6-2.48h1.58v-1.28h-5.79v-1.34h13.23v1.34h-5.93v1.28h1.72c2.34 0 3.62 1 3.62 2.48s-1.28 2.47-3.62 2.47zm-4.81-1.33h4.81c1.5 0 2-.48 2-1.14s-.53-1.16-2-1.16h-4.81c-1.35 0-2 .48-2 1.16s.49 1.14 2 1.14zm22.53 1.2h-1.5v-13.84h1.5zm-10.39-10.69v7.22c0 1.2.53 1.65 1.28 1.65s1.28-.45 1.28-1.65v-7.22c0-1.2-.53-1.65-1.28-1.65s-1.28.45-1.28 1.65zm-1.5 7.22v-7.22a2.79 2.79 0 015.57-.42 2.94 2.94 0 010 .42v2.4h1.72v-5.49h1.5v13.6h-1.5v-6.75h-1.72v3.46a2.79 2.79 0 11-5.57.39 2.54 2.54 0 010-.39zm27.45 1.47v1.36h-4.56v-12.91h4.2v1.36h-2.69V127zm-5.15 0v1.36h-4v-12.91h4v1.36h-2.48V127zm7.6-5v7h-1.5v-13.84h1.5v5.52h1.79V122zm10.64 5v1.36h-7.82V121h5.26v-4.21h-5.26v-1.36h6.77v6.93h-5.27V127zm3.6-5v7H139v-13.84h1.5v5.52h2V122zm5.07-6.72h1.5a32.58 32.58 0 01-.3 4.64 16.09 16.09 0 004.13 7.41l-1.1 1a16.63 16.63 0 01-3.53-5.59 21.43 21.43 0 01-2.2 5.78l-1.34-.7a25.43 25.43 0 002.84-12.57zm8.13-.14h1.5V129h-1.5v-7h-4.37v-1.34h4.37zm7.78 9v-4.51c0-2.94 1.5-4.37 3.7-4.37s3.68 1.43 3.68 4.37v4.51c0 2.92-1.5 4.34-3.68 4.34s-3.7-1.38-3.7-4.3zm1.5-4.51v4.51c0 2.1.75 3 2.19 3s2.18-.9 2.18-3v-4.51c0-2.11-.76-3-2.18-3s-2.19.9-2.19 3zm10.08 2.37v7h-1.5v-13.84h1.5v5.52h2V122zm10.8 6.36H176v-12.91h7v1.36h-5.41v4.06H183v1.35h-5.41V127h6.32zm3.9-13.22V129h-1.5v-13.84zm15.3 11.86v1.36h-13.23V127zm-12.32-3.81l-.91-1.12a9.23 9.23 0 006.12-6.93l1.49.29a8.05 8.05 0 01-.61 2 12.34 12.34 0 006.23 4l-.79 1.2a14 14 0 01-6.14-3.89 11.2 11.2 0 01-5.39 4.4zm15.74-6.4v2.4h10.23v1.36H206.5v2.48h10.38v1.36H205v-9h11.73v1.36zm11 10.21v1.36h-13.25V127zm13.5 2h-1.5v-13.84H231zm-10.38-10.67v7.22c0 1.2.53 1.65 1.28 1.65s1.28-.45 1.28-1.65v-7.22c0-1.2-.53-1.65-1.28-1.65s-1.3.43-1.3 1.63zm-1.5 7.22v-7.22a2.79 2.79 0 015.57-.42 2.94 2.94 0 010 .42v2.4h1.73v-5.49h1.5v13.6h-1.5v-6.75h-1.73v3.46a2.79 2.79 0 01-5.57.39 2.54 2.54 0 01-.02-.41zm14.55-10.08h4.82v3.23a12.14 12.14 0 01-4.11 9.71l-1.35-.83a10.6 10.6 0 004-8.74v-2h-3.32zm8.5-.23v13.6h-1.5v-6.75h-1.88v-1.36h1.88v-5.49zm3.22 13.76h-1.5v-13.84h1.5zm11.7-13.53v12.93h-5.27v-12.95h1.5v4.81h2.26v-4.81zM253.32 127h2.25v-5.4h-2.25zm10.22-11.86V129H262v-6.91h-1.82v6.75h-1.5v-13.6h1.5v5.49H262v-5.55zm14.54.29v6h-11.73v-6h1.5v1.74h8.72v-1.74zm-5 10.85h-1.5v-2.12h-5.93v-1.36h13.23v1.36H273zm5.2 1.18v1.35h-11.93v-3.6h1.5v2.25zm-10.38-7.32h8.72v-1.64h-8.72zm18.46 2.52v3a2.86 2.86 0 11-5.71 0v-3a2.86 2.86 0 115.71 0zm-1.5 3v-3c0-.91-.44-1.5-1.36-1.5s-1.34.59-1.34 1.5v3c0 .9.45 1.49 1.34 1.49a1.3 1.3 0 001.36-1.49zm7.52-10.53V129h-1.5v-6.91H289v6.75h-1.5v-13.6h1.5v5.49h1.81v-5.55zm-5.7 1.65v1.36h-6.38v-1.36h2.4v-2.08h1.5v2.11zm16.2 5.87h-3.62c-2.56 0-4.37-1.5-4.37-3.76s1.81-3.76 4.37-3.76h3.62c2.54 0 4.35 1.5 4.35 3.76s-1.81 3.76-4.36 3.76zm-3.62-1.36h3.62a2.43 2.43 0 100-4.82h-3.62a2.44 2.44 0 00-.7 4.82 2.73 2.73 0 00.66.03zm8.42 5.7v1.36H294.4V127h3v-3.44h1.5V127h4.21v-3.44h1.5V127zm3.3 1.22h-1.81v-1.8h1.81zm-195.1 46.7v-7.78h1.5v7.78zm-7.52-7.78h1.5a10.83 10.83 0 01-.26 2.34 11.16 11.16 0 004 3.79l-.93 1.15a13.65 13.65 0 01-3.66-3.28 8.47 8.47 0 01-3 3.68l-1.16-1a7.42 7.42 0 003.49-6.66zm-2.26 13.66v-5.24h11.28v5.24zm9.78-1.32v-2.6h-8.28v2.6zm16.2 0v1.32h-11.93v-3.53h10.23v-.87h-10.23v-1.29h11.73v3.52h-10.22v.88zm-12.64-6.63h13.24v1.35H119.4zm12.48-5.42v1.34h-11.77v-1.34zm-8 3.21h4l.37-1.47h1.54l-.37 1.47H132V172h-12v-1.3h2.4v-1.47h1.5zm10.64 6.42v-2a3.54 3.54 0 017.07 0v2a3.54 3.54 0 01-7.07 0zm11.28-3.05v7h-1.5v-13.84h1.5v5.52h1.95V174zm-9.78 1.1v2a2 2 0 104.06.12.24.24 0 000-.12v-2a2 2 0 00-4.06-.18zm6-5h-8v-1.3h3.2v-2.1h1.5v2.11h3.27zm15.15 10.21h-8.42v-12.86h7.52v1.36h-6V179h6.91zm3-6.35v7h-1.5v-13.8h1.5v5.52h1.95V174zm2.36 0h13.24v1.36H162.6zm12.64 5.41v1.34h-11.86v-4.19h1.5v2.85zm-11.88-7.25v-4.82h1.5v3.62h10.38v1.31zm18.67 3.16l-1.19-1a6.77 6.77 0 003.44-5.52h-2.83v-1.36h7.35v1.36h-3a9.79 9.79 0 01-.2 1.44 10.7 10.7 0 003.92 3.52l-1 1.12a12.58 12.58 0 01-3.52-3 8.24 8.24 0 01-3 3.43zm12.8-4.83v1.36h-2v3.71h-1.5v-8.36h1.5v3.3zm-5.11 10.68H185c-2.25 0-3.45-1.14-3.45-2.63s1.2-2.62 3.45-2.62h4.67c2.26 0 3.46 1.12 3.46 2.62s-1.23 2.63-3.49 2.63zM185 179.8h4.67c1.2 0 1.88-.48 1.88-1.3s-.68-1.3-1.88-1.3H185c-1.2 0-1.87.48-1.87 1.3s.67 1.3 1.87 1.3zm11.38-4.51l-1.19-1a6.8 6.8 0 003.44-5.52h-2.83v-1.36h7.35v1.36h-3a10.17 10.17 0 01-.2 1.44 10.7 10.7 0 003.92 3.52l-1 1.12a12.62 12.62 0 01-3.52-3 8.25 8.25 0 01-3 3.43zm11.15.59v4.94h-11.31v-4.94zm-9.78 3.62H206v-2.29h-8.28zm8.25-12.34h1.5v8.22H206v-3.71h-3.16v-1.36H206zm16.2 12.32v1.34h-11.89v-3.6h1.5v2.26zm-12.64-5h13.24v1.36h-13.24zm8.88-1.34h-4.51c-2.41 0-3.76-1.06-3.76-3s1.35-3 3.76-3h4.51c2.4 0 3.76 1.2 3.76 3s-1.36 3.04-3.76 3.04zm-4.51-1.36h4.51c1.5 0 2.1-.68 2.1-1.65s-.59-1.67-2.1-1.67h-4.51c-1.36 0-2.11.69-2.11 1.67s.6 1.65 2.11 1.65zm26.13-4.66v7.78h-1.5v-7.78zM229 180.82l-1.12-1a6.17 6.17 0 003.59-4.66l1.42.21a6.55 6.55 0 01-.41 1.68 7.84 7.84 0 002.06 2.08 6.09 6.09 0 002.18-4l1.44.21a5.39 5.39 0 01-.42 1.77 12.43 12.43 0 003.31 2.45l-.86 1.17a15.77 15.77 0 01-3.1-2.34 8.34 8.34 0 01-2.48 2.47 10.44 10.44 0 01-2.85-2.53 7.68 7.68 0 01-2.76 2.46zm.55-10.12a2.19 2.19 0 004.37 0 2.2 2.2 0 00-2.2-2.18 2.1 2.1 0 00-2.17 2 .61.61 0 000 .19zm-1.5 0a3.69 3.69 0 113.86 3.51h-.18a3.5 3.5 0 01-3.73-3.31v-.2zm14.7-1.89v-1.36h7.34v1.36h-3.13a26.76 26.76 0 01-.34 3.89 15.21 15.21 0 004.3 6.75l-1.14.93a17.33 17.33 0 01-3.7-5.27 16.63 16.63 0 01-2.59 5.46l-1.36-.7c2.43-3.28 3.25-6.9 3.31-11.06zm10.25-1.65h1.5V181H253zm17.55 4.14v1.36h-1.95v4.94h-1.5v-10.44h1.5v4.14zm-1.64 8.18v1.34h-11.48v-4.35h1.5v3zm-4.66-12v7.38h-7.07v-7.38zm-5.57 6h4.07v-4.68h-4.07zm12.16 8.27l-.45-.61a2 2 0 00.9-2v-.73H273v.73a2.56 2.56 0 01-2.18 2.57z"/><path id="패스_11245" data-name="패스 11245" class="cls-3" d="M70 195v2h-1.77v4.43H66.1v-10.27h2.13V195zm-1.5 8v1.93H56.87v-4.54H59V203zm-3.6-5.79V199h-8.33v-7.59h7.52v1.83H58.7v4zm10.74-4a9.58 9.58 0 01-.22 1.19 10.33 10.33 0 003.64 3.12L77.82 199a12 12 0 01-3.18-2.62 8.13 8.13 0 01-2.75 2.93L70.36 198a6.45 6.45 0 003.22-4.83H71v-1.81h7.42v1.81zm7.26 6.58v5.13H71.42v-5.13zm-9.38 3.37h7.27v-1.61h-7.25zm9.38-12v8.19h-2.09v-3.42h-2.69v-1.83h2.69v-2.94zM97.54 203v1.87h-12V201h2.13v2zm-12.7-4.81h13.23v1.84H84.84zm9-1h-4.71c-2.4 0-3.76-1.15-3.76-3s1.36-3 3.76-3h4.65c2.42 0 3.76 1.3 3.76 3s-1.34 3-3.76 3zm-4.65-1.77h4.63c1 0 1.57-.51 1.57-1.25s-.57-1.17-1.62-1.17h-4.63c-1 0-1.56.51-1.56 1.25s.51 1.2 1.56 1.2zm26.34-4.29V205h-2.11v-6.59h-1.5v6.43h-2.1v-13.6h2.1v5.24h1.5v-5.3zm-12 13.22v-13h2.13v11.06h3.26v1.94zm14.48-13h6.69v3.35a10.67 10.67 0 01-5.92 9.66l-1.46-1.53a8.68 8.68 0 005.25-7.84v-1.7H118zm11.58 7V205h-2.13v-13.84h2.13v5.2h1.79v2zm18.41-7.19V201h-2v-4.66h-1.3v4.44h-2v-9.56h2v3.27h1.3v-3.33zm.23 11.81v1.93h-11.69v-4.43h2.12V203zm-6.35-5.84v1.92h-5.83v-7.67h2.11v5.75zm24.36 1.47h-2.13v-5.26h-9.76v-2h11.89zm.67.9v2h-5.49v3.66h-2.25v-3.67h-5.49v-2zm1.84-3.14v-5h11.89v1.73h-9.76v1.52h9.84v1.73h-5v1.33h5.6v1.74h-13.2v-1.74h5.5v-1.33zm0 5.9v-1.74h11.89v4.61h-2.13v-2.87zm26.43-4.2v1.84h-12v-5.19H193v-1.5h-9.76v-1.83h11.89v5.1h-9.76v1.58zm.53 4.46v1.94h-13.19v-1.94h2.77v-2.14h2.13v2.14h3.45v-2.14H193v2.14zm1.78-11.14h6.69v3.35a10.67 10.67 0 01-5.92 9.66l-1.46-1.53a8.64 8.64 0 005.25-7.84v-1.7h-4.56zm11.58 7V205H207v-13.84h2.13v5.2h1.79v2zm18.49 4.62v1.93h-11.65v-4.4H218V203zm1.5-8v2h-1.79v4.5h-2.13v-10.34h2.13V195zm-6.06-3.62v7.9h-7.4v-7.9h2v2.23h3.4v-2.23zm-5.36 6.13H221v-2.14h-3.35zm14.64-.27h9.9v2h-12v-7.83H242v2h-9.76zm10.43 5.26v1.95h-13.23v-1.95zm2.9 2.06l-2-.92a25.15 25.15 0 002.68-12.34h2.13a38.21 38.21 0 01-.27 4.66 16.11 16.11 0 004.08 7.13l-1.6 1.36a15.94 15.94 0 01-3.17-4.78 21.17 21.17 0 01-1.9 4.9zm10.75-13.4V205h-2.12v-13.84zm18.16 0V205h-2.11v-6.59h-1.5v6.43h-2.1v-13.6h2.1v5.24h1.5v-5.3zm-11.95 13.22v-13h2.13v11.06h3.3v1.94zm14.47-13h6.69v3.35a10.67 10.67 0 01-5.92 9.66l-1.45-1.53a8.65 8.65 0 005.24-7.86v-1.7H277zm11.59 7V205h-2.13v-13.84h2.13v5.2h1.79v2zm18.61-2.09h-12v-4.92h11.89v1.7h-9.73v1.52h9.84zm-12.64 1h13.23V199H294.6zm2.8 5.92h9.9v1.68h-12v-4.83h11.89v1.68h-9.79zm11.6-5.41h13.23v1.88H309zm12.7 5.2v1.94h-12v-4.25h2.13V203zm-12-6.56v-5.18h2.13v3.32h9.87v1.87zM63.48 226.33v-4.88c0-2.74 1.5-4.23 3.78-4.23s3.8 1.49 3.8 4.23v4.88c0 2.72-1.5 4.19-3.8 4.19s-3.78-1.47-3.78-4.19zm2-4.88v4.88c0 1.55.63 2.27 1.75 2.27s1.76-.72 1.76-2.27v-4.88c0-1.54-.63-2.27-1.76-2.27s-1.72.73-1.72 2.27zm9.78 2.94V231h-2.1v-13.84h2.13v5.2h1.79v2zm10.64 6H78v-13h7.11v1.94h-5v3.31h5v1.94h-5v3.89h5.78zm4-13.22V231h-2.04v-13.84zm15.15 11.34v1.95H91.9v-1.96zm-12-3.1l-1.3-1.65a8.67 8.67 0 005.86-6.67l2.21.37a8.8 8.8 0 01-.64 2.14 11.8 11.8 0 006 3.62l-1.14 1.71a12.76 12.76 0 01-5.86-3.49 11.07 11.07 0 01-5.07 3.96zm16-6.16V221h9.76v1.82h-9.71v1.84h9.9v1.86h-12v-9.1h11.89v1.85zm10.43 9.28v1.94H106.3v-1.94zm13.7 2.47h-2v-13.84h2zm-10.12-10.7v7.3c0 .75.36 1.1.9 1.1s.9-.35.9-1.1v-7.3c0-.75-.33-1.1-.9-1.1s-.9.33-.9 1.08zm-2 7.3v-7.3a2.9 2.9 0 115.79-.3 1.5 1.5 0 010 .3v2.16h1.22v-5.22h2v13.6h-2v-6.44h-1.22v3.2a2.9 2.9 0 01-5.79.3 1.5 1.5 0 010-.3zm14.54-10.2h5v5.06h1.62v-5.22h2.06v13.6h-2.08v-6.44h-1.89a10.64 10.64 0 01-3.57 6.06l-1.74-1.2a9.57 9.57 0 003.54-7.86v-2.06h-2.92zm12 13.6h-2.12v-13.84h2.12zm9.66-13.6v7.6H150v-7.59zm-5.18 5.83h3.15v-4h-3.15zM162 229v1.93h-11.67v-4.54h2.11V229zm1.5-8v2h-1.8v4.43h-2.12v-10.27h2.12V221zm4.78-3.57H175v3.35a10.67 10.67 0 01-5.92 9.66l-1.46-1.53a8.66 8.66 0 005.25-7.84v-1.7h-4.56zm11.58 7V231h-2.12v-13.84h2.12v5.2h1.8v2zm2.74-7h7.68v1.94h-3a26.75 26.75 0 01-.28 3.46 15.58 15.58 0 004.11 6.33l-1.63 1.35a17.16 17.16 0 01-3.22-4.52 16.18 16.18 0 01-2.35 4.63l-1.89-1a16.56 16.56 0 003.15-10.22h-2.55zm11.95-.22V231h-2.11v-13.84zm15.75 6.74v-6.74h2.13v2.51h1.79v2h-1.79v2.23zm-9.24 7v-6h2.12V229h2.62v1.9zm9.14-2.24h-1.6c-.36 0-.61.14-.61.42s.25.43.61.43h1.58c.35 0 .61-.16.61-.43s-.25-.42-.61-.42zm-1.63-1.54h1.66c1.44 0 2.43.76 2.43 2s-1 2-2.43 2h-1.66c-1.43 0-2.43-.75-2.43-2s1-2 2.43-2zm-6.08-6.51a1.6 1.6 0 001.51 1.67h.17a1.67 1.67 0 00.11-3.33h-.11a1.59 1.59 0 00-1.68 1.5v.17zm-2.1 0a3.81 3.81 0 114.14 3.44h-.37a3.5 3.5 0 01-3.75-3.24 1.48 1.48 0 010-.21zm7.93 4.47V224h2.12v1.09h2.5v1.6h-7.06v-1.6zm9.88-4.92h6c.56 0 1-.25 1-.7s-.42-.67-1-.67h-6c-.56 0-.91.24-.91.67s.35.71.91.71zm0-3h6c1.89 0 3.15.8 3.15 2.3s-1.26 2.32-3.15 2.32h-6c-1.9 0-3-.82-3-2.32s1.1-2.3 3-2.3zm9.17 12.16v1.58h-12V227h9.76v-.7h-9.76v-1.59h11.89v3.87h-9.76v.74zm-12.7-6.93h13.23V224h-13.28zm19.12 1.15l-1-1.73a7.44 7.44 0 005.92-4.73l2.19.44a8.22 8.22 0 01-.48 1.19 11.9 11.9 0 005.76 2.67c-.33.58-.65 1.18-1 1.78a13.39 13.39 0 01-5.89-2.82 9.72 9.72 0 01-5.48 3.2zM246 225v2h-5.48v4.13h-2.26V227h-5.48v-1.95zm17.41-7.89v7.78h-2.11v-7.77zm-11 13.75l-1.5-1.39a5.58 5.58 0 003.38-4.35l2 .28a5.45 5.45 0 01-.39 1.59 5.4 5.4 0 001.73 1.7 5.49 5.49 0 001.88-3.57l2 .29a6.08 6.08 0 01-.4 1.63 11.41 11.41 0 003.15 2.21l-1.17 1.55a14.46 14.46 0 01-2.91-2.06 7.51 7.51 0 01-2.53 2.19 8.59 8.59 0 01-2.72-2.26 7.37 7.37 0 01-2.51 2.23zm.77-10.14A1.77 1.77 0 10255 219a1.72 1.72 0 00-1.76 1.66v.15zm-2.1 0a3.88 3.88 0 114.14 3.6H255a3.62 3.62 0 01-3.9-3.32v-.25zm23 9.61h-8.27v-13h7.49v1.94H268v9.14h6.15zm3.39-6V231h-2.07v-13.84h2.12v5.2h1.8v2zm2.21-.59H293v1.88h-13.26zm12.7 5.16v1.94h-12v-4.25h2.13V229zm-12-6.56v-5.18h2.13v3.32h9.87v1.87zm22.7-3.21a7.88 7.88 0 01-.21 1.18 10.1 10.1 0 003.63 3.12l-1.24 1.57a11.89 11.89 0 01-3.17-2.61 8.13 8.13 0 01-2.75 2.93L297.8 224a6.43 6.43 0 003.22-4.83h-2.6v-1.81h7.42v1.81zm7.26 6.57v5.14h-11.5v-5.13zm-9.34 3.44h7.26v-1.61H301zm9.37-12v8.19h-2.1v-3.42h-2.68v-1.81h2.68v-2.94zm2.3-.23h2.12v9.7h-2.12zm2.28 13.81h-2.45v-2.38h2.44z"/></g><path fill="none" d="M0 0h375v234H0z"/></g></g></svg>