<svg xmlns="http://www.w3.org/2000/svg" width="460" height="16"><g data-name="Layer 2"><g data-name="Layer 1"><g data-name="8 tit"><path data-name="패스 11542" d="M99.62 15h-1.86V.69h1.86zm-10.39-4.5a6.23 6.23 0 01-1-3.68 6.28 6.28 0 011-3.7 3.28 3.28 0 014.59-.81 3.12 3.12 0 01.81.81 6.28 6.28 0 011 3.7 6.28 6.28 0 01-1 3.67 3.32 3.32 0 01-4.62.79 3.4 3.4 0 01-.78-.83zm4.6-3.68a5.54 5.54 0 00-.53-2.63 1.56 1.56 0 00-1.38-1 1.51 1.51 0 00-1.33 1 5.42 5.42 0 00-.52 2.63 5.36 5.36 0 00.52 2.61 1.54 1.54 0 001.33 1 1.58 1.58 0 001.38-1 5.46 5.46 0 00.53-2.61zm13.72 2h-5.77v-7h1.89v2.1h2V1.75h1.87v2.63h1.28V1h1.78v9.92h-1.78v-5h-1.28zm6.2 5.85h-10.07V10h1.86v3.09h8.21zm-.36-3.34h-1.77V.69h1.77zm-7.71-4V5.32h-2v1.95zm20-.9h-7.42v1.48h7.9v1.47h-9.76V1.81h9.6v1.47h-7.76v1.6h7.43zm1.95 5.32v1.48h-12.91v-1.55zM143.76 15h-1.87V.69h1.87zm-4.38-12.82a11.32 11.32 0 01-6.38 10.2L131.86 11a9.74 9.74 0 003.81-3.07 8.23 8.23 0 001.7-4.16h-4.64V2.18zm19.21 4.12h-2V11h-1.89V.69h1.89v4.07h2zm-6-4.52a7.18 7.18 0 01-1.83 4.94 9.13 9.13 0 01-4.6 2.7l-.93-1.49a7.45 7.45 0 003.46-1.58 4.94 4.94 0 001.88-3h-4.62V1.78zm4.33 12.76h-9.52v-4.6h1.89V13h7.63zm6.48-8V4.6h2v1.88zm0 5.79v-1.9h2v1.89zm7.41.75v-1.2l2.1-2.21A22.82 22.82 0 00175 7.23a3.34 3.34 0 00.67-1.9 1.73 1.73 0 00-.52-1.41 2.45 2.45 0 00-1.59-.43 4.52 4.52 0 00-2.28.73l-.32-1.45a6 6 0 013.12-.83 4 4 0 012.7.81 3 3 0 01.93 2.32 3.92 3.92 0 01-.25 1.39 5.31 5.31 0 01-.77 1.4c-.35.48-.66.86-.92 1.16s-.62.67-1.07 1.14l-1.3 1.33h4.4V13zm12.45.19a4 4 0 01-3.09-1.3A5.8 5.8 0 01179 8v-.73a8 8 0 01.35-2.48 4.22 4.22 0 01.95-1.67 4 4 0 011.35-.9 4.51 4.51 0 011.63-.28 3.91 3.91 0 013 1.28 5.75 5.75 0 011.18 4v.68a5.8 5.8 0 01-1.18 4 4 4 0 01-3.06 1.3zm0-1.5a1.81 1.81 0 001.66-.87 5.46 5.46 0 00.54-2.9v-.78c0-2.51-.73-3.76-2.19-3.76a1.83 1.83 0 00-1.68.87 5.35 5.35 0 00-.59 2.78V8c0 2.5.74 3.76 2.21 3.76zM188.9 13v-1.12l2.1-2.21a24 24 0 002.06-2.44 3.27 3.27 0 00.67-1.9 1.73 1.73 0 00-.52-1.41 2.42 2.42 0 00-1.59-.43 4.38 4.38 0 00-2.27.74L189 2.77a6.08 6.08 0 013.12-.83 3.93 3.93 0 012.7.82 2.88 2.88 0 01.92 2.32 4 4 0 01-.24 1.38 5.4 5.4 0 01-.78 1.41c-.35.47-.66.86-.92 1.15s-.62.67-1.06 1.14l-1.3 1.33h4.4V13zm9.77.06v-9l-1.84.37V3.28L199.62 2h1v11.09zm15.72 1.46h-9.68v-4.28h1.85v2.84h7.83zM210 7.17l.23 1.5a26.38 26.38 0 01-5.81.5H203V1.6h1.86v6a18.57 18.57 0 005.14-.43zm2.21-3.39h-3.54V2.32h3.54V.69h1.87V11h-1.87V6.26h-3.54V4.82h3.54zm11.66 9.44a3.6 3.6 0 01-3-1.28 5.58 5.58 0 01-1-3.58v-.79a6 6 0 011.3-4.25A4.45 4.45 0 01224.55 2a5 5 0 012.56.6l-.38 1.4a4.53 4.53 0 00-.94-.32 4.81 4.81 0 00-1.12-.16 2.61 2.61 0 00-2 .81 4.69 4.69 0 00-.83 2.81 3.84 3.84 0 012.56-1 3.27 3.27 0 012.36.87 3.18 3.18 0 01.9 2.41 3.79 3.79 0 01-1 2.7 3.59 3.59 0 01-2.76 1.06zm0-1.45a1.76 1.76 0 001.38-.57 2.3 2.3 0 00.5-1.59c0-1.35-.65-2-1.94-2a2.23 2.23 0 00-1.1.32 3 3 0 00-.86.75v.1c0 2 .67 3 2 3zm17 3.23h-10.2v-3.22h7.86v-.64h-7.87V9.8h9.74V13h-7.85v.65h8.33zM229.38 3.26a2 2 0 011-1.7 4.58 4.58 0 012.55-.66 4.44 4.44 0 012.49.66 2 2 0 011 1.72 1.93 1.93 0 01-1 1.68 4.4 4.4 0 01-2.48.66 4.58 4.58 0 01-2.53-.62 1.94 1.94 0 01-1-1.71zm6.32 5.64V7.67h2.87v-7h1.85v8.6h-1.85V8.9zm-2.06.39h-1.87V7.56c-1.65.06-2.71.1-3.2.1l-.26-1.5c1.76 0 3.3 0 4.62-.08q2.79-.12 4.62-.36l.15 1.39c-1.08.15-2.43.27-4.07.37zm-1.91-6.76a.83.83 0 000 1.48 2.76 2.76 0 002.4 0 .85.85 0 00.47-.73.85.85 0 00-.47-.73 2.18 2.18 0 00-1.2-.29 2.31 2.31 0 00-1.21.27zM246 13v-1.12l2.1-2.21a24 24 0 002.06-2.44 3.35 3.35 0 00.68-1.9 1.76 1.76 0 00-.52-1.41 2.46 2.46 0 00-1.6-.43 4.49 4.49 0 00-2.27.73l-.32-1.45a6 6 0 013.12-.83 4 4 0 012.7.81 3 3 0 01.93 2.32 4.16 4.16 0 01-.25 1.39 5.61 5.61 0 01-.77 1.4c-.36.48-.66.86-.92 1.16l-1.07 1.14-1.3 1.33H253V13zm9.78.06v-9l-1.84.37V3.28L256.71 2h1v11.09zm15.85 1.75h-9.81V11h7.5v-1h-7.58V8.55h9.44v3.81h-7.49v1h7.94zm-.45-7h-1.85V.69h1.85zm-11.37-3.33a3 3 0 011.07-2.36 4.39 4.39 0 015.42 0 3 3 0 011.06 2.38 2.84 2.84 0 01-1.05 2.3 4.6 4.6 0 01-5.4 0 2.79 2.79 0 01-1.1-2.32zm2.44-1.25a1.61 1.61 0 00-.58 1.24 1.46 1.46 0 00.55 1.18 2.11 2.11 0 001.39.47 2 2 0 001.39-.48 1.55 1.55 0 00.53-1.17 1.7 1.7 0 00-.53-1.26 1.89 1.89 0 00-1.39-.5 2 2 0 00-1.36.52zm19.21 3.45a3 3 0 01.28.2l.31.21.29.18a1.71 1.71 0 00.33.17l.29.08a.88.88 0 00.33.05 1 1 0 00.77-.43 2 2 0 00.41-1.09c.64.24 1.09.4 1.34.48a3 3 0 01-.84 2 2.3 2.3 0 01-1.67.63 3.33 3.33 0 01-1.85-.64 4.37 4.37 0 00-1.8-1 1 1 0 00-.85.31 1.85 1.85 0 00-.52 1l-.58-.28-.7-.35a3 3 0 011-1.88 2.33 2.33 0 011.7-.41 3.26 3.26 0 011.67.77zM291.53 13l4-9.35h-5V2.13h7.1V3.3l-4 9.73zm19.23 2h-10.21v-3.22h7.85v-.64h-7.87V9.8h9.74V13h-7.85v.65h8.33zM299.25 3.25a1.93 1.93 0 011-1.7A4.58 4.58 0 01302.8.9a4.4 4.4 0 012.49.66 2 2 0 011 1.72 2 2 0 01-1 1.68 4.45 4.45 0 01-2.48.66 4.59 4.59 0 01-2.54-.62 2 2 0 01-1.02-1.75zm6.32 5.65V7.67h2.86v-7h1.86v8.6h-1.86V8.9zm-2.06.38h-1.88V7.56c-1.64.06-2.71.1-3.2.1l-.25-1.49c1.76 0 3.3 0 4.62-.08 1.86-.09 3.4-.21 4.63-.37l.14 1.39c-1.08.15-2.43.27-4.06.37zm-1.92-6.76a.86.86 0 00-.45.75.83.83 0 00.45.73 2.32 2.32 0 001.21.28A2.39 2.39 0 00304 4a.85.85 0 00.47-.73.86.86 0 00-.47-.74 2.37 2.37 0 00-1.2-.29 2.32 2.32 0 00-1.21.28zm17.21 10.66A7.05 7.05 0 01317 13a4.84 4.84 0 01-1.38-.54l.32-1.43a3.77 3.77 0 001.17.44 5.89 5.89 0 001.39.19 2.84 2.84 0 001.72-.47 1.59 1.59 0 00.61-1.37c0-1.09-.76-1.65-2.27-1.67h-1.14V6.66h1a2.72 2.72 0 001.54-.45 1.36 1.36 0 00.55-1.21q0-1.5-1.95-1.5a5.53 5.53 0 00-2.33.58L316 2.63a5.35 5.35 0 011.39-.49 8 8 0 011.68-.2 4 4 0 012.48.72 2.36 2.36 0 01.93 2 2.57 2.57 0 01-2 2.56 2.54 2.54 0 012.34 2.69 2.9 2.9 0 01-1.09 2.4 4.53 4.53 0 01-2.93.87zm6.85-.1v-9l-1.84.37V3.28L326.59 2h1v11.09zm15.86 1.75h-9.81V11h7.5v-1h-7.59V8.55h9.44v3.81h-7.48v1h7.93zm-.45-7h-1.86V.69h1.86zM329.7 4.48a3 3 0 011.07-2.36 4.39 4.39 0 015.42 0 3.05 3.05 0 011.06 2.38 2.88 2.88 0 01-1.06 2.3 4.06 4.06 0 01-2.7.88 4.13 4.13 0 01-2.7-.87 2.81 2.81 0 01-1.09-2.33zm2.43-1.25a1.61 1.61 0 00-.58 1.24 1.47 1.47 0 00.56 1.18 2.1 2.1 0 001.38.47 2 2 0 001.38-.48 1.51 1.51 0 00.52-1.17 1.67 1.67 0 00-.51-1.26 1.89 1.89 0 00-1.39-.5 2 2 0 00-1.36.52zM357.75.69v5.67h2v1.55h-2v7h-1.81V.69zm-6.92 1.49a16.34 16.34 0 01-.78 5.56 11.73 11.73 0 01-2.54 4.09l-1.38-1.05a9 9 0 002.21-3.22 10 10 0 00.73-3.82H347V2.18zm4 0a21.41 21.41 0 01-.68 6 12.63 12.63 0 01-2.54 4.5l-1.46-1A11 11 0 00353 3.74h-1.56V2.18zm14.1 7.92l-1 1.46a7.53 7.53 0 01-2.06-1.66 6.18 6.18 0 01-1.38-2.16 6.15 6.15 0 01-1.24 2.34A6.67 6.67 0 01361 11.9l-1.12-1.4q3.56-1.89 3.56-6.48v-.38h-2.84V2.15h7.56v1.49h-2.75V4a6.31 6.31 0 003.5 6.1zm2.84 4.9h-1.88V.69h1.88z"/><path fill="none" d="M0 0h460v16H0z"/></g></g></g></svg>