<svg xmlns="http://www.w3.org/2000/svg" width="393.4" height="63.16"><path data-name="8_tit" d="M.56 17.36v9.8h24.36v-9.8zm9.3-8.68l.588-1.4h6.636V1.96h-5.04V0h-6.44v1.96H.564v5.32h3.3L0 16.24h6.58l2.38-5.488 2.1 5.488h6.58l-2.884-7.56zm15.064-2.94V.84h-6.44v15.4h6.44v-4.62h2.24V5.74zM6.72 21.42h12.04v1.68H6.72zm21.868-6.02c0 7.924 2.3 11.2 8.26 11.2 4.172 0 6.552-1.624 7.616-5.32H47.6v5.04h6.44V.84H47.6v4.2h-3.78c-1.26-2.52-3.5-3.64-6.972-3.64-5.964 0-8.26 3.276-8.26 11.2zm10.36-.28c0 5.1-.56 6.16-2.1 6.16s-2.1-1.064-2.1-6.16v-2.24c0-5.1.56-6.16 2.1-6.16s2.1 1.064 2.1 6.16zm6.16-2.52a43.3 43.3 0 00-.056-1.96H47.6v5.04h-2.492V12.6zm11.452 5.6v8.96h24.36v-5.32H63V18.2zM64.82 7c-5.936 0-8.54 1.652-8.54 5.04 0 3.444 2.6 5.04 8.54 5.04s8.54-1.6 8.54-5.04c0-3.388-2.604-5.04-8.54-5.04zm16.1.14V.84h-6.44v18.48h6.44v-6.3h2.24V7.14zM68.04 1.96V0H61.6v1.96h-5.04v4.48h16.52V1.96zm-3.22 9.24c2.324 0 2.94.168 2.94.84s-.616.84-2.94.84-2.94-.168-2.94-.84.616-.84 2.94-.84zm28.42-9.8v15.68h24.08V1.4zm8.82 19.32H92.4v5.6h25.76v-5.6h-9.66V18.2h-6.44zM99.68 7h11.2v4.48h-11.2zm28 .7V5.6h17.64V1.4h-24.08v10.5h24.08V7.7zm0 14.84v-3.92h-6.44v8.26h24.08v-4.34zm-7.28-9.52v4.48h25.76v-4.48zM181.16 1.4H175v2.32h-11.76V1.4h-6.16v10.92h24.08zm-24.92 12.32v4.34h10.5v2.66h6.44v-2.66H182v-4.34zm7.28 8.82v-3.36h-6.44v7.7h24.08v-4.34zm-.28-15.32H175v1.6h-11.76zm28.84 16.1v-.7h17.08v-7.56h-24.08v3.56h17.08v.728h-17.08v7.532h24.08v-3.56zm-7-21.924v8.008h24.08V5.988h-17.64V4.82h17.64V1.4zm-.84 8.848v3.976H210v-3.976zM232.4.84h-4.76v9.38h-1.428c.028-1.12.028-2.3.028-3.5V1.68h-6.3v5.6h1.54c0 3.444-.112 6.468-.336 9.52a85.3 85.3 0 01-1.344 9.52h4.76a83 83 0 001.372-9.8 6.4 6.4 0 01.056-.7h1.652v10.5h4.76zm-14.98 25.48a83 83 0 001.372-9.8c.224-3.136.308-6.3.308-9.8V1.68h-7.42v5.6h2.66c0 3.444-.112 6.468-.336 9.52a85.3 85.3 0 01-1.344 9.52zM238 .84h-4.76v25.48H238zm26.18 1.68V0h-6.44v2.52h-8.82v5.6h6.16l-6.72 8.4h7.7l4.732-5.74 4.956 5.74h7.812l-5.712-6.72h-6.244l1.372-1.68H273v-5.6zm-16.1 15.12v5.6h9.66v3.92h6.44v-3.92h9.66v-5.6zM301.56.84h-6.44v5.04h-2.52V1.96h-5.04V0h-6.44v1.96h-5.04v5.32h3.3l-3.86 8.96h6.58l2.38-5.488 2.1 5.488h6.58l-2.884-7.56h-4.9l.588-1.4h6.356v4.2h2.8v4.76h6.44zm-25.48 16.52v9.8h25.48v-9.8zm6.16 4.06h13.16v1.68h-13.16zm29.68 1.9v-.7H329v-7.56h-24.08v3.56H322v.728h-17.08v7.532H329v-3.56zm17.36-18.2c0-2.632-2.492-4.424-12.32-4.424s-12.32 1.796-12.32 4.424 2.492 4.424 12.32 4.424 12.32-1.788 12.32-4.424zm-25.2 5.124v3.976h25.76v-3.976zm19.04-5.124c0 .532-.308.868-6.16.868s-6.16-.336-6.16-.868.308-.868 6.16-.868 6.16.34 6.16.868zm32.9 7.952v-.84h8.82V9.068H347.2v-.812h17.36V5.372h-23.8v6.86h8.82v.84h-9.66v3.976h25.76v-3.972zm9.1 9.58c0-2.828-2.492-4.788-12.32-4.788s-12.32 1.956-12.32 4.788 2.492 4.788 12.32 4.788 12.32-1.96 12.32-4.788zm-.28-18.088V1.4h-24.08v3.164zm-5.88 18.088c0 .56-.476.868-6.16.868s-6.16-.308-6.16-.868.476-.868 6.16-.868 6.16.308 6.16.868zM393.4.84h-5.18v9.38h-1.4V.84h-5.18v25.48h5.18v-10.5h1.4v10.5h5.18zM374.08 26.6c4.508 0 6.44-3 6.44-8.4v-1.96c0-5.4-1.932-8.4-6.44-8.4s-6.44 3-6.44 8.4v1.96c0 5.404 1.932 8.4 6.44 8.4zm2.94-24.36V0h-5.88v2.24h-3.5v5.04h12.88V2.24zm-2.94 19.04c-.98 0-1.4-.672-1.4-3.36v-1.4c0-2.688.42-3.36 1.4-3.36s1.4.672 1.4 3.36v1.4c0 2.688-.42 3.36-1.4 3.36zM42.658 41.46h-3.22l.7-3.78h-5.684l-.7 3.78H30.17l.7-3.78h-5.684l-.7 3.78H20.82l-1.008 5.488h3.668l-1.064 5.824h-3.668L17.74 58.26h3.668l-.7 3.78h5.684l.7-3.78h3.584l-.7 3.78h5.684l.7-3.78h3.22l1.008-5.488h-3.22l1.064-5.824h3.22zm-13.5 5.488h3.584l-1.064 5.824h-3.584zM69.82 36.84h-5.18v9.38h-1.4v-9.38h-5.18v25.48h5.18v-10.5h1.4v10.5h5.18zM49.938 55.82V37.68h-5.88v24.64l12.88-1.96v-5.6zM79.62 43.14V41.6h17.64v-4.2H73.18v9.94H82v1.12h-9.66v4.48H98.1v-4.48h-9.66v-1.12h8.82v-4.2zm0 15.4v-4.48h-6.44v8.82h24.08v-4.34zm46.2-21.7h-5.18v9.38h-1.4v-9.38h-5.18v25.48h5.18v-10.5h1.4v10.5h5.18zm-19.882 18.98V37.68h-5.88v24.64l12.88-1.96v-5.6zm23.24-2.324v9.38h24.08v-4.14H135.62V57.7h17.64v-4.2zm6.442-10.776v-1.26h17.64V37.4h-24.08v9.38h24.08v-4.06zm-7.28 5.18v4.48h25.76V47.9zm42.84 11.62v-.84h18.48v-7.84h-25.48v3.64h18.48v.84h-18.48v7.84h25.48v-3.64zm7.476-14.56v-3.22h2.044v-4.06h-16.52v4.06h2.04v4.06l-2.044.14V50l16.52-1.12v-4.06zm11-8.12h-6.436V50h6.44zm-18.564 4.9h2.688v3.556l-2.688.168zm33.938 2.632l4.816 8.148h7.812l-6.272-9.8h-5.348l3.36-5.6h-7.42l-9.52 15.4h7.7zm-12.852 9.268v5.6h9.66v3.92h6.44v-3.92h9.66v-5.6zm27.72 0v9.52h25.76v-9.52zm0-10.78v9.66l12.04-.84v-4.2l-6.16.448V46.78h5.88v-3.92zm19.6-6.02h-5.04v5.32h-1.96v5.04h1.96v5.32h5.04zm6.16 0h-5.038v15.68h5.04zm-25.76.84v4.2h12.04v-4.2zm6.16 20.02h13.44v1.4h-13.44zm29.962 1.62v-.7h17.08v-7.56h-24.08v3.56h17.08v.728h-17.08v7.532h24.08v-3.56zm17.358-18.2c0-2.632-2.492-4.424-12.32-4.424s-12.32 1.796-12.32 4.424 2.492 4.424 12.32 4.424 12.32-1.788 12.32-4.424zm-25.2 5.124v3.976h25.76v-3.972zm19.042-5.124c0 .532-.308.868-6.16.868s-6.16-.336-6.16-.868.308-.868 6.16-.868 6.16.34 6.16.868zm24.08 7.2V43h17.64v-5.6h-24.082v16.52h24.08v-5.6zm-7.28 8.4v5.6h25.76v-5.6zm34.44-.784v-3.7h9.52V37.68h-15.96v5.6h9.52v3.36h-9.52v15.68l16.24-1.96v-5.6zm19.04-19.1h-6.44v4.2h-1.96v5.6h1.96v5.04h-1.96v5.6h1.96v5.044h6.44zm27.72 8.12c0-5.264-3.808-8.12-12.32-8.12s-12.32 2.856-12.32 8.12 3.808 8.12 12.32 8.12 12.32-2.856 12.32-8.116zm-9.94 11.76h-4.76V53.92h-6.44v2.8h-4.06v5.6h25.76v-5.6h-4.06v-2.8h-6.44zm3.78-11.76c0 1.96-1.288 2.8-6.16 2.8s-6.16-.84-6.16-2.8 1.288-2.8 6.16-2.8 6.158.844 6.158 2.804zm16.044 10.192V37.68h-6.244v17.472zm0 6.888v-5.484h-6.244v5.488z"/></svg>