<svg xmlns="http://www.w3.org/2000/svg" width="375" height="124"><defs><style>.cls-2{fill:#111}</style></defs><g id="Layer_2" data-name="Layer 2"><g id="Layer_1-2" data-name="Layer 1"><g id="_3_tit" data-name="3 tit"><path id="패스_11248" data-name="패스 11248" d="M129.34 41.6h-7v12.73h-1.9V41.6h-7v34.58h7V61.93h1.9v14.25h7zm-27 25.76V42.74h-8v33.44l17.48-2.66v-7.6zm40.28-17.21v-2.09h23.94v-5.7H133.9v13.49h12v1.52h-13.14v6.08h35v-6.08h-13.15v-1.52h12v-5.7zm0 20.9V65h-8.72v12h32.68v-5.95zm62.7-29.45h-7v12.73h-1.9V41.6h-7v34.58h7V61.93h1.9v14.25h7zm-27 25.76V42.74h-8v33.44l17.48-2.66v-7.6zm31.54-3.15v12.73h32.68v-5.62h-23.9v-1.41h23.94v-5.7zm8.74-14.63v-1.71h23.94v-5.51H209.9v12.73h32.68v-5.51zm-9.88 7v6.08h35v-6.05zM273 41.6h-6.84v12.73h-2.36c-.45-8.66-3.15-12-8.66-12-6.08 0-8.74 4-8.74 14.82v4.56c0 10.79 2.66 14.82 8.74 14.82s8.7-4 8.74-14.63h2.28v14.28H273zm8.36 0h-6.86v34.58h6.84zM257 61c0 6.76-.38 8.36-1.9 8.36s-1.9-1.6-1.9-8.36v-3c0-6.76.38-8.36 1.9-8.36s1.9 1.6 1.9 8.36zM107.45 98.24l.8-1.9h8.93v-7.6H94.76v7.6h4.56L94 108.88h8.93l3.27-7.68 2.81 7.68h8.93L114 98.24zM94.76 110.4v12.92h34.58v-7.22H103.5v-5.7zm34.58-22.8h-8.74v24.32h8.74zm3.42 22.4v13.3h34.58V110zm11.78-10.91l3.23 9.39h8.93L152.41 96h-6.65l3-7.6h-8.93L132 108.5h8.93zm22.8-11.51h-8.74v20.9h8.74zm-26.22 27.93H159v2.28h-17.88zm64.22-8.17h-8.74v3.23h-17.1v-3.23h-8.74v16h34.58zM192.8 96.53c0-5.81-4-9.31-11.59-9.31s-11.59 3.5-11.59 9.31 4 9.31 11.59 9.31 11.59-3.5 11.59-9.31zm12.54-8.93h-8.74v18.62h8.74zm-24.13 11.78c-3 0-4-1.29-4-2.85s.95-2.85 4-2.85 4 1.29 4 2.85-.96 2.85-4 2.85zm-1.71 16.34h17.1v2.09h-17.1zm38-2.17V88.74h-8.74v33.44l22.42-2.66v-7.6zm25.84-25.95h-8.74v34.58h8.74zm3.42 1.14v33.44l22.42-2.66v-7.6l-13.68 1.63V96.34h13.68v-7.6zM279.82 100V87.6h-8.74v34.58h8.74v-13.87h3V100z" fill="#8214ff"/><g id="SMALL_TIT" data-name="SMALL TIT"><path id="패스_11250" data-name="패스 11250" class="cls-2" d="M107 17.27V1.72h-5v21.12l11-1.68v-4.8zM118.76 1h-4.32v6.6h-4.32v4.8h4.32v10.44h4.32zM124 1h-4.32v21.84H124zm24 0h-5.52v21.84H148zm-21.78 12.48c0 6.79 2 9.6 7.08 9.6s7.08-2.81 7.08-9.6v-2.4c0-6.79-2-9.6-7.08-9.6s-7.08 2.81-7.08 9.6zm8.88-.24c0 4.37-.48 5.28-1.8 5.28s-1.8-.91-1.8-5.28v-1.92C131.5 7 132 6 133.3 6s1.8.91 1.8 5.28zm31.42.72v8.88H172V1h-5.52v7.92h-2.16v-7.2h-5.28v6h-3.6v-6h-5.24v21.12l14.16-1.68V14zm-11-1.68h3.6v4.94l-3.6.44z"/><g id="VIBE"><g id="그룹_4493" data-name="그룹 4493"><g id="그룹_4492" data-name="그룹 4492"><path id="패스_11055" data-name="패스 11055" class="cls-2" d="M190.85 14.91l-4.6-12.71a.55.55 0 00-.51-.36H181a.55.55 0 00-.54.55.41.41 0 000 .19l7.83 19.72a.57.57 0 00.51.34h4a.56.56 0 00.5-.34l7.83-19.72a.55.55 0 00-.3-.7.71.71 0 00-.2 0H196a.55.55 0 00-.51.36z"/><rect id="사각형_144" data-name="사각형 144" class="cls-2" x="204.77" y="1.84" width="5.41" height="20.79" rx="1"/><path id="패스_11056" data-name="패스 11056" class="cls-2" d="M248 5.88v-3.5a.54.54 0 00-.54-.54h-12.61a.54.54 0 00-.54.54V22.1a.54.54 0 00.54.54h12.64a.54.54 0 00.54-.54v-3.5a.54.54 0 00-.54-.54h-8.09v-3.69h7.47a.54.54 0 00.54-.54v-3.29a.55.55 0 00-.54-.54h-7.47V6.42h8.09a.54.54 0 00.54-.54z"/><path id="패스_11057" data-name="패스 11057" class="cls-2" d="M227.35 11.82a5.8 5.8 0 002.72-4.64c0-3-2.15-5.34-5.67-5.34h-8.7a.55.55 0 00-.54.54V22.1a.54.54 0 00.54.54h8.69c3.51 0 6.16-1.71 6.16-5.7a5.25 5.25 0 00-3.2-5.12zM220.25 6h2.63A2 2 0 01225 7.93a.74.74 0 010 .21c0 1.76-1 2.23-1.81 2.23h-3zm3 12.48h-3v-4.37h2.81a2 2 0 012.28 1.69 2.07 2.07 0 010 .5 2 2 0 01-1.73 2.17 1.53 1.53 0 01-.34.01z"/></g></g></g><path id="패스_11249" data-name="패스 11249" class="cls-2" d="M258.44 6.28v-4.8h-5.52V10h20.64V6.28zm0 13.32v-3.84h-5.52v7.56h20.64V19.6zM252.2 11v3.8h22.08V11z"/></g></g><path fill="none" d="M0 0h375v124H0z"/></g></g></svg>