<svg xmlns="http://www.w3.org/2000/svg" width="460" height="78"><g data-name="Layer 2"><g data-name="Layer 1"><path d="M74 2.68v24.64l16.52-2v-5.6L80.44 21V8.28h10.08v-5.6zm25.48-.84H93v9.24h-5V17h5v10.32h6.44zm20.22 10.08l.92-3.64h5.74v-5.6h-16.52v5.6H114l-4.76 19h6.58l2.38-9.55 2.1 9.55h6.58l-3.36-15.4zm14.5-1V1.84h-6.44v25.48h6.44V17.1h2.24v-6.16zm10.08 7l1.12 9.35h5.6L148.59 9.4h-2.85l1.2-7h-5.52L137 27.32h5.68zm12.88-16.08h-5v8h-2.24v5.6h2.24v11.9h5zm6.16 0h-5v25.48h5zm19 16.38c0-5.68-2.46-9.38-8.26-9.38s-8.26 3.7-8.26 9.38 2.46 9.38 8.26 9.38 8.3-3.7 8.3-9.38zm7.84-7.28v-9.1h-6.44v25.48h6.44V17.1h2.24v-6.16zm-12.88-7.7V1h-6.44v2.24h-5v5h16.52v-5zm-1.12 15c0 3-.62 4.06-2.1 4.06s-2.1-1.09-2.1-4.06.62-4.06 2.1-4.06 2.14 1.07 2.14 4.04zm37-16.38h-5v9.38h-1.71v-8.5h-12.89v5.6h7c0 3.44-.11 6.47-.34 9.52a82.59 82.59 0 01-1.34 9.52h5.88a83.09 83.09 0 001.37-9.8c0-.23 0-.47.06-.7h1.93v10.5h5zm6.16 0h-5v25.46h5zm17.36 22.68v-.84H254v-7.86h-24.32v3.64H247v.84h-17.32v7.84H254v-3.64zm9.24-16.38c0-4.28-2.94-6.58-8.54-6.58s-8.54 2.3-8.54 6.58 2.94 6.58 8.54 6.58 8.54-2.32 8.54-6.6zM254 5.62V1.84h-6.4V15h6.4v-3.78h2.24v-5.6zM237.38 10c-2.24 0-2.94-.67-2.94-1.82s.7-1.82 2.94-1.82 2.94.67 2.94 1.82-.7 1.82-2.94 1.82zm45.22-7.6h-24.08V8h17.28l-.8 11.48h6.44zm-18.06 19.32h-6.86v5.6h25.76v-5.6H271v-9h-6.44zM315.22 24v-3.4H319v-4.2h-25.48v4.2h3.78V24h-3.78v4.2H319V24zM302.28 9l2.5 6.58h6.58L308 6.6h-4.62l1.9-4.2h-6.58l-6 13.16h6.58zM319 1.84h-6.44v13.72H319zM303.74 20.6h5V24h-5zm17.81-4.2c0 7.92 2.3 11.2 8.26 11.2s8.19-3.14 8.26-10.6h2.49v10.32H347V1.84h-6.44v9.24H338c-.48-6.1-2.86-8.68-8.15-8.68-6 0-8.26 3.28-8.26 11.2zm10.36-.28c0 5.1-.56 6.16-2.1 6.16s-2.1-1.06-2.1-6.16v-2.24c0-5.1.56-6.16 2.1-6.16s2.1 1.06 2.1 6.16zM374.72 10c0-5.26-3.81-8.12-12.32-8.12S350.08 4.7 350.08 10s3.81 8.12 12.32 8.12 12.32-2.9 12.32-8.12zm-9.94 11.76H360v-2.8h-6.44v2.8h-4.06v5.6h25.76v-5.6h-4.06v-2.8h-6.44zM368.56 10c0 2-1.29 2.8-6.16 2.8s-6.16-.84-6.16-2.8 1.29-2.8 6.16-2.8 6.16.8 6.16 2.8zm16 10.19V2.68h-6.24v17.47zm0 6.89v-5.53h-6.24V27zM108.31 48.51h-4.37l1-5.13h-7.76l-1 5.13h-4.82l1-5.13H84.6l-.95 5.13h-5L77.3 56h5l-1.44 7.9h-5l-1.37 7.45h5l-1 5.13h7.71l1-5.13h4.87l-1 5.13h7.71l1-5.13h4.37l1.37-7.45h-4.37l1.44-7.9h4.37zM90 56h4.86l-1.44 7.9h-4.87zm55.17-13.72h-7V55h-1.9V42.24h-7v34.58h7V62.57h1.9v14.25h7zM118.19 68V43.38h-8v33.44l17.48-2.66v-7.6zm40.28-17.21V48.7h23.94V43h-32.68v13.49h12V58h-13.14v6.08h35V58h-13.15v-1.51h12v-5.7zm0 20.9v-6.08h-8.74v12h32.68v-5.92zm62.7-29.45h-7V55h-1.9V42.24h-7v34.58h7V62.57h1.9v14.25h7zM194.19 68V43.38h-8v33.44l17.48-2.66v-7.6zm31.54-3.15v12.73h32.68V72h-23.94v-1.45h23.94v-5.7zm8.74-14.63v-1.71h23.94V43h-32.68v12.73h32.68v-5.51zm-9.88 7v6.08h35v-6.05zm48.26 7.41V78h35V64.66zm35-22.42h-7v7h-1.9v-7h-7v20.9h7v-6.62h1.9v6.65h7zm-19.76 20.9c1.94-5.36 2.28-11 2.28-16.34v-3.39h-17.52v7.22h9.43c0 .76-.08 1.44-.16 2.17h-8.89v6.84h7.83c-.27 1.17-.61 2.31-1 3.53zm-6.84 7h18.24v2.28h-18.28zm45.3-3.31V51h1.82v-7.6h-17.52V51h1.83v18l-1.83.27v7.6l17.48-2.66v-7.6zm10.94-24.62h-6.84V55h-3v7.6h3v14.22h6.84zm8.36 0H339v34.64h6.84zM318.57 51h2.05v16.74l-2.05.3zm52.7 1.52c0-6.42-4.18-10.64-11.59-10.64s-11.59 4.22-11.59 10.64 4.18 10.64 11.59 10.64 11.59-4.24 11.59-10.66zM349.23 65v13h34.58v-7.26H358V65zm34.58-22.8h-8.74v24.36h8.74zm-24.13 14.1a3.44 3.44 0 01-3.62-3.3 3.25 3.25 0 010-.54 3.61 3.61 0 117.22-.38 2.41 2.41 0 010 .38 3.45 3.45 0 01-3.07 3.79 4.87 4.87 0 01-.53.05z" fill="#111"/><path fill="none" d="M0 0h460v78H0z"/></g></g></svg>