<svg xmlns="http://www.w3.org/2000/svg" width="193" height="86"><defs><style>.cls-1{fill:#999}</style></defs><g id="Layer_2" data-name="Layer 2"><g id="Layer_1-2" data-name="Layer 1"><g id="_6_txt02" data-name="6 txt02"><path id="패스_11172" data-name="패스 11172" d="M3.64.5a3.71 3.71 0 01.26.5c.1.18.19.38.27.56a1.22 1.22 0 00-.5.27 1 1 0 00-.29.4 2.94 2.94 0 00-.16.58v1.57H.86v-1A2.69 2.69 0 013.28.51zm1.1 7H18v1.67H4.75zm9.19-.8H8.81C6.48 6.65 5.28 5.73 5.28 4s1.2-2.64 3.53-2.64h5.12c2.32 0 3.52 1 3.52 2.64s-1.2 2.63-3.52 2.63zm-5.1-1.79h4.69c1.17 0 1.76-.24 1.76-.91s-.59-.91-1.76-.91H9.2c-1.08 0-1.76.24-1.76.91s.41.91 1.39.91zm8.48 5.22v5H5.42v-5zm-9.76 3.28h7.63v-1.58H7.55zm21.81-2.14h-3.17V9.63h3.17V1.36h2.11v10.72h-2.11zm2.41 2v1.83H20v-3.76h2.13v1.88zM24.25 6.7H22.6c-2 0-3.23-1-3.23-2.67s1.2-2.67 3.23-2.67h1.65c2 0 3.23 1.05 3.23 2.67s-1.2 2.67-3.23 2.67zM22.6 5h1.65c.7 0 1.2-.35 1.2-1s-.5-1-1.2-1H22.6c-.72 0-1.2.34-1.2 1s.48 1 1.2 1zm5.54 2.3V9h-4.32v2h-2.13V9H19V7.33zM42 3.39a8 8 0 01-.21 1.19 10.15 10.15 0 003.68 3.12L44.2 9.23a11.85 11.85 0 01-3.2-2.6 8.11 8.11 0 01-2.75 2.92l-1.5-1.32A6.43 6.43 0 0040 3.39h-2.6v-1.8h7.42v1.8zm4 11.94h-5c-2.21 0-3.49-1-3.49-2.72S38.79 9.86 41 9.86h5c2.24 0 3.5 1.13 3.5 2.75s-1.23 2.72-3.5 2.72zm-5-1.79h4.61c1 0 1.68-.26 1.68-.93s-.63-1-1.68-1h-4.18c-1 0-1.68.24-1.68 1 .01.56.48.93 1.32.93zm8.31-12.18v8.11H47.2V6.13h-2.69V4.3h2.69V1.36zm14.24 11.81v1.93H51.9v-4.54H54v2.61zm1.5-8v2h-1.79v4.43h-2.13V1.36h2.13v3.79zm-11-3.79h2.15a12.15 12.15 0 01-.35 3A11.73 11.73 0 0059.77 8l-1.26 1.62a13.35 13.35 0 01-3.43-3 8.62 8.62 0 01-2.67 3.31l-1.58-1.37a8.58 8.58 0 003.25-7.2zm22.75.23V8.9h-7.4V1.59h2v1.93h3.35V1.59zm-5.33 5.53h3.34V5.27h-3.34zm11.42-2.75v2H81.1v3.24H79V1.36h2.1v3zm-5 10.94h-4.82c-2.21 0-3.49-1-3.49-2.72s1.28-2.75 3.49-2.75h4.81c2.23 0 3.5 1.13 3.5 2.75s-1.27 2.72-3.5 2.72zm-4.81-1.79h4.81c.87 0 1.33-.37 1.33-.93s-.46-1-1.33-1h-4.82c-.83 0-1.3.37-1.3 1s.46.93 1.3.93zM86.16 1.36h2.12A12.12 12.12 0 0188 4.24a11.76 11.76 0 003.9 3.59l-1.31 1.56a13.53 13.53 0 01-3.43-3 8.35 8.35 0 01-2.67 3.31l-1.58-1.36a8.15 8.15 0 003.25-6.98zm9.47 8.91v5.06h-2.11v-3.15H84v-1.9zm-2.11-.68V1.36h2.11v8.23zm16.35 5.6h-2V1.36h2zM99.76 4.48v7.3c0 .75.35 1.1.9 1.1s.9-.35.9-1.1v-7.3c0-.75-.34-1.1-.9-1.1s-.9.35-.9 1.1zm-2 7.3v-7.3a2.75 2.75 0 012.42-3 2.36 2.36 0 01.46 0A2.76 2.76 0 01103.57 4a2.26 2.26 0 010 .45v2.19h1.22V1.43h2V15h-2V8.58h-1.22v3.2a2.74 2.74 0 01-2.45 3 2.37 2.37 0 01-.46 0 2.72 2.72 0 01-2.89-2.55 2.44 2.44 0 010-.47zm23.46.88v1.92h-5.47v-13h5.16v1.94h-3v9.14zm6.48-11.3v13.83h-2.1v-6.6H124V15h-2.1V1.43h2.1v5.23h1.59v-5.3zm8.16 7.41v3a2.73 2.73 0 01-2.52 2.94h-.43a2.73 2.73 0 01-2.91-2.48 2.26 2.26 0 010-.45v-3a2.73 2.73 0 012.47-3 2.26 2.26 0 01.45 0 2.77 2.77 0 013 2.56 2.94 2.94 0 01-.05.43zm-2 3V9c0-.78-.24-1.31-1-1.31S132 8.23 132 9v2.51c0 .83.27 1.33.94 1.33s.93-.41.93-1.06zM142 1.36v13.83h-2V8.58h-1.25V15h-2V1.43h2v5.21H140V1.36zm-5.87 1.43V4.7h-6.39V2.78h2.18V.83h2v1.95zm23.71 10.8v1.6h-11.7v-4h9.23v-.83h-9.23V8.72h11.36v4h-9.25v.85zm1.5-9.72v2h-1.84v2.3h-2.13V1.36h2.13v2.51zm-6.24-2.28v6.24h-7.22V1.59zm-5.19 4.48H153V3.35h-3.16zm19.5 1.32c0 1.8-1.5 3.08-3.61 3.08s-3.6-1.28-3.6-3.08 1.5-3.08 3.6-3.08 3.62 1.28 3.62 3.08zm4.59 5.78v1.93h-11.62V11h2.11v2.19zm1.5-7.87v2h-1.79v4.43h-2.13V1.36h2.13V5.3zM170 2.09v1.72h-8.35V2.08h3V.83h2.13v1.25zm-2.66 5.31a1.45 1.45 0 00-1.45-1.46h-.13a1.45 1.45 0 00-1.57 1.3v.16a1.4 1.4 0 001.4 1.41h.17a1.42 1.42 0 001.57-1.27.61.61 0 000-.14zm17.25 7.18h-8.27v-13h7.48v1.94h-5.36v9.14h6.15zm3.39-6v6.59h-2.13V1.36H188v5.2h1.79v2zm2.16-3.86a4.34 4.34 0 01-.26-.53c-.1-.17-.19-.35-.27-.52a2 2 0 00.5-.3 1 1 0 00.29-.4 2.38 2.38 0 00.16-.58V.84h2.34v1a2.69 2.69 0 01-2.43 2.91zM12.67 34.28h-2.13v-7.74H.78v-1.95h11.89zm.67 1.43v1.95H.11v-2H4.4v-5.75h2.12v5.79zm1.54-11.12h6.84v1.15c0 3.53-2.68 6.37-6.5 7.18l-1-1.66c3-.58 5.06-2.43 5.35-4.82h-4.69zm11.95-.23V34.6h-2.11v-4.81h-3v-2h3v-3.43zm.3 11.81v1.93H15.32v-4.54h2.13v2.61zm5.83-3h-.3c-2 0-3.46-1.19-3.46-3s1.5-3 3.46-3H33c1.95 0 3.45 1.16 3.45 3s-1.54 3.01-3.45 3.01zm8.11-8.82v8.82H39v-1.3h-2.09v-1.75H39v-1.23h-2.09v-1.74H39v-2.79zm0 9.44v4.53H39v-2.63h-9.58V33.8zM37 25v1.73h-8.33V25h3v-1.2h2.12V25zm-4.35 6.5H33a1.31 1.31 0 10.21-2.62h-.51a1.31 1.31 0 00-.2 2.62.67.67 0 00.15 0zM59 24.59v5.57H47.1v-5.57h2.13v1.24h7.63v-1.24zm-9.77 3.91h7.63v-1h-7.63zm6.45 9.83h-5.27c-2.14 0-3.45-.8-3.45-2.4s1.31-2.45 3.45-2.45h1.47v-.8h-5.45V31h13.23v1.71H54v.8h1.67c2.14 0 3.45.88 3.45 2.45s-1.31 2.4-3.45 2.4zm-5.25-1.66h4.85c1.06 0 1.68-.2 1.68-.74s-.62-.77-1.68-.77h-4.45c-1 0-1.7.16-1.7.77 0 .45.4.74 1.3.74zm10.85-12.08H68v3.34a10.67 10.67 0 01-5.92 9.66l-1.46-1.53a8.66 8.66 0 005.25-7.84v-1.7h-4.59zm11.58 7v6.6h-2.13V24.36h2.13v5.2h1.79v2zm14.61-7v5.56H75.58v-5.56h2.13v1.24h7.63v-1.24zm-9.76 3.92h7.63v-1h-7.63zm6.45 9.82h-5.27c-2.14 0-3.45-.8-3.45-2.4s1.31-2.45 3.45-2.45h1.47v-.8h-5.45V31h13.23v1.71h-5.65v.8h1.67c2.14 0 3.45.88 3.45 2.45s-1.31 2.4-3.45 2.4zm-5.25-1.66h4.85c1.06 0 1.68-.2 1.68-.74s-.62-.77-1.68-.77h-4.45c-1 0-1.7.16-1.7.77 0 .45.4.74 1.3.74zm10.85-12.08h6.69v3.34a10.67 10.67 0 01-5.92 9.66l-1.46-1.53a8.66 8.66 0 005.25-7.84v-1.7h-4.56zm11.58 7v6.6h-2.13V24.36h2.13v5.2h1.79v2zm8.12 4.07v1.92h-5.54v-7.67h2.88v-3.39h-2.88v-1.93h4.9v7.24h-2.89v3.83zm3.21-11.23V38h-2.06v-6.15h-1.33v-2h1.33v-5.42zm3.2 13.76h-2.08V24.36h2.08zm14.32-4h-2.13v-3.3h-9.76v-1.95h9.76v-2.4h-9.76v-1.95h11.89zm.67 1.57v1.95h-13.23v-2h4.29v-3.38h2.13v3.37zm3.81-5.27h9.9v2h-12v-7.9h11.89v1.95h-9.76zm10.43 5.21v1.95h-13.23V35.7zm10.61-.05v1.92h-5.48v-13h5.17v1.93h-3v9.14zm6.48-11.3v13.84h-2.11v-6.6h-1.59V38h-2.1V24.43h2.1v5.23h1.59v-5.3zm14.46 6.12v1.93h-12.17v-1.93h2.2v-3.18h2.16v3.18h3l.81-3.18h2.2c-.26 1.07-.55 2.13-.82 3.18zm.53 5.23v1.95H164V35.7h2.75v-2.62h2.14v2.62h3.46v-2.62h2.11v2.62zm-.67-11.12v2h-11.89v-1.99z"/><path id="패스_11584" data-name="패스 11584" class="cls-1" d="M.2 84.83v-2a2.49 2.49 0 011.26-2.45l1.9-1.23a1.83 1.83 0 00.87-1.62c0-1-.42-1.47-1.4-1.47s-1.4.5-1.4 1.47H.2a2.3 2.3 0 012-2.56 2.08 2.08 0 01.61 0 2.3 2.3 0 012.62 1.93 2.56 2.56 0 010 .62A2.74 2.74 0 014.07 80L2.2 81.23a1.6 1.6 0 00-.8 1.54v1h4.05v1.08zm10.56-2.49v-4.77c0-1-.49-1.53-1.4-1.53S8 76.6 8 77.57v4.77c0 1 .49 1.52 1.4 1.52s1.36-.54 1.36-1.52zM12 77.46v5A2.39 2.39 0 019.76 85h-.4a2.38 2.38 0 01-2.62-2.1 2.67 2.67 0 010-.4v-5A2.38 2.38 0 019 74.94a1.86 1.86 0 01.41 0A2.38 2.38 0 0112 77.05v.41zm1.27 7.37v-2a2.49 2.49 0 011.26-2.44l1.9-1.24a1.81 1.81 0 00.87-1.62c0-1-.42-1.47-1.4-1.47s-1.4.5-1.4 1.47h-1.24a2.32 2.32 0 012-2.57 2.58 2.58 0 01.62 0 2.3 2.3 0 012.61 1.93 1.9 1.9 0 010 .63A2.71 2.71 0 0117.13 80l-1.87 1.21a1.59 1.59 0 00-.79 1.54v1h4v1.08zm8.74 0h-1.24v-8.66h-1.1v-1.1H22zm12.06-10.25v8.49h-1.22V79h-3.92v-1.13h3.92v-1h-3.92V75.8h3.92v-1.22zM31.13 80v1.11h-6.59v-6.29h1.23V80zm3.19 4.64v1.09h-9.41v-3.58h1.22v2.44zm8-6.11h1.22v3.19h1.09v1.09h-1.04v2.07h-1.22v-2.12h-3.8v-.85l3.3-7h1.35l-3 6.72h2.2zm3 1v-1.09h7.47v1.07H49V81h-1.22v-1.49zm.85 2.86V81.3h9.17v2.76h-7.86v.68h8.19v1.07h-9.42V83h8v-.65zm1.84-7.79h1.83c1.47 0 2.33.67 2.33 1.7s-.78 1.7-2.25 1.7h-1.83c-1.47 0-2.33-.67-2.33-1.71s.86-1.71 2.33-1.71zm1.83 1.07h-1.75c-.73 0-1.1.27-1.1.64s.37.63 1.1.63h1.83c.73 0 1.1-.27 1.1-.63s-.37-.66-1.1-.66zm1.39 5.28v-1.09h2.97v-5.28h1.22v6.35z"/><path id="패스_11174" data-name="패스 11174" class="cls-1" d="M.49 56.92v-1.1h6v1.1H4a9 9 0 01-.23 1.54 9.09 9.09 0 003.35 3l-.79.9a10.88 10.88 0 01-3-2.58A7.71 7.71 0 011 62.68l-1-.78a6.2 6.2 0 002.81-5zm.37 9.76v-3.4h1.22v2.31h8.19v1.09zm7.94-8.29v-2.81H10v8.49H8.8v-4.59H6.24v-1.09zm3.39-1.47v-1.1h6v1.1h-2.58a20.84 20.84 0 01-.27 3.16 12.32 12.32 0 003.5 5.49l-.92.75a13.8 13.8 0 01-3-4.28 13.55 13.55 0 01-2.11 4.44l-1.11-.58a14.69 14.69 0 002.69-9zm8.06-1.34h1.23v4.49h1.58v1.09h-1.58v5.65h-1.23zm5.84 0h1.22a9.14 9.14 0 01-.3 2.33 9.85 9.85 0 003.38 3.26l-.75.94a10.74 10.74 0 01-3.08-2.85 7.71 7.71 0 01-2.33 3.17l-1-.78a7.52 7.52 0 002.86-6.07zm7.58 10v1.09h-9.41v-3.52h1.22v2.44zm-.25-10v8.49H32.2v-8.49zm11.95 10v1.09h-9.66V63.4h1.22v2.19zm-.13-9.77v4.27h-9.53v-4.26zM36.93 59H44v-2.1h-7.07zm4.22 5.37h-1.23V62.3H35.1v-1.1h10.75v1.1h-4.7z"/></g><path fill="none" d="M0 0h193v86H0z"/></g></g></svg>