<svg xmlns="http://www.w3.org/2000/svg" width="242.224" height="84.98"><defs><style>.cls-1{fill:#999}</style></defs><g id="_6_txt01" data-name="6_txt01" transform="translate(-278.336 -4463.632)"><path id="패스_11169" data-name="패스 11169" d="M6.976-4.432v3.008A2.739 2.739 0 014.032 1.52 2.719 2.719 0 011.1-1.424v-3.008a2.736 2.736 0 012.932-2.976 2.756 2.756 0 012.944 2.976zm-2 3.008v-2.768c0-.784-.24-1.312-.944-1.312-.688 0-.944.528-.944 1.312v2.512c0 .832.272 1.328.944 1.328.608 0 .944-.416.944-1.072zm8.08-10.416V1.984H11.04v-6.608H9.792v6.448H7.808v-13.6h1.984v5.216h1.248v-5.28zm-5.872 1.424V-8.5H.8v-1.92h2.176v-1.952h2.048v1.952zm16.288 2.528a3.863 3.863 0 01-4.144 3.936A3.85 3.85 0 0115.2-7.888a3.854 3.854 0 014.128-3.952 3.867 3.867 0 014.144 3.952zm-2.064 0a2.029 2.029 0 00-2.08-2.16 2.029 2.029 0 00-2.08 2.16 2.016 2.016 0 002.08 2.144 2.016 2.016 0 002.08-2.144zM27.3-11.84V1.984h-2.116V-11.84zM24.272-.48v1.936h-9.456V-.48h3.424v-2.832h2.128V-.48zm17.264 2.464H39.52V-11.84h2.016zM31.424-8.72v7.3c0 .752.352 1.1.9 1.1.56 0 .9-.352.9-1.1v-7.3c0-.752-.336-1.1-.9-1.1-.548-.004-.9.348-.9 1.1zm-1.984 7.3v-7.3a2.746 2.746 0 012.88-3.056 2.769 2.769 0 012.912 3.056v2.16h1.216v-5.216h2v13.6h-2v-6.448h-1.216v3.2A2.751 2.751 0 0132.32 1.6a2.728 2.728 0 01-2.88-3.024zm15.584 2.988c-.656-.32-1.312-.608-1.952-.928A25.14 25.14 0 0045.76-11.7h2.128a38.421 38.421 0 01-.272 4.656A15.954 15.954 0 0051.7.08l-1.6 1.376a15.788 15.788 0 01-3.168-4.784 21.03 21.03 0 01-1.908 4.896zm8.64-6.352h-3.9v-2.032h3.9v-5.024h2.112V1.984h-2.112zm9.2 6.352L60.912.64A25.14 25.14 0 0063.6-11.7h2.128a38.421 38.421 0 01-.272 4.656A16.1 16.1 0 0069.536.1l-1.6 1.36a15.788 15.788 0 01-3.168-4.784 21.03 21.03 0 01-1.904 4.892zM73.616-11.84V1.984H71.5V-11.84zm14.24 8.608V1.9h-11.5v-5.132zm-4.848-8.384V-4.3H75.9v-7.312h2.032v1.932h3.04v-1.936zm4.848-.224v8.112h-2.112v-3.28h-2.176v-1.936h2.176v-2.9zM78.48.144h7.264v-1.616H78.48zm-.544-6.208h3.04v-1.872h-3.04zm27.984.016V-4.1H93.888v-7.52h11.888v1.952h-9.76v3.616zm.528 5.548v1.956H93.216V-.5h5.472v-2.908h2.24V-.5zm3.264-7.744a1.714 1.714 0 001.76 1.824 1.717 1.717 0 001.776-1.824 1.713 1.713 0 00-1.776-1.808 1.709 1.709 0 00-1.76 1.812zm-2.1 0a3.612 3.612 0 013.856-3.6 3.64 3.64 0 013.888 3.6 3.634 3.634 0 01-3.888 3.616 3.606 3.606 0 01-3.852-3.612zm12.32-3.6v7.248h-2.112v-7.244zm0 7.856V1.9h-11.5v-5.884h2.128V-2.8h7.28v-1.184zm-9.388 4.18h7.3V-1.1h-7.3zm18.976-6c0 1.792-1.5 3.072-3.616 3.072-2.1 0-3.6-1.28-3.6-3.072 0-1.808 1.5-3.088 3.6-3.088 2.112-.004 3.616 1.28 3.616 3.088zm4.656 5.776V1.9h-11.648v-4.124h2.112v2.192zm1.5-7.872v2.016h-1.792v4.432h-2.124V-11.84h2.128v3.94zm-5.552-3.216v1.728h-8.352v-1.728h3.04v-1.248h2.128v1.248zm-2.64 5.312a1.457 1.457 0 00-1.584-1.456 1.435 1.435 0 00-1.568 1.456A1.408 1.408 0 00125.9-4.4a1.431 1.431 0 001.588-1.408zm13.776 7.376L139.312.64A25.14 25.14 0 00142-11.7h2.128a38.421 38.421 0 01-.272 4.656A16.1 16.1 0 00147.936.1l-1.6 1.36a15.788 15.788 0 01-3.168-4.784 21.03 21.03 0 01-1.904 4.892zm10.464-6.176v6.592H149.6V-11.84h2.128v5.2h1.792v2.032zm8.116 4.064v1.92h-5.54v-7.664h2.88V-9.68h-2.88v-1.936h4.9v7.248h-2.88v3.824zm1.184-1.84h-1.44V-4.4h1.44v-2.256h-1.344v-2.016h1.344v-3.1h2.064v13.6h-2.064zm5.232 4.368h-2.08V-11.84h2.08zm1.76-7.184h13.232v1.888h-13.232zm12.7 5.168V1.9h-12.028v-4.252h2.128v2.32zm-12.032-6.56v-5.184h2.128v3.312h9.872v1.872zm29.648-5.248v7.776h-2.112v-7.776zM187.344 1.9L185.84.512a5.573 5.573 0 003.376-4.352l2.016.288a5.461 5.461 0 01-.384 1.584 5.462 5.462 0 001.728 1.7 5.508 5.508 0 001.888-3.568l2.032.288a5.8 5.8 0 01-.4 1.632 11.459 11.459 0 003.152 2.204L198.08 1.84a14.291 14.291 0 01-2.912-2.064 7.414 7.414 0 01-2.528 2.192 8.557 8.557 0 01-2.72-2.256 7.437 7.437 0 01-2.576 2.188zm.768-10.144a1.714 1.714 0 001.76 1.824 1.717 1.717 0 001.776-1.824 1.713 1.713 0 00-1.776-1.808 1.709 1.709 0 00-1.76 1.812zm-2.1 0a3.612 3.612 0 013.856-3.6 3.64 3.64 0 013.888 3.6 3.634 3.634 0 01-3.888 3.616 3.606 3.606 0 01-3.852-3.612zm16.336 0a1.688 1.688 0 001.68 1.824 1.7 1.7 0 001.712-1.824 1.7 1.7 0 00-1.712-1.808 1.683 1.683 0 00-1.676 1.812zm-2.1 0a3.562 3.562 0 013.776-3.6 3.59 3.59 0 013.808 3.6 3.6 3.6 0 01-3.808 3.616 3.575 3.575 0 01-3.768-3.612zM201.584 1.9L200.08.512a5.573 5.573 0 003.376-4.352l2.016.288a5.461 5.461 0 01-.384 1.584 5.463 5.463 0 001.728 1.7A5.508 5.508 0 00208.7-3.84l2.032.288a5.8 5.8 0 01-.4 1.632 11.459 11.459 0 003.156 2.208L212.32 1.84a14.292 14.292 0 01-2.912-2.064 7.414 7.414 0 01-2.528 2.192 8.557 8.557 0 01-2.72-2.256 7.437 7.437 0 01-2.576 2.188zm8.88-13.744h2.112v7.776h-2.112V-7.28h-2.176v-1.952h2.176zm4.4.224h7.68v1.94h-3.024a26.486 26.486 0 01-.288 3.456 15.6 15.6 0 004.112 6.336l-1.632 1.344a17.253 17.253 0 01-3.212-4.512 16.169 16.169 0 01-2.352 4.624L214.256.544a16.572 16.572 0 003.152-10.224h-2.544zm11.952-.224V1.984H224.7V-11.84zm9.5.224v7.584H229.1v-7.584zm-5.184 5.824h3.152v-4.028h-3.152zm9.92 5.76V1.9h-11.644v-4.54h2.112v2.608zm1.5-8.016v2.016h-1.792V-1.6h-2.12v-10.24h2.128v3.792zM14.56 13.88v2.02h-1.792V19H10.64v-7.84h2.128v2.72zM3.5 11.16h2.132a11.29 11.29 0 01-.272 2.464A11.063 11.063 0 009.216 17l-1.264 1.568a12.809 12.809 0 01-3.36-2.816A8.494 8.494 0 011.92 18.9L.336 17.528A7.272 7.272 0 003.5 11.16zm5.956 13.968H4.864c-2.224 0-3.616-1.008-3.616-2.848 0-1.68 1.392-2.848 3.616-2.848h4.592c2.208 0 3.6 1.168 3.6 2.848 0 1.84-1.392 2.848-3.6 2.848zm-4.592-1.792h4.592c.848 0 1.424-.416 1.424-1.056 0-.624-.576-1.056-1.424-1.056H4.864c-.88 0-1.424.432-1.424 1.056 0 .64.544 1.056 1.424 1.056zm22.656-.784c0 1.68-1.264 2.576-3.52 2.576h-5.12c-2.256 0-3.536-.9-3.536-2.576 0-1.616 1.28-2.592 3.536-2.592H24c2.256 0 3.52.976 3.52 2.592zm-2.176 0c0-.576-.432-.912-1.456-.912h-4.912c-.944 0-1.456.336-1.456.912 0 .544.448.9 1.456.9h4.912c1.024-.004 1.456-.352 1.456-.9zm-2.256-6.208H19.76v1.136h3.328zm-5.424-.1a2.41 2.41 0 01-2.32-2.5c0-1.552 1.2-2.592 3.536-2.592H24c2.32 0 3.52 1.04 3.52 2.592a2.41 2.41 0 01-2.32 2.5v1.236h2.848v1.728H14.816V17.48h2.848zm1.236-1.612h5.088c.976 0 1.36-.336 1.36-.88s-.384-.864-1.36-.864H18.9c-.912 0-1.392.32-1.392.864s.412.88 1.392.88zm18.428 2.608c0 1.808-1.472 3.088-3.68 3.088h-.16c-2.224 0-3.68-1.28-3.68-3.088 0-1.792 1.456-3.072 3.68-3.072h.16c2.208 0 3.68 1.28 3.68 3.072zm-2.08 0a1.466 1.466 0 00-1.6-1.424h-.16a1.48 1.48 0 00-1.616 1.424 1.462 1.462 0 001.616 1.424h.16a1.448 1.448 0 001.6-1.424zm6 1.152v6.592H39.12V11.16h2.128v5.2h1.792v2.032zm-2.96 4.128v1.936h-9.232V22.52h3.472v-1.808h2.128v1.808zm-.5-10.56v1.74H29.28v-1.74h3.168v-1.328h2.176v1.328zm13.332 5.232c0 1.792-1.5 3.072-3.616 3.072-2.1 0-3.6-1.28-3.6-3.072 0-1.808 1.5-3.088 3.6-3.088 2.112-.004 3.616 1.28 3.616 3.088zm4.656 5.776V24.9H44.128v-4.124h2.112v2.192zm1.5-7.872v2.016h-1.788v4.432H53.36V11.16h2.128v3.94zm-5.548-3.216v1.728h-8.352V11.88h3.04v-1.248h2.128v1.248zm-2.64 5.312a1.457 1.457 0 00-1.588-1.456 1.435 1.435 0 00-1.568 1.456A1.408 1.408 0 0047.5 18.6a1.431 1.431 0 001.588-1.408zm12.576-5.808h6.848v1.152c0 3.536-2.688 6.368-6.5 7.184l-1.04-1.664c3.008-.576 5.056-2.432 5.344-4.816h-4.652zm11.952-.224V21.4H71.5v-4.816h-3v-1.952h3V11.16zm.3 11.808V24.9H62.112v-4.54h2.128v2.608zm12.7-11.584v12.992H79.5V11.384h2.048v4.128h3.024v-4.128zm4.544 7.008v6.592h-2.12V11.16h2.128v5.2h1.792v2.032zm-9.616 4.064h3.024v-4.992h-3.016zM105.7 11.16v13.824h-2.112V11.16zm-10.068 4.288v4.88c0 1.552.624 2.272 1.744 2.272 1.136 0 1.76-.72 1.76-2.272v-4.88c0-1.536-.624-2.272-1.76-2.272-1.12 0-1.744.736-1.744 2.272zm-2.032 4.88v-4.88c0-2.736 1.5-4.224 3.776-4.224 2.3 0 3.808 1.488 3.808 4.224v4.88c0 2.72-1.5 4.192-3.808 4.192-2.276 0-3.776-1.472-3.776-4.192zm26.416-8.944V20.1h-11.888v-8.72h2.128v2.4h7.632v-2.4zm-9.76 6.768h7.632v-2.416h-7.632zm10.432 4.348v1.952h-13.232V22.5zm1.616-11.12h6.688v3.344a10.667 10.667 0 01-5.92 9.664l-1.456-1.536a8.658 8.658 0 005.248-7.84v-1.7H122.3zm11.584 7.008v6.592h-2.128V11.16h2.128v5.2h1.792v2.032zm7.424 6.176l-1.92-.7c1.856-3.648 2.064-8.128 2.064-12.56h2.08c0 1.584-.048 3.216-.176 4.816a19.267 19.267 0 003.28 7.056v-5.408h-1.984v-1.936h1.984v-4.608h2.06v13.6h-2.06v-1.5l-1.664 1.056a17.119 17.119 0 01-2.192-4.128 18.831 18.831 0 01-1.472 4.316zm10.7.416H149.9V11.16h2.112zm10.928-13.76v13.6h-2.06v-4.08h-1.728v-2h1.728v-2.62h-1.6a11.17 11.17 0 01-3.856 8.32l-1.744-1.2a9.555 9.555 0 003.536-7.856V13.32H154.3v-1.936h5.008v2.736h1.568v-2.9zm3.312 13.76h-2.112V11.16h2.112zM184.1 11.16v13.824h-2.112V11.16zm-6.916 2.94a6.1 6.1 0 01-.208.72 10.664 10.664 0 003.824 3.184c-.4.544-.816 1.072-1.248 1.616a12.648 12.648 0 01-3.52-2.864 8.968 8.968 0 01-2.976 2.976l-1.584-1.44a7.261 7.261 0 003.52-4.192h-2.848v-1.9h2.912v-1.568h2.144V12.2h3.008v1.9zm3.888 8.416v1.936h-9.456V22.52h3.424v-3.04h2.128v3.04zm5.936-2.144l-1.072-1.68a8.039 8.039 0 005.488-4.464h-4.9V12.28h4.72v-1.648h2.288v1.648h4.88v1.952h-4.688a8.048 8.048 0 01-.416 1.088 11.257 11.257 0 005.712 2.96l-.944 1.76a13.123 13.123 0 01-5.856-3.008 10.352 10.352 0 01-5.212 3.344zm12.08 2.128v1.952h-13.232V22.5h5.472v-3.02h2.24v3.02z" transform="translate(278 4476)"/><path id="패스_11595" data-name="패스 11595" class="cls-1" d="M.663.624V-1.4a2.491 2.491 0 011.261-2.448l1.9-1.235A1.812 1.812 0 004.693-6.7c0-.975-.416-1.469-1.4-1.469s-1.4.494-1.4 1.469H.663a2.306 2.306 0 012.626-2.556A2.3 2.3 0 015.915-6.7a2.712 2.712 0 01-1.378 2.514L2.665-2.977a1.594 1.594 0 00-.793 1.547v.975h4.043V.624zm10.569-2.483V-6.63c0-.975-.494-1.534-1.4-1.534s-1.4.559-1.4 1.534v4.771c0 .975.481 1.521 1.4 1.521s1.4-.546 1.4-1.521zm1.222-4.888v5.005A2.372 2.372 0 019.828.754 2.372 2.372 0 017.2-1.742v-5.005a2.375 2.375 0 012.628-2.509 2.375 2.375 0 012.626 2.509zM13.728.624V-1.4a2.491 2.491 0 011.261-2.444l1.9-1.235a1.812 1.812 0 00.869-1.621c0-.975-.416-1.469-1.4-1.469s-1.4.494-1.4 1.469h-1.23a2.306 2.306 0 012.626-2.561A2.3 2.3 0 0118.98-6.7a2.712 2.712 0 01-1.38 2.514l-1.87 1.209a1.594 1.594 0 00-.793 1.547v.975h4.043V.624zm8.736 0h-1.222v-8.658h-1.1v-1.1h2.327zM34.541-9.62v8.489h-1.222v-4.108h-3.926v-1.092h3.926v-.988h-3.926V-8.4h3.926v-1.22zM31.6-4.251v1.105h-6.588v-6.24h1.222v5.135zM34.788.39v1.092h-9.412v-3.536H26.6V.39zm8.047-6.11h1.222v3.185h1.092v1.092h-1.092V.624h-1.222v-2.067h-3.8v-.845l3.3-6.968h1.352l-3.049 6.721h2.2zm3.029 1.027v-1.066h7.475v1.066h-3.874v1.482h-1.222v-1.482zm.858 2.86V-2.9h9.165v2.757h-7.943v.676h8.19v1.079h-9.412v-2.8h7.943v-.65zm1.833-7.787h1.833c1.469 0 2.327.663 2.327 1.7s-.858 1.72-2.327 1.72h-1.833c-1.469 0-2.327-.676-2.327-1.716s.858-1.704 2.327-1.704zm1.833 1.066h-1.833c-.728 0-1.1.273-1.1.637s.377.637 1.1.637h1.833c.728 0 1.1-.273 1.1-.637s-.372-.637-1.1-.637zm1.391 5.278v-1.066h2.886V-9.62h1.222v6.344z" transform="translate(278 4547)"/><path id="패스_11171" data-name="패스 11171" class="cls-1" d="M.962-1.066V-3.51a2.123 2.123 0 012.314-2.327A2.127 2.127 0 015.6-3.51v2.444a2.114 2.114 0 01-2.327 2.3 2.11 2.11 0 01-2.311-2.3zM6.89-4.979v-4.589h1.222v11.05H6.89v-5.369H5.85v-1.092zm2.379 6.591V-9.62h1.222V1.612zM2.184-3.51v2.444c0 .728.364 1.209 1.092 1.209s1.105-.481 1.105-1.209V-3.51c0-.741-.364-1.222-1.105-1.222s-1.092.481-1.092 1.222zM.715-7.176v-1.1h1.95V-10h1.222v1.716h1.976v1.1zM22.438.533v1.079h-9.412V-1.43h7.943v-.884h-7.943v-1.079h9.165v3.016h-7.943v.91zM19.019-5.33v1.079h-6.357v-3.12h4.147v-.923h-4.147v-1.092h5.369v3.068h-4.147v.988zm3.172-4.29v5.655h-1.222v-2.353h-2.327V-7.4h2.327v-2.22zM25.7-4.368h8.437v1.092h-9.658v-6.11h9.529v1.105H25.7zM34.619.013v1.105H23.868V.013zm11.336 1.716h-3.666c-1.833 0-2.925-.923-2.925-2.249s1.092-2.262 2.925-2.262h3.666c1.833 0 2.938.923 2.938 2.262s-1.105 2.249-2.938 2.249zM42.289.65h3.666c.975 0 1.651-.45 1.651-1.17S46.93-1.7 45.955-1.7h-3.666c-.975 0-1.651.455-1.651 1.183S41.314.65 42.289.65zm6.357-10.27v6.435h-1.222v-1.547H44.6v-1.105h2.821v-1.222h-2.7v-1.105h2.7V-9.62zm-9.529.234h5.265v.663c0 2.678-2.184 4.758-5.226 5.187l-.533-1.014c2.535-.312 4.277-1.625 4.537-3.731h-4.043zm11.7 0h4.758v1.105h-1.833a28.707 28.707 0 01-.169 2.873A15.953 15.953 0 0056.225.169l-1 .7a17.074 17.074 0 01-2.055-3.95 15.25 15.25 0 01-1.729 4.355L50.323.793c1.651-2.665 2.171-5.525 2.2-9.074h-1.7zm9.529 11h-1.222V-9.62h1.222zM57.837-9.568v11.05h-1.222v-5.733h-1.768v-1.092h1.768v-4.225z" transform="translate(278 4528)"/></g></svg>