<svg xmlns="http://www.w3.org/2000/svg" width="460" height="84"><g data-name="Layer 2"><g data-name="Layer 1"><g data-name="4 tit"><path data-name="패스 11225" d="M143.4 7.63h-3.91l.85-4.63h-6.9l-.85 4.59h-4.35l.85-4.59h-6.9l-.85 4.59h-4.46l-1.22 6.66h4.45l-1.29 7.08h-4.45L113.14 28h4.45l-.85 4.59h6.9l.85-4.59h4.36l-.85 4.62h6.9l.85-4.59h3.91l1.22-6.66H137l1.3-7.08h3.91zM127 14.29h4.35l-1.29 7.08h-4.35zM176.38 2h-6.29v11.41h-1.7V2h-6.29v31h6.29V20.21h1.7V33h6.29zm-24.14 23.07V3h-7.14v30l15.64-2.38v-6.8zm36-15.4V7.8h21.46V2.7h-29.24v12.07h10.71v1.36h-11.73v5.44h31.28v-5.44H199v-1.36h10.7v-5.1zm0 18.7v-5.44h-7.82v10.71h29.28v-5.27zM244.38 2h-6.29v11.41h-1.7V2h-6.29v31h6.29V20.21h1.7V33h6.29zm-24.14 23.07V3h-7.14v30l15.64-2.38v-6.8zm28.22-2.82v11.39h29.24v-5h-21.42v-1.29h21.42v-5.1zm7.82-13.09V7.63h21.42V2.7h-29.24v11.39h29.24V9.16zm-8.84 6.29v5.44h31.28v-5.44zm54.06 6.46c0-6.9-3-11.39-10-11.39s-10 4.49-10 11.39 3 11.39 10 11.39 10-4.49 10-11.39zm9.5-8.84V2h-7.8v31h7.8V20.55h2.72v-7.48zm-15.62-9.35V1h-7.82v2.72h-6.12v6.12h20.06V3.72zM294 21.91c0 3.6-.75 4.93-2.55 4.93s-2.55-1.33-2.55-4.93.75-4.93 2.55-4.93 2.55 1.33 2.55 4.93zM315.44 3v18l20.06-1.7V18h3.06v5.78h7.82V2h-7.82v2.74h-3.06V3zm0 19.38V34h30.94v-6.48h-23.12v-5.1zm7.31-12.88h5.44v4.05l-5.44.44zm12.75.68h3.06v2.38h-3.06zM66.07 50h-7.82v4.76h-3.84c-1.16-3.33-4.52-5.1-9.93-5.1-6.8 0-10.37 2.79-10.37 8s3.57 8 10.37 8c5 0 8.3-1.5 9.66-4.42h4.11V66h7.82zM43.63 77.56v-1h22.44V67H35.13v4.42h22.44v1H35.13V82h30.94v-4.44zm.85-17.68c-2.72 0-3.57-.82-3.57-2.21s.85-2.21 3.57-2.21 3.57.82 3.57 2.21-.85 2.21-3.57 2.21zM69.13 51v30l19.72-2.35V51zm29.58 10V50h-7.82v31h7.82V68.55h2.72v-7.48zm-22.1-3.5h4.76v15.57l-4.76.55zM111 73.24V51h-7.82v30l20.06-2.38v-6.8zm21.76-12.17V50h-7.82v31h7.82V68.55h2.72v-7.48zm5.1 21.59h4.76l1.7-8.7h-6.46zm15-15c0 9.62 2.79 13.6 10 13.6 7.07 0 9.89-3.81 10-12.92h3V81h7.82V50h-7.82v11.24h-3.17c-.57-7.41-3.46-10.54-9.89-10.54-7.24 0-10 4-10 13.6zm12.58-.34c0 6.19-.68 7.48-2.55 7.48s-2.55-1.29-2.55-7.48v-2.68c0-6.19.68-7.48 2.55-7.48s2.55 1.29 2.55 7.48zm53 10.2c0-3.4-2.72-4.93-16.15-4.93s-16.15 1.53-16.15 4.93 2.72 4.93 16.15 4.93 16.14-1.53 16.14-4.93zm-12.24-10.2v-1.7h-7.9v1.7h-11.9V72H218v-4.64zm-13-8.05v-2.62h3.23V51h-10v14.32l10-.65v-5.61zM218 50h-7.15v4.76h-2.72v6.46h2.72V66H218zm-13.77 8.53v-1.9h3.23V51h-10v13.61l10-.65v-5.61zm6.29 19c0 .61-.51.85-8.33.85s-8.33-.24-8.33-.85.51-.85 8.33-.85 8.32.24 8.32.85zM244.2 50h-6.13v11.41H236V51h-15.61v6.8h8.5c0 4.18-.13 7.85-.41 11.56A102.39 102.39 0 01226.85 81H234a101.39 101.39 0 001.67-11.9 8.12 8.12 0 01.07-.85h2.34V81h6.12zm7.48 0h-6.12v31h6.11zm12.57 31l20.06-2.38V51h-7.48v8.5h-5.1V51h-7.48zm29.58-19.89V50H286v31h7.82V68.55h2.72v-7.48zM271.73 66h5.1v7l-5.1.61zm57.8-16h-7.14v31h7.14zm-32 18.36v6.8h7.82V82h7.48v-6.8h7.82v-6.8zM309 51h-11v6.8h3.37l-.77 9.2h7.14zm11.73 0H310v6.8h3l-.67 9.2h7.14zm19.38 22.2V51h-7.82v30l20.06-2.38v-6.8zm21.76-12.17V50H354v31h7.82V68.55h2.72v-7.48zm35-1.19c0-6.39-4.62-9.86-15-9.86s-15 3.47-15 9.86 4.62 9.86 15 9.86 15-3.47 15-9.86zm-12.09 14.32H379v-3.4h-7.82v3.4h-4.93V81h31.28v-6.8h-4.93v-3.4h-7.82zm4.59-14.28c0 2.38-1.56 3.4-7.48 3.4s-7.48-1-7.48-3.4 1.57-3.4 7.48-3.4 7.48 1 7.48 3.4zm22.71 2.65c-2.61 0-3.4 1-3.4 3.4v6.33h7.59v-3.17c6.49-.91 9.15-4.21 9.15-9.24 0-6-3.88-9.49-12.58-9.49s-12.58 3.54-12.58 9.15v.57h7.85v-.57c0-1.74 1.5-2.35 4.73-2.35s4.72.61 4.72 2.69-1.32 2.68-5.23 2.68zm4.19 18.09V74h-7.58v6.66z" fill="#fff"/></g><path fill="none" d="M0 0h460v84H0z"/></g></g></svg>