<svg xmlns="http://www.w3.org/2000/svg" width="213" height="86"><defs><style>.cls-1{fill:#999}</style></defs><g id="Layer_2" data-name="Layer 2"><g id="Layer_1-2" data-name="Layer 1"><g id="_6_txt05" data-name="6 txt05"><path id="패스_11183" data-name="패스 11183" d="M7.76 1.25v13H.63v-13h2.05v4.13h3V1.25zm4.54 7v6.59h-2.13V1h2.13v5.2h1.79v2zm-9.62 4.07h3v-5h-3zM26.83 1v13.85h-2.11V1zM16.76 5.32v4.88c0 1.55.63 2.27 1.75 2.27s1.76-.72 1.76-2.27V5.32c0-1.54-.63-2.28-1.76-2.28s-1.75.74-1.75 2.28zm-2 4.88V5.32c0-2.74 1.5-4.23 3.78-4.23s3.81 1.49 3.81 4.23v4.88c0 2.72-1.5 4.19-3.81 4.19s-3.81-1.47-3.81-4.19zm26.39-8.95V10H29.26V1.25h2.13v2.4H39v-2.4zM31.39 8H39V5.6h-7.61zm10.43 4.35v2H28.59v-2zm1.61-11.1h6.69V4.6a10.67 10.67 0 01-5.92 9.66l-1.45-1.54A8.67 8.67 0 0048 4.88v-1.7h-4.57zM55 8.26v6.59h-2.11V1H55v5.2h1.79v2zM73.15 1v13.85H71V1zM63.08 5.32v4.88c0 1.55.63 2.27 1.75 2.27s1.76-.72 1.76-2.27V5.32C66.59 3.78 66 3 64.83 3s-1.75.78-1.75 2.32zm-2 4.88V5.32c0-2.74 1.5-4.23 3.78-4.23s3.81 1.49 3.81 4.23v4.88c0 2.72-1.51 4.19-3.81 4.19s-3.81-1.47-3.81-4.19zm27.09 2.17v2H74.91v-2zM75.43 1.25h5.41v9.84h-2.11V3.2h-3.3zm6.1 0h5.94v9.84h-2.13V3.2h-3.81zm7.62 6.42h13.23v1.89H89.15zm12.7 5.17v1.93h-12v-4.25H92v2.32zm-12-6.56V1.09H92V4.4h9.87v1.88zm17.15.83h13.23v1.73H107zm9.18-.8h-5.12c-2.33 0-3.53-.91-3.53-2.64S108.72 1 111.05 1h5.12c2.32 0 3.52 1.05 3.52 2.64s-1.2 2.67-3.52 2.67zm-5.1-1.73h4.69c1.17 0 1.76-.24 1.76-.91s-.59-.91-1.76-.91h-4.33c-1.07 0-1.76.24-1.76.91s.42.91 1.4.91zm8.48 5.22v5h-11.9v-5zm-9.76 3.28h7.63v-1.59h-7.63zm21.81-2.15h-3.17V9.3h3.17V1h2.11v10.75h-2.12zm2.41 2v1.89H122.2V11h2.13v1.87zm-7.52-6.51h-1.65c-2 0-3.23-1-3.23-2.67S122.81 1 124.84 1h1.65c2 0 3.23 1.06 3.23 2.68s-1.2 2.69-3.23 2.69zm-1.65-1.68h1.65c.7 0 1.2-.35 1.2-1s-.5-1-1.2-1h-1.65c-.72 0-1.2.34-1.2 1s.48 1 1.2 1zM130.38 7v1.7h-4.32v2h-2.13v-2h-2.7V7zm10.42 7.44l-2-.92a25 25 0 002.69-12.34h2.13a40.15 40.15 0 01-.27 4.65 16.08 16.08 0 004.12 7.17l-1.6 1.36a15.68 15.68 0 01-3.17-4.79 21.45 21.45 0 01-1.9 4.9zM151.55 1v13.85h-2.12V1zm7 2a9.38 9.38 0 01-.2 1.18A10.17 10.17 0 00162 7.37l-1.25 1.53a11.93 11.93 0 01-3.17-2.62 8.3 8.3 0 01-2.83 2.94c-.51-.44-1-.88-1.52-1.34a6.45 6.45 0 003.28-4.82h-2.68v-1.8h7.5v1.8zm8.69 1v2h-1.74v3.22h-2.13V1h2.13v3zm-5 11h-4.81c-2.21 0-3.49-1-3.49-2.72s1.28-2.76 3.49-2.76h4.81c2.23 0 3.5 1.14 3.5 2.76S164.51 15 162.28 15zm-4.81-1.8H162c1 0 1.66-.25 1.66-.92s-.62-1-1.66-1h-4.12c-1.07 0-1.66.24-1.66 1-.05.56.41.92 1.25.92zM176.2 5a3.86 3.86 0 01-3.75 4h-.39a3.86 3.86 0 01-4.12-3.57v-.42a3.86 3.86 0 013.73-4h.4a3.88 3.88 0 014.14 3.61 2.29 2.29 0 01-.01.38zm-2.06 0a2 2 0 00-1.88-2.18h-.2a2 2 0 00-2.09 2 1.34 1.34 0 000 .2 2 2 0 001.88 2.19h.2a2 2 0 002.09-2 1.41 1.41 0 000-.21zm3.78 9.84V1H180v13.85zm-10.37-.53v-1.92H177v1.93zm22.21-4.48h-.3c-2 0-3.46-1.18-3.46-3s1.5-3 3.46-3h.3c2 0 3.45 1.17 3.45 3s-1.5 3.01-3.45 3.01zM197.87 1v8.84h-2.11V8.53h-2V6.79h2V5.56h-2V3.81h2V1zm0 9.44V15h-2.11v-2.64h-9.54v-1.89zm-4.05-8.74v1.73h-8.35V1.7h3V.5h2.12v1.2zm-4.37 6.47h.3A1.31 1.31 0 00191.17 7v-.1a1.33 1.33 0 00-1.34-1.32h-.39A1.31 1.31 0 00188 6.74a.41.41 0 000 .11 1.3 1.3 0 001.28 1.32zm23 4.67v1.93H200.6v-4.54h2.13v2.61zM212.11 1v10.27H210V1zm-9.47 0h2.13a12.76 12.76 0 01-.35 3 11.65 11.65 0 003.92 3.66l-1.27 1.58a13.08 13.08 0 01-3.42-3A8.89 8.89 0 01201 9.59l-1.58-1.36A8.56 8.56 0 00202.63 1zM12.81 36.19v1.58H.78V34h9.76v-.63H.78V31.8h11.89v3.78H2.91v.61zM.11 29.57h13.23v1.6H.11zm12.56-5.31v1.64H.78v-1.65zm-7.75 3.1h3.36c.08-.39.18-.77.28-1.16h2.19l-.29 1.16h2.35v1.58H.63v-1.58h2.16V26.2h2.13zm17 6.57a11.3 11.3 0 005.36 2.15l-.8 1.7a13.53 13.53 0 01-5.68-2.4 8.8 8.8 0 01-5.06 2.43l-1-1.68c2.61-.26 4.82-1.57 5.65-3.54l1.95.59a6.59 6.59 0 01-.47.75zm5-9.9v9.14h-2v-4h-1.37v3.37h-2v-8.45h2v3.23h1.25V24zm-6 6.46v1.73h-6.04v-4.86h3.52V26h-3.52v-1.75h5.52v4.82h-3.52v1.42zm20.34 2.69v4.59h-12v-4.59zm-9.76 2.91H39v-1.25h-7.61zm4.81-6.5v1h5.62v1.73H28.59v-1.7h5.49v-1h-5V28h2.16v-1.62h2.16V28h3.32c.11-.53.25-1.06.36-1.59h2.2L38.89 28h2.4v1.6zm4.95-5.34V26h-12v-1.75zm14.16 13.6h-2V24h2zM45.2 27.15v7.3c0 .75.35 1.1.9 1.1s.9-.35.9-1.1v-7.3c0-.75-.34-1.1-.9-1.1s-.9.35-.9 1.1zm-2 7.3v-7.3a2.9 2.9 0 015.8-.31 1.6 1.6 0 010 .31v2.16h1.22v-5.22h2v13.6h-2v-6.45H49v3.2a2.9 2.9 0 11-5.79.31v-.31zm15.59 3c-.66-.32-1.32-.61-2-.93a25 25 0 002.69-12.34h2.13a40.15 40.15 0 01-.27 4.65 15.83 15.83 0 004.08 7.12l-1.6 1.38a15.76 15.76 0 01-3.17-4.78 21.63 21.63 0 01-1.9 4.9zm8.64-6.35h-3.9v-2h3.9V24h2.11v13.85h-2.11zm20-6.83v6.68H75.58v-6.7zM77.71 29h7.63v-2.81h-7.63zm10.43 3.58v2h-2.83V38h-2.13v-3.44h-3.31V38h-2.11v-3.44h-2.85v-2zm1.54-8.34h7.68v1.94h-3a24.83 24.83 0 01-.36 3.46A15.57 15.57 0 0098.16 36l-1.64 1.34a17.31 17.31 0 01-3.21-4.51A16.44 16.44 0 0191 37.44l-1.89-1a16.56 16.56 0 003.15-10.22h-2.58zm11.95-.24v13.85h-2.11V24zm2.73 13.74v-4.43h2.13v2.53h9.68v1.93zm2-13.75h2.12a13.85 13.85 0 01-.35 3.08 11.9 11.9 0 003.92 3.68l-1.26 1.57a12.87 12.87 0 01-3.44-3 8.73 8.73 0 01-2.66 3.33l-1.58-1.36A8.64 8.64 0 00106.4 24zm7.36 1.27V24h2.11v10.27h-2.11v-4.66h-3V27.9h3V27h-3v-1.71zm20-1V26h-4.51l-.44.56a14 14 0 005.48 1.53l-.84 1.57a14.17 14.17 0 01-5.93-1.9 10.7 10.7 0 01-5.25 2.1l-.91-1.54a9.41 9.41 0 005.4-2.32h-4.82v-1.75zm.14 11.28c0 1.6-1.34 2.46-3.52 2.46h-5.12c-2.17 0-3.53-.86-3.53-2.46s1.36-2.5 3.53-2.5h1.39V32h-5.45v-1.72h13.23V32h-5.65v1h1.6c2.18 0 3.52.93 3.52 2.49zm-2.17 0c0-.48-.4-.82-1.38-.82h-5.07c-.91 0-1.38.34-1.38.82s.4.78 1.38.78h5.07c1 0 1.38-.31 1.38-.78zm4.68 2.24v-5.5h11.5v5.5zm9.4-1.79v-1.93h-7.27V36zm0-4.34V24H148v7.61zM138.4 24h2.12a11.4 11.4 0 01-.27 2.47 11.11 11.11 0 003.86 3.38l-1.27 1.57a13 13 0 01-3.36-2.82 8.46 8.46 0 01-2.67 3.15l-1.58-1.37A7.3 7.3 0 00138.4 24zm24.54 11.35v2h-13.23v-2zm-4.8-3.35h-3.62c-2.7 0-4.43-1.68-4.43-4s1.73-4 4.43-4h3.62c2.7 0 4.43 1.67 4.43 4s-1.73 4-4.43 4zm-3.58-2h3.53a2.06 2.06 0 00.43-4.1h-4a2.06 2.06 0 10-.39 4.1zm22.1 1v1.9h-12v-5.27h9.76v-1.54h-9.76v-1.84h11.89v5.19h-9.76v1.63zm.52 4.32v1.94H164v-1.87h5.47v-1.94h2.24v1.94z"/><path id="패스_11587" data-name="패스 11587" class="cls-1" d="M.2 84.49v-2A2.48 2.48 0 011.46 80l1.9-1.23a1.85 1.85 0 00.87-1.62c0-1-.42-1.47-1.4-1.47s-1.4.49-1.4 1.47H.2a2.31 2.31 0 012-2.57 2.49 2.49 0 01.61 0 2.3 2.3 0 012.62 1.93 2.66 2.66 0 010 .63 2.72 2.72 0 01-1.38 2.51L2.2 80.89a1.6 1.6 0 00-.8 1.55v1h4.05v1.08zM10.76 82v-4.76c0-1-.49-1.54-1.4-1.54S8 76.26 8 77.24V82c0 1 .49 1.52 1.4 1.52S10.76 83 10.76 82zM12 77.12v5a2.38 2.38 0 01-2.23 2.5 1.77 1.77 0 01-.4 0 2.37 2.37 0 01-2.62-2.1 2.54 2.54 0 010-.39v-5A2.38 2.38 0 019 74.6a2.77 2.77 0 01.41 0A2.38 2.38 0 0112 76.72v.4zm1.27 7.37v-2A2.5 2.5 0 0114.52 80l1.9-1.23a1.81 1.81 0 00.87-1.62c0-1-.42-1.47-1.4-1.47s-1.4.49-1.4 1.47h-1.23a2.31 2.31 0 012-2.57 2.15 2.15 0 01.62 0 2.29 2.29 0 012.61 1.93 1.9 1.9 0 010 .63 2.7 2.7 0 01-1.38 2.51l-1.87 1.21a1.59 1.59 0 00-.79 1.55v1h4v1.08zM23.83 82v-4.76c0-1-.49-1.54-1.4-1.54s-1.4.56-1.4 1.54V82c0 1 .48 1.52 1.4 1.52s1.4-.52 1.4-1.52zm1.22-4.89v5a2.37 2.37 0 01-2.22 2.51h-.4a2.38 2.38 0 01-2.62-2.1 2.71 2.71 0 010-.4v-5A2.38 2.38 0 0122 74.6a2.81 2.81 0 01.41 0A2.38 2.38 0 0125 76.72a1.79 1.79 0 010 .4zm11.1-2.87v8.49h-1.22v-4.1H31v-1.09h3.92v-1H31v-1.07h3.92v-1.22zm-2.93 5.37v1.1h-6.6v-6.23h1.23v5.14zm3.18 4.64v1.09H27v-3.53h1.22v2.45zm8.05-6.11h1.22v3.18h1.09v1.1h-1.09v2.06h-1.22v-2.05h-3.8v-.85l3.3-7h1.35l-3 6.72h2.2zm3 1v-1.03H55v1.07h-3.92v1.48h-1.22v-1.48zm.88 2.86v-1h9.17v2.76h-7.94v.67h8.19v1.08h-9.42v-2.8h8V82zm1.84-7.79H52c1.47 0 2.33.66 2.33 1.7s-.86 1.72-2.33 1.72h-1.83c-1.47 0-2.33-.68-2.33-1.72s.86-1.66 2.33-1.66zm1.83 1.1h-1.83c-.73 0-1.1.28-1.1.64s.37.64 1.1.64H52c.73 0 1.1-.27 1.1-.64s-.37-.64-1.1-.64zm1.39 5.28v-1.06h2.89v-5.28h1.22v6.34z"/><path id="패스_11181" data-name="패스 11181" class="cls-1" d="M10.27 65.27v1.08H.61v-2.87h8.31v-.7H.61V61.7h9.53v2.86H1.83v.71zM0 59.89h10.75V61H0zm10.14-4.41v3.71H.61v-3.71h1.22v.78h7.09v-.78zm-8.31 2.64h7.09v-.79H1.83zM22 61.18v1.09h-9.69v-4h8.31v-1.68h-8.31v-1.11h9.53v3.92h-8.31v1.78zm.48 3.7V66H11.7v-1.12h4.77v-2h1.22v2zM29.76 66h-5.87V55.49h5.26v1.1h-4v3.3H29V61h-3.88v3.9h4.64zm2.44-5h-2.56v-1.11h2.56v-4.64h1.22v11.23H32.2z"/></g><path fill="none" d="M0 0h213v86H0z"/></g></g></svg>