<svg xmlns="http://www.w3.org/2000/svg" width="375" height="334"><defs><style>.cls-2{fill:#999}</style></defs><g id="Layer_2" data-name="Layer 2"><g id="Layer_1-2" data-name="Layer 1"><g id="Layer_1-2-2" data-name="Layer 1-2"><path fill="none" d="M0 0h375v334H0z" id="Layer_1-2-2-2" data-name="Layer 1-2-2"/></g><g id="_8_notice" data-name="8 notice"><g id="그룹_4646" data-name="그룹 4646"><path id="패스_11455" data-name="패스 11455" class="cls-2" d="M27.55 99.06a6.26 6.26 0 01-1.49-.18 4.15 4.15 0 01-1.12-.44l.26-1.16a3.21 3.21 0 00.95.36 5.39 5.39 0 001.13.15 2.34 2.34 0 001.4-.38 1.34 1.34 0 00.49-1.12c0-.88-.61-1.33-1.84-1.35h-.92v-1.19h.82a2.12 2.12 0 001.24-.37 1.11 1.11 0 00.47-1c0-.81-.53-1.22-1.58-1.22a4.63 4.63 0 00-1.9.47l-.18-1.18a4 4 0 011.13-.4 6.18 6.18 0 011.36-.17 3.19 3.19 0 012 .59 1.91 1.91 0 01.76 1.63 2.1 2.1 0 01-1.6 2.08 2.06 2.06 0 011.9 2.18 2.37 2.37 0 01-.89 2 3.69 3.69 0 01-2.39.7zm4.42.08v-1.53h1.59v1.53zm15.15 1.35h-1.51V88.9h1.51zm-8.45-3.66a5.07 5.07 0 01-.8-3 5.16 5.16 0 01.8-3 2.69 2.69 0 013.74-.65 2.91 2.91 0 01.66.65 5.31 5.31 0 01.8 3 5.24 5.24 0 01-.8 3 2.7 2.7 0 01-3.76.64 2.59 2.59 0 01-.64-.64zm3.74-3a4.48 4.48 0 00-.41-2.12 1.26 1.26 0 00-1.12-.79 1.24 1.24 0 00-1.08.79 5.59 5.59 0 000 4.25A1.17 1.17 0 0042 96a4.44 4.44 0 00.41-2.16zm11.15 1.6h-4.69v-5.64h1.53v1.7H52v-1.73h1.52v2.15h1v-2.8h1.45v8.06H54.6v-4h-1zm5 4.76h-8.14v-3.71h1.51V99h6.66zm-.28-2.71h-1.41V88.9h1.44zM52 94.25v-1.59h-1.6v1.59zm16.23-.74h-6v1.26h6.43V96h-7.93v-6.19h7.81V91h-6.31v1.3h6zm1.58 4.33V99H59.38v-1.2zm10.92-2H70.31v-1.23h10.46zm-1.29-2.53h-7.73v-4h1.52v2.79h6.25zm.08 6.87h-7.87v-3.42h1.5V99h6.41zm14.34.31h-1.48V88.9h1.52zm-3.52-10.38a9.16 9.16 0 01-5.17 8.28l-.94-1.14a7.82 7.82 0 003.09-2.49 6.59 6.59 0 001.38-3.39h-3.77v-1.26zm14.76 10.38h-1.45v-5.81h-.93V100h-1.42V89.11h1.42v4.34h.93V88.9h1.45zm-4.16-3.79l-.85 1.11a4.72 4.72 0 01-1.2-1.16 4.64 4.64 0 01-.83-1.53 4.8 4.8 0 01-.85 1.67 4.51 4.51 0 01-1.33 1.28l-.92-1a5.64 5.64 0 002.39-5v-.57H95.4v-1.2h5.22v1.2h-1.8v.5a7.1 7.1 0 00.54 2.91 3.79 3.79 0 001.58 1.79zm12.9-.83q-1.68.21-3.72.3-2.28.12-3.84.12l-.21-1.24h3.15V93.7h-2v-4h5.44v1.21h-3.92v1.56h4v1.23h-2V95c1.21-.06 2.19-.14 2.94-.25zm2-7v8.5h-1.54V88.9zm.1 11.25h-7.84V96.9h1.54v2h6.29zm13.84.34h-1.52V88.9h1.52zm-2.39-3.77l-.89 1.14a6.4 6.4 0 01-1.5-1.39 6 6 0 01-1-1.81 5.59 5.59 0 01-1.08 2 5.71 5.71 0 01-1.69 1.48l-.99-1.11a6 6 0 002.87-5.34v-1.78h1.57v1.69a5.74 5.74 0 002.68 5.15zm14.44-3.27h-1.65v3.84h-1.54V88.9h1.54v3.3h1.65zm-4.89-3.66a5.75 5.75 0 01-1.48 4A7.4 7.4 0 01131.7 96l-.76-1.21a6.15 6.15 0 002.82-1.28 4 4 0 001.52-2.45h-3.75v-1.27zm3.53 10.36h-7.74v-3.7h1.54v2.52h6.2zm14.23.34h-1.51V88.9h1.51zm-8.44-3.66a5.07 5.07 0 01-.8-3 5.16 5.16 0 01.8-3 2.68 2.68 0 013.73-.65 2.72 2.72 0 01.66.65 5.16 5.16 0 01.8 3 5.09 5.09 0 01-.8 3 2.69 2.69 0 01-3.75.64 2.43 2.43 0 01-.66-.61zm3.74-3a4.6 4.6 0 00-.43-2.13 1.28 1.28 0 00-1.12-.79 1.24 1.24 0 00-1.09.79 5.59 5.59 0 000 4.25 1.24 1.24 0 001.09.78 1.27 1.27 0 001.12-.78 4.41 4.41 0 00.42-2.12zm15 .4a1.5 1.5 0 01-1 1.35 7.85 7.85 0 01-5.46 0 1.48 1.48 0 01-1-1.35 1.5 1.5 0 011-1.36 7.8 7.8 0 015.47 0 1.51 1.51 0 011 1.37zm-3 6.23h-1.52v-2.69H156v-1.2h10.5v1.2H162zm3.91-8.43h-9.27v-1.2h9.27zm-6.7-1.74v-1.2h4.13v1.18zm4.25 4c0-.22-.21-.39-.62-.52a6.38 6.38 0 00-3.1 0c-.4.13-.6.31-.6.53s.2.38.6.5a5.38 5.38 0 001.54.19 5.47 5.47 0 001.56-.19c.41-.12.61-.28.61-.49zm16.16.51h-1.51v-1.13h-1.68v-1.15h1.68v-1h-1.68v-1.17h1.68V88.9h1.51zm.36 5.64h-8v-3.1h6.11v-.81H172v-1.21h7.67v3.1h-6.09v.78H180zm-4.11-6h-5.46v-5H172v1.4h2.4v-1.42h1.52zm-1.52-1.21V92H172v1.21zm15.8 2h-3.22v2.68h4.5V99H181v-1.2h4.45v-2.64h-3.09v-5.41h7.77V91h-6.25v3h6.31zm15.29 3.7H195v-1.25h3.75v-3.9h1.53v3.9h5.18zm-1.2-8.94a25.8 25.8 0 01-.49 6.56l-1.46-.18a19.44 19.44 0 00.42-5.16h-6.62v-1.26zm8.89 6.63l-.84 1.18a5.91 5.91 0 01-1.67-1.35 5 5 0 01-1.13-1.76 4.77 4.77 0 01-1 1.9A5.23 5.23 0 01206.7 98l-.91-1.13a5.48 5.48 0 002.9-5.27v-.3h-2.31v-1.21h6.15v1.21h-2.23v.3a5.11 5.11 0 002.84 5zm2.35 3.94H214V88.9h1.52zm14-5.36H228v-2.5h-1.55v-1.22H228V88.9h1.52zM220.84 94a2.38 2.38 0 01-.86-1.91 2.51 2.51 0 01.85-2 3.28 3.28 0 014.27 0 2.59 2.59 0 01.86 2 2.47 2.47 0 01-.85 1.9 3.12 3.12 0 01-2.14.75 3.17 3.17 0 01-2.13-.74zm1.07-3a1.41 1.41 0 00-.45 1 1.3 1.3 0 00.43 1 1.62 1.62 0 002.17 0 1.3 1.3 0 00.42-1 1.51 1.51 0 00-1.48-1.41 1.53 1.53 0 00-1 .45zm3.33 9.29h-4.15v-4.47h1.43V97h1.3v-1.21h1.42zm-1.42-1.13v-1.04h-1.3v1.08zm6.63.08l-.8 1.14a3.18 3.18 0 01-1-.65 2.38 2.38 0 01-.71-1 2.25 2.25 0 01-.69 1 3.44 3.44 0 01-1.1.7l-.83-1.2a2.66 2.66 0 001.87-2.67v-.87h1.5v.87a3.18 3.18 0 00.46 1.72 2.4 2.4 0 001.3 1zm10 1.21h-1.51V88.9h1.51zM232 96.83a4.93 4.93 0 01-.8-3 5.16 5.16 0 01.8-3 2.68 2.68 0 013.73-.65 2.72 2.72 0 01.66.65 5.16 5.16 0 01.8 3 5.09 5.09 0 01-.8 3 2.7 2.7 0 01-3.76.64 2.56 2.56 0 01-.63-.64zm3.73-3a4.47 4.47 0 00-.42-2.13 1.28 1.28 0 00-1.12-.79 1.24 1.24 0 00-1.09.79 5.59 5.59 0 000 4.25 1.23 1.23 0 001.09.78 1.27 1.27 0 001.12-.78 4.41 4.41 0 00.42-2.12zm16.15 2.85L251 97.8a5.72 5.72 0 01-1.68-1.37 4.84 4.84 0 01-1.1-1.78 5.72 5.72 0 01-2.81 3.35l-.94-1.13a5.53 5.53 0 002.94-5.26v-.31h-2.34v-1.21h6.18v1.25H249v.3a5.34 5.34 0 002.86 5zm2.07-7.79v4.46h1.65v1.26h-1.65v5.87h-1.53V88.9zM265 93.2h-3.27v1.13h4.49v1.2h-10.45v-1.2h4.44v-1.12h-3v-4h7.76v1.23h-6.24V92H265zm0 5.13a1.76 1.76 0 01-1 1.59 7.93 7.93 0 01-5.94 0 1.72 1.72 0 010-3.17 7.89 7.89 0 015.94 0 1.75 1.75 0 011 1.58zm-2.2.67c.45-.17.67-.41.67-.7s-.22-.54-.67-.7a4.85 4.85 0 00-1.81-.26 4.72 4.72 0 00-1.79.26c-.45.17-.67.4-.67.7s.22.52.67.7a5.14 5.14 0 001.79.25 5.29 5.29 0 001.81-.25zm16.25-.71a1.75 1.75 0 01-1.05 1.62 8 8 0 01-5.95 0 1.69 1.69 0 010-3.14 7.93 7.93 0 015.94 0 1.74 1.74 0 011.07 1.56zm.7-5.81l-.65 1.2a6.46 6.46 0 01-2.43-.73 3.91 3.91 0 01-1.67-1.43 3.48 3.48 0 01-1.55 1.48 6.24 6.24 0 01-2.53.72l-.62-1.18a5.77 5.77 0 002.4-.62 2.87 2.87 0 001.4-1.39h-3.27v-1.2h8.39v1.2H276a2.93 2.93 0 001.48 1.38 5.42 5.42 0 002.3.6zm.49 3.15h-10.46v-1.17h4.45V93h1.52v1.46h4.5zM276.81 99c.45-.17.68-.41.68-.7s-.23-.54-.68-.7a5.29 5.29 0 00-1.81-.26 5.18 5.18 0 00-1.79.26c-.44.16-.66.4-.66.7s.22.53.66.7a5.17 5.17 0 001.79.25 5.25 5.25 0 001.81-.25zm13.36-3h-1.67v1.8h2.66V99H280.7v-1.2h2.64V96H282v-3.81h6.29v-1.34H282v-1.2h7.87v3.75h-6.29v1.4h6.63zm-5.35 0v1.8H287V96zm16.46 4.31h-7.75v-4.15h1.53v1h4.68v-1h1.54zm-2-5.17q-1.91.24-3.72.3c-1.89.08-3.16.12-3.82.12l-.22-1.21h3.14v-1.14h-2v-3.79h5.44v1.21h-3.93V92h4v1.21h-2v1.05c1.12-.05 2.1-.12 2.94-.22zm2-6.27v6.66h-1.53V88.9zm-1.55 10.26v-.91h-4.68v.91zm12.36-10.23v11.59h-1.49V88.9zm-2.67 6.95l.2 1.22a17.19 17.19 0 01-2.56.38c-1.07.09-2 .14-2.81.14h-1.07v-7.53h1.5v6.23a21.57 21.57 0 004.74-.44zm13.09-6.95v4.37h1.66v1.26h-1.66v6H321V88.9zm-7.1 7.65a22.6 22.6 0 004.59-.35l.08.6.09.6a23.22 23.22 0 01-5.13.39h-1.14V90h5.29v1.22h-3.78zm9.42 2.59v-1.53h1.59v1.53z"/><path id="패스_11452" data-name="패스 11452" class="cls-2" d="M28.89 131.07v-1.82h-4.1v-.94l4.52-6.3h1.09v6.06h1.31v1.18H30.4v1.82zm-2.35-3h2.36v-3.36zm5.77 3.07v-1.53h1.58v1.53zm14-10.24v4.45H48v1.26h-1.7v5.88h-1.55V120.9zm-9 4.94a5.16 5.16 0 01.8-3 2.7 2.7 0 013.75-.65 2.86 2.86 0 01.65.65 5.16 5.16 0 01.8 3 5.09 5.09 0 01-.8 3 2.69 2.69 0 01-3.76.63 2.73 2.73 0 01-.64-.63 5.09 5.09 0 01-.78-3zm4.55 0a4.6 4.6 0 00-.43-2.13 1.28 1.28 0 00-1.12-.79 1.24 1.24 0 00-1.09.79 5.47 5.47 0 000 4.25 1.25 1.25 0 001.09.78 1.27 1.27 0 001.12-.78 4.56 4.56 0 00.45-2.12zm15.8 6.65h-1.43v-5.81h-1V132h-1.41v-10.89h1.43v4.34h1v-4.55h1.45zm-4.4-3.08a18.47 18.47 0 01-4.13.32h-.92v-4.57h2.85v-1.79h-2.85v-1.21h4.39v4.19h-2.85v2.17a15.78 15.78 0 003.36-.28c.08.52.14.91.17 1.17zm7.17-5a1.46 1.46 0 00.44 1.1 1.71 1.71 0 001.22.43 1.74 1.74 0 001.22-.43 1.43 1.43 0 00.45-1.1 1.36 1.36 0 00-.45-1 1.73 1.73 0 00-1.22-.43 1.67 1.67 0 00-1.21.43 1.37 1.37 0 00-.46 1zm7.76-3.51v11.59h-1.5V120.9zm-9.33 3.53a2.54 2.54 0 01.89-2 3.92 3.92 0 014.67 0 2.72 2.72 0 010 4 3.89 3.89 0 01-4.67 0 2.57 2.57 0 01-.87-2zm7.33 5.1c-1.14.15-2.44.26-3.91.34-1.73.06-2.95.09-3.64.09l-.22-1.3c1.42 0 2.68 0 3.77-.07 1.51-.05 2.8-.15 3.87-.28zm14.63-8.63v4.46h1.68v1.25h-1.66v5.88h-1.51V120.9zm-2.08 7.69l-.45.57-.45.56a7.52 7.52 0 01-1.6-1.43 5.13 5.13 0 01-1.08-1.81 5.83 5.83 0 01-1.06 2 6.37 6.37 0 01-1.66 1.52c-.43-.52-.74-.88-.94-1.1a6 6 0 002.88-5.38v-1.59H76v1.51a5.93 5.93 0 002.81 5.2zm13-4.59a2.14 2.14 0 01-1.13 1.86 6.65 6.65 0 01-6 0 2.11 2.11 0 01-.88-2.84 2.19 2.19 0 01.88-.88 6.69 6.69 0 016 0 2.14 2.14 0 011.11 1.86zm-5.36 8.47h-1.54v-3.86h-2.46v-1.21h10.47v1.21h-2.51v3.86h-1.52v-3.86h-2.46zm3.08-7.5a1.13 1.13 0 00.7-1 1.1 1.1 0 00-.69-1 4.64 4.64 0 00-3.69 0 1.09 1.09 0 00-.69 1 1.11 1.11 0 00.69 1 4.62 4.62 0 003.68 0zm11.08 7h-1.45v-5.39h-1a5.37 5.37 0 01-.73 2.53 2 2 0 01-1.78 1 1.9 1.9 0 01-1.43-.61 3.37 3.37 0 01-.82-1.52 7.8 7.8 0 01-.24-2 7.53 7.53 0 01.24-2 3.34 3.34 0 01.82-1.51 1.9 1.9 0 011.43-.61 2 2 0 011.78 1 5.45 5.45 0 01.73 2.54h1v-4.18h1.43zm2.31.54h-1.45V120.9h1.43zM96.43 128a7.5 7.5 0 000-4.06c-.18-.53-.46-.79-.83-.79s-.62.26-.8.79a6.08 6.08 0 00-.28 2 6 6 0 00.28 2c.18.53.45.79.8.79s.66-.26.84-.78zm19.76 4.54h-1.44v-5.68h-1V132h-1.41v-10.89h1.41v4.47h1v-4.68h1.45zm-5.25-6.54a2.53 2.53 0 010 3.49 2.57 2.57 0 01-1.83.66 2.53 2.53 0 01-1.83-.68 2.32 2.32 0 01-.7-1.72 2.29 2.29 0 01.7-1.75 2.87 2.87 0 013.66 0zm-4.61-1.09v-1.21h5.53v1.21zm4 2.84a1.2 1.2 0 00-.33-.87 1.2 1.2 0 00-1.67 0 1.2 1.2 0 00-.33.87 1.21 1.21 0 00.33.87 1.17 1.17 0 002-.87zm-2.74-4.75v-1.2h3.12v1.2zm11.23 2.83a22 22 0 004.58-.35l.17 1.17a24.46 24.46 0 01-5.12.4h-1.13v-5.28h5.16V123h-3.66zm8.8-.88H126v2.72h-1.53v-6.77H126v2.83h1.64zm-1.5 5.19a1.9 1.9 0 01-1.05 1.69 5.79 5.79 0 01-2.92.62 5.69 5.69 0 01-2.9-.62 1.91 1.91 0 01-.84-2.57 1.85 1.85 0 01.84-.84 5.59 5.59 0 012.9-.62 5.7 5.7 0 012.93.62 1.92 1.92 0 011 1.72zm-2.2.81a.9.9 0 00.63-.81.91.91 0 00-.63-.82 5.34 5.34 0 00-3.53 0 .91.91 0 00-.63.82.89.89 0 00.63.81 5.47 5.47 0 003.53 0zm10.28-6.09h-6.72v-1.21h6.72zm-5.1-2v-1.19h3.58v1.2zm7.49-1.95v4.7h1.61v1.26h-1.61v5.63h-1.53v-11.6zm-8.54 6.87a2.31 2.31 0 01.78-1.79 3.25 3.25 0 014 0 2.45 2.45 0 010 3.58 3.26 3.26 0 01-4 0 2.33 2.33 0 01-.77-1.8zm1.48 0a1.21 1.21 0 00.37.91 1.49 1.49 0 001.91 0 1.27 1.27 0 00.35-.92 1.21 1.21 0 00-.37-.92 1.44 1.44 0 00-1.89 0 1.17 1.17 0 00-.36.92zm19.06.06h-10.46v-1.22h10.46zm-1.29-2.52h-7.77v-4h1.52v2.82h6.26zm.08 6.87h-7.92v-3.42H141V131h6.41zm13.23-6.2h-7.78v-4.6h1.52v1.2h4.76v-1.22h1.5zm-3 4h-1.53v-1.9h-4.57v-1.19H162v1.2h-4.37zm3.14 2.23h-7.9v-3.25h1.52v2h6.39zm-1.62-7.42v-1h-4.76v1zm12.22 0h-7.85v-3.7h7.76v1.21H165v1.29h6.33zm1.22 1.94h-10.49v-1.22h10.47zm-1 5.69h-8.16v-3h6.22v-.7h-6.3v-1.2h7.83v3h-6.24v.68h6.66zm11.58-4.43h-10.47v-1.22h10.47zm-1.21 4.23h-8v-3.43h1.52v2.2h6.45zm0-8.53a1.92 1.92 0 01-1.08 1.69 5.84 5.84 0 01-3 .65 5.72 5.72 0 01-2.95-.65 1.85 1.85 0 010-3.36 5.76 5.76 0 012.94-.65 5.84 5.84 0 013 .65 1.9 1.9 0 011.15 1.62zm-1.57 0a1 1 0 00-.67-.85 4.47 4.47 0 00-1.81-.32 4.4 4.4 0 00-1.79.32 1 1 0 00-.67.85c0 .34.22.61.67.82a4.23 4.23 0 001.79.31 4.3 4.3 0 001.81-.31c.47-.24.69-.52.69-.85zm7.54 2.17a22 22 0 004.58-.35l.17 1.17a24.5 24.5 0 01-5.13.4h-1.13v-5.28h5.16V123h-3.65zm8.8-.88h-1.64v2.72h-1.53v-6.81h1.53v2.83h1.64zm-1.5 5.19a1.9 1.9 0 01-1 1.69 5.7 5.7 0 01-2.93.62 5.62 5.62 0 01-2.9-.62 1.91 1.91 0 010-3.41 5.62 5.62 0 012.9-.62 5.76 5.76 0 012.94.62 1.94 1.94 0 011.05 1.72zM193 131a.9.9 0 00.63-.81.91.91 0 00-.63-.82 5.34 5.34 0 00-3.53 0 .92.92 0 00-.64.82.9.9 0 00.64.81 5.47 5.47 0 003.53 0zm13.19 1.38h-7.68v-4h7.68zm-9.2-8.12V123h6.1v1.21h-2.21a3.07 3.07 0 002.51 2.42c-.18.26-.43.65-.76 1.17a5.31 5.31 0 01-1.48-.8 3.6 3.6 0 01-1.1-1.26 3.6 3.6 0 01-1.07 1.43 4.75 4.75 0 01-1.65.94c-.09-.15-.24-.36-.44-.63l-.39-.54q2.43-.83 2.7-2.73zm9.2 3.52h-1.49v-2h-1.76v-1.23h1.76v-3.65h1.52zm-1.52 3.41v-1.68h-4.64v1.68zm-6.3-8.74v-1.18h3.37v1.18zm21.46 10.08h-1.45v-5.81h-1V132H216v-10.89h1.43v4.36h1v-4.57h1.45zm-8-4a13.08 13.08 0 003.36-.26l.14 1.2a17.11 17.11 0 01-3.91.31h-1.1v-7.47h4.38v1.21h-2.86zm19.45-3.59h-1.65v2.77h-1.53v-6.81h1.53v2.76h1.65zm-3.9 1l-.87 1.18a4.87 4.87 0 01-1.48-.93 4.37 4.37 0 01-1.12-1.41 3.54 3.54 0 01-1 1.59 4.56 4.56 0 01-1.65 1l-.92-1.21a4.38 4.38 0 002-1.44 3.66 3.66 0 00.76-2.28v-1.09h1.56v1a3.31 3.31 0 00.8 2.23 4.18 4.18 0 001.9 1.31zm2.38 4.19a1.93 1.93 0 01-1 1.71 5.81 5.81 0 01-2.93.63 5.72 5.72 0 01-2.9-.63 1.94 1.94 0 01-.84-2.6 2 2 0 01.84-.84 7.08 7.08 0 015.84 0 1.92 1.92 0 011 1.73zm-4-1.15a4.18 4.18 0 00-1.75.31.86.86 0 000 1.66 4.41 4.41 0 001.76.3 4.56 4.56 0 001.79-.3.86.86 0 000-1.66 4.39 4.39 0 00-1.79-.31zm12.98 3.02h-1.43v-5.39h-1a5.27 5.27 0 01-.74 2.53 2 2 0 01-1.77 1 1.9 1.9 0 01-1.43-.61 3.39 3.39 0 01-.83-1.52 8.25 8.25 0 01-.24-2 8 8 0 01.24-2 3.45 3.45 0 01.83-1.51 1.9 1.9 0 011.43-.61 2 2 0 011.78 1 5.45 5.45 0 01.73 2.54h1v-4.18h1.43zm2.31.54h-1.43V120.9h1.43zm-6.4-4.54a7.77 7.77 0 000-4.06c-.18-.53-.46-.79-.83-.79s-.63.26-.81.79a6.34 6.34 0 00-.27 2 6.24 6.24 0 00.27 2c.18.53.45.79.81.79s.65-.26.83-.78zm16.73 4.54h-1.53v-6.44h-2.09v-1.28h2.09v-3.92h1.53zm-2.55-3.72l-.87 1.14a6.61 6.61 0 01-1.57-1.42 5.67 5.67 0 01-1.09-1.83 6.33 6.33 0 01-2.77 3.45l-.91-1.12a6 6 0 002.87-5.34v-1.77h1.56v1.69a6.13 6.13 0 00.73 3 6 6 0 002.06 2.18zm12-.05l-.86 1.09a5.09 5.09 0 01-1.2-1.16 4.69 4.69 0 01-.81-1.53 5 5 0 01-.85 1.68 4.67 4.67 0 01-1.35 1.27l-.92-1a5.61 5.61 0 002.39-5v-.56h-1.95v-1.21h5.23v1.21h-1.81v.44a6.9 6.9 0 00.55 2.9 3.91 3.91 0 001.58 1.83zm1.83 3.23h-1.41v-5.81h-1.51v-1.29h1.51v-3.77h1.41zm2.33.54h-1.44V120.9H265zm8.29-2.63a58.35 58.35 0 01-7.24.4c-.09-.49-.17-.9-.22-1.22h2.89v-1.84a3 3 0 01-1.72-.9 2.48 2.48 0 01-.65-1.74 2.61 2.61 0 01.89-2 3.17 3.17 0 012.22-.8 3.23 3.23 0 012.24.81 2.55 2.55 0 01.9 2 2.39 2.39 0 01-.65 1.72 3 3 0 01-1.7.91V129c1.23-.08 2.21-.16 2.94-.26zm2.06-9v11.59h-1.54v-11.6zm-4.25 3.63a1.43 1.43 0 00-.48-1.12 1.7 1.7 0 00-1.16-.43 1.65 1.65 0 00-1.14.43 1.45 1.45 0 00-.47 1.12 1.33 1.33 0 00.47 1 1.69 1.69 0 001.14.4 1.76 1.76 0 001.16-.4 1.32 1.32 0 00.48-1zm12.68 4.17l.16 1.16c-1.13.15-2.33.25-3.61.31-2 .06-3.22.09-3.83.09l-.2-1.23h3v-2.12h-2.1v-4.93H283v1.21h-4.27v2.53h4.3v1.2h-2.21v2.06c1.15-.05 2.13-.13 2.95-.24zm2.18-7.8v11.59h-1.53v-11.6zm7.33 3.75v-1.28H295v-2.48h1.51v11.59H295v-4.6h-1.69v-1.28H295v-2zm-2.12 3.56v-5h-2.38v5zm1.53-6.24v7.46h-5.43V122zm4.8 10.71l.52-2.62h1.64l-.93 2.62zm7.28-6.84a22 22 0 004.58-.35l.17 1.17a24.46 24.46 0 01-5.12.4h-1.1v-5.28h5.16V123h-3.66zm8.8-.88H312v2.72h-1.54v-6.79H312v2.83h1.63zm-1.49 5.19a1.92 1.92 0 01-1.05 1.69 7.16 7.16 0 01-5.83 0 1.91 1.91 0 010-3.41 5.59 5.59 0 012.9-.62 5.7 5.7 0 012.93.62 1.92 1.92 0 011.05 1.72zm-2.2.81a.9.9 0 00.63-.81.91.91 0 00-.63-.82 5.37 5.37 0 00-3.54 0 .91.91 0 00-.63.82.9.9 0 00.63.81 5.5 5.5 0 003.54 0zm13.19 1.38h-7.69v-4h7.69zm-9.2-8.12V123H320v1.21h-2.21a3.08 3.08 0 002.49 2.42l-.75 1.17a5 5 0 01-1.48-.8 3.6 3.6 0 01-1.1-1.26 3.6 3.6 0 01-1.07 1.43 4.8 4.8 0 01-1.64.94l-.44-.63-.39-.54q2.43-.83 2.7-2.73zm9.2 3.52h-1.52v-2h-1.76v-1.23h1.76v-3.62h1.52zm-1.52 3.41v-1.68h-4.64v1.68zm-6.31-8.74v-1.18h3.37v1.18zm-280.8 34.07h-1.51V144.9h1.51zM26 152.83a5.07 5.07 0 01-.8-3 5.16 5.16 0 01.8-3 2.68 2.68 0 014.39 0 5.16 5.16 0 01.8 3 5.09 5.09 0 01-.8 3 2.58 2.58 0 01-2.2 1.14 2.53 2.53 0 01-2.19-1.14zm3.74-3a4.6 4.6 0 00-.43-2.13 1.28 1.28 0 00-1.12-.79 1.24 1.24 0 00-1.09.79 5.59 5.59 0 000 4.25 1.17 1.17 0 002.21 0 4.43 4.43 0 00.42-2.12zm14.71.4a1.49 1.49 0 01-1 1.35 6.44 6.44 0 01-2.74.49 6.39 6.39 0 01-2.73-.49 1.42 1.42 0 010-2.71 6.08 6.08 0 012.73-.49 6.12 6.12 0 012.74.49 1.5 1.5 0 011 1.37zm-3 6.23h-1.54v-2.73h-4.44v-1.2h10.46v1.2h-4.5zm3.9-8.46h-9.27v-1.2h9.27zm-6.71-1.74v-1.18h4.13v1.18zm4.25 4c0-.22-.2-.39-.62-.52a5.41 5.41 0 00-1.55-.2 5.33 5.33 0 00-1.54.19c-.4.13-.6.3-.6.53s.2.37.6.5a5.32 5.32 0 001.54.18 5.39 5.39 0 001.55-.18c.41-.12.62-.28.62-.49zM53.6 156h-1.43v-5.39h-1a5.37 5.37 0 01-.73 2.53 2 2 0 01-1.78 1 1.9 1.9 0 01-1.43-.61 3.37 3.37 0 01-.82-1.52 7.8 7.8 0 01-.24-2 7.53 7.53 0 01.24-2 3.34 3.34 0 01.82-1.51 1.9 1.9 0 011.43-.61 2 2 0 011.79 1 5.55 5.55 0 01.72 2.54h1v-4.18h1.43zm2.32.54h-1.44V144.9h1.43zm-6.4-4.54a7.77 7.77 0 000-4.06c-.19-.53-.46-.79-.84-.79s-.62.26-.8.79a6.07 6.07 0 00-.27 2 6.24 6.24 0 00.27 2c.18.53.45.79.8.79s.66-.26.84-.78zm14 1.52a28.71 28.71 0 01-5.16.37h-1.25V149h3.76v-1.9h-3.81v-1.21h5.33v4.34h-3.76v2.36a27.86 27.86 0 004.74-.34zm2.21-8.57v4.45h1.63v1.25h-1.65v5.89h-1.53V144.9zm10.74 6.26h-3.25v2.68h4.5V155H67.25v-1.2h4.45v-2.68h-3.1v-5.41h7.78V147h-6.25v3h6.31zm14.1 5.25h-8v-3.12h6.1v-.8h-6.16v-1.22h7.67v3.12h-6.07v.8h6.44zm-.36-5.71h-1.5v-1h-2.2v-1.14h2.17v-1h-2v-1.15h2v-1.56h1.5zm-3.61-5.3a5.21 5.21 0 01-.45 2.17 4.94 4.94 0 01-1.2 1.66 7.35 7.35 0 01-1.65 1.11 7.7 7.7 0 01-1.91.65l-.74-1.23a6.27 6.27 0 002.78-1.06 3.48 3.48 0 001.48-2h-3.7v-1.35zm14.22 6.21h-1.55v-1.15h-2.13v-1.25h2.13v-1.16h-2v-1.25h2v-1.95h1.52zm0 4.89h-1.55v-3.08H93v-1.21h7.86zm-3.67-10.91c-.11 3-1.83 5-5.14 6.06l-.79-1.22a6.78 6.78 0 002.78-1.32 4 4 0 001.47-2.3h-3.7v-1.27zm16.48-.69v4.46h1.67v1.25h-1.67v5.87h-1.5V144.9zm-2.08 7.69l-.45.57-.44.56a7.52 7.52 0 01-1.6-1.43 5 5 0 01-1.08-1.81 5.86 5.86 0 01-1.07 2 6.22 6.22 0 01-1.68 1.51c-.42-.52-.73-.88-.93-1.1a6 6 0 002.87-5.38v-1.59h1.57v1.51a6 6 0 002.81 5.2zm13-4.59a2.11 2.11 0 01-1.12 1.86 6.63 6.63 0 01-6 0 2.11 2.11 0 01-.88-2.84 2.19 2.19 0 01.88-.88 6.69 6.69 0 016 0 2.11 2.11 0 011.07 1.81zm-5.35 8.47h-1.52v-3.86h-2.46v-1.26h10.47v1.21h-2.51v3.86h-1.52v-3.86h-2.46zm3.07-7.5a1.11 1.11 0 00.7-1 1.09 1.09 0 00-.69-1 4.64 4.64 0 00-3.69 0 1.09 1.09 0 00-.69 1 1.13 1.13 0 00.69 1 4.64 4.64 0 003.69 0zm14.27 1.64h-1.68v5.88h-1.5V144.9h1.5v4.45h1.68zm-4.72-4.52a9.2 9.2 0 01-5.19 8.3l-.92-1.14a8 8 0 003.08-2.5 6.62 6.62 0 001.38-3.41h-3.76v-1.25zm13.59 3.62a1.17 1.17 0 01-.54 1 3.08 3.08 0 01-1.44.51v.4a25.86 25.86 0 002.78-.25c0 .15 0 .37.07.65s.05.45.05.5c-.93.11-2.11.2-3.54.28s-2.59.12-3.5.12l-.2-1.22h2.82v-.44a3.12 3.12 0 01-1.45-.51 1.22 1.22 0 01-.53-1 1.32 1.32 0 01.76-1.16 4.78 4.78 0 014 0 1.31 1.31 0 01.67 1.07zm2.95-4.81v3.66h1.43v1.26h-1.43v3.1h-1.53v-8zm-8 8.53h8v3.07h-1.53v-1.87h-6.45zm5.58-5.61h-6.54v-1.17h6.52zm-4.76-1.54v-1.12h3.14v1.12zm2.71 3.43c0-.16-.11-.29-.33-.4a2.25 2.25 0 00-.93-.15 2.18 2.18 0 00-.91.15c-.23.11-.34.24-.33.4s.11.3.33.39a2.35 2.35 0 00.91.15q1.24-.05 1.24-.59zm15.42 3.59h-1.51v-8.4h1.51zm.26 2.88h-8v-3.71h1.53V155h6.5zm-9.46-7.56a2.71 2.71 0 01.86-2.05 3.6 3.6 0 014.55 0 2.89 2.89 0 010 4.08 3.68 3.68 0 01-4.55 0 2.68 2.68 0 01-.88-2.08zm1.56 0a1.57 1.57 0 00.43 1.15 1.71 1.71 0 002.31 0 1.65 1.65 0 00.42-1.15 1.5 1.5 0 00-1.43-1.56h-.16a1.49 1.49 0 00-1.57 1.56zm16.33 3.2q-1.68.21-3.72.3c-1.52.08-2.79.12-3.83.12l-.21-1.24c1.19 0 2.23 0 3.14-.05v-1.3h-2v-4h5.43v1.21h-3.91v1.56h4v1.21h-2V151c1.21-.06 2.19-.14 2.93-.25zm2-7v8.5h-1.54v-8.5zm.09 11.25h-7.83v-3.22h1.54v2h6.29zm13.27-2a1.94 1.94 0 01-1.05 1.72 5.72 5.72 0 01-2.93.64 5.63 5.63 0 01-2.9-.64 2 2 0 010-3.44 5.75 5.75 0 012.9-.63 5.81 5.81 0 012.93.63 1.93 1.93 0 011.03 1.73zm-.08-2.5h-1.52v-1.27h-2.12v-1.15h2.12v-1.15h-2v-1.2h2v-2h1.52zm-2.13 3.38a1 1 0 00.62-.84.93.93 0 00-.63-.83 4.16 4.16 0 00-1.78-.31 3.9 3.9 0 00-1.72.31.91.91 0 00-.63.83.94.94 0 00.62.84 4.27 4.27 0 001.73.3 4.38 4.38 0 001.79-.3zm-1.54-9.31q-.18 4.51-5.13 6.06l-.81-1.22a7 7 0 002.78-1.29 3.88 3.88 0 001.47-2.29h-3.69v-1.26zm14 2.31a2.1 2.1 0 01-1.12 1.86 6.71 6.71 0 01-6 0 2.09 2.09 0 010-3.71 6.69 6.69 0 016 0 2.14 2.14 0 011.12 1.85zm-3.37 8.53h-1.52v-3.85h-4.44v-1.22h10.47v1.22h-4.5zm1.09-7.56a1 1 0 000-1.93 4.56 4.56 0 00-3.69 0 1 1 0 00-.63 1.3 1 1 0 00.63.63 4.64 4.64 0 003.69-.03zm11.08 7H201v-5.4h-1a5.37 5.37 0 01-.73 2.53 2 2 0 01-1.77 1 1.87 1.87 0 01-1.43-.61 3.29 3.29 0 01-.83-1.52 7.8 7.8 0 01-.24-2 7.53 7.53 0 01.24-2 3.35 3.35 0 01.83-1.51 1.87 1.87 0 011.43-.61 2 2 0 011.78 1 5.45 5.45 0 01.73 2.54h1v-4.18h1.43zm2.32.53h-1.43v-11.6h1.43zm-6.4-4.54a6.3 6.3 0 00.27-2 6.37 6.37 0 00-.27-2c-.19-.52-.46-.79-.84-.79s-.62.27-.8.79a6.1 6.1 0 00-.27 2 6.34 6.34 0 00.27 2c.18.52.45.78.8.78s.66-.26.84-.78zm17.6-.11h-10.46v-1.23h10.46zm-1.29-2.53h-7.77v-4h1.52v2.82h6.26zm.08 6.87h-7.92v-3.42h1.51V155h6.41zm6-6.33a23.45 23.45 0 004.58-.35l.17 1.17a25.19 25.19 0 01-5.13.4h-1.14v-5.29h5.16V147h-3.65zm8.8-.89h-1.63v2.72h-1.53v-6.79h1.53v2.83h1.64zm-1.5 5.19a1.89 1.89 0 01-1 1.69 5.75 5.75 0 01-2.93.62 5.62 5.62 0 01-2.9-.62 1.91 1.91 0 010-3.41 7.16 7.16 0 015.83 0 1.93 1.93 0 011.06 1.72zm-2.2.81a.89.89 0 00.63-.81.91.91 0 00-.63-.82 5.37 5.37 0 00-3.54 0 .91.91 0 00-.63.82.89.89 0 00.63.81 5.5 5.5 0 003.54 0zm13.18 1.38h-7.68v-4H239zm-9.2-8.13V147h6.1v1.21h-2.21a3.07 3.07 0 002.51 2.42c-.18.26-.43.65-.76 1.17a5.31 5.31 0 01-1.44-.8 3.57 3.57 0 01-1.09-1.26 3.6 3.6 0 01-1.07 1.43 4.75 4.75 0 01-1.65.94c-.09-.15-.24-.36-.44-.63l-.39-.54q2.43-.84 2.7-2.73zm9.2 3.52h-1.52v-2h-1.75v-1.23h1.76v-3.61H239zm-1.52 3.41v-1.68h-4.64v1.68zm-6.3-8.74v-1.18h3.36v1.18zm18.41 10.08h-1.51V144.9h1.51zm-8.45-3.65a6 6 0 010-6 2.68 2.68 0 013.74-.66 2.76 2.76 0 01.66.66 6 6 0 010 6 2.69 2.69 0 01-3.76.64 2.73 2.73 0 01-.64-.63zm3.74-3a4.38 4.38 0 00-.43-2.14 1.16 1.16 0 00-2.2 0 4.51 4.51 0 00-.42 2.14 4.45 4.45 0 00.42 2.12 1.26 1.26 0 001.08.78 1.29 1.29 0 001.12-.78 4.34 4.34 0 00.43-2.13zm18.12-4.93v11.58h-1.52V144.9zm-8.86 3.22v-1.2h6.07v1.2H258a1.7 1.7 0 00.91 1.05 4 4 0 001.65.46l-.6 1.14a4.61 4.61 0 01-1.61-.52 2.84 2.84 0 01-1.12-1 2.82 2.82 0 01-1.14 1.13 4.74 4.74 0 01-1.7.6l-.64-1.13c1.58-.27 2.47-.86 2.65-1.76zm3.75 8h-1.54v-3.46c-1 0-1.93.05-2.87.05l-.22-1.23c1.13 0 2.41 0 3.85-.07s2.76-.15 3.83-.27l.12 1.16c-.76.11-1.81.21-3.17.28zm-2.38-9.83v-1.2h3.36v1.2zm18.6 3.72l-.72 1.2a7.28 7.28 0 01-2.51-1.16 4.62 4.62 0 01-1.71-1.93 4.09 4.09 0 01-1 1.4 7.13 7.13 0 01-3.21 1.68l-.69-1.23a6.16 6.16 0 001.9-.63 4.82 4.82 0 001.57-1.34 2.9 2.9 0 00.65-1.83v-.7H270v.7a2.68 2.68 0 00.4 1.41 3.92 3.92 0 001 1.17 6.33 6.33 0 001.34.82 5.06 5.06 0 001.38.44zm.3 5H264v-1.2h4.44v-2.75H270v2.76h4.5zm10.18 1.32h-8.17v-2.91h6.22v-.65h-6.3v-1.2h7.83v2.88H278v.65h6.65zm-2.4-5.73c-1.1.14-2.34.24-3.71.3s-2.78.11-3.83.11l-.21-1.22h3.16v-1h-2v-3.54h5.4v1.17h-3.9v1.21h4v1.17h-2v.9c1.16-.06 2.14-.14 2.94-.23zm2-5.72v6.21h-1.49v-6.2zm9.69 11.6h-1.54v-4.13h-4.43v-1.2h10.47v1.2h-4.5zM298 149l-.67 1.24a6.5 6.5 0 01-2.51-.95 4 4 0 01-1.62-1.69 3.7 3.7 0 01-1.57 1.68 6.77 6.77 0 01-2.54 1l-.65-1.25a5.35 5.35 0 002.77-1.07 2.68 2.68 0 001.18-2.16v-.6H294v.6a2.38 2.38 0 00.62 1.56 4.5 4.5 0 001.52 1.15 5.43 5.43 0 001.86.49zm9.84-.66a2.45 2.45 0 01-.89 1.95 3.54 3.54 0 01-4.38 0 2.44 2.44 0 01-.88-1.95 2.59 2.59 0 01.88-2 3.14 3.14 0 012.19-.8 3.21 3.21 0 012.19.79 2.6 2.6 0 01.89 2zm3.18 8.19a3.45 3.45 0 01-1.15-.85 3.29 3.29 0 01-.78-1.17 4 4 0 01-1.94 2.24l-.46-.48-.53-.56a3.73 3.73 0 001.59-1.35 3.47 3.47 0 00.57-1.95v-.51h1.49v.51a3.11 3.11 0 00.6 1.86 3.23 3.23 0 001.51 1.14zm-1.65-11.61h1.52v6.45h-1.52zM306 155.35a2.63 2.63 0 01-1.08-1.08 3.63 3.63 0 01-.86 1.35 3.87 3.87 0 01-1.32.95l-.9-1.1a3.94 3.94 0 001.64-1.27 3.16 3.16 0 00.6-1.9v-.37h1.48v.33a2.2 2.2 0 00.39 1.29 2.06 2.06 0 001 .78zm-.13-5.93a1.57 1.57 0 000-2.19 1.76 1.76 0 00-2.32 0 1.42 1.42 0 00-.45 1.08 1.48 1.48 0 00.45 1.1 1.7 1.7 0 002.3 0zm16.47 1.87H311.9v-1.21h10.46zm-5.2-4.29a3.47 3.47 0 01-1.6 1.61 7.2 7.2 0 01-2.55.82l-.64-1.18a6.94 6.94 0 001.9-.46 4 4 0 001.5-1 2.09 2.09 0 00.61-1.48V145h1.57v.31a2.09 2.09 0 00.67 1.5 4.44 4.44 0 001.57 1 5.48 5.48 0 001.78.4l-.65 1.2a7.75 7.75 0 01-1.64-.42 5.87 5.87 0 01-1.53-.85 2.94 2.94 0 01-1-1.19zm3.89 9.32h-7.79v-4.44h1.51V153h4.77v-1.12H321zm-1.51-1.21v-1h-4.77v1zm12.53-10.23v11.58h-1.5V144.9zm-2.68 6.94l.2 1.23a17 17 0 01-2.56.38c-1.07.09-2 .13-2.81.13h-1.06v-7.53h1.5v6.23a21.42 21.42 0 004.73-.44zm12.77-6.94v4.37h1.66v1.26h-1.66v6h-1.52V144.9zm-7.1 7.65a21.91 21.91 0 004.57-.36l.08.6.09.6a23.22 23.22 0 01-5.13.39h-1.12V146h5.29v1.22H335zm9.1 2.58v-1.53h1.58v1.53z"/><path id="패스_11450" data-name="패스 11450" class="cls-2" d="M27.42 332.06a4.9 4.9 0 01-2.54-.61l.29-1.23a3.56 3.56 0 001.85.54 2.2 2.2 0 001.46-.44 1.55 1.55 0 00.53-1.24c0-1.07-.65-1.6-1.93-1.6a4 4 0 00-1.8.48l.32-4.9h4.65v1.25h-3.43l-.17 2.17a4.73 4.73 0 011.12-.16 3.11 3.11 0 012.13.7 2.76 2.76 0 01.76 2.1 2.82 2.82 0 01-.88 2.11 3.32 3.32 0 01-2.36.83zm4.25.08v-1.53h1.59v1.53zm15.15 1.35h-1.51V321.9h1.51zm-8.45-3.66a5.07 5.07 0 01-.8-3 5.16 5.16 0 01.8-3 2.69 2.69 0 013.74-.65 2.91 2.91 0 01.66.65 5.16 5.16 0 01.8 3 5.09 5.09 0 01-.8 3 2.7 2.7 0 01-3.76.64 2.59 2.59 0 01-.64-.64zm3.74-3a4.36 4.36 0 00-.43-2.13 1.16 1.16 0 00-2.2 0 5.59 5.59 0 000 4.25 1.17 1.17 0 002.2 0 4.44 4.44 0 00.43-2.12zm11.16 1.6h-4.7v-5.65h1.54v1.7h1.63v-1.73h1.52v2.15h1v-2.8h1.45v8.06H54.3v-4h-1zm5 4.76h-8.15v-3.72h1.51V332h6.67zm-.27-2.7h-1.43v-8.59H58zm-6.27-3.24v-1.59h-1.62v1.59zm16.27-.74h-6v1.26h6.42V329h-7.99v-6.15h7.81V324h-6.3v1.3h6zm1.58 4.33V332H59.09v-1.2zm13.21.3a1.93 1.93 0 01-1.05 1.71 5.72 5.72 0 01-2.93.64 5.63 5.63 0 01-2.9-.64 2 2 0 01-.82-2.62 2 2 0 01.82-.82 5.75 5.75 0 012.9-.63 5.81 5.81 0 012.93.63 1.93 1.93 0 011.05 1.72zm-.08-2.51h-1.55v-1.27H79v-1.15h2.12v-1.15h-2v-1.2h2v-2h1.52zM80.56 332a1 1 0 00.63-.84.93.93 0 00-.63-.83 4.19 4.19 0 00-1.78-.31 4 4 0 00-1.73.31.87.87 0 000 1.67 4.11 4.11 0 001.73.3 4.31 4.31 0 001.78-.3zM79 322.66q-.18 4.51-5.13 6.06l-.81-1.22a7 7 0 002.78-1.29 3.88 3.88 0 001.47-2.29h-3.66v-1.26zm14.12 10.67h-7.8v-3.82h3.11v-.85H84v-1.22h10.49v1.22H90v.85h3.16zm.25-6.63h-8.32v-1.2h1.6c0-.11-.06-.34-.14-.69s-.12-.62-.15-.82l1.46-.19c0 .16.06.44.12.82s.1.67.13.88h2.32l.29-1.69c.66.09 1.15.15 1.48.18l-.34 1.52h1.58zm0-3.26H85v-1.2h8.41zm-1.78 8.71v-1.47h-4.8v1.47zm5.3-6.74a1.46 1.46 0 00.45 1.1 1.7 1.7 0 001.22.43 1.77 1.77 0 001.22-.43 1.41 1.41 0 00.45-1.1 1.36 1.36 0 00-.45-1.05 1.73 1.73 0 00-1.22-.43 1.67 1.67 0 00-1.21.43 1.36 1.36 0 00-.45 1.05zm7.76-3.51v11.59h-1.5V321.9zm-9.31 3.53a2.53 2.53 0 01.88-2 3.93 3.93 0 014.68 0 2.52 2.52 0 01.87 2 2.58 2.58 0 01-.87 2 3.89 3.89 0 01-4.67 0 2.53 2.53 0 01-.83-2zm7.33 5.1c-1.14.15-2.45.26-3.91.34-1.74.06-2.95.09-3.64.09l-.22-1.3c1.42 0 2.67 0 3.77-.07 1.5 0 2.79-.15 3.87-.28zm11.93-.81l-.85 1.09a5.51 5.51 0 01-2-2.69 4.85 4.85 0 01-.85 1.68 4.39 4.39 0 01-1.34 1.27l-.93-1a5.58 5.58 0 002.39-5v-.56h-2v-1.21h5.23v1.21h-1.81v.49a7.23 7.23 0 00.55 2.9 4 4 0 001.58 1.83zm1.9 3.28h-1.42v-5.82h-1.51v-1.28h1.51v-3.77h1.42zm2.32.53h-1.44V321.9h1.45zm10.91 0h-1.44V321.9h1.44zm-2.31-.53H126v-5.83h-1.56v-1.27H126v-3.77h1.42zm-1.69-3.37l-.86 1.08a5.24 5.24 0 01-1.26-1.18 4.23 4.23 0 01-.85-1.59 5 5 0 01-.86 1.74 4.67 4.67 0 01-1.42 1.31l-.9-1a5 5 0 001.8-2.05 7.06 7.06 0 00.65-3.11V323h1.45v1.72a6.91 6.91 0 00.59 2.94 4.22 4.22 0 001.66 1.91zm13.14.08a1.75 1.75 0 01.92 2.3 1.69 1.69 0 01-.92.92 7.6 7.6 0 01-5.92 0 1.74 1.74 0 01-.94-2.28 1.77 1.77 0 01.94-.94 7.66 7.66 0 015.92 0zm2.39-1.48H130.8V327h4v-2h1.52v2h5zm-1.35-5.87a19.91 19.91 0 01-.36 4.08l-1.47-.2a11.57 11.57 0 00.31-2.69H132v-1.19zm-1.52 9q0-.5-.66-.75a5.29 5.29 0 00-1.81-.25c-1.65 0-2.47.33-2.47 1 0 .32.22.57.66.73a6.55 6.55 0 003.62 0c.44-.23.66-.48.66-.8zm14-3.39h-1.54v5.59h-1.51V321.9h1.51v4.75h1.54zm-3.6 2.87c-1 .13-2.39.25-4.14.35-1.19.05-2.21.08-3 .08l-.2-1.24h2.38v-3.26h1.46v3.2q2.24-.12 3.42-.27zm-.54-7.61a23.83 23.83 0 01-.39 5.06l-1.45-.16a18.85 18.85 0 00.3-3.68h-4.57v-1.22zm13.48 10.18H154v-4.27h7.78zm0-11a19.33 19.33 0 01-.39 4.15h1.73v1.21h-10.43v-1.21h7.29a14.3 14.3 0 00.23-1.46 12.23 12.23 0 00.08-1.48H154v-1.21zm-1.51 9.8v-1.94h-4.77v1.94zM174 329h-10.44v-1.22H174zm-1.21 4.23h-8v-3.43h1.52v2.2h6.45zm0-8.53a2 2 0 01-1.09 1.69 5.82 5.82 0 01-2.95.65 5.74 5.74 0 01-3-.65 1.85 1.85 0 010-3.36 5.79 5.79 0 012.94-.65 5.9 5.9 0 013 .65 1.94 1.94 0 011.15 1.62zm-1.57 0a1 1 0 00-.67-.85 4.54 4.54 0 00-1.82-.32 4.32 4.32 0 00-1.78.32 1 1 0 00-.67.85c0 .34.22.61.67.82a4.16 4.16 0 001.78.31 4.37 4.37 0 001.82-.31c.45-.24.72-.52.72-.85zm16.14 8.82H186V321.9h1.44zm-3.81-6.72h-2.29v-1.23h2.29v-3.43H185V333h-1.4zm-.8 2.34l.18 1.21a8.92 8.92 0 01-1.63.25c-.79.07-1.53.11-2.23.11h-1v-7.76h1.49v6.5a12.52 12.52 0 003.23-.31zm15.26 4.38h-1.51V321.9h1.51zm-8.45-3.66a5.07 5.07 0 01-.8-3 5.16 5.16 0 01.8-3 2.69 2.69 0 013.74-.65 2.72 2.72 0 01.66.65 5.16 5.16 0 01.8 3 5.09 5.09 0 01-.8 3 2.7 2.7 0 01-3.76.64 2.59 2.59 0 01-.59-.67zm3.74-3a4.36 4.36 0 00-.43-2.13 1.16 1.16 0 00-2.2 0 5.59 5.59 0 000 4.25 1.23 1.23 0 001.09.78 1.25 1.25 0 001.11-.78 4.3 4.3 0 00.48-2.14zm15.7 6.63h-1.51v-6.24h-1.79V326h1.77v-4.1H209zm-3.77-2.86h-5.47v-7.79h1.5v2.78h2.44v-2.81h1.52zm-1.52-1.2v-2.61h-2.46v2.61zm14.16 3.57h-1.43v-5.39h-1a5.38 5.38 0 01-.74 2.53 2 2 0 01-1.77 1 1.9 1.9 0 01-1.43-.61 3.39 3.39 0 01-.83-1.52 7.8 7.8 0 01-.24-2 7.53 7.53 0 01.24-2 3.35 3.35 0 01.83-1.51 1.9 1.9 0 011.43-.61 2 2 0 011.78 1 5.45 5.45 0 01.73 2.54h1v-4.18h1.43zm2.32.53h-1.43V321.9h1.43zm-6.4-4.53a7.8 7.8 0 000-4.07c-.18-.52-.46-.78-.83-.78s-.63.26-.81.78a6.4 6.4 0 00-.27 2 6.28 6.28 0 00.27 2c.18.53.45.79.81.79s.65-.26.83-.78zm17.05 4.53h-1.53v-6.43h-2.09v-1.28h2.09v-3.92h1.53zm-2.54-3.71l-.87 1.14a6.9 6.9 0 01-1.58-1.42 5.5 5.5 0 01-1.09-1.83 6.33 6.33 0 01-2.77 3.45l-.91-1.12a6 6 0 002.88-5.34v-1.77h1.56v1.69a6.23 6.23 0 00.72 3 6.06 6.06 0 002.06 2.18zm16.17-2.46h-7.94v-4.86H238v1.31h4.9v-1.32h1.54zm-3.24 6.19h-1.52v-3.81h-4.45v-1.21h10.47v1.21h-4.5zm1.7-7.4V325H238v1.15zm13.95-.27h-1.65v2.5h-1.53v-6.48h1.53v2.7h1.65zm-1.65 7.51h-7.5v-4.4h7.5zm-1.52-1.2v-2.05h-4.46v2.06zm-5.64-5.48a22.4 22.4 0 004.55-.34l.2 1.17a24.45 24.45 0 01-5.12.39h-1.13v-5.22h5.16v1.21h-3.66zm19.72-.35h-1.62v2.43h-1.53v-6.89h1.53v3.16h1.62zm-1.62 7.08h-7.52v-4.1h1.51v.9h4.48v-.91h1.53zm-1.53-1.2v-.81h-4.48v.81zm-.84-7.24H257v-1.14h6.79zm-5-1.69v-1.15h3.42v1.16zm4.45 3.81a1.55 1.55 0 01-.77 1.36 3.41 3.41 0 01-2 .52 3.53 3.53 0 01-2-.52 1.56 1.56 0 010-2.71 3.53 3.53 0 012-.52 3.43 3.43 0 012 .52 1.57 1.57 0 01.77 1.35zm-4 0a.62.62 0 00.37.56 2 2 0 00.9.21 1.81 1.81 0 00.88-.21.64.64 0 00.37-.56.63.63 0 00-.37-.55 1.93 1.93 0 00-.88-.21 1.9 1.9 0 00-.91.21.61.61 0 00-.36.55zm18.38-5.2v11.59h-1.5V321.9zm-2.68 6.94l.2 1.22a15.83 15.83 0 01-2.56.39c-1.07.09-2 .13-2.81.13h-1.06v-7.52h1.5v6.23a21.42 21.42 0 004.73-.44zM288 321.9v4.37h1.67v1.26H288v6h-1.52V321.9zm-7.1 7.65a22.64 22.64 0 004.58-.35l.08.6q0 .39.09.6a23.31 23.31 0 01-5.14.39h-1.12V323h5.29v1.22h-3.78zm9.43 2.59v-1.53h1.58v1.53z"/><path id="패스_11541" data-name="패스 11541" class="cls-2" d="M25.16 42.93V42l1.7-1.79a18.8 18.8 0 001.68-2 2.73 2.73 0 00.54-1.54 1.4 1.4 0 00-.42-1.14 2 2 0 00-1.29-.35 3.6 3.6 0 00-1.85.6l-.26-1.19a4.93 4.93 0 012.54-.67 3.23 3.23 0 012.2.66 2.4 2.4 0 01.75 1.89 3.31 3.31 0 01-.2 1.12 4.3 4.3 0 01-.63 1.15c-.29.38-.53.69-.75.93s-.5.55-.86.93l-1.06 1.08h3.58v1.25zm6.8.21v-1.53h1.58v1.53zm7.46-5.3a22 22 0 004.58-.35l.17 1.17a24.5 24.5 0 01-5.13.4h-1.13v-5.28h5.16V35h-3.65zm8.8-.88h-1.64v2.72h-1.53V32.9h1.53v2.83h1.64zm-1.5 5.19a1.9 1.9 0 01-1 1.69 5.79 5.79 0 01-2.92.62 5.75 5.75 0 01-2.91-.62 1.92 1.92 0 01-.89-2.57 2 2 0 01.84-.84 5.65 5.65 0 012.91-.62 5.75 5.75 0 012.93.62 1.94 1.94 0 011 1.72zm-2.2.81a.9.9 0 00.63-.81.91.91 0 00-.63-.82 5.37 5.37 0 00-3.54 0 .93.93 0 00-.63.82.9.9 0 00.65.85 5.55 5.55 0 003.54 0zM58 44.34h-7.65v-4H58zm-9.2-8.12V35h6.1v1.21h-2.18a3.09 3.09 0 002.51 2.42l-.75 1.17A5 5 0 0153 39a3.48 3.48 0 01-1.09-1.26 3.72 3.72 0 01-1.08 1.43 4.8 4.8 0 01-1.64.94l-.44-.63-.39-.48q2.43-.83 2.7-2.73zm9.2 3.52h-1.49v-2h-1.75v-1.2h1.75V32.9H58zm-1.52 3.41v-1.68h-4.61v1.68zm-6.3-8.74v-1.18h3.37v1.18zm16.16 6.28l-.85 1.11a5.68 5.68 0 01-1.67-1.37 4.84 4.84 0 01-1.1-1.78A5.72 5.72 0 0159.94 42L59 40.91a5.55 5.55 0 002.94-5.26v-.31H59.6v-1.25h6.18v1.25h-2.27v.3a5.32 5.32 0 002.86 5.05zm2.07-7.79v4.46h1.64v1.26h-1.61v5.87h-1.53V32.9zm10.72 5.46h-5.45v-5h1.5v1.44h2.46v-1.48h1.52zm-1.52-1.18V36h-2.43v1.18zm6.43-.65h-1.59v2.25H80.9V32.9h1.55v2.38h1.62zm-1.3 7.87h-7.86v-3.07h6v-.74h-6.09v-1.21h7.66v3.07h-6.06v.72h6.38zm12-1.37H84.31v-1.2h2.56V39.6h1.52v2.24h2.26V39.6h1.51v2.24h2.61zm-1-4h-8.47v-1.19h1.6l-.22-2.18 1.52-.16.13 2.34h2.52l.31-2.31 1.47.22-.36 2.09h1.52zm0-4.08h-8.5v-1.19h8.54zm11.91 4.86H95.23v-1.2h10.46zm-1.28-2.52h-7.74v-4h1.52v2.81h6.26zm.07 6.87h-7.87v-3.4h1.51V43h6.4zm5-1.25V42l1.7-1.79a18.6 18.6 0 001.67-2 2.73 2.73 0 00.55-1.55 1.43 1.43 0 00-.42-1.14 2 2 0 00-1.3-.35 3.56 3.56 0 00-1.84.6l-.26-1.18a4.9 4.9 0 012.53-.68 3.23 3.23 0 012.2.66 2.41 2.41 0 01.76 1.89 3.57 3.57 0 01-.2 1.12 4.4 4.4 0 01-.64 1.14c-.28.39-.53.7-.74.94l-.87.93-1 1.08h3.57v1.25zm7.94 0v-7.26L116 36v-1l2.27-1h.84v9zm12.77 1.2h-7.87v-3.45h1.51V43h6.36zm-3.57-6l.19 1.23a22 22 0 01-4.72.4H121v-6.09h1.51v4.87a15.17 15.17 0 004.19-.35zm1.8-2.75h-2.88v-1.13h2.88V32.9H130v8.4h-1.52v-3.87h-2.88v-1.17h2.88zm11.87 6.95a3.85 3.85 0 01-2.46.72 4 4 0 01-2.44-.65 2.17 2.17 0 01-.45-3l.09-.12a3.37 3.37 0 011.32-.91 2.29 2.29 0 01-1.58-2.13 2 2 0 01.84-1.68 3.51 3.51 0 012.22-.65 3.69 3.69 0 012.21.59 1.9 1.9 0 01.81 1.62 2.38 2.38 0 01-1.63 2.12q2 .66 2 2.25a2.29 2.29 0 01-.91 1.87zm-3.8-.82a2.5 2.5 0 002.6 0 1.11 1.11 0 00.49-.94 1.31 1.31 0 00-.49-1.06 4 4 0 00-1.53-.67 2.89 2.89 0 00-1.1.66 1.36 1.36 0 00-.44 1 1.16 1.16 0 00.48 1zm1.56-3.83c.85-.36 1.28-.85 1.28-1.47a1.1 1.1 0 00-.37-.85 1.69 1.69 0 00-1.11-.32 1.76 1.76 0 00-1.09.31 1 1 0 00-.4.82c0 .73.57 1.23 1.69 1.5zM152 44.53h-8.29v-2.62h6.39v-.52h-6.4V40.3h7.91v2.6h-6.38v.53H152zM142.64 35a1.56 1.56 0 01.83-1.37 3.71 3.71 0 012.05-.54 3.67 3.67 0 012 .54 1.65 1.65 0 01.82 1.4 1.62 1.62 0 01-.82 1.37 4.17 4.17 0 01-4.07 0 1.6 1.6 0 01-.83-1.4zm5.13 4.59v-1h2.33V32.9h1.51v7h-1.51v-.3zm-1.68.32h-1.52v-1.4c-1.33 0-2.2.07-2.6.07l-.21-1.21c1.43 0 2.69 0 3.76-.06 1.51-.07 2.76-.17 3.76-.3l.12 1.13q-1.32.18-3.3.3zm-1.55-5.5a.7.7 0 00-.37.6.65.65 0 00.37.6 2.29 2.29 0 002 0 .68.68 0 00.37-.6.7.7 0 00-.37-.6 2.2 2.2 0 00-2 0zm12.9 8.59v-7.35L156 36v-1l2.26-1h.84v9zm5.63.08a6.26 6.26 0 01-1.49-.18 3.87 3.87 0 01-1.12-.45l.26-1.15a3.62 3.62 0 00.95.35 4.33 4.33 0 001.13.15 2.33 2.33 0 001.4-.37 1.34 1.34 0 00.49-1.12c0-.89-.61-1.34-1.84-1.35h-.93v-1.21h.82a2.13 2.13 0 001.25-.37 1.13 1.13 0 00.47-1c0-.81-.53-1.22-1.59-1.22a4.63 4.63 0 00-1.9.47l-.18-1.18a4.23 4.23 0 011.13-.4 6.34 6.34 0 011.37-.17 3.28 3.28 0 012 .58 1.93 1.93 0 01.75 1.63 2.07 2.07 0 01-1.6 2.08 2.06 2.06 0 011.9 2.19 2.34 2.34 0 01-.88 2 3.73 3.73 0 01-2.39.72zM177 44.4h-8v-3.11h6.1v-.81h-6.16v-1.2h7.67v3.1h-6.09v.79H177zm-.36-5.7h-1.54v-5.8h1.51zm-9.26-2.7a2.5 2.5 0 01.87-1.93 3.56 3.56 0 014.4 0 2.44 2.44 0 01.87 1.94 2.34 2.34 0 01-.86 1.87 3.29 3.29 0 01-2.2.71 3.38 3.38 0 01-2.2-.71 2.27 2.27 0 01-.88-1.88zm2-1a1.34 1.34 0 00-.46 1 1.17 1.17 0 00.45 1 1.67 1.67 0 001.12.38 1.59 1.59 0 001.12-.39 1.28 1.28 0 00.43-1 1.37 1.37 0 00-.42-1 1.51 1.51 0 00-1.13-.41 1.59 1.59 0 00-1.14.42zm14.34 9.32a8.27 8.27 0 01-1.72-2.41 7 7 0 01-.67-3v-.23a6.81 6.81 0 01.67-3 8.36 8.36 0 011.73-2.36H185a9 9 0 00-1.56 2.43 7.18 7.18 0 00-.6 2.85v.36a7.48 7.48 0 00.61 2.91 9 9 0 001.55 2.41zm10.6.06h-7.78v-4.31h7.78zm0-11a19.17 19.17 0 01-.39 4.14h1.73v1.22h-10.5v-1.23h7.3a14.28 14.28 0 00.22-1.46 12.25 12.25 0 00.09-1.48h-6.27v-1.21zm-1.51 9.8v-1.96H188v1.94zm3 1.12a8.77 8.77 0 001.56-2.43A7 7 0 00198 39v-.38a7.45 7.45 0 00-.6-2.9 8.63 8.63 0 00-1.55-2.48h1.29a8.2 8.2 0 011.71 2.37 6.75 6.75 0 01.68 3v.23a6.82 6.82 0 01-.68 3 8.2 8.2 0 01-1.71 2.37zm4.37.4l.52-2.63h1.64l-.94 2.63zm9-1.76L206.07 34h1.68l2.34 6.89 2.36-6.89H214l-3.15 8.91zm5.74 0V34h1.61v8.92zm3.43 0V34h3.12q2.94 0 2.94 2.25a1.89 1.89 0 01-1.46 2 2 2 0 011.85 2.11 2.34 2.34 0 01-.8 1.85 3.38 3.38 0 01-2.31.7zm1.59-1.2h1.53q1.65 0 1.65-1.44a1.26 1.26 0 00-.44-1.09 2.18 2.18 0 00-1.3-.33H220zm0-3.92h1.24c1.1 0 1.64-.44 1.64-1.33a1.16 1.16 0 00-.38-1 1.93 1.93 0 00-1.19-.3H220zm6.16 5.12V34h5.56v1.26h-4v2.44h3.08V39h-3.08v2.7h4v1.26zm17.64-2.26a1.75 1.75 0 01.92 2.3 1.73 1.73 0 01-.92.92 7.6 7.6 0 01-5.92 0 1.74 1.74 0 010-3.22 7.6 7.6 0 015.92 0zm2.39-1.48h-10.44V38h4v-2h1.52v2h5zm-1.35-5.86a19.24 19.24 0 01-.37 4.08L243 37.2a11.06 11.06 0 00.32-2.69h-6.4v-1.19zm-1.53 9c0-.33-.22-.58-.65-.75a5.34 5.34 0 00-1.82-.25c-1.64 0-2.47.33-2.47 1 0 .32.22.57.66.73a6.59 6.59 0 003.63 0c.46-.21.68-.46.68-.78zm12.91-2.56h-1.52v-6.86h1.52zm-7.84.56h7.85v4.16h-1.53v-3h-6.32zm5.33-2.37l-.87 1.17a4.76 4.76 0 01-1.47-.91 4.58 4.58 0 01-1.13-1.42 3.55 3.55 0 01-1 1.6 4.75 4.75 0 01-1.64 1l-.93-1.21a4.47 4.47 0 002-1.45 3.57 3.57 0 00.76-2.29v-1H251v.92a3.36 3.36 0 00.8 2.23 4.1 4.1 0 001.89 1.31zM271.09 43h-10.46v-1.2h4.44v-2.2h-3.48v-1.21h1.7l-.29-2.66 1.53-.2.23 2.86H267l.42-2.83 1.47.25-.48 2.58h1.64v1.21h-3.45v2.24h4.5zm-1-8.05h-8.54v-1.2h8.54zM282 43h-10.45v-1.23H282zm-.22-4.75l-.78 1.17a7.56 7.56 0 01-2.53-1.16 4.68 4.68 0 01-1.72-1.94 4.39 4.39 0 01-1.7 2 7.33 7.33 0 01-2.56 1.16l-.72-1.24a5.72 5.72 0 001.93-.65 4.83 4.83 0 001.61-1.37 3 3 0 00.66-1.84v-.76h1.59v.76a2.66 2.66 0 00.27 1.15 3.24 3.24 0 00.71 1 5.88 5.88 0 001 .8 6.74 6.74 0 001.13.59 5.39 5.39 0 001.11.31zm9.55-.72h-6v1.26h6.42V40h-7.95v-6.19h7.82V35h-6.3v1.3h6zm1.59 4.33V43h-10.45v-1.2zm9.68-3.4h-5.56v-4.6h5.56zm4 5l-.69 1.18a6.46 6.46 0 01-2.35-.7 3.15 3.15 0 01-1.45-1.2 3.16 3.16 0 01-1.47 1.21 6.33 6.33 0 01-2.36.67l-.69-1.16a6.31 6.31 0 002.18-.51 2.74 2.74 0 001.39-1.14H298v-1.2h8.13v1.16h-3.08a2.75 2.75 0 001.37 1.15 5.55 5.55 0 002.16.5zm-.56-4.13h-1.52V32.9h1.52zm-4.93-2V35h-2.56v2.25zm2.72 2.91h-3.56V39h3.56zM34.44 65.3h-1.51v-8.4h1.51zm.26 2.88h-8v-3.71h1.5V67h6.5zm-9.46-7.56a2.67 2.67 0 01.86-2 3.17 3.17 0 012.27-.81 3.17 3.17 0 012.27.81 2.88 2.88 0 010 4.08 3.2 3.2 0 01-2.27.8 3.24 3.24 0 01-2.28-.8 2.63 2.63 0 01-.85-2.08zm1.56 0a1.53 1.53 0 00.43 1.15 1.69 1.69 0 002.3 0 1.62 1.62 0 00.47-1.15 1.5 1.5 0 00-1.43-1.56h-.16a1.49 1.49 0 00-1.57 1.56zM46.26 67H35.79v-1.23h10.47zM46 62.23l-.77 1.19a7.7 7.7 0 01-2.54-1.16A4.66 4.66 0 0141 60.32a4.51 4.51 0 01-1.7 2 7.38 7.38 0 01-2.57 1.16L36 62.23a5.8 5.8 0 002-.65 4.89 4.89 0 001.6-1.37 3 3 0 00.67-1.84v-.76h1.58v.76a2.56 2.56 0 00.27 1.15 3.24 3.24 0 00.71 1 5.88 5.88 0 001 .8 6.74 6.74 0 001.13.59 5.31 5.31 0 001.04.32zm2.62 2.44a22.65 22.65 0 004.58-.36c0 .14 0 .34.08.6l.09.6a24.73 24.73 0 01-5.15.38h-1.1v-8h5.32v1.2h-3.78v2.1h3.6v1.21h-3.6zm7.1-7.77v4.37h1.61v1.25h-1.57v6h-1.52V56.9zm12.38 9.95H57.63v-1.2H68.1zm-1.33-8.76a36.8 36.8 0 01-.53 6.91l-1.48-.14a21.23 21.23 0 00.36-2.52c.09-1 .14-2 .13-3h-6.42v-1.2zm11.64 10.25h-7.82v-4h7.82zm0-4.62H77V61h-1v2.61h-1.42v-6.5H76v2.69h1v-2.9h1.4zm-4.29-.64a19.85 19.85 0 01-4.28.35h-.79v-3.57h2.86V58.8H69v-1.21h4.45V61h-2.9v1.2a15.05 15.05 0 001.78-.07 12.86 12.86 0 001.67-.19c0 .54.08.92.12 1.14zm2.74 4.07v-1.69h-4.75v1.69zm13.25.8h-1.42v-3.9h-1.47v-1.23h1.47v-1.64h-1.18V60h1.18v-2.87h1.42zm2.31.54H91V56.9h1.45zm-5-10.22a8.9 8.9 0 01-4.12 8l-1-1.06a7.78 7.78 0 002.58-2.46 7 7 0 001.06-3.22H83v-1.26zm15.76 7.9a1.89 1.89 0 01-1.08 1.68 7.53 7.53 0 01-6 0 1.86 1.86 0 01-1.1-1.68 1.9 1.9 0 011.08-1.71 7.53 7.53 0 016 0 1.9 1.9 0 011.08 1.71zM93.89 59v-1.28H100V59h-2.2a3.21 3.21 0 00.8 2 4 4 0 001.75 1.15l-.45.65-.37.54a4.79 4.79 0 01-1.44-.9A4.17 4.17 0 0197 61a3.69 3.69 0 01-1 1.57 4.72 4.72 0 01-1.64 1l-.41-.54c-.22-.28-.38-.5-.5-.64a4.45 4.45 0 002-1.34 3.51 3.51 0 00.74-2.05zm5.91 1.92v-1.25h1.75V56.9h1.52v6.89h-1.52v-2.9zm-.71 4.18a4.62 4.62 0 00-1.84.29q-.66.28-.66.81c0 .35.22.61.66.79a6 6 0 003.69 0c.44-.19.66-.45.66-.79a.92.92 0 00-.66-.82 4.84 4.84 0 00-1.85-.28zm15.78-2.1h-10.46v-1.21h10.46zm-1 5.43h-8.26v-3H112v-.66h-6.31v-1.13h7.82v2.91h-6.31v.64h6.73zm-6.77-9.28c0 .27.22.49.67.67a6.47 6.47 0 003.7 0c.46-.18.68-.4.68-.67s-.22-.49-.67-.67a5.57 5.57 0 00-1.86-.25 5.24 5.24 0 00-1.85.25c-.45.17-.67.4-.67.67zm-1.58 0a1.7 1.7 0 011.08-1.52 8.47 8.47 0 016 0 1.61 1.61 0 010 3 8.36 8.36 0 01-6 0 1.71 1.71 0 01-1.08-1.52zm22.12 3h-3.3v.74h4.5v1.22h-10.42v-1.24h4.45v-.74h-3.07v-4.8h7.77v1.18h-6.25v.65h5.86v1.15h-5.86V61h6.36zm-1 2.94a1.6 1.6 0 010 3 8.58 8.58 0 01-6.07 0 1.61 1.61 0 01-.9-2.08 1.62 1.62 0 01.9-.9 8.65 8.65 0 016.07 0zm-.56 1.49c0-.26-.22-.48-.66-.63a5.91 5.91 0 00-1.82-.23 5.74 5.74 0 00-1.8.23q-.66.22-.66.63c0 .27.22.47.66.61a5.77 5.77 0 001.8.22 5.94 5.94 0 001.82-.22c.44-.14.66-.35.66-.61zm13.06 1.93h-1.44v-5.7h-1V68h-1.42V57.11h1.42v4.47h1V56.9h1.44zm-5.2-6.51a2.52 2.52 0 010 3.5 2.56 2.56 0 01-1.83.65 2.53 2.53 0 01-1.83-.68 2.49 2.49 0 010-3.47 2.87 2.87 0 013.66 0zm-4.61-1.09v-1.24h5.52v1.21zm3.95 2.83a1.23 1.23 0 00-.33-.87 1.2 1.2 0 00-.84-.34 1.12 1.12 0 00-.83.34 1.33 1.33 0 000 1.75 1.17 1.17 0 002-.87zM130.59 59v-1.2h3.12V59zm19.26 9.47h-1.53V62.1h-2.09v-1.28h2.09V56.9h1.53zm-2.54-3.71l-.87 1.14a6.9 6.9 0 01-1.58-1.42 5.78 5.78 0 01-1.09-1.83 6.35 6.35 0 01-2.77 3.46l-.91-1.11a6 6 0 002.91-5.36v-1.76h1.56v1.69a6.35 6.35 0 00.73 3 6.06 6.06 0 002.06 2.18zm15-.1a1.75 1.75 0 010 3.22 7.6 7.6 0 01-5.92 0 1.75 1.75 0 01-.94-2.29 1.71 1.71 0 01.94-.93 7.6 7.6 0 015.92 0zm2.39-1.49h-10.43V62h4v-2h1.52v2h5zm-1.36-5.86a19.91 19.91 0 01-.34 4.09l-1.47-.19a11.11 11.11 0 00.31-2.69h-6.4v-1.2zm-1.52 9c0-.33-.22-.58-.65-.75a5.34 5.34 0 00-1.82-.25c-1.65 0-2.47.33-2.47 1 0 .32.22.56.66.73a6.55 6.55 0 003.62 0c.45-.16.67-.41.67-.73zm10.57-1.74l-.84 1.18a5.78 5.78 0 01-1.68-1.35 5.08 5.08 0 01-1.12-1.76 4.66 4.66 0 01-1 1.9A5.29 5.29 0 01166 66l-.91-1.13A5.51 5.51 0 00168 59.6v-.31h-2.32v-1.2h6.15v1.21h-2.24v.3a5.14 5.14 0 002.86 4.95zm2.34 3.94h-1.52V56.9h1.52zm11-.15H178v-4.2h1.52v1h4.68v-1h1.55zm-2-5.17q-1.91.24-3.72.3c-1.89.08-3.16.12-3.82.12l-.19-1.23c1.19 0 2.24 0 3.15-.05v-1.12h-2v-3.79h5.43v1.21h-3.92V60h4v1.21h-2v1c1.12 0 2.1-.12 2.94-.22zm2-6.27v6.66h-1.53V56.9zm-1.54 10.26v-.91h-4.68v.91zm12.4-10.28v11.59h-1.5V56.9zm-2.68 7l.2 1.22a17 17 0 01-2.56.38c-1.07.09-2 .14-2.81.14h-1.06v-7.58h1.5v6.23a21.42 21.42 0 004.73-.44zm13.09-7v4.37h1.67v1.26H207v6h-1.52V56.9zm-7.1 7.65a22.64 22.64 0 004.58-.35l.08.6c0 .26.07.46.09.6a23.22 23.22 0 01-5.13.39h-1.12V58h5.28v1.22h-3.78zm9.43 2.58v-1.52h1.58v1.53z"/><path id="패스_11581" data-name="패스 11581" class="cls-2" d="M26.47 11V3.65L25 4V3l2.27-1h.84v9zm3.41.16V9.61h1.58v1.53zm14.7-5.27h-3.16v1.2h4.5v1.2H35.45V7.07h4.45v-1.2h-3.11V1.26h1.52v1.2h4.76V1.23h1.51zm.13 6.28h-7.86V9h1.52v2h6.34zm-1.64-7.5v-1h-4.76v1zm16 7.82h-1.54V.9H59zm-8.48-3.66a5.07 5.07 0 01-.8-3 5.16 5.16 0 01.8-3 2.69 2.69 0 013.74-.65 2.91 2.91 0 01.66.65 5.16 5.16 0 01.8 3 5.09 5.09 0 01-.8 3 2.7 2.7 0 01-3.76.64 2.59 2.59 0 01-.64-.64zm3.74-3a4.36 4.36 0 00-.43-2.13 1.26 1.26 0 00-1.12-.79 1.23 1.23 0 00-1.08.79 4.48 4.48 0 00-.43 2.13A4.56 4.56 0 0051.7 8a1.24 1.24 0 001.08.78A1.27 1.27 0 0053.9 8a4.44 4.44 0 00.43-2.16zm11.15 1.6h-4.69V1.79h1.54v1.7H64V1.76h1.52v2.15h1v-2.8H68v8.06h-1.48v-4h-1zm5 4.76h-8.14V8.48h1.51V11h6.67zm-.28-2.72h-1.42V.9h1.45zM64 6.25V4.66h-1.67v1.59zm16.22-.74h-6v1.26h6.42V8h-7.99V1.81h7.81V3h-6.3v1.3h6zm1.59 4.33V11h-10.5V9.84zm10.92-2h-10.5V6.61h10.46zm-1.32-2.53h-7.78v-4h1.52V4.1h6.26zm.07 6.87h-7.91V8.76h1.51V11h6.4zm6.65-6.34a21.9 21.9 0 004.57-.35l.17 1.17a24.4 24.4 0 01-5.12.4h-1.13V1.78h5.16V3h-3.65zm8.8-.88h-1.64v2.72h-1.53V.9h1.53v2.83h1.64zm-1.5 5.19a1.93 1.93 0 01-1.06 1.69 7.14 7.14 0 01-5.82 0 1.91 1.91 0 010-3.41 5.65 5.65 0 012.91-.62 5.75 5.75 0 012.93.62 1.91 1.91 0 011 1.72zm-2.2.81a.91.91 0 00.63-.81.93.93 0 00-.63-.82 5.37 5.37 0 00-3.54 0 .91.91 0 00-.63.82.89.89 0 00.63.81 5.5 5.5 0 003.54 0zM116.21.9v4.46h1.66v1.25h-1.66v5.88h-1.51V.9zm-2.08 7.69l-.45.57c-.19.25-.34.43-.45.56a7.77 7.77 0 01-1.6-1.43 5.13 5.13 0 01-1.08-1.81 5.66 5.66 0 01-1.06 2 6.37 6.37 0 01-1.68 1.52c-.42-.52-.74-.88-.94-1.1a6 6 0 002.88-5.38V1.88h1.57v1.51a6 6 0 002.81 5.2zM130.22.9v4.46h1.67v1.25h-1.67v5.88h-1.5V.9zm-2.08 7.69l-.44.57-.45.56a7.52 7.52 0 01-1.6-1.43 5 5 0 01-1.08-1.81 5.86 5.86 0 01-1.07 2 6.22 6.22 0 01-1.68 1.52c-.42-.52-.73-.88-.93-1.1a6 6 0 002.87-5.38V1.88h1.57v1.51a6.18 6.18 0 00.74 3 6.12 6.12 0 002.07 2.2zm13.62 1.58a1.88 1.88 0 01-1.08 1.68 7.53 7.53 0 01-6 0 1.86 1.86 0 01-1.08-1.68 1.9 1.9 0 011.08-1.71 7.53 7.53 0 016 0 1.9 1.9 0 011.08 1.71zM132.5 3V1.72h6.1V3h-2.2a3.21 3.21 0 00.8 2 4 4 0 001.8 1.08l-.45.65-.37.54a4.6 4.6 0 01-1.44-.9A4.17 4.17 0 01135.62 5a3.69 3.69 0 01-1.05 1.56 4.72 4.72 0 01-1.64 1l-.41-.54c-.22-.28-.38-.5-.5-.64a4.4 4.4 0 002-1.34A3.53 3.53 0 00134.8 3zm5.91 1.93V3.67h1.75V.9h1.52v6.89h-1.52v-2.9zm-.71 4.17a4.62 4.62 0 00-1.84.29c-.44.2-.66.47-.66.82s.22.61.66.79a6.11 6.11 0 003.69 0c.44-.19.66-.46.66-.79a.9.9 0 00-.66-.82 4.66 4.66 0 00-1.85-.29zm12.86 2.9h-1.43V6.56h-1a5.27 5.27 0 01-.74 2.53 2 2 0 01-1.77 1 1.9 1.9 0 01-1.43-.61 3.39 3.39 0 01-.82-1.48 8.25 8.25 0 01-.24-2 8 8 0 01.24-2 3.45 3.45 0 01.83-1.51 1.9 1.9 0 011.43-.61 2 2 0 011.78 1 5.45 5.45 0 01.73 2.54h1V1.13h1.43zm2.31.53h-1.43V.9h1.43zM146.47 8a6.3 6.3 0 00.27-2 6.37 6.37 0 00-.27-2c-.18-.52-.46-.79-.83-.79s-.63.27-.81.79a6.37 6.37 0 00-.27 2 6.34 6.34 0 00.27 2q.27.78.81.78c.37 0 .65-.26.83-.78zM159 4.42a1.44 1.44 0 00.45 1.09 1.7 1.7 0 001.22.43 1.73 1.73 0 001.22-.43 1.44 1.44 0 00.45-1.09 1.36 1.36 0 00-.45-1.06 2 2 0 00-2.43 0 1.36 1.36 0 00-.45 1.05zm7.8-3.51v11.58h-1.51V.9zm-9.32 3.52a2.54 2.54 0 01.89-2 3.92 3.92 0 014.67 0 2.56 2.56 0 01.88 2 2.56 2.56 0 01-.88 2 3.89 3.89 0 01-4.67 0 2.57 2.57 0 01-.89-2zm7.33 5.1c-1.14.15-2.44.26-3.91.34-1.73.06-3 .09-3.64.09l-.26-1.3c1.42 0 2.68 0 3.77-.07 1.51-.05 2.8-.15 3.87-.28zm13 3h-1.44V6.81h-1V12H174V1.11h1.42v4.47h1V.9h1.44zM172.55 6a2.3 2.3 0 01.7 1.75 2.3 2.3 0 01-.7 1.75 2.56 2.56 0 01-1.83.65 2.48 2.48 0 01-1.83-.68 2.28 2.28 0 01-.71-1.72 2.26 2.26 0 01.71-1.75 2.89 2.89 0 013.66 0zm-4.62-1.08V3.67h5.53v1.21zm4 2.83a1.21 1.21 0 00-.33-.87 1.12 1.12 0 00-.84-.34 1.1 1.1 0 00-.84.34 1.21 1.21 0 00-.32.87 1.17 1.17 0 102.33 0zM169.2 3V1.8h3.12V3zM191.53.9v8.4H190V6.47h-1.65V5.23H190v-1.3h-1.65V2.69H190V.9zm-3.74 6.52h-5.46V1.63h1.53v1.78h2.42v-1.8h1.51zm-1.51-1.21v-1.6h-2.42v1.6zm5.51 6h-7.87V8.6h1.5V11h6.37zm10.76-2a1.94 1.94 0 01-1.06 1.72 5.7 5.7 0 01-2.92.64 5.61 5.61 0 01-2.9-.64 1.94 1.94 0 01-.82-2.62 1.91 1.91 0 01.82-.82 5.6 5.6 0 012.9-.63 5.7 5.7 0 012.92.63 1.91 1.91 0 011 1.72zm-.08-2.5H201V6.36h-2.12V5.21H201V4.06h-2v-1.2h2V.9h1.52zM200.35 11a.87.87 0 000-1.67 4.14 4.14 0 00-1.78-.33 3.94 3.94 0 00-1.73.31.93.93 0 00-.63.83.94.94 0 00.62.84 4.29 4.29 0 001.74.3 4.37 4.37 0 001.78-.3zm-1.54-9.31q-.18 4.51-5.13 6.06l-.81-1.22a7 7 0 002.78-1.29 3.88 3.88 0 001.47-2.29h-3.69V1.66zm15 10.7h-8.16V9.45h6.21V8.8h-6.29V7.6h7.83v2.88h-6.23v.65h6.64zm-2.39-5.73q-1.65.21-3.72.3c-1.46.04-2.7.04-3.78.04l-.21-1.22c1.2 0 2.25 0 3.16-.05v-1h-2V1.26h5.41v1.17h-3.9v1.2h4V4.8h-2v.9c1.16-.06 2.14-.13 2.94-.23zm2-5.72v6.18h-1.52V.9zm10.36 11.56h-1.53V8.38h-4.43v-1.2h10.46v1.2h-4.5zm4.07-7.5l-.66 1.23a6.55 6.55 0 01-2.52-1 4.06 4.06 0 01-1.62-1.69 3.76 3.76 0 01-1.56 1.69 6.72 6.72 0 01-2.54 1L218.3 5a5.52 5.52 0 002.77-1.08 2.68 2.68 0 001.18-2.16v-.6h1.61v.6a2.38 2.38 0 00.62 1.56A4.67 4.67 0 00226 4.47a5.68 5.68 0 001.85.52zm10.49-.67a2.43 2.43 0 01-.88 1.95 3.54 3.54 0 01-4.38 0 2.44 2.44 0 01-.89-1.95 2.61 2.61 0 01.89-2 3.18 3.18 0 012.18-.8 3.14 3.14 0 012.19.8 2.59 2.59 0 01.9 2zm3.19 8.19a3.45 3.45 0 01-1.15-.85 3.42 3.42 0 01-.79-1.16 3.53 3.53 0 01-.71 1.25 3.59 3.59 0 01-1.23 1c-.07-.08-.23-.24-.45-.49l-.53-.55a3.79 3.79 0 001.59-1.35 3.47 3.47 0 00.56-2v-.5h1.5v.5a3 3 0 00.6 1.86 3.14 3.14 0 001.51 1.15zM239.88.9h1.52v6.45h-1.52zm-3.33 10.44a2.33 2.33 0 01-.62-.46 1.87 1.87 0 01-.45-.62 3.78 3.78 0 01-.87 1.35 3.87 3.87 0 01-1.32 1l-.9-1.1a3.94 3.94 0 001.61-1.32 3.16 3.16 0 00.6-1.9v-.37h1.48v.33a2.2 2.2 0 00.39 1.29 2.06 2.06 0 001 .78zm-.13-5.93a1.49 1.49 0 00.46-1.1 1.49 1.49 0 00-.44-1.09 1.76 1.76 0 00-2.32 0 1.42 1.42 0 00-.45 1.08 1.48 1.48 0 00.45 1.1 1.7 1.7 0 002.3 0zm16.8 1.88h-10.47V6.08h10.47zM248 3a3.42 3.42 0 01-1.6 1.61 7.13 7.13 0 01-2.55.82l-.63-1.18a6.93 6.93 0 001.9-.45 4.12 4.12 0 001.5-1 2.13 2.13 0 00.61-1.49V1h1.56v.31a2.08 2.08 0 00.67 1.5 4.39 4.39 0 001.58 1 5.36 5.36 0 001.77.4l-.65 1.2a7.75 7.75 0 01-1.64-.42 5.84 5.84 0 01-1.52-.78A2.94 2.94 0 01248 3zm3.89 9.32h-7.79V7.91h1.51V9h4.77V7.89h1.51zm-1.51-1.21v-1h-4.78v1zM263.23.9v11.59h-1.5V.9zm-2.68 7l.2 1.22a17 17 0 01-2.56.38c-1.07.09-2 .14-2.81.14h-1.07V2.06h1.51v6.23a21.42 21.42 0 004.73-.44zm13.09-7v4.37h1.66v1.26h-1.66v6h-1.52V.9zm-7.1 7.65a22.7 22.7 0 004.58-.35l.07.6c0 .26.07.46.1.6a23.35 23.35 0 01-5.14.39H265V2h5.29v1.19h-3.78zm9.46 2.59V9.61h1.58v1.53z"/><path id="패스_11594" data-name="패스 11594" class="cls-2" d="M25.09 178.49v-1.06h3v1.06zm14-1.39h-6.73V173h1.27v1.11h4.15V173h1.3zm-2.74 5.24h-1.3v-3.22h-3.76v-1h8.86v1h-3.81zm1.44-6.26v-1h-4.16v1zm10.93 4.29a1.59 1.59 0 01-.91 1.42 5.26 5.26 0 01-2.53.52 5.22 5.22 0 01-2.52-.52 1.59 1.59 0 01-.91-1.42 1.61 1.61 0 01.91-1.45 5.22 5.22 0 012.52-.52 5.23 5.23 0 012.53.52 1.62 1.62 0 01.9 1.45zm-7.84-6.09v-1.06H46v1.06h-1.83a2.68 2.68 0 00.68 1.65 3.35 3.35 0 001.48 1l-.38.55c-.17.24-.27.39-.31.46a4.17 4.17 0 01-1.22-.76 3.62 3.62 0 01-.91-1.15 3.17 3.17 0 01-.88 1.32 4.21 4.21 0 01-1.39.88l-.35-.46-.42-.55a3.74 3.74 0 001.67-1.13 3 3 0 00.68-1.79zm5 1.63v-1h1.48v-2.34h1.28v5.83h-1.29v-2.45zm-.6 3.53a3.88 3.88 0 00-1.55.24c-.37.17-.56.4-.56.69s.18.52.56.67a3.89 3.89 0 001.55.25 4 4 0 001.57-.25c.37-.16.56-.38.56-.67a.78.78 0 00-.56-.69 4 4 0 00-1.58-.24zm12.88 1.18a1.4 1.4 0 01-.91 1.28 5.75 5.75 0 01-2.52.45 5.77 5.77 0 01-2.53-.45 1.41 1.41 0 01-.92-1.28 1.38 1.38 0 01.92-1.26 7.16 7.16 0 015.05 0 1.41 1.41 0 01.9 1.26zm0-1.76h-1.27v-2.51h-.8v2.2H54.9v-5.85h1.18v2.6h.8v-2.77h1.22zm-4.38-2.8a1.42 1.42 0 01.29 2 1.33 1.33 0 01-.29.29 2.86 2.86 0 01-3 0 1.44 1.44 0 010-2.28 2.86 2.86 0 012.95-.01zm2.54 5.1c.38-.13.57-.3.57-.53s-.19-.41-.57-.55a4.85 4.85 0 00-1.56-.2 5 5 0 00-1.54.2c-.37.14-.56.32-.56.55s.18.41.56.54a5 5 0 001.54.19 5.14 5.14 0 001.56-.19zm-6.48-5.84v-1h4.69v1zm1.11-1.42v-1h2.6v1zm2 3.73a.5.5 0 00.18-.68.58.58 0 00-.18-.17 1.39 1.39 0 00-1.34 0 .49.49 0 00-.17.67.42.42 0 00.17.18 1.44 1.44 0 001.27 0zm11.85-2.55a1.79 1.79 0 01-.72 1.46 2.9 2.9 0 01-1.84.58 2.85 2.85 0 01-1.84-.58 1.81 1.81 0 01-.7-1.46 1.89 1.89 0 01.7-1.5 2.76 2.76 0 011.84-.59 2.81 2.81 0 011.85.59 1.87 1.87 0 01.64 1.5zm2.44-2.55v9.8H65.9v-9.8zM62.85 182h-1.31v-3.2c-.93 0-1.74.06-2.42.06l-.19-1.05a63 63 0 006.45-.3l.11 1c-.65.09-1.53.16-2.64.23zm.59-7a.88.88 0 00-.35-.74 1.4 1.4 0 00-.92-.29 1.32 1.32 0 00-.9.29.92.92 0 00-.36.74.88.88 0 00.35.71 1.4 1.4 0 00.9.28 1.42 1.42 0 00.93-.28.83.83 0 00.35-.64zm12.46-2.54v3.73h1.4v1.06h-1.4v5h-1.29v-9.8zm-2 6.95a12.65 12.65 0 01-2.12.34q-1.31.12-2.31.12h-.89v-6.43h1.32v5.33a16.66 16.66 0 003.92-.38zm14.33.89a1.57 1.57 0 01-.9 1.42 6.42 6.42 0 01-5 0 1.58 1.58 0 01-.91-1.42 1.6 1.6 0 01.91-1.45 6.42 6.42 0 015 0 1.62 1.62 0 01.95 1.52zm-7.83-6.09v-1.06h5.16v1.06h-1.81a2.68 2.68 0 00.68 1.65 3.24 3.24 0 001.48 1l-.38.55-.32.46a4.25 4.25 0 01-1.21-.76 3.62 3.62 0 01-.91-1.15 3.27 3.27 0 01-.88 1.32 4.26 4.26 0 01-1.4.88l-.34-.46c-.18-.24-.32-.42-.43-.55a3.77 3.77 0 001.68-1.13 3.09 3.09 0 00.68-1.79zm5 1.63v-1h1.47v-2.34h1.29v5.83h-1.23v-2.45zm-.61 3.53a4 4 0 00-1.56.24c-.37.17-.55.4-.55.69s.18.52.55.67a5.07 5.07 0 003.13 0c.37-.16.55-.38.55-.67a.76.76 0 00-.55-.69 4 4 0 00-1.51-.17zm6.09-2.73a19.41 19.41 0 003.88-.3l.14 1a21 21 0 01-4.33.34h-1v-4.48H94v1h-3.1zm7.45-.75H97v2.3h-1.3v-5.73H97v2.39h1.38zm-1.26 4.39a1.62 1.62 0 01-.89 1.43 5 5 0 01-2.48.53 4.89 4.89 0 01-2.46-.53 1.61 1.61 0 010-2.88 4.78 4.78 0 012.46-.53 4.86 4.86 0 012.48.53 1.62 1.62 0 01.95 1.52zm-1.87.69a.71.71 0 000-1.38 4.51 4.51 0 00-3 0 .76.76 0 00-.53.69.75.75 0 00.53.69 4.64 4.64 0 003 0zm9-5.16h-5.65v-1h5.68zm-4.31-1.7v-1h3v1zm6.34-1.65v4h1.36v1.07h-1.36v4.76H105v-9.8zM99 178.34a2 2 0 01.66-1.52 2.74 2.74 0 013.41 0 1.92 1.92 0 01.66 1.52 2 2 0 01-.66 1.51 2.75 2.75 0 01-3.42 0 2 2 0 01-.65-1.51zm1.25 0a1 1 0 00.32.77 1.25 1.25 0 001.61 0 1.07 1.07 0 00.3-.77 1 1 0 00-.32-.78 1.22 1.22 0 00-1.6 0 1 1 0 00-.31.78zM114 179l-.72 1a5.05 5.05 0 01-1.41-1.15 4.22 4.22 0 01-1-1.48A4.06 4.06 0 01110 179a4.46 4.46 0 01-1.51 1.25l-.77-1a4.64 4.64 0 002.46-4.46v-.26h-2v-1h5.2v1h-1.89v.26A4.35 4.35 0 00114 179zm2 3.33h-1.29v-9.8H116zm7.74-.45a12.88 12.88 0 01-3 .33v-3.75h1.24v2.73a7.4 7.4 0 001.62-.26zm3.19-3.32h-2.33v-.87h2.27zm1.32 1.21h-4.87v-.89h4.87zm.56-4.16h-1.4v1.7H126v-4.78h1.31v2h1.4zm-9-.3a2.15 2.15 0 01.72-1.67 2.73 2.73 0 013.62 0 2.17 2.17 0 01.72 1.68 2.07 2.07 0 01-.72 1.62 2.93 2.93 0 01-3.63 0 2.08 2.08 0 01-.71-1.63zm1.27 0a1.12 1.12 0 00.34.85 1.3 1.3 0 00.92.34 1.28 1.28 0 00.91-.34 1.13 1.13 0 00.35-.85 1.24 1.24 0 00-.35-.9 1.22 1.22 0 00-.91-.38 1.19 1.19 0 00-.91.38 1.26 1.26 0 00-.35.9zm6.46 5.9a1 1 0 01-.52.92 2.67 2.67 0 01-2.57 0 1.07 1.07 0 01-.35-1.48 1.1 1.1 0 01.35-.36 2.67 2.67 0 012.57 0 1 1 0 01.52.92zm-1.15 0a.31.31 0 00-.18-.3 1 1 0 00-.48-.1c-.43 0-.64.13-.64.4s.21.4.64.4.66-.14.66-.4zm11.42-2.71h-8.85v-1h8.85zm-1 3.57H130v-2.85h1.28v1.84h5.46zm0-7.22a1.61 1.61 0 01-.92 1.43 6 6 0 01-5 0 1.56 1.56 0 010-2.83 4.71 4.71 0 012.49-.55 4.78 4.78 0 012.51.55 1.61 1.61 0 01.92 1.41zm-1.33 0q0-.45-.57-.72a3.49 3.49 0 00-1.53-.27 3.55 3.55 0 00-1.51.27q-.57.27-.57.72t.57.69a3.7 3.7 0 001.51.26 3.48 3.48 0 001.53-.26q.57-.26.57-.69zm14.39 1h-1.39v2.35h-1.31v-5.73h1.31v2.33h1.39zm-4.17 1.67H141v-4.5h1.27v1.33h2.07V173h1.3zm-1.3-1v-1.15h-2.1v1.15zm4.19 3.78a1.63 1.63 0 01-.89 1.45 6 6 0 01-4.94 0 1.63 1.63 0 01-.71-2.19 1.68 1.68 0 01.71-.71 4.78 4.78 0 012.46-.53 4.89 4.89 0 012.49.52 1.65 1.65 0 01.88 1.47zm-3.37-1a3.47 3.47 0 00-1.49.25.81.81 0 00-.53.71.79.79 0 00.53.7 3.66 3.66 0 001.49.25 3.69 3.69 0 001.51-.25.77.77 0 00.54-.7.81.81 0 00-.54-.71 3.67 3.67 0 00-1.5-.25zm12.94 2.82h-6.46v-3.86h1.3v.94h3.86v-.95h1.29zm-1.29-1v-.9H153v.9zm1.28-3.37h-1.28v-2.08h-1.4v-1.09h1.4v-2.11h1.28zm-3.17-.42h-4.61V173h1.29v1.28h2.05V173H155zm-1.27-1v-1.11h-2.05v1.11zm14.44 4.69h-8.85v-1h8.85zm-1.81-7.12a2.2 2.2 0 010 3.67 5.18 5.18 0 01-5.22 0 2.2 2.2 0 010-3.67 5.18 5.18 0 015.19.03zm-1 2.94a1.26 1.26 0 00.44-1.75 1.16 1.16 0 00-.44-.44 3.51 3.51 0 00-3.3 0 1.28 1.28 0 00-.44 1.75 1.32 1.32 0 00.44.44 3.51 3.51 0 003.31.03zm11.17 1.69h-3v1.53h3.81v1h-8.85v-1h3.76v-1.53h-2.63v-3.25h5.4v-1.13h-5.38v-1h6.66v3.17h-5.33v1.19h5.61zm11.94 3.77h-1.28v-9.8h1.28zm-7.15-3.09a4.25 4.25 0 01-.67-2.53 4.39 4.39 0 01.67-2.54 2.27 2.27 0 013.72 0 4.4 4.4 0 01.68 2.54 4.35 4.35 0 01-.68 2.53 2.28 2.28 0 01-3.18.54 2.31 2.31 0 01-.53-.51zm3.17-2.53a3.8 3.8 0 00-.37-1.81 1.06 1.06 0 00-.94-.66 1 1 0 00-.92.66 3.91 3.91 0 00-.36 1.81 3.85 3.85 0 00.36 1.8 1.06 1.06 0 00.92.66 1.09 1.09 0 00.94-.66 3.74 3.74 0 00.37-1.8zm9.44 1.35h-4v-4.78h1.3v1.44h1.39v-1.47h1.29v1.82h.88v-2.34H196v6.82h-1.2v-3.41h-.88zm4.25 4h-6.92v-3.15h1.28V181h5.64zm-.24-2.3h-1.22v-7.26h1.22zm-5.3-2.74v-1.34h-1.39v1.34zm13.73-.63h-5.1v1.07h5.42v1H200v-5.2h6.61v1h-5.33v1.1h5.1zm1.34 3.66v1h-8.85v-1zm6.77 1.8h-1.21v-4.57h-.84a4.58 4.58 0 01-.62 2.14 1.67 1.67 0 01-1.5.84 1.62 1.62 0 01-1.21-.51 3 3 0 01-.7-1.29 6.71 6.71 0 01-.2-1.73 6.48 6.48 0 01.2-1.7 2.88 2.88 0 01.7-1.28 1.71 1.71 0 012.71.33 4.5 4.5 0 01.62 2.15h.84v-3.54h1.21zm1.95.45h-1.21v-9.8h1.21zm-5.41-3.78a5.22 5.22 0 00.23-1.72 5.29 5.29 0 00-.23-1.72c-.15-.44-.39-.66-.7-.66s-.53.22-.68.66a6.55 6.55 0 000 3.44c.15.44.38.66.68.66s.56-.22.7-.66zm16.59 3.72h-6.35v-3.33h6.35zm-7.45-6.8v-1h5.17v1h-1.87a2.65 2.65 0 002.1 1.94l-.64 1a4.46 4.46 0 01-1.26-.7 3 3 0 01-.91-1.06 3.21 3.21 0 01-.91 1.22 3.74 3.74 0 01-1.38.79l-.72-1a3 3 0 002.29-2.2zm8.84.71h-1.4v2.26h-1.27v-5.85h1.27v2.54H229zm-2.68 5.07v-1.34h-3.77v1.35zm-5-7.34v-1h2.85v1zm13.23 4.86v-1.1H236v-2.06h-1.41v-1.09H236v-1.93h1.29v9.8H236v-3.62zm-5.31-2a4.33 4.33 0 01.67-2.55 2.26 2.26 0 013.15-.55 2.39 2.39 0 01.55.55 5.08 5.08 0 010 5.08 2.26 2.26 0 01-3.16.54 2.31 2.31 0 01-.54-.54 4.27 4.27 0 01-.67-2.53zm3.81 0a3.91 3.91 0 00-.35-1.81 1 1 0 00-1.86 0 3.91 3.91 0 00-.35 1.81 3.8 3.8 0 00.35 1.79 1 1 0 001.86 0 3.8 3.8 0 00.35-1.79zm11-1.42h-5.69v-1H244zm-.47 2.08a1.55 1.55 0 01-.66 1.28 2.58 2.58 0 01-1.65.5 2.62 2.62 0 01-1.67-.5 1.52 1.52 0 01-.66-1.28 1.55 1.55 0 01.66-1.29 2.57 2.57 0 011.67-.51 2.65 2.65 0 011.65.51 1.61 1.61 0 01.66 1.29zm-3.76-3.54v-1h2.91v1zm6.29-1.3v3.17h1.36v1.06h-1.36v3.05h-1.29v-7.28zm.23 9.57h-6.7v-2.59h1.3v1.57h5.4zm-6.13-4.73a.64.64 0 00.31.53 1.38 1.38 0 001.49 0 .61.61 0 00.31-.53.64.64 0 00-.31-.56 1.35 1.35 0 00-1.49 0 .66.66 0 00-.31.56zm18.19 5h-1.29v-9.8h1.29zm-3-8.78a7.75 7.75 0 01-4.38 7l-.79-1a6.72 6.72 0 002.62-2.1 5.62 5.62 0 001.16-2.87h-3.19v-1.07zm12.09 3.39h-2.89v.75h3.8v1h-8.85v-1h3.76v-.75h-2.6v-2.52h5.22v-.6h-5.25v-1h6.53v2.48H262v.66h5.49zm-6.9 2.34h6.67v3.06H266v-2h-5.39zm16.29 3.05h-1.27v-9.8h1.28zm-7.14-3.09a5.07 5.07 0 010-5.07 2.26 2.26 0 013.16-.56 2.48 2.48 0 01.56.56 5.11 5.11 0 010 5.06 2.28 2.28 0 01-3.72 0zm3.16-2.53a3.86 3.86 0 00-.36-1.81 1 1 0 00-1.87 0 3.88 3.88 0 00-.35 1.81 3.8 3.8 0 00.35 1.79 1 1 0 00.92.66 1.07 1.07 0 00.95-.66 3.69 3.69 0 00.36-1.79zm13-.11a1 1 0 01-.45.83 2.43 2.43 0 01-1.22.43v.34a20.87 20.87 0 002.36-.2 5.44 5.44 0 00.05.55v.41c-.78.1-1.78.18-3 .25s-2.19.1-3 .1l-.17-1h2.38v-.38a2.49 2.49 0 01-1.22-.43 1 1 0 01-.45-.84 1.09 1.09 0 01.65-1 4 4 0 013.34 0 1.11 1.11 0 01.64 1zm2.5-4.07v3.09h1.21v1.07h-1.21v2.61h-1.28v-6.77zm-6.74 7.21h6.74v2.6h-1.28v-1.58h-5.46zm4.72-4.75h-5.51v-.94h5.51zm-4-1.3v-.94H285v.94zm2.3 2.9c0-.14-.09-.25-.28-.34a2.4 2.4 0 00-1.56 0c-.19.09-.28.2-.28.34s.09.25.28.33a2.06 2.06 0 00.78.12c.71 0 1.06-.14 1.06-.44zm13.32 3h-1.27v-7.1H298zm.22 2.43h-6.8v-3.13h1.3v2.12h5.5zm-8-6.39a2.26 2.26 0 01.73-1.74 3 3 0 013.84 0 2.29 2.29 0 01.73 1.74 2.26 2.26 0 01-.73 1.74 3.11 3.11 0 01-3.85 0 2.29 2.29 0 01-.73-1.74zm1.32 0a1.29 1.29 0 00.36 1 1.43 1.43 0 001.95 0 1.38 1.38 0 00.36-1 1.26 1.26 0 00-1.21-1.32h-.13a1.29 1.29 0 00-1 .37 1.31 1.31 0 00-.37.95zm14.1 2.75c-.95.12-2 .2-3.15.25s-2.36.1-3.24.1l-.18-1h2.66v-1.1H300v-3.36h4.6v1h-3.31v1.32h3.39v1H303v1q1.54-.07 2.49-.21zm1.68-5.9v7.2H306v-7.19zm.08 9.51h-6.63v-2.74H302V181h5.33zm11.78-1.7a1.65 1.65 0 01-.89 1.46 4.86 4.86 0 01-2.48.53 4.73 4.73 0 01-2.45-.53 1.64 1.64 0 01-.7-2.22 1.61 1.61 0 01.7-.69 4.73 4.73 0 012.45-.54 4.87 4.87 0 012.48.54 1.63 1.63 0 01.89 1.46zm-.07-2.12h-1.29v-1.06H316v-1h1.8v-1h-1.67v-1h1.67v-1.66h1.28zm-1.82 2.79a.73.73 0 000-1.41 4.34 4.34 0 00-3 0 .74.74 0 000 1.41 4.56 4.56 0 003 0zm-1.3-7.88q-.15 3.83-4.35 5.13l-.68-1a5.73 5.73 0 002.36-1.09 3.3 3.3 0 001.24-1.93h-3.12v-1.07zm12.12 2a1.78 1.78 0 01-.95 1.57 5.66 5.66 0 01-5.07 0 1.78 1.78 0 010-3.13 5.63 5.63 0 015.06 0 1.8 1.8 0 01.95 1.56zm-2.85 7.22H324v-3.26h-3.76v-1h8.86v1h-3.81zm.92-6.4a1 1 0 00.59-.82.93.93 0 00-.59-.82 3.85 3.85 0 00-3.12 0 .94.94 0 00-.58.82 1 1 0 00.58.82 3.93 3.93 0 003.12 0zM25.09 202.49v-1.06h3v1.06zm7.85.6a19.25 19.25 0 003.87-.3c0 .12 0 .29.07.51s.06.39.08.5a21.25 21.25 0 01-4.36.32h-.93v-6.73h4.5v1h-3.23v1.78H36v1h-3.06zm6-6.57v3.7h1.36v1.06H39v5.05h-1.34v-9.8zm9.68 7.11h-1.27v-7.1h1.28zm.22 2.43h-6.8v-3.13h1.3v2.12h5.5zm-8-6.39a2.29 2.29 0 01.73-1.74 3.06 3.06 0 013.85 0 2.45 2.45 0 010 3.46 3.1 3.1 0 01-3.85 0 2.26 2.26 0 01-.73-1.74zm1.32 0a1.38 1.38 0 00.36 1 1.43 1.43 0 001.95 0 1.29 1.29 0 00.36-1 1.26 1.26 0 00-1.2-1.32h-.14a1.3 1.3 0 00-1 .37 1.34 1.34 0 00-.36.95zm9.32-.18a1.21 1.21 0 00.38.93 1.42 1.42 0 001 .36 1.47 1.47 0 001-.36 1.24 1.24 0 00.38-.93 1.18 1.18 0 00-.38-.9 1.51 1.51 0 00-1-.35 1.46 1.46 0 00-1 .35 1.2 1.2 0 00-.38.91zm6.56-3v9.8h-1.27v-9.8zm-7.88 3a2.17 2.17 0 01.74-1.7 3 3 0 012-.65 2.89 2.89 0 012 .65 2.32 2.32 0 01.13 3.27l-.13.13a3.29 3.29 0 01-4 0 2.14 2.14 0 01-.75-1.69zm6.2 4.32c-1 .12-2.08.22-3.31.28-1.47.06-2.5.09-3.08.08l-.19-1.1c1.2 0 2.26 0 3.19-.06 1.27 0 2.37-.12 3.28-.24zM68 205.87h-1.2v-3.3h-1.23v-1h1.24v-1.38h-1v-1.09h1v-2.38H68zm1.95.45h-1.2v-9.8H70zm-4.25-8.64a7.53 7.53 0 01-3.49 6.73l-.84-.89a6.48 6.48 0 002.18-2.08 5.9 5.9 0 00.9-2.73H62v-1zm13.3 6.69a1.56 1.56 0 01-.91 1.42 6.39 6.39 0 01-5 0 1.58 1.58 0 010-2.86 6.28 6.28 0 015 0 1.58 1.58 0 01.91 1.44zm-7.83-6.09v-1.06h5.16v1.06h-1.82a2.68 2.68 0 00.68 1.65 3.24 3.24 0 001.48 1l-.38.55-.32.46a4.25 4.25 0 01-1.21-.76 3.62 3.62 0 01-.91-1.15 3.19 3.19 0 01-.89 1.32 4.11 4.11 0 01-1.39.88l-.34-.46-.43-.55a3.61 3.61 0 001.67-1.13 3 3 0 00.69-1.79zm5 1.63v-1h1.47v-2.34H79v5.83h-1.31v-2.45zm-.6 3.53a4 4 0 00-1.56.24c-.37.17-.55.4-.55.69s.18.52.55.67a5.07 5.07 0 003.13 0c.37-.16.55-.38.55-.67a.76.76 0 00-.55-.69 4 4 0 00-1.53-.24zM89 205h-8.89v-1H89zm-1.8-7.11a2.19 2.19 0 01.61 3 2.12 2.12 0 01-.61.62 5.18 5.18 0 01-5.22 0 2.2 2.2 0 01-.63-3 2.07 2.07 0 01.63-.62 5.18 5.18 0 015.18.04zm-1 2.94a1.28 1.28 0 00.44-1.75 1.32 1.32 0 00-.44-.44 3.51 3.51 0 00-3.3 0 1.27 1.27 0 00-.44 1.75 1.24 1.24 0 00.44.44 3.51 3.51 0 003.3.04zm11.17 1.69h-3v1.53h3.8v1h-8.82v-1h3.76v-1.53h-2.63v-3.25h5.33v-1.13h-5.38v-1h6.65v3.17h-5.32v1.19h5.61zm12.18 3.77h-1.24v-4.92h-.87v4.47h-1.21v-9.14h1.21v3.69h.87v-3.86h1.24zm-6.77-3.29a10.42 10.42 0 002.84-.22l.12 1a14.15 14.15 0 01-3.31.27h-.93v-6.32h3.7v1h-2.42zm15.78.68h-1.29v-7.1h1.28zm.21 2.44H112V203h1.3v2.05h5.52zm-2.36-4.91l-.73 1a3.81 3.81 0 01-1.24-.83 4.26 4.26 0 01-1-1.27 3.43 3.43 0 01-.89 1.41 3.53 3.53 0 01-1.37.92l-.78-1a3.53 3.53 0 001.72-1.28 3.28 3.28 0 00.64-2v-1h1.34v1a3.1 3.1 0 00.68 1.94 3.3 3.3 0 001.63 1.06zm14 5.17h-1.27v-9.8h1.27zm-7.14-3.09a5.07 5.07 0 010-5.07 2.25 2.25 0 013.71 0 4.31 4.31 0 01.68 2.54 4.25 4.25 0 01-.68 2.52 2.27 2.27 0 01-3.17.55 2.13 2.13 0 01-.55-.59zm3.16-2.53a3.89 3.89 0 00-.36-1.81 1 1 0 00-1.87 0 3.91 3.91 0 00-.36 1.81 3.81 3.81 0 00.36 1.79 1 1 0 00.92.66 1.07 1.07 0 001-.66 3.81 3.81 0 00.36-1.79zm9.44 1.35h-4v-4.78h1.3v1.44h1.39v-1.47h1.29v1.82h.88v-2.42H138v6.82h-1.22v-3.41h-.88zm4.25 4h-6.92v-3.15h1.28v2.12h5.64zm-.24-2.3h-1.22v-7.26h1.22zm-5.3-2.74v-1.34h-1.39v1.34zm13.73-.63h-5.1v1.07h5.43v1h-6.71v-5.2h6.61v1h-5.34v1.1h5.1zm1.34 3.67v1h-8.86v-1zm6.77 1.79h-1.22v-4.57h-.84a4.58 4.58 0 01-.62 2.14 1.67 1.67 0 01-1.5.84 1.62 1.62 0 01-1.21-.51 3 3 0 01-.7-1.29 6.71 6.71 0 01-.2-1.73 6.53 6.53 0 01.2-1.7 2.84 2.84 0 01.7-1.27 1.59 1.59 0 011.21-.52 1.67 1.67 0 011.51.84 4.53 4.53 0 01.61 2.15h.84v-3.54h1.21zm2 .45h-1.21v-9.8h1.21zm-5.42-3.86a5.22 5.22 0 00.23-1.72 5.29 5.29 0 00-.23-1.72c-.15-.44-.39-.66-.7-.66s-.53.22-.68.66a6.55 6.55 0 000 3.44c.15.44.38.66.68.66s.55-.22.7-.66zm16.59 3.72h-6.35v-3.33h6.35zm-7.45-6.8v-1h5.17v1h-1.87a2.65 2.65 0 002.1 1.94l-.63 1a4.2 4.2 0 01-1.26-.7 2.82 2.82 0 01-.91-1.06 3.34 3.34 0 01-.92 1.22 3.66 3.66 0 01-1.38.79c-.16-.22-.39-.55-.72-1a3 3 0 002.29-2.2zm8.85.71h-1.4v2.26h-1.28v-5.85h1.28v2.54h1.4zm-2.69 5.07v-1.34h-3.77v1.35zm-5-7.34v-1h2.85v1zm13.23 4.86v-1.1h1.4v-2.06h-1.4v-1.09h1.45v-1.93h1.29v9.8h-1.29v-3.62zm-5.31-2a4.4 4.4 0 01.67-2.55 2.27 2.27 0 013.16-.55 2.39 2.39 0 01.55.55 4.4 4.4 0 01.67 2.55 4.31 4.31 0 01-.67 2.52 2.28 2.28 0 01-3.17.55 2.31 2.31 0 01-.54-.54 4.36 4.36 0 01-.67-2.53zm3.82 0a3.89 3.89 0 00-.36-1.81 1.07 1.07 0 00-.94-.67 1 1 0 00-.91.67 4 4 0 00-.36 1.81 3.93 3.93 0 00.36 1.79 1 1 0 00.91.66 1.07 1.07 0 00.94-.66 3.93 3.93 0 00.36-1.79zm11-1.42h-5.69v-1H186zm-.47 2.08a1.54 1.54 0 01-.65 1.28 2.67 2.67 0 01-1.66.5 2.7 2.7 0 01-1.67-.5 1.52 1.52 0 01-.66-1.28 1.54 1.54 0 01.66-1.29 2.91 2.91 0 013.32 0 1.58 1.58 0 01.66 1.29zm-3.76-3.54v-1h2.91v1zm6.29-1.3v3.16h1.37v1.07H188v3.05h-1.29v-7.28zm.23 9.57h-6.7v-2.59h1.3v1.57h5.4zm-6.12-4.73a.63.63 0 00.3.53 1.38 1.38 0 001.49 0 .62.62 0 000-1.09 1.35 1.35 0 00-1.49 0 .66.66 0 00-.31.56zm18.26 3a1.65 1.65 0 01-.9 1.45 4.81 4.81 0 01-2.47.54 4.73 4.73 0 01-2.45-.54 1.64 1.64 0 01-.7-2.22 1.66 1.66 0 01.7-.69 4.73 4.73 0 012.45-.54 4.81 4.81 0 012.47.54 1.61 1.61 0 01.89 1.46zm-.07-2.13H199v-1.06h-1.79v-1H199v-1h-1.66v-1H199v-1.66h1.29zm-1.86 2.76a.76.76 0 00.52-.7.78.78 0 00-.53-.71 3.65 3.65 0 00-1.5-.26 3.47 3.47 0 00-1.46.26.78.78 0 00-.53.71.76.76 0 00.52.7 3.38 3.38 0 001.47.25 3.56 3.56 0 001.51-.25zm-1.3-7.88c-.11 2.55-1.55 4.26-4.35 5.13l-.68-1a5.82 5.82 0 002.35-1.09 3.37 3.37 0 001.25-1.94h-3.13v-1.06zm12.12 2a1.81 1.81 0 01-1 1.58 5.72 5.72 0 01-5.07 0 1.77 1.77 0 01-.74-2.4 1.73 1.73 0 01.75-.74 5.63 5.63 0 015.06 0 1.8 1.8 0 011 1.56zm-2.85 7.22h-1.29v-3.26h-3.76v-1h8.86v1h-3.81zm.92-6.4a.87.87 0 00.54-1.1.9.9 0 00-.54-.54 3.93 3.93 0 00-3.12 0 .88.88 0 00-.54 1.1.9.9 0 00.54.54 3.93 3.93 0 003.12 0zM25.09 226.49v-1.06h3v1.06zm7.8-1.78a19.37 19.37 0 003.87-.3l.14 1a21 21 0 01-4.33.34h-1v-4.47H36v1h-3.1zm7.44-.75H39v2.3h-1.3v-5.73H39v2.39h1.38zm-1.26 4.39a1.6 1.6 0 01-.89 1.43 5 5 0 01-2.48.53 4.83 4.83 0 01-2.45-.53 1.61 1.61 0 01-.72-2.17 1.6 1.6 0 01.72-.71 4.73 4.73 0 012.45-.53 4.84 4.84 0 012.48.53 1.62 1.62 0 01.89 1.45zm-1.87.65a.71.71 0 000-1.38 4.43 4.43 0 00-3 0 .71.71 0 000 1.38 3.66 3.66 0 001.49.25 3.79 3.79 0 001.5-.25zm11.44 1.17h-6.5v-3.42h6.5zm-7.79-6.88v-1H46v1h-1.86a2.61 2.61 0 002.12 2c-.14.22-.36.55-.63 1a4.05 4.05 0 01-1.26-.68 2.94 2.94 0 01-.92-1.06 3.1 3.1 0 01-.91 1.21 3.78 3.78 0 01-1.39.79l-.38-.53-.33-.46a2.94 2.94 0 002.29-2.31zm7.79 3h-1.29v-1.68h-1.48v-1h1.48v-3.08h1.29zm-1.29 2.88v-1.42h-3.93v1.42zM42 221.81v-1h2.85v1zm18-1.28v2.75h1.38v1.07h-1.32v3.29h-1.3v-7.11zm.23 9.51H53.7v-3.13H55V229h5.3zm-7-4.6a2.44 2.44 0 010-3.45A3 3 0 0157 222a2.46 2.46 0 010 3.45 2.94 2.94 0 01-3.73-.01zm.6-1.72a1.33 1.33 0 00.34.95 1.21 1.21 0 00.93.38 1.24 1.24 0 00.94-.38 1.38 1.38 0 00.35-.95 1.34 1.34 0 00-.35-.94 1.24 1.24 0 00-.94-.37 1.18 1.18 0 00-.92.37 1.3 1.3 0 00-.36.94zM70 230.33h-1.26v-4.91h-.95v4.46h-1.2v-9.18h1.2v3.69h.95v-3.86H70zm-3.76-2.88a9.37 9.37 0 01-1.38.2c-.66.06-1.29.08-1.88.08h-.88v-6.06h1.27v5a10.71 10.71 0 002.7-.26c0 .14 0 .34.09.59s.07.4.07.45zM79.73 226h-8.86v-1h8.85zm-.9 4.26H72v-2.27h5.33v-.51H72v-.93h6.64v2.29h-5.36v.51h5.54zm-.08-5.73H72v-2.21h5.2v-.52H72v-.91h6.53v2.23h-5.21v.51h5.43zm11.81.47h-2.78v.62h3.8v1h-8.85v-1h3.76V225h-2.6v-4.06h6.58v1h-5.29v.55h5v1h-5v.51h5.38zm-.83 2.49a1.36 1.36 0 010 2.52 7.41 7.41 0 01-5.14 0 1.36 1.36 0 010-2.52 5.48 5.48 0 012.56-.47 5.59 5.59 0 012.58.47zm-.48 1.26c0-.23-.18-.41-.56-.54a5 5 0 00-1.54-.19 4.82 4.82 0 00-1.51.19q-.57.19-.57.54t.57.51a4.54 4.54 0 001.51.19 4.72 4.72 0 001.54-.19c.37-.12.56-.29.56-.51zm11.06 1.63h-1.23v-4.81h-.81v4.36h-1.2v-9.23h1.2v3.79h.81v-4h1.22zm-4.44-5.52a2.14 2.14 0 010 3 2.19 2.19 0 01-1.56.55 2 2 0 01-1.54-3.51 2.44 2.44 0 013.1 0zm-3.9-.92v-1h4.67v1zm3.34 2.4a1 1 0 00-.28-.74 1 1 0 00-.71-.28.91.91 0 00-.7.28 1.13 1.13 0 000 1.48A1 1 0 0095 227a1 1 0 00.27-.73zm-2.29-4v-1h2.64v1zm13.07 6.81a5.36 5.36 0 01-1.26-.15 3.38 3.38 0 01-1-.38l.22-1a2.93 2.93 0 00.81.3 4.35 4.35 0 001 .13 1.93 1.93 0 001.19-.32 1.15 1.15 0 00.42-.95c0-.74-.52-1.12-1.57-1.14h-.78v-1h.7a2 2 0 001.05-.31 1 1 0 00.4-.81c0-.69-.45-1-1.34-1a3.9 3.9 0 00-1.61.4l-.15-1a3.25 3.25 0 011-.33 5 5 0 011.16-.14 2.69 2.69 0 011.7.49 1.62 1.62 0 01.64 1.38 1.77 1.77 0 01-1.35 1.76 1.73 1.73 0 011.6 1.84 2 2 0 01-.74 1.65 3.17 3.17 0 01-2.09.55zm11.76 1.13h-6.74v-2.63h5.16v-.68h-5.22v-1h6.49v2.62h-5.15v.67h5.46zm-.31-4.82h-1.27v-4.9h1.27zm-7.81-2.3a2.07 2.07 0 01.74-1.62 3 3 0 013.72 0 2 2 0 01.73 1.63 2 2 0 01-.72 1.59 2.84 2.84 0 01-1.86.6 2.9 2.9 0 01-1.86-.6 1.93 1.93 0 01-.75-1.58zm1.67-.86a1.13 1.13 0 00-.4.85 1.07 1.07 0 00.38.82 1.45 1.45 0 001 .32 1.4 1.4 0 00.94-.33 1 1 0 00.36-.8 1.18 1.18 0 00-.35-.87 1.29 1.29 0 00-1-.34 1.36 1.36 0 00-.94.35zm18.23 8.06h-1.22v-4.91h-1v4.46h-1.2v-9.21h1.2v3.69h1v-3.86h1.22zm-3.76-2.88a9 9 0 01-1.38.2c-.66.06-1.28.08-1.88.08h-.88v-6.06H123v5a10.62 10.62 0 002.7-.26c0 .14 0 .34.09.59s.07.4.08.45zm12.7-2.16v-1.09H140v-1.34h-1.37v-1.09H140v-1.24h1.28v7.1H140v-2.34zm2.91 4.77h-6.78V227h1.3v2.08h5.47zm-7.56-4.62a2.53 2.53 0 010-3.52 2.9 2.9 0 013.74 0 2.53 2.53 0 010 3.52 2.9 2.9 0 01-3.74-.03zm.6-1.77a1.43 1.43 0 00.35 1 1.15 1.15 0 00.93.38 1.17 1.17 0 00.92-.38 1.57 1.57 0 000-1.95 1.17 1.17 0 00-.92-.38 1.15 1.15 0 00-.93.38 1.33 1.33 0 00-.35 1zm16.29 6.59h-6.75v-2.64h5.16v-.68H144v-1h6.49v2.64h-5.14v.67h5.45zm-.31-4.83h-1.28v-.83h-1.84v-1h1.84v-.82h-1.66v-1h1.66v-1.31h1.28zm-3.06-4.49a4.31 4.31 0 01-.38 1.84 4.14 4.14 0 01-1 1.4 6 6 0 01-1.4.94 6.52 6.52 0 01-1.61.55l-.63-1a5.39 5.39 0 002.35-.89A3 3 0 00146 222h-3.14v-1zm12.3 9.39h-1.28v-9.8h1.28zm-7.14-3.09a5.08 5.08 0 010-5.08 2.27 2.27 0 013.16-.55 2.39 2.39 0 01.55.55 5.07 5.07 0 010 5.07 2.28 2.28 0 01-3.18.54 2.22 2.22 0 01-.53-.56zm3.16-2.53a3.86 3.86 0 00-.36-1.81 1.08 1.08 0 00-1-.67 1 1 0 00-.92.67 4.68 4.68 0 000 3.6 1 1 0 00.92.66 1.1 1.1 0 001-.66 3.81 3.81 0 00.36-1.79zm14.06 2.42l.13 1c-1 .13-2 .22-3.06.27-1.64 0-2.72.08-3.23.08l-.18-1h2.57v-1.79h-1.78v-4.17h4.9v1h-3.61v2.13h3.64v1h-1.87v1.75c1 0 1.8-.1 2.48-.19zm1.83-6.6v9.8h-1.28v-9.8zm7.22 6.46l-.72 1a5.16 5.16 0 01-1.41-1.14 4.17 4.17 0 01-1-1.49 4.14 4.14 0 01-.85 1.62 4.45 4.45 0 01-1.52 1.24l-.77-.95a4.65 4.65 0 002.46-4.46v-.26h-2v-1h5.2v1h-1.89v.26a4.35 4.35 0 002.41 4.19zm2 3.34h-1.29v-9.8h1.29zm7.74-.45a12.85 12.85 0 01-3 .33v-3.75h1.22v2.73a8.13 8.13 0 001.63-.25zm3.19-3.32h-2.26v-.87h2.26zm1.32 1.21h-4.87v-.89h4.87zm.56-4.16h-1.4v1.71H191v-4.79h1.31v2h1.4zm-9-.3a2.22 2.22 0 01.72-1.67 2.56 2.56 0 011.8-.68 2.6 2.6 0 011.82.67 2.19 2.19 0 01.72 1.68 2.05 2.05 0 01-.72 1.62 2.92 2.92 0 01-3.63 0 2.09 2.09 0 01-.72-1.63zm1.27 0a1.16 1.16 0 00.34.85 1.41 1.41 0 001.84 0 1.12 1.12 0 00.34-.85 1.26 1.26 0 00-.35-.9 1.17 1.17 0 00-.91-.37 1.14 1.14 0 00-.91.37 1.3 1.3 0 00-.35.9zm6.46 5.9a1 1 0 01-.52.93 2.65 2.65 0 01-2.56 0 1.07 1.07 0 010-1.84 2.65 2.65 0 012.56 0 1 1 0 01.52.91zm-1.14 0a.32.32 0 00-.19-.3 1.1 1.1 0 00-.47-.1c-.44 0-.65.14-.65.4s.21.4.65.4.66-.14.66-.4zm10.73 1.09h-1.29v-4.92h-1.87v-1.08h1.87v-3.8H202zm-3.13-8.77a7.81 7.81 0 01-4.38 7.05l-.79-1a6.58 6.58 0 002.61-2.12 5.79 5.79 0 001.17-2.9h-3.17v-1.07zm11.9-1v3.73h1.41v1.07h-1.41v5h-1.28v-9.8zm-1.94 7a14 14 0 01-2.12.34c-.87.08-1.64.12-2.32.12h-.89v-6.44h1.28v5.33a16.58 16.58 0 003.91-.38zM224 223.7h-1.4v2h-1.3v-5.2h1.3v2.1h1.4zm-7.46.77a20.88 20.88 0 003.87-.28l.15 1a20.4 20.4 0 01-4.34.35h-1v-4.39h4.37v1h-3.09zm6.06 5.74h-6.35v-4h1.28v1h3.78v-1h1.29zm-1.29-1v-1h-3.78v1zm11-1.56H231v-7.1h1.28zm.21 2.44h-6.81V227H227v2.05h5.51zm-2.35-4.91l-.73 1a3.66 3.66 0 01-1.23-.83 4.29 4.29 0 01-1-1.27 3.43 3.43 0 01-.89 1.41 3.53 3.53 0 01-1.37.92l-.78-1a3.53 3.53 0 001.72-1.28 3.28 3.28 0 00.64-2v-1h1.34v1a3.1 3.1 0 00.68 1.94 3.3 3.3 0 001.59 1.16zm12.13.53h-8.85v-1h8.85zm-.81 4.6h-7v-2.5h5.36v-.56h-5.35v-1h6.62v2.46h-5.34v.54h5.7zm-5.73-7.86q0 .34.57.57a4.35 4.35 0 001.56.23 4.43 4.43 0 001.57-.23c.38-.15.58-.34.58-.57s-.2-.41-.58-.56a5.71 5.71 0 00-3.14 0c-.38.14-.56.33-.56.56zm-1.33 0a1.41 1.41 0 01.9-1.28 7.14 7.14 0 015.11 0 1.35 1.35 0 01.84 1.73 1.4 1.4 0 01-.84.84 7.12 7.12 0 01-5.1 0 1.45 1.45 0 01-.91-1.29zm16.52 1.46h-5.69v-1h5.69zm-4.31-1.71v-1h3v1zm6.33-1.65v4h1.37v1.07h-1.37v4.76h-1.3v-9.8zm-7.23 5.81a2 2 0 01.66-1.51 2.75 2.75 0 013.42 0 2.06 2.06 0 01.09 2.93l-.1.1a2.74 2.74 0 01-3.41 0 1.92 1.92 0 01-.66-1.52zm1.26 0a1 1 0 00.31.77 1.27 1.27 0 001.62 0 1.07 1.07 0 00.29-.78 1 1 0 00-.31-.78 1.22 1.22 0 00-1.6 0 1 1 0 00-.31.78zm13.67.66l-.71 1a5.06 5.06 0 01-1.42-1.14 4.41 4.41 0 01-.95-1.49 4.1 4.1 0 01-.85 1.61 4.44 4.44 0 01-1.51 1.25l-.77-1a4.63 4.63 0 002.45-4.45v-.27h-2v-1h5.2v1h-1.89v.26a4.35 4.35 0 002.41 4.19zm2 3.33h-1.29v-9.8h1.29zm7.75-.45a12 12 0 01-3 .33v-3.75h1.23v2.73a8.13 8.13 0 001.63-.25zm3.19-3.32h-2.27v-.87h2.27zm1.32 1.21H270v-.89h4.88zm.56-4.16H274v1.71h-1.31v-4.79H274v2h1.4zm-9-.3a2.19 2.19 0 01.73-1.67A2.49 2.49 0 01269 221a2.56 2.56 0 011.81.67 2.2 2.2 0 01.73 1.68 2.09 2.09 0 01-.73 1.62 2.92 2.92 0 01-3.63 0 2.08 2.08 0 01-.72-1.66zm1.28 0a1.12 1.12 0 00.34.85 1.22 1.22 0 00.91.34 1.3 1.3 0 00.92-.34 1.13 1.13 0 00.35-.85 1.31 1.31 0 00-.36-.9 1.16 1.16 0 00-.93-.43 1.17 1.17 0 00-.91.37 1.25 1.25 0 00-.35.93zm6.45 5.9a1 1 0 01-.51.92 2.27 2.27 0 01-1.29.33 2.21 2.21 0 01-1.28-.33 1.06 1.06 0 01-.35-1.48 1.17 1.17 0 01.35-.35 2.29 2.29 0 011.28-.33 2.35 2.35 0 011.29.33 1 1 0 01.51.91zm-1.14 0a.32.32 0 00-.19-.3 1 1 0 00-.47-.1c-.43 0-.65.13-.65.4s.22.4.65.4.66-.14.66-.4zm11.42-3.51h-8.86v-1h8.86zm-.82 4.6h-7v-2.5H282v-.56h-5.35v-1h6.62v2.46H278v.54h5.7zm-5.73-7.85c0 .23.19.41.57.56a4.43 4.43 0 001.57.23 4.35 4.35 0 001.56-.23c.39-.15.58-.34.58-.56s-.19-.42-.57-.57a4.65 4.65 0 00-1.57-.21 4.59 4.59 0 00-1.57.21c-.38.14-.57.33-.57.56zm-1.33 0a1.45 1.45 0 01.91-1.29 7.14 7.14 0 015.11 0 1.37 1.37 0 01.84 1.73 1.4 1.4 0 01-.84.84 7 7 0 01-5.1 0 1.43 1.43 0 01-.92-1.29zm19.05 5.9a1.63 1.63 0 01-.89 1.46 5.9 5.9 0 01-4.93 0 1.64 1.64 0 010-2.91 5.9 5.9 0 014.93 0 1.61 1.61 0 01.89 1.45zm-.06-2.12h-1.29v-1.07h-1.82v-1h1.79v-1h-1.66v-1h1.66v-1.66h1.29zm-1.8 2.82a.77.77 0 00.53-.7.81.81 0 00-.53-.71 3.51 3.51 0 00-1.5-.25 3.38 3.38 0 00-1.47.25.79.79 0 00-.52.71.76.76 0 00.52.7 3.49 3.49 0 001.47.26 3.68 3.68 0 001.47-.33zm-1.3-7.87q-.15 3.81-4.34 5.12l-.68-1a5.75 5.75 0 002.35-1.09 3.32 3.32 0 001.24-1.94h-3.12v-1.06zm12.12 2a1.79 1.79 0 01-.94 1.58 5.72 5.72 0 01-5.07 0 1.77 1.77 0 01-.74-2.4 1.66 1.66 0 01.74-.74 5.63 5.63 0 015.06 0 1.81 1.81 0 011 1.56zm-2.84 7.22h-1.29v-3.26h-3.76v-1h8.86v1h-3.81zm.91-6.4a.87.87 0 00.55-1.1.89.89 0 00-.55-.54 3.91 3.91 0 00-3.11 0 .87.87 0 000 1.64 3.91 3.91 0 003.08-.08zM25.09 250.49v-1.06h3v1.06zm14.37 1.85a1.62 1.62 0 01-.89 1.45 4.71 4.71 0 01-2.47.54 4.64 4.64 0 01-2.45-.54 1.64 1.64 0 01-.7-2.22 1.72 1.72 0 01.7-.69 4.73 4.73 0 012.45-.53 4.8 4.8 0 012.47.53 1.61 1.61 0 01.89 1.46zm-.06-2.12h-1.29v-1.07h-1.79v-1h1.79v-1h-1.66v-1h1.66v-1.66h1.29zM37.61 253a.76.76 0 00.52-.7.78.78 0 00-.53-.71 3.51 3.51 0 00-1.5-.25 3.31 3.31 0 00-1.46.25.78.78 0 00-.53.71.76.76 0 00.52.7 3.54 3.54 0 001.47.26 3.73 3.73 0 001.51-.26zm-1.3-7.87q-.16 3.87-4.31 5.16l-.68-1a5.79 5.79 0 002.36-1.09 3.29 3.29 0 001.24-1.94h-3.17v-1.06zm11.94 9h-6.6V251h2.63v-.71h-3.75v-1h8.85v1h-3.8v.71h2.68zm.21-5.61H41.4v-1h1.35c0-.1 0-.29-.11-.59s-.11-.52-.13-.69l1.23-.17c0 .14 0 .38.1.7s.09.57.11.75h2l.25-1.43 1.25.15-.29 1.28h1.33zm0-2.76h-7.08v-1h7.12zM47 253.2V252h-4.07v1.25zm10.45 1.14h-1.3v-3.49h-3.76v-1h8.85v1h-3.8zm3.43-6.34l-.56 1a5.62 5.62 0 01-2.13-.8 3.43 3.43 0 01-1.37-1.43 3.13 3.13 0 01-1.32 1.42 5.65 5.65 0 01-2.15.82l-.55-1a4.56 4.56 0 002.34-.92 2.24 2.24 0 001-1.82v-.51h1.37v.51a2 2 0 00.52 1.32 3.84 3.84 0 001.28 1 4.83 4.83 0 001.57.41zm8.88 4.47a1.55 1.55 0 01-.89 1.38 5.06 5.06 0 01-2.48.51 4.93 4.93 0 01-2.47-.51 1.51 1.51 0 01-.74-2 1.48 1.48 0 01.74-.74 6.26 6.26 0 015 0 1.55 1.55 0 01.89 1.38zm-3-2.63a16.7 16.7 0 01-3.53.26H62V247h3v-.89h-3v-1h4.33V248h-3v1.1h.38a13.2 13.2 0 002.94-.21c-.01.11.05.46.13.93zm.21-2.94v-1h1.46v-1.3h1.28v5.94h-1.26V249H67v-1.06h1.47v-1zm-.59 4.69a3.76 3.76 0 00-1.49.24c-.37.16-.55.37-.55.64s.18.47.55.63a4.81 4.81 0 003 0q.54-.24.54-.63c0-.27-.18-.48-.54-.64a3.76 3.76 0 00-1.52-.24zm8.8-4.07a1.19 1.19 0 00.38.92 1.4 1.4 0 001 .37 1.46 1.46 0 001-.37 1.22 1.22 0 00.38-.92 1.18 1.18 0 00-.38-.9 1.46 1.46 0 00-1-.36 1.43 1.43 0 00-1 .36 1.19 1.19 0 00-.39.9zm6.56-3v9.8h-1.26v-9.8zm-7.89 3a2.16 2.16 0 01.75-1.7 3.32 3.32 0 013.95 0 2.3 2.3 0 01.13 3.26.8.8 0 01-.13.13 3.27 3.27 0 01-3.94 0 2.12 2.12 0 01-.74-1.7zm6.2 4.31c-1 .13-2.07.22-3.31.29-1.47.06-2.49.08-3.08.07l-.19-1.1c1.2 0 2.27 0 3.19-.05 1.28 0 2.37-.12 3.28-.24zm10.31-7.29v3.77h1.41v1.06h-1.39v5h-1.27v-9.8zM88.62 251l-.38.48c-.16.22-.29.37-.38.48a6.76 6.76 0 01-1.35-1.21 4.27 4.27 0 01-.91-1.53 5 5 0 01-.9 1.65 5.1 5.1 0 01-1.42 1.28c-.36-.44-.62-.75-.79-.93a5.07 5.07 0 002.43-4.55v-1.35h1.33v1.28a5.26 5.26 0 00.62 2.55 5.09 5.09 0 001.75 1.85zm12.2-1.08H92V249h8.85zm-.9 4.27h-6.83v-2.28h5.32v-.51h-5.36v-.93h6.64v2.29h-5.31v.51h5.54zm-.07-5.73h-6.71v-2.22h5.2v-.52h-5.23v-.91h6.52v2.23h-5.21v.51h5.42zm10.8-1.52h-1.35v-1h1.35v-1.43h1.27v5.71h-1.27V249h-1.36v-1h1.36zm-1.9 2.68h-4.53v-4.42h4.53zm-1.26-1v-2.44h-2v2.44zm4.51 3.69a1.64 1.64 0 01-.89 1.45 6 6 0 01-4.94 0 1.64 1.64 0 01-.69-2.21 1.54 1.54 0 01.69-.69 4.73 4.73 0 012.45-.54 5 5 0 012.49.53 1.63 1.63 0 01.89 1.46zm-3.38-1a3.59 3.59 0 00-1.48.26.77.77 0 00-.54.71.76.76 0 00.54.69 3.43 3.43 0 001.48.25 3.53 3.53 0 001.51-.25.72.72 0 000-1.4 3.54 3.54 0 00-1.51-.26zm8.77-1.74h-4v-4.5h1.3v1.32h1.37v-1.33h1.3zm4 .6h-1.23v-2.37h-.74v2.26h-1.2v-5.36h1.2v2.14h.74v-2.31h1.23zm-6.8.5h6.8v3.6h-1.28v-2.58h-5.51zm1.49-2.12v-1.16h-1.37v1.16zm14.32 5.71h-1.29v-9.8h1.29zm-2.28-6.49h-5.7v-1h5.71zm-4.33-1.66v-1h3v1zm-.85 4.15a2 2 0 01.67-1.51 2.8 2.8 0 013.45 0 2.07 2.07 0 01.13 2.91l-.13.12a2.79 2.79 0 01-3.45 0 1.93 1.93 0 01-.67-1.52zm1.59-.78a1.14 1.14 0 000 1.56 1.11 1.11 0 00.8.3 1.18 1.18 0 00.84-.29 1.09 1.09 0 00.3-.79 1 1 0 00-.32-.78 1.2 1.2 0 00-.83-.3 1.14 1.14 0 00-.79.29zm18.63-1.84h-1.34v2.14h-1.31v-5.32h1.31v2.12h1.34zm-4.43 2.63h3.09v4h-1.31v-3.1h-1.78zm.24 3.73a14 14 0 01-2.88.24H135v-2.4h2v-.63h-2v-.95h3.27v2.43h-2v.6a11.15 11.15 0 002.58-.21zm.07-4.74h-4.64v-4.4h1.28v1.31h2.07v-1.32h1.3zm-1.3-1v-1.09h-2.07v1.08zm13.76 6h-1.29v-9.8h1.29zm-2.28-6.49h-5.71v-1h5.71zm-4.33-1.66v-1h3v1zm-.85 4.15a1.94 1.94 0 01.67-1.51 2.45 2.45 0 011.72-.6 2.48 2.48 0 011.73.59 2.06 2.06 0 01.12 2.91l-.12.12a2.81 2.81 0 01-3.46 0 1.92 1.92 0 01-.66-1.52zm1.58-.78a1.08 1.08 0 00.8 1.86 1.17 1.17 0 00.84-.29 1 1 0 00.3-.79 1 1 0 00-.31-.78 1.21 1.21 0 00-.83-.3 1.14 1.14 0 00-.79.29zm13.15 1.52l-.72 1a5 5 0 01-1.41-1.14 4.26 4.26 0 01-.95-1.49 3.93 3.93 0 01-.86 1.61 4.35 4.35 0 01-1.51 1.25l-.77-1a4.64 4.64 0 002.46-4.45v-.26h-2v-1h5.2v1h-1.89v.26a4.35 4.35 0 002.41 4.19zm2 3.33h-1.29v-9.8h1.29zm7.74-.45a11.91 11.91 0 01-3 .33v-3.75h1.24v2.73a8 8 0 001.62-.25zm3.19-3.32h-2.26v-.87h2.26zm1.32 1.21h-4.87v-.89H173zm.56-4.16h-1.4v1.7h-1.31v-4.78h1.31v2h1.4zm-9-.3a2.22 2.22 0 01.72-1.67 2.56 2.56 0 011.8-.68 2.6 2.6 0 011.82.67 2.19 2.19 0 01.72 1.68 2.05 2.05 0 01-.72 1.62 2.92 2.92 0 01-3.63 0 2.08 2.08 0 01-.71-1.63zm1.27 0a1.16 1.16 0 00.34.85 1.41 1.41 0 001.84 0 1.12 1.12 0 00.34-.85 1.26 1.26 0 00-.35-.9 1.21 1.21 0 00-.91-.37 1.14 1.14 0 00-.91.37 1.27 1.27 0 00-.34.9zm6.46 5.9a1 1 0 01-.52.93 2.65 2.65 0 01-2.56 0 1.07 1.07 0 010-1.84 2.65 2.65 0 012.56 0 1 1 0 01.52.91zm-1.14 0a.32.32 0 00-.19-.3 1.1 1.1 0 00-.47-.1c-.44 0-.65.14-.65.4s.21.4.65.4.66-.14.66-.4zm11.41-2.7h-8.85v-1h8.85zm-1 3.57h-6.74v-2.86h1.29v1.85h5.45zm0-7.22a1.61 1.61 0 01-.92 1.43 5.91 5.91 0 01-5 0 1.56 1.56 0 010-2.83 4.71 4.71 0 012.49-.55 4.76 4.76 0 012.51.55 1.62 1.62 0 01.93 1.4zm-1.33 0a.82.82 0 00-.56-.72 3.53 3.53 0 00-1.54-.27 3.4 3.4 0 00-1.51.27q-.57.27-.57.72t.57.69a3.7 3.7 0 001.51.26 3.53 3.53 0 001.54-.26c.37-.18.56-.41.56-.7zm13.51 5.46a1.65 1.65 0 01-.89 1.46 4.84 4.84 0 01-2.48.53 4.73 4.73 0 01-2.45-.53 1.65 1.65 0 01-.69-2.22 1.54 1.54 0 01.69-.69 4.76 4.76 0 012.45-.54 4.84 4.84 0 012.48.54 1.6 1.6 0 01.89 1.45zm-.07-2.12h-1.28v-1.07h-1.8v-1h1.8v-1h-1.66v-1h1.66v-1.66h1.28zm-1.79 2.83a.73.73 0 000-1.41 4.37 4.37 0 00-3 0 .74.74 0 000 1.41 4.45 4.45 0 003 0zm-1.3-7.88q-.15 3.83-4.34 5.13l-.69-1a5.73 5.73 0 002.36-1.09 3.3 3.3 0 001.24-1.93h-3.12v-1.07zm12.12 2a1.77 1.77 0 01-.94 1.57 5.72 5.72 0 01-5.07 0 1.76 1.76 0 01-.74-2.39 1.73 1.73 0 01.74-.75 5.63 5.63 0 015.06 0 1.81 1.81 0 011 1.56zm-2.85 7.22h-1.27v-3.27h-3.76v-1h8.85v1h-3.81zm.92-6.4a.87.87 0 00.55-1.1.85.85 0 00-.55-.54 3.83 3.83 0 00-3.11 0 .86.86 0 00-.54 1.1.88.88 0 00.54.54 3.91 3.91 0 003.12.03zm14.75 5.15h-8.86v-1h3.77v-1.84h1.28v1.84h3.81zm-.67-3.34h-3.55v-4.45h3.46v1h-2.16v2.4h2.25zm-6.19-1.08a7.36 7.36 0 002.09-.22l.17 1.07a16.72 16.72 0 01-3.53.23v-4.45h3.27v1h-2zm16.1 1.71h-8.86v-1h8.86zm-1.09-2.13h-6.57v-3.41h1.28v2.39h5.29zm.07 5.81h-6.7v-2.9h1.28V253h5.42zm12.13.26h-1.28v-4.92h-1.87v-1.08h1.87v-3.8h1.28zm-3.12-8.78a7.79 7.79 0 01-4.38 7l-.79-1a6.47 6.47 0 002.61-2.11 5.82 5.82 0 001.17-2.9h-3.17v-1.07zm12.05 3.55h-6.72V245h1.28v1.11h4.15V245h1.3zm-2.75 5.24h-1.27v-3.22H237v-1h8.86v1h-3.81zm1.44-6.26v-1h-4.14v1zm7.08-.58a1.19 1.19 0 00.38.92 1.39 1.39 0 001 .37 1.48 1.48 0 001-.37 1.22 1.22 0 00.38-.92 1.18 1.18 0 00-.38-.9 1.47 1.47 0 00-1-.36 1.42 1.42 0 00-1 .36 1.18 1.18 0 00-.38.9zm6.56-3v9.8h-1.27v-9.8zm-7.88 3a2.16 2.16 0 01.75-1.7 3.32 3.32 0 013.95 0 2.3 2.3 0 01.13 3.26.8.8 0 01-.13.13 3.27 3.27 0 01-3.94 0 2.12 2.12 0 01-.76-1.69zm6.2 4.31c-1 .13-2.07.22-3.31.29-1.47.06-2.49.08-3.08.07l-.19-1.1c1.2 0 2.27 0 3.19-.05 1.28 0 2.37-.12 3.28-.24zm10.31-7.29v3.77h1.41v1.06h-1.41v5h-1.28v-9.8zM264 251l-.38.48-.38.48a6.5 6.5 0 01-1.35-1.21 4.44 4.44 0 01-.92-1.53 4.84 4.84 0 01-.9 1.65 5.1 5.1 0 01-1.42 1.28c-.36-.44-.62-.75-.79-.93a5.08 5.08 0 002.43-4.56v-1.34h1.33v1.28a5.16 5.16 0 00.63 2.55A5 5 0 00264 251zm12.2-1.08h-8.86V249h8.86zm-.9 4.27h-6.8v-2.28h5.32v-.51h-5.37v-.93h6.65v2.29h-5.32v.51h5.55zm-.08-5.73h-6.71v-2.22h5.2v-.52h-5.22v-.91H275v2.23h-5.21v.51h5.42zm13-.78h-1.32v2.13h-1.31v-5.31h1.31v2.12h1.34zm-4.43 2.63h3.09v4h-1.31v-3.09h-1.78zm.24 3.72a14.62 14.62 0 01-2.88.25h-1.08v-2.4h2v-.63h-2v-1h3.28v2.44h-2v.6a11.11 11.11 0 002.57-.21zm.07-4.74h-4.64v-4.4h1.27v1.31h2.07v-1.32h1.3zm-1.3-1v-1.08h-2.07v1.08zm13.75 3.61h-1.28v-7.43h1.28zm.27 2.21H290v-2.58h1.3v1.57h5.52zm-2.54-6.72h-5.71v-1h5.71zm-.49 2a1.54 1.54 0 01-.67 1.27 2.67 2.67 0 01-1.66.5 2.78 2.78 0 01-1.7-.5 1.53 1.53 0 01-.41-2.12 1.49 1.49 0 01.42-.41 2.74 2.74 0 011.69-.5 2.67 2.67 0 011.66.5 1.52 1.52 0 01.67 1.26zm-3.79-3.45v-1h2.9v1zm.38 3.45a.61.61 0 00.31.53 1.4 1.4 0 00.77.21 1.38 1.38 0 00.74-.21.61.61 0 000-1.06 1.24 1.24 0 00-.74-.22 1.28 1.28 0 00-.77.21.61.61 0 00-.31.54zm18.1 3a1.62 1.62 0 01-.89 1.45 5.9 5.9 0 01-4.93 0 1.65 1.65 0 01-.69-2.22 1.7 1.7 0 01.69-.69 6 6 0 014.93 0 1.63 1.63 0 01.89 1.46zm-.06-2.13h-1.29v-1.06h-1.79v-1h1.79v-1h-1.66v-1h1.66v-1.66h1.29zm-1.8 2.83a.76.76 0 00.53-.7.8.8 0 00-.53-.71 3.68 3.68 0 00-1.5-.26 3.47 3.47 0 00-1.46.26.78.78 0 00-.53.71.76.76 0 00.52.7 3.36 3.36 0 001.47.25 3.49 3.49 0 001.5-.25zm-1.3-7.87q-.15 3.81-4.34 5.12l-.68-1a5.88 5.88 0 002.35-1.09 3.32 3.32 0 001.24-1.94h-3.12v-1.06zm12.13 2a1.82 1.82 0 01-1 1.58 5.72 5.72 0 01-5.07 0 1.78 1.78 0 010-3.14 5.63 5.63 0 015.06 0 1.81 1.81 0 011 1.56zm-2.85 7.22h-1.29v-3.26h-3.76v-1h8.85v1h-3.8zm.92-6.4a.87.87 0 00.54-1.1.9.9 0 00-.54-.54 3.93 3.93 0 00-3.12 0 .86.86 0 00-.54 1.1.9.9 0 00.54.54 3.93 3.93 0 003.14-.1zM25.09 274.49v-1.06h3v1.06zm14.3 1.14h-1.28v-7.1h1.28zm.22 2.44h-6.8v-3.14h1.3v2.12h5.5zm-8-6.4a2.27 2.27 0 01.73-1.73 3 3 0 013.85 0 2.44 2.44 0 010 3.45 3.1 3.1 0 01-3.85 0 2.24 2.24 0 01-.74-1.72zm1.32 0a1.4 1.4 0 00.36 1 1.44 1.44 0 001.95 0 1.33 1.33 0 00.36-1 1.28 1.28 0 00-1.2-1.32h-.14a1.27 1.27 0 00-1.33 1.32zm16.46 5.38h-8.86v-1h8.85zm-.18-4l-.65 1a6.35 6.35 0 01-2.15-1 4 4 0 01-1.41-1.63 3.74 3.74 0 01-1.44 1.68 6 6 0 01-2.17 1l-.6-1a4.91 4.91 0 001.63-.55 4.23 4.23 0 001.36-1.16 2.46 2.46 0 00.56-1.56v-.65h1.35v.65a2.15 2.15 0 00.22 1 3 3 0 00.6.86 5.37 5.37 0 00.84.67 5.07 5.07 0 001 .5 4.65 4.65 0 001 .27zm2.22 2.06a19.37 19.37 0 003.87-.3c0 .11 0 .28.07.5s.06.39.07.51a21.82 21.82 0 01-4.35.32h-.94v-6.74h4.5v1h-3.23v1.78h3v1h-3zm6-6.57v3.7h1.37v1h-1.37v5.05h-1.29v-9.8zm10.44 8.41H59v-1h8.86zm-1.12-7.41a31.51 31.51 0 01-.45 5.82l-1.3-.13a19.32 19.32 0 00.3-2.14 24.05 24.05 0 00.11-2.55H60v-1zm9.85 8.68H70v-3.43h6.61zm0-3.92h-1.24V272h-.79v2.21h-1.21v-5.51h1.21v2.3h.79v-2.45h1.23zm-3.6-.55a17 17 0 01-3.62.3h-.67v-3h2.42v-.9h-2.5v-1h3.76V272H70v1a10.75 10.75 0 001.5 0 10.59 10.59 0 001.36-.19c.07.47.12.79.15 1zm2.32 3.45v-1.43h-4v1.43zm12.92 1.13h-1.31v-9.8h1.28zm-3-2.42h-4.65v-6.59h1.28v2.35h2.06v-2.37h1.3zm-1.3-1v-2.21h-2v2.21zm12.25.2a1.48 1.48 0 010 2.73 5.1 5.1 0 01-2.5.5 5.19 5.19 0 01-2.51-.5 1.48 1.48 0 01-.79-1.94 1.46 1.46 0 01.79-.79 6.43 6.43 0 015 0zm2-1.26h-8.84v-1h3.35v-1.71H94v1.71h4.2zm-1.14-5a15.94 15.94 0 01-.31 3.45l-1.24-.16a9.22 9.22 0 00.26-2.28h-5.4v-1zm-1.29 7.59c0-.28-.18-.49-.55-.63a4.49 4.49 0 00-1.54-.22c-1.39 0-2.09.29-2.09.85 0 .27.19.48.56.62a5.53 5.53 0 003.07 0c.38-.06.56-.32.56-.59zm11.17 1.86h-1.22v-4.94h-.87v4.49h-1.2v-9.15h1.2v3.67h.87v-3.84h1.22zm-4.18-8.65a7.55 7.55 0 01-3.55 6.74l-.84-.9a6.62 6.62 0 002.22-2.09 5.82 5.82 0 00.93-2.71H99v-1zm14.07 8.2h-1.2v-3.3h-1.25v-1.05h1.25v-1.38h-1v-1h1v-2.38h1.2zm2 .45h-1.23v-9.8h1.22zm-4.26-8.65a7.53 7.53 0 01-3.49 6.74l-.83-.9a6.44 6.44 0 002.17-2.08 5.9 5.9 0 00.9-2.72h-2.46v-1zm13.33 6.69a1.58 1.58 0 01-.91 1.42 6.42 6.42 0 01-5 0 1.57 1.57 0 01-.9-1.42 1.59 1.59 0 01.9-1.45 6.42 6.42 0 015 0 1.6 1.6 0 01.88 1.48zm-7.89-6.06v-1.06h5.15v1.06h-1.85a2.72 2.72 0 00.67 1.65 3.35 3.35 0 001.48 1c-.08.13-.21.32-.38.55s-.27.39-.31.46a4 4 0 01-1.21-.76 3.43 3.43 0 01-.91-1.16 3.07 3.07 0 01-.89 1.32 3.83 3.83 0 01-1.39.88l-.35-.45-.42-.55a3.77 3.77 0 001.67-1.13 3 3 0 00.68-1.79zm5 1.63v-1h1.48v-2.34h1.28v5.83h-1.28v-2.45zm-.6 3.53a4 4 0 00-1.56.24c-.37.17-.55.4-.55.69s.18.52.55.67a5.07 5.07 0 003.13 0c.37-.16.55-.38.55-.67a.77.77 0 00-.55-.69 4 4 0 00-1.54-.24zm13.35 1.6h-8.85v-1h8.85zm-1.75-7.11a2.2 2.2 0 01.62 3.05 2 2 0 01-.62.62 5.18 5.18 0 01-5.22 0 2.2 2.2 0 01-.62-3.05 2 2 0 01.62-.62 5.18 5.18 0 015.22 0zm-.95 2.94a1.28 1.28 0 00.44-1.75 1.32 1.32 0 00-.44-.44 3.51 3.51 0 00-3.3 0 1.26 1.26 0 000 2.19 3.51 3.51 0 003.25 0zm11.16 1.69h-3v1.53H147v1h-8.86v-1h3.77v-1.53h-2.61v-3.25h5.32v-1.13h-5.38v-1h6.66v3.17h-5.33v1.19h5.61zm11.5 3.65h-6.35v-3.33h6.35zm-7.45-6.8v-1h5.17v1h-1.87a2.65 2.65 0 002.1 1.94l-.64 1a4.46 4.46 0 01-1.26-.7 3 3 0 01-.91-1.06 3.21 3.21 0 01-.91 1.22 3.74 3.74 0 01-1.38.79l-.72-1a3 3 0 002.29-2.2zm8.84.72h-1.4v2.25h-1.3v-5.85h1.28v2.54h1.4zm-2.68 5.07v-1.34h-3.77v1.34zm-5-7.35v-1h2.85v1zm13.23 4.86v-1.1h1.41v-2.05h-1.41v-1.1h1.45v-1.93h1.29v9.8h-1.29v-3.62zm-5.31-2a4.3 4.3 0 01.67-2.54 2.25 2.25 0 013.15-.55 2.06 2.06 0 01.55.55 5.1 5.1 0 010 5.07 2.26 2.26 0 01-3.16.54 2.13 2.13 0 01-.54-.54 4.27 4.27 0 01-.67-2.53zm3.81 0a3.91 3.91 0 00-.35-1.81 1.09 1.09 0 00-.94-.66 1 1 0 00-.92.66 3.91 3.91 0 00-.35 1.81 3.84 3.84 0 00.35 1.8 1.06 1.06 0 00.92.66 1.09 1.09 0 00.94-.66 3.85 3.85 0 00.36-1.8zm11-1.77h-5.69v-1h5.69zm-4.2-1.4v-1h2.9v1zm7.64 2.61h-1.38v2h-1.29v-5.57h1.29v2.56h1.37zm-1.14 6.16h-6.7V276h5.16v-.46h-5.21v-1h6.47v2.29H171v.48h5.41zm-2.73-5.6a1.25 1.25 0 01-.65 1.1 3 3 0 01-1.67.43 3.14 3.14 0 01-1.69-.43 1.25 1.25 0 01-.52-1.68 1.3 1.3 0 01.52-.52 3.14 3.14 0 011.69-.43 3 3 0 011.66.43 1.24 1.24 0 01.66 1.1zm-3.4 0a.51.51 0 00.32.44 1.56 1.56 0 00.76.16 1.61 1.61 0 00.75-.16.46.46 0 00.29-.58.51.51 0 00-.3-.29 1.74 1.74 0 00-1.5 0 .5.5 0 00-.32.43zm18.25 3.63a1.62 1.62 0 01-.89 1.45 5.9 5.9 0 01-4.93 0 1.65 1.65 0 01-.69-2.22 1.76 1.76 0 01.69-.69 6 6 0 014.93 0 1.64 1.64 0 01.9 1.46zm-.06-2.12h-1.29v-1.07h-1.79v-1h1.79v-1h-1.66v-1h1.66v-1.66h1.29zm-1.8 2.82a.76.76 0 00.53-.7.78.78 0 00-.53-.71 3.51 3.51 0 00-1.5-.25 3.31 3.31 0 00-1.46.25.78.78 0 00-.53.71.76.76 0 00.52.7 3.54 3.54 0 001.47.26 3.73 3.73 0 001.51-.26zm-1.3-7.87q-.15 3.81-4.34 5.12l-.68-1a5.75 5.75 0 002.35-1.09 3.32 3.32 0 001.24-1.94h-3.12v-1.06zm12.13 1.95a1.82 1.82 0 01-.95 1.58 5.72 5.72 0 01-5.07 0 1.77 1.77 0 01-.74-2.4 1.73 1.73 0 01.75-.74 5.63 5.63 0 015.06 0 1.8 1.8 0 01.95 1.56zm-2.85 7.22h-1.29v-3.26h-3.8v-1h8.85v1h-3.8zm.92-6.4a.87.87 0 00.54-1.1.9.9 0 00-.54-.54 3.93 3.93 0 00-3.12 0 .87.87 0 000 1.64 3.93 3.93 0 003.08 0zM25.09 298.49v-1.06h3v1.06zm13 .61a1.47 1.47 0 010 2.72 5.16 5.16 0 01-2.5.51 5.17 5.17 0 01-2.51-.51 1.47 1.47 0 010-2.72 5.17 5.17 0 012.51-.51 5.16 5.16 0 012.53.51zm2-1.26h-8.8v-1h3.36v-1.71h1.28v1.71h4.22zm-1.15-5a15.94 15.94 0 01-.31 3.45l-1.24-.16a9.74 9.74 0 00.27-2.28H32.3v-1zm-1.28 7.59c0-.28-.19-.49-.56-.63a4.4 4.4 0 00-1.53-.22c-1.4 0-2.09.29-2.09.85 0 .27.18.48.55.62a4.46 4.46 0 001.54.22 4.4 4.4 0 001.53-.22c.43-.05.62-.31.62-.58zm9-1.43l-.72 1a5.2 5.2 0 01-1.41-1.15 4.22 4.22 0 01-1-1.48 4.17 4.17 0 01-.85 1.61 4.59 4.59 0 01-1.52 1.25l-.77-1a4.62 4.62 0 002.46-4.45v-.27h-2v-1h5.2v1h-1.8v.26a4.35 4.35 0 002.41 4.23zm2 3.33h-1.31v-9.8h1.29zm7.62-3.91c-.94.12-2 .21-3.14.26s-2.37.1-3.25.1l-.18-1h2.67v-1.1h-1.7v-3.37h4.6v1h-3.34v1.32h3.39v1h-1.68v1.05c1-.05 1.86-.12 2.49-.2zm1.68-5.9v7.2h-1.3v-7.2zM58 302h-6.6v-2.75h1.3V301H58zm11.7.29h-1.25v-9.8h1.28zm-7.14-3.09a5.13 5.13 0 010-5.07 2.27 2.27 0 013.16-.56 2.13 2.13 0 01.56.56 5 5 0 010 5.06 2.28 2.28 0 01-3.72 0zm3.16-2.53a3.74 3.74 0 00-.36-1.81 1 1 0 00-1.86 0 3.77 3.77 0 00-.36 1.81 3.69 3.69 0 00.36 1.79 1 1 0 00.92.66 1.07 1.07 0 00.94-.66 3.69 3.69 0 00.36-1.79zm9.44 1.35h-4v-4.78h1.3v1.44h1.44v-1.47h1.28v1.82h.88v-2.33h1.22v6.82h-1.22v-3.41h-.88zm4.26 4h-6.9v-3.15h1.28v2.12h5.64zm-.24-2.3H78v-7.26h1.2zm-5.3-2.74v-1.34h-1.37v1.34zm13.73-.63h-5.1v1.07H88v1h-6.76v-5.2h6.61v1h-5.33v1.1h5.1zm1.39 3.73v1h-8.89v-1zm4.6-3.37a19.37 19.37 0 003.87-.3l.14 1a21.69 21.69 0 01-4.33.34h-1v-4.48h4.37v1h-3.09zm7.4-.71h-1.38v2.3h-1.3v-5.73h1.3v2.38H101zm-1.26 4.39a1.61 1.61 0 01-.89 1.43 5 5 0 01-2.48.53 4.83 4.83 0 01-2.45-.53 1.62 1.62 0 01-.72-2.17 1.6 1.6 0 01.72-.71 4.63 4.63 0 012.45-.53 4.74 4.74 0 012.48.53 1.6 1.6 0 01.88 1.45zm-1.87.69a.77.77 0 00.54-.69.76.76 0 00-.54-.69 4.51 4.51 0 00-3 0 .71.71 0 000 1.38 4.64 4.64 0 003 0zm11.44 1.17h-6.5v-3.42h6.5zm-7.79-6.88v-1h5.15v1h-1.87a2.61 2.61 0 002.13 2.05c-.15.22-.36.55-.64 1a4.05 4.05 0 01-1.26-.68 3 3 0 01-.92-1.06 3.1 3.1 0 01-.91 1.21 3.78 3.78 0 01-1.39.79l-.37-.53c-.17-.23-.28-.38-.33-.46a2.94 2.94 0 002.28-2.31zm7.79 3H108v-1.67h-1.49v-1H108v-3.08h1.28zm-1.31 2.82v-1.41h-3.9v1.41zm-5.33-7.39v-1h2.85v1zm13.67 5.32l-.71.93a4.67 4.67 0 01-1.42-1.15 4.18 4.18 0 01-.94-1.51 4.16 4.16 0 01-.86 1.62 4.56 4.56 0 01-1.51 1.25l-.8-1a4.68 4.68 0 002.49-4.45v-.27h-2v-1.05h5.22v1.05H114v.26a4.52 4.52 0 002.42 4.28zm1.75-6.59v3.77h1.4v1.07h-1.4v5h-1.29v-9.8zm9.07 4.62h-4.63v-4.25h1.26v1.23h2.08v-1.25h1.29zm-1.28-1v-1h-2.09v1zm5.44-.55H130v1.9h-1.31v-5H130v2h1.38zm-1.1 6.65h-6.68v-2.6h5.09V299h-5.17v-1H130v2.6h-5.12v.62h5.4zm10.16-1.15h-8.86v-1h2.17v-1.89H135v1.89h1.92v-1.89h1.27v1.89h2.22zm-.86-3.37h-7.19v-1h1.36l-.19-1.85 1.29-.13.11 2h2.13l.27-2 1.24.19-.31 1.77h1.29zm0-3.45h-7.23v-1h7.23zm9.62 8h-6.74v-2.63h5.16v-.68h-5.16v-1h6.49v2.62h-5.15v.67h5.45zm-.3-4.82h-1.28v-4.9h1.27zm-7.81-2.3a2 2 0 01.73-1.62 3 3 0 013.73 0 2.07 2.07 0 01.73 1.64 2 2 0 01-.73 1.59 2.84 2.84 0 01-1.86.6 2.9 2.9 0 01-1.86-.6 2 2 0 01-.75-1.58zm1.67-.86a1.08 1.08 0 00-.4.85 1 1 0 00.38.82 1.48 1.48 0 001 .32 1.43 1.43 0 00.95-.33 1.07 1.07 0 00.36-.8 1.18 1.18 0 00-.35-.87 1.31 1.31 0 00-1-.34 1.36 1.36 0 00-.94.35zm13.2 4.84l-.72.94a4.8 4.8 0 01-1.42-1.16 4.25 4.25 0 01-.93-1.5A4.3 4.3 0 01152 299a4.59 4.59 0 01-1.52 1.25l-.79-1a4.68 4.68 0 002.49-4.45v-.27h-2v-1.05h5.22v1.05h-1.91v.25a4.53 4.53 0 002.41 4.29zm1.75-6.58v3.77h1.4v1.07h-1.4v5h-1.29v-9.8zm4.53 1.83v-1.05h5.17v1.05h-1.88a2.94 2.94 0 00.64 1.87 3.24 3.24 0 001.54 1.08l-.7 1a4.31 4.31 0 01-2.12-2 3.36 3.36 0 01-.89 1.36 3.82 3.82 0 01-1.39.91l-.76-1a3.68 3.68 0 001.72-1.24 3.12 3.12 0 00.65-1.95zm7.77 5.27h-1.29v-3.46h-1.48v-1h1.48v-2.6H170zm.2 2.43h-6.76V299h1.3v2.08h5.47zm7.3-.18h-1.21v-4.57h-.83a4.61 4.61 0 01-.62 2.14 1.69 1.69 0 01-1.5.84 1.59 1.59 0 01-1.21-.52 2.78 2.78 0 01-.7-1.28 6.76 6.76 0 01-.2-1.73 6.48 6.48 0 01.2-1.7 2.88 2.88 0 01.7-1.28 1.59 1.59 0 011.21-.52 1.68 1.68 0 011.5.84 4.69 4.69 0 01.62 2.15h.84v-3.54h1.21zm2 .45h-1.21v-9.8h1.21zm-5.41-3.84a6.48 6.48 0 000-3.44c-.15-.44-.39-.66-.7-.66s-.53.22-.68.66a6.44 6.44 0 000 3.43c.15.45.38.67.68.67s.55-.22.7-.66zm17.56 3.76h-7v-2.54h5.4v-.58h-5.38v-1h6.68v2.54h-5.37v.58h5.67zm-.29-4.57h-1.24v-2h-.79v2h-1.2v-5.01h1.2v1.92h.79v-2.09h1.23zm-8.08-2.45v-1h4.32v1h-1.42a2.15 2.15 0 001.62 1.54c-.06.08-.15.23-.28.45l-.32.52a2.88 2.88 0 01-1-.55 2.25 2.25 0 01-.71-.88 2.83 2.83 0 01-.73 1 3.43 3.43 0 01-1.13.71l-.7-.94a2.63 2.63 0 001.84-1.83zm.92-1.5v-1h2.55v1zm16.16 5.9H199v-7.1h1.29zm.25 2.49h-6.79v-2.94h1.3v1.91h5.49zm-2.6-4.95l.12 1a10.82 10.82 0 01-1.8.24c-.8.07-1.55.1-2.26.1h-1.32v-3.19h3.13v-1h-3.15v-1h4.44v3.05H194v1.21a17.63 17.63 0 004-.3zm9.62 1.82l-.72 1a4.88 4.88 0 01-1.41-1.14 4.17 4.17 0 01-1-1.49 4.16 4.16 0 01-.86 1.62 4.46 4.46 0 01-1.51 1.25l-.77-1a4.63 4.63 0 002.45-4.46v-.26h-1.95v-1h5.2v1h-1.89v.25a4.35 4.35 0 002.41 4.2zm2 3.34h-1.29v-9.8h1.29zm12.08 0h-1.22v-9.8h1.22zm-2-.45h-1.2v-4.47h-1.28v-1h1.28v-3.67h1.2zm-2.23-8.2a7.55 7.55 0 01-3.53 6.73l-.83-.89a6.5 6.5 0 002.21-2.09 5.82 5.82 0 00.9-2.72h-2.52v-1zm13.2 8.65h-1.28v-9.8h1.29zm-2-3.19l-.75 1a5.22 5.22 0 01-1.27-1.17 5 5 0 01-.88-1.53 4.59 4.59 0 01-.92 1.66 4.76 4.76 0 01-1.43 1.25l-.78-.94a5.08 5.08 0 002.43-4.52v-1.5h1.33v1.43a4.85 4.85 0 002.27 4.36zm11.19 3.14h-6.9v-2.51h5.27v-.57h-5.34v-1h2.7v-.73h-3.77v-1h8.86v1h-3.81v.74h2.64v2.48h-5.27v.56h5.62zm-.35-6.44H233v-3.12h6.5zm-1.31-1v-1.12h-3.9v1.12zm11.73 2.86H241v-1h8.86zm-.81 4.6h-7v-2.5h5.36v-.56h-5.35v-1h6.62v2.46h-5.35v.54h5.7zm-5.74-7.86c0 .23.19.42.58.57a4.35 4.35 0 001.56.23 4.43 4.43 0 001.57-.23q.57-.22.57-.57c0-.22-.19-.41-.57-.56a5.75 5.75 0 00-3.15 0c-.37.14-.56.33-.56.56zm-1.33 0a1.43 1.43 0 01.91-1.28 7.14 7.14 0 015.11 0 1.36 1.36 0 01.84 1.73 1.4 1.4 0 01-.84.84 7.12 7.12 0 01-5.1 0 1.43 1.43 0 01-.92-1.29zm20 1.49h-1.4v2.33h-1.3v-5.72h1.3v2.33H262zm-7.85 2.83h6.45v3.6h-1.29v-2.58h-5.16zm4.55-2l-.74 1a4.14 4.14 0 01-1.25-.77 3.69 3.69 0 01-1-1.2 3.23 3.23 0 01-.89 1.38 3.7 3.7 0 01-1.38.91l-.74-1a3.56 3.56 0 001.71-1.25 3.24 3.24 0 00.63-2v-.85h1.32v.8a2.87 2.87 0 00.67 1.88 3.53 3.53 0 001.61 1.1zm8.3 2.43l-.72.93a4 4 0 01-1-1 3.74 3.74 0 01-.69-1.29 4.24 4.24 0 01-.72 1.42 3.92 3.92 0 01-1.14 1.08l-.78-.87a4.74 4.74 0 002-4.26v-.47h-1.65v-1h4.43v1h-1.54v.45a6 6 0 00.46 2.46 3.34 3.34 0 001.35 1.55zm1.55 2.74h-1.2V297H266v-1.1h1.28v-3.19h1.2zm2 .45h-1.22v-9.8h1.21zm6.5-7h-5.76v-1h5.7zm-.47 2.08a1.55 1.55 0 01-.66 1.28 2.58 2.58 0 01-1.65.5 2.62 2.62 0 01-1.67-.5 1.52 1.52 0 01-.66-1.28 1.55 1.55 0 01.66-1.29 2.57 2.57 0 011.67-.51 2.65 2.65 0 011.65.51 1.57 1.57 0 01.65 1.29zm-3.76-3.54v-1h2.91v1zm6.29-1.3v3.17h1.36v1.06h-1.36v3.05h-1.29v-7.28zm.23 9.57h-6.7v-2.59h1.3v1.57h5.4zm-6.13-4.73a.64.64 0 00.31.53 1.38 1.38 0 001.49 0 .61.61 0 00.31-.53.64.64 0 00-.31-.56 1.35 1.35 0 00-1.49 0 .66.66 0 00-.31.56zm18.26 3a1.62 1.62 0 01-.89 1.45 4.73 4.73 0 01-2.47.54 4.67 4.67 0 01-2.46-.54 1.65 1.65 0 01-.69-2.22 1.7 1.7 0 01.69-.69 6 6 0 014.93 0 1.63 1.63 0 01.89 1.46zm-.06-2.12h-1.29v-1.07h-1.8v-1h1.8v-1h-1.67v-1h1.67v-1.66h1.28zm-1.8 2.82a.76.76 0 00.53-.7.8.8 0 00-.53-.71 3.68 3.68 0 00-1.5-.26 3.54 3.54 0 00-1.47.26.79.79 0 00-.52.71.76.76 0 00.52.7 3.49 3.49 0 001.47.26 3.68 3.68 0 001.5-.26zm-1.3-7.87q-.15 3.81-4.34 5.12l-.68-1a5.75 5.75 0 002.35-1.09 3.32 3.32 0 001.24-1.94h-3.19v-1.06zm12.13 1.95a1.82 1.82 0 01-.95 1.58 5.72 5.72 0 01-5.07 0 1.77 1.77 0 01-.74-2.4 1.66 1.66 0 01.74-.74 5.63 5.63 0 015.06 0 1.78 1.78 0 01.95 1.56zm-2.85 7.22h-1.29v-3.26h-3.76v-1h8.85v1h-3.8zm.91-6.4a.87.87 0 00.55-1.1.89.89 0 00-.55-.54 3.91 3.91 0 00-3.11 0 .87.87 0 000 1.64 3.91 3.91 0 003.04-.15z"/></g></g></g></g></svg>