<svg xmlns="http://www.w3.org/2000/svg" width="171.03" height="86"><defs><style>.cls-1{fill:#999}</style></defs><g id="Layer_2" data-name="Layer 2"><g id="Layer_1-2" data-name="Layer 1"><g id="_6_txt00" data-name="6 txt00"><path id="패스_11378" data-name="패스 11378" d="M5.32 3.06a9.38 9.38 0 01-.2 1.18 10.14 10.14 0 003.63 3.13L7.48 8.9a11.69 11.69 0 01-3.16-2.61 8.16 8.16 0 01-2.76 2.93L0 7.89a6.42 6.42 0 003.24-4.83H.63V1.25h7.43v1.81zM9.31 15h-5c-2.17 0-3.45-1-3.45-2.72s1.28-2.76 3.49-2.76h5c2.24 0 3.5 1.14 3.5 2.76S11.55 15 9.31 15zm-5-1.8H9c1 0 1.67-.25 1.67-.92s-.62-1-1.68-1H4.72c-1.06 0-1.68.24-1.68 1-.04.56.48.92 1.31.92zM12.59 1v8.14h-2.11V5.8H7.79V4h2.69V1zm14.24 11.84v1.93H15.18v-4.54h2.11v2.61zm1.5-8v2h-1.79v4.43h-2.13V1h2.13v3.82zM17.36 1h2.12a12.26 12.26 0 01-.35 3 11.84 11.84 0 003.92 3.7l-1.26 1.58a13.12 13.12 0 01-3.43-3 8.77 8.77 0 01-2.67 3.31l-1.58-1.36A8.59 8.59 0 0017.36 1zm19.15.22v7.35h-7.39V1.26h2v1.93h3.34V1.25zM31.15 6.8h3.34V4.93h-3.34zm11.42-2.75v2h-1.79V9.3h-2.13V1h2.13v3zm-5 11h-4.82c-2.21 0-3.49-1-3.49-2.72s1.28-2.76 3.49-2.76h4.81c2.23 0 3.5 1.14 3.5 2.76S39.79 15 37.56 15zm-4.81-1.8h4.81c.87 0 1.33-.36 1.33-.92s-.46-1-1.33-1h-4.82c-.83 0-1.3.36-1.3 1s.47.87 1.3.87zM45.83 1H48a11.68 11.68 0 01-.33 2.88 11.83 11.83 0 003.9 3.58l-1.3 1.6a13.57 13.57 0 01-3.43-3 8.31 8.31 0 01-2.67 3.29L42.59 8a8.14 8.14 0 003.24-7zm9.47 8.94V15h-2.1v-3.16h-9.54v-1.9zm-2.11-.69V1h2.11v8.25zm15.12-8v13h-7.12v-13h2.05v4.13h3V1.25zm4.55 7v6.59h-2.13V1h2.13v5.2h1.79v2zm-9.62 4.06h3v-5h-3zm24.9-3v2h-5.49V15H80.4v-3.67h-5.49v-2zm-6.61-8.06h5.94v7.22h-2.13V3.2h-3.81zm-6.1 0h5.41v7.22h-2.11V3.2h-3.3zm14.25 13v-13h2.12v11.06h6.37v1.93zM101.63 1v13.85h-2.11V1zm11.54.22v13h-5.65v-13zm-3.67 11.12h1.66V3.17h-1.66zM119.47 1v13.85h-2V8.24h-1.2v6.45h-2V1.09h2v5.22h1.2V1zm14.46 12.2v1.57h-12V11h9.76v-.64h-9.79V8.84h4.78v-.77h-5.45v-1.6h13.23v1.6h-5.65v.77h5v3.74H124v.62zm-11.84-7.1l-.64-1.44a11 11 0 005.33-1.49h-4.88V1.55h4.75V.5h2.26v1.05h4.88v1.62h-4.43l-.37.38a15.17 15.17 0 005.25.93L133.68 6a15.26 15.26 0 01-6.1-1.34 12 12 0 01-5.49 1.49zm17 1.27h13.21V9.1h-13.23zm12.56-6.11V3h-4.5a6.28 6.28 0 01-.48.64 13.06 13.06 0 005.5 1.56l-.82 1.58a14.08 14.08 0 01-6-1.92A10.8 10.8 0 01140.13 7l-.9-1.55A9.32 9.32 0 00144.67 3h-4.93V1.25zm.14 11.21c0 1.63-1.31 2.53-3.52 2.53h-5.12c-2.22 0-3.53-.9-3.53-2.53s1.31-2.55 3.53-2.55h5.12c2.19 0 3.5.96 3.5 2.55zm-2.17 0c0-.53-.44-.87-1.46-.87h-4.91c-.94 0-1.45.34-1.45.87s.44.85 1.45.85h4.91c1 0 1.46-.34 1.46-.85zm4.32-11.22h6.68V4.6a10.64 10.64 0 01-5.92 9.66l-1.45-1.54a8.65 8.65 0 005.25-7.84v-1.7h-4.56zm11.58 7v6.59h-2.13V1h2.13v5.2h1.79v2zm2 7.34l-.53-1c.8-.35 1-.87 1-2.05v-.8h2.33v1c0 1.78-.89 2.75-2.78 2.94zM.49 33.2v-4.88c0-2.72 1.51-4.23 3.71-4.23s3.73 1.51 3.73 4.23v4.88c0 2.68-1.47 4.19-3.73 4.19S.49 35.88.49 33.2zm2-4.88v4.88c0 1.55.63 2.27 1.68 2.27s1.68-.72 1.68-2.27v-4.88C5.88 26.78 5.26 26 4.2 26s-1.68.78-1.68 2.32zm8 2.92H8.41v-2h2.07V24h2.11v13.85h-2.11zm16.43-7v7.26H15v-7.25h2.13V26h7.63v-1.75zm.67 8.42v1.94h-2.84V38h-2.13v-3.4h-3.31V38H17.2v-3.4h-2.85v-1.93zm-10.44-3.08h7.63v-1.7h-7.63zM41.07 24v8.19H39V24zm-3.28 14h-5c-2.21 0-3.49-1-3.49-2.72s1.28-2.76 3.49-2.76h5c2.24 0 3.5 1.14 3.5 2.76S40 38 37.79 38zm-5-1.8h4.6c1.06 0 1.68-.25 1.68-.92s-.62-1-1.68-1h-4.2c-1 0-1.68.24-1.68 1 .01.56.49.92 1.32.92zm1.06-10.14a11.39 11.39 0 01-.21 1.14 10.18 10.18 0 003.66 3.17l-1.22 1.53a12.1 12.1 0 01-3.22-2.65 8.3 8.3 0 01-2.83 3c-.51-.45-1-.88-1.52-1.34a6.45 6.45 0 003.28-4.82h-2.67v-1.84h7.5v1.81zM47 24.25h6.91v1.15c0 3.46-3 5.84-6.77 6.23l-.81-1.73c2.83-.32 5.05-1.57 5.44-3.79H47zm11.66 8v5.5h-11.4v-5.5zM49.37 36h7.12v-2h-7.12zm11-9.25v2h-1.75v2.88h-2.13V24h2.13v2.72zm1.47 5.52l-1.3-1.65a8.67 8.67 0 005.9-6.62l2.21.37a8.39 8.39 0 01-.65 2.09 11.83 11.83 0 006 3.62l-1.15 1.71A12.77 12.77 0 0167 28.3a11.1 11.1 0 01-5.12 3.97zm12 3.1v2H60.67v-2h5.47v-3.8h2.24v3.8zm13.71-5.55v1.95h-12v-7.52h11.92v1.95h-9.76v3.62zm.53 5.55v2H74.91v-2h5.47v-2.91h2.24v2.91zM105.23 24v13.85h-2.11V24zm-11.87.22h6.77v3.28a10.81 10.81 0 01-6 9.73l-1.46-1.54a8.85 8.85 0 005.33-8v-1.5h-4.64zM113 35.32v1.92h-5.47v-13h5.17v1.94h-3v9.13zM119.47 24v13.85h-2.11v-6.59h-1.59v6.43h-2.1v-13.6h2.1v5.23h1.59V24z"/><path id="패스_11376" data-name="패스 11376" class="cls-1" d="M.49 56.59v-1.11h6v1.11H4a8.84 8.84 0 01-.23 1.53 9.09 9.09 0 003.35 3l-.79.9a10.72 10.72 0 01-3-2.58A7.82 7.82 0 011 62.35l-1-.78a6.21 6.21 0 002.81-5zm.37 9.76v-3.41h1.22v2.32h8.19v1.09zm7.94-8.29v-2.81H10v8.49H8.8v-4.59H6.24v-1.09zm3.39-1.47v-1.11h6v1.11h-2.58a21 21 0 01-.27 3.16 12.23 12.23 0 003.5 5.48l-.92.76a14 14 0 01-3-4.28 13.6 13.6 0 01-2.11 4.43l-1.11-.57a14.71 14.71 0 002.69-9zm8.06-1.34h1.23v4.48h1.58v1.1h-1.58v5.65h-1.23zm5.84 0h1.22a9.25 9.25 0 01-.3 2.33 10 10 0 003.38 3.26l-.75.93a10.57 10.57 0 01-3.08-2.84 7.71 7.71 0 01-2.33 3.17l-1-.78a7.53 7.53 0 002.86-6.07zm7.58 10v1.09h-9.41v-3.53h1.22v2.45zm-.25-10v8.49H32.2v-8.49zm11.95 10v1.09h-9.66v-3.28h1.22v2.2zm-.13-9.78v4.28h-9.53v-4.27zm-8.31 3.2H44v-2.1h-7.07zm4.21 5.37h-1.22V62H35.1v-1.1h10.75V62h-4.71z"/><path id="패스_11582" data-name="패스 11582" class="cls-1" d="M.19 84.49v-2A2.5 2.5 0 011.46 80l1.9-1.23a1.82 1.82 0 00.86-1.62c0-1-.41-1.47-1.4-1.47s-1.4.49-1.4 1.47H.19a2.32 2.32 0 012-2.57 2.49 2.49 0 01.61 0 2.3 2.3 0 012.62 1.93 2.66 2.66 0 010 .63 2.72 2.72 0 01-1.38 2.51L2.2 80.89a1.6 1.6 0 00-.8 1.55v1h4.05v1.08zM10.76 82v-4.76c0-1-.49-1.54-1.4-1.54S8 76.26 8 77.24V82c0 1 .49 1.52 1.4 1.52S10.76 83 10.76 82zM12 77.12v5a2.38 2.38 0 01-2.23 2.5 1.77 1.77 0 01-.4 0 2.37 2.37 0 01-2.62-2.1 2.54 2.54 0 010-.39v-5A2.38 2.38 0 019 74.6a2.77 2.77 0 01.41 0A2.38 2.38 0 0112 76.72v.4zm1.27 7.37v-2A2.5 2.5 0 0114.52 80l1.9-1.23a1.81 1.81 0 00.87-1.62c0-1-.42-1.47-1.4-1.47s-1.4.49-1.4 1.47h-1.23a2.31 2.31 0 012-2.57 2.15 2.15 0 01.62 0 2.29 2.29 0 012.61 1.93 1.9 1.9 0 010 .63 2.7 2.7 0 01-1.38 2.51l-1.87 1.21a1.58 1.58 0 00-.79 1.55v1h4v1.08zm8.74 0h-1.24v-8.66h-1.1v-1.1H22zm12.06-10.24v8.49h-1.22v-4.11h-3.93v-1.09h3.93v-1h-3.93v-1.07h3.93v-1.22zm-2.94 5.37v1.1h-6.59v-6.24h1.23v5.14zm3.19 4.64v1.09h-9.41v-3.54h1.22v2.45zm7.25-8.56c-.92 0-1.4.5-1.4 1.54v1.52a2.72 2.72 0 011.77-.61 2 2 0 012.26 1.78 1.93 1.93 0 010 .48v1.72a2.37 2.37 0 01-2.2 2.51h-.4a2.38 2.38 0 01-2.6-2.11 2.71 2.71 0 010-.4v-5a2.33 2.33 0 012.63-2.51 2.18 2.18 0 012.48 1.84 2.57 2.57 0 010 .48h-1.25a1.16 1.16 0 00-1.29-1.23zM43 82v-1.46c0-.92-.36-1.29-1.17-1.29a1.45 1.45 0 00-1.62 1.27.57.57 0 000 .13V82c0 1 .48 1.52 1.4 1.52S43 83 43 82zm2.3-2.83v-1.06h7.48v1.07h-3.9v1.48h-1.22v-1.48zm.83 2.83v-1h9.17v2.76h-7.94v.67h8.19v1.08h-9.42v-2.8h7.94V82zM48 74.25h1.8c1.47 0 2.33.66 2.33 1.7s-.86 1.72-2.33 1.72H48c-1.47 0-2.33-.68-2.33-1.72s.83-1.7 2.33-1.7zm1.83 1.06H48c-.73 0-1.1.28-1.1.64s.38.64 1.1.64h1.8c.73 0 1.1-.27 1.1-.64s-.37-.64-1.1-.64zm1.39 5.28v-1.06h2.89v-5.28h1.19v6.34z"/></g><path fill="none" d="M.03 0h171v86H.03z"/></g></g></svg>