<svg xmlns="http://www.w3.org/2000/svg" width="375" height="18"><g data-name="Layer 2"><g data-name="Layer 1"><path d="M73 14.88v-1.3l2.36-2.48a25.37 25.37 0 002.32-2.75 3.73 3.73 0 00.76-2.13 2 2 0 00-.59-1.59 2.76 2.76 0 00-1.79-.48A5 5 0 0073.5 5l-.36-1.64a6.89 6.89 0 013.51-.94 4.51 4.51 0 013 .92 3.29 3.29 0 011 2.61 4.62 4.62 0 01-.28 1.56 5.94 5.94 0 01-.87 1.58c-.4.53-.74 1-1 1.3s-.69.76-1.2 1.29l-1.46 1.49h5v1.73zm14 .22a4.44 4.44 0 01-3.47-1.47 6.49 6.49 0 01-1.31-4.46V8.4a9.08 9.08 0 01.38-2.79 4.67 4.67 0 011.07-1.87 4.45 4.45 0 011.52-1A5 5 0 0187 2.41a4.42 4.42 0 013.43 1.44 6.43 6.43 0 011.32 4.5v.77a6.51 6.51 0 01-1.33 4.52A4.43 4.43 0 0187 15.1zm0-1.7a2.05 2.05 0 001.88-1 6.26 6.26 0 00.61-3.16v-.9q0-4.23-2.47-4.23a2.07 2.07 0 00-1.89 1 6.15 6.15 0 00-.61 3.13v.95q0 4.23 2.48 4.23zm19.55 3.21H95.66v-4.86h2.09v3.18h8.8zm-4.94-8.32l.26 1.69a29.3 29.3 0 01-6.54.56h-1.6V2h2.09v6.78a21.21 21.21 0 005.79-.49zm2.49-3.81h-4V2.84h4V1h2.11v11.63h-2.11V7.27h-4V5.65h4zm12 10.58a8.48 8.48 0 01-2.06-.25 5.45 5.45 0 01-1.55-.61l.36-1.6a4.77 4.77 0 001.32.49 6.81 6.81 0 001.56.21 3.16 3.16 0 001.94-.52 1.84 1.84 0 00.69-1.55c0-1.23-.86-1.85-2.56-1.87h-1.28V7.72h1.13a3 3 0 001.73-.51 1.55 1.55 0 00.62-1.35c0-1.12-.73-1.69-2.2-1.69a6.5 6.5 0 00-2.63.65l-.25-1.64a6.1 6.1 0 011.57-.55 8.56 8.56 0 011.89-.22 4.49 4.49 0 012.79.8 2.68 2.68 0 011 2.26A2.9 2.9 0 01118 8.35a2.84 2.84 0 012.63 3 3.3 3.3 0 01-1.22 2.7 5.13 5.13 0 01-3.34 1zm19.55 2h-11.51v-3.58H133v-.72h-8.86v-1.52h11v3.6h-8.84v.74h9.38zM122.68 3.88A2.2 2.2 0 01123.83 2a5.19 5.19 0 012.85-.73 5 5 0 012.8.74 2.25 2.25 0 011.12 1.94 2.18 2.18 0 01-1.13 1.89 5.08 5.08 0 01-2.79.74 5.29 5.29 0 01-2.85-.74 2.23 2.23 0 01-1.15-1.96zm7.11 6.36V8.85H133V1h2.09v9.65H133v-.41zm-2.32.43h-2.11V8.72c-1.85.08-3 .11-3.6.11l-.29-1.67c2 0 3.72 0 5.2-.09 2.09-.1 3.83-.24 5.2-.42l.13 1.57c-1.22.17-2.74.31-4.58.41zm-2.15-7.61a1 1 0 00-.52.84.93.93 0 00.52.83 3.14 3.14 0 002.7 0 .94.94 0 00.53-.82 1 1 0 00-.53-.83 3.05 3.05 0 00-2.7 0zm11.35 14.25l.72-3.64h2.26l-1.3 3.64zm8.91-9.86v-1.7h1.74l.5-3.25h1.53l-.52 3.25h1.76l.54-3.25h1.52l-.53 3.25h1.3v1.7h-1.54l-.35 2.05H153v1.67h-1.68l-.56 3.44h-1.5l.55-3.44H148l-.56 3.44h-1.51l.52-3.44h-1.35V9.5h1.64l.32-2zm3 0l-.36 2.05H150l.36-2zM167.75 17h-2V9h-1.55v7.3h-2v-15h2v6h1.55V1h2zm-6.15-4.72a14.37 14.37 0 01-2.25.33c-1.08.09-2.11.14-3.08.14h-1.44V2.87h2.07v8.18a17.39 17.39 0 004.43-.42c0 .23.07.55.14 1s.11.62.13.69zm20.46-4.93h-4.55v1.82h6.23v1.7h-14.49v-1.7h6.15V7.39h-4.23V1.54h10.74v1.69h-8.64v2.5h8.79zm0 9.22h-11V12h2.09v3h8.87zM198 17h-2V9h-1.54v7.3h-2v-15h2v6H196V1h2zm-6.15-4.72a14.37 14.37 0 01-2.25.33c-1.08.09-2.11.14-3.08.14h-1.44V2.87h2.07v8.18a17.39 17.39 0 004.43-.42c0 .23.07.55.14 1s.1.62.12.69zM214 10h-14.51V8.31H214zm-1.68 6.84h-11v-5.6h10.8v1.69h-8.71v2.24h8.87zm0-9.84h-10.91V1.54h10.73v1.68h-8.63v2.1h8.75zM223 14.88l-4.33-12.35H221l3.24 9.54 3.22-9.54h2.07l-4.35 12.35zm7.94 0V2.53h2.23v12.35zm4.75 0V2.53H240q4.07 0 4.07 3.12a2.62 2.62 0 01-2 2.7v.05a2.75 2.75 0 012.56 2.93 3.27 3.27 0 01-1.1 2.57 4.73 4.73 0 01-3.2 1zm2.2-1.66H240c1.53 0 2.29-.66 2.29-2a1.79 1.79 0 00-.6-1.5 3.05 3.05 0 00-1.81-.46h-2zm0-5.43h1.73c1.51 0 2.27-.61 2.27-1.84a1.66 1.66 0 00-.53-1.38 2.74 2.74 0 00-1.65-.39h-1.82zm8.53 7.09V2.53h7.7v1.75h-5.49v3.38h4.26v1.73h-4.26v3.74h5.6v1.75zm11.75-9a2 2 0 00.62 1.51 2.68 2.68 0 003.38 0 2 2 0 00.63-1.51 1.92 1.92 0 00-.63-1.46 2.4 2.4 0 00-1.69-.59 2.35 2.35 0 00-1.68.59 1.92 1.92 0 00-.6 1.44zM269 1v16h-2.09V1zm-13 4.88a3.53 3.53 0 011.23-2.78 5.43 5.43 0 016.47 0 3.52 3.52 0 011.3 2.78 3.52 3.52 0 01-1.21 2.77 5.39 5.39 0 01-6.47 0A3.54 3.54 0 01256 5.88zm10.15 7.06c-1.58.2-3.39.36-5.41.46-2.4.1-4.08.14-5 .13l-.31-1.8q3 0 5.22-.09c2.09-.07 3.88-.21 5.36-.4zM288.08 17H286V1h2.1zm-3.31-5.22l-1.22 1.58a8.45 8.45 0 01-2.08-1.92A8.14 8.14 0 01280 9a7.86 7.86 0 01-1.5 2.73 8 8 0 01-2.34 2l-1.27-1.55a8.28 8.28 0 004-7.4V2.35h2.18v2.34a7.93 7.93 0 003.7 7.13zm5.36-8.08V2h8.45v1.74h-3.07a4.69 4.69 0 001.14 2.77 5.5 5.5 0 002.45 1.62l-1.16 1.67a7 7 0 01-2-1.26 6 6 0 01-1.49-1.91A5 5 0 01293 8.8a6 6 0 01-2.28 1.43L289.5 8.6a6.34 6.34 0 002.75-1.89 4.9 4.9 0 001.11-3zm1.87 7.45h10.5v5.9h-2.12v-4.22H292zm12.82-4.62h-2.29v3.81h-2.12V1h2.12v3.8h2.29z" fill="#fff"/><path fill="none" d="M0 0h375v18H0z"/></g></g></svg>