<svg xmlns="http://www.w3.org/2000/svg" width="375" height="18"><g data-name="Layer 2"><g data-name="Layer 1"><g data-name="9 tit"><g data-name="그룹 4671"><path data-name="패스 11525" d="M61.49 10.87l-1.6-1.64a6.77 6.77 0 004-4.95h-3.32v-2h3.29V.65h2.41v1.6h3.26v2h-3.24A6.73 6.73 0 0166 5.54a10.25 10.25 0 004.28 3.1L69 10.44a12.55 12.55 0 01-4-2.81 8.54 8.54 0 01-3.51 3.24zm13.05 3.89l-1 1.94a13.46 13.46 0 01-6.37-2.79 10 10 0 01-5.74 2.83l-1.15-1.91c2.93-.34 5.47-1.78 6.35-4.25l2.25.65a6 6 0 01-.47 1 12.07 12.07 0 006.13 2.53zm-2.9-13.52H74v10h-2.36V7.11h-2.77v-2h2.77zm22.18 8.37h-2.4V3.69h-11v-2.2h13.4zm.75 1v2.21H88.4V17h-2.54v-4.17h-6.17v-2.21zm1.71-3.53V1.49h13.38v2h-11v1.66h11.07v1.94h-5.64v1.49h6.3v2H95.53v-2h6.19V7.09zm0 6.64v-2h13.38V17h-2.4v-3.27zM112 1.49h8.64v2.18h-3.4a28.23 28.23 0 01-.33 3.89 17.63 17.63 0 004.63 7.13l-1.84 1.51a19.6 19.6 0 01-3.7-5.08 18.1 18.1 0 01-2.64 5.2l-2.13-1.15a18.67 18.67 0 003.55-11.5H112zm13.12 7.89v7.41h-2.39V1.24h2.39v5.85h2v2.29zm2.13-.67h14.88v2.12h-14.92zm14.29 5.81v2.18H128v-4.79h2.4v2.61zM128 7.14V1.31h2.4V5h11.1v2.1zm20.84-2h-1.69l-.27-4h2.22zm15.27-3.64V9H150.7V1.49zm-11 5.35h8.59V3.67h-8.59zM164.83 11v2.2h-6.18V17h-2.54v-3.8h-6.17V11zm1.54-9.47h6.68v2.14h-2.28c0 1.22-.08 2.39-.2 3.51a23.26 23.26 0 003.43 7.63c-.64.38-1.27.79-1.92 1.15a23.29 23.29 0 01-2.27-4.55 21.13 21.13 0 01-2 4.91l-2.14-.81a23.27 23.27 0 002.83-11.84h-2.13zm13.45 15.3h-2.29V1.24h2.29zm-3.47-15.52v15.3h-2.25V9H172V6.84h2.15V1.31zM190.42 8c0 2-1.69 3.45-4.07 3.45s-4-1.44-4-3.45 1.7-3.48 4-3.48S190.42 6 190.42 8zm5.24 6.5v2.2h-13.1v-4.64h2.38v2.47zm1.69-8.86v2.3h-2v5h-2.4V1.24h2.4v4.43zm-6.24-3.62V4h-9.4V2.05h3.42V.65h2.39v1.4zm-3 6a1.64 1.64 0 00-1.64-1.65h-.15a1.61 1.61 0 00-1.75 1.45 1.15 1.15 0 000 .19 1.59 1.59 0 001.58 1.59h.18a1.62 1.62 0 001.78-1.43s.03-.09.03-.17zm27.41-1h-13.43V1.49h13.37V3.4h-11v1.71h11.07zm-14.19 1.13h14.89v1.93h-14.89zm3.15 6.66h11.14v1.89h-13.53v-5.43h13.37v1.89h-11zm26.73-13.57v15.55h-2.38V1.24zm-13.36.25h7.62v3.69a12.18 12.18 0 01-6.75 11l-1.64-1.73a10 10 0 006-9V3.67h-5.22zm17.05 3.64h-1.69l-.27-4h2.21zm9.68 1.69H247v3.89h1.33v2.2H247v2.61h-2.38v-2.61h-5.07v-1.86l4-9.4H246l-3.63 9h2.2zm4.86-5.33h5.67v4.27c0 4.14-1.3 7.79-4.41 10.44l-2-1.37a10.75 10.75 0 004-8.84V3.67h-3.28zm13.45-.25v15.55h-2.38V9.38h-1.69v7.23h-2.36V1.31h2.36V7.2h1.69v-6zm2.9 10.87v-1.67h12.94v4h-10.57v.68h10.91v1.69h-13.28v-4h10.58v-.67zm2.63-10.87H271c2.09 0 3.3.9 3.3 2.32S273 5.9 271 5.9h-2.53c-2.09 0-3.3-.92-3.3-2.34s1.16-2.32 3.25-2.32zM271 3h-2.53c-.69 0-1 .23-1 .59s.32.63 1 .63H271c.67 0 1-.25 1-.63s-.38-.59-1-.59zm-6.26 5.11V6.37h10.22v1.71h-4.78v2h-2.4v-2zm8.1 1.94V8.4h3.56V1.24h2.38V10zm25.74-8.53V9h-13.42V1.49zm-11 5.35h8.59v-3.2h-8.59zM299.29 11v2.2h-6.18V17h-2.54v-3.8h-6.17V11zm15.24-2v2.07H301V5.24h11v-1.7h-11v-2h13.37v5.69h-11V9zm.6 5v2.2h-14.89V14h3.11v-2.39h2.4V14h3.89v-2.39H312V14z"/><path fill="none" d="M0 0h375v18H0z"/></g></g></g></g></svg>