<svg xmlns="http://www.w3.org/2000/svg" width="460" height="234"><defs><style>.cls-1{fill:#5525d7}.cls-3{fill:#fff}</style></defs><g id="Layer_2" data-name="Layer 2"><g id="Layer_1-2" data-name="Layer 1"><g id="_2_txt" data-name="2 txt"><g id="그룹_4083" data-name="그룹 4083"><path id="사각형_127" data-name="사각형 127" class="cls-1" d="M62.48 191h335v12h-335z"/><path id="사각형_128" data-name="사각형 128" class="cls-1" d="M73.48 221h318v12h-318z"/></g><path id="패스_11219" data-name="패스 11219" d="M66.39 15.59v3.5H48.2v-3.5zm-16.1-3.3L48 9.32A11.31 11.31 0 0055.68.5l4 .62a13.18 13.18 0 01-.93 3.12 15.73 15.73 0 007.83 4.38L64.5 11.7a16.28 16.28 0 01-7.66-4.29 15.11 15.11 0 01-6.55 4.88zm34.54-6.66v3.14H72.05v1.65H85v3.24H68.28V.92h16.55v3.25H72.05v1.46zm.82 10v3.45h-18.2v-3.44zM104.08.72v19h-3.76v-19zm-5.79 14.72v3.45h-11v-11h6.32v-3.5h-6.3V.92h10.08v10.45h-6.31v4.07zM116.71.92v9.72h-10.15V.92zm-6.63 6.73h3.1V3.91h-3.1zM123.33.72v10.69h-3.76V.72zm-4.75 19.21h-6.85c-3 0-5-1.65-5-4s2-4 5-4h6.85c3 0 5 1.65 5 4s-2.01 4-5 4zm-6.84-3.1h6.84c.7 0 1.12-.4 1.12-.9a1 1 0 00-1-1h-6.94c-.72 0-1.12.42-1.12.95s.4.89 1.12.89zm21.18 2.33l-3.52-1.59c2.73-5.06 3.48-10.65 3.48-16.65h3.76a55.1 55.1 0 01-.33 6.29 22.57 22.57 0 005.57 9.55L139 19.09a21 21 0 01-3.88-5.59 27.5 27.5 0 01-2.22 5.66zM147.2.72v19h-3.76v-9.08h-4.73V6.92h4.73V.72zm19.25 0v19h-3.76v-19zm-6.45.2v18h-10.32v-18h3.56v5.17h3.17V.92zm-6.71 14.52h3.17V9.56h-3.17zm33.26.15v3.5h-18.23v-3.5zm-16.1-3.3l-2.29-3A11.29 11.29 0 00175.8.5l4 .62a12.7 12.7 0 01-.92 3.12 15.73 15.73 0 007.83 4.38l-2.11 3.08a16.28 16.28 0 01-7.6-4.29 15.19 15.19 0 01-6.55 4.88zm29.15-6c0 3.21-2.15 5.59-5.78 5.59S188 9.5 188 6.29s2.17-5.57 5.78-5.57 5.78 2.38 5.78 5.57zm-3.58 0a2.22 2.22 0 10-4.4-.53 1.57 1.57 0 000 .53 2.22 2.22 0 004.4.58 2.81 2.81 0 00-.02-.58zm5.21 13.44V.72H205v19zm-13.62-.64v-3.45h12.65v3.45zm37.49-2.22v-1.41h-9v1.41zm3.76-4.27v7.13h-16.59V12.6zm-17.42-3.85h18.2v2.95h-18.2zM224.26 8h-7.43c-3.1 0-4.78-1.28-4.78-3.65 0-2.18 1.68-3.63 4.78-3.63h7.43c3.1 0 4.76 1.45 4.76 3.63C229 6.73 227.37 8 224.26 8zm-7.41-2.93h7.37c.62 0 1-.24 1-.72s-.37-.73-1-.73h-7.37c-.62 0-1 .27-1 .73s.37.73 1 .73zm27.46 9.7h-3.81v-2.68h3.81V.72h3.76v14.63h-3.76zm4.18 1.63v3.32h-16.55v-5.28h3.76v2zm-10.76-8.2h-1.87c-3 0-4.75-1.47-4.75-3.74s1.76-3.74 4.75-3.74h1.87c3 0 4.75 1.45 4.75 3.74s-1.76 3.74-4.75 3.74zm-1.87-2.79h1.87c.72 0 1.23-.31 1.23-1s-.51-1-1.23-1h-1.87c-.73 0-1.23.31-1.23 1s.5 1 1.23 1zM243 8.75v2.79h-5.17v2.51h-3.73v-2.51h-3.41V8.75zM255.17 4V.92h10.34V4h-3.38c-.07.44-.16.87-.27 1.3a13.67 13.67 0 004.58 3.76l-2.14 2.69a15.48 15.48 0 01-3.91-3.06 10.48 10.48 0 01-3.46 3.36l-2.57-2.31A8.43 8.43 0 00258.41 4zm12.1 15.93h-7c-3 0-4.87-1.59-4.87-3.92s1.85-3.91 4.87-3.91h7c3 0 4.87 1.58 4.87 3.91s-1.85 3.92-4.87 3.92zm-7-3.1h7c.69 0 1-.33 1-.82s-.35-.81-1-.81h-7c-.69 0-1 .35-1 .81s.35.81 1 .81zM271.94.73v11h-3.76v-4.1h-3.06V4.46h3.06V.72zm19.25 15.55v3.46h-16.35v-6.55h3.76v3.08zM293 5.41v3.67h-2.27v5.43H287V.72h3.76v4.69zM277.53.72h3.76a20.43 20.43 0 01-.44 4.28A15.16 15.16 0 00286 9.61l-2.25 2.75a17.2 17.2 0 01-4.22-3.52 10.58 10.58 0 01-3.39 3.83l-2.7-2.42c2.63-1.96 4.09-4.98 4.09-9.53zm31.41.2v10.25h-10.65V.92h3.52v2.33h3.63V.92zm-7.13 7.3h3.63v-2h-3.63zm15.1-3.74v3.67h-2.27v3.59h-3.76V.72h3.76v3.76zm-6.71 15.44h-6.82c-3 0-4.87-1.58-4.87-3.91s1.85-3.92 4.87-3.92h6.82c3 0 4.86 1.59 4.86 3.92s-1.87 3.92-4.86 3.92zm-6.82-3.1h6.82c.68 0 1-.33 1-.81s-.35-.81-1-.81h-6.82c-.69 0-1 .35-1 .81s.31.81 1 .81zM334.31.72V12h-3.76V.72zm0 12.1v7.11h-3.76v-3.72H318v-3.39zM320.65.72h3.76a19.22 19.22 0 01-.41 4.07 15.32 15.32 0 005.08 4.42l-2.22 2.73a17.15 17.15 0 01-4.25-3.48 10.75 10.75 0 01-3.36 3.79l-2.71-2.42c2.65-1.96 4.11-4.75 4.11-9.11zm31 .2v18h-10.24v-18H345v5.17h3.17V.92zm6.07 10.23v8.58H354V.72h3.76v6.71H360v3.72zM345 15.44h3.17V9.56H345zM377.43.92v7.63h-12.78v1.5h13v3.19h-16.77V5.45h12.78V4.13h-12.78V.92zm.81 14.72v3.45h-18.19v-3.45h7V13.7h4.11v1.94zm18.44 1.5v2.6h-16.35v-5.86h12.17v-.66h-12.17v-2.58h15.93v5.83h-12.17v.66zm1.85-13.47v3.65h-2.27v2.77h-3.76V.72h3.76v3zM383 5.47a1.76 1.76 0 003.52 0 1.76 1.76 0 00-3.52 0zm-3.72 0c0-2.79 2.29-4.75 5.48-4.75s5.48 2 5.48 4.75-2.27 4.75-5.48 4.75-5.48-2-5.48-4.75zM415.93.72v19h-3.76v-19zm-16.54.2h9.5V6A14.2 14.2 0 01401 18.91l-2.62-2.64c4.27-2.06 6.77-5.72 6.77-9.83V4.39h-5.74z" fill="#fed843"/><path id="패스_11218" data-name="패스 11218" class="cls-3" d="M62.87 49.2v17.28H61v-8.64h-3v8.44h-1.89v-17H58v6.86h3V49.2zM55.11 64v1.7h-6.9V49.56h6.42v1.7h-4.54V64zm25.44-14.44v8.84H65.89v-8.84h1.88v2.64h10.9v-2.64zm.94 10.72V62h-7.32v4.68h-1.88V62H65v-1.7zm-13.72-3.56h10.9V53.9h-10.9zm30.28-7.16v7.52H83.39v-7.52h1.88v2.18h10.9v-2.18zm-6.3 13.56h-1.88v-2.64h-7.42v-1.7H99v1.7h-7.25zm6.5 1.48v1.68H83.39v-4.5h1.88v2.82zm-13-9.16h10.9v-2.06H85.27zM100 65.72V64h12.16v1.7zm13.54.76V49.2h1.88v17.28zm-2.82-12.4a5.08 5.08 0 11-4.88-4.88 5.08 5.08 0 014.83 4.88zm-1.88 0a3.2 3.2 0 10-3.2 3.2 3.2 3.2 0 003.15-3.2zM138.19 64v1.7h-16.54V64zm-15.4-4.76l-1.14-1.4a11.53 11.53 0 007.66-8.66l1.86.36a10.19 10.19 0 01-.76 2.54 15.37 15.37 0 007.78 5l-1 1.5a17.47 17.47 0 01-7.68-4.86 13.9 13.9 0 01-6.72 5.54zm19.18-8v3h12.78V56H142v3.1h13v1.7h-14.91V49.56h14.66v1.7zM155.69 64v1.7h-16.54V64zm11.68 0v1.7h-10v-9.2h6.76v-5.24h-6.76v-1.7h8.64v8.66h-6.76V64zm4.7-14.82v17.3h-1.88V49.2zm15.62 9.72v-9.7h1.88v9.72zm-2.26 7.74h-5.64c-2.82 0-4.5-1.42-4.5-3.46s1.68-3.48 4.5-3.48h5.64c2.82 0 4.52 1.42 4.52 3.48s-1.7 3.48-4.52 3.48zM179.79 65h5.64c1.5 0 2.54-.7 2.54-1.8s-1-1.82-2.54-1.82h-5.64c-1.5 0-2.54.7-2.54 1.82s1.04 1.8 2.54 1.8zm4-15.44v8.28h-8.84v-8.28zm-7 6.58h5.08v-4.88h-5.08zm22.44-6.76h1.88a43.24 43.24 0 01-.38 5.8 20.09 20.09 0 005.16 9.26l-1.38 1.28a20.71 20.71 0 01-4.42-7 26.64 26.64 0 01-2.74 7.28l-1.68-.88c2.64-4.66 3.56-10.28 3.56-15.74zm10.16-.18h1.88v17.28h-1.88v-8.7h-5.46V56.1h5.46zm19.38 0v17.28h-1.88V49.2zm-6 .36v16.16h-8.64V49.56H216v5.64h4.88v-5.64zM216 64h4.88v-7.1H216zm31.4 0v1.7h-16.55V64zM232 59.26l-1.14-1.4a11.53 11.53 0 007.66-8.66l1.86.36a10.19 10.19 0 01-.76 2.54 15.37 15.37 0 007.78 5l-1 1.5a17.47 17.47 0 01-7.68-4.86 13.9 13.9 0 01-6.74 5.5zm16.36-1.42h16.54v1.7h-16.55zm15.8 6.76v1.68h-14.87V61h1.88v3.6zm-14.86-9.06v-6.16h1.88v4.52h13v1.64zm24.14-6.16h1.88a43.24 43.24 0 01-.38 5.8 20.09 20.09 0 005.16 9.26l-1.38 1.28a20.71 20.71 0 01-4.42-7 26.64 26.64 0 01-2.75 7.28l-1.68-.88c2.64-4.66 3.56-10.28 3.56-15.74zm9.78-.18h1.88v6.9h2.44v1.68h-2.44v8.7h-1.88zm15.06 6.38h-4.88v1.72h4.88zm-6.76-.08c-2.14-.3-3.2-1.36-3.2-3.12s1.5-3.18 4.5-3.18h6c3 0 4.52 1.3 4.52 3.18s-1.06 2.82-3.2 3.12v1.8h3.94V59h-16.53v-1.7h4zm1.3-1.56h6c1.88 0 2.54-.62 2.54-1.56s-.66-1.54-2.54-1.54h-6c-1.68 0-2.54.6-2.54 1.54s.65 1.56 2.53 1.56zm6 12.72h-6c-3 0-4.5-1.22-4.5-3.18s1.5-3.2 4.5-3.2h6c3 0 4.52 1.22 4.52 3.2s-1.49 3.18-4.51 3.18zm-6-1.66h6c1.88 0 2.54-.6 2.54-1.52s-.66-1.54-2.54-1.54h-6c-1.68 0-2.54.6-2.54 1.54s.65 1.52 2.53 1.52zm13-13.74v-1.7H315v1.7h-3.92a33 33 0 01-.42 4.86 19 19 0 005.34 8.44l-1.42 1.16a21.35 21.35 0 01-4.58-6.58 21.1 21.1 0 01-3.25 6.86l-1.7-.88c3-4.1 4.06-8.62 4.14-13.82zm12.4-2.06h1.88v6.9h2.44v1.68h-2.44v8.7h-1.88zm4.34 16.52V64h12.16v1.7zm13.54.76V49.2h1.9v17.28zm-2.82-12.4a5.08 5.08 0 11-4.88-4.88 5.08 5.08 0 014.87 4.88zm-1.88 0a3.2 3.2 0 00-6.4 0 3.2 3.2 0 006.4 0zm28.46 4.52H358v-7.34h-12.81v-1.7h14.66zm.94 1.3v1.7h-7.32v5.06h-1.88V61.6h-7.34v-1.7zm1.9-4.54v-5.8h14.66v1.66h-12.79v2.48h12.88v1.66h-6.58v2.12h7.42v1.68h-16.54v-1.68H369v-2.12zm0 7.34V61h14.66v5.62h-1.88v-4zm32.36-4.58v1.7h-14.87v-6H393v-2.56h-12.81v-1.7h14.66v5.94h-12.78v2.62zm.74 5.9v1.7h-16.55V64H383v-3.34h1.88V64h5.26v-3.34H392V64zm16.76.64v1.62h-14.87v-4.16h12.78v-.88h-12.78v-1.62h14.66v4.1h-12.78v.94zm-15.8-7.58h16.54v1.64h-16.55zm15.8-2.5v1.62h-14.87v-4.12h12.78v-.9h-12.78v-1.62h14.66v4.12h-12.78v.9zM57.64 91.6v-2.44a4.07 4.07 0 013.79-4.33 4.42 4.42 0 01.63 0 4.06 4.06 0 014.41 3.69 4.42 4.42 0 010 .63v2.45a4.06 4.06 0 01-3.8 4.31 4.28 4.28 0 01-.62 0 4.07 4.07 0 01-4.41-3.68 4.28 4.28 0 010-.63zm14.1-3.82v8.7h-1.88V79.2h1.88v6.9h2.44v1.68zm-12.22 1.38v2.44a2.54 2.54 0 005.08.14v-2.58a2.54 2.54 0 10-5.08-.2zM67 83H57v-1.7h4v-2.68h2v2.64h4zm8 12.72V79.56h1.88V94h8.64v1.7zm14.28-7.94v8.7h-1.92V79.2h1.88v6.9h2.44v1.68zm2.46 7.94V94h12.16v1.7zm13.54.76V79.2h1.88v17.28zm-2.82-12.4a5.08 5.08 0 11-5.28-4.88h.2a4.77 4.77 0 015.07 4.47c-.03.14-.03.27-.03.41zm-1.88 0a3.2 3.2 0 10-3.2 3.2 3.06 3.06 0 003.2-2.92 1.31 1.31 0 00-.04-.28zM129 87.46h-1.88v-2h-12.78v-1.64h12.78v-2.56h-12.78v-1.7H129zm.2 7.14v1.68h-14.86V91.6h1.88v3zm-15.8-6.2h16.54v1.7H113.4zm30.92-8.84v16.16h-8.46V79.56h1.88v5.64h4.7v-5.64zm5.82 8.22v8.7h-1.88V79.2h1.88v6.9h2.44v1.68zM137.74 94h4.7v-7.1h-4.7zm30.46-5.4h-1.88v-7.34h-12.78v-1.7h14.66zm.94 1.3v1.7h-7.32v5.06h-1.88V91.6h-7.34v-1.7zm16.38-10.7v17.28h-1.88V79.2zm-14.66 16.52V79.56h1.88V94h9v1.7zm32.16.76h-1.88V79.2H203zM190 83.14v9c0 1.5.66 2.06 1.6 2.06s1.6-.56 1.6-2.06v-9c0-1.5-.66-2.06-1.6-2.06s-1.6.56-1.6 2.06zm-1.88 9v-9c0-2.64 1.6-3.76 3.48-3.76s3.48 1.12 3.48 3.76v3h2.16v-6.86h1.88v17h-1.88v-8.44h-2.16v4.32c0 2.62-1.6 3.74-3.48 3.74s-3.44-1.12-3.44-3.74zm36.18-2.44v6.56h-13.9v-6.54zm-12 4.9h10.14v-3.22h-10.12zM226.78 83v1.68h-2.44v4.28h-1.88V79.2h1.88V83zm-6.2 3.18v1.7h-10.52v-8.32h9.4v1.7h-7.52v4.88zm22 8.46v1.68h-14.84v-4.5h1.88v2.78zm-15.8-6.2h16.54v1.7H226.8zm11.1-1.68h-5.64c-3 0-4.7-1.32-4.7-3.76 0-2.26 1.68-3.76 4.7-3.76h5.64c3 0 4.7 1.5 4.7 3.76.02 2.4-1.68 3.72-4.68 3.72zM232.26 85h5.64c1.88 0 2.62-.84 2.62-2.06s-.74-2.08-2.62-2.08h-5.64c-1.7 0-2.64.86-2.64 2.08s.76 2.06 2.64 2.06zm27.14 4.7h-5.26c-2.62 0-4.7-.94-4.7-3.28s2.08-3.3 4.7-3.3h5.26c2.64 0 4.7.94 4.7 3.3s-2.1 3.3-4.7 3.3zM265 91v1.68h-7.32v3.94h-1.88v-3.9h-7.3V91zm-10.9-3h5.26c1.88 0 2.74-.64 2.74-1.58s-.86-1.6-2.74-1.6h-5.26c-1.88 0-2.72.66-2.72 1.6s.88 1.58 2.76 1.58zm10.16-6h-15v-1.7h6.44v-1.7h2v1.7h6.62zm1.54 15.4l-.56-.76a2.47 2.47 0 001.12-2.44v-.9h2.16v.92a3.19 3.19 0 01-2.68 3.2zm9-17.86h7.32v1.7h-2.82a43.5 43.5 0 01-.26 4.42 24.69 24.69 0 004.08 8.58l-1.54 1.08a26.22 26.22 0 01-3.16-6.08 23.4 23.4 0 01-2.66 6.7l-1.72-.74c2.54-4.1 3.34-8.5 3.38-14h-2.62zm14.66-.36v17.3h-1.88v-8.64h-2.26v8.44h-1.82v-17h1.88v6.86h2.26V79.2zm17.5 0v9.86h-1.88v-4.2h-2.2v4.22h-1.78v-9.78h1.84v3.86h2.2V79.2zm-4.14 17.46h-5.64c-2.82 0-4.5-1.42-4.5-3.46s1.68-3.48 4.5-3.48h5.64c2.82 0 4.52 1.42 4.52 3.48s-1.64 3.48-4.46 3.48zM297.24 95h5.64c1.5 0 2.54-.7 2.54-1.8s-1-1.82-2.54-1.82h-5.64c-1.5 0-2.54.7-2.54 1.82s1.04 1.8 2.54 1.8zm-2.62-15.8h1.88a20 20 0 01-.3 3.46 12.1 12.1 0 004.2 4.5l-1.2 1.4a17.21 17.21 0 01-3.6-3.68 11.36 11.36 0 01-2.56 4.3l-1.66-1c2.38-2.26 3.24-5.4 3.24-8.98zm34.5 15.52l-.76 1.56a14.25 14.25 0 01-6.94-2.88 10 10 0 01-6.48 2.88l-.88-1.52c3.2-.3 5.94-1.58 7-4.14l1.8.52a8.88 8.88 0 01-.48 1 13.55 13.55 0 006.74 2.6zm-2.28-15.52h1.88v12.16h-1.88zm-8.9 3H320c2.06 0 3.5 1 3.5 2.64s-1.44 2.62-3.5 2.62h-.16v1.14h5.58v1.66H313.3V88.6h4.7v-1.12h-.06c-2.06 0-3.5-1-3.5-2.62s1.44-2.64 3.5-2.64zm0 3.68H320c1.06 0 1.62-.42 1.62-1s-.56-1.1-1.62-1.1h-2.1c-1.06 0-1.62.48-1.62 1.1s.6 1.02 1.66 1.02zm.1-6v-1.26h1.88v1.32h4.5v1.64h-10.74v-1.64zM331.72 87l-.92-1.5a9.68 9.68 0 007.66-6.3l1.86.36a8.17 8.17 0 01-.62 1.5 15.27 15.27 0 007.64 3.76l-.84 1.54a16.75 16.75 0 01-7.7-3.84 12 12 0 01-7.08 4.48zm15.62 2.16v1.68H340v5.82h-1.88v-5.82h-7.32v-1.68zm20.58-10v17.32H366V79.2zm-6 .36v16.2h-8.64V79.56h1.88v5.64H360v-5.64zM355.14 94H360v-7.1h-4.88zm30.46-14.44v1.7h-5.76a8.12 8.12 0 01-.62.8 15.19 15.19 0 007 2.52l-1 1.5a15.91 15.91 0 01-7.22-2.86 13.36 13.36 0 01-6.7 3.1l-1-1.48a12.37 12.37 0 007.14-3.58h-6.58v-1.7zm-4.32 17.1h-6c-2.9 0-4.5-1.22-4.5-3.08s1.6-3.1 4.5-3.1h2v-1.6H370V87.2h16.54v1.68h-7.42v1.6h2.16c2.92 0 4.52 1.22 4.52 3.1s-1.6 3.08-4.52 3.08zm-6-1.66h6c1.88 0 2.54-.6 2.54-1.42s-.66-1.46-2.54-1.46h-6c-1.68 0-2.54.6-2.54 1.46s.64 1.42 2.52 1.42zm27.66 1.48H401V79.2h1.88zm-13-13.34v9c0 1.5.66 2.06 1.6 2.06s1.6-.56 1.6-2.06v-9c0-1.5-.66-2.06-1.6-2.06s-1.6.56-1.6 2.06zm-1.88 9v-9c0-2.64 1.6-3.76 3.48-3.76S395 80.5 395 83.14v3h2.16v-6.86h1.88v17h-1.88v-8.44H395v4.32c0 2.62-1.6 3.74-3.48 3.74s-3.46-1.12-3.46-3.74zM125.23 124v1.7h-5.7v-16.14h5.24v1.7h-3.36V124zm-6.44 0v1.7h-5v-16.14h5v1.7h-3.1V124zm9.5-6.24v8.7h-1.88V109.2h1.88v6.9h2.24v1.68zm12.8 6.24v1.7h-9.78v-9.2h6.58v-5.26h-6.58v-1.7h8.46v8.66h-6.58v5.8zm4.5-6.24v8.7h-1.88V109.2h1.88v6.9H148v1.68zm5.84-8.4h1.88a43.24 43.24 0 01-.38 5.8 20.09 20.09 0 005.16 9.26l-1.38 1.28a20.71 20.71 0 01-4.42-7 26.64 26.64 0 01-2.74 7.22l-1.68-.88c2.64-4.58 3.56-10.2 3.56-15.66zm10.16-.18h1.88v17.28h-1.88v-8.7h-5.46v-1.66h5.46zm8.72 11.28v-5.64c0-3.68 1.88-5.46 4.62-5.46s4.6 1.78 4.6 5.46v5.64c0 3.64-1.88 5.42-4.6 5.42s-4.62-1.76-4.62-5.4zm1.88-5.64v5.64c0 2.62.94 3.74 2.74 3.74s2.72-1.12 2.72-3.74v-5.64c0-2.64-.94-3.76-2.72-3.76s-2.74 1.14-2.74 3.78zm12.6 2.94v8.7h-1.88V109.2h1.88v6.9h2.44v1.68zm13 7.94H188v-16.14h8.64v1.7h-6.76v5.08h6.76V118h-6.76v6h7.9zm4.88-16.52v17.28h-1.88V109.2zM221.29 124v1.7h-16.54V124zm-15.4-4.76l-1.14-1.4a11.53 11.53 0 007.66-8.66l1.86.36a10.19 10.19 0 01-.76 2.54 15.37 15.37 0 007.78 5l-1 1.5a17.47 17.47 0 01-7.68-4.86 13.9 13.9 0 01-6.74 5.5zm19.18-8v3h12.78V116h-12.78v3.1h13v1.7h-14.88v-11.2h14.66v1.7zM238.79 124v1.7h-16.54V124zm16.38 2.46h-1.88V109.2h1.88zm-13-13.34v9c0 1.5.66 2.06 1.6 2.06s1.6-.56 1.6-2.06v-9c0-1.5-.66-2.06-1.6-2.06s-1.58.58-1.58 2.08zm-1.88 9v-9c0-2.64 1.6-3.76 3.48-3.76s3.48 1.12 3.48 3.76v3h2.16v-6.86h1.88v17h-1.88v-8.44h-2.16v4.32c0 2.62-1.6 3.74-3.48 3.74s-3.46-1.1-3.46-3.72zm17.7-12.6h6v4c0 4.9-1.56 9.08-5.14 12.14l-1.68-1a13.25 13.25 0 004.94-10.92v-2.52H258zm10.62-.28v17h-1.88v-8.44h-2.36v-1.7h2.36v-6.86zm4 17.2h-1.88V109.2h1.88zm13.62-16.92v16.16h-6.58v-16.12h1.88v6h2.82v-6zM281.59 124h2.82v-6.74h-2.82zm12.78-14.82v17.28h-1.88v-8.64h-2.26v8.44h-1.88v-17h1.88v6.86h2.26v-6.92zm17.68.36v7.52h-14.66v-7.52h1.88v2.18h10.9v-2.18zm-6.3 13.56h-1.88v-2.64h-7.42v-1.7H313v1.7h-7.24zm6.5 1.48v1.68h-14.86v-4.5h1.88v2.82zm-13-9.16h10.9v-2.06h-10.9zm22.58 3.16v3.76a3.57 3.57 0 01-7.14 0v-3.74a3.57 3.57 0 017.14 0zm-1.83 3.78v-3.76c0-1.14-.56-1.88-1.7-1.88s-1.68.74-1.68 1.88v3.76c0 1.12.56 1.86 1.68 1.86s1.7-.74 1.7-1.86zm9.4-13.16v17.28h-1.88v-8.64h-2.26v8.44h-1.88v-17h1.88v6.86h2.26v-6.94zm-7.12 2.06V113h-7.92v-1.7h3v-2.64h1.88v2.64zM342 118.6h-4.52c-3.2 0-5.46-1.88-5.46-4.7s2.26-4.7 5.46-4.7H342c3.18 0 5.44 1.88 5.44 4.7s-2.27 4.7-5.44 4.7zm-4.52-1.7H342c2.06 0 3.46-1.22 3.46-3s-1.4-3-3.46-3h-4.52c-2.06 0-3.48 1.22-3.48 3s1.41 3 3.47 3zM348 124v1.7h-16.55V124h3.76v-4.3h1.88v4.3h5.26v-4.3h1.88v4.3zm3.62 1.52h-2.26v-2.22h2.26z"/><path id="패스_11217" data-name="패스 11217" class="cls-3" d="M144.09 160.92v-9.72H146v9.72zm-9.4-9.72h1.88a12.5 12.5 0 01-.32 2.92 14 14 0 005.06 4.74l-1.16 1.44a17.24 17.24 0 01-4.58-4.1 10.4 10.4 0 01-3.8 4.6l-1.44-1.28a9.29 9.29 0 004.36-8.32zm-2.82 17.08v-6.56H146v6.56zm12.22-1.66v-3.24h-10.34v3.24zm19.76 0v1.66H149v-4.42h12.78v-1.08H149v-1.66h14.66v4.4h-12.79v1.1zm-15.8-8.28h16.54V160h-16.54zm15.6-6.78v1.68H149v-1.68zm-10 4h5l.46-1.84H161l-.46 1.84h3.28v1.62h-15v-1.62h3v-1.84h1.88zm12.8 8v-2.44a4.42 4.42 0 018.84 0v2.44a4.42 4.42 0 01-8.84 0zm14.1-3.82v8.7h-1.88V151.2h1.88v6.9H183v1.68zm-12.22 1.38v2.44a2.54 2.54 0 005.08.14v-2.58a2.54 2.54 0 10-5.08-.2zm7.52-6.2h-10v-1.7h4v-2.64h1.88v2.64h4.08zm18.44 12.76h-10.48v-16.12h9.4v1.7h-7.52V166h8.64zm3.76-7.94v8.7h-1.88V151.2h1.88v6.9h2.44v1.68zm2.46.06h16.54v1.7h-16.5zm15.8 6.76v1.68h-14.82V163h1.88v3.56zm-14.86-9.06v-6.16h1.88v4.52h13v1.64zm22.24 3.82l-1.48-1.2a8.51 8.51 0 004.3-6.9H223v-1.7h9.18v1.7h-3.76a12 12 0 01-.26 1.8 13.46 13.46 0 004.9 4.4l-1.22 1.4a15.8 15.8 0 01-4.4-3.78 10.42 10.42 0 01-3.72 4.28zm16-6V157h-2.44v4.64h-1.88V151.2h1.88v4.12zm-6.38 13.34h-5.84c-2.82 0-4.32-1.42-4.32-3.28s1.5-3.28 4.32-3.28h5.84c2.82 0 4.32 1.4 4.32 3.28s-1.46 3.28-4.28 3.28zm-5.8-1.66h5.84c1.5 0 2.34-.6 2.34-1.62s-.84-1.62-2.34-1.62h-5.84c-1.5 0-2.34.6-2.34 1.62s.83 1.62 2.34 1.62zm13.72-5.64l-1.48-1.2a8.51 8.51 0 004.3-6.9h-3.54v-1.7h9.18v1.7h-3.76a12 12 0 01-.26 1.8 13.46 13.46 0 004.9 4.4l-1.22 1.4a15.8 15.8 0 01-4.4-3.78 10.42 10.42 0 01-3.72 4.28zm13.94.74v6.18h-14.1v-6.18zM243 166.62h10.34v-2.86H243zm10.34-15.42h1.88v10.28h-1.88v-4.64h-3.94v-1.7h3.94zm19.76 15.4v1.68h-14.91v-4.5h1.88v2.82zm-15.8-6.2h16.54v1.7h-16.59zm11.1-1.68h-5.64c-3 0-4.7-1.32-4.7-3.76 0-2.26 1.68-3.76 4.7-3.76h5.64c3 0 4.7 1.5 4.7 3.76-.05 2.44-1.75 3.76-4.75 3.76zm-5.64-1.7h5.64c1.88 0 2.62-.84 2.62-2.06s-.74-2.08-2.62-2.08h-5.64c-1.7 0-2.64.86-2.64 2.08s.71 2.04 2.59 2.04zm31.66-5.82v9.72h-1.88v-9.72zm-13.84 17.08l-1.4-1.26a7.71 7.71 0 004.48-5.82l1.78.26a7.61 7.61 0 01-.52 2.1 9.67 9.67 0 002.58 2.6 7.58 7.58 0 002.72-5l1.8.26a6.54 6.54 0 01-.52 2.22 15.77 15.77 0 004.14 3.06l-1.08 1.46a19.73 19.73 0 01-3.88-2.92 10.23 10.23 0 01-3.1 3.08 13.12 13.12 0 01-3.58-3.12 9.61 9.61 0 01-3.44 3.08zm.68-12.66a2.73 2.73 0 102.74-2.73 2.74 2.74 0 00-2.74 2.73zm-1.88 0a4.61 4.61 0 114.4 4.4 4.62 4.62 0 01-4.45-4.4zm17.88-2.36v-1.7h9.18v1.7h-3.92a33 33 0 01-.42 4.86 19 19 0 005.38 8.44l-1.48 1.16a21.35 21.35 0 01-4.62-6.58 21.1 21.1 0 01-3.24 6.82l-1.7-.88c3-4.1 4.06-8.62 4.14-13.82zM310 151.2h1.88v17.28H310zm21.44 5.18v1.7H329v6.18h-1.88V151.2H329v5.18zm-2.06 10.22v1.68h-14.29v-5.44H317v3.76zm-5.82-15v9.22h-8.84v-9.22zm-7 7.52h5.08v-5.82h-5.08zm14.7 10.34l-.56-.76a2.47 2.47 0 001.12-2.44v-.92H334v.92a3.19 3.19 0 01-2.71 3.16z"/><path id="패스_11216" data-name="패스 11216" class="cls-3" d="M87 185.94v2.52h-2.26V194h-2.66v-12.8h2.66v4.74zM85.1 196v2.42H70.54v-5.72h2.64v3.3zm-4.5-7.24V191H70.16v-9.48h9.4v2.28h-6.74v5zm12.92-5a10.66 10.66 0 01-.26 1.48 12.75 12.75 0 004.54 3.9L96.22 191a14.81 14.81 0 01-4-3.26 10.23 10.23 0 01-3.44 3.66l-1.92-1.66a8 8 0 004-6h-3.2v-2.26h9.28v2.26zm9.08 8.24v6.42H88.22V192zm-11.72 4.22H100v-2h-9.12zm11.72-15v10.24H100v-4.28h-3.4v-2.28h3.4v-3.7zM120.38 196v2.34h-15v-4.84H108v2.5zm-15.88-6H121v2.3h-16.5zm11.18-1.24h-5.82c-3 0-4.7-1.44-4.7-3.78 0-2.18 1.7-3.8 4.7-3.8h5.82c3 0 4.7 1.62 4.7 3.8 0 2.36-1.68 3.8-4.7 3.8zm-5.8-2.22h5.78c1.32 0 2-.64 2-1.56s-.64-1.56-2-1.56h-5.78c-1.22 0-2 .64-2 1.56s.68 1.58 2 1.58zm31.92-5.36v17.28h-2.64v-8.24h-1.88v8h-2.62v-17h2.62v6.54h1.88v-6.56zm-14.94 16.52v-16.22h2.66v13.82h4.08v2.42zm17.6-16.24h8.36v4.18a13.33 13.33 0 01-7.4 12.08l-1.82-1.92c4.22-2.06 6.56-5.68 6.56-9.8v-2.1h-5.7zm14.48 8.76v8.24h-2.66V181.2h2.66v6.5h2.24v2.54zm22.06-9v12.3h-2.54v-5.82h-1.64v5.54h-2.48v-11.96h2.48v4.08h1.64v-4.16zm.28 14.76v2.42h-14.66v-5.54h2.66V196zm-7.94-7.3v2.4h-7.28v-9.58h2.64v7.18zm29.46 1.84h-2.66v-6.58h-12.2v-2.44h14.86zm.84 1.12v2.46h-6.86v4.58H194v-4.58h-6.9v-2.46zm1.8-3.92v-6.22h14.86v2.16h-12.2v1.9h12.3v2.16h-6.26v1.66h7v2.18H204.6v-2.18h6.88v-1.68zm0 7.38v-2.2h14.86v5.76h-2.66v-3.58zm32.56-5.28v2.3h-15v-6.48h12.2v-1.88H223v-2.28h14.8v6.38h-12.2v2zm.66 5.58v2.42H222.1v-2.42h3.46v-2.68h2.66v2.68h4.32v-2.68h2.64v2.68zm1.72-13.92h8.36v4.18a13.33 13.33 0 01-7.4 12.08l-1.82-1.92c4.22-2.06 6.56-5.68 6.56-9.8v-2.12h-5.7zm14.48 8.76v8.24h-2.66V181.2h2.66v6.5h2.24v2.54zM276.9 196v2.42h-14.56v-5.5H265V196zm1.88-10v2.52h-2.24v5.62h-2.66V181.2h2.66v4.8zm-7.58-4.48v9.88H262v-9.88h2.54v2.78h4.18v-2.78zm-6.7 7.66h4.18v-2.68h-4.18zm17.8-.34h12.38v2.46h-15v-9.78h14.82v2.44h-12.2zm13 6.58v2.44h-16.5v-2.44zm3.12 2.58l-2.42-1.2c2.56-4.6 3.36-10 3.36-15.42H302a47.1 47.1 0 01-.34 5.82 20.17 20.17 0 005.1 8.92l-2 1.7a19.67 19.67 0 01-4-6 25.9 25.9 0 01-2.3 6.18zm13.48-16.8v17.28h-2.64V181.2zm21.7 0v17.28H331v-8.24h-1.88v8h-2.62v-17h2.62v6.54H331v-6.58zm-14.94 16.52v-16.24h2.66v13.82h4.08v2.42zm17.6-16.24h8.36v4.18a13.33 13.33 0 01-7.4 12.08l-1.82-1.92c4.22-2.06 6.56-5.68 6.56-9.8v-2.12h-5.7zm14.48 8.76v8.24h-2.66V181.2h2.66v6.5H353v2.54zm22.26-2.62h-15v-6.14h14.9v2.12h-12.2v1.9H373zm-15.8 1.26h16.54V191H357.2zm3.5 7.4h12.38v2.1H358v-6h14.9v2.1h-12.2zm14-6.78h16.54v2.36H374.7zm15.88 6.5v2.42h-15v-5.32h2.66v2.9zm-15-8.2v-6.48h2.66v4.14h12.34v2.34zM80.65 222.66v-6.1c0-3.42 1.88-5.28 4.72-5.28s4.76 1.86 4.76 5.28v6.1c0 3.4-1.88 5.24-4.76 5.24s-4.72-1.84-4.72-5.24zm2.54-6.1v6.1c0 1.94.78 2.84 2.18 2.84s2.2-.9 2.2-2.84v-6.1c0-1.92-.78-2.84-2.2-2.84s-2.18.92-2.18 2.84zm12.22 3.68v8.24h-2.66V211.2h2.66v6.5h2.24v2.54zm12.8 7.48h-9.88v-16.24h8.9v2.42H101v4.1h6.24v2.42H101v4.86h7.22zm5.06-16.52v17.28h-2.64V211.2zm18.44 14.18v2.44h-16.54v-2.44zm-15-3.88l-1.62-2.06a10.84 10.84 0 007.32-8.34l2.76.46a10.89 10.89 0 01-.8 2.68 14.67 14.67 0 007.46 4.52l-1.44 2.14a15.93 15.93 0 01-7.32-4.36 13.83 13.83 0 01-6.38 4.96zm19.48-7.7v2.2h12.2v2.28h-12.2v2.3h12.38v2.32h-15v-11.42h14.86v2.32zm13 11.6v2.42h-16.52v-2.42zm16.56 3.08h-2.52V211.2h2.52zm-12.62-13.38v9.12c0 .94.44 1.38 1.12 1.38s1.12-.44 1.12-1.38v-9.12c0-.94-.42-1.38-1.12-1.38s-1.12.44-1.12 1.38zm-2.48 9.12v-9.12c0-2.62 1.62-3.82 3.6-3.82a3.45 3.45 0 013.65 3.26 2.63 2.63 0 010 .56v2.7h1.52v-6.52h2.5v17h-2.5v-8.06h-1.52v4a3.62 3.62 0 11-7.24.29zm17.68-12.74h6.26v4.74c0 .54 0 1.06-.06 1.58h2v-6.52h2.58v17h-2.58v-8.06h-2.36a13.3 13.3 0 01-4.46 7.58l-2.18-1.5a12 12 0 004.42-9.82v-2.58h-3.64zm14.94 17h-2.64V211.2h2.64zm11.58-17V221h-9v-9.48zm-6.48 7.28h3.94v-5h-3.94zm12.4 7.2v2.42h-14.56v-5.68h2.64v3.3zm1.88-10v2.52h-2.24V224h-2.66v-12.8h2.66v4.74zm5-4.46H216v4.18a13.33 13.33 0 01-7.4 12.08l-1.82-1.92c4.22-2.06 6.56-5.68 6.56-9.8v-2.14h-5.7zm14.48 8.76v8.24h-2.66v-17.3h2.66v6.5h2.24v2.54zm2.92-8.76h9.6v2.42h-3.78a31.21 31.21 0 01-.36 4.32 19.49 19.49 0 005.14 7.92l-2 1.68a21.8 21.8 0 01-4-5.64 20.1 20.1 0 01-2.94 5.78l-2.36-1.28c2.74-3.74 3.86-7.64 3.94-12.78H225zm14.95-.3v17.28h-2.64V211.2zm18.68 8.42v-8.42h2.66v3.14h2.24v2.5h-2.24v2.78zm-11.54 8.76v-7.5h2.64V226H253v2.38zm11.42-2.8h-2c-.44 0-.76.18-.76.52s.32.54.76.54h2c.44 0 .76-.2.76-.54s-.32-.52-.79-.52zm-2-1.92h2.08c1.8 0 3 .94 3 2.44s-1.24 2.46-3 2.46h-2.08c-1.78 0-3-.94-3-2.46s1.15-2.44 2.93-2.44zm-7.6-8.14a2 2 0 001.89 2.08h.15a2.08 2.08 0 10.13-4.16H251a2 2 0 00-2.1 1.87zm-2.62 0c0-2.48 2-4.32 4.72-4.32s4.76 1.84 4.76 4.32-2 4.32-4.76 4.32-4.79-1.84-4.79-4.32zm9.92 5.58v-1.36h2.64v1.36h3.1v2h-8.82v-2zM268 215h7.52c.7 0 1.22-.32 1.22-.88s-.52-.84-1.22-.84H268c-.7 0-1.14.3-1.14.84s.44.88 1.14.88zm0-3.76h7.52c2.36 0 3.94 1 3.94 2.88s-1.58 2.9-3.94 2.9H268c-2.38 0-3.76-1-3.76-2.9s1.37-2.92 3.76-2.92zm11.46 15.2v2h-15v-4.94h12.2v-.88h-12.2v-2h14.86v4.84h-12.2v.92zm-15.88-8.66h16.54v2h-16.55zm22.9 1.44l-1.3-2.16a9.29 9.29 0 007.4-5.92l2.74.56a10 10 0 01-.6 1.48 14.8 14.8 0 007.2 3.34c-.42.72-.82 1.48-1.22 2.22a16.79 16.79 0 01-7.36-3.52 12.17 12.17 0 01-6.86 4zm15.34 1.88v2.44H295v5.16h-2.82v-5.2h-6.86v-2.44zm20.76-9.86v9.72h-2.64v-9.76zm-13.74 17.18l-1.84-1.78a7 7 0 004.22-5.44l2.52.36a6.75 6.75 0 01-.48 2 6.83 6.83 0 002.16 2.12 6.87 6.87 0 002.36-4.46l2.54.36a7.17 7.17 0 01-.5 2 14.22 14.22 0 003.94 2.76l-1.46 1.94a17.53 17.53 0 01-3.64-2.58 9.26 9.26 0 01-3.16 2.74 10.63 10.63 0 01-3.4-2.82 9.25 9.25 0 01-3.22 2.74zm1-12.68a2.21 2.21 0 102.2-2.26 2.14 2.14 0 00-2.2 2.08zm-2.62 0a4.85 4.85 0 115.17 4.51H312a4.51 4.51 0 01-4.81-4.2c-.02-.14-.02-.24-.02-.35zm28.3 12h-10.39v-16.26h9.36v2.42h-6.7v11.42h7.68zm4.24-7.48v8.24h-2.66v-17.3h2.66v6.5H342v2.54zm2.26-.74h16.54v2.36H342zm15.83 6.48v2.42h-15v-5.32h2.66v2.9zm-15-8.2v-6.48h2.66v4.14h12.34v2.34zm27.38-4a10.66 10.66 0 01-.26 1.48 12.75 12.75 0 004.54 3.9l-1.62 1.82a14.81 14.81 0 01-4-3.26 10.23 10.23 0 01-3.44 3.66l-1.92-1.66a8 8 0 004-6h-3.26v-2.26h9.28v2.26zm9.08 8.22v6.42h-14.42V222zm-11.72 4.22h9.08v-2h-9.08zm11.72-15v10.24h-2.64v-4.28h-3.36v-2.28h3.36v-3.72zm2.38-.28h2.64V223h-2.64zm2.84 17.26h-3v-3h3z"/></g><path fill="none" d="M0 0h460v234H0z"/></g></g></svg>