<svg xmlns="http://www.w3.org/2000/svg" width="240" height="78"><defs><style>.cls-1{fill:#666}</style></defs><g id="Layer_2" data-name="Layer 2"><g id="Layer_1-2" data-name="Layer 1"><g id="_8_txt05" data-name="8 txt05"><path id="패스_11460" data-name="패스 11460" d="M44.61 38.24l1-5.84h4.19l-4 17.8h-4.14l-3.95-17.8h4.14l1 5.84.87 6.83zm10.21 11.87h-3.93V32.4h3.93zm1.93 0V32.4h5.64c3.45 0 5.17 1.93 5.17 4.69A4.18 4.18 0 0165.49 41c1.64.78 2.39 2.07 2.39 4.23 0 2.93-1.93 4.86-5.17 4.86zm3.94-3.66H62c1.4 0 2-.71 2-1.84s-.71-1.72-2-1.72h-1.31zm1.24-10.38h-1.24v3.13h1.17a1.56 1.56 0 001.76-1.31 1.71 1.71 0 000-.32c.01-1.01-.62-1.5-1.69-1.5zM69 32.39h9.52v3.68h-5.58v3h5v3.68h-5v3.68h6v3.66H69zM90.75 50.1h-3.94v-14h-1.49v-3.71h5.43zM94.27 32h7.56v6.28c0 4.92-1.52 9.47-5.38 12.67l-3-2.23a12.42 12.42 0 004.49-10v-3h-3.67zm17.52-.21v19.84h-3.93v-9h-1.06v8.77h-3.86V31.85h3.86V39h1.06v-7.25zm3.84 14v-2.44h16.86v5.29h-13v.55h13.41v2.44h-17.3v-5.34h13v-.53zm3.45-14h3.25c2.71 0 4.32 1.15 4.32 3s-1.61 2.92-4.32 2.92h-3.25c-2.73 0-4.32-1.13-4.32-2.92s1.59-3.04 4.32-3.04zm3.25 2.49h-3.25c-.41 0-.64.14-.64.46s.23.43.64.43h3.25c.41 0 .64-.13.64-.43s-.23-.5-.64-.5zm-8 6.25V38h12.9v2.46h-5.39V43h-3.93v-2.51zM124.58 43v-2.25h4v-9h3.93V43zm34-11.22v19.85h-3.94V31.75zm-6.49 5.82v7.57c0 3.66-2.16 5.82-5.63 5.82s-5.62-2.16-5.62-5.82v-7.6c0-3.65 2.17-5.81 5.62-5.81s5.65 2.16 5.65 5.81zm-3.72 7.57v-7.6c0-1.4-.72-2.18-1.91-2.18s-1.89.78-1.89 2.18v7.57c0 1.43.71 2.21 1.89 2.21s1.93-.78 1.93-2.21zm31.11 2.92c0 2.37-1.93 3.77-5 3.77h-7.78c-3 0-5-1.4-5-3.77s2-3.77 5-3.77h7.78c3.09-.03 5.02 1.37 5.02 3.74zm-4 0c0-.53-.48-.83-1.24-.83H167c-.76 0-1.27.3-1.27.83s.51.83 1.27.83h7.22c.78-.03 1.28-.33 1.28-.86zm-2.9-8.74h-3.93v1.15h3.93zm-7.82-.21a3.44 3.44 0 01-3-3.58c0-2.28 1.75-3.78 5-3.78h7.78c3.24 0 5 1.5 5 3.78a3.4 3.4 0 01-3 3.58v1.36h3.66v3h-19v-3h3.65zm2-2.85h7.71c.64 0 1-.23 1-.73s-.39-.74-1-.74h-7.71c-.64 0-1 .25-1 .74s.39.73 1 .73zM200 31.75v14.93h-3.94v-1.24h-4.27v-2.88h4.27V31.75zM193.76 38h-3.88v-2.61h-7.41V32h11.29zm6.67 10v3.57h-17.3v-6.02h3.94v2.51zm-11.52-3H185v-3.1h-3.2v-3.2H195v3.2h-6.05z"/><path id="패스_11459" data-name="패스 11459" class="cls-1" d="M31.38 14.68H23V1.75h7.52v1.36h-6v10.21h6.91zm3-6.36v7h-1.5V1.46h1.5V7h2v1.32zm4.68-6.72h1.5a32.58 32.58 0 01-.3 4.64 16.09 16.09 0 004.13 7.41l-1.1 1a16.63 16.63 0 01-3.53-5.59 21.43 21.43 0 01-2.2 5.78l-1.34-.7A25.43 25.43 0 0039.06 1.6zm8.13-.14h1.5v13.82h-1.5zm14.21 6c0 1.72-1.44 3-3.47 3s-3.45-1.28-3.45-3 1.42-3 3.45-3 3.47 1.29 3.47 3.02zm4.66 6.3v1.34H54.63v-4h1.5v2.7zm1.64-8v1.35h-2v4.94h-1.5V1.46h1.5v4.3zm-5.55-3.32v1.32h-8.27V2.44h3.3V1h1.5v1.44zm-2.25 5a1.77 1.77 0 00-1.75-1.74h-.22A1.73 1.73 0 0056 7.24a1 1 0 000 .24 1.72 1.72 0 001.7 1.74h.25a1.73 1.73 0 002-1.49 2 2 0 00-.05-.25zm15.2-5.69v7.76h-6.77V1.75h1.5v2.5h3.76v-2.5zm5.26 12v1.34H68.78v-4.16h1.5v2.85zm-.3-12.32v10.48h-1.5V6.26h-2.7V4.92h2.7V1.46zM69.83 8.15h3.76V5.59h-3.76zM97.42 14v1.32H86v-3.8h9.6v-1.23H86V9h11.11v3.79h-9.62V14zm1.64-9.65v1.32h-2v2.61h-1.5V1.46h1.5v2.85zm-6.3-2.56v6h-7.07v-6zm-5.57 4.63h4.07V3.09h-4.07zm12.64 5v-2a3.24 3.24 0 013-3.46h.51a3.25 3.25 0 013.53 3 2.9 2.9 0 010 .51v2a3.25 3.25 0 01-3 3.45 4 4 0 01-.49 0 3.25 3.25 0 01-3.53-2.94 2.79 2.79 0 01-.02-.6zm11.28-3.06v7h-1.5V1.46h1.5V7h2v1.32zm-9.77 1.1v2a2.05 2.05 0 004.07.42 2 2 0 000-.42v-2a1.89 1.89 0 00-1.63-2.11 1.78 1.78 0 00-.4 0 1.88 1.88 0 00-2 1.71 1.8 1.8 0 000 .4zm6-5h-8V3.1h3.2V1h1.5v2.11h3.27zm6.34-1.36V1.74H121V3.1h-3.1a26.78 26.78 0 01-.34 3.9 15.3 15.3 0 004.3 6.75l-1.13.93A17.16 17.16 0 01117 9.41a16.83 16.83 0 01-2.59 5.46l-1.36-.7c2.43-3.28 3.25-6.9 3.31-11.06zm10.22-1.64h1.5v13.82h-1.5zm17.16 4.14V7h-1.95v4.9h-1.51V1.46h1.5V5.6zm-1.64 8.18v1.34H128v-4.35h1.5v3zm-4.66-12v7.34h-7.07V1.75zm-5.57 6h4.07V3.11h-4.07zM155 10V1.46h1.5V5h1.95v1.34h-1.95V10zm-5.92-6.88V1.75h4.33v4.81h-1.5V3.11zm-4.16 0V1.75h3.61v4.81H147V3.11zm3.91 7.37h4.36c2.19 0 3.61.9 3.61 2.48s-1.42 2.47-3.61 2.47h-4.39c-2.19 0-3.61-.9-3.61-2.47s1.43-2.49 3.61-2.49zm4.36 1.32h-4.39c-1.2 0-2 .42-2 1.17s.83 1.13 2 1.13h4.36c1.21 0 2-.4 2-1.14s-.78-1.17-2-1.17zm-8.72-2.56V7.89h4.9V5.06h1.5v2.83h3.38v1.35zm26.64 4.54v1.34h-11.92v-3.6h1.5v2.26zm-12.64-5h13.23v1.36h-13.26zm8.88-1.34h-4.55c-2.41 0-3.76-1.06-3.76-3s1.35-3 3.76-3h4.52c2.4 0 3.76 1.2 3.76 3s-1.36 3.03-3.76 3.03zm-4.55-1.33h4.52c1.5 0 2.1-.68 2.1-1.65s-.6-1.67-2.1-1.67h-4.52c-1.36 0-2.11.69-2.11 1.67s.61 1.65 2.11 1.65zM177.6 5a2.07 2.07 0 002 2.17h.14a2.08 2.08 0 002.1-2V5a2.08 2.08 0 00-2-2.19h-.14a2.08 2.08 0 00-2.12 2zm-1.5 0a3.49 3.49 0 013.42-3.54h.2a3.48 3.48 0 013.6 3.35V5a3.47 3.47 0 01-3.42 3.52h-.18a3.47 3.47 0 01-3.61-3.33 1.21 1.21 0 01-.01-.19zm8.9 4.51l1.41.15a6.51 6.51 0 01-.3 1.63 9.19 9.19 0 003.05 2.63l-.93 1.14a12 12 0 01-2.75-2.38 6.87 6.87 0 01-2.35 2.44l-.66-.59v.59h-5.56V9.57h1.53V11h2.53V9.57h1.5v4.26A5.63 5.63 0 00185 9.51zm-4 2.77h-2.56v1.55H181zm5.71-10.82h1.5v7.47h-1.5V5.67h-2.7V4.31h2.7zm3.62 9V6c0-2.86 1.44-4.37 3.61-4.37s3.62 1.5 3.62 4.37v4.51c0 2.84-1.44 4.34-3.62 4.34s-3.69-1.53-3.69-4.37zM191.75 6v4.51c0 2.1.75 3 2.11 3s2.11-.9 2.11-3V6c0-2.11-.75-3-2.11-3s-2.11.9-2.11 3zm8.88 2.4h-2.56V7h2.56V1.46h1.5v13.82h-1.5zm11.6.61h-3.61c-2.56 0-4.37-1.5-4.37-3.76s1.81-3.76 4.37-3.76h3.61c2.55 0 4.35 1.5 4.35 3.76S214.78 9 212.23 9zm-3.61-1.36h3.61A2.48 2.48 0 00215 5.46a1.93 1.93 0 000-.24 2.47 2.47 0 00-2.51-2.44h-3.87A2.49 2.49 0 00205.85 5a1.94 1.94 0 000 .24 2.5 2.5 0 002.56 2.42zm8.41 5.7v1.36H203.8v-1.39h3V9.88h1.5v3.44h4.21V9.88H214v3.44z"/><path id="패스_11458" data-name="패스 11458" class="cls-1" d="M95.62 77h-9.24v-4.88h9.24zm-10.84-9.92V65.6h7.52v1.48h-2.72c.29 1.37 1.31 2.31 3.06 2.81l-.93 1.46a6.68 6.68 0 01-1.83-1 4.29 4.29 0 01-1.32-1.55 4.81 4.81 0 01-1.33 1.77 5.48 5.48 0 01-2 1.16c-.23-.32-.57-.8-1-1.44q2.91-1 3.32-3.2zm12.87 1h-2v3.32h-1.89v-8.52h1.86v3.7h2zm-3.9 7.37v-1.91h-5.49v1.95zM86.48 64.8v-1.45h4.15v1.45zm19.25 7.08l.06-1.6h2v-3h-2l-.06-1.58h2.11v-2.82h1.87v14.26h-1.87v-5.26zM98 69a6.38 6.38 0 011-3.7 3.29 3.29 0 015.39 0 6.3 6.3 0 011 3.7 6.37 6.37 0 01-1 3.68 3.29 3.29 0 01-5.39 0A6.28 6.28 0 0198 69zm5.56 0a5.68 5.68 0 00-.52-2.63 1.57 1.57 0 00-1.37-1 1.53 1.53 0 00-1.33 1 5.68 5.68 0 00-.51 2.63 5.51 5.51 0 00.51 2.62 1.52 1.52 0 001.32 1 1.57 1.57 0 001.37-1 5.4 5.4 0 00.52-2.62zM120 72.47l-1 1.36a7.32 7.32 0 01-2.07-1.68A6.4 6.4 0 01115.5 70a6.19 6.19 0 01-1.25 2.36 6.42 6.42 0 01-2.2 1.81l-1.15-1.39a6.83 6.83 0 003.61-6.48v-.38h-2.88v-1.58h7.6v1.54h-2.78v.36a6.57 6.57 0 003.55 6.23zm2.54-9.59v5.5h2v1.55h-2v7.21h-1.87V62.88zm6.59 2.68V64h7.52v1.54h-2.73a4.3 4.3 0 00.93 2.71 4.56 4.56 0 002.24 1.57l-1 1.48a5.81 5.81 0 01-1.75-1.14A5.49 5.49 0 01133 68.4a4.88 4.88 0 01-1.28 2 5.62 5.62 0 01-2 1.32l-1.1-1.48a5.37 5.37 0 002.5-1.8 4.62 4.62 0 00.88-2.84zm11.3 7.66h-1.87v-5h-2.15v-1.5h2.15v-3.8h1.87zm.3 3.54h-9.84v-4.5h1.89v3h7.95zm8.45-12.68a2.3 2.3 0 011 1.9 2.24 2.24 0 01-1 1.89 4.18 4.18 0 01-2.57.74 4.42 4.42 0 01-2.59-.74A2.26 2.26 0 01143 66a2.21 2.21 0 011-1.88 4.34 4.34 0 012.59-.75 4.18 4.18 0 012.56.71zm.34 8.39v-1.35h2.71v-8.24h1.88v11h-1.91v-1.41zm4.81 4.29h-10.49v-4.21h1.87v2.72h8.59zm-6.25-3.54h-1.86v-2.54c-1.32 0-2.64.06-3.95.06-.13-.77-.21-1.26-.26-1.47a76.63 76.63 0 009.09-.43l.11 1.37c-.79.13-1.83.24-3.13.34zm-.22-6.38a1 1 0 00.47-.85 1.1 1.1 0 00-.48-.88 1.88 1.88 0 00-1.23-.39 1.94 1.94 0 00-1.25.39 1.11 1.11 0 00-.48.88 1.06 1.06 0 00.48.85 1.93 1.93 0 001.25.36 2 2 0 001.21-.36z"/></g><path fill="none" d="M0 0h240v78H0z"/></g></g></svg>