<svg xmlns="http://www.w3.org/2000/svg" width="375" height="66"><g data-name="Layer 2"><g data-name="Layer 1"><g data-name="9 tit"><g data-name="그룹 4671"><path data-name="패스 11528" d="M60.1 23.12v-.7h17.08v-7.56H53.1v3.56h17.08v.73H53.1v7.53h24.08v-3.56zm-7-21.92v8h24.08V5.79H59.54V4.62h17.64V1.2zm-.84 8.8v4H78v-4zM86.7 23.12v-.7h17.08v-7.56H79.7v3.56h17.08v.73H79.7v7.53h24.08v-3.56zm17.36-18.2c0-2.63-2.49-4.42-12.32-4.42S79.42 2.29 79.42 4.92s2.49 4.42 12.32 4.42 12.32-1.78 12.32-4.42zM78.86 10v4h25.76v-4zm19-5.12c0 .53-.31.87-6.16.87s-6.16-.34-6.16-.87.31-.87 6.16-.87 6.2.38 6.2.91zm20.41 3.25l4.82 8.15h7.81l-6.27-9.8h-5.35l3.36-5.6h-7.42l-9.52 15.4h7.7zm-12.85 9.27V23h9.66v4h6.44v-4h9.66v-5.6zm45.12-12.87v.84H132.9v7.23h8.82v.84h-9.66v4.25h25.76v-4.25h-9.66v-.84H157V9.26h-17.66v-.84H157V1.2h-24.1v3.33zm0 18.12v4H157v-8.12h-24.1v4.12zm14.59-7.45c0 7.92 2.3 11.2 8.26 11.2s8.26-3.28 8.26-11.2v-2.8c0-7.92-2.3-11.2-8.26-11.2s-8.26 3.28-8.26 11.2zm24.33-5.46V.64H183v25.48h6.44V15.9h2.24V9.74zm-14 5.18c0 5.1-.56 6.16-2.1 6.16s-2.1-1.06-2.1-6.16v-2.24c0-5.1.56-6.16 2.1-6.16s2.1 1.06 2.1 6.16zm16.24-6.44v17.64l16.52-2v-5.6l-10.08 1.2v-5.64h10.08v-5.6zM217.18.64h-6.44v25.48h6.44zm-25.48.84v5.6h16.52v-5.6zm39.51 6.86l5.26 9.38h7.81l-6.77-11.2h-5.24l3.25-5.6h-7.42l-10 16.8h7.7zM218.3 20.52v5.6h25.76v-5.6zm33.88-7.14v-1.54h17.36V7.5h-23.8v10.64h24.08v-4.76zm-7.28 7.14v5.6h25.76v-5.6zm.84-19.32V6h24.08V1.2zm45.08-.56h-5V10H284c-.33-6.38-2.32-8.82-6.38-8.82-4.48 0-6.44 3-6.44 10.92v3.36c0 8 2 10.92 6.44 10.92s6.41-2.94 6.44-10.78h1.68v10.5h5zm6.16 0h-5v25.48h5zm-17.92 14.28c0 5-.28 6.16-1.4 6.16s-1.4-1.18-1.4-6.16v-2.24c0-5 .28-6.16 1.4-6.16s1.4 1.18 1.4 6.16zM317.42.64h-5V10h-1.71V1.5h-12.89v5.6h7c0 3.44-.11 6.47-.34 9.52a82.59 82.59 0 01-1.34 9.52H309a83.09 83.09 0 001.37-9.8c0-.23 0-.47.06-.7h1.93v10.5h5zm6.16 0h-5v25.48h5z"/><path data-name="패스 11527" d="M24.28 56v9h25.48v-9zm8.26-11.2c-5.94 0-8.54 1.65-8.54 5s2.6 5 8.54 5 8.54-1.6 8.54-5-2.6-5-8.54-5zm17.22-6.16h-6.44v16.24h6.44zm-14 1.12v-2h-6.44v2h-5v4.48H40.8v-4.48zm-5.32 20H43.6v1.4H30.44zM32.54 49c2.32 0 2.94.17 2.94.84s-.62.84-2.94.84-2.94-.17-2.94-.84.62-.84 2.94-.84zm43.82-10.36h-6.44v25.48h6.44zM50.91 53.2c0 7.92 2.3 11.2 8.26 11.2s8.26-3.28 8.26-11.2v-2.8c0-7.92-2.3-11.2-8.26-11.2s-8.26 3.28-8.26 11.2zm10.36-.28c0 5.1-.56 6.16-2.1 6.16s-2.1-1.06-2.1-6.16v-2.24c0-5.1.56-6.16 2.1-6.16s2.1 1.06 2.1 6.16zm16.21-13.44v15.4h17.08v-5.32H83.92V44.8h10.64v-5.32zm25.52-.84h-6.48v25.48H103zM83 58.52h-6v5.6h18.2v-5.6h-6V56h-6.26zm28.36-13.72v-5.6h-6.44v9.94H129V44.8zm0 15.54v-4.48h-6.44v8.82H129v-4.34zm-7.28-10.08v4.48h25.76v-4.48z"/><path data-name="패스 11526" d="M160.2 43.26H157l.7-3.78H152l-.7 3.78h-3.59l.7-3.78h-5.68l-.7 3.78h-3.67l-1 5.49H141l-1 5.82h-3.67l-1 5.49H139l-.7 3.78h5.68l.7-3.78h3.59l-.7 3.78h5.68l.7-3.78h3.22l1-5.49h-3.22l1.05-5.82h3.22zm-13.5 5.49h3.58l-1.06 5.82h-3.58zM186 38.64h-5.18V48h-1.4v-9.36h-5.22v25.48h5.18v-10.5h1.4v10.5H186zm-19.88 19V39.48h-5.92v24.64l12.88-2v-5.6zm28.28-12.68V43.4H212v-4.2h-24.08v9.94h8.82v1.12h-9.66v4.48h25.76v-4.48h-9.66v-1.12H212v-4.2zm0 15.4v-4.5h-6.44v8.82H212v-4.34zm44.8-21.7H234V48h-1.4v-9.36h-5.2v25.48h5.18v-10.5H234v10.5h5.18zm-19.88 19V39.48h-5.92v24.64l12.88-2v-5.6zm21.84-2.32v9.38h24.04v-4.18h-17.64v-1h17.64V55.3zm6.44-10.78v-1.3h17.6V39.2h-24.08v9.38h24.08v-4.06zm-7.28 5.18v4.48H266V49.7zm33 14.42l16.52-2V39.48h-6.16v7h-4.2v-7h-6.16zm24.36-16.38v-9.1h-6.44v25.44h6.44V53.9h2.24v-6.16zm-18.2 4.06h4.2v5.77l-4.2.5zm45.92-13.2H319v25.48h6.44zM300 53.2c0 7.92 2.3 11.2 8.26 11.2s8.26-3.28 8.26-11.2v-2.8c0-7.92-2.3-11.2-8.26-11.2S300 42.48 300 50.4zm10.36-.28c0 5.1-.56 6.16-2.1 6.16s-2.1-1.06-2.1-6.16v-2.24c0-5.1.56-6.16 2.1-6.16s2.1 1.06 2.1 6.16zm35-13.72v3.64h-11.84V39.2h-6.16v16.52h24.08V39.2zm-18.84 19.32v5.6h25.76v-5.6zm7-10.64h11.76v2.52h-11.76z" fill="#ff006b"/><path fill="none" d="M0 0h375v66H0z"/></g></g></g></g></svg>