<svg xmlns="http://www.w3.org/2000/svg" width="375" height="133"><defs><style>.cls-1{fill:#111}</style></defs><g id="Layer_2" data-name="Layer 2"><g id="Layer_1-2" data-name="Layer 1"><g id="_7_tit" data-name="7 tit"><path id="패스_11213" data-name="패스 11213" class="cls-1" d="M143.94 51.44c0-3-2.5-5.12-12.32-5.12s-12.32 2.15-12.32 5.12 2.49 5.12 12.32 5.12 12.32-2.15 12.32-5.12zm-7.31-16l-.53 4.48h6.44l1.12-9.38h-24.08v4.9zM132 41v-3.62h-6.4V41h-6.86v4.5h25.76V41zm5.74 10.42c0 .62-.62 1-6.16 1s-6.16-.36-6.16-1 .61-1 6.16-1 6.2.4 6.2 1.02zm9-4.95v9.8h24.36v-9.8zm14.84-1.12a35.38 35.38 0 001.68-12v-2.54h-16.52v5.6h10a35.38 35.38 0 01-1.62 9zm9.52-10.5V30h-6.44v15.4h6.44v-4.66h2.24v-5.88zm-18.2 15.69h12v1.68h-12zM200.22 30H195v5.46h-1.4V30h-5.18v16.2h5.18v-5.46h1.4v5.46h5.18zm-19.32 6.12c-4.7 0-6.72 1.82-6.72 5s2 5 6.72 5 6.72-1.82 6.72-5-2.02-5-6.72-5zm10.78 16.32l2.46 3.84h7.2L196.72 49h-2.86l1.23-2h-6.77l-5.83 9.24h6.78zm-7.84-21.36v-2H178v2h-3.5v4.48h12.88v-4.48zm3.08 16H180l-5.8 9.24h6.92zm-6-6.86c1.56 0 2.24.23 2.24 1s-.68 1-2.24 1-2.24-.22-2.24-1 .65-1.04 2.22-1.04zm21.84-9.38v24.6l16.52-2v-5.6l-10.08 1.2V36.4h10.08v-5.6zm24.36 8.26V30h-6.44v25.44h6.44V45.22h2.24v-6.16zm3.64-8.26v14.8l16.52-1.4v-1.12h2.52v4.76h6.44V30h-6.44v2.2h-2.52v-1.4zm0 16v9.52h25.48V51h-19v-4.2zm6-10.64h4.48v3.34l-4.48.36zm10.5.56h2.52v2h-2.52z"/><path id="패스_11212" data-name="패스 11212" d="M84.16 72.58h-3.22l.7-3.78H76l-.7 3.78h-3.63l.7-3.78h-5.69L66 72.58h-3.68l-1 5.49H65l-1.08 5.83h-3.67l-1 5.48h3.65l-.7 3.78h5.69l.7-3.78h3.58l-.7 3.78h5.69l.7-3.78h3.22l1-5.48h-3.22l1.07-5.83h3.22zm-13.5 5.49h3.58l-1.06 5.83h-3.59zM111.32 68h-5.18v9.38h-1.4V68h-5.18v25.44h5.18v-10.5h1.4v10.5h5.18zM91.44 87V68.8h-5.88v24.64l12.88-2v-5.6zm29.68-12.68v-1.6h17.64v-4.2h-24.08v9.94h8.82v1.12h-9.66v4.48h25.76v-4.48h-9.66v-1.12h8.82v-4.2zm0 15.4v-4.54h-6.44V94h24.08v-4.34zM167.32 68h-5.18v9.38h-1.4V68h-5.18v25.44h5.18v-10.5h1.4v10.5h5.18zm-19.88 19V68.8h-5.88v24.64l12.88-2v-5.6zm23.24-2.32V94h24.08v-4.14h-17.64v-1h17.64v-4.2zm6.44-10.78v-1.32h17.64v-4.06h-24.08v9.38h24.08v-4.06zm-7.28 5.1v4.5h25.76V79zm42.56 11.64v-.84h18.76V82H205.4v3.6h18.76v.84H205.4v7.84h25.76v-3.64zm.53-15.4l.45-1.12h4.9v-4.76h-3.5v-2.24h-5.88v2.24h-3.5v4.76h2.43l-3 7h5.69l1.56-3.8 1.16 3.8h5.6l-2.05-5.88zM231.16 68H226v4.2h-1.4V68h-5.2v13.12h5.18v-4.2H226v4.2h5.18zm2.52.84V73h10.08v1h-10.08v9.66l17.08-.84V78.6l-10.64.54V77.9h10.08v-9.1zm0 16v9.52h25.48V89h-19v-4.2zM259.16 68h-6.44v17.88h6.44zm12.37 10l.93-3.64h5.74V68.8h-16.52v5.6h4.2l-4.76 19h6.58l2.38-9.54 2.1 9.54h6.58L275.4 78zm15.63-10h-6.44v25.44h6.44z" fill="#ff006b"/><path id="패스_11211" data-name="패스 11211" class="cls-1" d="M309.06 68h-5v9.38h-1.74c-.34-6.38-2.32-8.82-6.38-8.82-4.48 0-6.44 3-6.44 10.92v3.32c0 8 2 10.92 6.44 10.92s6.41-2.94 6.44-10.78H304v10.5h5zm6.16 0h-5v25.44h5zM297.3 82.24c0 5-.28 6.16-1.4 6.16s-1.4-1.17-1.4-6.16V80c0-5 .28-6.16 1.4-6.16s1.4 1.16 1.4 6.16z"/><path id="패스_11210" data-name="패스 11210" class="cls-1" d="M113.65 122.48v9.8H138v-9.8zm9.3-8.68l.59-1.4h6.64v-5.32h-5v-2h-6.48v2h-5v5.32h3.3l-3.87 9h6.58l2.38-5.48 2.1 5.48h6.58l-2.88-7.56zm15.05-2.94V106h-6.44v15.4H138v-4.62h2.24v-5.88zm-18.2 15.68h12v1.68h-12zm21.86-6c0 7.93 2.3 11.2 8.26 11.2 4.18 0 6.56-1.62 7.62-5.32h3.14v5h6.44V106h-6.42v4.2h-3.78c-1.26-2.52-3.5-3.64-7-3.64-6 0-8.26 3.28-8.26 11.2zm10.36-.28c0 5.1-.56 6.16-2.1 6.16s-2.1-1.06-2.1-6.16V118c0-5.1.56-6.16 2.1-6.16s2.1 1.07 2.1 6.16zm6.16-2.52v-2h2.54v5h-2.52zm28 4.62c0-5.68-2.46-9.38-8.26-9.38s-8.26 3.7-8.26 9.38 2.47 9.38 8.27 9.38 8.24-3.74 8.24-9.4zm7.85-7.28V106h-6.45v25.48H194v-10.26h2.24v-6.16zm-12.88-7.7v-2.24h-6.45v2.24h-5v5h16.52v-5zm-1.12 15c0 3-.62 4.06-2.1 4.06s-2.1-1.09-2.1-4.06.61-4.06 2.1-4.06 2.07 1.06 2.07 4.02zm24.08-.25l1.12 9.35h5.6l-2.41-17.92h-2.86l1.2-7h-5.51l-4.42 24.92h5.68zM217 106h-5v8h-2.24v5.6H212v11.9h5zm6.16 0h-5v25.48h5zm27.72 8.12c0-5.26-3.8-8.12-12.32-8.12s-12.31 2.86-12.31 8.12 3.8 8.12 12.32 8.12 12.28-2.9 12.28-8.16zm-9.93 11.76h-4.76V123h-6.44v2.8h-4.06v5.6h25.76v-5.6h-4.06V123h-6.44zm3.78-11.76c0 2-1.29 2.8-6.16 2.8s-6.16-.84-6.16-2.8 1.28-2.8 6.16-2.8 6.15.84 6.15 2.8zm16 10.2V106.8h-6.25v17.48zm0 6.88v-5.48h-6.25v5.48z"/><path id="패스_11215" data-name="패스 11215" d="M168.42 13.24v-2.62h-5.93V8h5.3V5.5h-5.3V3.11h5.6V.5h-8.56v12.74zM181.68.5h-3.4l-2.93 9h-.07l-2.95-9h-3.46l4.82 12.74h3.08zm9.94 12.74v-2.62h-5.92V8h5.3V5.5h-5.3V3.11h5.6V.5h-8.57v12.74zm13.63 0V.5h-3l.07 8.32h-.05L197.16.5h-3.51v12.74h3l-.07-8.33h.05l5.13 8.33zm11.68-10.11V.5h-10.28v2.63h3.6v10.11h3.08V3.13z"/></g><path fill="none" d="M0 0h375v133H0z"/></g></g></svg>