<svg xmlns="http://www.w3.org/2000/svg" width="460" height="145.22"><defs><style>.cls-1{fill:#fff}.cls-2{fill:none;stroke:#000;stroke-width:2px}</style></defs><g id="Layer_2" data-name="Layer 2"><g id="Layer_1-2" data-name="Layer 1"><g id="Layer_1-2-2" data-name="Layer 1-2"><g id="Layer_1-2-2-2" data-name="Layer 1-2-2"><g id="_7_tag" data-name="7 tag"><g id="tag1"><g id="사각형_162" data-name="사각형 162"><path class="cls-1" d="M74 104.22h140a20 20 0 0120 20 20 20 0 01-20 20H74a20 20 0 01-20-20 20 20 0 0120-20z"/><path class="cls-2" d="M74 105.22h140a19 19 0 0119 19 19 19 0 01-19 19H74a19 19 0 01-19-19 19 19 0 0119-19z"/></g><path id="_내돈내듣에_공감하기" data-name="내돈내듣에 공감하기" d="M80.15 122.66c1.16 0 1.48 1 1.48 1.92 0 1.18-.6 3-2.24 3-1.18 0-1.44-1.1-1.44-1.78.05-1.4.78-3.14 2.2-3.14zm5.4 6.46a7.11 7.11 0 01-5.18 2c-3.56 0-6.06-2.3-6.06-5.94a5.75 5.75 0 015.43-6h.45c3.22 0 5.54 1.8 5.54 5.14 0 1.94-.82 3.34-2 3.34-.68 0-.8-.44-.8-.9a7.59 7.59 0 01.2-1.42l.78-3.76h-1.52l-.18.84a2.06 2.06 0 00-2-1.14c-2.4 0-4 2.26-4 4.52 0 1.92 1.08 3.26 2.88 3.26a2.85 2.85 0 002.46-1.4h.1c0 .76.62 1.4 1.74 1.4 2.06 0 3.92-1.68 3.92-4.9 0-4.3-3.44-6.42-7.08-6.42a7.45 7.45 0 00-7.64 7.26v.18c0 4.34 3.06 7.42 7.64 7.42a8.42 8.42 0 006.26-2.4zm12.24-6.38h-2L93 130.2l-2.78-7.46h-2.13l3.91 9.48h2zm3.72 0h-1.88v9.48h1.88zm.32-3.42a1.25 1.25 0 10-1.3 1.2 1.25 1.25 0 001.3-1.18zm4.86 11.4a4.08 4.08 0 003.42 1.76 4.73 4.73 0 004.79-4.67v-.35a4.7 4.7 0 00-4.4-5h-.34a4.07 4.07 0 00-3.38 1.68h-.06v-7h-1.88v15.12h1.82v-1.5zm6.26-3.26a3.19 3.19 0 01-2.91 3.43h-.25a3.26 3.26 0 01-3.2-3.32v-.1a3.29 3.29 0 013.11-3.47h.09a3.15 3.15 0 013.21 3.09v.32zm5.86-.82a2.94 2.94 0 013-2.68 2.53 2.53 0 012.66 2.38 1.5 1.5 0 010 .3zm7.54.76c0-3-1.76-4.92-4.56-4.92a4.79 4.79 0 00-4.9 4.68 1.82 1.82 0 000 .33 4.79 4.79 0 004.55 5h.45a4.89 4.89 0 004.08-1.94l-1.32-1.06a3.28 3.28 0 01-2.76 1.44 3 3 0 01-3.08-2.88h7.52v-.66zm4.94 3.62a1.31 1.31 0 00-1.31-1.3 1.3 1.3 0 00-1.28 1.28 1.31 1.31 0 002.62 0zm12.48-3.56a5.11 5.11 0 10-5.22 5h.22a5.11 5.11 0 005-5zm-2 0a3.17 3.17 0 11-6.32.53 4.69 4.69 0 010-.53 3.17 3.17 0 116.32-.56v.1a4.17 4.17 0 010 .46zm9-4.72h-2.2v-2c0-1.16.26-2.28 1.68-2.28a3.29 3.29 0 01.94.14l.22-1.62a4.24 4.24 0 00-1.18-.14c-2.56 0-3.54 1.68-3.54 3.9v2h-1.88v1.54h1.88v7.94h1.88v-7.94h2.2zm5.78 0h-2.2v-2c0-1.16.26-2.28 1.68-2.28a3.29 3.29 0 01.94.14l.22-1.62a4.24 4.24 0 00-1.18-.14c-2.56 0-3.54 1.68-3.54 3.9v2h-1.88v1.54h1.88v7.94h1.88v-7.94h2.2zm3.74 0h-1.88v9.48h1.88zm.32-3.42a1.25 1.25 0 10-1.3 1.2 1.24 1.24 0 001.35-1.12.11.11 0 000-.08zm11 4.72a4.53 4.53 0 00-3.56-1.56A4.84 4.84 0 00163 127v.4a4.82 4.82 0 004.63 5h.47a4.56 4.56 0 003.54-1.48l-1.26-1.14a2.89 2.89 0 01-2.28 1 3.17 3.17 0 01-3.13-3.21v-.21a3.16 3.16 0 012.88-3.41h.22a2.67 2.67 0 012.18 1.08zm3.78-1.3h-1.88v9.48h1.88zm.32-3.42a1.25 1.25 0 10-1.3 1.2 1.26 1.26 0 001.32-1.16zm8.86 7c-3.2 0-6.6.34-6.6 3.2 0 2.18 1.94 2.92 3.44 2.92a3.63 3.63 0 003.18-1.6h.06a6.24 6.24 0 00.16 1.36h1.7a10.75 10.75 0 01-.14-1.88v-4.12c0-2.1-1.24-3.72-4-3.72a5.6 5.6 0 00-3.88 1.42l1 1.2a3.84 3.84 0 012.7-1.1c1.4 0 2.34.68 2.34 2.08zm0 1.36v.5a2.59 2.59 0 01-2.37 2.82h-.37c-.94 0-1.94-.36-1.94-1.48 0-1.6 2.36-1.8 4.22-1.8zm6.86-10.6h-1.88v15.12h1.88zM197 131a1.31 1.31 0 00-1.31-1.3 1.3 1.3 0 00-1.28 1.32 1.31 1.31 0 102.62 0zm4.8-13.92H200v15.12h1.88v-4.9h.06l4.28 4.92h2.6L204 127l4.44-4.3h-2.52l-4 4.12h-.06zm8.62 7.68v7.44h1.88v-5c0-1.58.86-3 2.66-3a3.55 3.55 0 01.86.1l.08-1.74a2.63 2.63 0 00-.74-.08 3.19 3.19 0 00-2.9 1.86h-.06a12.25 12.25 0 00-.08-1.6h-1.78c.06.62.08 1.54.08 2z"/></g><g id="tag2"><g id="사각형_162-2" data-name="사각형 162-2"><path class="cls-1" d="M270 104.22h80a20 20 0 0120 20 20 20 0 01-20 20h-80a20 20 0 01-20-20 20 20 0 0120-20z"/><path class="cls-2" d="M270 105.22h80a19 19 0 0119 19 19 19 0 01-19 19h-80a19 19 0 01-19-19 19 19 0 0119-19z"/></g><path id="_내돈내듣에_공감하기-2" data-name="내돈내듣에 공감하기-2" d="M271.36 122v-1.7h2l.6-3.9h1.52l-.62 3.9h2.08l.62-3.9h1.54l-.62 3.9H280v1.7h-1.78l-.34 2.38h1.6V126h-1.88l-.64 4.08h-1.54L276 126h-2l-.66 4.08h-1.5l.62-4.08h-1.56v-1.7h1.84l.38-2.38zm3.24 0l-.42 2.38h2.08l.4-2.38zm21.64 10.84h-2v-9h-1.9V132h-1.92v-16.6h1.92v6.6h1.9v-7h2zm-6.92-7l.28 1.66a25.93 25.93 0 01-5.76.56h-1.76V117.1h2v9.24a20.12 20.12 0 005.24-.54zm23.4-3.84h-5.14v2.18h7.06v1.66h-16.1v-1.66h7V122h-4.88v-6.4h11.92v1.64h-9.86v3.08h10zm0 10.32H300.6v-5.12h2.06v3.48h10.1zm18.08.5h-2v-9H327v8.16h-1.92v-16.6H327V122h1.9v-7h2zm-6.92-7l.28 1.66a25.93 25.93 0 01-5.76.56h-1.76V117.1h2v9.24a20 20 0 005.28-.54zm25.32-1h-16.1v-1.62h16.1zm-1.88 7.72H335.2v-6h12v1.64h-9.94v2.78h10.12zm0-11h-12.1v-6.1h11.92V117h-9.86v2.8h10z"/></g></g><path fill="none" d="M0 103.22h460v42H0z"/></g></g><g id="_7_tit" data-name="7 tit"><path id="패스_11577" data-name="패스 11577" d="M40.38 14.58H38.8V7h-1.62V5.86a2 2 0 002-1.72h1.2zm6.34-5.2c0-4.32-3-7.6-7.3-7.6s-7.3 3.28-7.3 7.6 3 7.6 7.3 7.6 7.3-3.28 7.3-7.6zm1.22 0a8.38 8.38 0 01-8.06 8.7h-.46a8.41 8.41 0 01-8.52-8.29v-.41A8.39 8.39 0 0139 .68h.46A8.37 8.37 0 0148 8.87c0 .13 0 .34-.06.51zm6.46 2.48V6.22c0-3.68 1.88-5.46 4.6-5.46s4.6 1.78 4.6 5.46v5.64c0 3.64-1.88 5.42-4.6 5.42s-4.6-1.78-4.6-5.42zm1.88-5.64v5.64c0 2.62.94 3.74 2.74 3.74s2.72-1.12 2.72-3.74V6.22c0-2.64-.94-3.76-2.72-3.76s-2.74 1.12-2.74 3.76zm12.6 2.94v8.7H67V.58h1.88v6.9h2.44v1.68zM87.26.58v17.28h-1.88V9.22h-2.26v8.44h-1.88v-17h1.88v6.86h2.26V.58zM79.92 15.4v1.7H72.6V7.9h4.7V2.64h-4.7V.94h6.58V9.6h-4.7v5.8zm21.4-11.82a7.53 7.53 0 01-.32 1.24 10.6 10.6 0 005 3.76l-1 1.5a12.92 12.92 0 01-4.78-3.46A9.81 9.81 0 0196 10.54l-1.42-1.3a8.2 8.2 0 004.88-5.66H95.3v-1.7h4V0h1.88v1.88h4.06v1.7zm6.38 7.08V.58h1.88V4.7H112v1.7h-2.44v4.26zm-12 7v-6.18h13.9v6.18zm12-1.66v-2.86H97.56V16zm5.4-4.14V6.22c0-3.58 1.8-5.46 4.52-5.46s4.52 1.88 4.52 5.46v5.64c0 3.54-1.8 5.42-4.52 5.42s-4.52-1.88-4.52-5.42zm1.9-5.64v5.64c0 2.62.94 3.74 2.64 3.74s2.64-1.12 2.64-3.74V6.22c0-2.64-.94-3.76-2.64-3.76S115 3.58 115 6.22zm11.1 6h-3.2v-1.68h3.2v-4h-3.2V4.9h3.2V.58h1.9v17.28h-1.88zM144.26.94V17.1H136V.94h1.88v5.64h4.5V.94zm4.52 8.28H145v-1.7h3.76V.58h1.88v17.28h-1.88zm-10.9 6.18h4.5V8.28h-4.5zM169 16v1.68h-14.82v-4.14h1.88V16zm-15.8-5.16h16.54v1.7h-16.5zM169 7.66v1.68h-14.82V.94h14.66v1.68h-12.78V4.3h12.78V6h-12.78v1.7zM187 16v1.68h-14.82v-4.6H185v-1.16h-12.82v-1.68h14.66v4.5h-12.78V16zm-15.8-8.64h16.54V9h-16.5zm4.14-2.72h8.08c.94 0 1.7-.44 1.7-1.18s-.76-1.2-1.7-1.2h-8.08c-.94 0-1.5.44-1.5 1.2s.6 1.16 1.54 1.16zm0-4h8.08c2.08 0 3.58 1 3.58 2.86s-1.5 2.84-3.58 2.84h-8.08c-2.06 0-3.38-1-3.38-2.84s1.36-2.92 3.42-2.92zM209.74 16v1.68h-14.86V13h12.78v-1.28h-12.78V10h6.3V8.64h-7.24V7h16.54v1.64h-7.42V10h6.48v4.62h-12.78V16zm0-12.1v1.66h-14.86V.76h1.88v3.12zm12 11.52v1.7h-9V7.9h5.82V2.64h-5.86V.94h7.7V9.6h-5.82v5.8zm3.76-5.8h-4.14V7.9h4.14V.58h1.88v17.28h-1.88zm16.5 6.72l-.84-3.54H237l-.84 3.54h-2.06l3.9-15.1h2.08l3.94 15.1zm-1.24-5.24l-.58-2.5-1.12-4.94-1.08 5-.58 2.44zm12.9 1.12v4.12h-1.88v-3.92a2.08 2.08 0 00-1.58-2.26h-2.94v6.18h-1.88v-15h4.14c2.62 0 4.5 1.5 4.5 4.14a4 4 0 01-2.26 4 2.87 2.87 0 011.9 2.78zM249.32 3h-2.06v5.46h2.06a2.69 2.69 0 002.83-2.52v-.38c-.01-1.7-1.03-2.56-2.83-2.56zm22 13.18v1.66H256.8v-4.66H269v-1.36h-12.2v-1.66h14.1v4.64h-12.22v1.4zm-7.52-9h2.34v1.66h-10.28V7.18h1.78V3.4h1.88v3.78h2.36l.66-3.78h1.88zm7.1-6.6v8.7H269V.58zm-5.36.36v1.68h-9.3V.94zm17.72 16.16h-9V.94h8.08v1.7h-6.2v5.08h6V9.4h-6v6h7.14zM287 9.4h-3.94V7.72H287V.58h1.88v17.28H287zm20.28 6.6v1.62h-14.86V13.5h12.78v-.88h-12.78V11h14.66v4.1H294.3v.9zm-15.8-7.58H308v1.68h-16.52zM307.28 6v1.58h-14.86V3.46h12.78v-.9h-12.78V.94h14.66v4.12H294.3V6zM317.94.58h1.88a10.42 10.42 0 01-.36 2.72A12.46 12.46 0 00325 7.06l-.88 1.6a15.87 15.87 0 01-5.28-3.5 9.91 9.91 0 01-3.32 4L314 8a8.46 8.46 0 003.94-7.42zM330 16.2v1.66h-14.5V13.1h12.22v-1.48H315.5V10h14.1v4.74h-12.22v1.46zM329.6.58V9.1h-1.88V.58zm18 0V11h-1.88V6.58h-2.2V11h-1.84V.66h1.84V4.9h2.2V.58zm-6.68.94v1.64h-8.54V1.52h3.32V0h1.88v1.52zm-.46 5.8c0 2-1.6 3.38-3.76 3.38s-3.76-1.34-3.76-3.38 1.6-3.38 3.76-3.38 3.76 1.36 3.76 3.38zm-1.86 0a1.8 1.8 0 00-1.81-1.8h-.09a1.8 1.8 0 00-1.9 1.68v.12a1.8 1.8 0 001.79 1.8h.11a1.8 1.8 0 001.9-1.71zM343.84 18h-6.4c-2.62 0-4.12-1.22-4.12-3.08s1.5-3.1 4.12-3.1h6.4c2.64 0 4.14 1.22 4.14 3.1s-1.5 3.08-4.14 3.08zm-6.4-1.66h6.4c1.32 0 2.16-.5 2.16-1.42s-.84-1.46-2.16-1.46h-6.4c-1.3 0-2.16.52-2.16 1.46s.86 1.46 2.16 1.46zm-295 26.88v1.32h-6.1C36.46 43 37 42 38.5 40.4s2.44-1.72 2.44-3.4c0-1.18-.68-1.78-1.3-1.78-1.4 0-1.52 1.9-1.54 2.52h-1.54c.1-1.82.7-3.86 3.06-3.86a2.75 2.75 0 012.82 2.68 2.42 2.42 0 010 .38c0 1.54-.62 2.38-2.06 3.6-1.64 1.46-1.86 2-2.08 2.72zm4.3-3.88c0-4.32-3-7.6-7.3-7.6s-7.3 3.28-7.3 7.6 3 7.6 7.3 7.6 7.28-3.24 7.28-7.56zm1.22 0a8.38 8.38 0 01-8.06 8.7h-.46a8.41 8.41 0 01-8.52-8.29v-.41A8.39 8.39 0 0139 30.68h.46A8.37 8.37 0 0148 38.87c0 .13 0 .34-.06.51zm21.32-8.8v17.32h-1.9v-8.64h-2.82v8.44h-1.88v-17h1.88v6.86h2.82v-6.94zM54.6 47.1V30.94h1.88V45.4h4.82v1.7zm19.9-.18h-2.26v-2.24h2.26zM92 46v1.68H77.18V42.6h1.88V46zm-.1-8.68h-6.54v2.3h7.42v1.68H76.24v-1.7h7.24v-2.3h-6.3v-6.36h14.66v1.68H79.06v3h12.88zm5 9.62h-2.26v-2.26h2.26zm17.16-16.34v17.26h-1.88v-8.64h-2.82v8.44h-1.88v-17h1.88v6.86h2.82v-6.94zM99.4 47.1V30.94h1.88V45.4h4.82v1.7zm19.9-.18H117v-2.24h2.26zm17.44-10.08H122v-5.9h14.66v1.66h-12.8v2.58h12.88zM121 38.48h16.54v1.68H121zm2.86 7.52h13v1.66H122v-5.8h14.66v1.64h-12.8zm25.36-9.42h1.88v4.9h1.68v1.68h-1.68v3.18h-1.88v-3.18h-5.84v-1.3l5.08-10.72h2.08l-4.7 10.34h3.38zm20.08-6V41h-1.88v-4.42h-2.2V41h-1.84V30.66h1.84v4.24h2.2v-4.32zm-6.68.94v1.64h-8.54v-1.64h3.32V30h1.88v1.52zm-.46 5.8c0 2-1.6 3.38-3.76 3.38s-3.76-1.34-3.76-3.38 1.6-3.38 3.76-3.38 3.76 1.36 3.76 3.38zm-1.86 0a1.9 1.9 0 10-2 1.8h.1a1.8 1.8 0 001.9-1.71zM165.54 48h-6.4c-2.62 0-4.14-1.18-4.14-3s1.5-3.1 4.12-3.1h6.4c2.64 0 4.14 1.22 4.14 3.1s-1.48 3-4.12 3zm-6.4-1.66h6.4c1.32 0 2.16-.5 2.16-1.42s-.84-1.46-2.16-1.46h-6.4c-1.3 0-2.16.52-2.16 1.46s.86 1.46 2.16 1.46zm16.12-15.62h1.88a43.24 43.24 0 01-.38 5.8 20.09 20.09 0 005.16 9.26l-1.38 1.28a20.71 20.71 0 01-4.42-7 26.64 26.64 0 01-2.74 7.22l-1.68-.88c2.64-4.56 3.56-10.18 3.56-15.64zm10.16-.18h1.88v17.32h-1.88zM205.86 48h-5.64c-2.82 0-4.5-1.42-4.5-3.46s1.68-3.48 4.5-3.48h5.64c2.82 0 4.52 1.42 4.52 3.48s-1.7 3.46-4.52 3.46zm-5.64-1.66h5.64c1.5 0 2.54-.7 2.54-1.8s-1-1.82-2.54-1.82h-5.64c-1.5 0-2.54.7-2.54 1.82s1.04 1.84 2.54 1.84zm-3.38-11.2a2.74 2.74 0 105.46.36 2.16 2.16 0 000-.36 2.74 2.74 0 00-5.46-.36 2.16 2.16 0 000 .4zm-1.88 0a4.61 4.61 0 019.22 0 4.61 4.61 0 01-9.22 0zm15-4.6v9.76h-1.88v-2.4h-3.2v-1.68h3.2v-2.08h-3.2v-1.68h3.2v-1.88zm6.72 0h1.88a12.5 12.5 0 01-.32 2.92 14 14 0 005.06 4.74l-1.16 1.44a17.24 17.24 0 01-4.58-4.1 10.4 10.4 0 01-3.8 4.6l-1.44-1.28a9.29 9.29 0 004.36-8.32zm13.34 3.76V36h-2.44v4.46h-1.88v-9.9h1.88v3.76zM223.48 48H218c-2.82 0-4.52-1.42-4.52-3.46s1.7-3.48 4.52-3.48h5.44c2.82 0 4.52 1.42 4.52 3.48S226.3 48 223.48 48zM218 46.38h5.44c1.52 0 2.54-.7 2.54-1.8s-1-1.82-2.54-1.82H218c-1.5 0-2.54.7-2.54 1.82s1.08 1.8 2.54 1.8zm28.34-.4v1.68h-14.82v-4.58h12.78v-1.16h-12.78v-1.68h14.66v4.5H233.4V46zm-15.8-8.64h16.54V39h-16.5zm4.14-2.72h8.08c.94 0 1.7-.44 1.7-1.18s-.76-1.2-1.7-1.2h-8.08c-.94 0-1.5.44-1.5 1.2s.6 1.18 1.54 1.18zm0-4h8.08c2.08 0 3.58 1 3.58 2.86s-1.5 2.84-3.58 2.84h-8.08c-2.06 0-3.38-1-3.38-2.84s1.36-2.9 3.42-2.9zm34 17.28h-14.26v-4.42h12v-1.06h-12v-1.66h13.9v4.32h-12v1.12h12.4zm-2.26-17.28h1.88v3.94h2.44v1.7h-2.44V40h-1.88zm-12 6.72l-1.12-1.4a7.13 7.13 0 004.62-2.56H254V31.7h3.88V30h1.88v1.7h3.8v1.64h-3.66c-.08.16-.18.32-.28.48a10.27 10.27 0 004.82 1.66l-.82 1.52a13 13 0 01-5-2 8.9 8.9 0 01-4.24 2.26zm10.66 2.42h-11.8v-1.68h4.6V36.4h1.88v1.68h5.3zM282.56 48h-5.64c-2.82 0-4.5-1.42-4.5-3.46s1.68-3.48 4.5-3.48h5.64c2.82 0 4.52 1.42 4.52 3.48s-1.7 3.46-4.52 3.46zm-5.64-1.66h5.64c1.5 0 2.54-.7 2.54-1.8s-1-1.82-2.54-1.82h-5.64c-1.5 0-2.54.7-2.54 1.82s1.04 1.84 2.54 1.84zm-3.38-11.2a2.74 2.74 0 105.46.36 2.16 2.16 0 000-.36 2.74 2.74 0 10-5.46-.36 2.16 2.16 0 000 .4zm-1.88 0a4.61 4.61 0 019.22 0 4.61 4.61 0 01-9.22 0zm15-4.6v9.76h-1.88v-2.4h-3.2v-1.68h3.2v-2.08h-3.2v-1.68h3.2v-1.88zm-247.3 39.1h-.56v-1.16c1.12 0 1.94-.28 1.94-1.64 0-.92-.52-1.62-1.24-1.62-1 0-1.26 1-1.36 1.9h-1.5c.12-2.26 1.32-3.24 2.88-3.24a2.6 2.6 0 012.74 2.44 1.5 1.5 0 010 .3A2.27 2.27 0 0141 69a2.29 2.29 0 011.52 2.5 3.08 3.08 0 01-2.75 3.38 1.83 1.83 0 01-.33 0c-2.08 0-3-1.64-3.06-3.62h1.52c.06.88.14 2.28 1.56 2.28.8 0 1.56-.68 1.56-2-.02-1.1-.5-1.9-1.66-1.9zm7.36-.26c0-4.32-3-7.6-7.3-7.6s-7.3 3.28-7.3 7.6 3 7.6 7.3 7.6 7.3-3.28 7.3-7.6zm1.22 0a8.38 8.38 0 01-8.06 8.7h-.46a8.41 8.41 0 01-8.52-8.29v-.41a8.39 8.39 0 018.1-8.7h.46A8.37 8.37 0 0148 68.87c0 .13 0 .34-.06.51zm6.46 2.48v-5.64c0-3.68 1.88-5.46 4.62-5.46s4.6 1.78 4.6 5.46v5.64c0 3.64-1.88 5.42-4.6 5.42s-4.62-1.78-4.62-5.42zm1.88-5.64v5.64c0 2.62.94 3.74 2.74 3.74s2.72-1.12 2.72-3.74v-5.64c0-2.64-.94-3.76-2.72-3.76s-2.74 1.12-2.74 3.76zm12.6 2.94v8.7H67V60.58h1.88v6.9h2.44v1.68zm18.38-8.58v17.28h-1.88v-8.64h-2.26v8.44h-1.88v-17h1.88v6.86h2.26v-6.94zM79.92 75.4v1.7H72.6v-9.2h4.7v-5.26h-4.7v-1.7h6.58v8.66h-4.7v5.8zm14.92.94v-3.12a3.83 3.83 0 011.94-3.76l2.92-1.9a2.78 2.78 0 001.3-2.48c0-1.5-.64-2.26-2.16-2.26s-2.16.76-2.16 2.26h-1.84c0-2.82 1.6-3.94 4-3.94s4 1.12 4 3.94a4.17 4.17 0 01-2.12 3.86l-2.8 1.86a2.46 2.46 0 00-1.22 2.38v1.5h6.22v1.66zm10.6-15.4h6v4c0 4.9-1.56 9.08-5.14 12.14l-1.68-1a13.25 13.25 0 004.94-10.92v-2.52h-4.14zm14.66-.36v17.28h-1.88v-8.64h-2.82v8.44h-1.88v-17h1.88v6.86h2.82v-6.94zm22.7 0v17.28h-1.88v-8.64h-2.26v8.44h-1.88v-17h1.88v6.86h2.26v-6.94zm-7.34 14.82v1.7h-7.32V60.94h6.76v1.7H130v5.26h4.7v1.7H130v5.8zM161 73.54h-1.9v-10.9h-12.78v-1.7H161zm.94 1.86v1.7h-16.56v-1.7zm17.26.64v1.62h-14.88V73.5h12.78v-.88h-12.78V71H179v4.1h-12.8v.9zm-15.8-7.58h16.54v1.64h-16.56zm15.8-2.5v1.62h-14.88v-4.12h12.78v-.9h-12.78v-1.62H179v4.12h-12.8V66zm22.7 10v1.66H187V70.5h6.3v-1.14h-7.24v-1.68h16.54v1.68h-7.4v1.14h6.48v1.66H188.9v1.06h12.78v1.66H188.9V76zm-.2-15.06v5.64H187v-5.6h1.88v1.12h10.9v-1.12zM188.9 65h10.9v-1.3h-10.9zm15.74 6.9v-5.68c0-3.58 1.8-5.46 4.52-5.46s4.52 1.88 4.52 5.46v5.64c0 3.54-1.8 5.42-4.52 5.42s-4.52-1.88-4.52-5.42zm1.88-5.64v5.64c0 2.62.94 3.74 2.64 3.74s2.64-1.12 2.64-3.74v-5.68c0-2.64-.94-3.76-2.64-3.76s-2.64 1.12-2.64 3.76zm11.1 6h-3.2v-1.72h3.2v-4h-3.2V64.9h3.2v-4.32h1.88v17.28h-1.88zm7.84-11.46h1.88a43.24 43.24 0 01-.38 5.8 20.09 20.09 0 005.16 9.26l-1.38 1.28a20.71 20.71 0 01-4.42-7 26.64 26.64 0 01-2.74 7.22l-1.68-.88c2.64-4.64 3.56-10.26 3.56-15.72zm10.16-.18h1.88v17.24h-1.88v-8.7h-5.46v-1.68h5.46zm4.3 18.22l-.56-.76a2.47 2.47 0 001.12-2.44v-.92h2.16v.92a3.19 3.19 0 01-2.72 3.16zm25.8-3.4v1.7h-16.54V75.4zm-15.4-4.76l-1.14-1.4a11.53 11.53 0 007.66-8.66l1.86.36a10.19 10.19 0 01-.76 2.54 15.37 15.37 0 007.78 5l-1 1.5a17.47 17.47 0 01-7.68-4.86 13.9 13.9 0 01-6.74 5.5zM283 69.7v1.68h-14.88V60.94h14.66v1.7H270v2.64h12.78V67H270v2.7zm.74 5.7v1.7h-16.56v-1.7h7.34v-3.06h1.88v3.06zm12.18 0v1.7h-10v-9.2h6.76v-5.26h-6.76v-1.7h8.64v8.66h-6.76v5.8zm4.7-14.82v17.28h-1.88V60.58zm7.5 12.22v-4.14c0-2.44 1.68-3.76 4.12-3.76s4.14 1.32 4.14 3.76v4.14c0 2.42-1.68 3.74-4.14 3.74s-4.14-1.32-4.14-3.74zm1.88-3.86v3.58c0 1.58.74 2.34 2.24 2.34s2.26-.76 2.26-2.34v-3.58c0-1.6-.74-2.36-2.26-2.36s-2.24.76-2.24 2.36zM323.88 65v1.88c-2.08-.58-3.58.36-3.58 2.16v7.3h-1.88V65.08h1.7l.18 1.22a3.29 3.29 0 013.58-1.3zm21.4 11.2v1.66H330.8v-4.68H343v-1.36h-12.2v-1.66h14.1v4.64h-12.22v1.4zm-.38-15.62v8.7H343v-8.7zm-4.32 6.6v1.66h-10.34V64h7v-1.38h-7v-1.68h8.84v4.72h-7v1.52zM364 75.4v1.7h-16.52v-1.7zm-15.4-4.76l-1.14-1.4a11.53 11.53 0 007.66-8.66l1.86.36a10.19 10.19 0 01-.76 2.54 15.37 15.37 0 007.78 5L363 70a17.47 17.47 0 01-7.68-4.86 13.9 13.9 0 01-6.74 5.5zm32.28 7.22H379V60.58h1.88zm-13-13.34v9c0 1.5.66 2.06 1.6 2.06s1.6-.56 1.6-2.06v-9c0-1.5-.66-2.06-1.6-2.06s-1.56.54-1.56 2.06zm-1.88 9v-9c0-2.64 1.6-3.76 3.48-3.76s3.52 1.12 3.52 3.76v3h2.16v-6.86H377v17h-1.88v-8.44H373v4.32c0 2.62-1.6 3.74-3.48 3.74S366 76.16 366 73.54zm37.56-3v7.12H389.5v-7.1h1.92v1.68h10.3v-1.68zm-15-5.54a4.51 4.51 0 114.62 4.4h-.1a4.35 4.35 0 01-4.52-4.17zm15-4.42v9.14h-1.88v-3.86h-3.38v-1.7h3.38v-3.56zM390.44 65a2.63 2.63 0 102.64-2.74 2.6 2.6 0 00-2.64 2.56zm.94 11h10.34v-2.12h-10.34zM422 69.7v1.68h-14.88v-6.1h12.78v-2.64h-12.78v-1.7h14.66v6H409v2.76zm.74 5.7v1.7h-16.56v-1.7h7.34v-3.06h1.88v3.06zm4.26-6.74h13v1.68h-14.88v-9.4h14.66v1.7H427zm13.72 6.74v1.7h-16.54v-1.7zm2.24-15h1.88v12H443zM445 77.48h-2.26v-2.26H445z"/></g></g></g></svg>