<svg xmlns="http://www.w3.org/2000/svg" width="375" height="67"><g data-name="Layer 2"><g data-name="Layer 1"><path d="M65.37 2.32v19.36l13-1.54v-4.4l-7.92 1v-10h7.92V2.32zm20-.66h-5.04v7.26h-4v4.62h4v8.14h5.06zm15.88 7.92l.75-2.86h4.51v-4.4h-13v4.4h3.3l-3.74 15h5.17l1.87-7.5 1.65 7.5H107l-2.64-12.1zm11.4-.77V1.66h-5.06v20h5.06v-8h1.76V8.81zm7.92 5.52l.88 7.35h4.4L124 7.6h-2.24l.94-5.5h-4.33l-3.48 19.58h4.46zm10.14-12.67h-4v6.27H125v4.4h1.76v9.35h4zm4.84 0h-4v20h4zm15 12.87c0-4.47-1.93-7.37-6.49-7.37s-6.49 2.9-6.49 7.37 1.94 7.37 6.49 7.37 6.49-2.9 6.49-7.37zm6.16-5.72V1.66h-5.06v20h5.06v-8h1.76V8.81zm-10.16-6.05V1h-5.06v1.76h-4v4h13v-4zm-.88 11.77c0 2.33-.48 3.19-1.65 3.19s-1.65-.86-1.65-3.19.49-3.19 1.65-3.19 1.65.86 1.65 3.19zm29-12.87h-4V9h-1.34V2.25h-10.02v4.4h5.5c0 2.71-.09 5.08-.26 7.48a69.75 69.75 0 01-1.06 7.48h4.62a66.34 66.34 0 001.08-7.7 3.39 3.39 0 010-.55h1.52v8.25h4zm4.84 0h-4v20h4zm13.64 17.82v-.66h13.64v-6.16h-19.1v2.86h13.64v.66h-13.64v6.16h19.14v-2.86zm7.26-12.87c0-3.37-2.31-5.17-6.71-5.17s-6.7 1.8-6.7 5.17 2.31 5.17 6.71 5.17 6.74-1.78 6.74-5.17zm6.38-2v-3h-5.06V12h5.06V9h1.76V4.63zM193.74 8c-1.76 0-2.31-.53-2.31-1.43s.55-1.43 2.31-1.43 2.31.53 2.31 1.43S195.5 8 193.74 8zm35.53-5.9h-18.92v4.4h13.57l-.59 9h5.06zm-14.19 15.18h-5.39v4.4h20.24v-4.4h-9.79v-7h-5.06zM254.9 19v-2.6h3v-3.3h-20v3.3h3V19h-3v3.3h20V19zM244.73 7.27l2 5.17h5.17l-2.64-7h-3.63l1.5-3.3h-5.17l-4.69 10.34h5.17zm13.14-5.61h-5.06v10.78h5.06zm-12 14.74h4V19h-4zm14-3.3c0 6.23 1.8 8.8 6.49 8.8s6.4-2.46 6.49-8.36h2v8.14h5.06v-20h-5.06v7.24h-2.05c-.37-4.8-2.24-6.82-6.4-6.82-4.68 0-6.49 2.57-6.49 8.8zm8.14-.22c0 4-.44 4.84-1.65 4.84s-1.65-.84-1.65-4.84v-1.76c0-4 .44-4.84 1.65-4.84s1.65.84 1.65 4.84zM301.65 8c0-4.14-3-6.38-9.68-6.38S282.29 3.9 282.29 8s3 6.38 9.68 6.38 9.68-2.2 9.68-6.38zm-7.81 9.24h-3.74v-2.2H285v2.2h-3.19v4.4h20.24v-4.4h-3.15v-2.2h-5.06zm3-9.24c0 1.54-1 2.2-4.84 2.2s-4.84-.66-4.84-2.2 1-2.2 4.84-2.2 4.81.7 4.81 2.2zm12.6 8V2.32h-4.9v13.73zm0 5.41v-4.26h-4.9v4.31zM85.48 41.34H81.8l.8-4.34h-6.5l-.8 4.32h-4.1L72 37h-6.5l-.8 4.32h-4.18l-1.15 6.27h4.19l-1.22 6.66h-4.19L57 60.54h4.19l-.8 4.32h6.5l.8-4.32h4.1L71 64.86h6.5l.8-4.32H82l1.15-6.27h-3.71l1.22-6.66h3.68zm-15.42 6.27h4.1l-1.22 6.66h-4.1zm46.46-11.55h-5.92v10.72H109V36.06h-5.92v29.12H109v-12h1.6v12h5.92zM93.8 57.76V37h-6.72v28.18l14.72-2.24v-6.4zm33.92-14.5V41.5h20.16v-4.8h-27.52v11.36h10.08v1.28h-11v5.12h29.44v-5.12h-11v-1.28h10.08v-4.8zm0 17.6v-5.12h-7.36v10.08h27.52v-5zm52.8-24.8h-5.92v10.72H173V36.06h-5.92v29.12H173v-12h1.6v12h5.92zm-22.72 21.7V37h-6.72v28.18l14.72-2.24v-6.4zm26.56-2.66v10.72h27.52v-4.74h-20.16V59.9h20.16v-4.8zm7.36-12.32v-1.44h20.16V36.7h-27.52v10.72h27.52v-4.64zm-8.32 5.92v5.12h29.44V48.7zm40.6 6.24v11.2h29.44v-11.2zm29.44-18.88h-5.92V42H246v-5.94h-6v17.6h6v-5.6h1.6v5.6h5.92zm-16.64 17.6a39.9 39.9 0 001.92-13.76V37H224v6.1h8c0 .64-.07 1.22-.13 1.82h-7.49v5.76H231c-.22 1-.51 2-.83 3zm-5.76 5.92h15.36v1.92h-15.32zm38.14-2.78V43.42h1.54V37H256v6.4h1.54v15.16l-1.54.22v6.4l14.72-2.24v-6.4zm9.22-20.74h-5.76v10.72h-2.56v6.4h2.56v12h5.76zm7 0h-5.76v29.12h5.76zm-22.94 7.36h1.72v14.11l-1.72.26zm44.38 1.28c0-5.41-3.52-9-9.76-9s-9.76 3.55-9.76 9 3.52 9 9.76 9 9.84-3.59 9.84-9zm-18.48 10.56v10.88h29.12v-6.08h-21.76v-4.8zm29.12-19.2h-7.36v20.48h7.36zM297.16 47.9a2.89 2.89 0 01-3.05-2.74 2.36 2.36 0 010-.46 3 3 0 116.08-.31 1.61 1.61 0 010 .31 2.91 2.91 0 01-2.58 3.19 3.53 3.53 0 01-.45.01z" fill="#111"/><path fill="none" d="M0 0h375v67H0z"/></g></g></svg>