<svg xmlns="http://www.w3.org/2000/svg" width="210" height="61"><defs><style>.cls-1{fill:#666}</style></defs><g id="Layer_2" data-name="Layer 2"><g id="Layer_1-2" data-name="Layer 1"><g id="_8_txt03" data-name="8 txt03"><path id="패스_11429" data-name="패스 11429" class="cls-1" d="M37.57 7.54l-.74-.91a7.5 7.5 0 005-5.63l1.17.23a6.68 6.68 0 01-.49 1.65 9.92 9.92 0 005 3.27l-.63 1A11.2 11.2 0 0142 4a9.08 9.08 0 01-4.43 3.54zm10 3.09v1.11H36.83v-1.11h4.77V7.06h1.22v3.57zm1-4.51h10.71v1.09H48.53zm7.34-.84H52c-2 0-3-.74-3-2.15S50 1 52 1h3.92c2 0 2.93.84 2.93 2.13s-1.02 2.15-2.98 2.15zM52 4.2h3.92c1.22 0 1.65-.46 1.65-1.07s-.43-1.06-1.65-1.06H52c-1.09 0-1.65.45-1.65 1.06S50.73 4.2 52 4.2zm6.72 4v3.9h-9.58V8.2zM50.37 11h7.08V9.28h-7.08zM70.26 1v11.23H69V1zm-8.44 3.67v3.66c0 1.7.61 2.43 1.78 2.43s1.77-.73 1.77-2.43V4.67c0-1.72-.61-2.45-1.77-2.45s-1.78.78-1.78 2.45zM60.6 8.33V4.67c0-2.4 1.22-3.55 3-3.55s3 1.15 3 3.55v3.66c0 2.37-1.22 3.52-3 3.52s-3-1.15-3-3.52zM85 1v6.32h-1.21V1zm-9 11.1l-.91-.82A5 5 0 0078 7.5l1.15.17A4.83 4.83 0 0178.84 9a6.11 6.11 0 001.67 1.69 4.9 4.9 0 001.77-3.19l1.17.17a4.21 4.21 0 01-.34 1.44 10.1 10.1 0 002.69 2l-.7 1a13.33 13.33 0 01-2.52-1.9 6.76 6.76 0 01-2 2 8.54 8.54 0 01-2.31-2.05 6.3 6.3 0 01-2.23 2zm.44-8.23a1.7 1.7 0 001.63 1.77h.14A1.7 1.7 0 0080 4v-.13a1.7 1.7 0 00-1.63-1.78h-.15a1.69 1.69 0 00-1.76 1.63.38.38 0 000 .15zm-1.22 0A2.86 2.86 0 0178.05 1h.17a2.86 2.86 0 013 2.69v.18a2.86 2.86 0 01-2.83 2.87h-.17a2.84 2.84 0 01-3-2.7.85.85 0 010-.16zm12.92 0a1.7 1.7 0 001.61 1.77h.11A1.69 1.69 0 0091.57 4v-.1A1.69 1.69 0 0090 2.09h-.11a1.7 1.7 0 00-1.72 1.67.45.45 0 000 .11zm-1.22 0A2.82 2.82 0 0189.71 1h.16a2.83 2.83 0 012.93 2.71v.16A2.82 2.82 0 0190 6.73h-.14A2.81 2.81 0 0186.94 4a.43.43 0 010-.16zm.78 8.23l-.91-.82a5 5 0 002.93-3.78l1.15.17A4.83 4.83 0 0190.54 9a6.11 6.11 0 001.67 1.69A4.9 4.9 0 0094 7.5l1.17.17a4.21 4.21 0 01-.34 1.44 10.1 10.1 0 002.69 2l-.7 1a13.33 13.33 0 01-2.52-1.9 6.76 6.76 0 01-2 2A8.54 8.54 0 0190 10.1a6.3 6.3 0 01-2.23 2zM95.49 1h1.22v6.32h-1.22v-2.9h-2.2V3.31h2.2zm2.9 5.62h10.75v1.1H98.39zM108.66 11v1.1H99V8.7h1.22V11zM99 5.12v-4h1.22v2.94h8.44v1.06zm16.07 5.51v1.11h-4.49V1.24h4.18v1.1h-3v8.29zm2.42-9.58v11h-1.23V6.73h-2.62V5.64h2.62V1.05zm2.62 11.18h-1.22V1h1.22zm6.2-8.36a1.69 1.69 0 001.6 1.77h.09A1.68 1.68 0 00129.73 4v-.13a1.7 1.7 0 00-1.6-1.78H128a1.69 1.69 0 00-1.72 1.66v.12zm-1.22 0A2.82 2.82 0 01127.87 1h.13a2.82 2.82 0 013 2.72v.15a2.81 2.81 0 01-2.77 2.86H128A2.82 2.82 0 01125.09 4v-.13zm7.19 3.67l1.14.12a5 5 0 01-.24 1.34 7.55 7.55 0 002.48 2.15l-.75.92a9.46 9.46 0 01-2.24-1.94 5.6 5.6 0 01-1.91 2l-.53-.48v.48h-4.53V7.59h1.3v1.16h2V7.59h1.22v3.46a4.56 4.56 0 002.06-3.51zM129 9.79h-2.08v1.26H129zM133.64 1h1.23v6.07h-1.23V4.42h-2.2V3.31h2.2zm3.48 4.09l-.58-1c2.29-.28 4.25-1.15 4.93-3.09l1.26.18a5.4 5.4 0 01-.36.77 9.93 9.93 0 004.92 2l-.5 1a11.23 11.23 0 01-5.09-2 7.25 7.25 0 01-4.58 2.14zm9.56 2.5v4.51h-9.53V7.59h1.23V8.7h7.08V7.59zm-8.3 3.41h7.08V9.77h-7.08zm-1.84-5.25h10.75v1.11h-10.75zM158.27 1v11.23H157V1zm-9.53 10.74V1.24H150v9.4h5.86v1.1zm18.54 0h-6.84V1.24h6.11v1.1h-4.89v8.29h5.62zm2.44-5.16v5.65h-1.22V1h1.22v4.48h1.58v1.1zm3.65 5h-1.47v-1.42h1.47z"/><path id="패스_11347" data-name="패스 11347" d="M36.81 33.34l-2.08-2.7a10.28 10.28 0 007-8l3.66.56a11.74 11.74 0 01-.86 2.8 14.21 14.21 0 007.12 4l-1.92 2.8a14.86 14.86 0 01-7-3.9 13.81 13.81 0 01-5.92 4.44zm14.64 3v3.18H34.91v-3.18h6.36v-4H45v4zm2 3V23h3.42v13.16h6.92v3.18zm15.26-16.52V40.1h-3.42V22.82zm2.76 12.88v-3.76a3.57 3.57 0 013.27-3.85 2.68 2.68 0 01.49 0A3.55 3.55 0 0178.55 30h1.26v-7.1h3.1v17h-3.1v-6.78H79v2.58a3.58 3.58 0 01-3.29 3.82h-.47a3.56 3.56 0 01-3.76-3.35 3.69 3.69 0 01-.01-.47zm3.1-3.76v3.76a.69.69 0 00.59.77h.07c.38 0 .66-.28.66-.78v-3.75c0-.52-.28-.8-.66-.8s-.66.28-.66.8zm9 8.16V22.82h3.16V40.1zM71.11 27.44v-3.12h2.4v-2.08h3.28v2.08h2.36v3.12zm34.34 8.9v3.18H88.91v-3.18zm-.56-6.34v3.2H89.67V23h15v3.2H93.09V30zm4.34-7.14h3.2a23.56 23.56 0 01-.22 3.46 10.89 10.89 0 003.48 4.3l-2.1 2a10.38 10.38 0 01-2.4-2.46 9.3 9.3 0 01-2.06 3l-2.6-1.56c2.14-2.1 2.7-5.1 2.7-8.78zm13.48 10.7h-3.18V22.82h3.18zm-6 1.22a13.52 13.52 0 006.5 2.6l-1.44 2.76a16 16 0 01-6.82-3 11.18 11.18 0 01-6 3.06L107 37.48c3.3-.42 6-2.24 6.94-4.72l3.2.92a6.66 6.66 0 01-.45 1.06zm-1-11.84h3.08v10h-3.08V28.2h-2v-3h2zm17.56 3.68v9.76c0 .94.34 1.12 1.46 1.12v3.2c-3.58 0-4.88-.94-4.88-4.12v-10.2c0-3.2 1.3-4.14 4.88-4.14v3.2c-1.14 0-1.48.2-1.48 1.14zm7 12.2h-3.42V26.58h-1.3v-3.2h4.72zm7.73-3.88v-7.7c0-.58-.42-.86-1-.86s-1 .28-1 .86v7.7c0 .56.42.84 1 .84s1-.28 1-.84zm3.44-7.9v8.08c0 2.34-1.52 3.84-4.42 3.84s-4.42-1.5-4.42-3.84V27c0-2.34 1.5-3.86 4.42-3.86s4.43 1.56 4.43 3.86zm12.76 13.24H158c-2.72 0-4.5-1.5-4.5-3.64S155.27 33 158 33h6.22c2.72 0 4.5 1.5 4.5 3.68s-1.79 3.6-4.51 3.6zM162.33 23v8.84h-9V23zm.56 8v-3h2.22v-1h-2.22v-3h2.22v-1.1h3.42v9.8h-3.42V31zM158 37.46h6.22c.64 0 1-.36 1-.82a.9.9 0 00-.93-.87H158c-.66 0-1 .38-1 .86s.33.83 1 .83zm-1.5-8.34h2.64v-3.4h-2.64zm15.36 7.22v-9.76c0-.94-.34-1.14-1.48-1.14v-3.2c3.58 0 4.9.94 4.9 4.14v10.16c0 3.18-1.32 4.12-4.9 4.12v-3.2c1.13 0 1.47-.18 1.47-1.12z"/><path id="패스_11345" data-name="패스 11345" class="cls-1" d="M52.16 60.05l-2.39-9.6h1.75l1.64 7.11 2-7.11h1.4l1.93 7.11 1.66-7.11h1.55l-2.35 9.6h-1.67l-1.88-7-1.9 7zm10.73 0v-9.6h1.72v4h4.09v-4h1.72v9.6H68.7v-4.29h-4.09v4.29zM72 56.84V55.5h3.85v1.34zm6.28 3.26v-7.9l-1.61.32v-1l2.44-1.09H80v9.67zm7.24.11a3.44 3.44 0 01-2.7-1.14 5.06 5.06 0 01-1-3.46V55a6.9 6.9 0 01.3-2.17 3.54 3.54 0 01.83-1.46 3.42 3.42 0 011.18-.78 3.88 3.88 0 011.43-.25 3.4 3.4 0 012.66 1.12 5 5 0 011 3.5v.6a5 5 0 01-1 3.51 3.42 3.42 0 01-2.74 1.14zm0-1.31a1.61 1.61 0 001.46-.77 4.83 4.83 0 00.47-2.45V55c0-2.19-.64-3.29-1.92-3.29a1.63 1.63 0 00-1.47.77 4.73 4.73 0 00-.47 2.43v.74c-.04 2.15.6 3.25 1.89 3.25zm8.69 1.31a3.44 3.44 0 01-2.7-1.14 5.11 5.11 0 01-1-3.46V55a7.2 7.2 0 01.3-2.17 3.56 3.56 0 01.84-1.46 3.25 3.25 0 011.18-.78 3.8 3.8 0 011.42-.25 3.44 3.44 0 012.67 1.12 5.09 5.09 0 011 3.5v.6a5.09 5.09 0 01-1 3.51 3.44 3.44 0 01-2.75 1.14zm0-1.31a1.61 1.61 0 001.46-.77 4.83 4.83 0 00.48-2.45V55c0-2.19-.64-3.29-1.92-3.29a1.62 1.62 0 00-1.47.77 4.74 4.74 0 00-.48 2.43v.74c-.04 2.15.61 3.25 1.89 3.25zm8.7 1.31a3.41 3.41 0 01-2.7-1.14 5.07 5.07 0 01-1-3.46V55a7.2 7.2 0 01.3-2.17 3.56 3.56 0 01.84-1.46 3.33 3.33 0 011.18-.78 3.88 3.88 0 011.42-.26 3.49 3.49 0 012.67 1.12 5.07 5.07 0 011 3.5v.6a5.12 5.12 0 01-1 3.52 3.43 3.43 0 01-2.75 1.14zm0-1.31a1.58 1.58 0 001.45-.77 4.73 4.73 0 00.48-2.45V55c0-2.19-.64-3.29-1.92-3.29a1.62 1.62 0 00-1.47.77 4.73 4.73 0 00-.47 2.43v.74c-.04 2.15.6 3.25 1.89 3.25zm4.62 1.15l3-4.92-2.85-4.69h1.92l2.15 3.56 2-3.53h1.75l-2.78 4.68 3 4.93h-1.92l-2.25-3.74h-.05l-2.26 3.74zm9.42 0v-9.6h2.42l2.34 7.23 2.34-7.24h2.41V60h-1.72v-7.42h-.06l-2.41 7.47h-1.41l-2.39-7.47v7.47zm13.62.14a6.68 6.68 0 01-1.6-.2 4.5 4.5 0 01-1.21-.48l.28-1.25a3.77 3.77 0 001 .39 5.5 5.5 0 001.21.16 2.43 2.43 0 001.51-.41 1.4 1.4 0 00.54-1.2c0-1-.67-1.43-2-1.45h-1v-1.28h.88a2.32 2.32 0 001.35-.4 1.22 1.22 0 00.5-1q0-1.32-1.71-1.32a5 5 0 00-2 .5l-.2-1.27a4.48 4.48 0 011.23-.42 7.3 7.3 0 011.47-.18 3.5 3.5 0 012.17.63 2.08 2.08 0 01.81 1.75A2.24 2.24 0 01132 55a2.23 2.23 0 012.05 2.36 2.56 2.56 0 01-1 2.1 4 4 0 01-2.52.73zm9.84-.75a3.72 3.72 0 01-2.57.77 6.06 6.06 0 01-2.87-.61v-1.36a6.94 6.94 0 002.73.59c1.22 0 1.83-.47 1.83-1.4a1.15 1.15 0 00-.3-.88 2.78 2.78 0 00-1.1-.55l-.91-.25a3.36 3.36 0 01-1.63-.94A2.69 2.69 0 01135 53a2.52 2.52 0 01.82-2 3.51 3.51 0 012.4-.74 5.35 5.35 0 012.48.52v1.35a6.44 6.44 0 00-2.45-.48 2 2 0 00-1.17.31 1 1 0 00-.4.88 1.21 1.21 0 00.26.86 2 2 0 001 .49l.9.28a4.15 4.15 0 011.83 1 2.53 2.53 0 01.6 1.81 2.84 2.84 0 01-.9 2.16zm2.25.61v-9.6H145l2.34 7.23 2.34-7.24h2.4V60h-1.72v-7.42h-.05L148 60.05h-1.42l-2.39-7.47v7.47zm11.45 0v-9.6h6v1.35h-4.27v2.63h3.32v1.35h-3.32v2.91h4.35v1.36z"/></g><path fill="none" d="M0 0h210v61H0z"/></g></g></svg>