<svg xmlns="http://www.w3.org/2000/svg" width="210" height="64"><defs><style>.cls-1{fill:#666}</style></defs><g id="Layer_2" data-name="Layer 2"><g id="Layer_1-2" data-name="Layer 1"><g id="_8_txt02" data-name="8 txt02"><path id="패스_11428" data-name="패스 11428" class="cls-1" d="M29.75 9.87V1.38H31v8.49zm-7.95 2.61V9.07H23v2.32h8.19v1.09zm3.55-9.15a4.68 4.68 0 01-.21 1 8.08 8.08 0 003.28 2.74l-.75.94a10.6 10.6 0 01-3-2.47 6.85 6.85 0 01-2.8 2.82l-.91-.82a5.77 5.77 0 003.19-4.25h-2.71V2.22h2.62V1h1.23v1.22h2.64v1.11zm17.44 4.16h-1.23V2.72h-8.3V1.61h9.53zm.61.84v1.11h-4.76v3.29h-1.22V9.44h-4.77V8.33zm11.21 3.07v1.08H45v-3h8.3v-.73H45V7.67h9.52v2.91h-8.3v.82zM44.34 5.77H55.1v1.09H44.34zM54.55 5H45V1.61h9.52V2.7h-8.3v1.22h8.37zm11.27 2v5.66H64.6V1.38h1.23v4.48h1.57V7zm-2.12 4v1.1h-7.65V11h2.2V5.77h1.22V11zm-1.18-2.06H61.3V2.72h-4.76V1.61h6zM79.6 1.38h1.23v11.23H79.6zm-7.86 6.9l-1-.86a6.42 6.42 0 003.13-4h-2.58V2.35h2.63V1h1.22v1.35h2.66v1.09h-2.66c-.07.25-.13.48-.22.73a9.15 9.15 0 003.36 3.09l-.8.93a11.14 11.14 0 01-3.12-2.76 7.72 7.72 0 01-2.62 2.85zm-.94 3.83V11h3V8.14h1.22V11h3.68v1.1zm13.29-8.17V9.8c0 1 .43 1.34 1 1.34s1-.37 1-1.34V3.94c0-1-.43-1.34-1-1.34s-1 .36-1 1.34zM82.86 9.8V3.94a2.17 2.17 0 011.88-2.43 2.54 2.54 0 01.39 0 2.16 2.16 0 012.27 2.04 2.54 2.54 0 010 .39V9.8a2.16 2.16 0 01-1.88 2.41 2.48 2.48 0 01-.38 0 2.16 2.16 0 01-2.28-2.05 2.38 2.38 0 010-.36zm9.66-8.43v11.24H91.3V7h-1.47v5.48h-1.22v-11h1.22v4.41h1.47V1.38zm12 10.06v1.05h-9.71v-2.7h8.31v-.57h-8.31V8.15h9.53v2.66H96v.62zM94.2 6.5H105v1.06H94.2zm10.27-1.63v1.06h-9.66V3.25h8.31v-.59h-8.31v-1h9.53v2.63H96v.58zm7.53 7.49l.4-3h-1.34l-.4 3h-1.22l.4-3h-1.24V8.28h1.4l.35-2.57H109v-1.1h1.47l.42-3h1.22l-.42 3h1.34l.42-3h1.22l-.41 3h1.27v1.1h-1.42l-.35 2.57h1.34v1.09h-1.5l-.4 3zm.56-4.08l.35-2.57h-1.34l-.35 2.57zm13.6-6.9v11.23h-1.23V7h-1.83v5.48h-1.22v-11h1.22v4.41h1.83V1.38zm-9.53 10.73V1.61h1.22V11H121v1.1zm21.47-.72v1.09h-9.66V9.19h1.23v2.2zm-.06-5.65h-4.28v1.5h4.82v1.1h-10.74v-1.1h4.71v-1.5h-4.1V1.61H138V2.7h-8.3v2h8.37zm11.52-4.36v11.23h-1.23V7h-1.83v5.48h-1.22v-11h1.22v4.41h1.83V1.38zM140 12.11V1.61h1.22V11h3.13v1.1zm21.41-6.66h-9.6V1.61h9.53v1.08h-8.3v1.68h8.37zm-10.17 1.06H162V7.6h-10.76zm1.84 4.89h8.43v1.08h-9.66V8.71h9.53v1.06h-8.3zm13.53-2V7.85A2.64 2.64 0 01169.07 5h.41a2.65 2.65 0 012.87 2.4v2.04a2.65 2.65 0 01-2.47 2.8h-.41a2.61 2.61 0 01-2.87-2.8zm9.16-2.4v5.66h-1.22V1.38h1.22v4.48h1.59V7zm-7.94.9v1.54a1.52 1.52 0 001.33 1.69 1.13 1.13 0 00.32 0 1.53 1.53 0 001.66-1.38 1.16 1.16 0 000-.32V7.85a1.53 1.53 0 00-1.33-1.71h-.32a1.55 1.55 0 00-1.66 1.4v.32zm4.89-4h-6.47V2.72h2.6V1h1.22v1.71h2.65zm5.47-1.1V1.61h6v1.11h-2.55a20.82 20.82 0 01-.27 3.15 12.26 12.26 0 003.5 5.49l-.92.75a13.7 13.7 0 01-3-4.27 13.83 13.83 0 01-2.12 4.43l-1.1-.57a14.72 14.72 0 002.69-9zm8.06-1.34h1.22v4.41h1.59V7h-1.59v5.65h-1.22z"/><path id="패스_11344" data-name="패스 11344" d="M37.42 40.16v-15.4h4.9c3 0 4.5 1.68 4.5 4.08A3.65 3.65 0 0145 32.26a3.58 3.58 0 012.08 3.68c0 2.54-1.68 4.22-4.5 4.22zM40.84 37h1.1c1.22 0 1.74-.62 1.74-1.6s-.62-1.5-1.74-1.5h-1.1zm1.08-9h-1.08v2.72h1a1.35 1.35 0 001.53-1.15 1.22 1.22 0 000-.27c.03-.92-.55-1.3-1.45-1.3zm11.24 8.4h3.42c-.1 2.52-1.94 3.94-4.58 3.94S47.5 39 47.5 36.6v-4.32c0-2.44 1.88-3.76 4.5-3.76s4.52 1.32 4.52 3.76v3.5h-5.6v.54c0 .66.38.92 1.08.92s1.08-.24 1.16-.84zm-2.24-3.88V33h2.18v-.44c0-.66-.34-.88-1.1-.88s-1.08.18-1.08.84zm6.72 4.08v-4.32c0-2.36 1.68-3.76 4.5-3.76s4.52 1.4 4.52 3.76v4.32c0 2.34-1.7 3.74-4.52 3.74s-4.5-1.4-4.5-3.74zm3.42-3.86v3.4c0 .64.34 1 1.08 1s1.1-.38 1.1-1v-3.4c0-.66-.34-1-1.1-1s-1.08.34-1.08 1zm16.5-2.82c0 3.3-1.7 5.18-5.08 5.18h-1.1v5.06H68v-15.4h4.52c3.34 0 5.04 1.88 5.04 5.16zm-3.44 0c0-1.4-.62-2-1.84-2h-.9v3.98h.9c1.22 0 1.84-.56 1.84-1.98zm4.3 7.8V24.38h3.42v11.84c0 .56.18.76.84.76v3.18c-2.74.38-4.26-.1-4.26-2.44zm13.68-5.64v8.08H89l-.1-.62a3.72 3.72 0 01-2.24.7c-2 0-3.4-.84-3.62-2.92-.22-2.32 1.48-3.74 3.96-4.16a10 10 0 011.72-.16v-.58c0-.5-.3-.76-.9-.76s-1 .32-.94.92h-3.34c-.18-2.48 1.3-4.08 4.28-4.08s4.28 1.42 4.28 3.58zm-3.38 3.74a3.78 3.78 0 00-1.72.28.76.76 0 00-.58.68c0 .26.26.32.62.3.96-.08 1.68-.62 1.68-1.26zM95.94 40v-.06l-3.2-11.2h3.5l.66 2.88.7 4.14.5-4.12.52-2.9h3.52l-3.22 12.74A2.65 2.65 0 0196 43.54h-2.12v-3.2h1.5a.51.51 0 00.56-.34zm21.26-10c0 3.3-1.7 5.18-5.08 5.18H111v5.06h-3.4V24.76h4.52c3.38 0 5.08 1.88 5.08 5.16zm-3.44 0c0-1.4-.62-2-1.84-2H111v3.9h.9c1.24 0 1.86-.56 1.86-1.98zM118 40.16V36.1a3.33 3.33 0 011.34-3l3.5-2.66a1.74 1.74 0 00.58-1.36c0-.84-.34-1.32-1-1.32s-1 .54-1 1.5H118c0-3.22 1.8-4.7 4.42-4.7s4.42 1.48 4.42 4.52a4.73 4.73 0 01-1.72 4.1l-3.24 2.36a1.1 1.1 0 00-.46.84V37h5.42v3.18zM136.54 28v9.76c0 .94.34 1.12 1.46 1.12V42c-3.58 0-4.88-.94-4.88-4.12V27.76c0-3.2 1.3-4.14 4.88-4.14v3.2c-1.12 0-1.46.18-1.46 1.18zM139 40.16V36.1a3.33 3.33 0 011.34-3l3.5-2.66a1.74 1.74 0 00.58-1.36c0-.84-.34-1.32-1-1.32s-1 .54-1 1.5H139c0-3.22 1.8-4.7 4.42-4.7s4.42 1.48 4.42 4.52a4.73 4.73 0 01-1.72 4.1l-3.24 2.36a1.1 1.1 0 00-.46.84V37h5.42v3.18zm21.7 1.5h-6.2c-2.72 0-4.5-1.5-4.5-3.64s1.78-3.68 4.5-3.68h6.22c2.72 0 4.5 1.5 4.5 3.68s-1.78 3.64-4.5 3.64zm-1.88-17.28v8.84h-9v-8.84zm.56 8v-3h2.22v-1h-2.2v-3h2.22V24.2H165V34h-3.42v-1.64zm-4.9 6.48h6.22c.64 0 1-.36 1-.82a.89.89 0 00-.93-.87h-6.27c-.66 0-1 .38-1 .86s.34.81 1 .81zM153 30.5h2.64v-3.4H153zm15.36 7.22V28c0-.94-.34-1.14-1.48-1.14v-3.2c3.58 0 4.9.94 4.9 4.14v10.12c0 3.18-1.32 4.12-4.9 4.12v-3.2c1.12 0 1.48-.18 1.48-1.12z"/><path id="패스_11342" data-name="패스 11342" class="cls-1" d="M74.48 61.42v-9.6h3.22q3.35 0 3.35 2.82a2.47 2.47 0 01-1.74 2.47v.07l2.38 4.25h-1.87l-2.14-3.88H76.2v3.87zm1.72-5.07h1.32a1.86 1.86 0 001.34-.4 1.7 1.7 0 00.41-1.26 1.47 1.47 0 00-.42-1.18 2.08 2.08 0 00-1.35-.36h-1.3zm9.43 5.2a3.31 3.31 0 01-2.53-.95 3.72 3.72 0 01-.89-2.6v-.22a3.76 3.76 0 01.94-2.68 3.76 3.76 0 015 0 3.71 3.71 0 01.85 2.6v.2a3.69 3.69 0 01-.94 2.68 3.31 3.31 0 01-2.47 1zm0-1.22c1.14 0 1.71-.77 1.71-2.3v-.35a2.83 2.83 0 00-.47-1.85 1.62 1.62 0 00-1.28-.53 1.53 1.53 0 00-1.3.59 2.72 2.72 0 00-.45 1.73V58a2.74 2.74 0 00.48 1.84 1.68 1.68 0 001.32.53zM91 63.5a1.93 1.93 0 01-1-.24v-1.08a3.33 3.33 0 00.7.07 1.76 1.76 0 00.85-.18 1.22 1.22 0 00.5-.68l.2-.5-2.71-6.67h1.66l1.8 4.67 1.68-4.67h1.56l-2.8 7.4a3 3 0 01-.92 1.45 2.64 2.64 0 01-1.52.43zm8-2a2.42 2.42 0 01-1.64-.5 1.9 1.9 0 01-.6-1.53c0-1.21.77-1.93 2.31-2.15l1.69-.2v-.54a1.06 1.06 0 00-.36-1 2.43 2.43 0 00-1.3-.25 8 8 0 00-1.75.2V54.5a6.53 6.53 0 012.39-.4c1.75 0 2.63.71 2.63 2.14v5.18H101l-.12-.59h-.09a2.32 2.32 0 01-1.79.72zm.49-1.14a1.82 1.82 0 001.3-.43V58.2l-1.33.14a1.35 1.35 0 00-.82.3 1 1 0 00-.27.78.91.91 0 00.3.74 1.2 1.2 0 00.79.25zm4.47 1V51.19h1.62v10.23zm6.73 0v-9.6H114c2.11 0 3.16.81 3.16 2.42a2 2 0 01-1.56 2.1 2.15 2.15 0 012 2.28 2.51 2.51 0 01-.85 2 3.72 3.72 0 01-2.49.75zm1.71-1.29h1.6c1.19 0 1.78-.51 1.78-1.55a1.4 1.4 0 00-.47-1.17 2.33 2.33 0 00-1.41-.36h-1.55zm0-4.22h1.34c1.18 0 1.77-.48 1.77-1.43a1.28 1.28 0 00-.42-1.07 2.06 2.06 0 00-1.28-.31h-1.41zm6.48 5.51V51.19h1.62v10.23zm5.36.13c-1.45 0-2.18-.7-2.18-2.1v-5.18h1.61v4.93a1.16 1.16 0 00.26.86 1.34 1.34 0 00.91.25 4 4 0 001.61-.44v-5.6H128v7.21h-1.4l-.14-.63h-.07a3.67 3.67 0 01-2.18.76zm8.53 0a3.51 3.51 0 01-2.67-.95 3.78 3.78 0 01-.9-2.69v-.2a3.66 3.66 0 01.9-2.65 3.23 3.23 0 012.37-.93 2.85 2.85 0 012.31.86 4 4 0 01.74 2.62v.67h-4.7a2.15 2.15 0 00.63 1.57 2.38 2.38 0 001.61.46 4.67 4.67 0 002.23-.53v1.12a4.49 4.49 0 01-2.55.71zm-.3-6.26q-1.49 0-1.62 1.86h3.07a2.34 2.34 0 00-.36-1.43 1.36 1.36 0 00-1.12-.37z"/></g><path fill="none" d="M0 0h210v64H0z"/></g></g></svg>