<svg xmlns="http://www.w3.org/2000/svg" width="240" height="77"><defs><style>.cls-1{fill:#666}</style></defs><g id="Layer_2" data-name="Layer 2"><g id="Layer_1-2" data-name="Layer 1"><g id="_8_txt03" data-name="8 txt03"><path id="패스_11408" data-name="패스 11408" class="cls-1" d="M37.25 9l-.92-1.12A9.2 9.2 0 0042.46 1l1.54.28a8.56 8.56 0 01-.61 2 12.36 12.36 0 006.23 4l-.79 1.2a14 14 0 01-6.14-3.9A11.09 11.09 0 0137.25 9zm12.32 3.81v1.36H36.33v-1.32h5.88v-4.4h1.5v4.4zm.76-5.55h13.24v1.38H50.33zm9-1h-4.79c-2.4 0-3.6-.91-3.6-2.64S52.14 1 54.54 1h4.82C61.77 1 63 2 63 3.62s-1.22 2.64-3.64 2.64zm-4.79-1.32h4.82c1.5 0 2-.56 2-1.32s-.53-1.31-2-1.31h-4.82c-1.34 0-2 .56-2 1.31s.46 1.32 2 1.32zm8.27 4.92v4.8H51.09v-4.8zm-10.22 3.48h8.72v-2.15h-8.72zM76.67 1v13.82h-1.5V1zM66.29 5.51V10c0 2.1.75 3 2.19 3s2.17-.9 2.17-3V5.51c0-2.11-.75-3-2.17-3s-2.19.89-2.19 3zM64.79 10V5.51c0-2.95 1.5-4.37 3.7-4.37s3.68 1.42 3.68 4.37V10c0 2.91-1.5 4.34-3.68 4.34s-3.71-1.4-3.71-4.34zM94 1v7.77h-1.5V1zM83 14.66l-1.12-1A6.18 6.18 0 0085.42 9l1.43.2a6 6 0 01-.42 1.68A7.69 7.69 0 0088.49 13a6.07 6.07 0 002.18-4l1.44.2a5.39 5.39 0 01-.42 1.8A12.86 12.86 0 0095 13.43l-.87 1.17A16.39 16.39 0 0191 12.26a8.2 8.2 0 01-2.48 2.46 10.41 10.41 0 01-2.85-2.52A7.83 7.83 0 0183 14.66zm.5-10.12a2.1 2.1 0 002 2.17h.17a2.1 2.1 0 002.19-2v-.17a2.1 2.1 0 00-2-2.2h-.19a2.09 2.09 0 00-2.18 2zm-1.5 0A3.51 3.51 0 0185.46 1h.22a3.5 3.5 0 013.69 3.31 1.69 1.69 0 010 .23 3.5 3.5 0 01-3.47 3.52h-.22A3.51 3.51 0 0182 4.74v-.2zm15.5 0a2.08 2.08 0 002 2.17h.13a2.08 2.08 0 002.11-2 .53.53 0 000-.13 2.07 2.07 0 00-1.95-2.19h-.15a2.08 2.08 0 00-2.14 2zm-1.5 0A3.48 3.48 0 0199.42 1h.2a3.48 3.48 0 013.6 3.35v.19a3.47 3.47 0 01-3.42 3.52h-.18A3.48 3.48 0 0196 4.73v-.19zm1 10.12l-1.12-1A6.18 6.18 0 0099.42 9l1.43.2a6 6 0 01-.42 1.68 7.69 7.69 0 002.06 2.12 6.07 6.07 0 002.18-4l1.44.2a5.39 5.39 0 01-.42 1.78 12.86 12.86 0 003.31 2.45l-.87 1.17a16.39 16.39 0 01-3.1-2.34 8.2 8.2 0 01-2.48 2.46 10.41 10.41 0 01-2.85-2.52 7.83 7.83 0 01-2.7 2.46zM106.53 1H108v7.78h-1.5V5.2h-2.7V3.84h2.7zm3.17 6.91h13.23v1.36h-13.24zm12.63 5.41v1.34h-11.88v-4.19H112v2.85zm-11.88-7.25V1.14H112v3.62h10.38v1.31zm19.37 6.78v1.36h-5.52V1.28h5.14v1.36h-3.63v10.21zm3-11.79v13.6h-1.5V8.05h-3.24V6.71h3.23V1.06zM136 14.82h-1.5V1h1.5zm6.83-10.28a2.08 2.08 0 002 2.17h.17a2.08 2.08 0 002.1-2v-.18a2.09 2.09 0 00-2-2.19h-.1a2.07 2.07 0 00-2.12 2zm-1.5 0A3.49 3.49 0 01144.77 1h.23a3.47 3.47 0 013.6 3.34v.2a3.47 3.47 0 01-3.42 3.52H145a3.48 3.48 0 01-3.62-3.33v-.19zm8.85 4.51l1.41.14a6.34 6.34 0 01-.3 1.63 9.11 9.11 0 003.05 2.64l-.93 1.14a11.86 11.86 0 01-2.75-2.39 6.92 6.92 0 01-2.36 2.45l-.65-.59v.59h-5.57V9.11h1.54v1.43h2.53V9.11h1.5v4.25A5.62 5.62 0 00150.21 9zm-4 2.76h-2.56v1.55h2.56zM151.89 1h1.5v7.47h-1.5V5.2h-2.71V3.84h2.7zm3.87 5l-.7-1.24c2.81-.35 5.23-1.42 6.06-3.8l1.55.22a6.69 6.69 0 01-.44.94 12.19 12.19 0 006.06 2.44l-.63 1.21a13.69 13.69 0 01-6.25-2.51A9.05 9.05 0 01155.76 6zm11.77 3.07v5.55h-11.72V9.11h1.5v1.36H166V9.11zm-10.22 4.23H166v-1.5h-8.72zm-2.26-6.47h13.24v1.38h-13.24zM181.39 1v13.82h-1.5V1zm-11.73 13.21V1.28h1.5v11.57h7.22v1.36zm22.42 0h-8.42V1.28h7.52v1.36h-6v10.21h6.91zm3-6.35v7h-1.51V1h1.5v5.52h2v1.34zm4.1 6.21h-1.81v-1.79h1.8z"/><path id="패스_11360" data-name="패스 11360" d="M38.17 44.17l-2.5-3.24a12.32 12.32 0 008.38-9.62l4.4.67a14.39 14.39 0 01-1 3.41A17.14 17.14 0 0056 40.17l-2.3 3.36a17.82 17.82 0 01-8.35-4.68 16.6 16.6 0 01-7.18 5.32zm17.57 3.6v3.82H35.89v-3.82h7.64V43H48v4.82zm2.43 3.6v-19.6h4.1v15.79h8.3v3.81zm18.28-19.82v20.74h-4.1V31.55zM79.77 47v-4.51a4.28 4.28 0 013.92-4.62 3.88 3.88 0 01.59 0 4.23 4.23 0 014 2.26h1.51v-8.48h3.72v20.4h-3.74v-8.14h-1V47a4.29 4.29 0 01-4 4.58h-.55a4.28 4.28 0 01-4.52-4 3.49 3.49 0 01.07-.58zm3.72-4.51V47a.82.82 0 00.71.93h.08c.45 0 .79-.34.79-.94v-4.5c0-.62-.34-1-.79-1s-.79.34-.79 1zm10.77 9.79V31.55h3.79v20.74zM79.33 37.09v-3.74h2.88v-2.5h3.94v2.5H89v3.74zm41.21 10.68v3.82h-19.85v-3.82zm-.67-7.65V44h-18.26V31.77h18v3.84h-13.9v4.51zm5.21-8.57h3.84a28.74 28.74 0 01-.27 4.15 12.9 12.9 0 004.18 5.16l-2.52 2.45a12.6 12.6 0 01-2.88-3A11.07 11.07 0 01125 44l-3.12-1.88c2.53-2.55 3.2-6.12 3.2-10.57zm16.17 12.84h-3.81V31.55h3.82zM134 45.85a16.11 16.11 0 007.8 3.12l-1.73 3.32a19.14 19.14 0 01-8.18-3.6 13.47 13.47 0 01-7.25 3.67l-2.26-3.22c4-.5 7.25-2.69 8.33-5.66l3.84 1.1a8.4 8.4 0 01-.55 1.27zm-1.2-14.2h3.7v12h-3.7V38h-2.4v-3.57h2.4zm21.07 4.41v11.71c0 1.13.41 1.35 1.75 1.35V53c-4.3 0-5.85-1.13-5.85-5V35.82c0-3.84 1.56-5 5.85-5v3.84c-1.31.03-1.72.27-1.72 1.4zm8.43 14.64h-4.1V36.06h-1.57v-3.84h5.67zm9.28-4.61v-9.24c0-.7-.5-1-1.17-1s-1.2.34-1.2 1v9.24c0 .68.5 1 1.2 1s1.2-.32 1.2-1zm4.13-9.48v9.7c0 2.81-1.82 4.61-5.3 4.61s-5.3-1.8-5.3-4.61v-9.7c0-2.81 1.8-4.63 5.3-4.63s5.33 1.83 5.33 4.63zm15.34 15.89h-7.46c-3.26 0-5.4-1.8-5.4-4.37s2.14-4.41 5.4-4.41h7.46c3.27 0 5.4 1.8 5.4 4.41s-2.13 4.37-5.4 4.37zm-2.25-20.73v10.6H178v-10.6zm.67 9.57v-3.62h2.66v-1.23h-2.66v-3.62h2.66v-1.32h4.11v11.76h-4.1v-2zm-5.88 7.78h7.46c.77 0 1.23-.43 1.23-1a1.09 1.09 0 00-1.12-1h-7.57c-.79 0-1.22.46-1.22 1s.43 1 1.22 1zm-1.8-10H185V35h-3.17zm18.43 8.66V36.06c0-1.13-.41-1.37-1.77-1.37v-3.84c4.3 0 5.88 1.13 5.88 5V48c0 3.82-1.59 4.94-5.88 4.94v-3.82c1.36 0 1.77-.22 1.77-1.35z"/><path id="패스_11358" data-name="패스 11358" class="cls-1" d="M59.63 75.76l-2.73-11h2l1.87 8.13 2.24-8.13h1.6l2.21 8.13 1.89-8.13h1.78l-2.69 11h-2l-2.15-8-2.18 8zm12.26 0v-11h2v4.53h4.67v-4.51h2v11h-2v-4.9h-4.7v4.9zm10.37-3.67v-1.53h4.4v1.53zm7.18 3.73v-9l-1.84.36V66l2.79-1.25h1v11.07zm8.27.13a4 4 0 01-3.08-1.3 5.75 5.75 0 01-1.17-4V70a8 8 0 01.34-2.48 4.16 4.16 0 011-1.67 3.86 3.86 0 011.3-.85 4.52 4.52 0 011.63-.29 3.93 3.93 0 013 1.28 5.76 5.76 0 011.18 4v.69a5.81 5.81 0 01-1.18 4A4 4 0 0197.71 76zm0-1.5a1.83 1.83 0 001.67-.87 5.59 5.59 0 00.54-2.81V70c0-2.51-.73-3.76-2.19-3.76a1.84 1.84 0 00-1.68.87 5.44 5.44 0 00-.54 2.78v.85c0 2.5.73 3.75 2.2 3.75zm9.94 1.5a4 4 0 01-3.09-1.3 5.8 5.8 0 01-1.17-4V70a8.31 8.31 0 01.35-2.48 4.12 4.12 0 011-1.66A3.72 3.72 0 01106 65a4.31 4.31 0 011.63-.29 3.93 3.93 0 013 1.28 5.75 5.75 0 011.18 4v.69a5.79 5.79 0 01-1.18 4 4 4 0 01-2.98 1.32zm0-1.5a1.83 1.83 0 001.66-.87 5.5 5.5 0 00.55-2.81V70c0-2.51-.73-3.76-2.19-3.76a1.83 1.83 0 00-1.68.87 5.45 5.45 0 00-.55 2.78v.85c0 2.5.74 3.75 2.21 3.75zm9.94 1.5a4 4 0 01-3.09-1.3 5.84 5.84 0 01-1.17-4V70a8 8 0 01.34-2.48 4.14 4.14 0 011-1.66A3.86 3.86 0 01116 65a4.3 4.3 0 011.62-.29 3.93 3.93 0 013.03 1.29 5.75 5.75 0 011.18 4v.69a5.8 5.8 0 01-1.19 4 4 4 0 01-3.05 1.31zm0-1.5a1.82 1.82 0 001.66-.88 5.45 5.45 0 00.54-2.81V70c0-2.51-.73-3.76-2.19-3.76a1.85 1.85 0 00-1.68.87 5.44 5.44 0 00-.54 2.78v.84c0 2.51.73 3.76 2.21 3.76zm5.28 1.31l3.47-5.62-3.25-5.36h2.19l2.45 4h.06l2.26-4h2l-3.18 5.34 3.39 5.64h-2.19l-2.58-4.28-2.59 4.28zm10.76 0v-11h2.77l2.67 8.27h.05l2.67-8.27h2.76v11h-2v-8.53h-.07l-2.75 8.53h-1.61l-2.74-8.53v8.53zm15.57.15a7.57 7.57 0 01-1.83-.22 4.84 4.84 0 01-1.38-.54l.32-1.43a3.77 3.77 0 001.17.44 6 6 0 001.39.19 2.75 2.75 0 001.72-.47 1.59 1.59 0 00.61-1.37c0-1.09-.75-1.64-2.27-1.66h-1.14v-1.46h1a2.63 2.63 0 001.54-.46 1.36 1.36 0 00.57-1.17q0-1.5-1.95-1.5a5.52 5.52 0 00-2.33.57l-.23-1.45a5 5 0 011.39-.49 7.42 7.42 0 011.68-.2 3.9 3.9 0 012.48.71 2.39 2.39 0 01.93 2 2.57 2.57 0 01-2 2.56 2.53 2.53 0 012.34 2.69 2.92 2.92 0 01-1.09 2.4 4.59 4.59 0 01-2.92.86zm11.24-.85a4.23 4.23 0 01-2.93.88 6.88 6.88 0 01-3.28-.7v-1.55a7.61 7.61 0 003.12.67c1.4 0 2.1-.53 2.1-1.6a1.31 1.31 0 00-.35-1 3.28 3.28 0 00-1.25-.63l-1-.29a3.79 3.79 0 01-1.87-1.07 3 3 0 01-.63-2 2.93 2.93 0 01.93-2.28 4 4 0 012.72-.89 6 6 0 012.83.6v1.53a7.09 7.09 0 00-2.8-.54 2.15 2.15 0 00-1.33.35 1.2 1.2 0 00-.46 1 1.4 1.4 0 00.3 1 2.33 2.33 0 001.11.55l1 .32a4.64 4.64 0 012.09 1.1 2.87 2.87 0 01.68 2.08 3.17 3.17 0 01-1 2.48zm2.57.7v-11h2.77l2.67 8.27h.05l2.67-8.27h2.75v11h-2v-8.53h-.06l-2.75 8.53h-1.62l-2.73-8.53v8.53zm13.09 0v-11h6.9v1.55h-4.88v3h3.79v1.54h-3.79v3.35h5v1.56z"/></g><path fill="none" d="M0 0h240v77H0z"/></g></g></svg>