<svg xmlns="http://www.w3.org/2000/svg" width="540" height="97"><g data-name="Layer 2"><g data-name="Layer 1"><g data-name="9 tit"><g data-name="그룹 4672"><path data-name="패스 11531" d="M67.56 34.44v-1h25.62V22.05H57.06v5.33h25.62v1.09H57.06v11.3h36.12v-5.33zM57.06 1.55v12h36.12V8.44H66.73V6.67h26.45V1.55zm-1.25 13.27v6h38.64v-6zm53.75 19.62v-1h25.62V22.05H99.06v5.33h25.62v1.09H99.06v11.3h36.12v-5.33zm26.05-27.3c0-3.95-3.74-6.64-18.48-6.64S98.65 3.19 98.65 7.14s3.73 6.63 18.48 6.63 18.48-2.69 18.48-6.63zm-37.8 7.68v6h38.64v-6zm28.56-7.68c0 .8-.47 1.3-9.25 1.3s-9.24-.5-9.24-1.3.47-1.3 9.24-1.3 9.25.5 9.25 1.3zM159.08 12l7.23 12.22H178l-9.4-14.7h-8l5-8.4h-11.09l-14.28 23.1h11.55zm-19.27 13.9v8.4h14.49v5.88h9.7v-5.87h14.49v-8.4zm69.72-19.35v1.26h-26.47v10.83h13.23v1.26h-14.48v6.39h38.64V19.9H206v-1.26h13.23v-5h-26.5v-1.26h26.46V1.55h-36.13v5zm0 27.17v6.05h9.66V27.55h-36.13v6.17zm26.07-11.17c0 11.89 3.45 16.8 12.39 16.8s12.39-4.91 12.39-16.8v-4.2c0-11.89-3.44-16.8-12.39-16.8s-12.39 4.91-12.39 16.8zm36.51-8.19V.71h-9.66v38.22h9.66V23.6h3.36v-9.24zm-21 7.77c0 7.64-.84 9.24-3.15 9.24s-3.15-1.6-3.15-9.24v-3.36c0-7.64.84-9.24 3.15-9.24s3.15 1.6 3.15 9.24zm26.42-9.66v26.46L302.35 36v-8.4l-15.12 1.8v-8.53h15.12v-8.4zM315.78.71h-9.65v38.22h9.65zM277.57 2v8.4h24.78V2zm61.36 10.29l7.9 14.07h11.71L348.38 9.53h-7.86l4.88-8.4h-11.13l-15 25.2h11.55zm-19.36 18.24v8.4h38.63v-8.4zm52.91-10.71v-2.31h26V11h-35.65v16H399v-7.18zm-10.92 10.71v8.4h38.64v-8.4zm1.27-29v7.16H399V1.55zm69.72-.82H425v14.07h-2.6c-.5-9.58-3.49-13.23-9.58-13.23-6.72 0-9.66 4.45-9.66 16.38v5c0 11.93 2.94 16.38 9.66 16.38s9.62-4.41 9.66-16.17H425v15.79h7.56zm9.24 0h-7.56v38.22h7.56zM414.9 22.13c0 7.48-.42 9.24-2.1 9.24s-2.1-1.76-2.1-9.24v-3.36c0-7.48.42-9.24 2.1-9.24s2.1 1.76 2.1 9.24zM474.54.71H467v14.07h-2.56c.05-1.68.05-3.44.05-5.25V2h-19.34v8.4h10.5c0 5.17-.17 9.7-.5 14.28a127.47 127.47 0 01-2 14.28H462a127.4 127.4 0 002-14.73 7.42 7.42 0 01.08-1.05H467v15.75h7.56zm9.24 0h-7.55v38.22h7.55z"/><path data-name="패스 11530" d="M9.69 82.75v13.44h38.22V82.75zM22.08 66c-8.91 0-12.81 2.48-12.81 7.56s3.9 7.56 12.81 7.56 12.81-2.39 12.81-7.56S31 66 22.08 66zm25.83-9.24h-9.66v24.31h9.66zm-21 1.68v-2.99h-9.66v2.94H9.69v6.72h24.78v-6.72zm-8 30h19.75v2.1H18.92zm3.16-16.17c3.48 0 4.4.25 4.4 1.26s-.92 1.26-4.41 1.26-4.41-.25-4.41-1.26.94-1.28 4.43-1.28zm67.84-15.56h-9.66v38.22h9.66zM51.73 78.55c0 11.89 3.44 16.8 12.39 16.8s12.39-4.91 12.39-16.8v-4.2c0-11.89-3.45-16.8-12.39-16.8s-12.39 4.91-12.39 16.8zm15.54-.42c0 7.64-.84 9.24-3.15 9.24S61 85.77 61 78.13v-3.36c0-7.64.84-9.24 3.15-9.24s3.15 1.6 3.15 9.24zM93.69 58v23.1h25.62v-8h-16V66h16v-8zm38.22-1.26h-9.66v38.19h9.66zm-30 29.82h-9v8.4h27.3v-8.4h-9v-3.81h-9.24zM146.6 66v-8.4h-9.66v14.86h36.12V66zm0 23.31v-6.77h-9.66v13.23h36.12v-6.51zm-10.91-15.17v6.72h38.64v-6.72z"/><path data-name="패스 11529" d="M225.81 63.64H221l1-5.64h-8.52l-1.06 5.67h-5.37l1-5.67h-8.52l-1.05 5.67h-5.5l-1.52 8.23H197l-1.6 8.74h-5.5l-1.51 8.23h5.5l-1.05 5.67h8.53l1.05-5.67h5.38l-1.05 5.67h8.52l1.05-5.67h4.83l1.51-8.23h-4.83l1.61-8.74h4.83zm-20.24 8.23H211l-1.6 8.74H204zm61-15.16h-7.77v14.07h-2.1V56.71h-7.77v38.22h7.77V79.18h2.1v15.75h7.77zm-29.83 28.48V58h-8.82v37l19.32-3v-8.4zm44.52-19v-2.34h26.46v-6.3h-36.13v14.91h13.23v1.68h-14.48v6.72H309v-6.72h-14.51v-1.68h13.23v-6.3zm0 23.1v-6.75h-9.67v13.23h36.12v-6.51zm69.3-32.55h-7.77v14.04h-2.1V56.71h-7.77v38.22h7.77V79.18h2.1v15.75h7.77zm-29.82 28.45V58h-8.82v37l19.32-3v-8.4zm34.86-3.49v14.07h36.12v-6.22h-26.46V88h26.46v-6.3zm9.66-16.17v-1.89h26.46v-6.09H355.6v14.07h36.12v-6.09zm-10.92 7.77V80H393v-6.7zm53.76 21.63L432.88 92V58h-9.24v10.5h-6.3V58h-9.24zm36.53-24.57V56.71H435v38.22h9.66V79.6H448v-9.24zm-27.3 6.09h6.3v8.65l-6.3.76zm71-19.74h-9.66v38.22h9.66zm-38.19 21.84c0 11.89 3.44 16.8 12.39 16.8s12.39-4.91 12.39-16.8v-4.2c0-11.89-3.45-16.8-12.39-16.8s-12.39 4.91-12.39 16.8zm15.54-.42c0 7.64-.84 9.24-3.15 9.24s-3.15-1.6-3.15-9.24v-3.36c0-7.64.84-9.24 3.15-9.24s3.15 1.6 3.15 9.24zm54.55-20.58V63h-17.64v-5.45h-9.24v24.78h36.12V57.55zm-28.14 29v8.4h38.64v-8.4zm10.5-16h17.64v3.78h-17.64z" fill="#ff006b"/></g></g><path fill="none" d="M0 0h540v97H0z"/></g></g></svg>