<svg xmlns="http://www.w3.org/2000/svg" width="375" height="69"><g data-name="Layer 2"><g data-name="Layer 1"><g data-name="4 tit"><path data-name="패스 11253" d="M117 6h-3.2l.7-3.78h-5.68l-.7 3.78h-3.59l.7-3.78h-5.68L98.85 6h-3.67l-1 5.49h3.67l-1.06 5.82h-3.68l-1 5.49h3.67l-.7 3.78h5.68l.7-3.78H105l-.7 3.78h5.7l.7-3.78h3.22l1-5.49h-3.22l1.06-5.82H116zm-13.5 5.49h3.58L106 17.27h-3.58zm40.68-10.15H139v9.38h-1.4V1.34h-5.18v25.48h5.18v-10.5h1.4v10.5h5.18zm-19.88 19V2.18h-5.88v24.64l12.88-2v-5.6zM154 7.64V6.1h17.64V1.9h-24.1v9.94h8.82V13h-9.66v4.48h25.76V13h-9.66v-1.16h8.82v-4.2zM154 23v-4.44h-6.44v8.82h24.08V23zm46.2-21.7H195v9.38h-1.4V1.34h-5.18v25.48h5.18v-10.5h1.4v10.5h5.18zm-19.88 19V2.18h-5.88v24.64l12.88-2v-5.6zm23.22-2.3v9.38h24.08v-4.14H210v-1h17.64V18zM210 7.22V6h17.64V1.9h-24.1v9.38h24.08V7.22zm-7.3 5.18v4.48h25.76V12.4zm44.52 5.32c0-5.68-2.46-9.38-8.26-9.38s-8.26 3.7-8.26 9.38 2.46 9.38 8.26 9.38 8.26-3.7 8.26-9.38zm7.84-7.28v-9.1h-6.44v25.48h6.44V16.6h2.24v-6.16zm-12.88-7.7V.5h-6.44v2.24h-5v5h16.52v-5zm-1.12 15c0 3-.62 4.06-2.1 4.06s-2.1-1.09-2.1-4.06.62-4.06 2.1-4.06 2.1 1.07 2.1 4.04zM258.7 2.18V17l16.52-1.4v-1.1h2.52v4.76h6.44V1.34h-6.44v2.24h-2.52v-1.4zm0 16v9.52h25.48v-5.36h-19v-4.2zm6-10.64h4.48v3.33l-4.48.37zm10.5.56h2.52v2h-2.52zM53.32 41.34h-6.44v3.92h-3.16c-1-2.74-3.73-4.2-8.18-4.2-5.6 0-8.54 2.3-8.54 6.58s2.94 6.58 8.54 6.58c4.14 0 6.83-1.23 8-3.64h3.39v3.92h6.44zM34.84 64v-.84h18.48v-7.82H27.84V59h18.48v.84H27.84v7.84h25.48V64zm.7-14.56c-2.24 0-2.94-.67-2.94-1.82s.7-1.82 2.94-1.82 2.94.67 2.94 1.82-.7 1.84-2.94 1.84zm20.3-7.28v24.66l16.24-1.93V42.18zm24.36 8.28v-9.1h-6.44v25.48h6.44V56.6h2.24v-6.16zM62 47.5h3.92v12.82l-3.92.45zm28.28 13V42.18h-6.44v24.64l16.52-2v-5.6zm17.92-10v-9.1h-6.44v25.42h6.44V56.6h2.24v-6.16zm4.2 17.78h3.92l1.4-7.17h-5.32zm12.35-12.38c0 7.92 2.3 11.2 8.26 11.2s8.15-3.14 8.26-10.64h2.49v10.36h6.44V41.34h-6.44v9.24h-2.6c-.48-6.1-2.86-8.68-8.15-8.68-6 0-8.26 3.28-8.26 11.2zm10.36-.28c0 5.1-.56 6.16-2.1 6.16s-2.1-1.06-2.1-6.16v-2.24c0-5.1.56-6.16 2.1-6.16s2.1 1.06 2.1 6.16zM178.76 64c0-2.8-2.24-4.06-13.3-4.06s-13.3 1.26-13.3 4.06 2.24 4.06 13.3 4.06 13.3-1.24 13.3-4.06zm-10.08-8.4v-1.4h-6.44v1.4h-9.8v3.8h26v-3.78zM158 49v-2.2h2.66v-4.62h-8.26v11.76l8.26-.53v-4.62zm20.44-7.62h-5.84v3.92h-2.24v5.32h2.24v3.88h5.88zm-11.34 7V46.8h2.66v-4.62h-8.26v11.17l8.26-.53V48.2zM172.32 64c0 .5-.42.7-6.86.7s-6.86-.2-6.86-.7.42-.7 6.86-.7 6.86.22 6.86.7zM200 41.34h-5v9.38h-1.71v-8.5h-12.85v5.6h7c0 3.44-.11 6.47-.34 9.52a82.59 82.59 0 01-1.34 9.52h5.88A83.09 83.09 0 00193 57c0-.23 0-.47.06-.7H195v10.5h5zm6.16 0h-5v25.48h5zm10.36 25.48l16.52-2V42.18h-6.16v7h-4.2v-7h-6.16zm24.36-16.38v-9.1h-6.44v25.48h6.44V56.6h2.24v-6.16zm-18.2 4.06h4.2v5.77l-4.2.5zm47.6-13.16h-5.88v25.48h5.88zM244 56.46v5.6h6.44v5.6h6.16v-5.6h6.4v-5.6zm9.38-14.28h-9.1v5.6h2.77l-.56 7.56h5.88zm9.66 0h-8.82v5.6h2.49l-.56 7.56H262zm16 18.28V42.18h-6.44v24.64l16.52-2v-5.6zm17.92-10v-9.1h-6.44v25.46h6.44V56.6h2.24v-6.16zm28.84-1c0-5.26-3.81-8.12-12.32-8.12s-12.32 2.86-12.32 8.12 3.81 8.12 12.32 8.12 12.28-2.86 12.28-8.12zm-9.94 11.76h-4.76v-2.8h-6.44v2.8h-4.06v5.6h25.76v-5.6h-4.06v-2.8h-6.44zm3.78-11.76c0 2-1.29 2.8-6.16 2.8s-6.16-.84-6.16-2.8 1.29-2.8 6.16-2.8 6.12.84 6.12 2.8zm18.7 2.18c-2.16 0-2.8.82-2.8 2.8v5.21h6.24v-2.6c5.35-.75 7.54-3.47 7.54-7.61 0-4.9-3.2-7.82-10.36-7.82s-10.36 2.91-10.36 7.53v.48h6.4v-.48c0-1.43 1.23-1.93 3.89-1.93s3.89.5 3.89 2.21-1.09 2.21-4.31 2.21zm3.44 14.9v-5.49h-6.28v5.49z" fill="#fff"/></g><path fill="none" d="M0 0h375v69H0z"/></g></g></svg>