<svg xmlns="http://www.w3.org/2000/svg" width="210" height="64"><defs><style>.cls-1{fill:#666}</style></defs><g id="Layer_2" data-name="Layer 2"><g id="Layer_1-2" data-name="Layer 1"><g id="_8_txt04" data-name="8 txt04"><path id="패스_11404" data-name="패스 11404" class="cls-1" d="M32.89 1.23v10.5h-5.5V1.23h1.22V4.9h3.06V1.23zm3.78 5.35v5.65h-1.22V1h1.22v4.49h1.59v1.09zm-8.06 4.05h3.06V6h-3.06zM48.62 1v11.23H47.4V1zm-8.44 3.67v3.66c0 1.7.61 2.43 1.78 2.43s1.77-.73 1.77-2.43V4.67c0-1.72-.61-2.45-1.77-2.45s-1.78.78-1.78 2.45zM39 8.33V4.67c0-2.4 1.22-3.55 3-3.55s3 1.15 3 3.55v3.66c0 2.37-1.22 3.52-3 3.52s-3-1.15-3-3.52zm21.47-7.1v6.85h-9.56V1.23h1.22v2.21h7.08V1.23zM52.13 7h7.08V4.54h-7.08zm8.92 3.65v1.11H50.29v-1.13zm7.61-7.07v2.31h2.15V7h-2.15v2.55h-1.22V7h-2.13V5.89h2.13V3.56zm12.39-2.35v10.5h-5.5V1.23zm-4.27 9.4h3V2.34h-3zm8.06-4.05v5.65h-1.23V1h1.22v4.49h1.59v1.09zM96.78 1v11.23h-1.22V1zm-8.43 3.67v3.66c0 1.7.61 2.43 1.78 2.43S91.9 10 91.9 8.33V4.67c0-1.72-.62-2.45-1.77-2.45s-1.78.78-1.78 2.45zm-1.23 3.66V4.67c0-2.4 1.23-3.55 3-3.55s3 1.15 3 3.55v3.66c0 2.37-1.22 3.52-3 3.52s-3-1.15-3-3.52zm21.48 1.22h-1.22V6.73h-8.31V5.64h8.31v-3.3h-8.31V1.23h9.53zm.61 1.08v1.11H98.46v-1.11zm9.79-3.4v1.1h-5.5v-1.1zm0-2.69v1.1h-5.5v-1.1zm4.45 6.7v-2a2.48 2.48 0 011.26-2.44l1.9-1.24a1.81 1.81 0 00.87-1.62c0-1-.42-1.47-1.4-1.47s-1.4.5-1.4 1.47h-1.23a2.32 2.32 0 012-2.57 2.58 2.58 0 01.62 0 2.29 2.29 0 012.61 1.93 1.9 1.9 0 010 .63 2.71 2.71 0 01-1.38 2.51l-1.87 1.21a1.59 1.59 0 00-.79 1.55v1h4v1.08zm10-6.34h1.22v3.19h1.09v1.09h-1.16v2.06h-1.22V9.18h-3.8v-.85l3.3-7h1.35l-3 6.73h2.2zm5.22-3.78h1.23a29.71 29.71 0 01-.25 3.77 13.13 13.13 0 003.35 6l-.9.83a13.52 13.52 0 01-2.87-4.54 17.2 17.2 0 01-1.78 4.69l-1.09-.57a20.67 20.67 0 002.24-10.18zM145.2 1h1.23v11.23h-1.22zm3.4.24h5.74v.9c0 3.14-2.65 5.3-5.68 5.74l-.58-1c3-.38 4.9-2.13 5-4.51h-4.48zm10.87 3.13v1.1h-1.59v4h-1.22V1h1.22v3.37zM158.13 11v1.1h-9.28V8.57h1.22V11zM173 8.94h-1.22v-3h-8.31V4.78h8.31V2.34h-8.31V1.23H173zm.61 1.69v1.11h-10.75v-1.11h3.91V7.42H168v3.21zm1.56-9.51h1.23v4.7h8.43v1.1h-9.66zm10.14 9.51v1.11h-10.75v-1.11h4.77V7.55h1.22v3.08z"/><path id="패스_11350" data-name="패스 11350" d="M30.45 39.18v2.3H15.23v-5h11.62V36H15.23v-2.3h15v5H18.65v.48zm-16-8.3H31v2.34H14.47zm12.4-2.78v-.66h-8.2v.66zm3.42-3.72v6h-15v-6h3.42v.86h8.2v-.86zm18 0v6.26H36.65v.94h11.8v2.74H33.23V28h11.62v-.88H33.23v-2.74zm-5.64 17.28h-3.76v-3.28h-6.4v-3.16H49v3.16h-6.37zM66.27 28v2.64H54.65v.94h11.8v2.74H51.23v-9.94h15v2.74H54.65V28zm-5.64 13.66h-3.76v-3.28h-6.4v-3.16H67v3.16h-6.37zM85 37.72v3.18H68.47v-3.18zm-14.64-3L68.29 32a10.28 10.28 0 007-8l3.66.56a11.74 11.74 0 01-.84 2.84 14.21 14.21 0 007.12 4l-1.92 2.8a14.86 14.86 0 01-7-3.9 13.81 13.81 0 01-5.94 4.42zm30.7-10.34v16.34h-9.33V24.38zm5.52 9.3v7.8h-3.42V24.2h3.42v6.1h2.06v3.38zM95 37.58h2.88v-10H95zm30-13.38v17.28h-3.42V24.2zm-5.64 5.06v6.58c0 3.18-1.88 5.06-4.9 5.06s-4.88-1.88-4.88-5.06v-6.58c0-3.18 1.88-5.06 4.88-5.06s4.87 1.88 4.87 5.06zm-3.24 6.58v-6.58c0-1.22-.62-1.9-1.66-1.9s-1.64.68-1.64 1.9v6.58c0 1.24.62 1.92 1.64 1.92s1.63-.68 1.63-1.92zm26.88.76h-3.42v-2.66h-11.65v-3.16h11.62v-3.2h-11.62v-3.2h15zm.74 1.12v3.18h-16.57v-3.18zm9.8-9.76v9.76c0 .94.34 1.12 1.46 1.12V42c-3.58 0-4.88-.94-4.88-4.12V27.76c0-3.2 1.3-4.14 4.88-4.14v3.2c-1.15 0-1.49.18-1.49 1.18zm7 12.2h-3.42V28h-1.3v-3.2h4.72zm7.74-3.84v-7.7c0-.58-.42-.86-1-.86s-1 .28-1 .86v7.7c0 .56.42.84 1 .84s.99-.28.99-.84zm3.44-7.9v8.08c0 2.34-1.52 3.84-4.42 3.84s-4.42-1.5-4.42-3.84v-8.08c0-2.34 1.5-3.86 4.42-3.86s4.41 1.52 4.41 3.86zm12.76 13.24h-6.22c-2.72 0-4.5-1.5-4.5-3.64s1.78-3.68 4.5-3.68h6.22c2.72 0 4.5 1.5 4.5 3.68s-1.79 3.64-4.51 3.64zm-1.88-17.28v8.84h-9v-8.84zm.56 8v-3h2.22v-1h-2.22v-3h2.22V24.2h3.42V34h-3.42v-1.64zm-4.9 6.48h6.22c.64 0 1-.36 1-.82a.9.9 0 00-.93-.87h-6.31c-.66 0-1 .38-1 .86s.35.81 1.01.81zm-1.5-8.34h2.64V27.1h-2.64zm15.36 7.22V28c0-.94-.34-1.14-1.48-1.14v-3.2c3.58 0 4.9.94 4.9 4.14v10.12c0 3.18-1.32 4.12-4.9 4.12v-3.2c1.13 0 1.47-.18 1.47-1.12z"/><path id="패스_11348" data-name="패스 11348" class="cls-1" d="M56.76 61.43l-3.39-9.6h1.81l2.52 7.42 2.51-7.42h1.61l-3.39 9.6zm6.17 0v-9.6h1.74v9.6zm3.7 0v-9.6H70c2.11 0 3.17.8 3.17 2.42a2.05 2.05 0 01-1.57 2.1 2.14 2.14 0 012 2.28 2.51 2.51 0 01-.86 2 3.65 3.65 0 01-2.49.75zm1.71-1.29H70c1.19 0 1.78-.52 1.78-1.56a1.38 1.38 0 00-.47-1.17 2.31 2.31 0 00-1.4-.35h-1.57zm0-4.23h1.35c1.17 0 1.76-.48 1.76-1.43a1.27 1.27 0 00-.45-1.07 2.1 2.1 0 00-1.29-.31h-1.37zM75 61.43v-9.6h6v1.35h-4.3v2.63H80v1.35h-3.31v2.91h4.36v1.36zm21.57 0H85.28v-1.3h11.27zm-.24-5.11l-.83 1.28a8.16 8.16 0 01-2.73-1.25 5 5 0 01-1.84-2.09 4.77 4.77 0 01-1.83 2.14 7.81 7.81 0 01-2.77 1.25l-.77-1.33a6.39 6.39 0 002.08-.7 5.46 5.46 0 001.73-1.48 3.24 3.24 0 00.71-2v-.82h1.71v.82a2.82 2.82 0 00.29 1.24 3.89 3.89 0 00.76 1.09 6.83 6.83 0 001.07.86 7 7 0 001.22.63 5.65 5.65 0 001.18.41zm6.67 3.57a37.79 37.79 0 01-5.91.4c0-.15-.06-.39-.11-.71s-.07-.57-.1-.72H98l-.12-1.94c-.07-1.15-.13-2-.17-2.63l1.58-.2.17 4.74h.88c0-.35 0-.84.07-1.47s0-1.2.07-1.73 0-1 .07-1.49l1.53.18c-.14 1.84-.26 3.32-.35 4.43a10.79 10.79 0 001.08-.12zm2.4 2.64h-1.6v-5.74h-1.33v-1.33h1.33v-4.59h1.55zm2.3.58h-1.6V50.63h1.55zm-4.8-9.69h-5.81v-1.29h5.76zM119.5 63h-8.59v-3.3h6.57v-.81h-6.64v-1.3h8.28v3.3h-6.56v.8h6.93zm-3.88-10v-1.22h1.86v-1.15h1.64V57h-1.64v-1.73h-1.86V54h1.86v-.91zm.6 2.73l-.9 1.22a4.76 4.76 0 01-1.58-1 4.6 4.6 0 01-1.2-1.5 3.7 3.7 0 01-1.12 1.68 4.92 4.92 0 01-1.78 1.1L108.7 56a4.62 4.62 0 002.17-1.55 3.85 3.85 0 00.8-2.42V51h1.71v1a3.62 3.62 0 00.83 2.38 4.2 4.2 0 002 1.38zm15.78 6.8h-1.54v-5.81h-1.06a5.65 5.65 0 01-.79 2.72 2.13 2.13 0 01-1.91 1.08 2 2 0 01-1.54-.66 3.71 3.71 0 01-.89-1.64A8.6 8.6 0 01124 56a8.37 8.37 0 01.26-2.17 3.59 3.59 0 01.89-1.62 2 2 0 011.54-.66 2.14 2.14 0 011.92 1.07 5.83 5.83 0 01.78 2.74h1.06v-4.49H132zm2.49.58H133V50.63h1.54zm-6.89-4.89a6.72 6.72 0 00.3-2.18 6.8 6.8 0 00-.3-2.2c-.19-.56-.49-.84-.89-.84s-.67.28-.87.85a6.51 6.51 0 00-.29 2.19 6.39 6.39 0 00.29 2.17c.2.57.49.85.87.85s.71-.28.9-.84zm18.26 4.89h-1.65V50.63h1.65zM138 58.72a25.46 25.46 0 005.08-.37l.21 1.34a26.94 26.94 0 01-5.67.42h-1.25v-8.33h5.67v1.3h-4zm18.07-5h-1.88v-1.3h1.88v-1.79h1.64v9h-1.64v-3.47h-1.88v-1.31h1.88zm1.9 9.1h-8.48v-3.97h1.64v2.63H158zm-3.16-5.85l-.92 1.29a4.73 4.73 0 01-1.55-1.09 5.8 5.8 0 01-1.25-1.67 5.32 5.32 0 01-2.9 3.08l-1-1.3a4.52 4.52 0 002.19-1.69 4.42 4.42 0 00.82-2.61v-1.63h1.8v1.51a4.12 4.12 0 00.87 2.53 4.17 4.17 0 001.96 1.53z"/></g><path fill="none" d="M0 0h210v64H0z"/></g></g></svg>