<svg xmlns="http://www.w3.org/2000/svg" width="460" height="130"><defs><style>.cls-1{fill:#f8f4f0}</style></defs><g id="Layer_2" data-name="Layer 2"><g id="Layer_1-2" data-name="Layer 1"><g id="_3_txt" data-name="3 txt"><path id="사각형_140" data-name="사각형 140" class="cls-1" d="M14 113.8h434v16H14z"/><path id="사각형_146" data-name="사각형 146" class="cls-1" d="M23 80.8h416v16H23z"/><path id="패스_11220" data-name="패스 11220" d="M50.47 16.76v-3.12a3.83 3.83 0 011.94-3.76L55.33 8a2.8 2.8 0 001.34-2.5c0-1.5-.64-2.26-2.16-2.26S52.35 4 52.35 5.5h-1.88c0-2.82 1.6-3.94 4-3.94s4 1.12 4 3.94a4.17 4.17 0 01-2.12 3.86l-2.88 1.86a2.46 2.46 0 00-1.22 2.38v1.5h6.22v1.66zm15.76-3.82V5.6c0-1.5-.76-2.36-2.16-2.36s-2.16.86-2.16 2.36v7.34c0 1.5.74 2.34 2.16 2.34s2.16-.84 2.16-2.34zm1.88-7.52v7.7c0 2.34-1.5 3.84-4 3.84s-4-1.5-4-3.84v-7.7c0-2.36 1.5-3.86 4-3.86s4 1.5 4 3.86zm1.46 11.34v-3.12a3.83 3.83 0 011.94-3.76L74.43 8a2.8 2.8 0 001.34-2.5c0-1.5-.64-2.26-2.16-2.26S71.45 4 71.45 5.5h-1.88c0-2.82 1.6-3.94 4-3.94s4 1.12 4 3.94a4.17 4.17 0 01-2.12 3.86l-2.88 1.86a2.46 2.46 0 00-1.22 2.38v1.5h6.22v1.66zm15.76-3.82V5.6c0-1.5-.76-2.36-2.16-2.36S81 4.1 81 5.6v7.34c0 1.5.74 2.34 2.16 2.34s2.17-.84 2.17-2.34zm1.88-7.52v7.7c0 2.34-1.5 3.84-4 3.84s-4-1.5-4-3.84v-7.7c0-2.36 1.5-3.86 4-3.86s4 1.5 4 3.86zM103.79 1v13.06h-1.88V7.74h-6V6.06h6V4.54h-6V2.88h6V1zm-4.52 8.26V11H89.13V1.36H91v7.9zm4.9 7.14v1.68H89.69v-5.44h1.88v3.76zm1.54 2.82l-.56-.76a2.47 2.47 0 001.12-2.46v-.9h2.16v.9a3.19 3.19 0 01-2.72 3.22zm9-1.7V1.36h1.88v14.46H122v1.7zm10.64-16.44v17h-1.88V9.26h-4V7.58h4v-6.5zm4 17.2h-1.88V1h1.88zM146.89 1v17.28H145V1zm-13 5.64v5.64c0 2.62.94 3.74 2.74 3.74s2.72-1.12 2.72-3.74V6.64c0-2.64-.94-3.76-2.72-3.76s-2.72 1.12-2.72 3.76zM132 12.28V6.64c0-3.68 1.88-5.46 4.62-5.46s4.6 1.78 4.6 5.46v5.64c0 3.64-1.88 5.42-4.6 5.42S132 15.92 132 12.28zm26-10.92v16.16h-8.26V1.36h1.88V7h4.5V1.36zm4.52 8.28h-3.76v-1.7h3.76V1h1.88v17.28h-1.88zm-10.9 6.18h4.5V8.7h-4.5zm28.27-14.46v16.16h-8.46V1.36h1.88V7H178V1.36zm5.82 8.22v8.7h-1.88V1h1.88v6.9h2.44v1.68zm-12.4 6.24H178V8.7h-4.7zM203.59 1v17.28h-1.88V1zm-13 5.64v5.64c0 2.62.94 3.74 2.74 3.74s2.72-1.12 2.72-3.74V6.64c0-2.64-.94-3.76-2.72-3.76s-2.72 1.12-2.72 3.76zm-1.88 5.64V6.64c0-3.68 1.88-5.46 4.62-5.46S198 3 198 6.64v5.64c0 3.64-1.88 5.42-4.6 5.42s-4.67-1.78-4.67-5.42zm32.56-10.92V11.9h-14.66V1.36h1.88v3.4h10.9v-3.4zm-12.78 8.84h10.9V6.44h-10.9zm13.72 5.62v1.7h-16.54v-1.7zm1-6.18h16.54v1.7h-16.58zM239 16.4v1.68h-14.89v-5.24H226v3.56zm-14.89-9.06V1.18H226V5.7h13v1.64zm36.36 0h-1.88V3.06h-12.78v-1.7h14.66zm0 11.08h-1.88v-4.08h-12.78v-1.7h6.3V10h-7.24V8.32h16.54V10H254v2.62h6.48zM277.79 1v17.28h-1.88V9.64h-2.82v8.44h-1.88v-17h1.88v6.86h2.82V1zm-14.66 16.52V1.36H265v14.46h4.82v1.7zm20.94-8.64h16.54v1.68h-16.54zm11.28-1.3h-6c-3 0-4.5-1.14-4.5-3.3 0-2 1.5-3.28 4.5-3.28h6c3 0 4.52 1.3 4.52 3.28 0 2.16-1.5 3.3-4.52 3.3zm-6-1.66h6c1.88 0 2.54-.7 2.54-1.64s-.66-1.64-2.54-1.64h-6c-1.68 0-2.54.7-2.54 1.64s.64 1.64 2.52 1.64zm10.34 6.16v6H285v-6zm-12.78 4.34h10.9v-2.68h-10.9zm32.16-11.3v1.7h-2.44v4.46h-1.88V1h1.88v4.12zm-2.44 7.16v6.18h-1.88V14h-12.24v-1.72zm-12.8-6.68V6a2.82 2.82 0 005.64.15V5.6a2.82 2.82 0 10-5.64-.21zM302 6v-.4a4.7 4.7 0 019.4 0V6a4.7 4.7 0 01-9.4 0zm24.7-4.8h1.88a45 45 0 01-.38 5.8 20.09 20.09 0 005.16 9.26l-1.38 1.28a20.71 20.71 0 01-4.42-7 26.64 26.64 0 01-2.74 7.22l-1.68-.88c2.59-4.62 3.51-10.24 3.51-15.7zm10.11-.2h1.88v17.28h-1.88v-8.7h-5.46V7.9h5.46zm19.38 0v17.28h-1.88V1zm-6 .36v16.16h-8.64V1.36h1.88V7h4.88V1.36zm-6.76 14.46h4.88V8.7h-4.88zm31.4 0v1.7h-16.56v-1.7zm-15.4-4.76l-1.14-1.4A11.53 11.53 0 00365.93 1l1.86.36A10.63 10.63 0 01367 3.9a15.33 15.33 0 007.78 5l-1 1.5a17.47 17.47 0 01-7.68-4.86 13.9 13.9 0 01-6.74 5.5zm32.16-.94v1.68h-14.88V5.7h12.78V3.06h-12.78v-1.7h14.66v6h-12.78v2.74zm.74 5.7v1.7h-16.56v-1.7h7.34v-3.06H385v3.06zm1-6.18h16.54v1.7h-16.6zm15.8 6.76v1.68h-14.92v-5.24h1.88v3.56zm-14.92-9.06V1.18h1.88V5.7h13v1.64zM90.48 31h1.88v17.28h-1.88zm-12.1 10.62l-1.54-1.32a9.84 9.84 0 004.82-6.12h-4V32.5h4v-2.08h1.88v2.08h4.1v1.68h-4.1c-.1.38-.2.74-.34 1.12a14.09 14.09 0 005.18 4.76l-1.24 1.42a17.23 17.23 0 01-4.8-4.24 12.05 12.05 0 01-3.96 4.38zm-1.44 5.9v-1.7h4.68V41.4h1.88v4.42h5.6v1.7zm18.8-5l-1.1-1.42c3.56-1.18 6.38-3.48 7.3-6.76h-6.56v-1.7h6.26v-2.22h2v2.26H110v1.7h-6.16a8.94 8.94 0 01-.64 1.82 14.27 14.27 0 007.56 4.36l-.88 1.54a17.9 17.9 0 01-7.58-4.34 13.51 13.51 0 01-6.6 4.8zm15.26 3.3v1.7H94.44v-1.7h7.34v-4.46h1.88v4.46zm16.76-5.7v1.68h-14.88v-6.1h12.78v-2.64h-12.78v-1.7h14.66v6h-12.78v2.74zm.74 5.7v1.7h-16.56v-1.7h7.34v-3.06h1.88v3.06zm9.86 2.08l.62-4.6h-2.08l-.62 4.6h-1.88l.62-4.6h-1.92v-1.68h2.16l.54-4h-2V36h2.2l.64-4.62h1.88L137.9 36h2.1l.64-4.62h1.88l-.68 4.62h2v1.68h-2.18l-.54 4h2.06v1.62h-2.3l-.62 4.6zm.86-6.28l.54-4h-2.06l-.54 4zM159.62 31v17.28h-1.88v-8.64h-2.82v8.44H153v-17h1.88v6.86h2.82V31zM145 47.52V31.36h1.88v14.46h4.82v1.7zm32.5-1.12v1.68h-14.86V43h1.88v3.4zm-.1-8.68h-6.58V40h7.42v1.7H161.7V40h7.24v-2.3h-6.3v-6.34h14.66V33h-12.78v3h12.88zM194.62 31v17.28h-1.88v-8.64h-2.82v8.44H188v-17h1.88v6.86h2.82V31zM180 47.52V31.36h1.88v14.46h4.82v1.7zm32.4-10.26h-14.76v-5.9h14.66V33h-12.78v2.6h12.88zm-15.7 1.64h16.54v1.68H196.7zm2.82 7.52h13v1.66h-14.88v-5.8h14.66v1.64h-12.78zm19.64-15.06h7v1.2a9 9 0 01-6.62 8.52l-1.14-1.44a8.15 8.15 0 004.6-3h-3.8V35h4.68a7 7 0 00.4-1.92h-5.08zm14.66-.36v10.06h-1.88v-4.42h-2.2v4.42h-1.84v-10h1.84v3.86h2.2V31zm0 10.7v6.38h-14.1V41.7zm-12.22 4.72h10.34v-3.06H221.6zm23.14-.6v1.7h-8.28v-1.7H238V34.76h1.88v11.06h1l.94-11.06h1.88l-.94 11.06zm3-14.74v17h-1.88V40H244v-1.7h1.88v-7.22zm3.58 17.2h-1.88V31h1.88zm-6.76-16.92v1.7h-7.9v-1.7zm11.1 4.24v.76a2.82 2.82 0 105.64.15v-.91a2.82 2.82 0 10-5.64-.21zm-1.88.76v-.76a4.7 4.7 0 019.4 0v.76a4.7 4.7 0 01-9.4 0zm15.42 10v1.68h-14.48v-5.4h1.88v3.76zM268.82 31v13.06h-1.88V31zm17.88 15.4v1.68h-14.86V43.5h12.78v-1.16h-12.78v-1.68h14.66v4.5h-12.78v1.24zm-15.8-8.64h16.54v1.68H270.9zM275 35h8.08c.94 0 1.7-.44 1.7-1.18s-.76-1.2-1.7-1.2H275c-.94 0-1.5.44-1.5 1.2S274.1 35 275 35zm0-4h8.08c2.08 0 3.58 1 3.58 2.86s-1.5 2.84-3.58 2.84H275c-2.06 0-3.38-1-3.38-2.84S273 31 275 31zm20.94.18h1.88a45 45 0 01-.38 5.8 20.09 20.09 0 005.16 9.26l-1.38 1.28a20.71 20.71 0 01-4.42-7 26.64 26.64 0 01-2.74 7.22l-1.68-.88c2.68-4.6 3.62-10.22 3.62-15.68zm10.2-.18H308v17.28h-1.88zm4.72.36H320v1.7h-3.76a11.41 11.41 0 01-.36 2.18 14.1 14.1 0 005.18 4.58l-1.22 1.4a16.65 16.65 0 01-4.66-4 11.74 11.74 0 01-3.64 4.48l-1.48-1.2a9.51 9.51 0 004.3-7.46h-3.54zm16.72 4V37h-2.44v4.66h-1.88V31h1.88v4.32zm-2.44 7.32v5.82h-1.88v-4.16H311v-1.7zm3.62 5.44l-1.18-1.38a6 6 0 004.52-4.76l1.74.4a6.12 6.12 0 01-.46 1.62 9 9 0 002.54 2.1 6.37 6.37 0 002.74-4.12l1.76.4a6.74 6.74 0 01-.54 1.7 13.83 13.83 0 004.18 2.4l-.9 1.56A14.58 14.58 0 01339 45.5a8.75 8.75 0 01-3 2.66 14.84 14.84 0 01-3.52-2.68 7.94 7.94 0 01-3.7 2.6zM341.14 31H343v10.42h-1.88V37h-2.2v4.42h-1.82V31.08h1.84v4.24h2.2zm-10 .94v-1.52H333v1.52h3.34v1.64h-8.54v-1.64zm-2.76 5.8c0-2 1.6-3.38 3.76-3.38s3.76 1.36 3.76 3.38-1.6 3.38-3.76 3.38-3.78-1.34-3.78-3.38zm1.86 0a1.9 1.9 0 102-1.8h-.1a1.8 1.8 0 00-1.9 1.68zm15.44 4.54v-5.64c0-3.58 1.8-5.46 4.52-5.46s4.52 1.88 4.52 5.46v5.64c0 3.54-1.8 5.42-4.52 5.42s-4.54-1.88-4.54-5.42zm1.88-5.64v5.64c0 2.62.94 3.74 2.64 3.74s2.64-1.12 2.64-3.74v-5.64c0-2.64-.94-3.76-2.64-3.76s-2.66 1.12-2.66 3.76zm11.1 3h-3.2v-1.7h3.2V31h1.88v17.28h-1.88zm14.5.76h-4.52c-3.2 0-5.46-1.88-5.46-4.7s2.26-4.7 5.46-4.7h4.52c3.18 0 5.44 1.88 5.44 4.7s-2.28 4.7-5.46 4.7zm-4.52-1.7h4.52c2.06 0 3.46-1.22 3.46-3s-1.4-3-3.46-3h-4.52c-2.06 0-3.48 1.22-3.48 3s1.4 3 3.46 3zm10.52 7.12v1.7H362.6v-1.7h3.76v-4.3h1.88v4.3h5.26v-4.3h1.88v4.3zm3.62 1.52h-2.28V45.1h2.26z"/><path id="패스_11221" data-name="패스 11221" d="M41.34 73.72v18H31.06v-18h3.57v5.17h3.17v-5.17zM47.41 84v8.58h-3.76v-19h3.76v6.71h2.27V84zm-12.78 4.24h3.17v-5.88h-3.17zm32.45-14.72v19h-3.76v-19zm-6.2 5.57v7.23c0 3.5-2.07 5.57-5.39 5.57s-5.37-2.07-5.37-5.57v-7.23c0-3.5 2.07-5.57 5.37-5.57s5.38 2.07 5.38 5.57zm-3.57 7.23v-7.23c0-1.35-.68-2.09-1.83-2.09s-1.8.74-1.8 2.09v7.23c0 1.37.69 2.12 1.8 2.12s1.83-.75 1.83-2.12zm29-12.6v12.41H69.78V73.72h3.77v2.9h9v-2.9zm-12.76 8.89h9v-2.49h-9zm13.6 5.78v3.5H69v-3.5zM89 73.72h9.5v5.12a14.18 14.18 0 01-7.92 12.87L88 89.07c4.27-2.06 6.78-5.72 6.78-9.83v-2H89zM105.16 84v8.58h-3.76v-19h3.76v6.71h2.27V84zm12.06 8.36l.52-4h-1.6l-.53 4h-3.67l.52-4h-1.1v-3.49h1.57l.48-3.7h-1.32v-3.43h1.78l.53-4h3.7l-.53 4h1.61l.53-4h3.67l-.53 4H124v3.44h-1.58l-.48 3.7h1.34v3.42h-1.8l-.53 4zm1-7.44l.5-3.7h-1.6l-.51 3.7zm23.48-11.4v19h-3.76V83.9h-1v8.4h-3.7V73.61h3.7v6.82h1v-6.91zm-16.76 18.17v-18h3.76v14.5h3.7v3.5zm36.21-2.42v3.26h-16.74V87h3.76v2.31zm-13-10.82H161v3h-6.58v1.47h7.3v3.22h-18.15v-3.23h7.11v-1.47h-6.27v-7.72H161v3h-12.83zm32-4.93v19h-3.76V83.9h-1v8.4h-3.7V73.61h3.7v6.82h1v-6.91zm-16.71 18.17v-18h3.76v14.5h3.7v3.5zm23.23-13.77h12.87v2.86h-16.63v-7.06h16.54v2.86h-12.78zm-4.6 3.78h18.19v2.9h-18.19zm4.6 8h13v2.82h-16.76v-6.9h16.54v2.79h-12.78zm32.85-1.32v3.5h-18.2v-3.5zm-6.6-3.63h-5c-3.93 0-6.2-2.31-6.2-5.63s2.27-5.61 6.2-5.61h5c3.91 0 6.2 2.31 6.2 5.61s-2.29 5.64-6.2 5.64zm-4.87-3.52h4.76a2.13 2.13 0 00.61-4.22 2.08 2.08 0 00-.61 0h-4.76a2.13 2.13 0 00-.61 4.22 2.08 2.08 0 00.61.01zM238 73.72v7.63h-12.83v1.5h13V86h-16.76v-7.75h12.78v-1.32h-12.78v-3.21zm.82 14.72v3.45h-18.2v-3.45h7V86.5h4.12v1.94zm16.56-14.72v18h-10.32v-18h3.56v5.17h3.17v-5.17zM261.4 84v8.58h-3.76v-19h3.76v6.71h2.27V84zm-12.78 4.29h3.17v-5.93h-3.17zm26.67 0v3.45h-11v-11h6.31v-3.5h-6.31v-3.52h10.07v10.45h-6.31v4.07zm5.36-4.29v8.58h-3.76v-19h3.76v6.71h2.27V84zm6.89-6.29h12.87V81h-16.63v-7.48h3.76zm-4.6 4.6h18.19v3.29h-18.19zm17.58 6.84v3.43h-16.74v-6h3.76v2.52zm6.91-15.38h9.72v2.07c0 4.62-3.65 8.62-8.95 9.59l-1.8-2.88c3.74-.69 6.27-2.78 6.84-5.5h-5.81zm17.18 15.35v3.46h-16.54V86h3.76v3.08zm-7.46-7.67v-3.57h3.28v-4.36h3.76v13.79h-3.76V81.4zm14.15-7.68h9.94v2.07c0 4.62-3.78 8.62-9.17 9.59l-1.8-2.88c3.81-.69 6.49-2.78 7-5.5h-6zm16.76 15.35v3.46h-16.34V86h3.76v3.08zm1.85-10.86v3.67h-2.27v5.43h-3.76V73.52h3.76v4.69zm17.4 10.86v3.46H351V86h3.76v3.08zm1.85-10.86v3.67h-2.27v5.43h-3.76V73.52h3.76v4.69zm-14.85 3.14h7.61v3.13h-11.37V73.72h10.34v3.12h-6.58zm31.83 3.6v7.55h-15.92V85h3.71v1h8.5v-1zm-10.75-.33h-.82c-2.7 0-4.77-1.32-4.77-3.61s2.07-3.63 4.77-3.63h.82c2.68 0 4.75 1.35 4.75 3.63s-2.07 3.59-4.75 3.59zm13-7.48v3.68h-2.27v3.43h-3.76V73.52h3.76v3.65zm-7.63-3V77h-11.6v-2.86H373v-1.46h3.81v1.46zm-6.85 15.62h8.5v-1.13h-8.5zm.64-7.81h.82c.79 0 1.25-.38 1.25-.9s-.46-1-1.25-1h-.82c-.79 0-1.25.4-1.25 1s.48.9 1.27.9zm14.48 9.74v-18h3.76v14.45h7.61v3.5zm16.76-18.17v19h-3.76v-19zm13.66 14.72v3.45H408.3v-18h10.27v3.47h-6.51v11zm5.19-4.29v8.58h-3.76v-19h3.76v6.71h2.27V84zm6.67 7.74h-4.16v-3.96h4.16zm-391.4 11.78v19h-3.76v-8.62h-1v8.4h-3.7v-18.7h3.7v6.82h1v-6.9zm-16.77 18.17v-18h3.77v14.47h3.7v3.5zm40.64-8H60v-6.4H47.23v-3.52h16.55zm-6.2 9.09h-4.14v-4.54h-7v-3.52h18.15v3.52h-7zM66.49 111v-7.3H83v2.92H70.25v1.45h12.87V111H76.6v1.3h7.24v3H65.65v-3h7.19V111zm0 8.18v-3H83v6.49h-3.73v-3.52zm35.79-15.49v7.54H89.5v1.39h13v3.19H85.73v-7.63h12.79v-1.3H85.73v-3.19zm.81 14.72v3.45H84.9v-3.45h3.48v-2.18h3.76v2.18h3.72v-2.18h3.76v2.18zm5.66-10.78h12.87V111H105v-7.44h3.77zm-4.6 4.6h18.19v3.34h-18.19zm17.58 6.84v3.43H105v-6h3.77v2.53zm23.67-15.58v19h-3.76v-8.59h-1v8.4h-3.7v-18.7h3.7v6.82h1v-6.9zm-16.77 18.17v-18h3.77v14.47h3.7v3.5zm19.47-18h9.5v5.12a14.2 14.2 0 01-7.92 12.87l-2.62-2.64c4.27-2.06 6.78-5.72 6.78-9.83v-2h-5.74zM164.23 114v8.58h-3.77v-19h3.77v6.71h2.27V114zm11.5-6h12.87v2.86H172v-7.06h16.55v2.86h-12.81zm-4.6 3.78h18.2v2.9h-18.19zm4.6 8h13v2.82H172v-6.91h16.55v2.79h-12.81zm19.25-12h12.87V111h-16.63v-7.44H195zm-4.6 4.6h18.2v3.34h-18.19zM208 119.1v3.43h-16.78v-6H195v2.53zm17.46-10v7.24c0 3.5-2.06 5.56-5.39 5.56s-5.36-2.06-5.36-5.56v-7.24c0-3.5 2.06-5.57 5.36-5.57s5.39 2.07 5.39 5.57zm-3.56 7.24v-7.24c0-1.35-.68-2.09-1.83-2.09s-1.8.74-1.8 2.09v7.23c0 1.37.69 2.12 1.8 2.12s1.83-.75 1.83-2.12zm9.35-2.38v8.58h-3.76v-19h3.76v6.71h2.27V114zm13.88 4.29v3.46h-11v-18h10.07v3.47h-6.31v3.5h6.31v3.48h-6.31v4.07zm5.79-14.72v19h-3.76v-19zM271 118.4v3.5h-18.24v-3.5zm-16.1-3.3l-2.29-3a11.32 11.32 0 007.68-8.83l4 .62a12.9 12.9 0 01-.93 3.12 15.57 15.57 0 007.84 4.38l-2.12 3.08a16.28 16.28 0 01-7.66-4.29 15.11 15.11 0 01-6.55 4.88zm34.54-6.67v3.15h-12.83v1.65h13v3.23h-16.77v-12.74h16.55V107h-12.78v1.46zm.82 10v3.45H272v-3.45zm4.88-10.69v10.14a.73.73 0 101.45.07v-10.21a.72.72 0 00-.72-.72.73.73 0 00-.73.72zm-3.41 10.14v-10.14a4.14 4.14 0 018.27-.18v2.82h1v-6.77h3.41v18.7H301v-8.45h-1v4a4.14 4.14 0 01-8.27.18v-.18zm13.49 4.64v-19h3.47v19zm19 0v-19h3.74v19zm-13-18.81h7.17v6.67h1.32v-6.78h3.58v18.7h-3.59v-8.45h-1.8a13.84 13.84 0 01-4.69 8l-2.9-2.14a11.88 11.88 0 004.29-9.61v-2.9h-3.48zm24.51 18.81v-6.32h3.76v2.86h12.78v3.46zM335 106.8v-3.08h10.34v3.08h-3.54a10.61 10.61 0 01-.26 1.69 17.12 17.12 0 004.82 4.31l-2.27 2.62a19.63 19.63 0 01-3.87-3.35 10.73 10.73 0 01-3.21 3.68l-2.82-2.26a8.65 8.65 0 003.89-6.69zm13 .73v-4h3.77v14H348v-6.75h-3.06v-3.24zm14.52 6v4.14a4.14 4.14 0 11-8.27.18v-4.32a4.14 4.14 0 018.27-.18.54.54 0 010 .18zm-3.41 4.14v-4.14c0-.57-.3-.88-.72-.88s-.73.31-.73.88v4.14a.77.77 0 00.65.85h.08c.42 0 .73-.31.73-.86zm7.48-3.83v8.45h-3.41v-18.7h3.41v6.78h.95v-6.87H371v19h-3.48v-8.67zm-3.89-5.26h-8.84v-3.43h2.64v-2.29h3.61v2.29h2.6zm21.83-1.41h-4a36.24 36.24 0 01-.33 4.16 21.92 21.92 0 005.37 8.14l-2.92 2.4a21.8 21.8 0 01-3.79-5.21A22.75 22.75 0 01376 122l-3.3-1.83a21.08 21.08 0 004.09-12.94h-3.28v-3.47h11zm5.74-3.67v19h-3.77v-19zm6.47 4.13h12.86V111H393v-7.43h3.77zm-4.6 4.6h18.19v3.35h-18.2zm17.58 6.85v3.43H393v-6h3.77v2.53zm6.9-15.38h9.53v1.87c0 4.6-3.61 8.36-9 9.4l-1.58-2.89c3.28-.55 6-2.51 6.6-5.1h-5.57zm10.08 12.65a14.72 14.72 0 007.22 3.13l-1.59 3a17.32 17.32 0 01-7.53-3.48 11.41 11.41 0 01-6.62 3.59l-2.07-2.95a9.4 9.4 0 007.63-5.61l3.52 1a11 11 0 01-.57 1.32zm-.35-5.59v-3.52h3.28v-3.74h3.76v11.92h-3.76v-4.66zm9.13-7.67h3.76v13.43h-3.76zm4 19.2h-4.18v-4.12h4.18z" fill="#111"/></g><path fill="none" d="M0 0h460v130H0z"/></g></g></svg>