<svg xmlns="http://www.w3.org/2000/svg" width="375" height="66"><g data-name="Layer 2"><g data-name="Layer 1"><path d="M96.31 4.63h-2.53l.55-3h-4.47l-.55 3H86.5l.55-3h-4.47l-.55 3h-2.88l-.79 4.31h2.88l-.84 4.58h-2.88l-.79 4.31h2.88l-.55 3h4.47l.55-3h2.81l-.55 3h4.47l.55-3h2.53l.79-4.31h-2.53L93 8.94h2.53zm-10.6 4.31h2.82l-.84 4.58h-2.82zM117.65 1h-4.07v7.37h-1.1V1h-4.07v20h4.07v-8.23h1.1V21h4.07zM102 15.92V1.66h-4.59V21l10.12-1.54v-4.4zM125.35 6V4.74h13.86v-3.3h-18.92v7.81h6.93v.88h-7.59v3.52h20.24v-3.52h-7.59v-.88h6.93V6zm0 12.1v-3.57h-5.06v6.93h18.92v-3.41zm36.3-17h-4.07v7.27h-1.1V1h-4.07v20h4.07v-8.23h1.1V21h4.07zM146 15.92V1.66h-4.62V21l10.12-1.54v-4.4zm18.26-1.83v7.37h18.92V18.2h-13.83v-.81h13.86v-3.3zm5.06-8.47v-1h13.86V1.44h-18.89v7.37h18.92V5.62zm-5.72 4.07v3.52h20.24V9.69zm22 6.93V21h20.24v-4.4zm19.8-8.91c0-4.36-3-6.71-9.68-6.71s-9.68 2.35-9.68 6.71 3 6.71 9.68 6.71 9.71-2.35 9.71-6.71zm-4.84 0c0 1.76-1 2.53-4.84 2.53s-4.84-.77-4.84-2.53 1-2.53 4.84-2.53 4.87.82 4.87 2.53zm12.76 2.42v-.88h13.86V1.44h-18.89v3.63h13.86V6h-13.86v7.81h18.92v-3.68zm1.87 6.49h-7.59V21h20.24v-4.4h-7.59v-2h-5.06zm27.39-4.73l1.9 9.11h5.17l-2.86-14.06h-3l1.21-5.5h-5.17L235.35 21h5.17zM255.81 1h-5.06v20h5.06zm9.31 6.16l.48-1.1h5.17v-4.4h-13v4.4h2.64l-3.08 7.26h5.17l1.87-4.44 1.63 4.44h5.17l-2.27-6.16zm11.81 14.52V14.2h-19.14v4.18h14.08v3.3zm0-16.83V1h-5.06v12.32h5.06V9.47h1.76V4.85zm2.86-3.19V10h4.29v.88h-4.73v3.74h14.3V10.9h-4.73V10h4.29V6.5h-8.36V5.18h8.36V1.66zm20 20v-3.72h-14.72v-2.42H280v6.16zm0-20.68h-5.06v14.76h5.06zM66.9 46.92l1.1-4.16h6.56v-6.4H55.64v6.4h4.8L55 64.52h7.52l2.72-10.91 2.4 10.91h7.52l-3.84-17.6zM84.76 35.4H77.4v29.12h7.36zm2.88 19.2v10.88h27.84V59.4H95v-4.8zM95 46.31v-10h-7.36v17l18.88-1.6v-6.4zm20.48-4V35.4h-7.36v20.48h7.36V49H118v-6.72zm34.88 15.65h-5.73V37.45h-9.95l-3.84 6.27h6.66v14.21h-6.34v6.27h19.2zm33.92-22.56h-7.36v1.12h-6.08v5.12h6.08v1.6h-6.08v2.37l-8.32.7v-10h-7.36v17L174 51.72v-3.36h2.88v7.52h7.36zm-29.12 19.2v10.88h29.12V59.4h-21.76v-4.8zm32 0v10.88H215V59.4h-20.48v-4.8zm17-1.28A39.9 39.9 0 00206 39.56v-3.2h-18.84v6.4h11.46a39.89 39.89 0 01-1.86 10.56zm10.88-11V35.4h-7.36v20.48H215V49h2.56v-6.72zm33.28-6.88h-7.36v29.08h7.36zm-29.8 22.68v6.4h20.8v-6.4zm13.6-13c0 2.34-1.06 3.68-3.2 3.68s-3.2-1.34-3.2-3.68 1.06-3.68 3.2-3.68 3.2 1.38 3.2 3.72zm6.88 0c0-6-3.52-9.76-10.08-9.76s-10.08 3.71-10.08 9.76 3.52 9.76 10.08 9.76S239 51.21 239 45.16zm50.24-9.76h-7.36V38H279v-1.6h-6.72v2.72h-5.44v-2.76h-6.72v17L279 51.72v-1.28h2.88v5.44h7.36zM260.12 54.6v10.88h29.12V59.4h-21.76v-4.8zm6.72-10.08h5.44v2.34l-5.44.44zM279 43.08h2.88v2.24H279zm41 2.72V35.4h-7.4v29.12h7.4V52.84h2.56v-7zm-18.72-3.1c-6.5 0-9.76 1.95-9.76 6.08s3.26 6.08 9.76 6.08 9.76-2 9.76-6.08-3.26-6.08-9.76-6.08zm-3.52 15.42h-6.24v6.4H311v-6.4h-6.24v-2.24h-7zm7-21.12v-2.56h-7V37h-5.96v4.8h18.88V37zm-3.52 10.5c2.66 0 3.36.35 3.36 1.28s-.7 1.28-3.36 1.28-3.36-.35-3.36-1.28.7-1.28 3.36-1.28z" fill="#111"/><path fill="none" d="M0 0h375v66H0z"/></g></g></svg>