<svg xmlns="http://www.w3.org/2000/svg" width="210" height="64"><defs><style>.cls-1{fill:#666}</style></defs><g id="Layer_2" data-name="Layer 2"><g id="Layer_1-2" data-name="Layer 1"><g id="_8_txt05" data-name="8 txt05"><path id="패스_11573" data-name="패스 11573" class="cls-1" d="M80.81 63h-8.08v-4.29h8.08zm-9.48-8.7V53h6.58v1.3h-2.38a3.31 3.31 0 002.67 2.46L77.39 58a5.44 5.44 0 01-1.6-.88 3.69 3.69 0 01-1.16-1.35 4.22 4.22 0 01-1.16 1.55 4.84 4.84 0 01-1.76 1l-.91-1.22c1.7-.56 2.67-1.5 2.91-2.8zm11.25.91h-1.77v2.87h-1.63v-7.45h1.63v3.23h1.77zm-3.41 6.45V60h-4.8v1.71zm-6.36-9.35V51h3.63v1.28zM90 58.5l.06-1.4h1.79v-2.62h-1.79L90 53.1h1.85v-2.47h1.64V63.1h-1.64v-4.6zM83.24 56a5.6 5.6 0 01.86-3.24 2.69 2.69 0 012.35-1.23 2.72 2.72 0 012.36 1.23 6.48 6.48 0 010 6.45 2.88 2.88 0 01-4.71 0 5.56 5.56 0 01-.86-3.21zm4.86 0a4.93 4.93 0 00-.45-2.3 1.36 1.36 0 00-1.2-.85 1.34 1.34 0 00-1.17.85 4.92 4.92 0 00-.44 2.3 4.84 4.84 0 00.44 2.28 1.34 1.34 0 001.17.84 1.36 1.36 0 001.2-.84A4.83 4.83 0 0088.1 56zm14.71 3l-.91 1.19a5.94 5.94 0 01-1.8-1.47 5.22 5.22 0 01-1.19-1.91 5.41 5.41 0 01-1.1 2.06 5.61 5.61 0 01-1.93 1.59l-1-1.22A6 6 0 0098 53.58v-.33h-2.48V51.9h6.65v1.35h-2.44v.32a5.78 5.78 0 003.08 5.43zm2.19-8.37v4.8h1.78v1.36H105v6.31h-1.6V50.63zm6.51 2.37v-1.38h6.58V53h-2.4a3.83 3.83 0 00.82 2.37 4 4 0 002 1.38l-.9 1.29A5 5 0 01116 57a4.67 4.67 0 01-1.17-1.54 4.21 4.21 0 01-1.12 1.73 4.86 4.86 0 01-1.71 1.17l-1-1.29a4.76 4.76 0 002.2-1.58A4 4 0 00114 53zm9.88 6.7h-1.63v-4.44h-1.88V54h1.88v-3.37h1.64zm.27 3.1h-8.61v-3.97h1.65v2.65h7zm7.74-11.09a2 2 0 01.88 1.66 2 2 0 01-.87 1.66 3.67 3.67 0 01-2.25.64 3.81 3.81 0 01-2.27-.65 2 2 0 01-.9-1.67 2 2 0 01.9-1.65 3.8 3.8 0 012.26-.65 3.69 3.69 0 012.25.63zm.29 7.33v-1.2h2.38v-7.21h1.64v9.64h-1.64V59zm4.22 3.76h-9.16v-3.72h1.64v2.38h7.52zm-5.48-3.1h-1.62v-2.25h-3.46c-.11-.67-.18-1.1-.22-1.29a66 66 0 008-.37l.1 1.2c-.69.11-1.6.21-2.74.29zm-.18-5.57a.94.94 0 00.41-.75 1 1 0 00-.42-.77 1.62 1.62 0 00-1.08-.34 1.71 1.71 0 00-1.1.33 1 1 0 00-.41.77.92.92 0 00.41.76 1.79 1.79 0 001.1.31 1.76 1.76 0 001.09-.34z"/><path id="패스_11405" data-name="패스 11405" class="cls-1" d="M30.4 12.11h-6.84V1.61h6.11v1.11h-4.89V11h5.62zM32.84 7v5.66h-1.22V1.38h1.22v4.48h1.59V7zM37 1.49h1.22a28 28 0 01-.25 3.77 13.13 13.13 0 003.35 6l-.9.83a13.38 13.38 0 01-2.87-4.53 17.2 17.2 0 01-1.78 4.69l-1.09-.57A20.79 20.79 0 0037 1.5zm6.6-.11h1.22v11.23h-1.25zm12.16 4.88a2.56 2.56 0 01-2.67 2.46h-.15a2.56 2.56 0 01-2.8-2.28v-.17a2.55 2.55 0 012.64-2.45h.17a2.56 2.56 0 012.81 2.29v.15zm3.79 5.13v1.09h-9.29V9.19h1.22v2.2zm1.34-6.52V6H59.3v4h-1.22V1.38h1.22v3.5zm-4.52-2.7v1.08h-6.72V2.17h2.68V1h1.22v1.17zm-1.83 4.1a1.43 1.43 0 00-1.42-1.44h-.18a1.42 1.42 0 00-1.57 1.25 1 1 0 000 .17 1.4 1.4 0 001.39 1.42h.2a1.4 1.4 0 001.58-1.21 1.15 1.15 0 000-.19zm12.68-4.65v6.3h-5.5V1.61h1.22v2h3v-2zm4.27 9.77v1.09h-9.41V9.07h1.22v2.32zm-.24-10v8.48H70V5.28h-2.2v-1.1H70v-2.8zm-8.31 5.42h3V4.73h-3zM86 11.53v1.08h-9.28v-3.1h7.81v-1h-7.81V7.49h9v3.08h-7.78v1zm1.34-7.84V4.8h-1.59v2.12h-1.22V1.38h1.22v2.31zm-5.12-2.08V6.5h-5.75V1.61zm-4.53 3.8H81v-2.7h-3.3zm10.6 4V7.85A2.64 2.64 0 0190.76 5h.4A2.65 2.65 0 0194 7.44a2.81 2.81 0 010 .41v1.59a2.63 2.63 0 01-2.46 2.8h-.41a2.61 2.61 0 01-2.87-2.8zM97.46 7v5.65h-1.23V1.38h1.22v4.48H99V7zm-7.94.9v1.54a1.5 1.5 0 001.32 1.69 1.13 1.13 0 00.32 0 1.52 1.52 0 001.66-1.37 1.82 1.82 0 000-.33V7.85a1.53 1.53 0 00-1.33-1.71h-.32a1.53 1.53 0 00-1.65 1.4 1.71 1.71 0 000 .32zm4.88-4h-6.47V2.73h2.6V1h1.22v1.71h2.65zm5.48-1.1V1.61h6v1.11h-2.55a20.82 20.82 0 01-.33 3.15 12.26 12.26 0 003.5 5.49l-.93.75a13.87 13.87 0 01-3-4.27 13.6 13.6 0 01-2.11 4.43l-1.1-.57a14.71 14.71 0 002.69-9zm8.3-1.35h1.22v11.16h-1.22zm14.26 3.36v1.04h-1.59v4h-1.22V1.38h1.22v3.36zm-1.34 6.65v1.09h-9.28V8.94H113v2.45zm-3.78-9.78v6h-5.75v-6zm-4.53 4.82h3.3V2.72h-3.3zm21.6 1.81V1.38h1.22v2.87h1.59v1.09h-1.59v3zm-4.81-5.59V1.61h3.52v3.91h-1.22v-2.8zm-3.38 0V1.61h2.94v3.91h-1.23v-2.8zm3.18 6h3.54c1.78 0 2.94.73 2.94 2s-1.16 2-2.94 2h-3.54c-1.78 0-2.94-.72-2.94-2s1.16-2.01 2.94-2.01zm3.54 1.06h-3.54c-1 0-1.65.34-1.65 1s.68.93 1.65.93h3.54c1 0 1.65-.33 1.65-.93s-.66-1.01-1.65-1.01zm-7.09-2.08V6.6h4V4.3H131v2.3h2.75v1.1zm22 3.69v1.09h-9.66V9.55h1.23v1.84zm-10.27-4h10.75v1.1h-10.78zm7.22-1.1h-3.67c-2 0-3.05-.85-3.05-2.44s1.09-2.44 3.05-2.44h3.67c1.95 0 3.05 1 3.05 2.44s-1.13 2.41-3.08 2.41zm-3.67-1.1h3.67c1.22 0 1.7-.55 1.7-1.34s-.48-1.35-1.7-1.35h-3.67c-1.1 0-1.71.56-1.71 1.35s.46 1.31 1.68 1.31zm12.68-.91A1.69 1.69 0 00155.36 6h.12a1.69 1.69 0 001.7-1.67v-.1a1.7 1.7 0 00-1.6-1.78h-.1a1.68 1.68 0 00-1.72 1.66zm-1.22 0a2.81 2.81 0 012.77-2.87h.16a2.83 2.83 0 012.93 2.71v.16a2.82 2.82 0 01-2.78 2.86h-.15a2.83 2.83 0 01-2.93-2.71.75.75 0 010-.15zm7.19 3.67l1.14.11a4.67 4.67 0 01-.25 1.33 7.5 7.5 0 002.48 2.14l-.75.93a9.87 9.87 0 01-2.24-1.94 5.52 5.52 0 01-1.91 2l-.53-.48v.48h-4.52V8h1.24v1.12h2.06V8h1.22v3.46a4.55 4.55 0 002.05-3.51zm-3.28 2.24h-2.08v1.27h2.08zm4.64-8.78h1.22v6.04h-1.22V4.8h-2.2V3.69h2.2zm3.26 7.33V5c0-2.32 1.17-3.55 2.94-3.55s2.94 1.23 2.94 3.55v3.71c0 2.3-1.17 3.52-2.94 3.52s-2.97-1.23-2.97-3.52zM165.57 5v3.71c0 1.7.62 2.43 1.72 2.43s1.71-.73 1.71-2.43V5c0-1.71-.61-2.44-1.72-2.44s-1.71.77-1.71 2.44zm7.22 2h-2.08V5.89h2.08V1.38H174v11.23h-1.22zm9.75.49h-2.94c-2.08 0-3.55-1.22-3.55-3s1.47-3.06 3.55-3.06h2.94c2.07 0 3.54 1.22 3.54 3.05s-1.47 3.06-3.54 3.06zm-2.94-1.11h2.94a2 2 0 002.23-1.75 1.36 1.36 0 000-.2 2 2 0 00-2-2h-3.17a2 2 0 00-2.25 1.77v.19a2 2 0 002.08 2zm6.84 4.62v1.1h-10.75V11h2.44V8.21h1.22V11h3.42V8.21H184V11z"/><path id="패스_11457" data-name="패스 11457" d="M38.46 29.84l.9-5.08H43l-3.48 15.48H35.9l-3.44-15.48h3.6l.88 5.08.76 5.94zm8.88 10.32h-3.42v-15.4h3.42zm1.68 0v-15.4h4.9c3 0 4.5 1.68 4.5 4.08a3.67 3.67 0 01-1.8 3.42 3.58 3.58 0 012.08 3.68c0 2.54-1.68 4.22-4.5 4.22zM52.44 37h1.1c1.22 0 1.74-.62 1.74-1.6s-.62-1.5-1.74-1.5h-1.1zm1.08-9h-1.08v2.72h1A1.36 1.36 0 0055 29.53a1.22 1.22 0 000-.27c0-.88-.58-1.26-1.48-1.26zm6.16-3.2H68V28h-4.9v2.62h4.3v3.2h-4.3V37h5.24v3.18h-8.66zm18.9 15.4h-3.42V28h-1.3v-3.2h4.72zm3.06-15.78h6.58v5.46c0 4.28-1.32 8.24-4.68 11l-2.64-1.96a10.81 10.81 0 003.9-8.74v-2.64h-3.16zm15.24-.18v17.24h-3.42v-7.84h-.92v7.64h-3.36v-17h3.36v6.2h.92V24.2zm3.34 12.18v-2.1h14.66v4.6H103.6v.48h11.66v2.12h-15v-4.68h11.24v-.46zm3-12.18H106c2.36 0 3.76 1 3.76 2.56s-1.36 2.5-3.76 2.5h-2.82c-2.38 0-3.76-1-3.76-2.54s1.42-2.56 3.8-2.56zm2.78 2.12h-2.82c-.36 0-.56.12-.56.4s.2.38.56.38H106c.36 0 .56-.12.56-.38s-.16-.4-.56-.4zm-7 5.44v-2.14h11.3v2.14h-4.68V34h-3.42v-2.2zm9 2.2v-2h3.46v-7.8h3.42V34zm29.58-9.76v17.24h-3.42V24.2zm-5.64 5.06v6.58c0 3.18-1.88 5.06-4.9 5.06s-4.88-1.88-4.88-5.06v-6.62c0-3.18 1.88-5.06 4.88-5.06s4.9 1.88 4.9 5.06zm-3.24 6.58v-6.62c0-1.22-.62-1.9-1.66-1.9s-1.64.68-1.64 1.9v6.58c0 1.24.62 1.92 1.64 1.92s1.66-.68 1.66-1.92zm27.06 2.54c0 2.06-1.68 3.28-4.32 3.28h-6.76c-2.64 0-4.34-1.22-4.34-3.28s1.7-3.28 4.34-3.28h6.76c2.64-.04 4.32 1.18 4.32 3.24zm-3.48 0c0-.46-.42-.72-1.08-.72h-6.28c-.66 0-1.1.26-1.1.72s.44.72 1.1.72h6.28c.66-.04 1.08-.3 1.08-.76zm-2.52-7.6h-3.42v1h3.42zM143 30.6a3 3 0 01-2.62-3.12c0-2 1.52-3.28 4.34-3.28h6.76c2.82 0 4.32 1.3 4.32 3.28a3 3 0 01-2.62 3.12v1.18h3.18v2.64h-16.58v-2.64H143zm1.74-2.48h6.7c.56 0 .9-.2.9-.64s-.34-.64-.9-.64h-6.7c-.56 0-.9.22-.9.64s.3.64.86.64zm28.88-3.92v13h-3.42v-1.1h-3.72v-2.5h3.72v-9.4zm-5.42 5.46h-3.38v-2.3h-6.44v-3h9.82zm5.8 8.72v3.1h-15V36.2h3.42v2.18zm-10-2.66h-3.38V33h-2.78v-2.76h11.36V33h-5.26z"/></g><path fill="none" d="M0 0h210v64H0z"/></g></g></svg>