<svg xmlns="http://www.w3.org/2000/svg" width="375" height="64"><g data-name="Layer 2"><g data-name="Layer 1"><g data-name="4 tit"><path data-name="패스 11469" d="M114.2 14.75h-8.42V1.82h7.52v1.36h-6v10.21h6.91zm3-6.35v7h-1.5V1.53h1.5v5.52h2V8.4zm11.09 7.1h-4.36c-2.25 0-3.61-1.14-3.61-2.77s1.36-2.79 3.61-2.79h4.36c2.25 0 3.61 1.14 3.61 2.79s-1.36 2.77-3.61 2.77zm-8.41-10.29a3.76 3.76 0 017.52 0 3.76 3.76 0 01-7.52 0zm4.06 9h4.36c1.21 0 2-.56 2-1.44s-.82-1.45-2-1.45h-4.36c-1.2 0-2 .56-2 1.45s.8 1.4 2 1.4zm7.67-6.4v1.64h-1.5V1.53h1.5v1.79h1.95v1.36h-1.95v1.73h1.95v1.36zm-10.23-2.6a2.26 2.26 0 104.52.14v-.14a2.26 2.26 0 00-4.52-.13zm20.28 2.34c0 1.73-1.44 3-3.47 3s-3.46-1.28-3.46-3 1.43-3 3.46-3 3.47 1.27 3.47 3zm4.66 6.3v1.34h-11.43v-4h1.5v2.7zm1.64-8v1.33h-2v4.94h-1.5V1.53H146v4.3zm-5.55-3.33v1.32h-8.27V2.51h3.3V1.07h1.5v1.44zm-2.26 5a2 2 0 00-3.92 0 2 2 0 003.92 0zm14.69-5.88h1.5a36 36 0 01-.3 4.64 16 16 0 004.13 7.41l-1.1 1a16.51 16.51 0 01-3.54-5.58 21.41 21.41 0 01-2.19 5.78l-1.34-.7a25.43 25.43 0 002.84-12.52zm7.82-.14h1.5v5.55h2V8.4h-2v7h-1.5zm17.86 3.3v1.39h-2V9.9h-1.5V1.53h1.5v3.3zm-2 5.73v4.67h-11.08v-4.64zM169 13.87h8.11v-2H169zm6.47-6V9.2h-8.28V4.81h5.57V3.18h-5.57V1.82h7.08v4.32h-5.57v1.7zm18.16 6v1.33h-11.94v-3.65h10.22v-1h-10.22V9.27h11.73v3.59h-10.23v1zm-12.69-6.93h13.23v1.34h-13.23zM193.5 6h-11.81V1.82h11.73v1.34h-10.23v1.51h10.3zm14.17-4.48v13.84h-1.5V1.53zM197.29 6v4.52c0 2.1.75 3 2.19 3s2.18-.9 2.18-3V6c0-2.11-.76-3-2.18-3s-2.19.93-2.19 3zm-1.5 4.52V6c0-2.94 1.5-4.36 3.7-4.36s3.68 1.46 3.68 4.36v4.52c0 2.91-1.5 4.33-3.68 4.33s-3.71-1.42-3.71-4.33zM226 1.82v1.36h-4.62c-.13.16-.28.32-.42.48a12.23 12.23 0 005.5 1.58l-.74 1.19a12.73 12.73 0 01-5.77-1.9 11.92 11.92 0 01-5.41 2.1l-.72-1.19a10.2 10.2 0 005.68-2.25h-5.23V1.82zm-2.56 13.68h-6.63c-1.5 0-2.56-.67-2.56-1.84s1.06-1.81 2.56-1.81h6.63c1.5 0 2.54.67 2.54 1.81s-1 1.84-2.55 1.84zm-6.63-1.33h6.62c.56 0 1-.16 1-.51s-.42-.51-1-.51h-6.62c-.58 0-1 .17-1 .51s.42.51 1 .51zm9.33-4.37v1.32h-12V9.8h5.24V9h1.5v.8zm-5.35-2.56h5.94v1.35H213.5V7.24h5.79V5.72h1.5zm7.55 3.32V6c0-2.94 1.5-4.36 3.7-4.36s3.68 1.46 3.68 4.36v4.52c0 2.91-1.5 4.33-3.68 4.33s-3.7-1.38-3.7-4.29zm1.5-4.56v4.52c0 2.1.76 3 2.2 3s2.17-.9 2.17-3V6c0-2.11-.75-3-2.17-3s-2.19.89-2.19 3zm10.08 2.4v7h-1.5V1.53h1.5v5.52h2V8.4zm3.12 3V9.5a3.54 3.54 0 017.08 0v1.95a3.54 3.54 0 01-7.08 0zm11.28-3v7h-1.5V1.53h1.5v5.52h2V8.4zm-9.77 1.1v1.95a2 2 0 104.06.13V9.5a2 2 0 00-4.06-.18v.18zm6-5h-8V3.18h3.2V1.07h1.5v2.11h3.26zm6.13 3.9h13.23v1.4H256.7zm12.64 5.4v1.35h-11.87V11H259v2.85zm-11.87-7.2V1.67H259v3.62h10.38V6.6zm-198.79 28V30c0-2.94 1.5-4.36 3.7-4.36S66 27.1 66 30v4.52c0 2.91-1.5 4.33-3.68 4.33s-3.66-1.38-3.66-4.29zm1.5-4.6v4.52c0 2.1.75 3 2.19 3s2.18-.9 2.18-3V30c0-2.11-.75-3-2.18-3s-2.18.89-2.18 3zm10.08 2.4v7h-1.5V25.53h1.5v5.52h2v1.35zM81 38.75h-7.78V25.82h6.92v1.36h-5.41v4.06h5.41v1.35h-5.41v4.8h6.32zm3.9-13.22v13.83h-1.5V25.53zm15.3 11.86v1.36H87v-1.36zm-12.28-3.81L87 32.46a9.25 9.25 0 006.13-6.93l1.48.29a8.46 8.46 0 01-.6 2 12.23 12.23 0 006.23 4l-.79 1.2a13.84 13.84 0 01-6.14-3.89 11.13 11.13 0 01-5.39 4.4zm15.74-6.4v2.4h10.24v1.36h-10.23v2.48h10.39v1.36h-11.89v-9h11.73v1.36zm11 10.21v1.36h-13.24v-1.36zm1.17 1.36v-1.36h9.72v1.36zm10.83.61V25.53h1.5v13.83zm-2.26-9.92a4.07 4.07 0 11-4.23-3.9h.17a3.83 3.83 0 014.06 3.57zm-1.5 0a2.56 2.56 0 10-2.57 2.56 2.46 2.46 0 002.56-2.35v-.21zM143 39.5h-4.51c-2.26 0-3.6-1.14-3.6-2.77s1.34-2.78 3.6-2.78H143c2.26 0 3.62 1.13 3.62 2.78s-1.36 2.77-3.62 2.77zm-4.51-1.33H143c1.2 0 2-.56 2-1.44s-.83-1.45-2-1.45h-4.51c-1.2 0-2 .56-2 1.45s.8 1.44 2 1.44zm7.82-12.64v7.92h-1.5v-1.9h-3.47v-1.36h3.47v-1.5h-3.33v-1.36h3.33v-1.8zm-11.73.29h6.48v.82c0 3.3-2.68 5.85-6.43 6.38l-.63-1.25c3.12-.38 5.26-2 5.58-4.59h-5zM157 32.44h-3.9c-2.5 0-4.22-1.36-4.22-3.45s1.73-3.46 4.22-3.46h3.9c2.48 0 4.21 1.35 4.21 3.46s-1.73 3.45-4.21 3.45zm-3.9-1.36h3.9c1.65 0 2.63-.81 2.63-2.1s-1-2.11-2.63-2.11h-3.9c-1.66 0-2.64.83-2.64 2.11s1 2.1 2.64 2.1zm8.56 3.32v1.36h-5.85v3.74h-1.5v-3.74h-5.88V34.4zm5.54-8.58h6.61v2.83a11.25 11.25 0 01-6.24 10.11l-1-1.13a9.74 9.74 0 005.71-8.83v-1.62h-5.1zm11.73-.29v13.83h-1.5V25.53zm14.7 12.32v1.35h-11.94v-3.6h1.5v2.25zm-.16-12v1.36h-4.6a7.35 7.35 0 01-.65 1 10.83 10.83 0 005.71 2.26l-.74 1.2a11.9 11.9 0 01-5.85-2.48 10.41 10.41 0 01-5.34 2.65l-.78-1.22a8.5 8.5 0 005.9-3.44h-5.46v-1.36zm-5.19 7.38h5.94v1.36h-13.28V33.2h5.79v-2.13h1.5zm24.85-4.37v1.36h-2v3.87h-1.5v-8.56h1.5v3.3zm-6.3-3V33h-7.07v-7.18h1.5V28h4.06v-2.18zm-5.57 5.79h4.07v-2.29h-4.07zM208 39.5h-4.67c-2.26 0-3.46-1.14-3.46-2.62s1.2-2.63 3.46-2.63H208c2.26 0 3.46 1.12 3.46 2.63s-1.23 2.62-3.46 2.62zm-4.68-1.33H208c1.2 0 1.87-.48 1.87-1.3s-.67-1.3-1.87-1.3h-4.7c-1.2 0-1.87.48-1.87 1.3s.67 1.3 1.87 1.3zm13.5-12.64h1.5a11.56 11.56 0 01-.33 2.75 12 12 0 004.13 4l-.93 1.13a13.71 13.71 0 01-3.78-3.41 9.24 9.24 0 01-2.9 3.86l-1.2-1a8.69 8.69 0 003.5-7.31zm9 9v4.97h-1.5v-3.6h-9.92v-1.34zm-1.5-.8v-8.2h1.5v8.23zm16-7.94v8.27h-11.67v-8.24h1.5v2.72h8.72v-2.72zm-10.23 6.93h8.72v-2.84h-8.72zm11 4.64v1.36H227.9v-1.33h5.87V34.8h1.5v2.59zm10.19 1.36h-8.38v-12.9h7.52v1.36h-6v10.21h6.91zm3-6.35v7h-1.5V25.53h1.5v5.52h1.95v1.35zm7.31 1.26l-1.18-1a6.82 6.82 0 003.44-5.52h-2.84v-1.29h7.34v1.36h-3a11.62 11.62 0 01-.21 1.44 10.78 10.78 0 003.92 3.52l-1 1.12a12.6 12.6 0 01-3.52-3 8.36 8.36 0 01-2.9 3.4zm8 5.84h-4.82c-2.25 0-3.45-1.14-3.45-2.62s1.2-2.63 3.45-2.63h4.82c2.26 0 3.46 1.12 3.46 2.63s-1.15 2.65-3.41 2.65zm-4.82-1.33h4.82c1.2 0 1.87-.48 1.87-1.3s-.67-1.3-1.87-1.3h-4.82c-1.2 0-1.88.48-1.88 1.3s.73 1.33 1.93 1.33zm6.47-12.64h1.5v8.23h-1.5V30h-3.15v-1.32h3.15zm17.55 4.14V31h-1.95v5h-1.5V25.53h1.5v4.14zm-1.65 8.18v1.34h-11.37v-4.32h1.5v3zm-9-12.32h1.5a12 12 0 01-.37 2.86 12 12 0 004.16 4l-.93 1.15a13.33 13.33 0 01-3.79-3.5 9.55 9.55 0 01-2.86 3.9l-1.2-1a9.32 9.32 0 003.49-7.47zm23.57 5h-1.5v-3.32H290v-1.36h11.73zm-12.48.75h13.23v1.34h-13.2zm12.48 2.85v5.1H290v-5.1zm-10.23 3.78h8.72v-2.46h-8.72zM316 25.54v13.82h-1.5V25.53zm-10.38 4.51v4.51c0 2.1.75 3 2.19 3s2.18-.9 2.18-3V30c0-2.11-.76-3-2.18-3s-2.19.89-2.19 3zm-1.5 4.51V30c0-2.94 1.5-4.36 3.7-4.36s3.68 1.42 3.68 4.36v4.52c0 2.91-1.5 4.33-3.68 4.33s-3.71-1.42-3.71-4.33zm-197.38 15h1.5a10.24 10.24 0 01-.26 2.34 11.16 11.16 0 004 3.79l-.93 1.15a13.49 13.49 0 01-3.66-3.28 8.34 8.34 0 01-3 3.68l-1.15-1a7.44 7.44 0 003.49-6.71zm10.67 3v1.34h-2v3.57H114v-7.94h1.5v3zm-5.26 11h-4.36c-2.25 0-3.61-1.14-3.61-2.77s1.35-2.79 3.6-2.79h4.36c2.25 0 3.61 1.13 3.61 2.78s-1.36 2.72-3.61 2.72zm-4.36-1.33h4.36c1.21 0 2-.56 2-1.44s-.82-1.45-2-1.45h-4.36c-1.2 0-2 .56-2 1.45s.79 1.38 1.99 1.38zm10-6.62h13.23v1.34h-13.2zm.7-.83l-.7-1.22c2.81-.37 5.23-1.55 6.06-4l1.55.23a6 6 0 01-.45 1 12.33 12.33 0 006.07 2.57l-.63 1.22a13.53 13.53 0 01-6.24-2.66 8.89 8.89 0 01-5.66 2.87zm8.32 8.78H122c-2.4 0-3.6-1-3.6-2.54s1.2-2.56 3.6-2.56h4.82c2.42 0 3.62 1 3.62 2.56s-1.2 2.54-3.62 2.54zM122 62.17h4.82c1.5 0 2-.48 2-1.21s-.53-1.24-2-1.24H122c-1.34 0-2 .48-2 1.24s.52 1.21 2 1.21zm11-2.72v-2a3.54 3.54 0 017.07 0v2a3.54 3.54 0 01-7.07 0zm11.28-3.05v7h-1.5V49.53h1.5v5.52h1.95v1.35zm-9.78 1.1v2a2 2 0 104.07.13V57.5a2 2 0 00-4.07-.18v.18zm6-5h-8v-1.32h3.2v-2.11h1.5v2.11h3.26zm6.13 3.9h13.23v1.4h-13.24zm12.64 5.41v1.39h-11.9V59h1.5v2.85zm-11.9-7.21v-4.93h1.5v3.62h10.39v1.31zm29.75-5.07v13.83h-1.5v-6.92H174v6.76h-1.5V49.6h1.5v5.48h1.65v-5.55zm-5.41.29v1.36h-6.32v-1.36zm.14 11.57v1.36h-6.62v-1.36h1.21v-8.85h1.5v8.85h.82l.75-8.85H171l-.75 8.85zm15.46-5v1.41h-7.52v-8h6.77v1.36h-5.27v1.94h5.1v1.34h-5.1v2zm4.51 5.41v1.4h-11.59V59h1.5v2.85zm-.3-12.32V60H190v-5.56h-2.86v-1.36H190v-3.55zm14.7 12.32v1.4h-11.89v-3.67h10.22v-.93h-10.22v-1.34h11.73v3.6h-10.23v1zm-12.64-6.91h13.23v1.34h-13.23zm3.31-2.18h6.47c.75 0 1.36-.35 1.36-.94s-.61-1-1.36-1h-6.47c-.75 0-1.2.35-1.2 1s.45.94 1.2.94zm0-3.23h6.47c1.66 0 2.86.79 2.86 2.29s-1.2 2.27-2.86 2.27h-6.47c-1.65 0-2.7-.77-2.7-2.27s1.05-2.29 2.7-2.29zm27.33.29v8.27h-11.73v-8.22H214v2.72h8.72v-2.72zM214 56.75h8.72v-2.87H214zm11 4.64v1.36h-13.26v-1.36h5.87V58.8h1.5v2.59zm3-8.32a2.11 2.11 0 102.11-2.2 2.08 2.08 0 00-2.12 2v.17zm-1.5 0a3.61 3.61 0 113.69 3.52h-.08a3.48 3.48 0 01-3.62-3.33v-.19zm1 10.13l-1.12-1a6.17 6.17 0 003.57-4.66l1.42.21a5.74 5.74 0 01-.41 1.68 7.84 7.84 0 002.06 2.08 6.07 6.07 0 002.18-4l1.44.21a5.51 5.51 0 01-.42 1.78 12.39 12.39 0 003.22 2.5l-.86 1.17a16.33 16.33 0 01-3.1-2.33 8.31 8.31 0 01-2.48 2.42 10.44 10.44 0 01-2.85-2.53 7.77 7.77 0 01-2.75 2.47zm9.5-13.67h1.5v7.78H237v-2h-2.7V54h2.7v-1.68h-2.7V51h2.7zm4 9V54c0-2.86 1.44-4.36 3.62-4.36s3.61 1.5 3.61 4.36v4.52c0 2.83-1.44 4.33-3.61 4.33S241 61.39 241 58.56zm1.5-4.52v4.52c0 2.1.75 3 2.11 3s2.12-.9 2.12-3V54c0-2.11-.76-3-2.12-3s-2.11.89-2.11 3zm8.88 2.4h-2.56v-1.33h2.56v-5.55h1.5v13.83h-1.5zm12 .61h-3.61c-2.56 0-4.37-1.5-4.37-3.76s1.81-3.76 4.37-3.76h3.61c2.55 0 4.35 1.5 4.35 3.76s-1.81 3.76-4.35 3.76zm-3.61-1.36h3.61a2.43 2.43 0 00.67-4.81 2.51 2.51 0 00-.67 0h-3.61a2.43 2.43 0 10-.7 4.81 2.06 2.06 0 00.69.03zm8.41 5.7v1.36h-13.24v-1.33h3V58h1.5v3.44h4.22V58h1.5v3.44zm3.3 1.22h-1.81v-1.8h1.8z" fill="#fff"/></g><path fill="none" d="M0 0h375v64H0z"/></g></g></svg>