<svg xmlns="http://www.w3.org/2000/svg" width="460" height="134"><defs><style>.cls-1{fill:#111}</style></defs><g id="Layer_2" data-name="Layer 2"><g id="Layer_1-2" data-name="Layer 1"><g id="_3_tit" data-name="3 tit"><g id="SMALL_TIT" data-name="SMALL TIT"><path id="패스_11223" data-name="패스 11223" class="cls-1" d="M148.92 17.27V1.72h-5v21.12l11-1.68v-4.8zM160.68 1h-4.32v6.6H152v4.8h4.32v10.44h4.32zM166 1h-4.32v21.84H166zm24 0h-5.52v21.84H190zm-21.86 12.48c0 6.79 2 9.6 7.08 9.6s7.08-2.81 7.08-9.6v-2.4c0-6.79-2-9.6-7.08-9.6s-7.08 2.81-7.08 9.6zm8.88-.24c0 4.37-.48 5.28-1.8 5.28s-1.8-.91-1.8-5.28v-1.92c0-4.37.48-5.28 1.8-5.28S177 7 177 11.32zm31.42.72v8.88H214V1h-5.52v7.92h-2.16v-7.2H201v6h-3.6v-6h-5.28v21.12l14.16-1.68V14zm-11-1.68H201v4.94l-3.6.44z"/><g id="VIBE"><g id="그룹_4493" data-name="그룹 4493"><g id="그룹_4492" data-name="그룹 4492"><path id="패스_11055" data-name="패스 11055" class="cls-1" d="M232.77 14.91l-4.6-12.71a.55.55 0 00-.51-.36h-4.74a.55.55 0 00-.54.55.41.41 0 000 .19l7.83 19.72a.57.57 0 00.51.34h4a.56.56 0 00.5-.34l7.83-19.72a.55.55 0 00-.3-.7.71.71 0 00-.2 0h-4.74a.55.55 0 00-.51.36z"/><rect id="사각형_144" data-name="사각형 144" class="cls-1" x="246.69" y="1.84" width="5.41" height="20.79" rx="1"/><path id="패스_11056" data-name="패스 11056" class="cls-1" d="M290 5.88v-3.5a.54.54 0 00-.54-.54h-12.69a.54.54 0 00-.54.54V22.1a.54.54 0 00.54.54h12.64a.54.54 0 00.54-.54v-3.5a.54.54 0 00-.54-.54h-8.09v-3.69h7.47a.54.54 0 00.54-.54v-3.29a.55.55 0 00-.54-.54h-7.47V6.42h8.09a.54.54 0 00.54-.54z"/><path id="패스_11057" data-name="패스 11057" class="cls-1" d="M269.27 11.82A5.8 5.8 0 00272 7.18c0-3-2.15-5.34-5.67-5.34h-8.7a.55.55 0 00-.54.54V22.1a.54.54 0 00.54.54h8.69c3.51 0 6.16-1.71 6.16-5.7a5.25 5.25 0 00-3.2-5.12zM262.17 6h2.63a2 2 0 012.2 1.93.74.74 0 010 .21c0 1.76-1 2.23-1.81 2.23h-3zm3 12.48h-3v-4.37H265a2 2 0 012.28 1.69 2.07 2.07 0 010 .5 2 2 0 01-1.73 2.17 1.53 1.53 0 01-.36.01z"/></g></g></g><path id="패스_11224" data-name="패스 11224" class="cls-1" d="M300.36 6.28v-4.8h-5.52V10h20.64V6.28zm0 13.32v-3.84h-5.52v7.56h20.64V19.6zm-6.24-8.6v3.8h22.08V11z"/></g><path id="패스_11222" data-name="패스 11222" d="M165.06 43.32h-7.77v14.07h-2.1V43.32h-7.77v38.22h7.77V65.79h2.1v15.75h7.77zM135.24 71.8V44.58h-8.82v37l19.32-2.94V70.2zm44.52-19v-2.34h26.46v-6.3H170.1v14.91h13.23v1.68h-14.49v6.72h38.64v-6.72H193v-1.68h13.23v-6.3zm0 23.1v-6.75h-9.66v13.23h36.12v-6.51zm69.3-32.55h-7.77v14.04h-2.1V43.32h-7.77v38.22h7.77V65.79h2.1v15.75h7.77zM219.24 71.8V44.58h-8.82v37l19.32-2.94V70.2zm34.86-3.49v14.07h36.12v-6.22h-26.46v-1.55h26.46v-6.3zm9.66-16.17v-1.89h26.46v-6.09H254.1v14.07h36.12v-6.09zm-10.92 7.77v6.72h38.64v-6.72zm71-16.59h-7.56v14.07h-2.6c-.5-9.58-3.49-13.23-9.58-13.23-6.72 0-9.66 4.45-9.66 16.38v5c0 11.93 2.94 16.38 9.66 16.38s9.62-4.41 9.66-16.17h2.52v15.79h7.56zm9.24 0h-7.58v38.22h7.56zm-26.9 21.42c0 7.48-.42 9.24-2.1 9.24s-2.1-1.76-2.1-9.24v-3.36c0-7.48.42-9.24 2.1-9.24s2.1 1.76 2.1 9.24zm-165.31 40.34l.88-2.1h9.87v-8.4h-24.78V103h5L126 116.84h9.87l3.61-8.48 3.11 8.48h9.87l-4.33-11.76zm-14 13.44v14.28h38.22v-8H136.5v-6.3zm38.22-25.2h-9.69v26.88h9.66zm3.78 24.78v14.7h38.22v-14.7zm13-12l3.57 10.37h9.87l-4.75-13.86h-7.36l3.28-8.4h-9.87L168 116.42h9.87zm25.2-12.73h-9.67v23.1h9.66zm-29 30.87h19.74v2.52h-19.73zm71-9h-9.67v3.57h-18.9v-3.57h-9.66v17.56h38.22zm-13.86-12c0-6.43-4.41-10.29-12.81-10.29s-12.81 3.86-12.81 10.29 4.41 10.29 12.81 10.29 12.8-3.91 12.8-10.34zm13.86-9.87h-9.67v20.53h9.66zm-26.67 13c-3.36 0-4.41-1.43-4.41-3.15s1.01-3.22 4.4-3.22 4.41 1.43 4.41 3.15-1.05 3.19-4.41 3.19zm-1.9 18.03h18.9v2.31h-18.9zm42-2.39V94.58h-9.66v37l24.78-2.94v-8.4zm28.56-28.69h-9.66v38.22h9.66zm3.78 1.26v37l24.78-2.94v-8.4L304.5 122v-19h15.12v-8.4zM331.38 107V93.32h-9.66v38.22h9.66v-15.33h3.36V107z" fill="#8214ff"/></g><path fill="none" d="M0 0h460v134H0z"/></g></g></svg>