<svg xmlns="http://www.w3.org/2000/svg" width="240" height="79"><defs><style>.cls-1{fill:#666}</style></defs><g id="Layer_2" data-name="Layer 2"><g id="Layer_1-2" data-name="Layer 1"><g id="_8_txt02" data-name="8 txt02"><path id="패스_11407" data-name="패스 11407" class="cls-1" d="M30.58 11.91V1.46h1.5v10.45zm-9.78 3.22v-4.19h1.5v2.84h10.08v1.35zm4.37-11.27a6.06 6.06 0 01-.26 1.28 9.94 9.94 0 004 3.38L28 9.67a12.84 12.84 0 01-3.72-3 8.28 8.28 0 01-3.44 3.47l-1.12-1a7.06 7.06 0 003.92-5.24h-3.29V2.5h3.23V1h1.5v1.5h3.25v1.36zM46.22 9h-1.5V3.11H34.5V1.75h11.72zm.78 1v1.36h-5.88v4h-1.5v-4h-5.87V10zm13.4 3.78v1.33H48.5v-3.63h10.22v-.94H48.5V9.2h11.72v3.59H50v1zm-12.66-6.9H61v1.34H47.74zM60.3 6H48.5V1.76h11.72V3.1H50v1.5h10.3zm13.48 2.33v7h-1.5V1.46h1.5V7h2v1.33zm-2.61 5v1.36h-9.43v-1.37h2.7V6.87h1.5v6.45zm-1.46-2.54h-1.5V3.11h-5.86V1.75h7.36zm20.22-9.33h1.5v13.83h-1.5zM80.25 10L79 8.9A7.85 7.85 0 0082.88 4h-3.17V2.66h3.23V1h1.5v1.67h3.28V4h-3.28c-.08.3-.16.6-.27.9a11.25 11.25 0 004.15 3.81l-1 1.14a13.83 13.83 0 01-3.84-3.39A9.6 9.6 0 0180.26 10zm-1.15 4.68v-1.36h3.74V9.78h1.5v3.54h4.48v1.36zm16-10.06v7.21c0 1.2.52 1.65 1.28 1.65s1.28-.45 1.28-1.65V4.62c0-1.2-.53-1.65-1.28-1.65s-1.32.45-1.32 1.65zm-1.5 7.21V4.62a2.66 2.66 0 012.3-3 3.62 3.62 0 01.47 0 2.67 2.67 0 012.8 2.53 2.57 2.57 0 010 .48v7.22a2.67 2.67 0 01-2.31 3 2.57 2.57 0 01-.48 0 2.66 2.66 0 01-2.8-2.52 3.77 3.77 0 010-.47zm11.84-10.37v13.83h-1.5V8.38h-1.81v6.75h-1.5V1.53h1.5V7h1.8V1.46zm14.3 12.37v1.3h-11.88V11.8h10.22v-.7h-10.22V9.8h11.72v3.28h-10.22v.75zM107.1 7.77h13.23v1.31H107.1zm12.64-2v1.3h-11.88v-3.3h10.22v-.72h-10.22v-1.3h11.72v3.3h-10.22v.72zm8.48 9.23l.5-3.68h-1.65l-.5 3.68h-1.5l.5-3.68H124V10h1.73l.43-3.17h-1.63V5.45h1.81l.51-3.7h1.5l-.51 3.7h1.65l.51-3.7h1.5l-.5 3.7h1.57v1.34h-1.74l-.41 3.21h1.64v1.3h-1.84l-.5 3.68zm.69-5l.43-3.17h-1.64l-.44 3.17zm16.34-8.5v13.79h-1.5V8.38h-2.26v6.75H140V1.53h1.5V7h2.25V1.46zm-11.73 13.18V1.75H135v11.57h3.86v1.36zm26-.9v1.35h-11.86v-4.05h1.5v2.7zm-.08-6.94h-5.26v1.84h5.93V10h-13.2V8.68h5.79V6.84h-5V1.75h11.73V3.1h-10.26v2.41h10.3zm13.78-5.38v13.83h-1.5V8.38h-2.26v6.75H168V1.53h1.5V7h2.25V1.46zm-11.7 13.22V1.75H163v11.57h3.86v1.36zm25.95-8.21h-11.81V1.75h11.73v1.33h-10.22v2.06h10.3zm-12.56 1.31h13.23v1.35h-13.23zm2.26 6h10.38v1.33h-11.89v-4.62h11.73v1.31h-10.22zm15.83-2.4v-2a3.26 3.26 0 013-3.46 2.8 2.8 0 01.5 0 3.25 3.25 0 013.53 2.95 2.79 2.79 0 010 .5v2a3.25 3.25 0 01-3 3.45 2.77 2.77 0 01-.5 0 3.24 3.24 0 01-3.53-2.94 4.17 4.17 0 010-.5zm11.3-3.05v7h-1.5V1.46h1.5V7h2v1.33zm-9.77 1.1v2a2.05 2.05 0 004.07.42 2 2 0 000-.42v-2a1.89 1.89 0 00-1.6-2.1 1.77 1.77 0 00-.4 0 1.89 1.89 0 00-2 1.71 2.64 2.64 0 00-.07.39zm6-5h-8V3.11h3.2V1h1.5v2.12h3.26zm6.33-1.36V1.75h7.35v1.36h-3.14a26.52 26.52 0 01-.32 3.89 15.27 15.27 0 004.3 6.76l-1.13.92a17 17 0 01-3.7-5.26 16.68 16.68 0 01-2.59 5.45l-1.36-.7c2.43-3.28 3.25-6.9 3.31-11zm9.92-1.65h1.5V7h2v1.33h-2v7h-1.5z"/><path id="패스_11363" data-name="패스 11363" d="M41.45 51.17V32.69h5.88c3.6 0 5.4 2 5.4 4.9a4.38 4.38 0 01-2.16 4.1c1.7.82 2.5 2.16 2.5 4.42 0 3-2 5.06-5.4 5.06zm4.1-3.82h1.32c1.46 0 2.08-.74 2.08-1.92s-.74-1.8-2.08-1.8h-1.32zm1.3-10.82h-1.3v3.26h1.22a1.62 1.62 0 001.84-1.37 1.82 1.82 0 000-.33c.01-1.09-.68-1.56-1.76-1.56zm13.49 10.13h4.1c-.12 3-2.33 4.73-5.5 4.73s-5.41-1.59-5.41-4.49v-5.19c0-2.92 2.26-4.51 5.41-4.51s5.42 1.59 5.42 4.51v4.2h-6.72v.65c0 .79.46 1.1 1.3 1.1s1.3-.31 1.4-1zM57.65 42v.53h2.61V42c0-.79-.41-1-1.32-1s-1.29.21-1.29 1zm8.06 4.9v-5.19c0-2.83 2-4.51 5.4-4.51s5.42 1.68 5.42 4.51v5.19c0 2.81-2 4.49-5.42 4.49s-5.4-1.68-5.4-4.49zm4.1-4.63v4.08c0 .77.41 1.22 1.3 1.22s1.32-.45 1.32-1.22v-4.08c0-.79-.41-1.22-1.32-1.22s-1.29.43-1.29 1.22zm19.8-3.38c0 4-2 6.21-6.1 6.21h-1.32v6.07h-4.1V32.69h5.42c4.07 0 6.11 2.26 6.11 6.19zm-4.13 0c0-1.68-.74-2.36-2.21-2.36h-1.08v4.73h1.08c1.47 0 2.21-.67 2.21-2.38zm5.16 9.36v-16h4.1v14.19c0 .67.22.91 1 .91v3.82c-3.28.46-5.1-.12-5.1-2.93zm16.42-6.77v9.7h-3.67l-.12-.75a4.39 4.39 0 01-2.69.84c-2.44 0-4.08-1-4.34-3.5-.31-2.78 1.73-4.48 4.7-5a12.91 12.91 0 012.06-.17v-.7c0-.6-.36-.91-1.08-.91s-1.17.39-1.12 1.1h-4c-.22-3 1.56-4.9 5.13-4.9s5.13 1.69 5.13 4.29zM103 46a4.58 4.58 0 00-2.07.33.9.9 0 00-.7.82c0 .31.32.38.75.36 1.11-.13 2-.75 2-1.52zm8.66 5v-.07l-3.84-13.44h4.2l.79 3.46.84 5 .6-5 .62-3.48h4.23l-3.89 15.33a3.18 3.18 0 01-3.46 2.48h-2.55v-3.89h1.8a.62.62 0 00.67-.46zm25.51-12c0 4-2 6.21-6.1 6.21h-1.31v6.08h-4.11v-18.6h5.42c4.07 0 6.11 2.31 6.11 6.19zm-4.12 0c0-1.68-.75-2.35-2.21-2.35h-1.08v4.73h1.08c1.47-.12 2.22-.79 2.22-2.5zm5.06 12.29V46.3a4 4 0 011.61-3.6l4.2-3.19a2.11 2.11 0 00.7-1.64c0-1-.41-1.58-1.2-1.58s-1.2.65-1.2 1.8h-4.1c0-3.86 2.16-5.64 5.3-5.64s5.3 1.78 5.3 5.42c0 2.14-.6 3.87-2.07 4.92l-3.88 2.84a1.3 1.3 0 00-.56 1v.72h6.5v3.82zm22.27-14.64v11.59c0 1.13.41 1.35 1.75 1.35v3.84c-4.3 0-5.85-1.13-5.85-5V36.29c0-3.84 1.56-5 5.85-5v3.84c-1.33.03-1.74.27-1.74 1.4zm3 14.64V46.3a4 4 0 011.62-3.6l4.2-3.19a2.11 2.11 0 00.7-1.64c0-1-.41-1.58-1.2-1.58s-1.2.65-1.2 1.8h-4.1c0-3.86 2.16-5.64 5.3-5.64s5.3 1.78 5.3 5.42c0 2.14-.6 3.87-2.07 4.92L168 45.63a1.29 1.29 0 00-.55 1v.72H174v3.82zm26 1.8h-7.47c-3.26 0-5.4-1.8-5.4-4.37s2.14-4.41 5.4-4.41h7.47c3.26 0 5.4 1.8 5.4 4.41S192.67 53 189.41 53zm-2.26-20.74v10.49H176.3V32.23zm.67 9.58v-3.74h2.66V37h-2.66v-3.66h2.66V32h4.1v11.78h-4.1v-2zm-5.88 7.78h7.47c.76 0 1.22-.44 1.22-1a1.08 1.08 0 00-1.12-1h-7.57c-.79 0-1.22.46-1.22 1s.46.88 1.25.88zm-1.8-10h3.17V35.5h-3.17zm18.44 8.66V36.53c0-1.13-.41-1.37-1.78-1.37v-3.84c4.3 0 5.88 1.13 5.88 5v12.16c0 3.81-1.59 4.94-5.88 4.94v-3.83c1.4 0 1.81-.22 1.81-1.35z"/><path id="패스_11361" data-name="패스 11361" class="cls-1" d="M89.75 76.22v-11h3.68q3.82 0 3.83 3.21a2.82 2.82 0 01-2 2.83v.08L98 76.22h-2.15l-2.45-4.43h-1.68v4.43zm2-5.79h1.5a2.16 2.16 0 001.5-.43 2 2 0 00.47-1.44 1.69 1.69 0 00-.48-1.35 2.32 2.32 0 00-1.53-.41h-1.49zm10.77 5.94a3.84 3.84 0 01-2.89-1.08 4.22 4.22 0 01-1-3V72a4.21 4.21 0 011.03-3 4.28 4.28 0 015.72 0 4.28 4.28 0 011 3v.22a4.23 4.23 0 01-1.07 3.06 3.76 3.76 0 01-2.82 1.09zm0-1.4c1.3 0 2-.87 2-2.62V72a3.16 3.16 0 00-.53-2.11 1.87 1.87 0 00-1.47-.61 1.78 1.78 0 00-1.48.67 3.26 3.26 0 00-.52 2v.38a3.14 3.14 0 00.55 2.1 1.88 1.88 0 001.5.61zm6.11 3.62a2.21 2.21 0 01-1.2-.27v-1.23a4.34 4.34 0 00.8.08 2 2 0 001-.21 1.38 1.38 0 00.57-.77l.22-.58-3.13-7.61h2l2.08 5.34h.03l1.91-5.34h1.77l-3.18 8.47a3.35 3.35 0 01-1.06 1.65 2.9 2.9 0 01-1.81.47zm9.1-2.22a2.76 2.76 0 01-1.83-.59 2.14 2.14 0 01-.69-1.75q0-2.09 2.64-2.46l1.94-.23v-.62a1.26 1.26 0 00-.41-1.1 2.71 2.71 0 00-1.48-.28 9 9 0 00-2 .22V68.3a7.4 7.4 0 012.72-.45c2 0 3 .82 3 2.45v5.92h-1.52l-.14-.67h-.1a2.68 2.68 0 01-2.13.82zm.56-1.3a2.1 2.1 0 001.5-.49v-2l-1.52.16a1.61 1.61 0 00-.94.34 1.19 1.19 0 00-.31.9 1.06 1.06 0 00.35.85 1.39 1.39 0 00.93.28zm5.1 1.15v-11.7h1.87v11.7zm7.7 0v-11h3.84q3.62 0 3.62 2.76a2.33 2.33 0 01-1.79 2.4 2.45 2.45 0 012.24 2.69 2.88 2.88 0 01-1 2.28 4.2 4.2 0 01-2.84.85zm2-1.47h1.89c1.35 0 2-.59 2-1.78a1.54 1.54 0 00-.54-1.33 2.6 2.6 0 00-1.6-.41h-1.78zm0-4.83h1.54c1.34 0 2-.55 2-1.63a1.47 1.47 0 00-.48-1.23 2.41 2.41 0 00-1.46-.36h-1.62zm7.41 6.3v-11.7h1.85v11.7zm6.13.15c-1.67 0-2.5-.8-2.5-2.4V68h1.84v5.63a1.31 1.31 0 00.3 1 1.49 1.49 0 001 .29 4.72 4.72 0 001.84-.5V68H151v8.24h-1.6l-.16-.72h-.08a4.25 4.25 0 01-2.57.85zm9.74 0a4 4 0 01-3.05-1.09 4.3 4.3 0 01-1-3.07V72a4.14 4.14 0 011.06-3.06 3.72 3.72 0 012.62-1.09 3.31 3.31 0 012.64 1 4.54 4.54 0 01.84 3v.77h-5.37a2.43 2.43 0 00.71 1.78 2.84 2.84 0 001.85.54 5.63 5.63 0 002.54-.61v1.27a5.23 5.23 0 01-2.91.77zm-.37-7.16q-1.69 0-1.86 2.13h3.5a2.6 2.6 0 00-.4-1.63 1.54 1.54 0 00-1.24-.5z"/></g><path fill="none" d="M0 0h240v79H0z"/></g></g></svg>