<svg xmlns="http://www.w3.org/2000/svg" width="375" height="129.41"><defs><style>.cls-1{fill:#fff}.cls-2{fill:none;stroke:#000;stroke-width:2px}</style></defs><g id="Layer_2" data-name="Layer 2"><g id="Layer_1-2" data-name="Layer 1"><g id="Layer_1-2-2" data-name="Layer 1-2"><g id="Layer_1-2-2-2" data-name="Layer 1-2-2"><g id="Layer_1-2-3" data-name="Layer 1-2-3"><g id="_7_tag" data-name="7 tag"><g id="tag1"><g id="사각형_162" data-name="사각형 162"><path class="cls-1" d="M70 88.41h120a20 20 0 0120 20 20 20 0 01-20 20H70a20 20 0 01-20-20 20 20 0 0120-20z"/><path class="cls-2" d="M70 89.41h120a19 19 0 0119 19 19 19 0 01-19 19H70a19 19 0 01-19-19 19 19 0 0119-19z"/></g><path id="_내돈내듣에_공감하기" data-name="내돈내듣에 공감하기" d="M72.53 106.81c1 0 1.34.88 1.34 1.73 0 1.06-.54 2.72-2 2.72-1.06 0-1.3-1-1.3-1.6-.02-1.25.69-2.85 1.96-2.85zm4.87 5.81a6.37 6.37 0 01-4.66 1.79 5.1 5.1 0 01-5.45-4.72v-.62a5.19 5.19 0 014.89-5.45h.41c2.9 0 5 1.62 5 4.62 0 1.75-.74 3-1.8 3-.61 0-.72-.4-.72-.81a6.92 6.92 0 01.18-1.28l.7-3.38h-1.4l-.16.75a1.87 1.87 0 00-1.82-1 3.83 3.83 0 00-3.57 4.06 2.63 2.63 0 002.29 2.92h.3a2.59 2.59 0 002.22-1.26h.09c0 .68.55 1.26 1.56 1.26 1.86 0 3.53-1.51 3.53-4.41 0-3.87-3.1-5.78-6.37-5.78a6.72 6.72 0 00-6.88 6.56v.13c0 3.9 2.76 6.67 6.88 6.67a7.58 7.58 0 005.63-2.16zm11-5.74h-1.8l-2.52 6.71-2.5-6.71h-1.9l3.48 8.53H85zm3.35 0h-1.68v8.53h1.69zm.25-3.08a1.13 1.13 0 10-1.18 1.08 1.11 1.11 0 001.18-1zm4.37 10.26a3.6 3.6 0 003.08 1.58 4.26 4.26 0 004.31-4.2v-.31a4.26 4.26 0 00-4-4.48h-.28a3.7 3.7 0 00-3 1.52v-6.37h-1.73v13.61h1.63v-1.35zm5.63-2.93a2.87 2.87 0 01-2.61 3.09h-.19a3 3 0 01-2.88-3v-.09a3 3 0 012.8-3.1h.08a2.85 2.85 0 012.85 2.84 1.13 1.13 0 010 .26zm5.28-.74A2.64 2.64 0 01110 108a2.28 2.28 0 012.4 2.13v.3zm6.78.68c0-2.72-1.58-4.43-4.1-4.43a4.34 4.34 0 00-4.41 4.23v.29a4.3 4.3 0 004.11 4.48h.39a4.38 4.38 0 003.68-1.74l-1.19-1a2.87 2.87 0 01-2.49 1.3 2.73 2.73 0 01-2.77-2.59h6.77a4.86 4.86 0 000-.54zm4.45 3.26a1.17 1.17 0 00-1.17-1.17 1.18 1.18 0 00-1.17 1.19v.06a1.18 1.18 0 002.36 0zm11.23-3.2a4.6 4.6 0 10-4.6 4.6 4.6 4.6 0 004.61-4.59zm-1.76 0a2.86 2.86 0 01-5.69.48 3.84 3.84 0 010-.48 2.85 2.85 0 115.69-.45 3.39 3.39 0 010 .45zm8.12-4.25h-2v-1.78c0-1 .23-2.06 1.51-2.06a4 4 0 01.84.13l.2-1.46a3.79 3.79 0 00-1.06-.12c-2.3 0-3.18 1.51-3.18 3.51v1.78h-1.7v1.38h1.69v7.15h1.7v-7.15h2zm5.2 0h-2v-1.78c0-1 .23-2.06 1.51-2.06a4 4 0 01.84.13l.2-1.46a3.79 3.79 0 00-1.06-.12c-2.3 0-3.18 1.51-3.18 3.51v1.78H136v1.38h1.7v7.15h1.69v-7.15h2zm3.36 0H143v8.53h1.69zm.29-3.08a1.13 1.13 0 10-1.18 1.08 1.11 1.11 0 001.18-1zm9.86 4.25a4 4 0 00-3.2-1.4 4.35 4.35 0 00-4.55 4.14v.36a4.34 4.34 0 004.17 4.5h.4a4 4 0 003.18-1.34l-1.13-1a2.52 2.52 0 01-2.05.94 2.86 2.86 0 01-2.82-2.88v-.19a2.85 2.85 0 012.59-3.07h.2a2.42 2.42 0 012 1zm3.4-1.17h-1.68v8.53h1.69zm.29-3.08a1.13 1.13 0 00-2.23-.38v.1a.61.61 0 000 .19 1.13 1.13 0 001.08 1.17 1.11 1.11 0 001.14-1.08zm8 6.32c-2.88 0-5.94.3-5.94 2.88 0 2 1.74 2.63 3.1 2.63a3.27 3.27 0 002.86-1.44 5 5 0 00.15 1.22h1.53a8.69 8.69 0 01-.13-1.69V110c0-1.89-1.12-3.35-3.56-3.35a5.21 5.21 0 00-3.49 1.28l1 1.07a3.55 3.55 0 012.43-1c1.26 0 2.11.61 2.11 1.87zm0 1.22v.45a2.33 2.33 0 01-2.14 2.5H164c-.85 0-1.75-.32-1.75-1.33 0-1.44 2.13-1.62 3.8-1.62zm6.17-9.54H171v13.61h1.69zm5 12.53a1.17 1.17 0 00-1.17-1.17 1.18 1.18 0 00-1.15 1.21 1.18 1.18 0 102.36 0zM182 101.8h-1.69v13.61H182V111h.05l3.95 4.43h2.34l-4.34-4.68 4-3.87h-2.3l-3.58 3.71h-.06zm7.76 6.91v6.7h1.69v-4.48a2.46 2.46 0 012.14-2.72h.25a3.46 3.46 0 01.78.09l.07-1.56a3 3 0 00-.67-.08 2.93 2.93 0 00-2.61 1.68 9.92 9.92 0 00-.07-1.44h-1.6c0 .56.07 1.38.07 1.83z"/></g><g id="tag2"><g id="사각형_162-2" data-name="사각형 162-2"><path class="cls-1" d="M238 88.41h60a20 20 0 0120 20 20 20 0 01-20 20h-60a20 20 0 01-20-20 20 20 0 0120-20z"/><path class="cls-2" d="M238 89.41h60a19 19 0 0119 19 19 19 0 01-19 19h-60a19 19 0 01-19-19 19 19 0 0119-19z"/></g><path id="_내돈내듣에_공감하기-2" data-name="내돈내듣에 공감하기-2" d="M233.22 106.08v-1.5H235l.54-3.51h1.36l-.55 3.51h1.87l.56-3.51h1.38l-.56 3.51h1.4v1.5h-1.6l-.4 2.14h1.44v1.51h-1.69l-.54 3.68h-1.39l.6-3.67h-1.87l-.55 3.67h-1.4l.56-3.67h-1.4v-1.52h1.65l.34-2.14zm2.92 0l-.38 2.14h1.87l.36-2.14zm19.48 9.75h-1.77v-8.12h-1.71v7.34h-1.73v-14.93h1.73v6h1.71v-6.33h1.77zm-6.23-6.28l.25 1.49a23.1 23.1 0 01-5.18.5h-1.59v-9.84h1.84v8.3a18 18 0 004.68-.45zm21.06-3.46h-4.63v2h6.36v1.49h-14.49v-1.52H264v-2h-4.4v-5.65h10.73v1.48h-8.87v2.77h9zm0 9.29h-10.91v-4.61h1.85v3.14h9.09zm16.28.45H285v-8.12h-1.71v7.34h-1.73v-14.93h1.73v6H285v-6.33h1.77zm-6.23-6.28l.25 1.49a23.1 23.1 0 01-5.18.5H274v-9.84h1.84v8.3a18.05 18.05 0 004.69-.47zm22.79-.86h-14.46v-1.5h14.49zm-1.7 6.94h-10.91v-5.47h10.78v1.48h-8.94v2.5h9.1zm0-9.93h-10.86v-5.49h10.73v1.49h-8.87v2.52h9z"/></g></g><path fill="none" d="M0 87.41h375v42H0z"/></g></g></g><g id="_7_tit" data-name="7 tit"><path id="패스_11576" data-name="패스 11576" d="M32.58 11.66h-1.27V5.6H30v-.92a1.61 1.61 0 001.6-1.37h1zm5.07-4.16a5.75 5.75 0 00-5.43-6.07h-.41A5.76 5.76 0 0026 7.1v.4a5.76 5.76 0 005.44 6.07h.4a5.77 5.77 0 005.85-5.72c-.03-.11-.03-.23-.04-.35zm1 0a6.71 6.71 0 01-6.45 7h-.37A6.74 6.74 0 0125 7.83V7.5a6.71 6.71 0 016.45-7h.36a6.68 6.68 0 016.82 6.6 2.67 2.67 0 010 .4zm5.17 2V5C43.8 2 45.3.6 47.5.6S51.18 2 51.18 5v4.48c0 2.92-1.5 4.34-3.68 4.34s-3.7-1.42-3.7-4.34zM45.3 5v4.48c0 2.1.75 3 2.19 3s2.18-.9 2.18-3V5c0-2.11-.76-3-2.18-3s-2.19.9-2.19 3zm10.08 2.32v7h-1.5V.46h1.5V6h1.95v1.32zM70.08.46v13.82h-1.5V7.37h-1.81v6.75h-1.5V.52h1.5V6h1.81V.46zm-5.87 11.86v1.36h-5.85V6.32h3.75V2.11h-3.76V.75h5.27v6.93h-3.76v4.64zm17.12-9.46a6.52 6.52 0 01-.25 1 8.49 8.49 0 004 3l-.86 1.2a10.3 10.3 0 01-3.82-2.77 7.94 7.94 0 01-3.38 3.14l-1.14-1a6.53 6.53 0 003.9-4.53h-3.3V1.5h3.24V0h1.5v1.5h3.24v1.36zm5.1 5.66V.46h1.5v3.3h2v1.36h-2v3.41zm-9.61 5.6V9.18h11.12v4.94zm9.62-1.32v-2.29h-8.11v2.29zm4.32-3.31V5c0-2.89 1.44-4.4 3.61-4.4S98 2.1 98 5v4.48c0 2.84-1.44 4.34-3.62 4.34s-3.61-1.5-3.61-4.34zM92.26 5v4.49c0 2.1.75 3 2.11 3s2.11-.9 2.11-3V5c0-2.11-.75-3-2.11-3s-2.11.9-2.11 3zm8.88 4.8h-2.56V8.43h2.56V5.26h-2.56V3.92h2.56V.46h1.5v13.82h-1.5zm14.55-9v12.88h-6.61V.75h1.5v4.51h3.6V.75zm3.61 6.62h-3V6h3V.46h1.5v13.82h-1.5zm-8.72 5h3.6v-5.8h-3.6zm24.93.46v1.34h-11.89v-3.3h1.5v2zm-12.64-4.23h13.23V10h-13.23zm12.64-2.53v1.35h-11.89V.75h11.73v1.34h-10.22v1.35h10.22v1.32h-10.22v1.36zm14.4 6.66v1.34H138v-3.66h10.23v-.93H138V8.19h11.73v3.6h-10.2v1zm-12.64-6.91h13.24v1.34h-13.24zm3.32-2.18h6.46c.75 0 1.36-.35 1.36-.94s-.61-1-1.36-1h-6.46c-.76 0-1.2.35-1.2 1s.44.94 1.19.94zm0-3.23h6.46c1.66 0 2.86.78 2.86 2.29S148.71 5 147.05 5h-6.46c-1.65 0-2.7-.77-2.7-2.27s1-2.29 2.69-2.29zm27.48 12.32v1.34h-11.89v-3.74h10.23v-1h-10.23V8h5V6.91h-5.79V5.56h13.23v1.35h-5.93V8h5.18v3.7h-10.18v1zm0-9.68v1.34h-11.89V.6h1.5v2.5zm9.59 9.22v1.36h-7.22V6.32h4.66V2.11h-4.66V.75h6.16v6.93H172v4.64zm3-4.64h-3.32V6.32h3.32V.46h1.5v13.82h-1.5zm13.21 5.39l-.67-2.83h-3.33l-.67 2.83h-1.65L190.71 1h1.67l3.15 12.08zm-1-4.19l-.46-2-.9-4-.87 4-.46 2zm10.32.9v3.3h-1.5V9.93a1.66 1.66 0 00-1.26-1.81h-2.36v5h-1.5v-12h3.32c2.1 0 3.6 1.2 3.6 3.31a3.25 3.25 0 01-1.81 3.19 2.3 2.3 0 011.51 2.22zm-3.47-7.36h-1.65v4.34h1.65a2.14 2.14 0 002.26-2v-.3c0-1.36-.82-2-2.26-2zM217.31 13v1.33h-11.6v-3.79h9.78V9.45h-9.78V8.12H217v3.72h-9.77V13zm-6-7.22h1.87v1.29H205V5.74h1.42v-3h1.5v3h1.89l.53-3h1.5zM217 .46v7h-1.5v-7zm-4.29.29v1.34h-7.44V.75zm14.18 12.93h-7.22V.75h6.46v1.36h-5v4.06H226v1.35h-4.82v4.8h5.72zm3-6.16h-3.15V6.17h3.15V.46h1.5v13.82h-1.5zm16.21 5.31v1.3h-11.89V10.8h10.23v-.7h-10.23V8.8h11.73v3.28h-10.23v.75zm-12.64-6.07h13.23v1.32h-13.23zm12.64-2v1.3h-11.89v-3.3h10.23V2h-10.23V.74h11.73V4h-10.23v.72zm8.53-4.3h1.5a8 8 0 01-.29 2.18 9.91 9.91 0 004.4 3l-.7 1.28a12.61 12.61 0 01-4.22-2.8 7.84 7.84 0 01-2.66 3.21l-1.18-.91a6.76 6.76 0 003.15-6zM264.26 13v1.33h-11.58v-3.85h9.77V9.29h-9.77V8H264v3.79h-9.78V13zM264 .46v6.82h-1.5V.46zm14.4 0V8.8h-1.5V5.26h-1.8V8.8h-1.47V.52h1.47v3.4h1.76V.46zm-5.4.76v1.3h-6.83V1.21h2.65V0h1.5v1.21zm-.37 4.64a3 3 0 11-3.33-2.69h.32a2.73 2.73 0 013 2.47 1.64 1.64 0 010 .22zm-1.49 0a1.52 1.52 0 10-1.6 1.43h.08a1.45 1.45 0 001.52-1.37v-.07zm4.19 8.57h-5.12c-2.1 0-3.3-1-3.3-2.46s1.2-2.48 3.3-2.48h5.12c2.12 0 3.32 1 3.32 2.48s-1.21 2.46-3.32 2.46zm-5.12-1.33h5.12c1.06 0 1.73-.4 1.73-1.13s-.67-1.17-1.73-1.17h-5.12c-1 0-1.72.42-1.72 1.17s.68 1.13 1.72 1.13zm-236 21.5v1.06h-4.86a4.8 4.8 0 011.73-3.34c1.1-1.16 2-1.38 2-2.72 0-1-.54-1.43-1-1.43-1.12 0-1.22 1.52-1.23 2h-1.32c.08-1.46.56-3.09 2.44-3.09a2.2 2.2 0 012.26 2.15 1.51 1.51 0 010 .3c0 1.23-.5 1.9-1.64 2.88-1.34 1.19-1.51 1.59-1.69 2.19zm3.44-3.1a5.75 5.75 0 00-5.43-6.07h-.41A5.76 5.76 0 0026 31.1v.4a5.76 5.76 0 005.44 6.07h.4a5.77 5.77 0 005.85-5.72c-.03-.11-.03-.23-.04-.35zm1 0a6.71 6.71 0 01-6.45 7h-.37A6.74 6.74 0 0125 31.83v-.33a6.71 6.71 0 016.45-7h.36a6.68 6.68 0 016.82 6.56 2.67 2.67 0 010 .44zm17.06-7v13.78h-1.5v-6.91h-2.28v6.75h-1.5v-13.6h1.5V30h2.25v-5.54zM44 37.68V24.75h1.5v11.57h3.85v1.36zm15.92-.15h-1.85v-1.79h1.81zm14-.75v1.34H62v-4h1.5v2.7zm-.08-6.94h-5.27v1.84h5.93V33H61.27v-1.32h5.79v-1.84H62v-5.09h11.75v1.34H63.53v2.42h10.3zm4 7.7H76v-1.8h1.8zm13.69-13.08v13.82H90v-6.91h-2.23v6.75h-1.5v-13.6h1.5V30H90v-5.54zM79.8 37.68V24.75h1.5v11.57h3.85v1.36zm15.92-.15h-1.81v-1.79h1.8zm14-8.06H97.86v-4.72h11.73v1.33H99.37v2.06h10.3zm-12.61 1.31h13.23v1.34H97.11zm2.26 6h10.38v1.33H97.86v-4.62h11.73v1.31H99.37zm20.28-7.54h1.5v3.92h1.35v1.34h-1.34v2.55h-1.5v-2.53H115v-1l4.07-8.57h1.66L117 33.18h2.7zm16.07-4.8v8.36h-1.5v-3.54h-1.76v3.54H131v-8.28h1.47v3.4h1.76v-3.46zm-5.35.75v1.31h-6.83v-1.29h2.66V24h1.5v1.22zm-.37 4.66a3 3 0 11-3.34-2.68h.33a2.74 2.74 0 013 2.47 1.79 1.79 0 01.01.21zm-1.49 0a1.52 1.52 0 10-1.6 1.44h.09a1.44 1.44 0 001.51-1.37v-.07zm4.19 8.58h-5.12c-2.1 0-3.3-1-3.3-2.47s1.2-2.48 3.3-2.48h5.12c2.11 0 3.31 1 3.31 2.48s-1.2 2.47-3.31 2.47zm-5.12-1.33h5.12c1.06 0 1.73-.4 1.73-1.14s-.67-1.16-1.73-1.16h-5.12c-1 0-1.73.41-1.73 1.16s.7 1.14 1.74 1.14zm12.9-12.5H142a36 36 0 01-.3 4.64 16.1 16.1 0 004.13 7.41l-1.1 1a16.51 16.51 0 01-3.54-5.58 21.34 21.34 0 01-2.19 5.79l-1.34-.7a25.59 25.59 0 002.84-12.56zm8.12-.14h1.5v13.82h-1.5zm16.36 14h-4.52c-2.25 0-3.6-1.14-3.6-2.77s1.35-2.78 3.6-2.78H165c2.25 0 3.61 1.13 3.61 2.78s-1.39 2.74-3.61 2.74zm-4.52-1.33H165c1.2 0 2-.56 2-1.44s-.83-1.46-2-1.46h-4.52c-1.2 0-2 .56-2 1.46s.77 1.41 1.97 1.41zm-2.7-9a2.19 2.19 0 004.37.3 1.5 1.5 0 000-.3 2.19 2.19 0 00-4.37-.3zm-1.5 0a3.69 3.69 0 113.7 3.68 3.57 3.57 0 01-3.68-3.45.89.89 0 010-.23zm12-3.68v7.78h-1.5v-1.91h-2.58V29h2.56v-1.69h-2.56V26h2.56v-1.5zm5.37 0h1.5a10.23 10.23 0 01-.25 2.34 11.13 11.13 0 004 3.79l-.86 1.16a13.85 13.85 0 01-3.67-3.28 8.33 8.33 0 01-3 3.68l-1.15-1a7.43 7.43 0 003.48-6.66zm10.67 3v1.34h-2v3.57h-1.5v-7.9h1.5v3zm-5.26 11h-4.36c-2.25 0-3.61-1.14-3.61-2.77s1.36-2.78 3.61-2.78h4.36c2.25 0 3.61 1.13 3.61 2.78s-1.37 2.77-3.62 2.77zm-4.36-1.33h4.36c1.21 0 2-.56 2-1.44s-.82-1.46-2-1.46h-4.36c-1.2 0-2 .56-2 1.46s.85 1.42 2.05 1.42zm22.68-.32v1.34h-11.9v-3.68h10.22v-.93h-10.17v-1.34h11.73v3.6H187v1zm-12.64-6.91H198v1.34h-13.26zm3.31-2.18h6.45c.76 0 1.36-.35 1.36-.94s-.6-1-1.36-1H188c-.75 0-1.2.35-1.2 1s.45.94 1.2.94zm0-3.23h6.45c1.67 0 2.87.78 2.87 2.29S196.18 29 194.51 29h-6.46c-1.64 0-2.7-.77-2.7-2.27s1.06-2.29 2.7-2.29zm27.18 13.82h-11.38v-3.5h9.62v-.84h-9.62V32.6h11.12v3.46h-9.62V37h9.92zm-1.81-13.82h1.5v3.15h1.95V29h-1.95v3h-1.5zm-9.63 5.38l-.9-1.12a5.75 5.75 0 003.7-2h-3.09v-1.38h3.1V24h1.5v1.36h3v1.31h-2.92c-.07.13-.15.26-.23.39a8.32 8.32 0 003.86 1.32l-.69 1.22a10.25 10.25 0 01-4-1.57 7.14 7.14 0 01-3.28 1.81zm8.53 1.93h-9.38v-1.33h3.68v-1.34h1.5v1.34h4.24zm14 6.66h-4.52c-2.25 0-3.6-1.14-3.6-2.77s1.35-2.78 3.6-2.78h4.52c2.25 0 3.61 1.13 3.61 2.78s-1.36 2.77-3.61 2.77zm-4.52-1.33h4.52c1.2 0 2-.56 2-1.44s-.83-1.46-2-1.46h-4.52c-1.2 0-2 .56-2 1.46s.85 1.42 2.05 1.42zm-2.7-9a2.19 2.19 0 004.37.3 1.5 1.5 0 000-.3 2.19 2.19 0 00-4.37-.3zm-1.5 0a3.69 3.69 0 113.7 3.68 3.57 3.57 0 01-3.68-3.45.89.89 0 010-.23zm12-3.68v7.78h-1.5v-1.9h-2.56V29h2.56v-1.69h-2.56V26h2.56v-1.5zM31.77 55.71h-.46v-.93c.9 0 1.56-.22 1.56-1.31 0-.74-.42-1.3-1-1.3-.78 0-1 .8-1.08 1.52h-1.2c.1-1.81 1.05-2.59 2.3-2.59a2.07 2.07 0 012.19 1.9v.25a1.83 1.83 0 01-1 1.87 1.83 1.83 0 011.21 2 2.46 2.46 0 01-2.2 2.71h-.26c-1.66 0-2.37-1.31-2.45-2.9h1.23c0 .7.11 1.82 1.24 1.82.64 0 1.25-.54 1.25-1.6-.04-.8-.41-1.44-1.33-1.44zm5.88-.21a5.75 5.75 0 00-5.43-6.07h-.41A5.76 5.76 0 0026 55.1v.4a5.76 5.76 0 005.44 6.07h.4a5.77 5.77 0 005.85-5.72c-.03-.11-.03-.23-.04-.35zm1 0a6.71 6.71 0 01-6.45 7h-.37a7 7 0 010-13.92 6.68 6.68 0 016.82 6.56 2.67 2.67 0 01-.02.36zm5.17 2V53c0-2.94 1.5-4.37 3.7-4.37S51.18 50 51.18 53v4.51c0 2.92-1.5 4.34-3.68 4.34s-3.7-1.45-3.7-4.37zM45.3 53v4.51c0 2.1.75 3 2.19 3s2.18-.9 2.18-3V53c0-2.11-.76-3-2.18-3s-2.19.9-2.19 3zm10.08 2.35v7h-1.5V48.46h1.5V54h1.95v1.34zm14.1-6.86v13.79H68v-6.91h-1.83v6.75h-1.5v-13.6h1.5V54H68v-5.54zm-5.87 11.83v1.36h-5.86v-7.36h3.76v-4.21h-3.76v-1.36H63v6.93h-3.75v4.64zm10.72.75v-2.5a3 3 0 011.55-3L78.21 54a2.26 2.26 0 001.08-2c0-1.2-.52-1.81-1.73-1.81s-1.73.61-1.73 1.81h-1.5c0-2.26 1.28-3.16 3.23-3.16s3.23.9 3.23 3.16a3.31 3.31 0 01-1.7 3.08l-2.3 1.49a2 2 0 00-1 1.9v1.2h5V61zm7.87-12.32H87V52a12.14 12.14 0 01-4.11 9.71l-1.34-.83a10.61 10.61 0 004-8.74v-2H82.2zm11.73-.29v13.82h-1.5v-6.91h-2.26v6.75h-1.5v-13.6h1.5V54h2.25v-5.54zm16.94 0v13.82h-1.5v-6.91h-1.81v6.75h-1.5v-13.6h1.5V54h1.81v-5.54zM105 60.32v1.36h-5.86V48.75h5.41v1.36h-3.9v4.21h3.76v1.36h-3.76v4.64zm19.81-1.49h-1.5v-8.72h-10.23v-1.36h11.73zm.75 1.49v1.36h-13.23v-1.36zm13.2.51v1.3h-11.89V58.8h10.22v-.7h-10.22v-1.3h11.73v3.28h-10.23v.75zm-12.65-6.07h13.24v1.32h-13.24zm12.64-2v1.3h-11.88v-3.3h10.22V50h-10.22v-1.3h11.73V52h-10.23v.72zm16.95 8v1.33h-11.89V56.4h5v-.91h-5.79v-1.35h13.23v1.34h-5.93v.92h5.18v1.33h-10.19v.85h10.23v1.32h-10.23v.9zm-.16-12v4.51h-11.73v-4.52h1.5v.9H154v-.9zM145.31 52H154v-1h-8.72zm12 5.52V53c0-2.86 1.44-4.37 3.61-4.37s3.62 1.5 3.62 4.37v4.51c0 2.84-1.44 4.34-3.62 4.34s-3.61-1.5-3.61-4.34zM158.8 53v4.51c0 2.1.75 3 2.11 3s2.11-.9 2.11-3V53c0-2.11-.75-3-2.11-3s-2.1.9-2.1 3zm8.88 4.8h-2.56v-1.37h2.56v-3.17h-2.56v-1.34h2.56v-3.46h1.5v13.82h-1.5zm5.66-9.17h1.5a35.8 35.8 0 01-.3 4.64 16.09 16.09 0 004.13 7.41l-1.1 1a16.81 16.81 0 01-3.57-5.59 21.08 21.08 0 01-2.19 5.78l-1.34-.7a25.55 25.55 0 002.85-12.57zm8.13-.14H183v13.79h-1.5v-7h-4.36V54h4.37zM184.31 63l-.44-.61a2 2 0 00.9-2v-.74h1.72v.74a2.56 2.56 0 01-2.18 2.61zm19.43-2.72v1.36H190.5v-1.32zm-12.33-3.81l-.91-1.12a9.23 9.23 0 006.13-6.93l1.49.29a8.49 8.49 0 01-.61 2 12.31 12.31 0 006.22 4L203 56a13.84 13.84 0 01-6.14-3.89 11.16 11.16 0 01-5.4 4.4zm25.52-.75v1.38h-11.88v-8.35h11.72v1.36h-10.22v2.11h10.22v1.34h-10.22v2.2zm.6 4.56v1.36h-13.24v-1.32h5.88v-2.45h1.5v2.45zm9.13 0v1.36h-8v-7.32h5.41v-4.21h-5.41v-1.36h6.92v6.93h-5.38v4.64zm3.76-11.86v13.86h-1.5V48.46zm4.79 9.78v-3.28c0-2 1.34-3 3.3-3s3.31 1 3.31 3v3.32c0 1.93-1.35 3-3.31 3s-3.3-1.07-3.3-3zm1.5-3.09V58c0 1.27.59 1.87 1.79 1.87s1.81-.6 1.81-1.87v-2.85c0-1.28-.6-1.89-1.81-1.89s-1.79.61-1.79 1.89zM247.22 52v1.5c-1.66-.46-2.86.29-2.86 1.73v5.84h-1.5v-9h1.36l.14 1a2.64 2.64 0 012.86-1.07zm15.9 9v1.33h-11.58v-3.79h9.77v-1.09h-9.77v-1.33h11.28v3.72H253V61zm-.3-12.5v7h-1.5v-7zm-3.45 5.28v1.33h-8.28v-3.88h5.57v-1.14h-5.57v-1.34h7.08v3.77h-5.57v1.22zm18.14 6.58v1.36h-13.23v-1.4zm-12.32-3.81l-.91-1.12a9.23 9.23 0 006.13-6.93l1.49.29a8.49 8.49 0 01-.61 2 12.31 12.31 0 006.22 4l-.78 1.2a13.84 13.84 0 01-6.14-3.89 11.16 11.16 0 01-5.4 4.4zm25.22 5.77h-1.5V48.46h1.5zM280 51.61v7.22c0 1.2.53 1.65 1.28 1.65s1.28-.45 1.28-1.65v-7.22c0-1.2-.53-1.65-1.28-1.65s-1.28.45-1.28 1.65zm-1.5 7.22v-7.22a2.79 2.79 0 015.57-.42 2.94 2.94 0 010 .42V54h1.72v-5.48h1.5v13.6h-1.5v-6.75h-1.72v3.46a2.79 2.79 0 01-5.57.39 2.54 2.54 0 010-.39zm28.83-2.4v5.7h-11.26v-5.7h1.54v1.34h8.24v-1.34zm-12-4.43a3.61 3.61 0 113.7 3.52h-.08a3.47 3.47 0 01-3.61-3.34 1.09 1.09 0 01-.03-.18zm12-3.54v7.32h-1.5v-3.1h-2.7v-1.36h2.7v-2.86zM296.82 52a2.11 2.11 0 102.11-2.2 2.08 2.08 0 00-2.11 2zm.75 8.8h8.28v-1.7h-8.28zm23.88-5v1.3h-11.89v-4.88h10.22v-2.11h-10.22v-1.36h11.73v4.81h-10.23v2.2zm.59 4.56v1.36h-13.23v-1.4h5.87v-2.45h1.5v2.45zm2.81-5.39h10.39v1.34h-11.89v-7.56h11.73v1.36h-10.23zm11 5.39v1.36H322.6v-1.4zm1.18-12h1.5v9.63H337zM338.66 62h-1.81v-1.83h1.81z"/></g></g></g></svg>