<svg xmlns="http://www.w3.org/2000/svg" width="600" height="27"><g data-name="Layer 2"><g data-name="Layer 1"><g data-name="1 tit"><path data-name="패스 11536" d="M119.74 23.21v-2l3.66-3.86a38.72 38.72 0 003.6-4.29 5.86 5.86 0 001.17-3.32 3 3 0 00-.91-2.46 4.29 4.29 0 00-2.78-.76 7.83 7.83 0 00-4 1.29L120 5.26a10.59 10.59 0 015.46-1.45 7 7 0 014.73 1.42 5.16 5.16 0 011.63 4.06 7.2 7.2 0 01-.44 2.43 9.4 9.4 0 01-1.38 2.46c-.61.83-1.15 1.5-1.61 2s-1.07 1.18-1.86 2l-2.27 2.32h7.7v2.69zm21.78.34a6.89 6.89 0 01-5.4-2.29q-2-2.28-2-6.93v-1.2a13.92 13.92 0 01.6-4.34 7.25 7.25 0 011.66-2.91 7 7 0 012.37-1.57 7.87 7.87 0 012.84-.5 6.93 6.93 0 015.33 2.24c1.38 1.5 2.06 3.83 2.06 7v1.2q0 4.77-2.07 7a6.92 6.92 0 01-5.35 2.27zm0-2.64a3.17 3.17 0 002.91-1.52 9.51 9.51 0 00.95-4.92v-1.42c0-4.39-1.27-6.58-3.83-6.58A3.2 3.2 0 00138.61 8a9.51 9.51 0 00-1 4.86v1.48c.05 4.38 1.33 6.57 3.91 6.57zm30.41 5H155v-7.57h3.25v4.95h13.69zM164.26 13l.39 2.63a46.88 46.88 0 01-10.16.87H152V3.22h3.25v10.5a33.34 33.34 0 009.01-.72zm3.86-6h-6.19V4.48h6.19V1.62h3.28v18.09h-3.28v-8.34h-6.19V8.85h6.19zm18.62 16.47a12.76 12.76 0 01-3.2-.4 7.84 7.84 0 01-2.43-.95l.56-2.49a7.33 7.33 0 002.06.77 10.44 10.44 0 002.42.32 4.94 4.94 0 003-.81 2.86 2.86 0 001.06-2.41q0-2.85-4-2.91h-2v-2.52L186 12a4.74 4.74 0 002.69-.8 2.43 2.43 0 001-2.06q0-2.62-3.42-2.63a9.72 9.72 0 00-4.09 1L181.84 5a9.21 9.21 0 012.44-.86 13.82 13.82 0 012.94-.35 7 7 0 014.34 1.25 4.17 4.17 0 011.62 3.51q0 3.28-3.44 4.48c2.72.55 4.09 2.11 4.09 4.7a5.13 5.13 0 01-1.9 4.2 8 8 0 01-5.19 1.55zm30.41 3.17h-17.86V21H213v-1.09h-13.74v-2.35h17.05v5.6h-13.75v1.14h14.59zM197 6.1a3.43 3.43 0 011.79-3 8 8 0 014.44-1.1 7.71 7.71 0 014.36 1.16 3.52 3.52 0 011.75 3 3.41 3.41 0 01-1.77 2.94 7.8 7.8 0 01-4.34 1.15 8.08 8.08 0 01-4.42-1.15 3.44 3.44 0 01-1.81-3zm11.08 9.9v-2.17h5V1.62h3.25v15h-3.25V16zm-3.62.67h-3.27v-3c-2.88.12-4.74.17-5.6.17l-.45-2.6c3.08 0 5.78 0 8.09-.14q4.88-.22 8.1-.64l.25 2.43c-1.89.27-4.26.48-7.11.65zm-3.34-11.84a1.45 1.45 0 000 2.59 4.08 4.08 0 002.11.47 4 4 0 002.1-.49 1.44 1.44 0 00.81-1.27 1.47 1.47 0 00-.81-1.29 3.93 3.93 0 00-2.1-.5 4 4 0 00-2.11.49zM218.77 27l1.12-5.66h3.53l-2 5.66zm13.86-15.34V9h2.72l.78-5h2.38l-.81 5h2.74l.84-5h2.36l-.81 5h2v2.64h-2.41l-.53 3.19h2.21v2.6h-2.6l-.86 5.35h-2.36l.87-5.35h-2.77l-.87 5.35h-2.35l.81-5.35h-2.1v-2.6h2.55l.5-3.19zm4.68 0l-.56 3.19h2.77l.56-3.19zm29.82 14.92H264v-12.5h-2.41v11.34h-3.05V2.07h3.05v9.38H264V1.62h3.11zm-9.58-7.34a20.64 20.64 0 01-3.5.5c-1.68.15-3.27.23-4.79.23H247V4.53h3.22v12.72a27.07 27.07 0 006.89-.65c0 .36.11.86.22 1.5s.18 1 .19 1.13zm31.84-7.67h-7.08v2.77H292V17h-22.55v-2.67H279v-2.77h-6.58v-9.1h16.71v2.63h-13.4V9h13.66zm0 14.33h-17.05v-7.17h3.25v4.59h13.8zm24.78.68h-3.11v-12.5h-2.41v11.34h-3V2.07h3v9.38h2.41V1.62h3.11zm-9.58-7.34a20.64 20.64 0 01-3.5.5c-1.68.15-3.27.23-4.78.23h-2.24V4.53h3.22v12.72a27 27 0 006.88-.65c0 .36.12.86.23 1.5s.17 1.03.19 1.13zM339 15.62h-22.51V13H339zm-2.6 10.64h-17.02v-8.7h16.8v2.63h-13.55v3.47h13.8zm-.06-15.32h-16.85V2.46h16.69v2.6h-13.41v3.27h13.6zm16.75 12.27L346.34 4H350l5 14.84h.09l5-14.84h3.22l-6.78 19.21zm12.34 0V4h3.48v19.21zm7.4 0V4h6.72c4.22 0 6.32 1.62 6.32 4.85a4.07 4.07 0 01-3.13 4.2v.08q4 .73 4 4.59a5 5 0 01-1.7 4 7.35 7.35 0 01-5 1.5zm3.41-2.58h3.3q3.56 0 3.56-3.1a2.76 2.76 0 00-.94-2.34 4.58 4.58 0 00-2.81-.72h-3.11zm0-8.45H379q3.53 0 3.53-2.86a2.52 2.52 0 00-.83-2.14 4.19 4.19 0 00-2.56-.63h-2.83zm13.27 11V4h12v2.72H393V12h6.64v2.69H393v5.82h8.71v2.72zm18.29-14a3.09 3.09 0 001 2.35 4.17 4.17 0 005.25 0 3.06 3.06 0 001-2.35 3 3 0 00-1-2.28 4.21 4.21 0 00-5.23 0 3 3 0 00-.99 2.28zm16.71-7.56v25h-3.21v-25zm-20.04 7.59a5.47 5.47 0 011.9-4.33 8.45 8.45 0 0110.06 0 5.49 5.49 0 011.89 4.33 5.47 5.47 0 01-1.89 4.31 8.36 8.36 0 01-10.05 0 5.47 5.47 0 01-1.91-4.31zm15.79 11c-2.47.31-5.28.56-8.43.72q-5.59.22-7.84.2l-.47-2.8c3.06 0 5.77 0 8.12-.14q4.88-.17 8.34-.61zm34.05 6.38H451V1.62h3.28zm-5.15-8.12l-1.9 2.46a13.2 13.2 0 01-3.24-3 12.41 12.41 0 01-2.25-3.93 12.36 12.36 0 01-2.32 4.24 12.58 12.58 0 01-3.64 3.18l-2-2.4A12.89 12.89 0 00440 7.53V3.72h3.39v3.64q0 7.36 5.77 11.09zm8.34-12.59V3.22h13.13v2.66h-4.76a7.24 7.24 0 001.77 4.31 8.41 8.41 0 003.81 2.52l-1.8 2.6a10.94 10.94 0 01-3.11-2 9.48 9.48 0 01-2.32-3 7.74 7.74 0 01-2.22 3.45 9.46 9.46 0 01-3.55 2.24l-1.93-2.55a9.68 9.68 0 004.27-2.94 7.56 7.56 0 001.72-4.62zm2.83 11.53h16.41v9.19h-3.3V20h-13.11zm19.93-7.2h-3.55v5.95h-3.3V1.62h3.3v5.91h3.55z" fill="#fff"/><path fill="none" d="M0 0h600v27H0z"/></g></g></g></svg>