<svg xmlns="http://www.w3.org/2000/svg" width="200" height="86"><defs><style>.cls-1{fill:#999}</style></defs><g id="Layer_2" data-name="Layer 2"><g id="Layer_1-2" data-name="Layer 1"><g id="_6_txt03" data-name="6 txt03"><path id="패스_11176" data-name="패스 11176" d="M7.76 1.25v13H.63v-13h2.05v4.13h3V1.25zm4.54 7v6.59h-2.13V1h2.13v5.2h1.79v2zm-9.62 4.07h3v-5h-3zM26.83 1v13.85h-2.11V1zM16.76 5.32v4.88c0 1.55.63 2.27 1.75 2.27s1.76-.72 1.76-2.27V5.32c0-1.54-.63-2.28-1.76-2.28s-1.75.74-1.75 2.28zm-2 4.88V5.32c0-2.74 1.5-4.23 3.78-4.23s3.81 1.49 3.81 4.23v4.88c0 2.72-1.5 4.19-3.81 4.19s-3.81-1.47-3.81-4.19zm26.39-8.95V10H29.26V1.25h2.13v2.4H39v-2.4zM31.39 8H39V5.6h-7.61zm10.43 4.35v2H28.59v-2zm1 3.23l-.53-1c.8-.35 1-.87 1-2.05v-.8h2.33v1c0 1.78-.89 2.75-2.78 2.94zm9.29-11.1h-1.5L50.37.94h2zm3.42.28v.59a1.81 1.81 0 001.66 1.93h.15a1.79 1.79 0 001.81-1.8v-.72a1.8 1.8 0 00-1.66-1.93h-.15a1.79 1.79 0 00-1.81 1.77zm-2.1.59v-.59A3.7 3.7 0 0157.07 1h.26a3.69 3.69 0 013.9 3.47v.85a3.7 3.7 0 01-3.66 3.73h-.24a3.7 3.7 0 01-3.89-3.5 1.77 1.77 0 01-.01-.2zM66 12.84v1.93H54.25v-4.54h2.13v2.61zM65.76 1v10.27h-2.12V1zM80.3 13.24v1.61H68.49v-4h9.39v-.77h-9.39V8.47H80v4h-9.38v.79zM75 1.25v6.4h-7v-6.4h2V2.8h3V1.25zM80 1v6.91h-2.12v-1.1h-2.24V5h2.24V3.94h-2.24V2.13h2.24V1zm-9.93 5H73V4.45h-2.92zM87 3.06a7.88 7.88 0 01-.21 1.18 10.18 10.18 0 003.61 3.13L89.13 8.9A11.89 11.89 0 0186 6.29a8.13 8.13 0 01-2.75 2.93l-1.57-1.33a6.44 6.44 0 003.21-4.83h-2.61V1.25h7.43v1.81zM91 15h-5c-2.21 0-3.49-1-3.49-2.72S83.79 9.52 86 9.52h5c2.24 0 3.5 1.14 3.5 2.76S93.2 15 91 15zm-5-1.8h4.6c1.06 0 1.68-.25 1.68-.92s-.62-1-1.68-1h-4.24c-1 0-1.68.24-1.68 1 0 .56.48.92 1.32.92zM94.23 1v8.14h-2.11V5.8h-2.69V4h2.69V1zm14.25 11.81v1.93H96.83v-4.51h2.11v2.61zm1.5-8v2h-1.8v4.43h-2.12V1h2.12v3.82zM99 1h2.13a12.26 12.26 0 01-.35 3 11.84 11.84 0 003.92 3.7l-1.27 1.58a13.08 13.08 0 01-3.42-3 8.77 8.77 0 01-2.67 3.31l-1.58-1.36A8.58 8.58 0 0099 1zm12.92 3.45h-1.5L110.18 1h2zm13.64 5.15h-4.51c-2.11 0-3.7-.86-3.7-2.7s1.59-2.7 3.7-2.7h4.51c2.1 0 3.68.88 3.68 2.7s-1.58 2.7-3.68 2.7zm4.36.74v2h-5.49V15h-2.26v-2.69h-5.49v-2zm-8.87-2.54h4.16c1.15 0 1.78-.24 1.78-.9s-.63-.9-1.78-.9h-3.82c-1.19 0-1.78.27-1.78.9s.47.9 1.44.9zm8.34-4.24h-12.18V1.7h4.88V.5h2.27v1.2h5zM.11 30.11h13.23v1.73H.11zm9.18-.8H4.17c-2.34 0-3.54-.91-3.54-2.64S1.83 24 4.17 24h5.12c2.32 0 3.52 1 3.52 2.64s-1.2 2.67-3.52 2.67zm-5.1-1.73h4.69c1.16 0 1.76-.24 1.76-.91s-.6-.91-1.76-.91H4.56c-1.08 0-1.76.24-1.76.91s.41.91 1.39.91zm8.48 5.22v5H.78v-5zm-9.76 3.28h7.63v-1.59H2.91zm21.81-2.15h-3.17V32.3h3.17V24h2.11v10.75h-2.11zm2.41 2v1.89H15.32V34h2.13v1.87zm-7.52-6.51H18c-2 0-3.23-1-3.23-2.67S15.93 24 18 24h1.65c2 0 3.23 1.06 3.23 2.68s-1.24 2.69-3.27 2.69zM18 27.69h1.65c.7 0 1.2-.35 1.2-1s-.5-1-1.2-1H18c-.72 0-1.2.34-1.2 1s.48 1 1.2 1zM23.5 30v1.7h-4.32v2h-2.13v-2h-2.7V30zm17.79.93v1.85h-12v-5.2H39v-1.5h-9.74v-1.83h11.89v5.1h-9.76v1.57zm.53 4.46v1.94H28.59v-1.94h2.77v-2.15h2.12v2.15h3.46v-2.15h2.11v2.15zm10.81-10.83v1.64l-3.74 10.52h-2.27l3.73-10.21H46v-2zm6.85 0v1.64l-3.74 10.52h-2.27l3.73-10.21h-4.32v-2zm7.94 0h2L63 36.72h-2zM63 28v-1.27c0-.45-.17-.67-.57-.67s-.6.22-.6.67V28c0 .45.18.67.6.67s.57-.21.57-.67zm1.87-1.36v1.43a2.46 2.46 0 01-4.9 0v-1.42a2.46 2.46 0 014.9 0zm3.84 7.9v-1.27c0-.45-.16-.69-.57-.69s-.58.24-.58.69v1.28c0 .45.16.67.58.67s.57-.22.57-.66zm1.89-1.36v1.43a2.47 2.47 0 01-4.91 0V33.2a2.46 2.46 0 014.91 0zm13.22 4.05h-8.3v-13H83v1.94h-5.36v9.13h6.15zm1.57-5.81h-4v-2h4V24h2.11v13.85h-2.14zm15.39-7.18v7.32h-7.42v-7.31h2v1.94h3.34v-1.94zm-5.39 5.56h3.34v-1.87h-3.34zm11.42-2.75v2H105v3h-2.13V24H105v3zm-11 9h9.39v1.76H93.66v-5.22H105v1.76h-9.23zm24-.11v1.87h-12v-3.9h2.13v2zm-12.7-4.82h13.19v1.84h-13.23zm9-1h-4.66c-2.4 0-3.76-1.15-3.76-3s1.36-3 3.76-3H116c2.41 0 3.76 1.3 3.76 3s-1.35 3-3.77 3zm-4.64-1.78H116c1.06 0 1.57-.51 1.57-1.25s-.51-1.24-1.57-1.24h-4.63c-1 0-1.57.51-1.57 1.24s.52 1.26 1.57 1.26zm14.14-4.06h6.69v3.34a10.69 10.69 0 01-5.92 9.67l-1.46-1.54a8.65 8.65 0 005.25-7.84v-1.7h-4.56zm11.58 7v6.59H135V24h2.13v5.2h1.79v2zm3-.85l-1-1.73a7.43 7.43 0 005.81-4.76l2.19.45a8.71 8.71 0 01-.48 1.19 12 12 0 005.76 2.67c-.33.57-.65 1.18-1 1.77a13.27 13.27 0 01-5.89-2.81 9.71 9.71 0 01-5.49 3.2zm12.27 1.5v2h-5.49V38h-2.26v-4.13h-5.49v-1.95zm5.14 5.33v-13h2.13v11.05h6.22v1.93zm11.66-6v6.59h-2.13V24h2.13v5.2H171v2zm5.33 1.36l2 .35a5.7 5.7 0 01-.37 1.36 4.7 4.7 0 001.65 1.35 4.68 4.68 0 001.87-3.06l2 .35a5.48 5.48 0 01-.38 1.33 10.36 10.36 0 003.1 1.7l-.93 1.67a10.91 10.91 0 01-3.18-1.81 6.53 6.53 0 01-2.48 1.94 8.86 8.86 0 01-2.74-1.9 6.62 6.62 0 01-2.73 1.84l-1.27-1.52a4.61 4.61 0 003.38-3.64zm6.79-.06V24h2.12v3.39h1.8v2h-1.8v3.12zM174.85 24h1.65c2 0 3.23 1.06 3.23 2.67s-1.12 2.59-3 2.67v1h3.71v1.74h-9.2v-1.73h3.39v-1c-1.88-.08-3-1.1-3-2.67s1.18-2.68 3.21-2.68zm1.65 1.7h-1.65c-.72 0-1.2.34-1.2 1s.48 1 1.2 1h1.65c.7 0 1.2-.35 1.2-1s-.5-1-1.21-1zm17.77 11.52H186v-13h7.49v1.94h-5.36v9.13h6.14zm3.39-6v6.59h-2.13V24h2.13v5.2h1.79v2z"/><path id="패스_11585" data-name="패스 11585" class="cls-1" d="M.2 84.49v-2A2.48 2.48 0 011.46 80l1.9-1.23a1.85 1.85 0 00.87-1.62c0-1-.42-1.47-1.4-1.47s-1.4.49-1.4 1.47H.2a2.31 2.31 0 012-2.57 2.49 2.49 0 01.61 0 2.3 2.3 0 012.62 1.93 2.66 2.66 0 010 .63 2.72 2.72 0 01-1.38 2.51L2.2 80.89a1.6 1.6 0 00-.8 1.55v1h4.05v1.08zM10.76 82v-4.76c0-1-.49-1.54-1.4-1.54S8 76.26 8 77.24V82c0 1 .49 1.52 1.4 1.52S10.76 83 10.76 82zM12 77.12v5a2.38 2.38 0 01-2.23 2.5 1.77 1.77 0 01-.4 0 2.37 2.37 0 01-2.62-2.1 2.54 2.54 0 010-.39v-5A2.38 2.38 0 019 74.6a2.77 2.77 0 01.41 0A2.38 2.38 0 0112 76.72v.4zm1.27 7.37v-2A2.5 2.5 0 0114.52 80l1.9-1.23a1.81 1.81 0 00.87-1.62c0-1-.42-1.47-1.4-1.47s-1.4.49-1.4 1.47h-1.23a2.31 2.31 0 012-2.57 2.15 2.15 0 01.62 0 2.29 2.29 0 012.61 1.93 1.9 1.9 0 010 .63 2.7 2.7 0 01-1.38 2.51l-1.87 1.21a1.59 1.59 0 00-.79 1.55v1h4v1.08zm8.74 0h-1.24v-8.66h-1.1v-1.1H22zm12.06-10.24v8.49h-1.22v-4.11h-3.92v-1.09h3.92v-1h-3.92v-1.07h3.92v-1.22zm-2.94 5.37v1.1h-6.59v-6.24h1.23v5.14zm3.19 4.64v1.09h-9.41v-3.54h1.22v2.45zM44.45 81v1.29c0 1.45-1 2.31-2.76 2.31S39 83.77 39 82.31v-.65h1.22v.58c0 .93.55 1.29 1.52 1.29s1.54-.36 1.54-1.29v-1.15c0-.8-.5-1.22-1.42-1.22h-1v-1.11h.86A1.18 1.18 0 0043 77.71a1 1 0 000-.17v-.67c0-.74-.5-1.17-1.35-1.17s-1.34.43-1.34 1.17v.43h-1.24v-.49c0-1.47 1.1-2.2 2.56-2.2s2.57.73 2.57 2.2v.79a1.66 1.66 0 01-1.1 1.67A1.65 1.65 0 0144.45 81zm1.08-1.84v-1.05H53v1.07h-3.87v1.48h-1.22v-1.48zm.85 2.84v-1h9.17v2.76h-7.94v.67h8.19v1.08h-9.42v-2.8h7.95V82zm1.84-7.79h1.83c1.47 0 2.33.66 2.33 1.7s-.86 1.72-2.33 1.72h-1.83c-1.47 0-2.33-.68-2.33-1.72s.86-1.66 2.33-1.66zm1.83 1.06h-1.83c-.73 0-1.1.28-1.1.64s.37.64 1.1.64h1.83c.73 0 1.1-.27 1.1-.64s-.37-.6-1.1-.6zm1.39 5.28v-1.02h2.89v-5.28h1.22v6.34z"/><path id="패스_11177" data-name="패스 11177" class="cls-1" d="M.49 56.59v-1.11h6v1.11H4a8.84 8.84 0 01-.23 1.53 9.09 9.09 0 003.35 3l-.79.9a10.72 10.72 0 01-3-2.58A7.82 7.82 0 011 62.35l-1-.78a6.21 6.21 0 002.81-5zm.37 9.76v-3.41h1.22v2.32h8.19v1.09zm7.94-8.29v-2.81H10v8.49H8.8v-4.59H6.24v-1.09zm3.39-1.47v-1.11h6v1.11h-2.58a21 21 0 01-.27 3.16 12.23 12.23 0 003.5 5.48l-.92.76a14 14 0 01-3-4.28 13.6 13.6 0 01-2.11 4.43l-1.11-.57a14.71 14.71 0 002.69-9zm8.06-1.34h1.23v4.48h1.58v1.1h-1.58v5.65h-1.23zm5.84 0h1.22a9.25 9.25 0 01-.3 2.33 10 10 0 003.38 3.26l-.75.93a10.57 10.57 0 01-3.08-2.84 7.71 7.71 0 01-2.33 3.17l-1-.78a7.53 7.53 0 002.86-6.07zm7.58 10v1.09h-9.41v-3.53h1.22v2.45zm-.25-10v8.49H32.2v-8.49zm11.95 10v1.09h-9.66v-3.28h1.22v2.2zm-.13-9.78v4.28h-9.53v-4.27zm-8.31 3.2H44v-2.1h-7.07zm4.22 5.37h-1.23V62H35.1v-1.1h10.75V62h-4.7z"/></g><path fill="none" d="M0 0h200v86H0z"/></g></g></svg>