<svg xmlns="http://www.w3.org/2000/svg" width="375" height="59"><g data-name="Layer 2"><g data-name="Layer 1"><path d="M29.48 15.88v8.4h20.88v-8.4zm8-7.44l.5-1.2h5.69V2.68h-4.35V1H33.8v1.68h-4.32v4.56h2.83L29 14.92h5.64l2-4.7 1.8 4.7h5.64l-2.43-6.48zm12.88-2.52v-4.2h-5.52v13.2h5.52V11h1.92V6zm-15.6 13.44h10.32v1.44H34.76zm17.55-5.16c0 6.79 2 9.6 7.08 9.6 3.57 0 5.61-1.39 6.53-4.56h2.68v4.32h5.52V1.72H68.6v3.6h-3.24c-1.08-2.16-3-3.12-6-3.12-5.11 0-7.08 2.81-7.08 9.6zm8.88-.2c0 4.37-.48 5.28-1.8 5.28s-1.8-.91-1.8-5.28v-2c0-4.37.48-5.28 1.8-5.28s1.8.91 1.8 5.28zm5.28-2.16v-1.68h2.13v4.32h-2.14V11.8zm8.61 4.8v7.68H96v-4.6H80.6V16.6zM82.16 7c-5.08 0-7.32 1.42-7.32 4.32s2.24 4.32 7.32 4.32 7.32-1.37 7.32-4.32S87.25 7 82.16 7zM96 7.12v-5.4h-5.56v15.84H96v-5.4h1.92v-5zM85 2.68V1h-5.6v1.68h-4.32v3.84h14.16V2.68zm-2.84 7.92c2 0 2.52.14 2.52.72s-.52.72-2.52.72-2.52-.14-2.52-.72.53-.72 2.52-.72zm22-8.4v13.44h20.64V2.2zm7.56 16.56h-8.32v4.8h22.08v-4.8h-8.28V16.6h-5.52zM109.64 7h9.6v3.84h-9.6zm22.8.6V5.8h15.12V2.2h-20.64v9h20.64V7.6zm0 12.72V17h-5.52v7h20.64v-3.68zm-6.24-8.16V16h22.08v-3.84zm49.68-10h-5.28v2h-10.08v-2h-5.28v9.36h20.64zm-21.36 10.6v3.72h9v2.28H169v-2.28h7.56v-3.72zm6.24 7.56v-2.88h-5.52V24h20.64v-3.68zm-.24-13.13h10.08v1.37h-10.08zM184 21v-.6h14.64v-6.49H178V17h14.64v.62H178V24h20.64v-3zm-6-18.8v6.86h20.64V6.13h-15.08v-1h15.12V2.2zm-.72 7.58v3.41h22.12V9.78zm40.12-8.06h-4.08v8h-1.22V2.44h-5.4v4.8h1.3c0 2.95-.1 5.54-.28 8.16a72.51 72.51 0 01-1.16 8.16h4.08a69.86 69.86 0 001.18-8.4v-.6h1.41v9h4.08zm-12.84 21.84a69.86 69.86 0 001.18-8.4c.19-2.69.26-5.4.26-8.4V2.44h-6.36v4.8h2.28c0 2.95-.1 5.54-.28 8.16a72.51 72.51 0 01-1.16 8.16zM222.2 1.72h-4.08v21.84h4.08zm20 1.44V1h-5.52v2.16h-7.56V8h5.28l-5.76 7.2h6.6l4.06-4.92 4.25 4.92h6.7l-4.9-5.76H240L241.21 8h8.59V3.16zm-13.8 13v4.8h8.28v3.36h5.52v-3.4h8.28v-4.8zm44.64-14.4h-5.52V6h-2.12V2.68h-4.32V1h-5.52v1.68h-4.32v4.56h2.84l-3.32 7.68h5.64l2-4.7 1.8 4.7h5.64l-2.47-6.48h-4.2l.5-1.2h5.45v3.6h2.4v4.08h5.52zm-21.8 14.12v8.4h21.84v-8.4zm5.28 3.48h11.28v1.44h-11.28zM280.76 21v-.6h14.64v-6.49h-20.64V17h14.64v.62h-14.64V24h20.64v-3zm14.88-15.6c0-2.25-2.13-3.79-10.56-3.79s-10.56 1.54-10.56 3.79 2.14 3.79 10.56 3.79 10.56-1.54 10.56-3.8zM274 9.78v3.41h22.08V9.78zm16.32-4.39c0 .46-.26.75-5.28.75s-5.28-.29-5.28-.75.27-.74 5.28-.74 5.32.29 5.32.74zm25.8 6.82v-.72h7.56V8.78H308.6v-.7h14.88V5.6h-20.4v5.88h7.56v.72h-8.28v3.41h22.08v-3.4zm7.8 8.21c0-2.43-2.13-4.1-10.56-4.1S302.8 18 302.8 20.42s2.14 4.1 10.56 4.1S324 22.84 324 20.42zm-.24-15.5V2.2h-20.6v2.71zm-5 15.5c0 .48-.4.74-5.28.74s-5.28-.26-5.28-.74.41-.75 5.28-.75 5.28.27 5.28.75zM347 1.72h-4.44v8h-1.2v-8h-4.44v21.84h4.44v-9h1.2v9H347zM330.44 23.8c3.87 0 5.52-2.57 5.52-7.2v-1.68c0-4.63-1.65-7.2-5.52-7.2s-5.52 2.57-5.52 7.2v1.68c0 4.63 1.66 7.2 5.52 7.2zM333 2.92V1h-5v1.92h-3v4.32h11V2.92zm-2.52 16.32c-.84 0-1.2-.58-1.2-2.88v-1.2c0-2.3.36-2.88 1.2-2.88s1.2.58 1.2 2.88v1.2c-.04 2.3-.4 2.88-1.24 2.88zM64.36 39.68H61.6l.6-3.24h-4.87l-.6 3.24h-3.07l.6-3.24h-4.87l-.6 3.24h-3.14l-.87 4.7h3.15l-.91 5h-3.15L43 54.07h3.14l-.6 3.24h4.87l.6-3.24h3.09l-.6 3.24h4.86l.6-3.24h2.76l.87-4.7h-2.76l.91-5h2.76zm-11.56 4.7h3.07l-.91 5h-3.08zm33.64-8.66H82v8h-1.2v-8h-4.44v21.84h4.44v-9H82v9h4.44zM69.4 52V36.44h-5v21.12l11-1.68v-4.8zm24.24-10.88V39.8h15.12v-3.6H88.12v8.52h7.56v1H87.4v3.84h22.08v-3.88h-8.28v-1h7.56v-3.6zm0 13.2v-3.84h-5.52V58h20.64v-3.68zM132 35.72h-4.4v8h-1.2v-8H122v21.84h4.44v-9h1.2v9H132zM115 52V36.44h-5v21.12l11-1.68v-4.8zm18.72-2v8h20.64v-3.51h-15.12v-.89h15.12V50zm5.52-9.24v-1.08h15.12V36.2h-20.64v8h20.64v-3.44zM133 45.2V49h22.08v-3.8zm34.32 10v-.72h15.84v-6.76h-21.84v3.12h15.84v.72h-15.84v6.72h21.84v-3.12zm6.41-12.48v-2.8h1.75v-3.48h-14.16v3.48h1.76v3.48l-1.76.12V47l14.16-1v-3.44zm9.43-7h-5.52V47h5.52zm-15.91 4.2h2.3v3l-2.3.14zm27.89 2.26l4.13 7H206l-5.37-8.4H196l2.88-4.8h-6.36l-8.17 13.2H191zm-11 7.94v4.8h8.28v3.36h5.52v-3.36h8.28v-4.8zm22.56 0v8.16h22.07v-8.16zm0-9.24v8.28l10.3-.72v-3.6l-5.28.38v-1h5v-3.34zm16.8-5.16h-4.33v4.56h-1.68v4.32h1.68v4.56h4.32zm5.28 0h-4.32v13.44h4.31zm-22.08.72V40H217v-3.6zM212 53.6h11.52v1.2H212zm24.44 1.4v-.6h14.64v-6.49h-20.63V51h14.64v.62h-14.64V58h20.64v-3zm14.88-15.6c0-2.25-2.13-3.79-10.56-3.79s-10.56 1.54-10.56 3.79 2.14 3.79 10.56 3.79 10.57-1.53 10.57-3.79zm-21.6 4.39v3.41h22.08v-3.42zm16.28-4.4c0 .46-.26.75-5.28.75s-5.28-.29-5.28-.75.27-.74 5.28-.74 5.29.29 5.29.74zm18.25 6.17V41h15.12v-4.8h-20.61v14.16h20.64v-4.8zm-6.24 7.2v4.8h22.08v-4.8zm28.31-.67v-3.17h8.16V36.44h-13.63v4.8H289v2.88h-8.16v13.44l13.92-1.68v-4.8zm16.32-16.37h-5.52v3.6h-1.68v4.8h1.68v4.32h-1.68v4.8h1.68v4.32h5.52zm22.56 7c0-4.51-3.26-7-10.56-7s-10.56 2.45-10.56 7 3.27 7 10.56 7 10.57-2.45 10.57-7zm-8.52 10.08h-4.08v-2.4h-5.52v2.4h-3.48v4.8h22.08v-4.8h-3.48v-2.4h-5.52zM320 42.68c0 1.68-1.1 2.4-5.28 2.4s-5.28-.72-5.28-2.4 1.1-2.4 5.28-2.4 5.28.72 5.28 2.4zm12.56 8.74v-15h-5.36v15zm0 5.9v-4.7h-5.36v4.7z"/><path fill="none" d="M0 0h375v59H0z"/></g></g></svg>