<svg xmlns="http://www.w3.org/2000/svg" width="460" height="50"><g data-name="Layer 2"><g data-name="Layer 1"><g data-name="4 tit"><path data-name="패스 11470" d="M76 18.44H65.48V2.28h9.4V4h-7.52v12.74H76zm3.76-7.94v8.7h-1.88V1.92h1.88v6.9h2.44v1.68zm13.36 8.88h-5.44c-2.82 0-4.52-1.42-4.52-3.46s1.7-3.48 4.52-3.48h5.44c2.82 0 4.52 1.42 4.52 3.48s-1.7 3.46-4.52 3.46zM82.6 6.52a4.7 4.7 0 114.69 4.69 4.69 4.69 0 01-4.69-4.69zm5.08 11.2h5.44c1.52 0 2.54-.7 2.54-1.8s-1-1.82-2.54-1.82h-5.44c-1.5 0-2.54.7-2.54 1.82s1.04 1.8 2.54 1.8zm9.58-8v2.1h-1.88v-9.9h1.88v2.24h2.44v1.7h-2.44V8h2.44v1.7zm-12.78-3.2a2.82 2.82 0 105.64.21v-.21a2.82 2.82 0 10-5.64-.21zm24.84 2.92c0 2.16-1.8 3.76-4.34 3.76s-4.32-1.6-4.32-3.76 1.78-3.76 4.32-3.76 4.34 1.6 4.34 3.76zm5.82 7.88V19h-14.28v-5.06h1.88v3.38zm2.06-10V9h-2.44v6.18h-1.88V1.92h1.88V7.3zm-6.94-4.16V4.8H99.92V3.14H104v-1.8h1.88v1.8zm-2.82 6.3a2.46 2.46 0 00-4.9 0 2.47 2.47 0 004.9 0zM124.8 2.1h1.88a45 45 0 01-.38 5.8 20.09 20.09 0 005.16 9.26l-1.38 1.28a20.71 20.71 0 01-4.42-7 26.64 26.64 0 01-2.74 7.22l-1.68-.88c2.64-4.6 3.56-10.22 3.56-15.68zm9.78-.18h1.88v6.9h2.44v1.68h-2.44v8.7h-1.88zM156.4 6v1.7H154v4.64h-1.88V1.92H154V6zm-2.4 7.2V19h-13.9v-5.8zm-12 4.14h10.14v-2.5h-10.2zm8-7.54v1.7h-10.32V6h7V4h-7V2.28h8.84v5.4h-7V9.8zm22.2 7.54V19h-14.84v-4.56h12.78v-1.18h-12.78V11.6H172v4.48h-12.76v1.26zm-15.8-8.66H173v1.68h-16.58zm15.7-1.16h-14.74V2.28H172V4h-12.76v1.84h12.88zm17.22-5.6V19.2h-1.88V1.92zm-13 5.64v5.64c0 2.62.94 3.74 2.74 3.74s2.72-1.12 2.72-3.74V7.56c0-2.64-.94-3.76-2.72-3.76s-2.7 1.12-2.7 3.76zm-1.88 5.64V7.56c0-3.68 1.88-5.46 4.62-5.46s4.6 1.78 4.6 5.46v5.64c0 3.64-1.88 5.42-4.6 5.42s-4.58-1.78-4.58-5.42zm36.78-10.92V4h-5.78c-.16.2-.34.4-.52.6a15.42 15.42 0 006.88 2l-.92 1.4a16 16 0 01-7.22-2.38 14.79 14.79 0 01-6.76 2.62L196 6.8a12.75 12.75 0 007.1-2.8h-6.54V2.28zM208 19.38h-8.28c-1.88 0-3.2-.84-3.2-2.3s1.32-2.26 3.2-2.26H208c1.88 0 3.18.84 3.18 2.26s-1.26 2.3-3.18 2.3zm-8.28-1.66H208c.7 0 1.22-.2 1.22-.64s-.52-.64-1.22-.64h-8.28c-.72 0-1.22.22-1.22.64s.5.64 1.26.64zm11.66-5.46v1.64h-15v-1.64h6.54v-1h1.88v1zm-6.68-3.2h7.42v1.68h-16.5V9.06h7.24v-1.9h1.88zm8.94 4.14V7.56c0-3.68 1.88-5.46 4.62-5.46s4.6 1.78 4.6 5.46v5.64c0 3.64-1.88 5.42-4.6 5.42s-4.58-1.78-4.58-5.42zm1.88-5.64v5.64c0 2.62.94 3.74 2.74 3.74S221 15.82 221 13.2V7.56c0-2.64-.94-3.76-2.72-3.76s-2.72 1.12-2.72 3.76zm12.6 2.94v8.7h-1.88V1.92h1.88v6.9h2.44v1.68zm3.4 3.82v-2.44a4.42 4.42 0 018.84 0v2.44a4.42 4.42 0 01-8.84 0zm14.1-3.82v8.7h-1.88V1.92h1.88v6.9h2.44v1.68zm-12.22 1.38v2.44a2.54 2.54 0 005.08.14v-2.58a2.54 2.54 0 10-5.08-.2zm7.6-6.2h-10V4h4V1.34h1.88V4H241zm7.16 4.88h16.54v1.7h-16.58zm15.8 6.76V19h-14.9v-5.24h1.88v3.56zm-14.9-9.06V2.1h1.88v4.52h13v1.64zm21.32 4.94V7.56c0-3.68 1.88-5.46 4.62-5.46s4.6 1.78 4.6 5.46v5.64c0 3.64-1.88 5.42-4.6 5.42s-4.62-1.78-4.62-5.42zm1.88-5.64v5.64c0 2.62.94 3.74 2.74 3.74s2.72-1.12 2.72-3.74V7.56c0-2.64-.94-3.76-2.72-3.76s-2.74 1.12-2.74 3.76zm12.6 2.94v8.7H283V1.92h1.88v6.9h2.44v1.68zm13 7.94h-9.78V2.28h8.64V4H290v5.06h6.76v1.68H290v6h7.9zm4.88-16.52V19.2h-1.88V1.92zm18.62 14.82v1.7h-16.54v-1.7zM306 12l-1.14-1.4a11.53 11.53 0 007.66-8.66l1.86.36a10.63 10.63 0 01-.76 2.54 15.33 15.33 0 007.78 5l-1 1.5a17.47 17.47 0 01-7.68-4.86A13.9 13.9 0 01306 12zm19.18-8v3h12.78v1.7h-12.82v3.1h13v1.7h-14.88V2.28h14.66V4zm13.72 12.76v1.7h-16.58v-1.7zm1 1.7v-1.7H352v1.7zm13.54.76V1.92h1.88V19.2zm-2.9-12.42a5.08 5.08 0 01-10.16 0 5.08 5.08 0 0110.16 0zm-1.88 0a3.2 3.2 0 00-6.4 0 3.2 3.2 0 006.4 0zm24.14 12.58h-5.64c-2.82 0-4.5-1.42-4.5-3.46s1.68-3.48 4.5-3.48h5.64c2.82 0 4.52 1.42 4.52 3.48s-1.7 3.46-4.52 3.46zm-5.64-1.66h5.64c1.5 0 2.54-.7 2.54-1.8s-1-1.82-2.54-1.82h-5.64c-1.5 0-2.54.7-2.54 1.82s1 1.8 2.54 1.8zm9.78-15.8v9.9h-1.88V9.44h-4.34v-1.7h4.34V5.86h-4.16v-1.7h4.16V1.92zm-14.66.36h8.1v1c0 4.12-3.36 7.32-8 8l-.82-1.56c3.9-.48 6.58-2.5 7-5.74h-6.22zm27.46 8.28h-4.88c-3.12 0-5.28-1.7-5.28-4.32s2.16-4.32 5.28-4.32h4.88c3.1 0 5.26 1.68 5.26 4.32s-2.16 4.32-5.26 4.32zm-4.88-1.7h4.88c2.06 0 3.28-1 3.28-2.62s-1.22-2.64-3.28-2.64h-4.88c-2.08 0-3.3 1-3.3 2.64s1.22 2.62 3.3 2.62zm10.7 4.14v1.7h-7.32v4.68h-1.88V14.7H379V13zM35.18 32.28h8.26v3.54a14 14 0 01-7.8 12.64L34.42 47a12.19 12.19 0 007.14-11v-2h-6.38zm14.66-.36V49.2H48V31.92zm17.88 15.4V49H52.86v-4.5h1.88v2.82zm-.2-15V34h-5.74a10.23 10.23 0 01-.78 1.22A13.53 13.53 0 0068.1 38l-.92 1.5a14.83 14.83 0 01-7.32-3.1 12.94 12.94 0 01-6.58 3.36l-1-1.52a10.65 10.65 0 007.4-4.24h-6.82v-1.7zM61 41.5h7.42v1.7h-16.5v-1.7h7.24v-2.66H61zM91.1 36v1.7h-2.44v4.84h-1.88V31.92h1.88V36zm-7.88-3.76v8.94h-8.84v-8.9h1.88V35h5.08v-2.72zm-7 7.24h5.08V36.7h-5.04zm8.46 9.86h-5.8c-2.82 0-4.32-1.42-4.32-3.28s1.5-3.28 4.32-3.28h5.84c2.82 0 4.32 1.4 4.32 3.28s-1.5 3.32-4.32 3.32zm-5.84-1.66h5.84c1.5 0 2.34-.6 2.34-1.62s-.84-1.62-2.34-1.62h-5.8c-1.5 0-2.34.6-2.34 1.62s.84 1.66 2.34 1.66zm16.38-15.8h1.88a14.27 14.27 0 01-.42 3.44 15 15 0 005.16 5l-1.16 1.42a17.36 17.36 0 01-4.7-4.3 11.58 11.58 0 01-3.62 4.82l-1.5-1.22a10.87 10.87 0 004.36-9.14zm11.32 11.32v6.18h-1.88v-4.5h-12.4V43.2zm-1.88-1V31.92h1.88V42.2zm19.56-9.92v10.34h-14.66V32.28h1.88v3.4h10.9v-3.4zm-12.78 8.66h10.9v-3.58h-10.9zm13.72 5.8v1.7h-16.54v-1.7H116V43.5h1.88v3.24zm12.24 1.7h-10.52V32.28h9.4V34h-7.52v12.74h8.64zm3.76-7.94v8.7h-1.88V31.92h1.88v6.9h2.44v1.68zm8.14 1.58l-1.48-1.2a8.51 8.51 0 004.3-6.9h-3.54v-1.7h9.18V34H154a12 12 0 01-.26 1.8 13.46 13.46 0 004.9 4.4l-1.22 1.4a15.8 15.8 0 01-4.42-3.8 10.42 10.42 0 01-3.72 4.28zm10 7.3h-6c-2.82 0-4.32-1.42-4.32-3.28s1.5-3.28 4.32-3.28h6c2.82 0 4.32 1.4 4.32 3.28s-1.5 3.28-4.32 3.28zm-6-1.66h6c1.5 0 2.34-.6 2.34-1.62s-.84-1.62-2.34-1.62h-6c-1.5 0-2.36.6-2.36 1.62s.84 1.62 2.34 1.62zm8.08-15.8h1.88V42.2h-1.88v-4.64h-3.94v-1.7h3.94zm21.42 5.18v1.7h-2.44V45h-1.88V31.92h1.88v5.18zm-2.06 10.22V49h-14.28v-5.44h1.88v3.76zm-11.28-15.4h1.88a14.41 14.41 0 01-.46 3.58 15.14 15.14 0 005.2 5l-1.16 1.5a16.5 16.5 0 01-4.74-4.38 11.89 11.89 0 01-3.58 4.88l-1.5-1.2a11.6 11.6 0 004.36-9.34zm29 6.2h-1.88V34h-12.82v-1.7h14.66zm-15.6.94h16.54v1.68h-16.58zm15.6 3.56V49h-14.7v-6.38zm-12.78 4.72h10.9v-3.06h-10.9zm30.1-15.42V49.2h-1.88V31.92zm-13 5.64v5.64c0 2.62.94 3.74 2.74 3.74s2.72-1.12 2.72-3.74v-5.64c0-2.64-.94-3.76-2.72-3.76s-2.76 1.12-2.76 3.76zm-1.88 5.64v-5.64c0-3.68 1.88-5.46 4.62-5.46s4.6 1.78 4.6 5.46v5.64c0 3.64-1.88 5.42-4.6 5.42s-4.64-1.78-4.64-5.42zm25.28-11.28H228a12.5 12.5 0 01-.32 2.92 14 14 0 005.06 4.74L231.62 41a17.24 17.24 0 01-4.58-4.1 10.4 10.4 0 01-3.8 4.6l-1.44-1.28a9.29 9.29 0 004.36-8.3zm13.34 3.76v1.68h-2.44v4.46h-1.88v-9.9h1.88v3.76zm-6.58 13.7h-5.44c-2.82 0-4.52-1.42-4.52-3.46s1.7-3.48 4.52-3.48h5.44c2.82 0 4.52 1.42 4.52 3.48s-1.72 3.46-4.54 3.46zm-5.44-1.66h5.44c1.52 0 2.54-.7 2.54-1.8s-1-1.82-2.54-1.82h-5.44c-1.5 0-2.54.7-2.54 1.82s1.04 1.8 2.52 1.8zm12-8.28h16.54v1.68h-16.52zm.88-1l-.88-1.52c3.52-.46 6.54-1.94 7.58-5l1.94.28a7.69 7.69 0 01-.56 1.2 15.38 15.38 0 007.58 3.22l-.78 1.52a17 17 0 01-7.8-3.32 11.08 11.08 0 01-7.06 3.58zm10.4 11h-6c-3 0-4.5-1.22-4.5-3.18s1.5-3.2 4.5-3.2h6c3 0 4.52 1.22 4.52 3.2s-1.48 3.12-4.5 3.12zm-6-1.66h6c1.88 0 2.54-.6 2.54-1.52s-.66-1.54-2.54-1.54h-6c-1.68 0-2.54.6-2.54 1.54s.66 1.46 2.54 1.46zM258 44.32v-2.44a4.42 4.42 0 018.84 0v2.44a4.42 4.42 0 01-8.84 0zm14.1-3.82v8.7h-1.88V31.92h1.88v6.9h2.44v1.68zm-12.22 1.38v2.44a2.54 2.54 0 105.08.14v-2.58a2.54 2.54 0 10-5.08-.2zm7.52-6.2h-10V34h4v-2.66h1.88V34h4.08zm7.16 4.88h16.54v1.7h-16.58zm15.8 6.76V49h-14.9v-5.24h1.88v3.56zm-14.86-9.06V32.1h1.88v4.52h13v1.64zm36.18-6.34V49.2h-1.88v-8.64h-2.1V49h-1.88V32h1.88v6.86h2.06v-6.94zm-6.76.36V34H297v-1.7zm.18 14.46v1.7h-8.28v-1.7h1.52V35.68h1.88v11.06h1l.94-11.06H304l-.94 11.06zm18.82-6.18v1.7h-9.4v-10h8.46V34h-6.58v2.4h6.38v1.68h-6.38v2.5zm5.64 6.76V49H315v-5.24h1.88v3.56zm-.38-15.4V45h-1.88v-6.94h-3.58v-1.7h3.58v-4.44zM347 47.32V49h-14.84v-4.58h12.78v-1.16h-12.78v-1.68h14.66v4.5H334v1.24zm-15.8-8.64h16.54v1.68h-16.52zm4.16-2.68h8.08c.94 0 1.7-.44 1.7-1.18s-.76-1.2-1.7-1.2h-8.08c-.94 0-1.5.44-1.5 1.2s.56 1.18 1.5 1.18zm0-4h8.08c2.08 0 3.58 1 3.58 2.86s-1.5 2.84-3.58 2.84h-8.08c-2.06 0-3.38-1-3.38-2.84s1.32-2.94 3.38-2.94zm33.16.36v10.26h-14.66V32.28h1.88v3.4h10.9v-3.4zm-12.78 8.66h10.9v-3.66h-10.9zm13.72 5.8v1.7h-16.54v-1.7h7.34V43.5h1.88v3.24zm3.22-10.4a2.63 2.63 0 102.64-2.74 2.6 2.6 0 00-2.64 2.56zm-1.88 0a4.51 4.51 0 114.62 4.4h-.1a4.35 4.35 0 01-4.52-4.17v-.23zM372 49l-1.4-1.26a7.73 7.73 0 004.48-5.82l1.78.26a7.61 7.61 0 01-.52 2.1 9.67 9.67 0 002.58 2.6 7.58 7.58 0 002.72-5l1.8.26a6.54 6.54 0 01-.52 2.22 15.77 15.77 0 004.14 3.06l-1.06 1.5a19.73 19.73 0 01-3.9-2.92 10.23 10.23 0 01-3.1 3.08 13.12 13.12 0 01-3.56-3.16A9.61 9.61 0 01372 49zm12-17.08h1.88v9.72H384v-2.48h-3.38v-1.7H384V35.4h-3.38v-1.7H384zm4.52 11.28v-5.64c0-3.58 1.8-5.46 4.52-5.46s4.52 1.88 4.52 5.46v5.64c0 3.54-1.8 5.42-4.52 5.42s-4.56-1.88-4.56-5.42zm1.88-5.64v5.64c0 2.62.94 3.74 2.64 3.74s2.64-1.12 2.64-3.74v-5.64c0-2.64-.94-3.76-2.64-3.76s-2.68 1.12-2.68 3.76zm11.1 3h-3.2v-1.7h3.2v-6.94h1.88V49.2h-1.88zm14.5.76h-4.52c-3.2 0-5.46-1.88-5.46-4.7s2.26-4.7 5.46-4.7H416c3.18 0 5.44 1.88 5.44 4.7s-2.3 4.7-5.44 4.7zm-4.52-1.7H416c2.06 0 3.46-1.22 3.46-3s-1.4-3-3.46-3h-4.52c-2.06 0-3.48 1.22-3.48 3s1.38 3 3.44 3zM422 46.74v1.7h-16.58v-1.7h3.76v-4.3h1.88v4.3h5.26v-4.3h1.88v4.3zm3.62 1.52h-2.26V46h2.26z" fill="#fff"/><path fill="none" d="M0 0h460v50H0z"/></g></g></g></svg>