<svg xmlns="http://www.w3.org/2000/svg" width="162" height="86"><defs><style>.cls-1{fill:#999}</style></defs><g id="Layer_2" data-name="Layer 2"><g id="Layer_1-2" data-name="Layer 1"><g id="_6_txt04" data-name="6 txt04"><path id="패스_11180" data-name="패스 11180" d="M1 14.58v-13h2.17v11.06h3.49v1.94zM9.65 1.43V15h-2.1V8.33H4.88v-2h2.67v-4.9zM13 15.19h-2.12V1.36H13zM27.24 1.36v13.83h-2.12V1.36zM17.17 5.65v4.88c0 1.55.62 2.27 1.74 2.27s1.76-.72 1.76-2.27V5.65c0-1.53-.62-2.27-1.76-2.27s-1.74.74-1.74 2.27zm-2 4.88V5.65c0-2.73 1.5-4.22 3.77-4.22s3.81 1.49 3.81 4.22v4.88c0 2.72-1.5 4.19-3.81 4.19s-3.8-1.47-3.8-4.19zm21.31-8.94v13h-7v-13h2.05v4.13h2.87V1.59zm2.88 7H37v-2h2.4V1.36h2.11v13.83h-2.15zm-7.79 4.08h2.87v-5h-2.87zM54.48 1.59v13h-7.12v-13h2v4.13h3V1.59zM59 8.6v6.59h-2.1V1.36H59v5.2h1.8v2zm-9.61 4.06h3v-5h-3zm24.16-11.3v13.83h-2.11V1.36zM63.49 5.65v4.88c0 1.55.62 2.27 1.75 2.27S67 12.08 67 10.53V5.65c0-1.53-.63-2.27-1.76-2.27s-1.75.74-1.75 2.27zm-2 4.88V5.65c0-2.73 1.5-4.22 3.77-4.22S69 2.92 69 5.65v4.88c0 2.72-1.5 4.19-3.8 4.19s-3.74-1.47-3.74-4.19zm26.38-8.94v8.71H76V1.58h2.13V4h7.63V1.58zm-9.76 6.77h7.63V5.94h-7.63zm10.43 4.34v2H75.31v-2zm1 3.24L89 14.88c.8-.35 1-.86 1-2V12h2.34v1c0 1.77-.9 2.75-2.79 2.94zM100.69.5a3.65 3.65 0 01.25.53c.1.18.2.39.28.56a1.16 1.16 0 00-.5.27 1 1 0 00-.29.4 2.38 2.38 0 00-.16.58v1.57H97.9v-1a2.69 2.69 0 012.42-2.9zm13.58.87v13.82h-2.11V8.6h-1.5V15h-2.1V1.43h2.1v5.23h1.5v-5.3zm-12 13.21v-13h2.13v11.06h3.26v1.94zm26.42-1.34v1.86h-12v-4h2.14v2.18zm-.07-6.3h-5V8.4h5.63v1.83H116V8.4h5.47V6.93h-4.8V1.59h11.93v1.76h-9.76v1.82h9.84zm14.08-5.57v13.82h-2.11V8.6h-1.5V15H137V1.43h2.1v5.23h1.5v-5.3zm-11.9 13.21v-13h2.13v11.06h3.26v1.94zm26.35-8.08h-12V1.59h11.89v1.7h-9.76V4.8h9.84zm-12.64 1h13.23v1.72h-13.23zm2.8 5.92h9.9v1.68h-12v-4.82h11.89V12h-9.76zm11.55-8.68a5.12 5.12 0 01-.25-.53c-.1-.18-.19-.35-.27-.53a1.71 1.71 0 00.5-.3.81.81 0 00.28-.4 2.26 2.26 0 00.16-.58 7.59 7.59 0 000-.76v-.8h2.33v1a2.67 2.67 0 01-2.42 2.92 2.26 2.26 0 01-.37 0zM4.77 30l1.09-5.14h2.27L5.2 37.13H2.93L0 24.89h2.27L3.34 30 4 34.22zm11.39-1.19c0 2.52-1.34 3.94-3.9 3.94h-1.35v4.27H8.8V24.89h3.46c2.56 0 3.9 1.43 3.9 3.95zm-2.11 0c0-1.47-.72-2-2-2h-1.14v4h1.19c1.23.02 1.95-.51 1.95-1.97zm10-.88H22c0-.8-.45-1.28-1.43-1.28S19 27.15 19 28s.51 1.44 1.49 1.7l.75.2c2.08.54 3.15 1.71 3.15 3.68 0 2.32-1.42 3.58-3.74 3.58h-.29c-2.29 0-3.58-1.07-3.63-3.26h2.12c0 .9.56 1.32 1.52 1.32h.28c1.07 0 1.63-.52 1.63-1.55a1.72 1.72 0 00-1.49-1.9l-.79-.13c-2-.47-3.17-1.41-3.17-3.59s1.28-3.31 3.68-3.31S24 25.9 24.08 28zm6.45 9.81l-2-.93a25.1 25.1 0 002.76-12.31h2.13a38.09 38.09 0 01-.27 4.66 16.19 16.19 0 004.08 7.14l-1.6 1.36a15.73 15.73 0 01-3.16-4.78 21 21 0 01-1.91 4.89zm10.78-13.38v13.83h-2.11V24.36zm15 11.34v2H43v-2zm-12-3.1L43 31a8.67 8.67 0 005.86-6.68l2.2.37a8.18 8.18 0 01-.64 2.15 11.75 11.75 0 006 3.61l-1.22 1.67a12.79 12.79 0 01-5.86-3.48 11 11 0 01-5.08 3.96zm25.5.68v4.82H58.26v-4.82zm-6.3-2.74v1.71h-5.67v-7.66H63v1.71h-3.2v1.24h3.06v1.7h-3.04v1.31zm-3.1 5.86h7.27V35h-7.27zm6.26-12v8.3h-2v-3.38h-1.36v-1.9h1.39v-3zm1.09 8.27v-8.31h2v8.34zm8.73.23L75 31.47a6 6 0 003.58-4.4h-3v-1.81h2.93v-1.42h2.14v1.42h2.9v1.81h-2.81a7.21 7.21 0 01-.24 1.12 9.14 9.14 0 003.8 2.75l-1.15 1.6A11 11 0 0179.63 30a7.48 7.48 0 01-3.17 2.88zm11.6 3.45l-.84 1.72a11.89 11.89 0 01-5.67-2.48 8.94 8.94 0 01-5.1 2.52l-1-1.7c2.61-.3 4.86-1.59 5.65-3.78l2 .58a7.5 7.5 0 01-.42.91 10.73 10.73 0 005.4 2.23zm-2.57-12h2.11v8.92h-2.11v-3.7H83v-1.78h2.47zm8 2v-1.76h7.42v1.81h-2.73a8.3 8.3 0 01-.26 1.39 11.26 11.26 0 003.74 3.36l-1.31 1.47a12.35 12.35 0 01-3.23-2.75 8.72 8.72 0 01-2.62 3.07l-1.62-1.26a7.24 7.24 0 003.22-5.28zm.3 8.94v-1.9h11.65v4.9h-2.12v-3zm9.53-7.89v-3.04h2.12v8.39h-2.12v-3.47h-2.68v-1.83zm16.58 8.3c0 1.68-1.26 2.58-3.52 2.58h-5.12c-2.26 0-3.54-.9-3.54-2.58s1.28-2.59 3.54-2.59h5.12c2.26 0 3.52 1 3.52 2.6zm-2.18 0c0-.57-.43-.91-1.45-.91h-4.91c-1 0-1.46.34-1.46.91s.45.9 1.46.9h4.91c1 0 1.46-.35 1.46-.89zm-2.25-6.21h-3.33v1.14h3.33zm-5.43-.1a2.4 2.4 0 01-2.32-2.39c0-1.55 1.2-2.59 3.54-2.59h5.12c2.32 0 3.52 1 3.52 2.59a2.41 2.41 0 01-2.32 2.5v1.24h2.86v1.73H107.2v-1.79h2.85zm1.24-1.61h5.08c1 0 1.36-.34 1.36-.88s-.38-.87-1.36-.87h-5.08c-.92 0-1.4.32-1.4.87s.42.89 1.4.89z"/><path id="패스_11586" data-name="패스 11586" class="cls-1" d="M.6 84.83v-2a2.48 2.48 0 011.26-2.44l1.9-1.24a1.83 1.83 0 00.87-1.62c0-1-.42-1.46-1.4-1.46s-1.4.49-1.4 1.46H.6a2.3 2.3 0 012-2.56 2.57 2.57 0 01.62 0 2.29 2.29 0 012.61 1.93 2.15 2.15 0 010 .62A2.71 2.71 0 014.47 80L2.6 81.23a1.57 1.57 0 00-.79 1.54v1h4v1.08zm10.57-2.48v-4.78c0-1-.5-1.53-1.4-1.53s-1.4.56-1.4 1.53v4.78c0 1 .48 1.52 1.4 1.52s1.4-.55 1.4-1.52zm1.22-4.89v5A2.37 2.37 0 0110.16 85a2.71 2.71 0 01-.4 0 2.37 2.37 0 01-2.61-2.1 1.79 1.79 0 010-.4v-5a2.37 2.37 0 012.22-2.52 1.79 1.79 0 01.4 0 2.37 2.37 0 012.62 2.1 1.88 1.88 0 010 .38zm1.27 7.37v-2a2.5 2.5 0 011.27-2.44l1.9-1.23a1.82 1.82 0 00.86-1.63c0-1-.41-1.46-1.4-1.46s-1.4.49-1.4 1.46h-1.23a2.3 2.3 0 012-2.56 2.15 2.15 0 01.62 0 2.3 2.3 0 012.62 1.93 2.66 2.66 0 010 .63A2.73 2.73 0 0117.54 80l-1.87 1.21a1.6 1.6 0 00-.8 1.54v1h4.05v1.08zm10.58-2.48v-4.78c0-1-.5-1.53-1.4-1.53s-1.4.56-1.4 1.53v4.78c0 1 .48 1.52 1.4 1.52s1.4-.55 1.4-1.52zm1.22-4.89v5A2.37 2.37 0 0123.23 85a1.79 1.79 0 01-.4 0 2.37 2.37 0 01-2.61-2.1 1.77 1.77 0 010-.4v-5a2.37 2.37 0 012.22-2.52 1.79 1.79 0 01.4 0 2.37 2.37 0 012.62 2.11v.4zm11.1-2.88v8.49h-1.22V79h-3.93v-1.1h3.93v-1h-3.93v-1.1h3.93v-1.22zM33.62 80v1.11H27v-6.29h1.22V80zm3.18 4.64v1.1h-9.41v-3.59h1.22v2.44zM44.06 76c-.92 0-1.4.49-1.4 1.53v1.57a2.71 2.71 0 011.77-.62 2 2 0 012.26 1.79 1.93 1.93 0 010 .48v1.71A2.37 2.37 0 0144.46 85a1.79 1.79 0 01-.4 0 2.37 2.37 0 01-2.61-2.1 1.77 1.77 0 010-.4v-5a2.31 2.31 0 012.1-2.52 1.81 1.81 0 01.52 0 2.18 2.18 0 012.48 1.83 1.93 1.93 0 010 .48h-1.2a1.15 1.15 0 00-1-1.23zm1.4 6.31v-1.43c0-.93-.37-1.29-1.17-1.29a1.46 1.46 0 00-1.63 1.27.53.53 0 000 .13v1.35c0 1 .48 1.52 1.4 1.52a1.32 1.32 0 001.41-1.51zm2.3-2.84v-1.02h7.48v1.06h-3.88V81h-1.22v-1.49zm.86 2.86V81.3h9.17v2.76h-7.95v.68H58v1.08h-9.38V83h7.94v-.65zm1.83-7.79h1.84c1.47 0 2.32.67 2.32 1.7S53.76 78 52.29 78h-1.84c-1.46 0-2.32-.67-2.32-1.71s.87-1.71 2.32-1.71zm1.84 1.07h-1.84c-.72 0-1.1.27-1.1.64s.38.63 1.1.63h1.84c.73 0 1.1-.27 1.1-.63s-.39-.6-1.1-.6zm1.39 5.28v-1.03h2.88v-5.28h1.23v6.35z"/><path id="패스_11178" data-name="패스 11178" class="cls-1" d="M2.6 55.7h1.22a29.7 29.7 0 01-.24 3.77 13 13 0 003.35 6l-.9.83a13.47 13.47 0 01-2.87-4.53 17.2 17.2 0 01-1.78 4.69L.29 65.9A20.62 20.62 0 002.6 55.7zm6.6-.11h1.22v11.23H9.21v-5.66H5.66v-1.09h3.55zm13.17 10v1.09h-9.65v-2.9H21v-.73h-8.3V62h4.1v-.91h-4.7V60h10.76v1.09H18V62h4.21v2.89h-8.27v.73zM14.8 58.2h5.25c.61 0 1.1-.28 1.1-.76s-.5-.78-1.1-.78H14.8c-.62 0-1 .28-1 .78s.36.77 1 .77zm0-2.62h5.25c1.35 0 2.32.64 2.32 1.86s-1 1.84-2.32 1.84H14.8c-1.34 0-2.2-.62-2.2-1.84s.86-1.86 2.2-1.86zm16.34 11.35h-3.67c-1.83 0-2.92-.92-2.92-2.25s1.09-2.26 2.92-2.26h3.67c1.83 0 2.93.93 2.93 2.26s-1.07 2.25-2.93 2.25zm-3.67-1.08h3.67c1 0 1.65-.45 1.65-1.17s-.68-1.18-1.65-1.18h-3.67c-1 0-1.65.46-1.65 1.19s.68 1.16 1.65 1.16zm6.36-10.27V62h-1.22v-1.53h-2.83v-1.1h2.83v-1.22h-2.7V57h2.7v-1.42zm-9.53.24h5.26v.66c0 2.68-2.18 4.76-5.22 5.19l-.54-1c2.54-.31 4.28-1.62 4.54-3.73h-4zm11.7 0h4.76v1.1h-1.84a27.81 27.81 0 01-.17 2.88 16.1 16.1 0 002.66 5.57l-1 .7a16.88 16.88 0 01-2.06-3.95 15.34 15.34 0 01-1.73 4.36L35.5 66c1.66-2.67 2.18-5.53 2.2-9.08H36zm9.53 11h-1.22V55.58h1.22zM43 55.64v11h-1.2V61H40v-1.14h1.8v-4.22z"/></g><path fill="none" d="M0 0h162v86H0z"/></g></g></svg>