<svg xmlns="http://www.w3.org/2000/svg" width="460" height="23"><g data-name="Layer 2"><g data-name="Layer 1"><g data-name="9 tit"><g data-name="그룹 4672"><path data-name="패스 11532" d="M56.94 14.39l-2.14-2.18a9.05 9.05 0 005.38-6.6h-4.47V2.9h4.39V.76h3.22V2.9h4.34v2.71h-4.32A9.67 9.67 0 0163 7.29a13.74 13.74 0 005.72 4.12L67 13.81a16.52 16.52 0 01-5.28-3.75 11.47 11.47 0 01-4.78 4.33zm17.4 5.18l-1.28 2.59a18 18 0 01-8.5-3.72 13.38 13.38 0 01-7.65 3.77l-1.54-2.54c3.91-.46 7.3-2.38 8.47-5.67l3 .87a8 8 0 01-.62 1.37 16.09 16.09 0 008.12 3.33zm-3.87-18h3.17v13.35h-3.17V9.37h-3.7V6.68h3.7zM101 12.71h-3.19v-7.9H83.17V1.88H101zm1 1.34v3h-8.23v5.5h-3.38V17h-8.23v-3zm2.76-4.7V1.89h17.84v2.59H108v2.28h14.76v2.59h-7.51v2h8.4V14h-19.89v-2.66H112v-2zm0 8.86v-2.62h17.84v6.91h-3.19v-4.29zm21.39-16.32h11.52v2.9h-4.53a39.06 39.06 0 01-.44 5.21 23.5 23.5 0 006.17 9.51l-2.45 2a25.69 25.69 0 01-4.82-6.77 24.45 24.45 0 01-3.53 6.94l-2.83-1.54c3.29-4.48 4.63-9.16 4.73-15.33h-3.82zm17.5 10.51v9.88h-3.19V1.55h3.19v7.8h2.69v3.05zm3.31-.89h19.85v2.83H147zM166 19.26v2.9h-18v-6.38h3.19v3.48zm-18-9.84V1.64h3.19v5H166v2.78zm28.75-2.69h-2.25l-.36-5.3h2.95zm20.84-4.85v10h-17.87v-10zM182.91 9h11.45V4.79h-11.45zm15.65 5.5v2.93h-8.23v5.07h-3.39v-5.06h-8.23v-2.93zm2.54-12.62h8.9v2.9h-3c0 1.64-.1 3.2-.27 4.68a30.92 30.92 0 004.59 10.18c-.86.5-1.7 1.06-2.57 1.54a31.24 31.24 0 01-3-6.07 28.17 28.17 0 01-2.64 6.55l-2.86-1.08c2.69-4.85 3.67-9.5 3.75-15.79h-2.9zm17.9 20.4h-3V1.55h3zm-4.6-20.64V22h-3V11.92h-2.86V9h2.86V1.65zm19.25 9c0 2.68-2.26 4.61-5.43 4.61s-5.4-1.92-5.4-4.61S225.08 6 228.22 6s5.43 1.88 5.43 4.6zm7 8.66v2.9h-17.49V16h3.17v3.29zm2.26-11.81v3h-2.71v6.64H237V1.55h3.19v5.9zm-8.33-4.82v2.55H222V2.63h4.56V.76h3.19v1.87zm-4 8a2.19 2.19 0 00-2.18-2.2h-.2a2.15 2.15 0 00-2.34 1.94 2 2 0 000 .25 2.12 2.12 0 002.1 2.12h.25a2.16 2.16 0 002.37-1.91 1.41 1.41 0 00.02-.27zm37.51-1.35h-18V1.88H268v2.55h-14.65v2.28h14.76zm-19 1.51H269v2.57h-19.85zm4.2 8.88h14.86v2.52h-18v-7.31H268v2.52h-14.65zm36.18-18.16v20.73h-3.17V1.55zm-17.81.33h10.16V6.8a16.22 16.22 0 01-9 14.6l-2.19-2.31c5.07-2.47 8-6.93 8-12v-2.3h-7zm23.21 4.85h-2.25l-.36-5.3h2.95zM308.74 9h3.17v5.18h1.78v2.92h-1.78v3.48h-3.17V17.1H302v-2.47l5.3-12.53h3.39l-4.84 12.07h2.92zm7-7.1h7.56v5.68c0 5.52-1.72 10.39-5.88 13.92l-2.61-1.83a14.33 14.33 0 005.3-11.79v-3.1h-4.41zm17.93-.34v20.72h-3.17V12.4h-2.25V22h-3.15V1.64h3.15v7.85h2.25V1.55zM338 16.05v-2.24h17.25v5.3h-14.11V20h14.55v2.25H338v-5.32h14.11V16zm3.5-14.5h3.38c2.78 0 4.39 1.2 4.39 3.1s-1.61 3.12-4.39 3.12h-3.38c-2.79 0-4.4-1.22-4.4-3.12s1.62-3.1 4.4-3.1zm3.38 2.3h-3.38c-.92 0-1.35.31-1.35.79s.43.84 1.35.84h3.38c.89 0 1.34-.33 1.34-.84s-.45-.79-1.34-.79zm-8.35 6.82V8.39h13.63v2.28h-6.38v2.66h-3.19v-2.66zm10.8 2.59V11.1h4.75V1.55h3.17v11.71zm35.26-11.38v10h-17.83v-10zM368 9h11.4V4.79H368zm15.65 5.5v2.93h-8.23v5.07H372v-5.06h-8.24v-2.93zm20.81-2.62v2.76h-18.1V6.88H401V4.62h-14.64V1.88h17.83v7.66h-14.64v2.35zm.79 6.7v2.9h-19.9v-2.9h4.15v-3.21h3.2v3.22h5.18v-3.22h3.17v3.22z"/></g></g><path fill="none" d="M0 0h460v23H0z"/></g></g></svg>