<svg xmlns="http://www.w3.org/2000/svg" width="375" height="153"><defs><style>.cls-1{fill:#f8f4f0}.cls-2{fill:#111}</style></defs><g id="Layer_2" data-name="Layer 2"><g id="Layer_1-2" data-name="Layer 1"><g id="_3_txt" data-name="3 txt"><g id="line"><path id="사각형_145" data-name="사각형 145" class="cls-1" d="M43 77.84h286v16H43z"/><path id="사각형_140" data-name="사각형 140" class="cls-1" d="M82 107.84h206v16H82z"/><path id="사각형_147" data-name="사각형 147" class="cls-1" d="M40 136.84h298v16H40z"/></g><path id="패스_11247" data-name="패스 11247" class="cls-2" d="M59.2 73.22v16.34h-9.34V73.22h3.24v4.7H56v-4.7zm5.52 9.3v7.8H61.3V73h3.42v6.1h2.06v3.38zm-11.62 3.9H56v-5.34h-2.9zM82.9 73v17.32h-3.42V73zm-5.64 5.1v6.58c0 3.18-1.88 5.06-4.9 5.06s-4.88-1.88-4.88-5.06V78.1c0-3.18 1.88-5.06 4.88-5.06s4.9 1.88 4.9 5.06zM74 84.68V78.1c0-1.22-.62-1.9-1.66-1.9s-1.64.68-1.64 1.9v6.58c0 1.24.62 1.92 1.64 1.92S74 85.92 74 84.68zm26.7-11.46V84.5h-15V73.22h3.42v2.64h8.2v-2.64zM89.08 81.3h8.2V79h-8.2zm12.36 5.26v3.18H84.9v-3.18zm2-13.34h8.64v4.66a12.91 12.91 0 01-7.2 11.7l-2.38-2.4c3.88-1.88 6.16-5.2 6.16-8.94v-1.86h-5.22zm14.66 9.3v7.8h-3.4V73h3.42v6.1h2.06v3.38zm11.56 7.6l.48-3.64h-1.44l-.48 3.64h-3.34l.48-3.64h-1v-3.12h1.42l.44-3.36H125v-3.12h1.62l.48-3.66h3.36l-.46 3.66h1.46l.48-3.66h3.34l-.48 3.66h1V80h-1.44l-.44 3.36h1.22v3.12h-1.64l-.5 3.64zm.9-6.76L131 80h-1.46l-.46 3.36zM152.24 73v17.32h-3.42v-7.84h-.92v7.64h-3.36v-17h3.36v6.2h.92V73zM137 89.56V73.22h3.42v13.16h3.36v3.18zm33.22-2.2v3H155v-5.1h3.42v2.1zm-11.8-9.84h11.7v2.72h-6v1.34h6.64v2.92h-16.52v-2.92h6.46v-1.34H155v-7h15v2.7h-11.58zM187.84 73v17.32h-3.42v-7.84h-.92v7.64h-3.36v-17h3.36v6.2h.92V73zM172.6 89.56V73.22h3.4v13.16h3.36v3.18zM194 77h11.7v2.6h-15.1v-6.38h15v2.6H194zm-4.18 3.44h16.54v2.64h-16.52zm4.18 7.32h11.8v2.56h-15.2V84h15v2.54H194zm30.16-1.2v3.18h-16.52v-3.18zm-6-3.3h-4.52c-3.58 0-5.64-2.1-5.64-5.12s2.06-5.1 5.64-5.1h4.52c3.56 0 5.64 2.1 5.64 5.1s-2.06 5.12-5.62 5.12zm-4.42-3.2h4.32a1.94 1.94 0 00.56-3.84 1.75 1.75 0 00-.56 0h-4.32a1.94 1.94 0 10-.56 3.84 1.75 1.75 0 00.58 0zm27.48-6.84v6.94h-11.6v1.36h11.8v2.9H226.2v-7.08h11.62v-1.2H226.2v-2.92zM242 86.6v3.14h-16.56V86.6h6.36v-1.76h3.74v1.76zm15.66-13.38v16.34h-9.36V73.22h3.24v4.7h2.88v-4.7zm5.52 9.3v7.8h-3.42V73h3.42v6.1h2.06v3.38zm-11.62 3.9h2.88v-5.34h-2.88zm24.54 0v3.14h-10v-10h5.74v-3.18h-5.74v-3.16h9.16v9.5h-5.74v3.7zm4.88-3.9v7.8h-3.42V73H281v6.1h2v3.38zm6.56-5.72h11.7v3H284.1V73h3.42zm-4.2 4.2h16.54v3h-16.54zm16 6.22v3.12H284.1V84.9h3.42v2.3zm6.88-14H315v1.88c0 4.2-3.32 7.84-8.14 8.72l-1.64-2.62c3.4-.62 5.7-2.52 6.22-5h-5.24zm15.62 14v3.14h-15v-5.98h3.42v2.8zm-6.78-7V77h3v-4h3.42v12.58H318V80.2zm-224.33 23h9v1.88c0 4.2-3.44 7.84-8.34 8.72l-1.64-2.62c3.46-.62 5.9-2.52 6.4-5h-5.44zm15.24 14v3.14H91.09v-5.94h3.42v2.8zm1.68-9.88v3.34h-2.06v4.94h-3.42V103h3.42v4.26zm16.12 9.88v3.14h-14.88v-5.94h3.42v2.8zm1.68-9.88v3.34h-2.06v4.94H120V103h3.42v4.26zm-13.5 2.86h6.92v2.8h-10.36v-9.78h9.4v2.84h-6zm29.24 3.3v6.86h-14.5v-6.86h3.38v.94h7.72v-.94zm-9.78-.3h-.74c-2.46 0-4.34-1.2-4.34-3.28s1.88-3.3 4.34-3.3h.74c2.44 0 4.32 1.22 4.32 3.3s-1.9 3.24-4.34 3.24zm11.84-6.8v3.34h-2.06v3.14h-3.42V103h3.42v3.32zm-6.94-2.76v2.62h-10.56v-2.66h3.48v-1.32h3.46v1.32zm-6.22 14.2h7.72v-1h-7.72zm.58-7.1h.74c.72 0 1.14-.34 1.14-.82s-.42-.86-1.14-.86h-.74c-.72 0-1.14.36-1.14.86s.4.78 1.12.78zm13.46 8.86v-16.38h3.42v13.16h6.92v3.18zm15.22-16.6v17.28h-3.42V103zm12.72 13.38v3.14h-10.16v-16.3h9.34v3.16h-5.92v10zm4.7-3.9v7.8h-3.42V103h3.42v6.1h2.06v3.38zm6.36 7h-3.78V116h3.78zM204.89 103v17.28h-3.42v-7.84h-.92v7.64h-3.36v-17h3.36v6.2h.92V103zm-15.24 16.52v-16.3h3.42v13.16h3.36v3.18zm37.54-7.32h-3.42v-5.82h-11.62v-3.2h15zm-5.64 8.26h-3.76v-4.12h-6.4v-3.2h16.54v3.2h-6.38zm8.4-10.64v-6.64h15v2.66h-11.58v1.32h11.7v2.66h-5.92V111h6.58v2.7h-16.54V111h6.54v-1.18zm0 7.44v-2.7h15v5.9h-3.42v-3.2zm32.84-14.08v6.86h-11.62v1.26H263v2.9h-15.25v-6.9h11.62v-1.18h-11.62v-2.9zm.74 13.38v3.14H247v-3.1h3.16v-2h3.42v2H257v-2h3.42v2zm5.44-9.8h11.7v3h-15.12V103H269zm-4.18 4.24h16.54v3h-16.54zm16 6.22v3.12h-15.24v-5.44H269v2.3zM59.38 133v17.28H56v-7.84h-1v7.64h-3.32v-17H55v6.2h1V133zm-15.24 16.56v-16.34h3.42v13.16h3.36v3.18zm18-16.34h8.64v4.66a12.91 12.91 0 01-7.2 11.7l-2.38-2.4c3.88-1.88 6.16-5.2 6.16-8.94v-1.86h-5.22zm14.66 9.3v7.8h-3.42V133h3.42v6.1h2.06v3.38zM87.86 137h11.7v2.6H84.44v-6.42h15v2.6H87.86zm-4.18 3.44h16.54v2.64H83.68zm4.18 7.28h11.8v2.56H84.44V144h15v2.54H87.86zm17.8-11h11.7v3h-15.12V133h3.42zm-4.18 4.28H118v3h-16.52zm16 6.22v3.12h-15.24v-5.44h3.42v2.3zm16.48-9.1v6.58c0 3.18-1.88 5.06-4.9 5.06s-4.88-1.88-4.88-5.06v-6.6c0-3.18 1.88-5.06 4.88-5.06s4.88 1.88 4.88 5.06zm-3.24 6.58v-6.6c0-1.22-.62-1.9-1.66-1.9s-1.64.68-1.64 1.9v6.58c0 1.24.62 1.92 1.64 1.92s1.64-.68 1.64-1.92zm8.5-2.16v7.8h-3.42V133h3.42v6.1h2.06v3.38zm12.92 3.9v3.14h-10v-16.36h9.16v3.16h-5.74v3.18h5.74v3.16h-5.74v3.7zm5.24-13.44v17.28H154V133zm18.54 13.52v3.18h-16.54v-3.18zm-14.64-3l-2.08-2.7a10.28 10.28 0 007-8l3.66.56a11.74 11.74 0 01-.84 2.84 14.21 14.21 0 007.12 4L174.2 143a14.86 14.86 0 01-7-3.9 13.81 13.81 0 01-6 4.44zM193 137.5v2.86h-11.64v1.5h11.8v2.94h-15.22v-11.58h15v3h-11.58v1.32zm.74 9.1v3.14h-16.56v-3.14zm4.74-9.72v9.22a.66.66 0 101.32.07v-9.29a.66.66 0 00-1.32 0zm-3.1 9.22v-9.22a3.76 3.76 0 117.52-.17v2.57h.9v-6.16h3.1v17h-3.1v-7.68h-.9v3.66a3.76 3.76 0 11-7.52.17zm12.26 4.22V133h3.16v17.28zm17.56 0V133h3.4v17.28zm-11.84-17.1h6.52v6.06h1.2v-6.16h3.26v17h-3.26v-7.68h-1.58a12.56 12.56 0 01-4.26 7.26l-2.64-1.94a10.81 10.81 0 003.9-8.74v-2.64h-3.16zm22.88 17.1v-5.74h3.42v2.6h11.62v3.14zm-.58-14.3v-2.8H245V136h-3.22a10.06 10.06 0 01-.24 1.54 15.77 15.77 0 004.38 3.92l-2.06 2.38a17.62 17.62 0 01-3.52-3 9.67 9.67 0 01-2.92 3.34l-2.56-2.06a7.88 7.88 0 003.54-6.08zm11.82.66V133h3.42v12.72h-3.42v-6.14h-2.78v-2.94zm13.5 5.48v3.76a3.76 3.76 0 01-7.52 0v-3.76A3.76 3.76 0 11261 142zm-3.1 3.76v-3.76c0-.52-.28-.8-.66-.8s-.66.28-.66.8v3.76a.69.69 0 00.59.77h.07c.36.01.64-.27.64-.77zm6.8-3.48v7.68h-3.1v-17h3.1v6.16h.86V133h3.16v17.28h-3.16v-7.88zm-3.54-4.78h-8v-3.12h2.4v-2.08h3.28v2.08h2.36zm20.14-1.28h-3.62a34.17 34.17 0 01-.3 3.78 20 20 0 004.88 7.4l-2.66 2.18a20.1 20.1 0 01-3.44-4.74 20.91 20.91 0 01-2.62 4.8l-3-1.66a19.18 19.18 0 003.72-11.76h-3v-3.16h10zm5.22-3.34v17.28h-3.42V133zm6.18 3.76h11.7v3h-15.14V133h3.42zm-4.2 4.2H305v3h-16.52zm16 6.22v3.12h-15.24v-5.44h3.42v2.3zm6.88-14H320v1.7c0 4.18-3.28 7.6-8.16 8.54l-1.44-2.62c3-.5 5.42-2.28 6-4.64h-5.06zm9.16 11.5a13.31 13.31 0 006.56 2.84l-1.44 2.76a15.9 15.9 0 01-6.84-3.2 10.33 10.33 0 01-6 3.26l-1.88-2.68a8.58 8.58 0 006.94-5.1l3.2.92a10.6 10.6 0 01-.52 1.2zm-.32-5.08v-3.2h3V133h3.42v10.84h-3.42v-4.24zm8.6-7h3.42v12.22h-3.42zm3.6 17.46h-3.8v-3.74h3.8z"/><path id="패스_11394" data-name="패스 11394" class="cls-2" d="M52.58 13.61v-2.5a3 3 0 011.55-3l2.33-1.52a2.25 2.25 0 001.08-2c0-1.2-.52-1.81-1.73-1.81s-1.73.61-1.73 1.81h-1.5c0-2.26 1.28-3.15 3.23-3.15S59 2.35 59 4.6a3.33 3.33 0 01-1.7 3.09L55 9.18a2 2 0 00-1 1.9v1.2h5v1.32zm13-3.06V4.68c0-1.2-.6-1.89-1.72-1.89s-1.73.69-1.73 1.89v5.87c0 1.2.59 1.87 1.73 1.87s1.72-.67 1.72-1.87zm1.5-6v6.15a2.9 2.9 0 01-2.74 3.08 2.68 2.68 0 01-.49 0 2.93 2.93 0 01-3.22-2.59 2.57 2.57 0 010-.48V4.54a2.93 2.93 0 012.74-3.1 2.68 2.68 0 01.49 0A2.94 2.94 0 0167.08 4a4.17 4.17 0 010 .5zm1.57 9.07v-2.5a3.07 3.07 0 011.55-3l2.34-1.52a2.25 2.25 0 001.08-2c0-1.2-.52-1.81-1.73-1.81s-1.73.61-1.73 1.81h-1.5c0-2.26 1.28-3.15 3.23-3.15s3.23.9 3.23 3.15a3.33 3.33 0 01-1.7 3.09l-2.3 1.49a2 2 0 00-1 1.9v1.2h5v1.32zm13-3.06V4.68c0-1.2-.61-1.89-1.73-1.89s-1.73.69-1.73 1.89v5.87c0 1.2.6 1.87 1.73 1.87s1.73-.67 1.73-1.87zm1.5-6v6.14a2.92 2.92 0 01-2.75 3.08 2.57 2.57 0 01-.48 0 2.92 2.92 0 01-3.22-2.59 2.57 2.57 0 010-.48V4.54a2.93 2.93 0 012.74-3.1 2.68 2.68 0 01.49 0A2.94 2.94 0 0183.16 4a4.17 4.17 0 010 .5zM96.83 1v10.45h-1.5V6.39H90.5V5.05h4.83V3.83H90.5V2.5h4.83V1zm-3.61 6.61V9H85.1V1.29h1.5v6.32zm3.92 5.71v1.34H85.55v-4.35h1.5v3zm1.63 2.26l-.45-.58a2 2 0 00.9-2v-.74H101V13a2.57 2.57 0 01-2.23 2.58zm8-1.36V1.29h1.5v11.57h4.3v1.36zm8.5-13.16v13.6h-1.5v-7h-3.24v-1.4h3.24v-5.2zm3.24 13.76H117V1h1.5zM132.92 1v13.82h-1.5V1zm-10.39 4.51V10c0 2.1.75 3 2.19 3s2.18-.9 2.18-3V5.51c0-2.11-.76-3-2.18-3s-2.19.89-2.19 3zM121 10V5.51c0-2.94 1.5-4.37 3.7-4.37s3.68 1.43 3.68 4.37V10c0 2.92-1.5 4.34-3.68 4.34S121 12.94 121 10zm21.2-8.71v12.93h-6.61V1.29h1.5V5.8h3.6V1.29zm3.61 6.62h-3V6.55h3V1h1.5v13.82h-1.5zm-8.72 4.95h3.6v-5.7h-3.6zm23.42-11.57v12.93h-6.77V1.29h1.5V5.8H159V1.29zm4.66 6.57v7h-1.5V1h1.5v5.52h2v1.34zm-9.92 5H159v-5.7h-3.76zM179.87 1v13.82h-1.5V1zm-10.38 4.51V10c0 2.1.75 3 2.19 3s2.18-.9 2.18-3V5.51c0-2.11-.76-3-2.18-3s-2.19.89-2.19 3zM168 10V5.51c0-2.94 1.5-4.37 3.7-4.37s3.68 1.43 3.68 4.37V10c0 2.92-1.5 4.34-3.68 4.34S168 12.94 168 10zm26.43-8.73v8.45h-11.74V1.29h1.5V4h8.72V1.29zm-10.24 7.09h8.72v-3h-8.72zm11 4.5v1.36h-13.25v-1.36zm1.17-4.94h13.23v1.36h-13.25zm12.64 5.4v1.35h-11.91v-4.2h1.5v2.85zm-11.91-7.25V1.14h1.5v3.62H209v1.31zM227 6.1h-1.5V2.65h-10.25V1.29H227zm0 8.9h-1.5v-3.3h-10.25v-1.39h5v-2.1h-5.75V6.86h13.23v1.36h-5.93v2.1h5.2zm14.23-14v13.82h-1.5V7.91h-2.25v6.75H236V1.06h1.5v5.49h2.25V1zM229.5 14.22V1.29h1.5v11.57h3.86v1.36zm17.55-6.92h13.23v1.35h-13.22zm9-1h-4.82c-2.4 0-3.6-.91-3.6-2.64S248.86 1 251.26 1h4.82c2.41 0 3.61 1 3.61 2.62s-1.19 2.64-3.61 2.64zm-4.82-1.32h4.82c1.5 0 2-.56 2-1.31s-.53-1.31-2-1.31h-4.82c-1.34 0-2 .56-2 1.31s.53 1.27 2.03 1.27zm8.28 4.93v4.8h-11.7V9.87zm-10.23 3.47H258v-2.19h-8.72zm26.13-9v1.28h-1.95v3.57H272V1h1.5v3.3zM273.49 10v5H272v-3.6h-9.78V10zm-10.23-5.32V5a2.26 2.26 0 004.52.13v-.45a2.26 2.26 0 00-4.52-.13zm-1.5.3v-.3a3.76 3.76 0 017.52 0V5a3.76 3.76 0 01-7.52 0zm20.56-3.84h1.5a36 36 0 01-.3 4.64 16.1 16.1 0 004.13 7.41l-1.1 1A16.51 16.51 0 01283 8.63a21.34 21.34 0 01-2.19 5.77l-1.34-.7a25.37 25.37 0 002.85-12.56zm8.13-.14H292v13.82h-1.5v-7h-4.37v-1.3h4.37zm15.9 0v13.82h-1.5V1zm-4.82.28v12.94h-6.91V1.29h1.5V5.8H300V1.29zm-5.41 11.57H300V7.16h-3.9zm25.52 0v1.36h-13.22v-1.36zM309.32 9l-.91-1.12A9.2 9.2 0 00314.54 1l1.49.28a8.56 8.56 0 01-.61 2 12.3 12.3 0 006.23 4l-.79 1.2a14 14 0 01-6.14-3.89 11.09 11.09 0 01-5.39 4.4zM71.38 27h1.5v13.82h-1.5zm-9.68 8.5l-1.23-1.06a7.88 7.88 0 003.86-4.9h-3.17V28.2h3.23v-1.66h1.5v1.66h3.28v1.34H65.9c-.08.3-.16.59-.27.9a11.23 11.23 0 004.14 3.81l-1 1.13A13.54 13.54 0 0164.94 32a9.66 9.66 0 01-3.24 3.5zm-1.15 4.72v-1.36h3.75v-3.54h1.5v3.54h4.48v1.36zm15.44-4l-.88-1.13c2.85-.95 5.1-2.79 5.84-5.41H75.7v-1.34h5v-1.8h1.6v1.8h5.14v1.36H82.5a7.66 7.66 0 01-.5 1.46 11.42 11.42 0 006 3.48l-.7 1.24a14.39 14.39 0 01-6.07-3.48A10.78 10.78 0 0176 36.25zm12.19 2.61v1.36H75v-1.33h5.87v-3.57h1.5v3.57zM102 34.3v1.34H90.1v-4.88h10.23v-2.11H90.1v-1.36h11.73v4.81H91.61v2.2zm.59 4.56v1.36H89.35v-1.36h5.87v-2.45h1.5v2.45zm8.69 1.66l.5-3.68h-1.65l-.5 3.68h-1.5l.5-3.68h-1.54V35.5h1.73l.43-3.17h-1.63V31h1.81l.51-3.7h1.5l-.51 3.7h1.64l.52-3.7h1.5l-.52 3.7h1.58v1.35h-1.75l-.43 3.17h1.65v1.34h-1.84l-.5 3.68zm.69-5l.43-3.17h-1.65l-.43 3.17zM128.7 27v13.82h-1.5v-6.91h-2.26v6.75h-1.5v-13.6h1.5v5.49h2.25V27zM117 40.22V27.29h1.5v11.57h3.85v1.36zm26.43-.9v1.34h-11.92v-4H133v2.7zm-.08-7h-5.26v1.84H144v1.35h-13.24v-1.29h5.79v-1.84h-5v-5.09h11.73v1.34H133v2.42h10.3zM157.5 27v13.82H156v-6.91h-2.26v6.75h-1.5v-13.6h1.5v5.49H156V27zm-11.73 13.22V27.29h1.5v11.57h3.85v1.36zM172.12 32h-11.81v-4.71H172v1.33h-10.18v2.06h10.3zm-12.56 1.31h13.23v1.34h-13.23zm2.26 6h10.38v1.32h-11.89V36H172v1.32h-10.18zm16.51-12.05h5.57v1a7.15 7.15 0 01-5.3 6.81l-.91-1.15a6.51 6.51 0 003.68-2.4h-3v-1.34h3.74a5.35 5.35 0 00.32-1.53h-4.06zm11.73-.26v8h-1.5v-3.49h-1.76v3.54h-1.48v-8h1.47v3.09h1.76V27zm0 8.56v5.1h-11.28v-5.1zm-9.78 3.78h8.27v-2.45h-8.27zm18.91-.48v1.36h-6.62v-1.36h1.21V30h1.5v8.85h.82l.75-8.85h1.5l-.75 8.85zm2.4-11.79v13.6h-1.5v-6.44h-1.5v-1.36h1.5v-5.81zm2.87 13.76H203V27h1.5zm-5.41-13.54v1.36h-6.32v-1.36zm9.28 3.39v.61a2.26 2.26 0 104.51.14v-.75a2.26 2.26 0 00-4.51-.13v.13zm-1.5.61v-.61a3.76 3.76 0 017.52 0v.61a3.76 3.76 0 01-7.52 0zm12.33 8v1.34h-11.58v-4.32h1.5v3zm-.3-12.29v10.45h-1.5V27zm14.7 12.32v1.34h-11.89V37h10.23v-.93h-10.23v-1.34h11.73v3.6h-10.22v1zm-12.64-6.91h13.23v1.34h-13.23zm3.31-2.18h6.47c.75 0 1.36-.35 1.36-.94s-.61-1-1.36-1h-6.46c-.76 0-1.2.35-1.2 1s.44.94 1.19.94zm0-3.23h6.47c1.66 0 2.86.78 2.86 2.29s-1.2 2.27-2.86 2.27h-6.46c-1.65 0-2.7-.77-2.7-2.27s1.04-2.29 2.69-2.29zm17.55.14h1.5a32.58 32.58 0 01-.3 4.64 16.09 16.09 0 004.13 7.41l-1.1 1a16.63 16.63 0 01-3.53-5.59 21.43 21.43 0 01-2.2 5.78l-1.34-.7a25.43 25.43 0 002.84-12.57zm8.13-.14h1.5v13.82h-1.5zm4.18.29h7.34v1.36h-3a8.53 8.53 0 01-.28 1.74 11.25 11.25 0 004.14 3.67l-1 1.12a13.55 13.55 0 01-3.71-3.18 9.43 9.43 0 01-2.92 3.59l-1.18-1a7.61 7.61 0 003.44-6h-2.83zm13.37 3.17v1.34h-1.95v3.73H264V27h1.5v3.46zm-1.95 5.85V41H264v-3.3h-9.77v-1.39zm3.3 4.35l-.94-1.1a4.78 4.78 0 003.61-3.8l1.4.32a5.49 5.49 0 01-.37 1.3 7.65 7.65 0 002 1.68 5.06 5.06 0 002.19-3.3l1.41.32a5.52 5.52 0 01-.43 1.36 11 11 0 003.34 1.92l-.72 1.24a11.31 11.31 0 01-3.31-2 7 7 0 01-2.43 2.13 12 12 0 01-2.82-2.14 6.33 6.33 0 01-3 2.07zm9.9-13.66h1.5v8.34h-1.5V31.8H277v3.54h-1.47v-8.28H277v3.4h1.76zm-8 .75v-1.21h1.5v1.22h2.67v1.31H268v-1.32zm-2.21 4.64a3 3 0 113.33 2.68 1.77 1.77 0 01-.32 0 2.75 2.75 0 01-3-2.48 1.7 1.7 0 01-.02-.2zm1.49 0a1.52 1.52 0 003 .17 1.54 1.54 0 00-1.41-1.56h-.08a1.44 1.44 0 00-1.5 1.3zM282.73 36v-4.49c0-2.86 1.44-4.37 3.61-4.37s3.62 1.5 3.62 4.37V36c0 2.84-1.44 4.34-3.62 4.34s-3.61-1.48-3.61-4.34zm1.5-4.51V36c0 2.1.75 3 2.11 3s2.11-.9 2.11-3v-4.49c0-2.11-.75-3-2.11-3s-2.11.9-2.11 3zm8.88 2.4h-2.56v-1.34h2.56V27h1.5v13.82h-1.5zm12 .61h-3.61c-2.56 0-4.37-1.5-4.37-3.76S298.94 27 301.5 27h3.62c2.54 0 4.35 1.5 4.35 3.76s-1.81 3.76-4.36 3.76zm-3.61-1.36h3.62a2.43 2.43 0 100-4.82h-3.62a2.44 2.44 0 10-.7 4.82 2.73 2.73 0 00.7.02zm8.42 5.7v1.36h-13.24v-1.34h3v-3.44h1.5v3.44h4.21v-3.44h1.5v3.44zm3.3 1.22h-1.82v-1.8h1.81z"/></g><path fill="none" d="M0 0h375v153H0z"/></g></g></svg>