<svg xmlns="http://www.w3.org/2000/svg" width="520" height="118"><defs><style>.cls-1{fill:#111}</style></defs><g id="Layer_2" data-name="Layer 2"><g id="Layer_1-2" data-name="Layer 1"><g id="_7_tit" data-name="7 tit"><path id="패스_11208" data-name="패스 11208" d="M239.34 15.16v-2.92h-6.58V9.3h5.88V6.56h-5.88V3.9H239V1h-9.52v14.16zM254.08 1h-3.78L247 11l-3.32-10h-3.84l5.36 14.16h3.42zm11 14.16v-2.92h-6.58V9.3h5.88V6.56h-5.88V3.9h6.22V1h-9.52v14.16zm15.14 0V1h-3.32l.08 9.24h.02L271.28 1h-3.9v14.16h3.32l-.08-9.26h.06l5.7 9.26zm13-11.24V1h-11.4v2.92h4v11.24h3.42V3.92z"/><path id="패스_11207" data-name="패스 11207" class="cls-1" d="M207.63 63.4c0-3.6-3-6.22-15-6.22s-15 2.61-15 6.22 3 6.22 15 6.22 15-2.62 15-6.22zM198.76 44l-.65 5.44h7.82L207.29 38h-29.24v6zm-5.58 6.8v-4.47h-7.82v4.42H177v5.44h31.28v-5.44zm7 12.65c0 .75-.75 1.19-7.48 1.19s-7.48-.44-7.48-1.19.75-1.19 7.48-1.19 7.45.39 7.45 1.14zm10.88-6v11.9h29.58V57.38zm18-1.36c1.73-4.79 2-9.83 2-14.62v-3.13H211v6.8h12.2a42.41 42.41 0 01-2 10.88zm11.56-12.75v-6h-7.82V56h7.82v-5.59h2.72v-7.14zm-22.1 19h14.62v2h-14.63zm57.46-25h-6.29V44H268v-6.68h-6.29V57H268v-6.59h1.7V57h6.3zm-23.47 7.46c-5.71 0-8.16 2.21-8.16 6.12S246.8 57 252.51 57s8.16-2.21 8.16-6.12-2.45-6.08-8.16-6.08zm13.09 19.82l3 4.66h8.74l-5.61-8.84h-3.47l1.5-2.38h-8.23l-7.07 11.22h8.23zm-9.52-25.94V36.3h-7.14v2.38h-4.25v5.44h15.64v-5.44zm3.74 19.38h-8.43l-7 11.22h8.4zm-7.31-8.33c1.9 0 2.72.27 2.72 1.19s-.82 1.19-2.72 1.19-2.72-.27-2.72-1.19.82-1.19 2.72-1.19zM279 38.34v29.92l20.06-2.38v-6.8l-12.24 1.46v-15.4h12.24v-6.8zm29.58 10v-11h-7.82v30.92h7.82V55.85h2.72v-7.48zm4.42-10v18l20.06-1.7V53.3h3.06v5.78H344V37.32h-7.82V40h-3.06v-1.7zm0 19.38v11.56h31v-6.46h-23.15v-5.1zm7.31-12.92h5.44v4.05l-5.44.44zm12.75.68h3.06v2.38h-3.06z"/><path id="패스_11206" data-name="패스 11206" d="M39 90.93h-3.87l.87-4.59h-6.9l-.85 4.59h-4.37l.85-4.59h-6.9L17 90.93h-4.48l-1.22 6.66h4.45l-1.29 7.08H10l-1.23 6.66h4.45l-.85 4.59h6.9l.85-4.59h4.36l-.85 4.59h6.9l.85-4.59h3.92l1.22-6.66h-3.91l1.29-7.08h3.91zm-16.35 6.66H27l-1.29 7.08h-4.35zM72 85.32h-6.27v11.39H64V85.32h-6.26v30.94H64v-12.75h1.7v12.75H72zm-24.12 23.05v-22h-7.14v29.92l15.64-2.38v-6.8zm36-15.4V91.1h21.42V86H76.1v12.07h10.71v1.36H75.08v5.44h31.28v-5.44H94.63v-1.36h10.71V93zm0 18.7v-5.44H76.1v10.71h29.24v-5.27zM140 85.32h-6.29v11.39H132V85.32h-6.29v30.94H132v-12.75h1.7v12.75h6.3zm-24.14 23.05v-22h-7.14v29.92l15.64-2.38v-6.8zm28.22-2.82v11.39h29.24v-5h-21.4v-1.26h21.42v-5.1zm7.82-13.09v-1.53h21.42V86H144.1v11.39h29.24v-4.93zm-8.84 6.29v5.44h31.28v-5.44zm51.68 14.11v-1h22.78v-9.52h-31.26v4.42H209v1h-22.74v9.52h31.28v-4.42zm.65-18.7l.61-1.36h6V87h-4.25v-2.7h-7.14V87h-4.25v5.8h3l-3.64 8.5h6.9l1.9-4.62 1.4 4.62h6.8l-2.48-7.14zm22.13-8.84h-6.29v5.1h-1.7v-5.1h-6.29v16h6.29V96.2h1.7v5.1h6.29zm3.06 1v5.1h12.24v1.19H220.6v11.73l20.74-1v-5.1l-12.92.65v-1.5h12.24v-11zm0 19.38v11.56h30.94v-6.46h-23.1v-5.1zm30.94-20.4h-7.82v21.76h7.82zm15 12.24l1.12-4.42h7v-6.8H254.6v6.8h5.1l-5.78 23.12h8l2.89-11.59 2.55 11.59h8l-4.08-18.7zm19-12.24h-7.82v30.94h7.82z" fill="#ff006b"/><path id="패스_11205" data-name="패스 11205" class="cls-1" d="M312.56 85.32h-6.12v11.39h-2.11C303.92 89 301.51 86 296.58 86c-5.44 0-7.82 3.6-7.82 13.26v4.08c0 9.66 2.38 13.26 7.82 13.26s7.78-3.57 7.82-13.09h2v12.75h6.12zm7.48 0h-6.12v30.94H320zm-21.76 17.34c0 6-.34 7.48-1.7 7.48s-1.7-1.43-1.7-7.48v-2.72c0-6 .34-7.48 1.7-7.48s1.7 1.43 1.7 7.48zm34.34 2.72v11.9h29.58v-11.9zm11.29-10.54l.71-1.7h8.06v-6.46h-6.12V84.3h-7.82v2.38h-6.12v6.46h4L331.94 104h8l2.89-6.66 2.55 6.66h8l-3.5-9.18zm18.29-3.57v-6h-7.82V104h7.82v-5.59h2.72v-7.14zm-22.1 19h14.62v2H340.1zm26.55-7.27c0 9.62 2.79 13.6 10 13.6 5.07 0 8-2 9.25-6.46h3.81v6.12h7.82V85.32h-7.82v5.1h-4.59c-1.53-3.06-4.25-4.42-8.47-4.42-7.24 0-10 4-10 13.6zm12.58-.34c0 6.19-.68 7.48-2.55 7.48s-2.55-1.29-2.55-7.48v-2.72c0-6.19.68-7.48 2.55-7.48s2.55 1.29 2.55 7.48zm7.48-3.06c0-.82 0-1.63-.07-2.38h3.1v6.12h-3zm34 5.61c0-6.9-3-11.39-10-11.39s-10 4.49-10 11.39 3 11.39 10 11.39 9.97-4.49 9.97-11.39zm9.52-8.84V85.32h-7.82v30.94h7.82v-12.41h2.72v-7.48zM414.56 87v-2.7h-7.82V87h-6.12v6.12h20.06V87zm-1.36 18.19c0 3.6-.75 4.93-2.55 4.93s-2.55-1.33-2.55-4.93.75-4.93 2.55-4.93 2.55 1.35 2.55 4.95zm29.24-.31l1.36 11.36h6.8l-2.93-21.74h-3.46l1.46-8.5H439l-5.37 30.26h6.9zm15.64-19.58H452V95h-2.72v6.8H452v14.45h6.12zm7.48 0h-6.12v30.94h6.12zm33.66 9.86c0-6.39-4.63-9.86-15-9.86s-15 3.47-15 9.86 4.62 9.86 15 9.86 15-3.45 15-9.84zm-12.07 14.28h-5.78v-3.4h-7.82v3.4h-4.93v6.8h31.28v-6.8H495v-3.4h-7.82zm4.59-14.28c0 2.38-1.57 3.4-7.48 3.4s-7.48-1-7.48-3.4 1.56-3.4 7.48-3.4 7.48 1.04 7.48 3.42zm19.48 12.38v-21.2h-7.58v21.22zm0 8.36v-6.66h-7.58v6.66z"/></g><path fill="none" d="M0 0h520v118H0z"/></g></g></svg>