<svg xmlns="http://www.w3.org/2000/svg" width="720" height="162"><defs><style>.cls-2{fill:#999}</style></defs><g id="Layer_2" data-name="Layer 2"><g id="Layer_1-2" data-name="Layer 1"><path fill="none" d="M0 0h720v162H0z" id="Layer_1-2-2" data-name="Layer 1-2"/><g id="_8_txt_notice" data-name="8 txt notice"><g id="그룹_4629" data-name="그룹 4629"><path id="패스_11438" data-name="패스 11438" class="cls-2" d="M5.71 54a5.78 5.78 0 01-1.37-.17 3.47 3.47 0 01-1-.41l.24-1.06a3.46 3.46 0 00.88.33 4.56 4.56 0 001 .13 2.12 2.12 0 001.3-.34 1.26 1.26 0 00.46-1c0-.81-.57-1.23-1.7-1.24h-.86v-1.12h.75a2 2 0 001.16-.34 1 1 0 00.43-.89c0-.75-.49-1.13-1.47-1.13a4.3 4.3 0 00-1.75.43l-.17-1.09a4.23 4.23 0 011.05-.37 6.58 6.58 0 011.26-.15 3 3 0 011.86.54 1.79 1.79 0 01.7 1.5A1.92 1.92 0 017 49.54a1.9 1.9 0 011.75 2 2.17 2.17 0 01-.82 1.8 3.45 3.45 0 01-2.22.66zm4.08.07v-1.4h1.47v1.4zm14 1.25h-1.41V44.65h1.39zM16 52a4.73 4.73 0 01-.74-2.76 4.81 4.81 0 01.74-2.8 2.47 2.47 0 014.06 0A5.58 5.58 0 0120 52a2.49 2.49 0 01-4 0zm3.45-2.76a4.12 4.12 0 00-.4-2 1.16 1.16 0 00-1-.72 1.13 1.13 0 00-1 .72 4.23 4.23 0 00-.39 2 4.11 4.11 0 00.34 1.92 1.14 1.14 0 001 .72 1.17 1.17 0 001-.72 4.09 4.09 0 00.4-1.95zm10.3 1.47h-4.36v-5.25h1.42V47h1.51v-1.6h1.4v2h1v-2.56H32v7.44h-1.32v-3.72h-1zm4.64 4.4h-7.57v-3.47h1.39V54h6.16zm-.26-2.51h-1.36v-7.95h1.34zm-5.79-3v-1.48h-1.53v1.46zm15-.69h-5.61v1.17h5.93v1.1h-7.32v-5.69h7.21v1.1h-5.82v1.2h5.57zm1.46 4V54h-9.7v-1.1zM54.84 51h-9.66v-1.08h9.66zm-1.19-2.32h-7.17V45h1.4v2.6h5.77zm.08 6.33h-7.31v-3.12h1.39v2h5.92zm13.27.33h-1.4V44.65H67zm-3.29-9.58a8.46 8.46 0 01-4.77 7.65L58 52.35a7.22 7.22 0 002.86-2.3 6.06 6.06 0 001.27-3.12h-3.45v-1.17zm13.62 9.58H76V50h-.9v4.87h-1.31v-10h1.31v4h.9v-4.2h1.33zm-3.84-3.49l-.78 1a4.65 4.65 0 01-1.1-1.07 4.24 4.24 0 01-.76-1.42 5 5 0 01-2 2.73l-.85-.94a5.18 5.18 0 002.21-4.65v-.47h-1.8v-1.1h4.83v1.12H71.5v.44a6.37 6.37 0 00.5 2.69 3.52 3.52 0 001.45 1.67zm11.9-.77c-1 .13-2.17.22-3.43.28s-2.58.1-3.54.1l-.19-1.14h2.9v-1.2h-1.9V45.4h5v1.12h-3.59V48h3.7v1.12h-1.83v1.15c1.12-.06 2-.13 2.72-.23zm1.84-6.43v7.84h-1.45v-7.84zM87.28 55h-7.23v-3h1.42v1.88h5.81zm12.78.31h-1.4V44.65h1.4zm-2.21-3.48L97 52.92a5.88 5.88 0 01-1.39-1.29 5.37 5.37 0 01-1-1.67 5.23 5.23 0 01-1 1.82 5.1 5.1 0 01-1.56 1.36l-.85-1a5.53 5.53 0 002.66-4.93v-1.66h1.45v1.56a5.3 5.3 0 002.47 4.75zm13.33-3h-1.52v3.54h-1.42v-7.72h1.42v3h1.52zm-4.51-3.39a5.34 5.34 0 01-1.37 3.7 6.78 6.78 0 01-3.45 2l-.7-1.11a5.73 5.73 0 002.6-1.19 3.75 3.75 0 001.41-2.26h-3.47v-1.12zm3.25 9.56h-7.14v-3.42h1.42v2.33h5.72zm13.14.31h-1.39V44.65h1.39zM115.27 52a5.54 5.54 0 010-5.53 2.34 2.34 0 012-1.06 2.3 2.3 0 012 1.06 5.52 5.52 0 010 5.52 2.48 2.48 0 01-4 0zm3.45-2.76a4.24 4.24 0 00-.4-2 1.18 1.18 0 00-1-.72 1.13 1.13 0 00-1 .72 4.11 4.11 0 00-.39 2 4 4 0 00.39 1.95 1.12 1.12 0 001 .72 1.18 1.18 0 001-.72 4.09 4.09 0 00.4-1.98zm13.88.37a1.37 1.37 0 01-.92 1.24 7.28 7.28 0 01-5 0 1.31 1.31 0 010-2.5 5.71 5.71 0 012.52-.46 5.8 5.8 0 012.53.46 1.39 1.39 0 01.87 1.23zm-2.78 5.75h-1.4v-2.55h-4.1v-1.12H134v1.12h-4.15zm3.61-7.84h-8.56v-1.1h8.56zm-6.19-1.61v-1.12h3.81v1.09zm3.92 3.7q0-.3-.57-.48a4.92 4.92 0 00-1.43-.18 4.86 4.86 0 00-1.42.18c-.38.11-.56.28-.56.48s.18.35.56.47a5.21 5.21 0 001.42.17 5.33 5.33 0 001.43-.17c.38-.12.57-.28.57-.47zm14.92.47h-1.4V49h-1.55v-1h1.55v-1h-1.55v-1h1.55v-1.35h1.4zm.33 5.21h-7.36v-2.9h5.64v-.73H139v-1.12h7.08v2.87h-5.62v.72h5.95zm-3.79-5.52h-5V45.1H139v1.3h2.22v-1.31h1.4zm-1.4-1.12V47.5H139v1.12zm14.59 1.8h-3v2.47H157V54h-9.66v-1.1h4.1v-2.48h-2.85v-5h7.17v1.11H150v2.77h5.83zm14.11 3.42h-9.66v-1.15h3.47v-3.6h1.4v3.6h4.79zm-1.1-8.26a24.12 24.12 0 01-.45 6.06l-1.37-.19a17.79 17.79 0 00.39-4.77h-6.09v-1.13zM177 51.7l-.78 1.1a5.5 5.5 0 01-1.54-1.25 4.64 4.64 0 01-1-1.62 4.4 4.4 0 01-.93 1.76 4.94 4.94 0 01-1.65 1.36l-.84-1a5.07 5.07 0 002.68-4.86v-.28h-2.15v-1.17h5.68v1.12h-2.07v.27a4.73 4.73 0 002.6 4.57zm2.15 3.64h-1.4V44.65h1.4zm12.93-5h-1.4v-2.21h-1.43V47h1.43v-2.35h1.4zm-8-1a2.18 2.18 0 01-.8-1.76 2.33 2.33 0 01.79-1.81 2.75 2.75 0 012-.74 2.82 2.82 0 012 .73 2.41 2.41 0 01.79 1.82 2.28 2.28 0 01-.78 1.76 3.16 3.16 0 01-3.94 0zm1-2.73a1.32 1.32 0 00-.41 1 1.17 1.17 0 00.4.91 1.38 1.38 0 001 .38 1.34 1.34 0 001-.38 1.2 1.2 0 00.4-.91 1.35 1.35 0 00-1.4-1.37 1.33 1.33 0 00-1 .41zm3.08 8.57h-3.83V51h1.32v1.13h1.2V51h1.31zm-1.31-1v-1h-1.2v1zm6.12.07l-.74 1.06a3 3 0 01-.93-.6 2.24 2.24 0 01-.66-.92 2.1 2.1 0 01-.63.87 3.34 3.34 0 01-1 .65l-.77-1.1A2.46 2.46 0 00190 51.7v-.8h1.38v.8a2.94 2.94 0 00.42 1.59 2.2 2.2 0 001.23.93zm9.18 1.12h-1.35V44.65h1.39zM194.4 52a5.54 5.54 0 010-5.53 2.46 2.46 0 014 0 5.52 5.52 0 010 5.52 2.48 2.48 0 01-4 0zm3.45-2.76a4.24 4.24 0 00-.4-2 1.18 1.18 0 00-1-.72 1.16 1.16 0 00-1 .72 4.36 4.36 0 00-.39 2 4.23 4.23 0 00.39 1.95 1.14 1.14 0 001 .72 1.18 1.18 0 001-.72 4.09 4.09 0 00.4-1.95zm14.9 2.63l-.78 1a5.27 5.27 0 01-1.55-1.27 4.67 4.67 0 01-1-1.64 4.66 4.66 0 01-.94 1.77 4.94 4.94 0 01-1.65 1.36L206 52a5.13 5.13 0 002.71-4.86v-.29h-2.21v-1.11h5.7v1.15h-2.09v.28a4.93 4.93 0 002.64 4.67zm1.9-7.19v4.11h1.53v1.17h-1.52v5.41h-1.4V44.65zm10.25 4h-3v1h4.1v1.12h-9.66v-1.15h4.1v-1h-2.82v-3.76h7.16V46h-5.76v1.49h5.85zm0 4.73a1.65 1.65 0 01-1 1.47 7.37 7.37 0 01-5.49 0 1.59 1.59 0 010-2.93 7.35 7.35 0 015.48 0 1.62 1.62 0 011 1.46zm-2.06.65c.41-.15.62-.37.62-.64s-.21-.49-.62-.65a4.76 4.76 0 00-1.67-.24 4.67 4.67 0 00-1.66.24c-.41.16-.61.38-.61.65s.2.49.61.64a5.9 5.9 0 003.33 0zm15-.65a1.62 1.62 0 01-1 1.46 7.37 7.37 0 01-5.49 0 1.56 1.56 0 010-2.9 5.7 5.7 0 012.73-.53 5.78 5.78 0 012.75.53 1.6 1.6 0 011 1.44zm.64-5.37l-.6 1.1a5.5 5.5 0 01-2.23-.67 3.7 3.7 0 01-1.53-1.35 3.28 3.28 0 01-1.45 1.38 5.94 5.94 0 01-2.33.66l-.58-1.1a5.14 5.14 0 002.21-.57 2.57 2.57 0 001.29-1.27h-3v-1.1H238v1.1h-3a2.77 2.77 0 001.37 1.27 4.91 4.91 0 002.14.51zm.52 2.86h-9.66v-1.13h4.1v-1.34h1.4v1.34H239zm-3.2 3.1c.42-.15.63-.37.63-.64s-.21-.49-.63-.64a4.73 4.73 0 00-1.67-.24 4.62 4.62 0 00-1.65.24c-.41.15-.61.37-.61.64s.2.49.61.64a4.62 4.62 0 001.65.24 4.73 4.73 0 001.67-.24zm12.34-2.78h-1.55v1.67h2.46V54h-9.66v-1.11h2.44v-1.67h-1.2v-3.54h5.8v-1.23h-5.86v-1.12h7.26v3.47H242v1.3h6.12zm-4.95 0v1.67h2v-1.67zm15.19 4h-7.15v-3.88h1.4v.88H257v-.9h1.43zm-1.83-4.78c-1.18.15-2.32.24-3.43.28-1.75.07-2.92.11-3.53.11l-.2-1.12c1.1 0 2.06 0 2.9-.05v-1h-1.85v-3.53h5v1.11h-3.63v1.26h3.71v1.12h-1.83v1c1-.05 1.93-.11 2.71-.2zm1.83-5.78v6.14H257v-6.15zM257 54.12v-.84h-4.32v.84zm11.41-9.47v10.69H267V44.65zm-2.47 6.41l.18 1.12a15.77 15.77 0 01-2.37.36c-1 .08-1.84.12-2.59.12h-1v-6.94h1.39v5.74a19.43 19.43 0 004.37-.4zM278 44.65v4h1.54v1.16H278v5.5h-1.4V44.65zm-6.55 7.05a20.54 20.54 0 004.22-.32c0 .12 0 .31.08.56s.06.44.08.56a22.13 22.13 0 01-4.74.36h-1v-7.23h4.88v1.13h-3.49zm8.7 2.39v-1.4h1.46v1.4zM7 76v-1.65H3.17v-.86l4.16-5.82h1v5.59h1.22v1.09H8.34V76zm-2.22-2.74H7v-3.1zm5.63 2.83v-1.4h1.46v1.4zm13.51-9.44v4.1h1.58v1.16h-1.58v5.43h-1.43V66.65zm-8.28 4.56a4.67 4.67 0 01.74-2.77 2.46 2.46 0 014.06 0 5.52 5.52 0 010 5.52 2.48 2.48 0 01-3.47.59 2.36 2.36 0 01-.59-.59 4.63 4.63 0 01-.74-2.75zm4.2 0a4.24 4.24 0 00-.4-2 1.18 1.18 0 00-1-.72 1.15 1.15 0 00-1 .72 4.12 4.12 0 00-.4 2 4 4 0 00.4 2 1.14 1.14 0 001 .72 1.18 1.18 0 001-.72 4.09 4.09 0 00.4-2zm14.89 6.13h-1.35V72h-.9v4.87h-1.32v-10h1.32v4h.9v-4.2h1.35zm-4.07-2.85a17.4 17.4 0 01-3.81.3H26v-4.22h2.64v-1.64H26v-1.12h4v3.87h-2.59v2a14.65 14.65 0 003.1-.27q.12.72.15 1.08zm6.91-4.6a1.33 1.33 0 00.42 1 1.54 1.54 0 001.12.4 1.57 1.57 0 001.13-.4 1.33 1.33 0 00.42-1 1.3 1.3 0 00-.42-1 1.61 1.61 0 00-1.13-.39 1.59 1.59 0 00-1.12.39 1.34 1.34 0 00-.42 1zm7.17-3.24v10.69h-1.39V66.65zm-8.6 3.25a2.36 2.36 0 01.86-1.85 3.63 3.63 0 014.32 0 2.53 2.53 0 01.14 3.56l-.14.14a3.59 3.59 0 01-4.31 0 2.35 2.35 0 01-.83-1.85zm6.77 4.7c-1.06.14-2.26.24-3.62.32-1.6.06-2.72.09-3.36.08l-.2-1.2q2 0 3.48-.06c1.4 0 2.59-.14 3.58-.26zM57 66.65v4.11h1.53v1.16H57v5.42h-1.39V66.65zm-1.93 7.09l-.41.53q-.27.35-.42.51a6.82 6.82 0 01-1.47-1.32 4.56 4.56 0 01-1-1.66 5.21 5.21 0 01-1 1.8 5.71 5.71 0 01-1.52 1.4c-.4-.48-.68-.82-.87-1A5.53 5.53 0 0051 69v-1.45h1.46v1.39a5.45 5.45 0 002.59 4.8zm12.28-4.24a2 2 0 01-1 1.73 6.16 6.16 0 01-5.52 0 1.94 1.94 0 01-.83-2.62 2 2 0 01.82-.82 6.16 6.16 0 015.52 0 2 2 0 011.01 1.71zm-4.95 7.83H61v-3.57h-2.27v-1.11h9.66v1.11h-2.32v3.57h-1.4v-3.57H62.4zm2.84-6.93a1 1 0 00.64-.9 1 1 0 00-.63-.88 4.3 4.3 0 00-3.41 0 1 1 0 00-.64.88 1 1 0 00.64.9 4.28 4.28 0 003.4 0zm10.53 6.45h-1.32v-5h-.91a4.92 4.92 0 01-.68 2.33 1.82 1.82 0 01-1.64.92 1.78 1.78 0 01-1.32-.56 3.2 3.2 0 01-.76-1.4 7.51 7.51 0 01-.22-1.89 7.28 7.28 0 01.22-1.86A3.12 3.12 0 0169.9 68a1.74 1.74 0 011.32-.56 1.85 1.85 0 011.65.91 5.11 5.11 0 01.67 2.35h.91v-3.85h1.32zm2.14.49h-1.33V66.65h1.32zM72 73.15a5.91 5.91 0 00.25-1.87A6 6 0 0072 69.4c-.17-.48-.43-.72-.77-.72s-.58.24-.75.72a7.16 7.16 0 000 3.75q.26.72.75.72c.34 0 .59-.24.76-.72zm18.84 4.19h-1.33v-5.25h-.89v4.75h-1.31v-10h1.31V71h.89v-4.35h1.33zm-4.86-6a2.33 2.33 0 010 3.23 2.6 2.6 0 01-3.37 0 2.29 2.29 0 010-3.2 2.64 2.64 0 013.37 0zm-4.26-1V69.2h5.1v1.12zm3.65 2.62a1.11 1.11 0 00-.3-.8 1.1 1.1 0 00-.78-.32 1 1 0 00-.77.32 1.23 1.23 0 000 1.61 1.12 1.12 0 001.55 0 1.14 1.14 0 00.31-.83zm-2.47-4.37v-1.11h2.88v1.11zm10.67 2.62a21.33 21.33 0 004.22-.33L98 72a22.77 22.77 0 01-4.73.38h-1v-4.93h4.77v1.12h-3.47zm8.12-.82h-1.51v2.51h-1.42v-6.25h1.42v2.6h1.51zm-1.38 4.79a1.75 1.75 0 01-1 1.56 5.3 5.3 0 01-2.7.58 5.18 5.18 0 01-2.61-.58 1.75 1.75 0 010-3.14 5.18 5.18 0 012.64-.6 5.26 5.26 0 012.7.58 1.76 1.76 0 01.97 1.6zm-2 .75a.83.83 0 00.58-.75.85.85 0 00-.58-.76 5.09 5.09 0 00-3.27 0 .85.85 0 00-.58.76.83.83 0 00.58.75 5.09 5.09 0 003.24 0zm9.78-5.62h-6.2v-1.12h6.2zm-4.7-1.86v-1.1h3.3v1.1zm6.91-1.8V71h1.49v1.16h-1.49v5.2h-1.41V66.65zM102.38 73a2.16 2.16 0 01.72-1.65 3 3 0 013.73 0 2.27 2.27 0 01.1 3.2l-.11.1a3 3 0 01-3.72 0 2.12 2.12 0 01-.72-1.65zm1.37 0a1.09 1.09 0 00.34.84 1.38 1.38 0 001.77 0 1.15 1.15 0 00.31-.85 1.09 1.09 0 00-.34-.85 1.33 1.33 0 00-1.74 0 1.12 1.12 0 00-.34.85zm17.89.06H112v-1.14h9.66zm-1.19-2.32h-7.17V67h1.4v2.6h5.77zm.08 6.33h-7.31v-3.18h1.39v2h5.92zm12.81-5.72h-7.19v-4.27h1.4v1.1H132v-1.11h1.39zm-2.8 3.65h-1.4v-1.75h-4.22v-1.1h9.66v1.1h-4zm2.9 2h-7.3v-3h1.4v2h5.89zm-1.5-6.84v-.93h-4.38v.93zm11.58 0h-7.24v-3.33h7.17v1.11h-5.76v1.19h5.84zm1.13 1.84H135v-1.09h9.66zm-.89 5.25h-7.53v-2.74H142v-.65h-5.82v-1.1h7.23v2.76h-5.76v.62h6.14zm11-4.14h-9.65V72h9.66zm-1.12 3.9h-7.35v-3.08h1.4v2h6zm0-7.87a1.78 1.78 0 01-1 1.56 6.51 6.51 0 01-5.46 0 1.7 1.7 0 010-3.1 6.49 6.49 0 015.45 0 1.77 1.77 0 011 1.54zm-1.45 0a.89.89 0 00-.62-.78 4 4 0 00-1.68-.3 3.93 3.93 0 00-1.65.3.88.88 0 00-.61.78c0 .32.2.57.61.76a4.08 4.08 0 001.65.29 4.16 4.16 0 001.68-.29c.42-.19.63-.44.63-.76zm7.56 2a20.59 20.59 0 004.22-.32l.16 1.08a22.76 22.76 0 01-4.73.37h-1.05v-4.82h4.77v1.12h-3.37zm8.13-.81h-1.51v2.57H165v-6.25h1.42v2.6h1.51zm-1.38 4.79a1.75 1.75 0 01-1 1.56 6.53 6.53 0 01-5.38 0 1.75 1.75 0 010-3.14 5.2 5.2 0 012.68-.58 5.31 5.31 0 012.71.58 1.77 1.77 0 01.99 1.64zm-2 .75a.83.83 0 00.58-.75.85.85 0 00-.58-.76 5.09 5.09 0 00-3.27 0 .85.85 0 00-.58.76.83.83 0 00.58.75 5.09 5.09 0 003.24.06zm12.47 1.28h-7.09v-3.67h7.09zm-8.5-7.5v-1.06h5.63v1.12h-2a2.85 2.85 0 002.32 2.23c-.16.24-.4.6-.7 1.08a4.66 4.66 0 01-1.37-.74 3.22 3.22 0 01-1-1.16 3.41 3.41 0 01-1 1.32 4.27 4.27 0 01-1.52.87c-.09-.14-.22-.33-.41-.58s-.3-.43-.36-.5a3.22 3.22 0 002.5-2.52zm8.5 3.25h-1.4v-1.76h-1.62V70h1.62v-3.35h1.4zm-1.4 3.14v-1.48h-4.28v1.54zM169.72 68v-1h3.11v1zm20.41 9.3h-1.35V72h-.95v4.87h-1.32v-10h1.32v4h.95v-4.22h1.35zm-7.38-3.68a12.37 12.37 0 003.1-.24l.14 1.1a15.66 15.66 0 01-3.62.28h-1v-6.84h4.05V69h-2.64zM201 70.34h-1.53v2.56h-1.42v-6.25h1.42v2.54H201zm-3.6 1l-.8 1.09a4.35 4.35 0 01-1.37-.86 4.06 4.06 0 01-1-1.3 3.37 3.37 0 01-1 1.47 4.2 4.2 0 01-1.52 1l-.85-1.12a4 4 0 001.89-1.33 3.32 3.32 0 00.7-2.1v-1h1.44v.92a3.08 3.08 0 00.74 2 3.9 3.9 0 001.75 1.22zm2.2 3.86a1.79 1.79 0 01-1 1.58 6.53 6.53 0 01-5.38 0 1.78 1.78 0 010-3.17 5.2 5.2 0 012.68-.58 5.41 5.41 0 012.71.57 1.81 1.81 0 011 1.6zm-3.68-1.06a3.94 3.94 0 00-1.62.29.79.79 0 000 1.53 3.9 3.9 0 001.62.27 4 4 0 001.65-.27.79.79 0 000-1.53 3.89 3.89 0 00-1.65-.29zm12.23 2.73h-1.32v-5h-.91a4.92 4.92 0 01-.68 2.33 1.81 1.81 0 01-1.64.92 1.78 1.78 0 01-1.32-.56 3.2 3.2 0 01-.76-1.4 7.51 7.51 0 01-.22-1.89 7.28 7.28 0 01.22-1.86 3.22 3.22 0 01.76-1.39 1.74 1.74 0 011.32-.56 1.85 1.85 0 011.65.91 5.11 5.11 0 01.67 2.35h.91v-3.87h1.32zm2.14.49H209V66.65h1.32zm-5.9-4.19a5.91 5.91 0 00.25-1.87 6 6 0 00-.25-1.88c-.17-.48-.43-.72-.77-.72s-.58.24-.74.72a6.89 6.89 0 000 3.75c.16.48.41.72.74.72s.59-.24.75-.72zm15.74 4.19h-1.41v-5.91h-1.95v-1.19h1.93v-3.61h1.42zm-2.36-3.43l-.8 1a6 6 0 01-1.45-1.31 5.28 5.28 0 01-1-1.69 5.85 5.85 0 01-2.52 3.21l-.84-1a5.54 5.54 0 002.65-4.93v-1.66h1.44v1.56a5.46 5.46 0 002.56 4.8zm11.7 0l-.79 1a4.38 4.38 0 01-1.11-1.08 4.08 4.08 0 01-.75-1.41 4.46 4.46 0 01-.79 1.55 4 4 0 01-1.24 1.18l-.85-1a5.17 5.17 0 002.21-4.64V69h-1.8v-1.12h4.82V69h-1.67v.49a6.62 6.62 0 00.5 2.68 3.62 3.62 0 001.47 1.69zm1.69 3h-1.31v-5.45h-1.39v-1.15h1.39v-3.48h1.31zm2.15.49H232V66.65h1.33zm8-2.42a55.33 55.33 0 01-6.69.37c-.08-.46-.15-.83-.2-1.13h2.67v-1.7a2.86 2.86 0 01-1.59-.83 2.34 2.34 0 01-.6-1.61 2.44 2.44 0 01.82-1.86 3.19 3.19 0 014.11 0 2.36 2.36 0 01.84 1.86 2.26 2.26 0 01-.6 1.58 2.82 2.82 0 01-1.57.84v1.66c1.13-.08 2-.16 2.71-.24zm1.9-8.27v10.61h-1.42V66.65zM239.25 70a1.38 1.38 0 00-.44-1 1.58 1.58 0 00-1.08-.39 1.54 1.54 0 00-1 .4 1.33 1.33 0 00-.43 1 1.16 1.16 0 00.43 1 1.55 1.55 0 001 .37 1.6 1.6 0 001.07-.38 1.2 1.2 0 00.45-1zm12 3.85l.14 1.07c-1 .14-2.15.23-3.33.29-1.8.06-3 .08-3.53.08l-.19-1.14h2.8v-2h-1.94v-4.54h5.34v1.11h-3.93v2.33h4v1.1h-2v1.91c1.06 0 2-.12 2.72-.21zm2-7.2v10.7h-1.4v-10.7zm7.07 3.46v-1.18h1.56v-2.28h1.39v10.69h-1.39v-4.25h-1.56v-1.17h1.56V70.1zm-2 3.29v-4.64h-2.2v4.63zm1.42-5.76v6.89h-5v-6.9zm4.73 9.89l.53-2.43h1.51l-.86 2.42zm7.32-6.31a21.33 21.33 0 004.22-.33l.16 1.08a22.77 22.77 0 01-4.73.38h-1v-4.9h4.76v1.12h-3.37zm8.12-.82h-1.51v2.5H277v-6.25h1.42v2.6H280zm-1.38 4.79a1.75 1.75 0 01-1 1.56 6.53 6.53 0 01-5.38 0 1.75 1.75 0 010-3.14 5.2 5.2 0 012.68-.58 5.31 5.31 0 012.71.58 1.77 1.77 0 011 1.58zm-2 .75a.83.83 0 00.58-.75.85.85 0 00-.58-.76 5.09 5.09 0 00-3.27 0 .85.85 0 00-.58.76.83.83 0 00.58.75 5.09 5.09 0 003.29-.01zM289 77.21h-7.09v-3.73H289zm-8.5-7.5v-1.12h5.63v1.12h-2a2.85 2.85 0 002.32 2.23c-.16.24-.4.6-.7 1.08a4.66 4.66 0 01-1.37-.74 3.22 3.22 0 01-1-1.16 3.41 3.41 0 01-1 1.32 4.27 4.27 0 01-1.52.87c-.09-.14-.22-.33-.41-.58s-.3-.43-.36-.5a3.22 3.22 0 002.5-2.52zM289 73h-1.4v-1.86H286V70h1.62v-3.35H289zm-1.4 3.14v-1.58h-4.28v1.54zM281.8 68v-1h3.11v1zm20.2 9.34h-1.39V66.65H302zM294.16 74a5.54 5.54 0 010-5.53 2.46 2.46 0 013.44-.61 2.21 2.21 0 01.61.61 5.52 5.52 0 010 5.52 2.49 2.49 0 01-3.47.59 2.66 2.66 0 01-.58-.58zm3.45-2.76a4.24 4.24 0 00-.4-2 1.18 1.18 0 00-1-.72 1.16 1.16 0 00-1 .72 4.36 4.36 0 00-.39 2 4.23 4.23 0 00.39 2 1.14 1.14 0 001 .72 1.18 1.18 0 001-.72 4.11 4.11 0 00.39-2zm13.88.37a1.38 1.38 0 01-.92 1.24 7.28 7.28 0 01-5 0 1.31 1.31 0 010-2.5 7.2 7.2 0 015.05 0 1.4 1.4 0 01.9 1.26zm-2.78 5.75h-1.4v-2.55h-4.1v-1.12h9.66v1.12h-4.17zm3.61-7.84h-8.56v-1.1h8.56zm-6.19-1.61v-1.12h3.81v1.09zm3.92 3.7q0-.3-.57-.48a5.89 5.89 0 00-2.86 0c-.37.11-.55.28-.55.48s.18.35.55.47a6.1 6.1 0 002.86 0c.38-.12.57-.28.57-.47zm10.19 5.27h-1.32v-5H318a5 5 0 01-.68 2.34 1.84 1.84 0 01-1.64.91 1.74 1.74 0 01-1.32-.56 3.15 3.15 0 01-.76-1.4 7.06 7.06 0 01-.22-1.88 6.82 6.82 0 01.22-1.86 3.15 3.15 0 01.76-1.4 1.78 1.78 0 011.32-.56 1.81 1.81 0 011.64.92 5 5 0 01.68 2.34h.91v-3.88h1.32zm2.13.49h-1.32V66.65h1.32zm-5.9-4.18a5.7 5.7 0 00.26-1.88 5.91 5.91 0 00-.26-1.87c-.16-.49-.42-.73-.76-.73s-.58.24-.75.73a7.12 7.12 0 000 3.74c.17.48.42.73.75.73s.59-.25.76-.73zm13.2 1.4a27.09 27.09 0 01-4.76.33h-1.13v-4.47h3.47v-1.77h-3.52v-1.12h4.92v4h-3.47v2.17a25.56 25.56 0 004.37-.31zm2-7.91v4.1h1.5v1.12h-1.5v5.44h-1.4V66.65zm10.22 5.77h-3v2.47h4.15V76h-9.66v-1.1h4.1v-2.48h-2.85v-5h7.18v1.11h-5.78v2.77h5.83zm13.62 4.85h-7.37v-2.91h5.63v-.74h-5.69v-1.12h7.08v2.88h-5.6v.73h5.94zm-.3-5.3h-1.39v-.91h-2V70h2v-.9H352v-1h1.81v-1.45h1.39zm-3.34-4.9a4.75 4.75 0 01-.41 2 4.66 4.66 0 01-1.11 1.53 7.14 7.14 0 01-1.52 1 7.86 7.86 0 01-1.77.6l-.68-1.14a5.86 5.86 0 002.57-1 3.17 3.17 0 001.36-1.88h-3.43V67.1zm13.43 5.74h-1.4v-1.07h-2v-1.15h2v-1h-1.81v-1.17h1.81v-1.8h1.4zm0 4.51h-1.4v-2.84h-5.83v-1.12h7.24zm-3.39-10.07q-.15 4.14-4.74 5.6l-.73-1.13a6.22 6.22 0 002.56-1.18 3.58 3.58 0 001.35-2.12H357v-1.17zm15.82-.63v4.11h1.53v1.16h-1.53v5.42h-1.39V66.65zm-1.92 7.09l-.42.53c-.18.23-.31.4-.41.51a6.87 6.87 0 01-1.48-1.32 4.85 4.85 0 01-1-1.66 5.18 5.18 0 01-1 1.8A5.75 5.75 0 01370 75c-.39-.48-.68-.82-.86-1a5.53 5.53 0 002.65-5v-1.45h1.45v1.39a5.61 5.61 0 00.68 2.78 5.55 5.55 0 001.9 2.02zm12.26-4.24a2 2 0 01-1 1.73 6.16 6.16 0 01-5.52 0 2 2 0 010-3.44 6.16 6.16 0 015.52 0 2 2 0 011.01 1.71zm-4.94 7.83h-1.4v-3.57h-2.27v-1.11h9.66v1.11h-2.32v3.57h-1.4v-3.57h-2.26zM386 70.4a1.06 1.06 0 00.64-.9 1 1 0 00-.64-.88 4.3 4.3 0 00-3.41 0 1 1 0 00-.63.88 1 1 0 00.63.9 4.28 4.28 0 003.4 0zm13.47 1.52h-1.57v5.42h-1.39V66.65h1.39v4.1h1.55zm-4.36-4.18a8.5 8.5 0 01-4.79 7.67l-.85-1.06a7.16 7.16 0 002.84-2.3 6.09 6.09 0 001.28-3.14h-3.49v-1.17zm13.14 3.35a1.07 1.07 0 01-.49.91 2.81 2.81 0 01-1.33.47v.37a24.34 24.34 0 002.56-.23q0 .21.06.6a4.11 4.11 0 01.05.46c-.85.1-1.94.19-3.26.26s-2.4.11-3.23.11l-.19-1.13h2.6v-.41a2.73 2.73 0 01-1.33-.47 1.11 1.11 0 01-.5-.92 1.2 1.2 0 01.7-1.07 4.39 4.39 0 013.65 0 1.19 1.19 0 01.71 1.07zm2.75-4.44V70h1.32v1.16H411V74h-1.4v-7.35zm-7.35 7.87H411v2.83h-1.4v-1.73h-6zm5.15-5.18h-6v-1h6zm-4.4-1.42v-1h2.9v1zm2.51 3.17c0-.15-.1-.27-.3-.37a2 2 0 00-.86-.14 1.91 1.91 0 00-.85.14c-.2.1-.3.22-.3.37s.1.27.3.36a2 2 0 00.85.13c.72 0 1.11-.16 1.11-.49zm14.53 3.31H420v-7.75h1.39zm.24 2.66h-7.41v-3.43h1.41V76h6zm-8.73-7a2.49 2.49 0 01.8-1.9 3.33 3.33 0 014.19 0 2.46 2.46 0 01.79 1.9 2.43 2.43 0 01-.79 1.9 3.37 3.37 0 01-4.2 0 2.43 2.43 0 01-.79-1.9zm1.44 0a1.46 1.46 0 00.4 1.07 1.58 1.58 0 002.13 0 1.54 1.54 0 00.39-1.07 1.39 1.39 0 00-1.32-1.44h-.15a1.39 1.39 0 00-1.45 1.44zm15.38 3c-1 .13-2.17.22-3.43.28s-2.58.11-3.54.11l-.19-1.14h2.9v-1.2h-1.91V67.4h5v1.12H425V70h3.7v1.12h-1.82v1.15c1.12-.06 2-.13 2.71-.23zm1.84-6.43v7.84h-1.42v-7.82zm.03 10.37h-7.22v-3h1.41v1.88h5.81zm12.85-1.86a1.78 1.78 0 01-1 1.59 5.26 5.26 0 01-2.7.58 5.15 5.15 0 01-2.67-.58 1.79 1.79 0 01-.76-2.42 1.74 1.74 0 01.76-.76 5.15 5.15 0 012.67-.58 5.26 5.26 0 012.7.58 1.78 1.78 0 011 1.59zm-.07-2.31H443v-1.14h-2v-1.07h2v-1.06h-1.81v-1.1H443v-1.81h1.4zm-1.95 3.08a.84.84 0 00.57-.77.85.85 0 00-.58-.77 3.84 3.84 0 00-1.64-.28 3.66 3.66 0 00-1.6.28.81.81 0 000 1.54 3.78 3.78 0 001.6.28 4.07 4.07 0 001.65-.28zm-1.42-8.59c-.11 2.77-1.69 4.64-4.74 5.59l-.74-1.13a6.27 6.27 0 002.56-1.19 3.62 3.62 0 001.36-2.11h-3.41v-1.14zm13.22 2.13a1.94 1.94 0 01-1 1.71 6.18 6.18 0 01-5.53 0 1.93 1.93 0 01-.81-2.61 1.89 1.89 0 01.82-.81 6.1 6.1 0 015.52 0 1.93 1.93 0 011 1.71zm-3.1 7.88h-1.4V73.8h-4.1v-1.13h9.66v1.13h-4.16zm1-7a1 1 0 00.59-1.2.91.91 0 00-.59-.59 4.28 4.28 0 00-3.4 0 .94.94 0 00-.59 1.2 1 1 0 00.59.59 4.28 4.28 0 003.4.05zm10.53 6.47h-1.32v-5h-.91a5 5 0 01-.68 2.34 1.82 1.82 0 01-1.64.91 1.74 1.74 0 01-1.32-.56 3.15 3.15 0 01-.76-1.4 7.49 7.49 0 01-.22-1.88 7.23 7.23 0 01.22-1.86 3.25 3.25 0 01.76-1.4 1.78 1.78 0 011.32-.56 1.83 1.83 0 011.65.92 5.07 5.07 0 01.67 2.34h.91v-3.8h1.32zm2.13.49h-1.32V66.65h1.32zm-5.9-4.18a5.69 5.69 0 00.25-1.88 5.63 5.63 0 00-.25-1.87c-.17-.49-.42-.73-.77-.73s-.57.24-.74.73a7.12 7.12 0 000 3.74c.17.48.42.73.74.73s.6-.25.77-.73zm16.55-.11h-9.66v-1.08h9.66zm-1.19-2.33h-7.17V67h1.4v2.6h5.77zm.07 6.34h-7.3v-3.12h1.39v2h5.91zm6.14-5.85a20.59 20.59 0 004.22-.32l.16 1.08a22.76 22.76 0 01-4.73.37h-1v-4.84h4.77v1.12h-3.38zm8.12-.82h-1.51v2.56h-1.42v-6.25h1.42v2.6h1.51zm-1.38 4.79a1.75 1.75 0 01-1 1.56 5.3 5.3 0 01-2.7.58 5.24 5.24 0 01-2.69-.58 1.76 1.76 0 01-.77-2.37 1.79 1.79 0 01.77-.77 5.2 5.2 0 012.68-.58 5.31 5.31 0 012.71.58 1.76 1.76 0 011 1.63zm-2 .75a.82.82 0 00.59-.75.85.85 0 00-.59-.76 5.06 5.06 0 00-3.26 0 .85.85 0 00-.58.76.83.83 0 00.58.75 5.06 5.06 0 003.22.05zm12.48 1.28h-7.1v-3.68h7.1zm-8.5-7.5v-1.07h5.63v1.12h-2a2.85 2.85 0 002.32 2.23c-.16.24-.4.6-.7 1.08a4.66 4.66 0 01-1.37-.74 3.22 3.22 0 01-1-1.16 3.41 3.41 0 01-1 1.32 4.27 4.27 0 01-1.52.87c-.09-.14-.22-.33-.41-.58s-.3-.43-.36-.5a3.22 3.22 0 002.5-2.52zm8.5 3.25h-1.4v-1.77h-1.62V70h1.62v-3.35h1.4zm-1.4 3.14v-1.49H492v1.54zM490.46 68v-1h3.11v1zm17.29 9.3h-1.39V66.65h1.39zM500 74a4.66 4.66 0 01-.74-2.76 4.74 4.74 0 01.74-2.77 2.47 2.47 0 013.45-.61 2.52 2.52 0 01.61.61A5.58 5.58 0 01504 74a2.5 2.5 0 01-4 0zm3.45-2.76a4.24 4.24 0 00-.4-2 1.17 1.17 0 00-1-.72 1.13 1.13 0 00-1 .72 4.23 4.23 0 00-.39 2 4.11 4.11 0 00.39 2 1.12 1.12 0 001 .72 1.18 1.18 0 001-.72 4 4 0 00.39-2zm17.36-4.56v10.66h-1.4V66.65zm-8.19 3v-1.1h5.6v1.1h-2.06a1.59 1.59 0 00.85 1 3.68 3.68 0 001.52.42l-.56 1a4.29 4.29 0 01-1.48-.48 1.05 1.05 0 00-2.09.15 4.39 4.39 0 01-1.57.55l-.59-1.05c1.46-.24 2.28-.78 2.45-1.62zM516 77h-1.42v-3.16h-2.65l-.2-1.14c1.05 0 2.23 0 3.55-.06s2.55-.14 3.54-.25l.18 1.11c-.7.1-1.67.19-2.93.26zm-2.16-9v-1.1H517V68zm17.47 3.44l-.66 1.1a6.72 6.72 0 01-2.32-1.07 4.32 4.32 0 01-1.58-1.78 3.59 3.59 0 01-.92 1.3 6.45 6.45 0 01-1.43 1 7 7 0 01-1.53.55l-.64-1.14a5.39 5.39 0 001.75-.58 4.31 4.31 0 001.45-1.23 2.69 2.69 0 00.6-1.69v-.7h1.47v.65a2.57 2.57 0 00.36 1.3 3.74 3.74 0 00.94 1.08 6.47 6.47 0 001.2.77 4.88 4.88 0 001.31.39zm.28 4.62h-9.66v-1.1H526v-2.6h1.42v2.54h4.15zm9.7 1.21h-7.54v-2.74h5.73v-.6h-5.8v-1.1h7.23v2.66h-5.75v.6h6.12zm-2.21-5.29c-1 .13-2.16.22-3.43.27s-2.56.11-3.53.11l-.19-1.13h2.92v-.89H533V67h5v1.08h-3.6v1.12h3.71v1.08h-1.83v.83c1.07-.06 2-.13 2.71-.22zm1.84-5.28v5.73h-1.4v-5.78zm9.54 10.7H549v-3.8h-4v-1.1h9.66v1.1h-4.15zm3.75-6.94l-.61 1.14a5.89 5.89 0 01-2.32-.87 3.73 3.73 0 01-1.49-1.56 3.51 3.51 0 01-1.45 1.55 6.16 6.16 0 01-2.35.89l-.6-1.15a4.89 4.89 0 002.56-1 2.45 2.45 0 001.09-2v-.55h1.49v.55a2.19 2.19 0 00.57 1.44 4.09 4.09 0 001.4 1.07 5.41 5.41 0 001.71.49zm9.69-.61a2.24 2.24 0 01-.82 1.8 3.27 3.27 0 01-4 0 2.24 2.24 0 01-.82-1.8A2.4 2.4 0 01559 68a2.87 2.87 0 012-.74 3 3 0 012 .73 2.39 2.39 0 01.81 1.85zm2.94 7.56a3.07 3.07 0 01-1.06-.79 3.14 3.14 0 01-.73-1.07 3.67 3.67 0 01-1.79 2.06l-.42-.44-.49-.52a3.35 3.35 0 001.47-1.24 3.18 3.18 0 00.52-1.8v-.47h1.38v.47a2.87 2.87 0 00.55 1.72 2.93 2.93 0 001.4 1zm-1.53-10.72h1.4v6h-1.4zm-3.07 9.64a2 2 0 01-.57-.43 1.69 1.69 0 01-.42-.57 4 4 0 01-2 2.13l-.83-1a3.62 3.62 0 001.51-1.17 2.92 2.92 0 00.55-1.76v-.33h1.37v.3a2 2 0 00.36 1.19 1.9 1.9 0 00.91.72zm-.12-5.48a1.44 1.44 0 000-2 1.41 1.41 0 00-1.09-.4 1.45 1.45 0 00-1.06.4 1.45 1.45 0 000 2 1.58 1.58 0 002.13 0zm15.51 1.74H568v-1.17h9.66zm-4.83-3.99a3.15 3.15 0 01-1.47 1.48 6.54 6.54 0 01-2.36.76l-.58-1.09a6.58 6.58 0 001.75-.42 3.89 3.89 0 001.38-.92 2 2 0 00.56-1.37v-.29h1.45V67a2 2 0 00.62 1.39 4.27 4.27 0 001.45 1 5.19 5.19 0 001.64.36l-.6 1.1a6.71 6.71 0 01-1.51-.39 5.62 5.62 0 01-1.42-.78 2.66 2.66 0 01-.91-1.08zm3.59 8.6h-7.19v-4.08h1.39v1H575v-1h1.39zM575 76.09v-.9h-4.4v.9zm11.87-9.44v10.69h-1.38V66.65zm-2.47 6.41l.18 1.12a15.84 15.84 0 01-2.36.36c-1 .08-1.85.12-2.6.12h-1v-6.94H580v5.74a19.43 19.43 0 004.39-.4zm12.08-6.41v4H598v1.16h-1.54v5.5h-1.4V66.65zm-6.55 7a20.69 20.69 0 004.23-.32c0 .12 0 .31.07.56s.06.44.08.56a22.13 22.13 0 01-4.74.36h-1v-7.18h4.88v1.13h-3.49zm8.7 2.39v-1.4h1.46v1.4z"/><path id="패스_11436" data-name="패스 11436" class="cls-2" d="M5.59 160a4.48 4.48 0 01-2.34-.56l.27-1.13a3.39 3.39 0 001.7.49 2.05 2.05 0 001.35-.4 1.43 1.43 0 00.49-1.15c0-1-.59-1.48-1.78-1.48a3.79 3.79 0 00-1.67.45l.3-4.53h4.3v1.15H5l-.16 2a4.06 4.06 0 011-.14 2.72 2.72 0 012 .65 2.46 2.46 0 01.7 1.93 2.55 2.55 0 01-.81 1.94 3 3 0 01-2.14.78zm3.93.07v-1.4H11v1.4zm14 1.25h-1.41v-10.67h1.39zM15.7 158a5.6 5.6 0 010-5.53 2.36 2.36 0 012-1.06 2.32 2.32 0 012 1.06 5.52 5.52 0 010 5.52 2.49 2.49 0 01-4.06 0zm3.45-2.76a4 4 0 00-.4-2 1.08 1.08 0 00-2 0 4.23 4.23 0 00-.39 2 4.11 4.11 0 00.39 1.95 1.14 1.14 0 001 .72 1.16 1.16 0 001-.72 4 4 0 00.4-1.98zm10.3 1.47h-4.33v-5.22h1.41V153h1.52v-1.6h1.4v2h1v-2.58h1.33v7.44h-1.37v-3.72h-1zm4.64 4.4h-7.54v-3.44h1.39V160h6.15zm-.26-2.51H32.5v-7.92h1.33zm-5.78-3v-1.46h-1.52v1.46zm15-.69h-5.6v1.17h5.93v1.1h-7.32v-5.67h7.21v1.1h-5.82v1.2H43zm1.47 4V160h-9.69v-1.1zm12.19.28a1.78 1.78 0 01-1 1.58 5.19 5.19 0 01-2.7.59 5.09 5.09 0 01-2.68-.59 1.79 1.79 0 010-3.17A5.19 5.19 0 0153 157a5.3 5.3 0 012.7.58 1.79 1.79 0 01.98 1.59zm-.07-2.32h-1.4v-1.16h-2v-1.07h2v-1.06h-1.85v-1.1h1.81v-1.81h1.4zm-2 3.09a.81.81 0 000-1.55 3.77 3.77 0 00-1.63-.28 3.64 3.64 0 00-1.6.28.86.86 0 00-.58.78.84.84 0 00.57.76 3.66 3.66 0 001.6.28 3.88 3.88 0 001.65-.29zm-1.42-8.6c-.11 2.78-1.69 4.64-4.74 5.6l-.74-1.13a6.5 6.5 0 002.57-1.19 3.59 3.59 0 001.35-2.11h-3.4v-1.17zm13 9.85h-7.2v-3.52h2.86v-.78h-4.04v-1.13h9.66v1.13h-4.15v.78h2.92zm.22-6.12h-7.7V154h1.48c0-.1-.06-.31-.13-.63s-.11-.58-.13-.76l1.34-.18c0 .15 0 .4.11.76s.09.62.12.81h2.14l.26-1.56 1.37.17L65 154h1.45zm0-3h-7.67V151h7.76zm-1.65 8v-1.35h-4.33v1.35zm4.9-6.21a1.31 1.31 0 00.42 1 1.54 1.54 0 001.12.4 1.57 1.57 0 001.13-.4 1.37 1.37 0 00.42-1 1.32 1.32 0 00-.42-1 1.54 1.54 0 00-1.13-.39 1.59 1.59 0 00-1.12.39 1.27 1.27 0 00-.33 1.01zm7.31-3.23v10.69h-1.4v-10.69zm-8.6 3.25a2.3 2.3 0 01.81-1.85 3.64 3.64 0 014.32 0 2.52 2.52 0 010 3.7 3.16 3.16 0 01-2.16.72 3.12 3.12 0 01-2.15-.72 2.35 2.35 0 01-.83-1.85zm6.76 4.7c-1 .14-2.26.24-3.61.32-1.6.06-2.72.09-3.36.08l-.2-1.2q2 0 3.48-.06c1.39-.05 2.59-.14 3.58-.26zm11-.74l-.79 1a4.6 4.6 0 01-1.12-1.08 4.35 4.35 0 01-.75-1.41 4.53 4.53 0 01-.78 1.55 4.36 4.36 0 01-1.24 1.18l-.86-1a5.17 5.17 0 002.21-4.64V153H81v-1.12h4.83V153h-1.67v.49a6.3 6.3 0 00.5 2.68 3.56 3.56 0 001.47 1.69zm1.69 3h-1.34v-5.37h-1.39v-1.15h1.39v-3.48h1.31zm2.15.49h-1.37v-10.7H90zm10.06 0H98.7v-10.7h1.3zm-2.13-.49h-1.34v-5.38h-1.44v-1.14h1.44v-3.48h1.31zm-1.56-3.11l-.79 1a5.06 5.06 0 01-1.17-1.09 3.94 3.94 0 01-.78-1.47 4.84 4.84 0 01-.79 1.61 4.45 4.45 0 01-1.34 1.2l-.83-1a4.59 4.59 0 001.65-1.9 6.46 6.46 0 00.6-2.87v-1.6h1.34v1.59a6.32 6.32 0 00.55 2.71 3.88 3.88 0 001.53 1.81zm12.13.07a1.67 1.67 0 011 1.49 1.65 1.65 0 01-1 1.49 5.56 5.56 0 01-2.72.55 5.68 5.68 0 01-2.75-.55 1.61 1.61 0 010-3 5.81 5.81 0 012.75-.56 5.56 5.56 0 012.69.57zm2.21-1.37H101v-1.11h3.66v-1.86h1.4v1.86h4.6zm-1.28-5.45a17.64 17.64 0 01-.34 3.77l-1.35-.18a10.38 10.38 0 00.29-2.48h-5.9V151zm-1.4 8.28c0-.3-.2-.53-.61-.69a5 5 0 00-1.67-.23q-2.28 0-2.28.93c0 .29.2.52.6.67a6 6 0 003.35 0c.4-.16.61-.38.61-.68zm13-3.13h-1.42v5.16h-1.39v-10.66h1.39V155H121zm-3.33 2.65c-.93.12-2.2.23-3.82.33-1.1 0-2 .07-2.8.07l-.18-1.14h2.2v-3h1.33v3c1.38-.08 2.43-.16 3.16-.26zm-.49-7a22.82 22.82 0 01-.36 4.67l-1.35-.14a16.85 16.85 0 00.28-3.4h-4.21v-1.13zm12.44 9.4h-7.19v-4h7.19zm0-10.14a17.63 17.63 0 01-.36 3.83h1.6V156h-9.66v-1.12h6.73a10.09 10.09 0 00.21-1.34 10.49 10.49 0 00.08-1.37h-5.78v-1.11zm-1.39 9.05v-1.79h-4.4v1.79zm12.71-3h-9.66V156h9.66zm-1.12 3.9h-7.35v-3.12h1.4v2h6zm0-7.87a1.78 1.78 0 01-1 1.56 6.51 6.51 0 01-5.46 0 1.7 1.7 0 010-3.1 5.33 5.33 0 012.71-.6 5.42 5.42 0 012.74.6 1.79 1.79 0 01.99 1.58zm-1.46 0a.88.88 0 00-.61-.78 4 4 0 00-1.68-.3 3.9 3.9 0 00-1.65.3.89.89 0 00-.62.78c0 .32.21.57.62.76a4.08 4.08 0 001.65.29 4.22 4.22 0 001.68-.29c.39-.13.59-.38.59-.7zm14.91 8.14H152v-10.63h1.33zm-3.51-6.2h-2.12V154h2.12v-3.17h1.32v10h-1.32zm-.79 2.22l.16 1.11a8.38 8.38 0 01-1.5.24c-.73.06-1.41.1-2.06.1h-1v-7.17h1.4v6a11.09 11.09 0 003-.29zm14.09 4h-1.4v-10.65h1.4zm-7.8-3.37a4.73 4.73 0 01-.74-2.76 4.81 4.81 0 01.74-2.77 2.47 2.47 0 014.06 0 5.52 5.52 0 010 5.52 2.49 2.49 0 01-4.06 0zm3.45-2.76a4.12 4.12 0 00-.4-2 1.16 1.16 0 00-1-.72 1.13 1.13 0 00-1 .72 4.23 4.23 0 00-.39 2 4.11 4.11 0 00.39 1.95 1.14 1.14 0 001 .72 1.17 1.17 0 001-.72 4 4 0 00.4-1.95zm14.42 6.13h-1.39v-5.76h-1.63v-1.14h1.63v-3.75h1.39zm-3.48-2.64h-5v-7.19H166v2.57h2.27v-2.59h1.4zm-1.4-1.1v-2.42H166v2.41zm13.09 3.25h-1.32v-5h-.91a4.92 4.92 0 01-.68 2.33 1.81 1.81 0 01-1.64.92 1.78 1.78 0 01-1.32-.56 3.2 3.2 0 01-.76-1.4 7.51 7.51 0 01-.22-1.89 7.28 7.28 0 01.22-1.86 3.22 3.22 0 01.76-1.39 1.74 1.74 0 011.32-.56 1.85 1.85 0 011.65.91 5.11 5.11 0 01.67 2.35h.91v-3.87h1.32zm2.14.49h-1.32v-10.65h1.32zm-5.9-4.19a5.63 5.63 0 00.25-1.87 5.69 5.69 0 00-.25-1.88c-.17-.48-.42-.72-.77-.72s-.57.24-.74.72a7.16 7.16 0 000 3.75c.17.48.41.72.74.72s.6-.24.77-.72zm15.74 4.19H192v-5.89h-2v-1.19h2v-3.61h1.42zm-2.35-3.39l-.8 1.05a6 6 0 01-1.45-1.31 5.1 5.1 0 01-1-1.69 5.37 5.37 0 01-1 1.82 5.11 5.11 0 01-1.57 1.36l-.84-1a5.52 5.52 0 002.65-4.93v-1.63h1.44v1.56a5.82 5.82 0 00.67 2.78 5.58 5.58 0 001.9 1.99zm15-2.27h-7.34v-4.49H200v1.21h4.52v-1.22H206zm-3 5.71h-1.4v-3.51h-4.1v-1.12h9.66v1.12H203zm1.57-6.83v-1.06H200v1.06zm12.88-.25h-1.53v2.3h-1.41v-5.92h1.41v2.48h1.53zm-1.53 6.94H209v-4.07h6.92zm-1.4-1.1v-1.9h-4.12v1.9zm-5.25-5.11a20.34 20.34 0 004.2-.31l.18 1.08a23.36 23.36 0 01-4.72.36h-1.05v-4.83h4.77v1.12h-3.38zm18.2-.32H226V157h-1.4v-6.31h1.4v2.91h1.5zm-1.5 6.54H219v-3.78h1.39v.83h4.14v-.84H226zm-1.4-1.1v-.77h-4.14v.76zm-.78-6.66h-6.26v-1.06h6.26zm-4.65-1.56v-1.08h3.17v1.07zm4.11 3.52a1.46 1.46 0 01-.71 1.26 3.31 3.31 0 01-1.82.48 3.44 3.44 0 01-1.85-.48 1.46 1.46 0 01-.73-1.26 1.48 1.48 0 01.73-1.25 3.27 3.27 0 011.85-.48 3.12 3.12 0 011.81.48 1.47 1.47 0 01.72 1.24zm-3.7 0a.55.55 0 00.34.51 1.59 1.59 0 00.83.19 1.55 1.55 0 00.82-.19.56.56 0 00.33-.51.55.55 0 00-.33-.5 1.82 1.82 0 00-1.66 0 .55.55 0 00-.34.49zm17-4.8v10.68h-1.38v-10.65zm-2.47 6.4l.18 1.13a15.84 15.84 0 01-2.36.36c-1 .08-1.85.12-2.59.12h-1v-6.95h1.39v5.74a19.43 19.43 0 004.37-.4zm12.08-6.41v4h1.54v1.16h-1.54v5.5h-1.4v-10.62zm-6.55 7a20.54 20.54 0 004.22-.32c0 .12 0 .31.08.56s.06.44.08.56a22.13 22.13 0 01-4.74.36h-1v-7.23h4.89v1.13h-3.5zm8.7 2.39v-1.4h1.46v1.4z"/><path id="패스_11435" data-name="패스 11435" class="cls-2" d="M3.54 95.15V94h3.3v1.15zm15.27-1.51h-7.34v-4.49h1.4v1.21h4.52v-1.22h1.42zm-3 5.71h-1.4v-3.51h-4.1v-1.12H20v1.12h-4.18zm1.57-6.83v-1.06h-4.51v1.06zm11.93 4.68a1.73 1.73 0 01-1 1.55 5.62 5.62 0 01-2.76.57 5.56 5.56 0 01-2.75-.57 1.71 1.71 0 01-1-1.55 1.73 1.73 0 011-1.57 5.45 5.45 0 012.75-.57 5.51 5.51 0 012.76.57 1.75 1.75 0 011 1.57zm-8.55-6.64V89.4h5.63v1.16h-2a3 3 0 00.74 1.8 3.64 3.64 0 001.61 1.06c-.09.15-.23.35-.41.61l-.34.5a4.58 4.58 0 01-1.33-.83 3.82 3.82 0 01-1-1.26 3.36 3.36 0 01-1 1.44 4.27 4.27 0 01-1.52 1l-.38-.5c-.2-.26-.35-.46-.46-.59a4.09 4.09 0 001.82-1.24 3.19 3.19 0 00.74-2zm5.46 1.77V91.2h1.61v-2.55h1.4V95h-1.4v-2.67zm-.66 3.85a4.46 4.46 0 00-1.7.27q-.6.27-.6.75a.82.82 0 00.6.74 4.29 4.29 0 001.7.26 4.32 4.32 0 001.71-.26c.41-.18.61-.42.61-.74a.82.82 0 00-.6-.75 4.56 4.56 0 00-1.72-.27zm14.05 1.3a1.51 1.51 0 01-1 1.39 6.27 6.27 0 01-2.74.5 6.38 6.38 0 01-2.76-.5 1.45 1.45 0 010-2.76 6.08 6.08 0 012.76-.5 6 6 0 012.74.5 1.51 1.51 0 011 1.37zm0-1.92h-1.38v-2.75h-.87v2.4h-1.3v-6.37h1.3v2.83h.87v-3h1.34zm-4.78-3a1.55 1.55 0 010 2.48 3.09 3.09 0 01-3.31 0 1.55 1.55 0 010-2.48 2.62 2.62 0 011.61-.56 2.65 2.65 0 011.66.51zm2.77 5.56c.42-.14.62-.33.62-.58s-.21-.44-.63-.59a5.13 5.13 0 00-1.7-.22 5.25 5.25 0 00-1.67.21c-.41.15-.61.35-.61.6s.2.45.61.58a5.27 5.27 0 001.68.21 5.4 5.4 0 001.66-.26zm-7.07-6.38v-1.13h5.12v1.08zm1.22-1.55v-1.13h2.83v1.08zm2.16 4.07a.56.56 0 00.26-.47.54.54 0 00-.26-.46 1.27 1.27 0 00-.74-.18 1.26 1.26 0 00-.73.18.54.54 0 00-.26.46.56.56 0 00.26.47 1.26 1.26 0 00.73.18 1.27 1.27 0 00.74-.18zm12.92-2.78A1.92 1.92 0 0146 93a3.07 3.07 0 01-2 .63 3.13 3.13 0 01-2-.63 2 2 0 01-.76-1.6 2 2 0 01.76-1.61 3.48 3.48 0 014 0 2.06 2.06 0 01.79 1.64zm2.66-2.78v10.64h-1.43V88.65zM44.74 99h-1.43v-3.51c-1 .05-1.9.07-2.64.07l-.2-1.15a68.64 68.64 0 007-.32l.12 1.08c-.71.09-1.67.18-2.88.25zm.64-7.61a1 1 0 00-.39-.81 1.56 1.56 0 00-1-.32 1.52 1.52 0 00-1 .32 1 1 0 00-.39.81 1 1 0 00.39.78 1.56 1.56 0 001 .3 1.58 1.58 0 001-.3.92.92 0 00.39-.75zM59 88.65v4.07h1.54v1.16H59v5.46h-1.4V88.65zm-2.12 7.58a14.06 14.06 0 01-2.31.37c-.95.09-1.79.14-2.53.14H51v-7h1.39v5.82a19.1 19.1 0 004.27-.42zm15.63 1a1.71 1.71 0 01-1 1.55 5.56 5.56 0 01-2.75.57 5.62 5.62 0 01-2.76-.6 1.73 1.73 0 01-1-1.55 1.75 1.75 0 011-1.57 6.94 6.94 0 015.51 0 1.73 1.73 0 01.97 1.57zm-8.54-6.64V89.4h5.63v1.16h-2a2.89 2.89 0 00.74 1.8 3.64 3.64 0 001.61 1.06l-.41.61-.35.5a4.67 4.67 0 01-1.32-.83 3.7 3.7 0 01-1-1.26 3.47 3.47 0 01-1 1.44 4.18 4.18 0 01-1.52 1l-.37-.5c-.2-.26-.35-.46-.47-.59a4.18 4.18 0 001.83-1.24 3.25 3.25 0 00.74-2zm5.46 1.77V91.2H71v-2.55h1.4V95H71v-2.67zm-.66 3.85a4.46 4.46 0 00-1.7.27c-.41.18-.61.43-.61.75s.2.57.61.74a4.27 4.27 0 001.7.26 4.34 4.34 0 001.71-.26c.4-.18.6-.42.6-.74a.82.82 0 00-.6-.75 4.54 4.54 0 00-1.74-.3zm6.64-3a21.43 21.43 0 004.23-.33l.12 1.12a22.71 22.71 0 01-4.73.38H74v-4.93h4.77v1.12h-3.39zm8.13-.82H82v2.51h-1.42v-6.25H82v2.6h1.51zm-1.38 4.79a1.75 1.75 0 01-1 1.56 5.3 5.3 0 01-2.7.58 5.18 5.18 0 01-2.68-.58 1.76 1.76 0 01-1-1.56 1.78 1.78 0 011-1.59 6.63 6.63 0 015.38 0 1.78 1.78 0 01.97 1.59zm-2 .75a.83.83 0 00.58-.75.85.85 0 00-.58-.76 4 4 0 00-1.64-.27 3.94 3.94 0 00-1.63.27.85.85 0 00-.58.76.83.83 0 00.58.75 3.94 3.94 0 001.63.27 4 4 0 001.58-.27zm9.78-5.62h-6.2v-1.12h6.2zm-4.7-1.86v-1.1h3.3v1.1zm6.91-1.8V93h1.49v1.16h-1.55v5.2h-1.42V88.65zM84.21 95a2.09 2.09 0 01.72-1.65 2.68 2.68 0 011.86-.65 2.64 2.64 0 011.86.65 2.25 2.25 0 010 3.3 3 3 0 01-3.73 0 2.08 2.08 0 01-.71-1.65zm1.36 0a1.1 1.1 0 00.35.84 1.2 1.2 0 00.87.33 1.23 1.23 0 00.89-.32A1.16 1.16 0 0088 95a1.12 1.12 0 00-.34-.85 1.22 1.22 0 00-.87-.32 1.19 1.19 0 00-.87.32 1.13 1.13 0 00-.35.85zm14.92.72l-.78 1.09a5.33 5.33 0 01-1.54-1.25 4.55 4.55 0 01-1-1.62 4.4 4.4 0 01-.93 1.76 4.82 4.82 0 01-1.69 1.3l-.84-1a5 5 0 002.67-4.86v-.28h-2.13v-1.12h5.68v1.12h-2.07v.27a4.74 4.74 0 002.63 4.57zm2.16 3.64h-1.4V88.65h1.4zm8.45-.49a14.23 14.23 0 01-3.31.36v-4.11h1.34v3a8.9 8.9 0 001.78-.27zm3.48-3.63h-2.47v-.94h2.47zm1.42 1.3h-5.3v-1h5.3zm.61-4.53h-1.52v1.86h-1.43v-5.22h1.43v2.21h1.52zm-9.79-.33a2.43 2.43 0 01.79-1.82 2.71 2.71 0 012-.74 2.79 2.79 0 012 .73 2.38 2.38 0 01.79 1.83 2.26 2.26 0 01-.79 1.77 2.93 2.93 0 01-2 .7 2.87 2.87 0 01-2-.69 2.24 2.24 0 01-.77-1.78zm1.39 0a1.24 1.24 0 00.37.93 1.33 1.33 0 001 .37 1.41 1.41 0 001-.37 1.24 1.24 0 00.38-.93 1.37 1.37 0 00-.38-1 1.31 1.31 0 00-1-.41 1.26 1.26 0 00-1 .41 1.37 1.37 0 00-.35.99zm7 6.43a1.12 1.12 0 01-.56 1 2.55 2.55 0 01-1.4.36 2.47 2.47 0 01-1.4-.36 1.12 1.12 0 01-.56-1 1.14 1.14 0 01.56-1 2.9 2.9 0 012.8 0 1.12 1.12 0 01.62.99zm-1.24 0a.37.37 0 00-.2-.32 1.16 1.16 0 00-.52-.11c-.47 0-.71.15-.71.43s.24.44.71.44.75-.16.75-.45zm12.45-2.95h-9.66V94h9.66zm-1.11 3.9H118v-3.13h1.4v2h6zm0-7.87a1.78 1.78 0 01-1 1.56 5.28 5.28 0 01-2.73.6 5.22 5.22 0 01-2.72-.6 1.7 1.7 0 010-3.1 5.31 5.31 0 012.71-.6 5.38 5.38 0 012.73.6 1.77 1.77 0 011.09 1.53zm-1.45 0a.89.89 0 00-.62-.78 4 4 0 00-1.67-.3 3.87 3.87 0 00-1.65.3.87.87 0 00-.62.78c0 .32.2.57.62.76a4 4 0 001.65.29 4.15 4.15 0 001.67-.29c.49-.18.7-.43.7-.75zm15.7 1.14h-1.52v2.57h-1.43v-6.25h1.43v2.54h1.51zM135 94.16h-5v-4.91h1.39v1.45h2.26v-1.48h1.41zm-1.41-1.12v-1.25h-2.26v1.26zm4.57 4.13a1.76 1.76 0 01-1 1.58 6.55 6.55 0 01-5.39 0 1.78 1.78 0 01-1-1.58 1.8 1.8 0 011-1.59 5.24 5.24 0 012.69-.58 5.31 5.31 0 012.71.58 1.76 1.76 0 011.07 1.6zm-3.67-1.06a3.8 3.8 0 00-1.63.29.86.86 0 00-.58.77.85.85 0 00.58.76 3.94 3.94 0 001.63.27 4 4 0 001.64-.27.85.85 0 00.59-.76.86.86 0 00-.59-.77 3.85 3.85 0 00-1.56-.28zm14.11 3.09h-7V95h1.43v1h4.21v-1h1.4zm-1.4-1.12v-1h-4.21v1zm1.39-3.67h-1.39v-2.27h-1.52V91h1.52v-2.3h1.39zm-3.37-.41h-5v-4.86h1.4v1.39h2.23v-1.41h1.4zm-1.4-1.13v-1.26h-2.23v1.21zm15.76 5.12h-9.66v-1.1h9.66zm-2-7.77a2.39 2.39 0 010 4 5.64 5.64 0 01-5.69 0 2.39 2.39 0 010-4 4.84 4.84 0 012.84-.77 4.78 4.78 0 012.87.72zm-1 3.21a1.39 1.39 0 00.68-1.19 1.4 1.4 0 00-.68-1.2 3.26 3.26 0 00-1.81-.45A3.21 3.21 0 00153 91a1.4 1.4 0 000 2.4 3.79 3.79 0 003.6 0zm12.19 1.84h-3.24v1.67h4.15V98H160v-1.11h4.1v-1.67h-2.87v-3.54H167v-1.23h-5.87v-1.12h7.26v3.47h-5.81v1.3h6.12zm13 4.12h-1.4V88.65h1.4zM174 96a4.73 4.73 0 01-.74-2.76 4.81 4.81 0 01.74-2.77 2.47 2.47 0 014.06 0A5.52 5.52 0 01178 96a2.49 2.49 0 01-4 0zm3.45-2.76a4.12 4.12 0 00-.4-2 1.16 1.16 0 00-1-.72 1.13 1.13 0 00-1 .72 4.23 4.23 0 00-.39 2 4.11 4.11 0 00.39 2 1.14 1.14 0 001 .72 1.17 1.17 0 001-.72 4 4 0 00.37-2.03zm10.3 1.47h-4.34v-5.25h1.42V91h1.51v-1.6h1.4v2h1v-2.56H190v7.44h-1.32v-3.72h-1zm4.64 4.4h-7.55v-3.47h1.4V98h6.15zm-.26-2.51h-1.33v-7.95h1.33zm-5.79-3v-1.48h-1.54v1.46zm15-.69h-5.57v1.17h5.93v1.1h-7.32v-5.69h7.21v1.1h-5.82v1.2h5.57zm1.46 4V98h-9.66v-1.1zm7.38 2h-1.32v-5h-.91a4.92 4.92 0 01-.68 2.33 1.8 1.8 0 01-1.63.92 1.78 1.78 0 01-1.32-.56 3.22 3.22 0 01-.77-1.4 7.51 7.51 0 01-.22-1.89 7.28 7.28 0 01.22-1.86 3.24 3.24 0 01.77-1.39 1.74 1.74 0 011.32-.56 1.84 1.84 0 011.64.91 5 5 0 01.67 2.35h.91v-3.91h1.32zm2.14.49H211V88.65h1.32zm-5.9-4.19a5.63 5.63 0 00.25-1.87 5.69 5.69 0 00-.25-1.88c-.17-.48-.42-.72-.77-.72s-.57.24-.74.72a7.16 7.16 0 000 3.75c.17.48.41.72.74.72s.6-.24.77-.72zm18.09 4.06h-6.92v-3.7h6.92zm-8.12-7.42v-1.1H222v1.1h-2a2.84 2.84 0 002.29 2.11l-.7 1.1a4.71 4.71 0 01-1.37-.76 3.17 3.17 0 01-1-1.16 3.74 3.74 0 01-1 1.33 4 4 0 01-1.52.86q-.24-.36-.78-1.08a3.22 3.22 0 002.5-2.4zm9.65.78h-1.53V95h-1.39v-6.35h1.39v2.77H226zm-2.93 5.53v-1.52h-4.12v1.46zm-5.45-8V89h3.11v1.1zm14.44 5.3v-1.2h1.54V92h-1.54v-1.19h1.58v-2.16H235v10.69h-1.4v-4zm-5.8-2.18a4.71 4.71 0 01.73-2.78 2.47 2.47 0 014 0A5.6 5.6 0 01231 96a2.47 2.47 0 01-4 0 4.72 4.72 0 01-.73-2.76zm4.16 0a4.23 4.23 0 00-.39-2 1.16 1.16 0 00-1-.72 1.14 1.14 0 00-1 .72 4.35 4.35 0 00-.38 2 4.23 4.23 0 00.38 2 1.08 1.08 0 002 0 4.11 4.11 0 00.39-2zm12-1.55h-6.2v-1.16h6.2zm-.52 2.27a1.69 1.69 0 01-.71 1.4 3.32 3.32 0 01-3.63 0 1.66 1.66 0 01-.72-1.4 1.68 1.68 0 01.72-1.41 2.83 2.83 0 011.82-.56 2.9 2.9 0 011.8.56 1.75 1.75 0 01.72 1.41zm-4.1-3.87V89H241v1.07zm6.86-1.41v3.38h1.49v1.17h-1.49v3.32h-1.4v-7.94zm.25 10.44h-7.3v-2.89H239V98h5.88zM238.27 94a.68.68 0 00.33.58 1.34 1.34 0 00.82.24 1.38 1.38 0 00.81-.24.67.67 0 00.34-.58.72.72 0 00-.34-.61 1.38 1.38 0 00-.81-.24 1.41 1.41 0 00-.82.24.73.73 0 00-.33.61zm19.85 5.41h-1.4V88.65h1.4zm-3.29-9.58a8.47 8.47 0 01-4.83 7.58l-.86-1.06a7.29 7.29 0 002.86-2.3 6.06 6.06 0 001.27-3.12h-3.48v-1.17zM268 93.46h-3.16v.82H269v1.13h-9.67v-1.13h4.1v-.82h-2.83v-2.75h5.69v-.66h-5.72V89h7.13v2.7H262v.7h6zM260.43 96h7.27v3.33h-1.39v-2.19h-5.88zm17.77 3.32h-1.39V88.65h1.39zM270.4 96a5.6 5.6 0 010-5.53 2.36 2.36 0 012-1.06 2.32 2.32 0 012 1.06 5.52 5.52 0 010 5.52 2.49 2.49 0 01-4.06 0zm3.45-2.76a4 4 0 00-.4-2 1.08 1.08 0 00-2 0 4.23 4.23 0 00-.39 2 4.11 4.11 0 00.39 2 1.14 1.14 0 001 .72 1.16 1.16 0 001-.72 4 4 0 00.4-2zm14.2-.12a1.07 1.07 0 01-.49.91 2.77 2.77 0 01-1.33.47v.37a24.53 24.53 0 002.57-.23q0 .21.06.6c0 .27.05.42.05.46-.86.1-2 .19-3.27.26s-2.39.11-3.23.11l-.19-1.13h2.6v-.41a2.77 2.77 0 01-1.33-.47 1.1 1.1 0 01-.49-.92 1.2 1.2 0 01.7-1.07 3.7 3.7 0 011.82-.4 3.66 3.66 0 011.83.4 1.2 1.2 0 01.7 1.07zm2.73-4.44V92h1.32v1.16h-1.32V96h-1.4v-7.35zm-7.36 7.87h7.36v2.83h-1.4v-1.76h-5.95zm5.15-5.18h-6v-1h6zm-4.39-1.42v-1h2.9v1zm2.5 3.17c0-.15-.1-.27-.3-.37a2 2 0 00-.86-.14 1.91 1.91 0 00-.85.14c-.2.1-.3.22-.3.37s.1.27.3.36a2 2 0 00.85.13c.77-.03 1.16-.19 1.16-.52zm14.53 3.31h-1.39v-7.78h1.39zm.24 2.66H294v-3.46h1.41V98h6zm-8.73-7a2.49 2.49 0 01.8-1.9 3.34 3.34 0 014.19 0 2.46 2.46 0 01.79 1.9 2.43 2.43 0 01-.79 1.9 3.35 3.35 0 01-4.2 0 2.43 2.43 0 01-.79-1.9zm1.44 0a1.46 1.46 0 00.4 1.07 1.56 1.56 0 002.12 0 1.44 1.44 0 00.39-1.06 1.39 1.39 0 00-1.47-1.44 1.37 1.37 0 00-1.44 1.44zm15.38 3c-1 .13-2.17.22-3.43.28s-2.58.11-3.54.11l-.19-1.14h2.9v-1.2h-1.86V89.4h5v1.12h-3.61V92h3.7v1.12h-1.81v1.15c1.12-.06 2-.13 2.71-.23zm1.84-6.43v7.84H310v-7.85zm.08 10.34h-7.22v-3h1.41v1.88h5.81zm12.85-1.86a1.76 1.76 0 01-1 1.58 5.16 5.16 0 01-2.7.59 5.06 5.06 0 01-2.67-.59 1.79 1.79 0 01-1-1.58 1.76 1.76 0 011-1.59 5.15 5.15 0 012.67-.59 5.26 5.26 0 012.7.58 1.78 1.78 0 011 1.6zm-.07-2.32h-1.4v-1.13h-2v-1.07h2v-1.06H321v-1.1h1.81v-1.81h1.4zm-2 3.09a.87.87 0 00.58-.77.89.89 0 00-.58-.78 3.84 3.84 0 00-1.64-.28 3.69 3.69 0 00-1.6.28.85.85 0 00-.57.78.84.84 0 00.57.76 3.64 3.64 0 001.6.28 4 4 0 001.68-.24zm-1.41-8.6c-.12 2.78-1.7 4.64-4.74 5.6l-.75-1.13a6.44 6.44 0 002.66-1.16 3.65 3.65 0 001.36-2.11h-3.46v-1.17zm13.22 2.14a1.94 1.94 0 01-1 1.71 6.21 6.21 0 01-5.53 0 2 2 0 01-1-1.71 1.92 1.92 0 011-1.71 5.07 5.07 0 012.75-.66 5.16 5.16 0 012.77.66 1.93 1.93 0 011 1.71zm-3.05 7.9h-1.4V95.8h-4.1v-1.13h9.66v1.13H331zm1-7a.94.94 0 000-1.78 4.19 4.19 0 00-3.4 0 .94.94 0 000 1.78 3.57 3.57 0 001.7.36 3.49 3.49 0 001.71-.36zM3.54 115.15V114h3.3v1.15zm8.51-1.94a21.27 21.27 0 004.22-.33l.16 1.08a22.71 22.71 0 01-4.73.38h-1v-4.89h4.76v1.12h-3.41zm8.12-.82h-1.51v2.51h-1.41v-6.25h1.41v2.6h1.51zm-1.38 4.79a1.75 1.75 0 01-1 1.56 5.26 5.26 0 01-2.7.58 5.2 5.2 0 01-2.68-.58 1.76 1.76 0 01-.78-2.37 1.81 1.81 0 01.78-.77 5.2 5.2 0 012.68-.58 5.31 5.31 0 012.71.58 1.75 1.75 0 01.99 1.58zm-2 .75a.83.83 0 00.58-.75.85.85 0 00-.58-.76 4 4 0 00-1.64-.27 3.9 3.9 0 00-1.62.27.85.85 0 00-.59.76.82.82 0 00.59.75 3.9 3.9 0 001.62.27 4 4 0 001.61-.27zm12.47 1.28h-7.12v-3.73h7.09zm-8.5-7.5v-1.12h5.63v1.12h-2a2.85 2.85 0 002.32 2.23c-.16.24-.4.6-.7 1.08a4.73 4.73 0 01-1.36-.74 3.32 3.32 0 01-1-1.16 3.23 3.23 0 01-1 1.32 4.23 4.23 0 01-1.51.87c-.09-.14-.23-.33-.41-.58l-.36-.5a3.25 3.25 0 002.5-2.52zm8.5 3.25h-1.4v-1.82h-1.65V112h1.62v-3.36h1.4zm-1.4 3.14v-1.54h-4.31v1.54zM22 110v-1h3.11v1zm19.68-1.39v3h1.52v1.16h-1.51v3.59h-1.42v-7.75zM42 119h-7.2v-3.42h1.4v2.3h5.79zm-7.67-5a2.68 2.68 0 010-3.77 3.22 3.22 0 014.08 0 2.67 2.67 0 010 3.77 3.21 3.21 0 01-4.13 0zm.66-1.88a1.46 1.46 0 00.37 1 1.47 1.47 0 002 0 1.43 1.43 0 00.38-1 1.41 1.41 0 00-.38-1 1.49 1.49 0 00-2 0 1.46 1.46 0 00-.39 1zm17.55 7.21h-1.38V114h-1v4.86h-1.34v-10h1.31v4h1v-4.21h1.33zm-4.11-3.15a9.35 9.35 0 01-1.5.22c-.72.06-1.4.1-2.05.1h-1v-6.62h1.38v5.45a11.28 11.28 0 003-.28c0 .16 0 .37.1.65s.02.44.02.49zm14.76-1.63h-9.71v-1h9.66zm-1 4.66h-7.48v-2.48h5.81v-.57h-5.86v-1h7.25v2.5h-5.8v.56h6zm-.11-6.21h-7.32v-2.43h5.68V110h-5.7v-1h7.11v2.44h-5.69v.56h5.92zm12.89.5h-3v.68h4.15v1.13h-9.7v-1.12h4.1v-.69h-2.83V109h7.18v1.1H69.1v.6h5.41v1.05H69.1v.59H75zm-.91 2.72a1.48 1.48 0 010 2.75 6 6 0 01-2.8.51 6 6 0 01-2.8-.51 1.49 1.49 0 010-2.75 7.94 7.94 0 015.6 0zm-.52 1.38c0-.25-.21-.45-.61-.59a5.65 5.65 0 00-1.68-.21 5.82 5.82 0 00-1.66.21c-.41.14-.61.34-.61.59s.2.43.61.56a5.48 5.48 0 001.66.2 5.64 5.64 0 001.68-.2c.4-.14.61-.33.61-.57zm12.06 1.77h-1.33v-5.25h-.89v4.75h-1.31v-10h1.31V113h.89v-4.32h1.33zm-4.85-6a2.33 2.33 0 010 3.23 2.61 2.61 0 01-3.38 0 2.29 2.29 0 010-3.2 2.65 2.65 0 013.38 0zm-4.26-1v-1.17h5.1v1.12zm3.65 2.62a1.08 1.08 0 00-.31-.8 1.11 1.11 0 00-1.54 0 1.23 1.23 0 000 1.61 1.09 1.09 0 001.85-.81zm-2.49-4.35v-1.11h2.88v1.11zM91.91 118a5.78 5.78 0 01-1.37-.17 3.47 3.47 0 01-1-.41l.24-1.06a3.33 3.33 0 00.88.33 4.56 4.56 0 001 .13 2.14 2.14 0 001.3-.34 1.22 1.22 0 00.45-1c0-.81-.56-1.23-1.7-1.24h-.85v-1.07h.76a2 2 0 001.15-.34 1 1 0 00.43-.88c0-.75-.49-1.13-1.46-1.13a4.15 4.15 0 00-1.76.43l-.17-1.09a4.23 4.23 0 011-.37 6.58 6.58 0 011.26-.15 3 3 0 011.86.54 1.79 1.79 0 01.7 1.5 1.92 1.92 0 01-1.48 1.92 1.9 1.9 0 011.75 2 2.19 2.19 0 01-.81 1.8 3.43 3.43 0 01-2.18.6zm12.83 1.24h-7.36v-2.87H103v-.74h-5.68v-1.1h7.08v2.84h-5.62v.73h6zm-.34-5.24H103v-5.35h1.39zm-8.52-2.51a2.27 2.27 0 01.8-1.77 3.29 3.29 0 014.06 0 2.26 2.26 0 01.8 1.79 2.14 2.14 0 01-.79 1.73 3 3 0 01-2 .66 3.13 3.13 0 01-2-.65 2.11 2.11 0 01-.87-1.76zm1.83-.94a1.2 1.2 0 00-.44.93 1.15 1.15 0 00.42.89 1.69 1.69 0 002.07 0 1.18 1.18 0 00.4-.88 1.24 1.24 0 00-.39-.94 1.57 1.57 0 00-2.06 0zm19.88 8.79h-1.33V114h-1v4.86h-1.31v-10h1.31v4h1v-4.21h1.33zm-4.11-3.15a9.35 9.35 0 01-1.5.22c-.72.06-1.4.1-2 .1h-1v-6.62h1.38v5.45a11.28 11.28 0 003-.28c0 .16 0 .37.1.65s.02.43.02.48zm13.86-2.35v-1.19h1.5v-1.46h-1.5V110h1.52v-1.35h1.4v7.75h-1.4v-2.56zm3.17 5.21h-7.39v-3.37h1.43V118h6zm-8.25-5a2.78 2.78 0 010-3.84 3.17 3.17 0 014.08 0 2.78 2.78 0 010 3.84 3.17 3.17 0 01-4.08-.05zm.65-1.93a1.59 1.59 0 00.38 1.08 1.34 1.34 0 001 .42 1.31 1.31 0 001-.42 1.58 1.58 0 00.37-1.08 1.49 1.49 0 00-.37-1 1.31 1.31 0 00-1-.42 1.34 1.34 0 00-1 .42 1.51 1.51 0 00-.37 1zm17.78 7.18h-7.36v-2.87H139v-.74h-5.69v-1.12h7.08v2.88h-5.6v.73h5.94zm-.34-5.26H139v-.91h-2V112h2v-.9h-1.81v-1H139v-1.43h1.39zM137 109.1a4.78 4.78 0 01-.41 2 4.66 4.66 0 01-1.11 1.53 6.74 6.74 0 01-1.52 1 7 7 0 01-1.77.6l-.68-1.14a5.72 5.72 0 002.57-1 3.23 3.23 0 001.36-1.88H132v-1.11zm13.42 10.23H149v-10.68h1.39zm-7.78-3.33a5.54 5.54 0 010-5.53 2.47 2.47 0 013.44-.61 2.21 2.21 0 01.61.61 5.52 5.52 0 010 5.52 2.49 2.49 0 01-3.47.6 2.7 2.7 0 01-.58-.59zm3.45-2.76a4.17 4.17 0 00-.4-2 1.08 1.08 0 00-2 0 5.15 5.15 0 000 3.93 1.08 1.08 0 002 0 4.12 4.12 0 00.4-2zm15.33 2.64l.15 1.07c-1 .13-2.16.23-3.34.29-1.79 0-3 .08-3.53.08l-.19-1.14h2.8v-1.94h-1.93v-4.55h5.34v1.11h-3.94v2.33h4v1.1h-2v1.91c1.06 0 2-.12 2.72-.21zm2-7.2v10.7H162v-10.73zm7.87 7.06l-.78 1.09a5.61 5.61 0 01-1.54-1.25 4.69 4.69 0 01-1-1.62 4.4 4.4 0 01-.93 1.76 4.84 4.84 0 01-1.65 1.36l-.84-1a5.07 5.07 0 002.68-4.86v-.29h-2.13v-1.11h5.68v1.12h-2.07v.27a4.74 4.74 0 002.63 4.57zm2.16 3.63h-1.4v-10.72h1.4zm8.45-.49a13.17 13.17 0 01-3.31.36v-4.08h1.34v3a8.9 8.9 0 001.78-.27zm3.48-3.62h-2.47v-1h2.47zm1.44 1.32h-5.31v-1h5.31zm.61-4.54h-1.52v1.86h-1.43v-5.22h1.43v2.21h1.52zm-9.79-.32a2.44 2.44 0 01.79-1.83 3 3 0 013.95 0 2.39 2.39 0 01.79 1.84 2.22 2.22 0 01-.79 1.76 3.19 3.19 0 01-4 0 2.24 2.24 0 01-.77-1.77zm1.39 0a1.24 1.24 0 00.38.93 1.33 1.33 0 001 .37 1.39 1.39 0 001-.37 1.24 1.24 0 00.37-.93 1.37 1.37 0 00-.38-1 1.41 1.41 0 00-2 0 1.41 1.41 0 00-.37 1zm7.05 6.44a1.12 1.12 0 01-.57 1 2.45 2.45 0 01-1.4.36 2.49 2.49 0 01-1.4-.36 1.17 1.17 0 01-.37-1.62 1.22 1.22 0 01.37-.38 2.66 2.66 0 011.4-.36 2.61 2.61 0 011.4.36 1.13 1.13 0 01.57 1zm-1.25 0a.35.35 0 00-.2-.33 1.16 1.16 0 00-.52-.11c-.47 0-.7.15-.7.44s.23.43.7.43.73-.14.73-.43zm11.64 1.23h-1.4V114h-2v-1.2h2v-4.15h1.4zm-3.41-9.57a8.52 8.52 0 01-4.77 7.69l-.87-1.06a7.19 7.19 0 002.85-2.31 6.19 6.19 0 001.27-3.16h-3.46v-1.16zm13-1.12v4.07h1.53v1.16h-1.53v5.46h-1.4v-10.74zm-2.13 7.58a13.91 13.91 0 01-2.31.38c-1 .08-1.79.13-2.52.13h-1v-7h1.4v5.82a19.15 19.15 0 004.27-.42zm16.6-4.12H219v2.22h-1.42v-5.67H219V111h1.52zm-8.13.84a23 23 0 004.22-.32l.16 1.07a21.47 21.47 0 01-4.73.37h-1v-4.77h4.77v1.12h-3.37zm6.6 6.2h-6.92v-4.31h1.39V116h4.13v-1.1h1.4zm-1.4-1.12v-1h-4.13v1zm12-1.69h-1.4v-7.74h1.4zm.23 2.65h-7.43v-3.34h1.42v2.3h6zm-2.57-5.35l-.79 1.12a4.23 4.23 0 01-1.35-.91 4.72 4.72 0 01-1.05-1.38 3.74 3.74 0 01-1 1.53 4 4 0 01-1.5 1l-.85-1.12a3.82 3.82 0 001.88-1.39 3.67 3.67 0 00.7-2.17v-1.12h1.46v1.06a3.37 3.37 0 00.74 2.11 3.65 3.65 0 001.73 1.27zm13.24.58h-9.66v-1.11h9.66zm-.89 5H232v-2.72h5.85V116H232v-1.1h7.23v2.69h-5.83v.59h6.21zm-6.25-8.57c0 .25.21.46.62.62a5.94 5.94 0 003.41 0c.42-.16.63-.37.63-.62s-.2-.45-.62-.61a6.25 6.25 0 00-3.43 0c-.44.17-.64.38-.64.63zm-1.45 0a1.56 1.56 0 011-1.4 7.86 7.86 0 015.57 0 1.48 1.48 0 010 2.8 7.65 7.65 0 01-5.57 0 1.56 1.56 0 01-1-1.4zm18 1.59h-6.2v-1.12h6.2zm-4.7-1.86v-1.1h3.3v1.1zm6.91-1.8V113h1.49v1.16h-1.49v5.2h-1.42v-10.71zm-7.89 6.37a2.13 2.13 0 01.72-1.65 3 3 0 013.73 0 2.27 2.27 0 01.1 3.2l-.11.1a3 3 0 01-3.73 0 2.14 2.14 0 01-.71-1.67zm1.37 0a1.09 1.09 0 00.34.84 1.36 1.36 0 001.76 0 1.12 1.12 0 00.3-.84 1.09 1.09 0 00-.34-.85 1.33 1.33 0 00-1.74 0 1.13 1.13 0 00-.35.85zm14.91.72l-.78 1.1a5.79 5.79 0 01-1.54-1.25 4.79 4.79 0 01-1-1.62 4.4 4.4 0 01-.93 1.76 4.84 4.84 0 01-1.65 1.36l-.84-1a5 5 0 002.68-4.86v-.28h-2.14v-1.12H260v1.12h-2.07v.27a4.74 4.74 0 002.63 4.57zm2.16 3.64h-1.4v-10.71h1.4zm8.45-.49a14.17 14.17 0 01-3.31.36v-4.09h1.34v3a8.9 8.9 0 001.78-.27zm3.48-3.63h-2.47v-.94h2.47zm1.44 1.32h-5.32v-1H276zm.61-4.53h-1.52v1.86h-1.43v-5.22h1.43v2.21h1.52zm-9.79-.33a2.43 2.43 0 01.79-1.82 2.73 2.73 0 012-.74 2.79 2.79 0 012 .73 2.38 2.38 0 01.79 1.83 2.23 2.23 0 01-.79 1.77 3.19 3.19 0 01-4 0 2.27 2.27 0 01-.78-1.78zm1.39 0a1.24 1.24 0 00.38.93 1.33 1.33 0 001 .37 1.43 1.43 0 001-.37 1.24 1.24 0 00.37-.93 1.37 1.37 0 00-.38-1 1.41 1.41 0 00-2 0 1.37 1.37 0 00-.38 1zm7.05 6.43a1.13 1.13 0 01-.57 1 2.53 2.53 0 01-1.4.36 2.49 2.49 0 01-1.4-.36 1.17 1.17 0 01-.37-1.62 1.22 1.22 0 01.37-.38 2.57 2.57 0 011.4-.36 2.61 2.61 0 011.4.36 1.12 1.12 0 01.56 1zm-1.25 0a.35.35 0 00-.2-.32 1.16 1.16 0 00-.52-.11c-.47 0-.7.15-.7.43s.23.44.7.44.72-.15.72-.44zm12.46-3.82h-9.66v-1.12h9.66zm-.89 5H278v-2.72h5.84V116H278v-1.1h7.22v2.69h-5.82v.59h6.22zm-6.25-8.57c0 .25.2.46.62.62a4.68 4.68 0 001.7.25 4.73 4.73 0 001.71-.25c.42-.16.63-.37.63-.62s-.21-.45-.62-.61a5 5 0 00-1.72-.24 5 5 0 00-1.71.24c-.41.15-.62.36-.62.61zm-1.46 0a1.58 1.58 0 011-1.4 7.89 7.89 0 015.58 0 1.48 1.48 0 010 2.8 7.65 7.65 0 01-5.57 0 1.55 1.55 0 01-1-1.4zm20.79 6.45a1.78 1.78 0 01-1 1.58 5.19 5.19 0 01-2.7.59 5.09 5.09 0 01-2.68-.59 1.79 1.79 0 01-.75-2.42 1.75 1.75 0 01.75-.75 5.18 5.18 0 012.68-.6 5.3 5.3 0 012.7.58 1.76 1.76 0 011 1.59zm-.07-2.32h-1.4v-1.16h-2v-1.07h2v-1.06h-1.81v-1.1h1.81v-1.81h1.4zm-2 3.09a.81.81 0 000-1.55 3.92 3.92 0 00-1.63-.28 3.78 3.78 0 00-1.6.28.87.87 0 00-.58.78.85.85 0 00.57.77 3.8 3.8 0 001.6.27 3.9 3.9 0 001.65-.27zm-1.42-8.6c-.11 2.78-1.69 4.64-4.74 5.6l-.74-1.13a6.5 6.5 0 002.57-1.19 3.59 3.59 0 001.35-2.11h-3.41v-1.17zm13.23 2.14a2 2 0 01-1 1.71 6.18 6.18 0 01-5.53 0 1.93 1.93 0 01-.81-2.61 1.89 1.89 0 01.82-.81 6.1 6.1 0 015.52 0 1.93 1.93 0 011 1.71zm-3.11 7.87H304v-3.57h-4.1v-1.13h9.66v1.13h-4.15zm1-7a.94.94 0 00.59-1.19.91.91 0 00-.59-.59 4.19 4.19 0 00-3.4 0 .94.94 0 000 1.78 4.19 4.19 0 003.44 0zM3.54 135.15V134h3.3v1.15zm8.57.66a20.54 20.54 0 004.22-.32c0 .13.05.31.08.55s.06.42.08.55a22.94 22.94 0 01-4.75.35h-1v-7.36h4.91v1.1h-3.54v1.95h3.32v1.12h-3.32zm6.55-7.16v4h1.49v1.15h-1.49v5.51h-1.4v-10.66zm10.56 7.75h-1.39v-7.75h1.39zm.24 2.65h-7.41v-3.42h1.41V138h6zm-8.73-7a2.45 2.45 0 01.8-1.9 2.91 2.91 0 012.09-.74 3 3 0 012.1.74 2.66 2.66 0 010 3.77 2.94 2.94 0 01-2.1.73 2.94 2.94 0 01-2.1-.73 2.41 2.41 0 01-.79-1.84zm1.44 0a1.44 1.44 0 00.4 1.06 1.58 1.58 0 002.13 0 1.53 1.53 0 00.39-1.06 1.38 1.38 0 00-1.32-1.44h-.15a1.39 1.39 0 00-1.45 1.44zm10.16-.19a1.36 1.36 0 00.41 1 1.56 1.56 0 001.13.4 1.54 1.54 0 001.12-.4 1.3 1.3 0 00.42-1 1.27 1.27 0 00-.42-1 1.8 1.8 0 00-2.24 0 1.27 1.27 0 00-.42 1.03zm7.16-3.24v10.69H38.1v-10.66zm-8.6 3.25a2.34 2.34 0 01.82-1.85 3.15 3.15 0 012.16-.71 3.11 3.11 0 012.15.71 2.51 2.51 0 01.14 3.56l-.14.14a3.57 3.57 0 01-4.3 0 2.32 2.32 0 01-.83-1.85zm6.77 4.7c-1 .14-2.26.24-3.61.32-1.6.06-2.72.09-3.36.08l-.2-1.2q2 0 3.48-.06c1.39-.05 2.58-.14 3.58-.26zm12.71 2.25h-1.31v-3.6H47.7v-1.14h1.36v-1.52H48v-1.14h1.09v-2.6h1.31zm2.14.49h-1.34v-10.66h1.33zm-4.65-9.43a8.19 8.19 0 01-3.8 7.34l-.91-1a7.18 7.18 0 002.38-2.22 6.58 6.58 0 001-3h-2.7v-1.13zm14.55 7.3a1.75 1.75 0 01-1 1.55 5.61 5.61 0 01-2.76.56 5.55 5.55 0 01-2.75-.56 1.73 1.73 0 010-3.13 5.56 5.56 0 012.75-.57 5.62 5.62 0 012.76.57 1.74 1.74 0 011 1.57zm-8.55-6.65v-1.13h5.62v1.16h-2a2.89 2.89 0 00.74 1.8 3.64 3.64 0 001.61 1.06l-.41.61-.35.5a4.67 4.67 0 01-1.32-.83 3.7 3.7 0 01-1-1.26 3.47 3.47 0 01-1 1.44 4.18 4.18 0 01-1.52 1l-.37-.5c-.2-.26-.35-.46-.47-.59a4.18 4.18 0 001.83-1.24 3.25 3.25 0 00.74-1.95zm5.46 1.78v-1.11h1.61v-2.55h1.4V135h-1.4v-2.68zm-.66 3.85a4.1 4.1 0 00-1.7.27q-.6.27-.6.75c0 .32.2.56.6.73a5.67 5.67 0 003.41 0c.4-.18.61-.42.61-.73a.85.85 0 00-.61-.76 4.54 4.54 0 00-1.71-.27zm14.57 1.75h-9.66v-1.1h9.66zm-2-7.77a2.4 2.4 0 01.67 3.34 2.25 2.25 0 01-.67.67 5.67 5.67 0 01-5.69 0 2.4 2.4 0 010-4 5.67 5.67 0 015.71.02zm-1 3.21a1.38 1.38 0 00.48-1.9 1.41 1.41 0 00-.48-.49 3.82 3.82 0 00-3.6 0 1.39 1.39 0 00-.48 1.91 1.3 1.3 0 00.48.48 3.82 3.82 0 003.58.03zm12.18 1.84h-3.26v1.67h4.16V138h-9.66v-1.12h4.1v-1.67h-2.87v-3.54h5.81v-1.23h-5.87v-1.12h7.26v3.47h-5.81v1.3h6.12zm13.29 4.12h-1.37V134h-1v4.87h-1.27v-10h1.32v4h1v-4.21h1.35zm-7.38-3.68a12.41 12.41 0 003.1-.24l.13 1.1a15.58 15.58 0 01-3.61.28h-1v-6.88h4V131h-2.63zm17.21.74h-1.4v-7.75h1.4zm.23 2.65h-7.45v-3.32h1.41v2.3h6zm-2.57-5.35l-.79 1.12a4.29 4.29 0 01-1.35-.91 4.48 4.48 0 01-1-1.39 3.88 3.88 0 01-1 1.54 4 4 0 01-1.5 1l-.9-1.03a3.8 3.8 0 001.88-1.39 3.61 3.61 0 00.7-2.17v-1.13h1.47v1.06a3.3 3.3 0 00.73 2.11 3.63 3.63 0 001.74 1.27zm15.26 5.64H117v-10.66h1.39zm-7.81-3.31a4.66 4.66 0 01-.74-2.76 4.74 4.74 0 01.74-2.77 2.47 2.47 0 013.45-.61 2.52 2.52 0 01.61.61 5.58 5.58 0 010 5.52 2.5 2.5 0 01-4.06 0zm3.45-2.76a4.24 4.24 0 00-.4-2 1.17 1.17 0 00-1-.72 1.13 1.13 0 00-1 .72 4.23 4.23 0 00-.39 2 4.11 4.11 0 00.39 1.95 1.12 1.12 0 001 .72 1.18 1.18 0 001-.72 4 4 0 00.39-1.95zm10.3 1.47h-4.33v-5.22h1.41V131H123v-1.6h1.4v2h1v-2.58h1.33v7.44h-1.33v-3.72h-1zm4.64 4.4h-7.55v-3.44h1.39V138H129zm-.26-2.51h-1.33v-7.92h1.33zm-5.79-3v-1.46h-1.51v1.46zm15-.68h-5.58v1.16h5.93v1.1H131v-5.67h7.21v1.1h-5.82v1.2H138zm1.46 4V138h-9.66v-1.11zm7.38 1.95h-1.32v-5h-.91a5 5 0 01-.68 2.34 1.82 1.82 0 01-1.64.91 1.74 1.74 0 01-1.32-.56 3.15 3.15 0 01-.76-1.4 7.49 7.49 0 01-.22-1.88 7.23 7.23 0 01.22-1.86 3.25 3.25 0 01.76-1.4 1.78 1.78 0 011.32-.56 1.83 1.83 0 011.65.92 5.07 5.07 0 01.67 2.34h.91v-3.87h1.32zm2.14.49h-1.32v-10.71h1.32zm-5.9-4.18a7.23 7.23 0 000-3.75c-.17-.49-.43-.73-.77-.73s-.58.24-.74.73a7 7 0 000 3.74c.16.48.41.73.74.73s.59-.25.76-.73zm18.1 4.05h-6.96v-3.64h6.93zm-8.16-7.44v-1.1h5.64v1.1h-2a2.84 2.84 0 002.29 2.11l-.7 1.1a4.85 4.85 0 01-1.37-.76 3.17 3.17 0 01-1-1.16 3.74 3.74 0 01-1 1.33 4 4 0 01-1.51.86l-.78-1.08a3.23 3.23 0 002.5-2.4zm9.65.78h-1.52V135h-1.4v-6.38h1.4v2.77h1.52zm-2.93 5.53v-1.46h-4.11v1.46zm-5.45-8V129h3.11v1.1zm14.44 5.3v-1.2h1.53V132h-1.53v-1.19h1.58v-2.11h1.4v10.69h-1.4v-4zm-5.8-2.18a4.78 4.78 0 01.73-2.78 2.47 2.47 0 013.45-.6 2.63 2.63 0 01.6.6 5.6 5.6 0 010 5.53 2.47 2.47 0 01-3.45.6 2.4 2.4 0 01-.6-.59 4.8 4.8 0 01-.73-2.76zm4.16 0a4.11 4.11 0 00-.39-2 1.16 1.16 0 00-1-.72 1.13 1.13 0 00-1 .72 4.23 4.23 0 00-.39 2 4.11 4.11 0 00.39 1.95 1.12 1.12 0 001 .72 1.14 1.14 0 001-.72 4.12 4.12 0 00.4-1.95zm12-1.55h-6.2v-1.09h6.2zm-.52 2.27a1.69 1.69 0 01-.71 1.4 2.85 2.85 0 01-1.81.54 2.89 2.89 0 01-1.82-.54 1.66 1.66 0 01-.72-1.4 1.71 1.71 0 01.72-1.41 3.21 3.21 0 013.62 0 1.73 1.73 0 01.73 1.41zm-4.1-3.87V129h3.18v1.07zm6.87-1.41v3.45h1.48v1.17h-1.49v3.32h-1.4v-7.94zm.25 10.44h-7.31v-2.82h1.42V138h5.89zm-6.68-5.16a.68.68 0 00.33.58 1.54 1.54 0 001.63 0 .67.67 0 00.34-.58.72.72 0 00-.34-.61 1.5 1.5 0 00-1.63 0 .71.71 0 00-.33.61zm19.92 3.24a1.79 1.79 0 01-1 1.58 5.16 5.16 0 01-2.7.59 5.08 5.08 0 01-2.67-.59 1.79 1.79 0 01-.76-2.42 1.83 1.83 0 01.76-.75 5.17 5.17 0 012.67-.58 5.26 5.26 0 012.7.58 1.77 1.77 0 011 1.59zm-.08-2.32h-1.4v-1.16h-1.95v-1.07h1.95v-1.06h-1.83v-1.1h1.81v-1.81h1.4zm-2 3.09a.81.81 0 000-1.55 3.84 3.84 0 00-1.64-.28 3.69 3.69 0 00-1.6.28.85.85 0 00-.57.78.84.84 0 00.57.76 3.64 3.64 0 001.6.28 3.9 3.9 0 001.65-.27zm-1.42-8.6c-.11 2.78-1.69 4.64-4.74 5.6l-.74-1.13a6.5 6.5 0 002.57-1.19 3.59 3.59 0 001.35-2.11h-3.41v-1.17zm13.23 2.14a2 2 0 01-1 1.72 6.25 6.25 0 01-5.53 0 1.93 1.93 0 010-3.43 6.16 6.16 0 015.52 0 2 2 0 011 1.71zm-3.11 7.87h-1.4v-3.56H196v-1.13h9.66v1.13h-4.15zm1-7a.94.94 0 00.59-1.19.91.91 0 00-.59-.59 4.19 4.19 0 00-3.4 0 .94.94 0 000 1.78 4.19 4.19 0 003.43.01z"/><path id="패스_11434" data-name="패스 11434" class="cls-2" d="M393.54 95.15V94h3.3v1.15zm15.69 2a1.79 1.79 0 01-1 1.58 5.16 5.16 0 01-2.7.59 5.08 5.08 0 01-2.67-.59 1.79 1.79 0 010-3.17 5.18 5.18 0 012.67-.59 5.26 5.26 0 012.7.58 1.81 1.81 0 011 1.62zm-.08-2.32h-1.4v-1.14h-2v-1.07h2v-1.06h-1.81v-1.1h1.81v-1.81h1.4zm-1.95 3.09a.81.81 0 000-1.55 3.84 3.84 0 00-1.64-.28 3.69 3.69 0 00-1.6.28.85.85 0 00-.57.78.84.84 0 00.57.76 3.64 3.64 0 001.6.28 3.9 3.9 0 001.64-.25zm-1.42-8.6c-.11 2.78-1.69 4.64-4.74 5.6l-.74-1.13a6.5 6.5 0 002.57-1.19 3.59 3.59 0 001.35-2.11h-3.41v-1.15zm13 9.85h-7.2v-3.5h2.87v-.78h-4.09v-1.13h9.66v1.13h-4.12v.78h2.91zm.23-6.12h-7.7V92h1.48c0-.1-.06-.31-.13-.63s-.11-.58-.14-.76l1.35-.18c0 .15.05.4.11.76s.09.62.12.81h2.14l.27-1.56 1.37.17-.29 1.39H419zm0-3h-7.77V89h7.77zm-1.65 8v-1.3H413v1.35zm11.4 1.25h-1.41v-3.8h-4.09v-1.1H433v1.1h-4.15zm3.76-6.93l-.52 1.19a6.07 6.07 0 01-2.32-.88 3.68 3.68 0 01-1.49-1.56 3.45 3.45 0 01-1.45 1.55 6.18 6.18 0 01-2.35.9l-.6-1.15a5.06 5.06 0 002.56-1 2.47 2.47 0 001.09-2v-.55h1.49v.55a2.17 2.17 0 00.57 1.44 4.22 4.22 0 001.4 1.08 5.39 5.39 0 001.69.48zm9.68 4.87a1.66 1.66 0 01-1 1.51 5.49 5.49 0 01-2.7.55 5.43 5.43 0 01-2.69-.55 1.65 1.65 0 010-3 5.33 5.33 0 012.69-.56 5.39 5.39 0 012.7.56 1.66 1.66 0 011.07 1.54zm-3.2-2.82a18.4 18.4 0 01-3.85.29h-1.38v-3.39h3.3v-1h-3.3v-1.1h4.72v3.14h-3.3v1.2h.4a14.47 14.47 0 003.22-.23c.06.23.12.58.19 1.09zm.23-3.2v-1.16h1.6v-1.41h1.39v6.48h-1.39v-1.68h-1.6v-1.16h1.6v-1.08zm-.65 5.11a3.89 3.89 0 00-1.62.26c-.4.18-.6.41-.6.7s.2.52.6.69a4.08 4.08 0 001.62.26 4.23 4.23 0 001.65-.26c.39-.17.58-.4.58-.69s-.19-.52-.58-.7a4.05 4.05 0 00-1.63-.26zm9.6-4.44a1.31 1.31 0 00.42 1 1.54 1.54 0 001.12.4 1.57 1.57 0 001.13-.4 1.34 1.34 0 00.41-1 1.27 1.27 0 00-.42-1 1.59 1.59 0 00-1.13-.39 1.58 1.58 0 00-1.11.39 1.27 1.27 0 00-.42 1zm7.17-3.24v10.69H454V88.65zm-8.6 3.25a2.3 2.3 0 01.81-1.85 3.6 3.6 0 014.32 0 2.52 2.52 0 010 3.7 3.59 3.59 0 01-4.31 0 2.35 2.35 0 01-.83-1.85zm6.76 4.7c-1 .13-2.26.24-3.61.31q-2.4.11-3.36.09l-.2-1.2q2 0 3.48-.06c1.39 0 2.59-.14 3.58-.27zm11.24-7.95v4.11h1.54v1.16h-1.54v5.42h-1.39V88.65zm-1.92 7.09l-.41.53-.41.51a6.64 6.64 0 01-1.48-1.32 4.56 4.56 0 01-1-1.66 5.35 5.35 0 01-1 1.8A5.9 5.9 0 01457 97q-.58-.72-.87-1a5.52 5.52 0 002.66-5v-1.45h1.45v1.39a5.51 5.51 0 002.59 4.8zm13.31-1.18h-9.64v-1h9.66zm-1 4.66h-7.45v-2.48h5.8v-.57h-5.85v-1h7.25v2.5h-5.8v.55h6.05zM475.1 93h-7.32v-2.46h5.67V90h-5.7v-1h7.12v2.44h-5.69V92h5.92zm11.78-1.66h-1.47v-1.1h1.47v-1.59h1.39v6.23h-1.39v-1.36h-1.48v-1.1h1.48zm-2.07 2.93h-4.94v-4.85h4.94zm-1.38-1.08v-2.7h-2.18v2.67zm4.92 4a1.76 1.76 0 01-1 1.58 5.29 5.29 0 01-2.71.58 5.15 5.15 0 01-2.67-.58 1.78 1.78 0 010-3.17 5.2 5.2 0 012.68-.58 5.41 5.41 0 012.71.57 1.78 1.78 0 01.99 1.59zm-3.68-1.06a3.87 3.87 0 00-1.61.29.79.79 0 000 1.53 3.85 3.85 0 001.61.27 4 4 0 001.64-.27.85.85 0 00.59-.76.86.86 0 00-.59-.77 3.85 3.85 0 00-1.64-.3zm9.56-1.9h-4.33v-4.9h1.42v1.44h1.5v-1.46h1.41zm4.38.65h-1.34v-2.59h-.8v2.46h-1.31v-5.91h1.31v2.33h.8v-2.52h1.34zm-7.41.54h7.41v3.94h-1.4v-2.83h-6zm1.62-2.3v-1.27h-1.5v1.26zm15.62 6.23H507v-10.7h1.4zM506 92.26h-6.23v-1.12H506zm-4.73-1.81v-1.12h3.3v1.12zm-.96 4.55a2.07 2.07 0 01.73-1.64 2.65 2.65 0 011.87-.66 2.73 2.73 0 011.89.65 2.12 2.12 0 01.73 1.65 2.15 2.15 0 01-.73 1.65 3 3 0 01-3.77 0 2.09 2.09 0 01-.72-1.65zm1.72-.85a1.26 1.26 0 000 1.7 1.26 1.26 0 00.88.33 1.28 1.28 0 00.92-.32 1.19 1.19 0 00.33-.86 1.13 1.13 0 00-.35-.85 1.25 1.25 0 00-.9-.32 1.2 1.2 0 00-.91.29zm20.33-2h-1.46v2.33h-1.43v-5.8h1.43V91h1.46zM517.53 95h3.37v4.4h-1.43V96h-1.94zm.26 4.06a16.58 16.58 0 01-3.14.27h-1.18V96.7h2.17V96h-2.21v-1H517v2.65h-2.18v.66a12 12 0 002.8-.22zm.07-5.17h-5.06v-4.8h1.39v1.43h2.26v-1.45h1.41zm-1.41-1.12v-1.18h-2.26v1.18zm15 6.58h-1.4v-10.7h1.4zM529 92.26h-6.22v-1.12H529zm-4.72-1.81v-1.12h3.3v1.12zm-.96 4.55a2.13 2.13 0 01.73-1.64 2.69 2.69 0 011.88-.66 2.73 2.73 0 011.89.65 2.25 2.25 0 010 3.3 2.74 2.74 0 01-1.89.66 2.69 2.69 0 01-1.88-.65 2.1 2.1 0 01-.73-1.66zm1.73-.85a1.23 1.23 0 000 1.7 1.2 1.2 0 00.88.33 1.27 1.27 0 00.91-.32 1.11 1.11 0 00.33-.86 1.09 1.09 0 00-.34-.85 1.25 1.25 0 00-.9-.32 1.19 1.19 0 00-.88.29zm14.33 1.58l-.78 1.1a5.64 5.64 0 01-1.54-1.25 4.64 4.64 0 01-1-1.62 4.4 4.4 0 01-.93 1.76 4.84 4.84 0 01-1.65 1.36l-.84-1a5.07 5.07 0 002.68-4.86v-.28h-2.14v-1.2h5.68v1.12h-2.07v.27a4.74 4.74 0 002.59 4.57zm2.16 3.64h-1.4V88.65h1.4zm8.44-.49a14.17 14.17 0 01-3.31.36v-4.12H548v3a8.9 8.9 0 001.78-.27zm3.48-3.63H551v-.94h2.47zm1.44 1.32h-5.31v-1h5.31zm.61-4.53H554v1.86h-1.43v-5.25H554v2.21h1.52zm-9.79-.33a2.43 2.43 0 01.79-1.82 2.73 2.73 0 012-.74 2.79 2.79 0 012 .73 2.38 2.38 0 01.79 1.83 2.23 2.23 0 01-.79 1.77 2.91 2.91 0 01-2 .7 2.87 2.87 0 01-2-.69 2.23 2.23 0 01-.77-1.78zm1.39 0a1.24 1.24 0 00.38.93 1.33 1.33 0 001 .37 1.43 1.43 0 001-.37 1.24 1.24 0 00.37-.93 1.39 1.39 0 00-.38-1 1.41 1.41 0 00-2 0 1.43 1.43 0 00-.37 1zm7 6.43a1.12 1.12 0 01-.56 1 2.55 2.55 0 01-1.4.36 2.47 2.47 0 01-1.4-.36 1.18 1.18 0 010-2 2.9 2.9 0 012.8 0 1.12 1.12 0 01.61.96zm-1.25 0a.33.33 0 00-.2-.32 1.12 1.12 0 00-.51-.11c-.47 0-.71.15-.71.43s.24.44.71.44.76-.19.76-.48zm12.46-2.95h-9.66V94h9.66zm-1.12 3.9h-7.3v-3.16h1.4v2h6zm0-7.87a1.78 1.78 0 01-1 1.56 6.51 6.51 0 01-5.46 0 1.8 1.8 0 01-1-1.56 1.78 1.78 0 011-1.54 6.49 6.49 0 015.45 0 1.77 1.77 0 011 1.54zm-1.45 0a.89.89 0 00-.62-.78 4 4 0 00-1.68-.3 3.93 3.93 0 00-1.65.3.88.88 0 00-.61.78c0 .32.2.57.61.76a4.08 4.08 0 001.65.29 4.16 4.16 0 001.68-.29c.49-.21.7-.46.7-.78zm14.73 6a1.78 1.78 0 01-1 1.58 6.43 6.43 0 01-5.38 0 1.79 1.79 0 010-3.17 6.53 6.53 0 015.38 0 1.77 1.77 0 011.08 1.54zm-.07-2.32h-1.4v-1.21h-2v-1.07h2v-1.06h-1.81v-1.1h1.81v-1.81h1.4zm-2 3.09a.85.85 0 00.58-.77.88.88 0 00-.58-.78 3.84 3.84 0 00-1.64-.28 3.66 3.66 0 00-1.6.28.88.88 0 00-.58.78.85.85 0 00.57.76 3.69 3.69 0 001.6.28 3.85 3.85 0 001.77-.32zm-1.41-8.6c-.11 2.78-1.69 4.64-4.74 5.6l-.75-1.13a6.38 6.38 0 002.57-1.19 3.65 3.65 0 001.36-2.11h-3.41v-1.22zm13.22 2.14a1.94 1.94 0 01-1 1.71 5.18 5.18 0 01-2.77.65 5.12 5.12 0 01-2.76-.65 1.93 1.93 0 010-3.42 6.1 6.1 0 015.52 0 1.93 1.93 0 011.13 1.66zm-3.11 7.87h-1.4v-3.6h-4.1v-1.13h9.66v1.13h-4.15zm1-7a.94.94 0 000-1.78 4.19 4.19 0 00-3.4 0 .94.94 0 000 1.78 4.19 4.19 0 003.4 0zm16.21 5.6h-9.66v-1.1h4.1v-2h1.4v2h4.15zm-.73-3.63h-3.88V89.5h3.78v1.12h-2.36v2.62h2.46zm-6.76-1.18a8.31 8.31 0 002.28-.25l.18 1.16a17.73 17.73 0 01-3.85.25V89.5H596v1.12h-2.19zM611.4 95h-9.66v-1.08h9.66zm-1.19-2.33H603V89h1.4v2.6h5.77zm.07 6.34H603v-3.12h1.39v2h5.91zm13.24.29h-1.4V94h-2v-1.2h2v-4.15h1.4zm-3.41-9.58a8.53 8.53 0 01-4.77 7.7l-.87-1.06a7.14 7.14 0 002.85-2.31 6.19 6.19 0 001.27-3.16h-3.46v-1.13zm13.14 3.88h-7.33v-4.45h1.39v1.21h4.53v-1.22h1.41zm-3 5.71h-1.4v-3.47h-4.1v-1.12h9.66v1.12h-4.16zm1.57-6.83v-1.02h-4.53v1.06zm7.71-.63a1.34 1.34 0 00.42 1 1.58 1.58 0 001.12.4 1.62 1.62 0 001.13-.4 1.33 1.33 0 00.42-1 1.3 1.3 0 00-.42-1 1.61 1.61 0 00-1.13-.39 1.59 1.59 0 00-1.12.39 1.3 1.3 0 00-.42 1zm7.17-3.24v10.73h-1.39V88.65zm-8.6 3.25a2.36 2.36 0 01.81-1.85 3.6 3.6 0 014.32 0 2.52 2.52 0 010 3.7 3.13 3.13 0 01-2.16.72 3.17 3.17 0 01-2.15-.72 2.38 2.38 0 01-.83-1.85zm6.76 4.7c-1 .14-2.26.24-3.61.32-1.6.06-2.72.09-3.36.08l-.2-1.2q2 0 3.48-.06c1.39 0 2.58-.14 3.58-.26zm11.25-7.95v4.11h1.53v1.16h-1.53v5.42h-1.4V88.65zm-1.92 7.09l-.42.53-.41.51a6.87 6.87 0 01-1.48-1.32 4.85 4.85 0 01-1-1.66 5.35 5.35 0 01-1 1.8 5.75 5.75 0 01-1.55 1.4c-.39-.48-.68-.82-.86-1a5.53 5.53 0 002.65-5v-1.41h1.45v1.39a5.72 5.72 0 00.68 2.78 5.55 5.55 0 001.92 2zm13.3-1.18h-9.66v-1h9.66zm-1 4.66h-7.45v-2.44h5.8v-.57H659v-1h7.25v2.5h-5.8v.55h6zm-.04-6.18h-7.32v-2.46h5.67V90h-5.7v-1h7.12v2.44h-5.69V92h5.92zm14.17-.85h-1.47v2.32h-1.42v-5.8h1.42V91h1.47zM675.78 95h3.37v4.41h-1.42V96h-2zm.27 4.07a16.62 16.62 0 01-3.15.27h-1.17V96.7h2.17V96h-2.21v-1h3.58v2.65h-2.19v.66a12 12 0 002.81-.22zm.07-5.17h-5.07v-4.8h1.4v1.43h2.25v-1.46h1.42zm-1.42-1.12v-1.19h-2.25v1.18zm15 3.94h-1.39V88.6h1.39zm.3 2.41h-7.43v-2.84H684V98h6zm-2.77-7.33H681v-1.1h6.23zm-.54 2.2a1.67 1.67 0 01-.73 1.39 2.85 2.85 0 01-1.81.54 3 3 0 01-1.85-.54 1.67 1.67 0 010-2.76 3.05 3.05 0 011.85-.55 2.92 2.92 0 011.81.55 1.65 1.65 0 01.73 1.37zm-4.13-3.77V89.1h3.17v1.08zM683 94a.67.67 0 00.34.58 1.59 1.59 0 001.65 0 .67.67 0 00.34-.58.69.69 0 00-.34-.58 1.37 1.37 0 00-.81-.23 1.45 1.45 0 00-.84.22.7.7 0 00-.34.59zm19.75 3.22a1.78 1.78 0 01-1 1.58 6.43 6.43 0 01-5.38 0 1.79 1.79 0 010-3.17 6.53 6.53 0 015.38 0 1.77 1.77 0 01.97 1.54zm-.07-2.32h-1.4v-1.21h-2v-1.07h2v-1.06h-1.81v-1.1h1.81v-1.81h1.4zm-2 3.09a.85.85 0 00.58-.77.88.88 0 00-.58-.78 3.84 3.84 0 00-1.64-.28 3.66 3.66 0 00-1.6.28.88.88 0 00-.58.78.85.85 0 00.57.76 3.69 3.69 0 001.6.28 3.85 3.85 0 001.66-.32zm-1.41-8.6c-.11 2.78-1.69 4.64-4.74 5.6l-.74-1.13a6.5 6.5 0 002.57-1.19 3.59 3.59 0 001.35-2.11h-3.41v-1.22zm13.22 2.14a1.94 1.94 0 01-1 1.71 5.18 5.18 0 01-2.77.65 5.12 5.12 0 01-2.76-.65 2 2 0 01-1-1.71 1.93 1.93 0 011-1.71 6.1 6.1 0 015.52 0 1.92 1.92 0 011.02 1.66zm-3.11 7.87H708v-3.6h-4.11v-1.13h9.66v1.13h-4.15zm1-7a.93.93 0 000-1.78 3.54 3.54 0 00-1.7-.36 3.59 3.59 0 00-1.7.36.94.94 0 000 1.78 4.22 4.22 0 003.41 0zm-316.84 22.75V114h3.3v1.15zm15.6 1.25h-1.39v-7.75h1.39zm.24 2.65H402v-3.42h1.41V118h6zm-8.73-7a2.45 2.45 0 01.8-1.9 2.91 2.91 0 012.09-.74 3 3 0 012.1.74 2.48 2.48 0 01.79 1.9 2.44 2.44 0 01-.79 1.9 3.39 3.39 0 01-4.2 0 2.44 2.44 0 01-.79-1.87zm1.44 0a1.44 1.44 0 00.4 1.06 1.56 1.56 0 002.13 0 1.53 1.53 0 00.39-1.06 1.38 1.38 0 00-1.32-1.44h-.15a1.37 1.37 0 00-1.05.41 1.42 1.42 0 00-.41 1zm18 5.87h-9.66v-1.12h9.66zm-.2-4.38l-.71 1.09a7 7 0 01-2.34-1.07 4.28 4.28 0 01-1.58-1.79 4 4 0 01-1.57 1.83 6.71 6.71 0 01-2.37 1.08l-.66-1.14a5.51 5.51 0 001.78-.6 4.53 4.53 0 001.48-1.27 2.7 2.7 0 00.61-1.7v-.71H416v.74a2.42 2.42 0 00.24 1.06 3.41 3.41 0 00.66.93 5.06 5.06 0 00.92.74 6.3 6.3 0 001 .54 4.75 4.75 0 001 .3zm2.42 2.24a20.69 20.69 0 004.23-.32c0 .13 0 .31.08.55s.06.42.07.55a22.89 22.89 0 01-4.75.35h-1v-7.36h4.9v1.1h-3.51v1.95h3.32v1.12h-3.32zm6.56-7.16v4h1.48v1.15h-1.49v5.51h-1.4v-10.63zm11.38 9.18h-9.66v-1.1h9.66zm-1.25-8.06a34.64 34.64 0 01-.49 6.35l-1.37-.13a18.4 18.4 0 00.33-2.33c.09-.93.13-1.86.13-2.79h-5.93v-1.1zm10.74 9.47h-7.21v-3.75h7.22zm0-4.27h-1.34v-2.49h-.86v2.41h-1.34v-6h1.32v2.48h.86v-2.67h1.35zm-4-.59a18 18 0 01-3.95.32h-.73v-3.29h2.64v-1H441v-1.12h4.1v3.17h-2.66v1.1a14.89 14.89 0 001.64-.06 10.67 10.67 0 001.49-.2c.07.51.12.86.16 1.06zm2.53 3.75v-1.56h-4.38v1.56zm14.1 1.24H461v-10.69h1.39zm-3.25-2.64h-5.05v-7.19h1.39v2.57h2.25v-2.59h1.41zm-1.41-1.1v-2.42h-2.25v2.41zm13.36.22a1.61 1.61 0 01.86 2.12 1.59 1.59 0 01-.86.85 5.54 5.54 0 01-2.72.55 5.64 5.64 0 01-2.74-.55 1.61 1.61 0 01-.86-2.11 1.58 1.58 0 01.86-.86 5.79 5.79 0 012.74-.56 5.6 5.6 0 012.73.55zm2.21-1.37h-9.66v-1.12h3.66v-1.86h1.4v1.86h4.6zm-1.22-5.45a17.64 17.64 0 01-.34 3.77l-1.35-.18a10.37 10.37 0 00.28-2.48h-5.9V109zm-1.4 8.28c0-.3-.2-.53-.61-.69a5 5 0 00-1.68-.23q-2.28 0-2.28.93c0 .29.21.52.61.67a6 6 0 003.35 0c.4-.15.6-.38.6-.68zm12.18 2h-1.34V114h-.95v4.9h-1.3v-10h1.3v4h.95v-4.19h1.33zm-4.56-9.43a8.2 8.2 0 01-3.88 7.34l-.91-1a7.23 7.23 0 002.42-2.28 6.31 6.31 0 001-3h-2.79v-1.13zm15.35 8.94h-1.32v-3.6H491v-1.14h1.35v-1.52h-1.09v-1.14h1.09v-2.6h1.31zm2.13.49h-1.33v-10.63h1.33zm-4.64-9.43a8.19 8.19 0 01-3.8 7.34l-.91-1a7.05 7.05 0 002.37-2.27 6.47 6.47 0 001-3h-2.7v-1.13zm14.54 7.3a1.73 1.73 0 01-1 1.55 7 7 0 01-5.51 0 1.73 1.73 0 010-3.13 6.94 6.94 0 015.51 0 1.75 1.75 0 011 1.57zm-8.54-6.65v-1.1h5.63v1.16h-2a2.89 2.89 0 00.74 1.8 3.64 3.64 0 001.61 1.06l-.41.61-.35.5a4.67 4.67 0 01-1.32-.83 3.7 3.7 0 01-1-1.26 3.47 3.47 0 01-1 1.44 4.18 4.18 0 01-1.52 1l-.37-.5c-.2-.26-.35-.46-.47-.59a4.18 4.18 0 001.83-1.24 3.25 3.25 0 00.74-2zm5.46 1.78v-1.08h1.6v-2.55h1.4V115h-1.4v-2.68zm-.66 3.85a4.1 4.1 0 00-1.7.27c-.41.18-.61.43-.61.75s.2.56.61.73a5.67 5.67 0 003.41 0c.4-.18.6-.42.6-.73a.84.84 0 00-.6-.76 4.56 4.56 0 00-1.72-.27zm14.56 1.75h-9.66v-1.1h9.66zm-2-7.77a2.41 2.41 0 01.67 3.34 2.51 2.51 0 01-.67.67 5.69 5.69 0 01-5.7 0 2.4 2.4 0 01-.68-3.32 2.35 2.35 0 01.68-.69 5.69 5.69 0 015.73.06zm-1 3.21a1.39 1.39 0 00.49-1.9 1.44 1.44 0 00-.49-.49 3.82 3.82 0 00-3.6 0 1.4 1.4 0 00-.48 1.91 1.47 1.47 0 00.48.48 3.82 3.82 0 003.58.06zm12.19 1.84h-3.24v1.67h4.15V118h-9.68v-1.12h4.1v-1.67h-2.87v-3.54h5.81v-1.23h-5.86v-1.12h7.26v3.47h-5.81v1.3h6.12zm12.54 4h-6.92v-3.64h6.92zm-8.12-7.42v-1.1h5.64v1.1h-2a2.82 2.82 0 002.27 2.16l-.7 1.1a4.9 4.9 0 01-1.38-.76 3.37 3.37 0 01-1-1.16 3.52 3.52 0 01-1 1.33 4 4 0 01-1.51.86l-.78-1.08a3.23 3.23 0 002.5-2.4zm9.64.78h-1.52V115h-1.41v-6.38h1.39v2.77h1.52zm-2.93 5.53v-1.46h-4.11v1.46zm-5.44-8V109h3.11v1.1zm14.43 5.3l.05-1.2h1.54V112h-1.54l-.05-1.19h1.59v-2.11h1.4v10.69h-1.4v-4zm-5.8-2.18a4.79 4.79 0 01.74-2.78 2.47 2.47 0 014 0 4.78 4.78 0 01.73 2.78 4.69 4.69 0 01-.73 2.75 2.47 2.47 0 01-3.45.6 2.36 2.36 0 01-.59-.59 4.74 4.74 0 01-.73-2.76zm4.17 0a4.23 4.23 0 00-.39-2 1.16 1.16 0 00-1-.72 1.13 1.13 0 00-1 .72 4.35 4.35 0 00-.38 2 4.23 4.23 0 00.38 2 1.13 1.13 0 001 .72 1.14 1.14 0 001-.72 4.11 4.11 0 00.39-2zm12-1.93h-6.2v-1.09h6.2zm-4.58-1.53v-1.06h3.17v1.06zm8.33 2.84h-1.5v2.13H557v-6.07h1.4v2.8h1.5zm-1.23 6.72h-7.31v-2.53H557v-.5h-5.64v-1h7.05v2.5h-5.64v.52h5.9zm-3-6.11a1.39 1.39 0 01-.71 1.21 3.24 3.24 0 01-1.82.46 3.28 3.28 0 01-1.84-.46 1.36 1.36 0 010-2.41 3.28 3.28 0 011.84-.46 3.22 3.22 0 011.81.46 1.42 1.42 0 01.72 1.21zm-3.71 0a.52.52 0 00.34.48 1.74 1.74 0 00.84.18 1.63 1.63 0 00.81-.18.5.5 0 000-.94 1.63 1.63 0 00-.81-.18 1.74 1.74 0 00-.84.18.53.53 0 00-.34.47zm19.91 4a1.77 1.77 0 01-1 1.59 5.16 5.16 0 01-2.7.59 5.06 5.06 0 01-2.67-.59 1.78 1.78 0 010-3.17 5.15 5.15 0 012.67-.59 5.26 5.26 0 012.7.58 1.8 1.8 0 011 1.6zm-.07-2.31h-1.4v-1.16h-2v-1.07h2v-1.06h-1.82v-1.1h1.81v-1.81h1.4zm-1.95 3.09a.85.85 0 00.57-.77.87.87 0 00-.58-.78 4 4 0 00-1.64-.28 3.81 3.81 0 00-1.6.28.86.86 0 00-.57.78.85.85 0 00.57.77 3.78 3.78 0 001.6.27 3.83 3.83 0 001.64-.27zm-1.42-8.6c-.11 2.78-1.69 4.64-4.74 5.6l-.74-1.13a6.4 6.4 0 002.56-1.19 3.65 3.65 0 001.36-2.11h-3.41v-1.17zm13.22 2.14a2 2 0 01-1 1.72 6.25 6.25 0 01-5.53 0 1.94 1.94 0 01-.81-2.62 1.89 1.89 0 01.82-.81 6.16 6.16 0 015.52 0 2 2 0 011 1.71zm-3.11 7.87h-1.4v-3.55H573v-1.13h9.66v1.13h-4.16zm1-7a.94.94 0 00.6-1.19 1 1 0 00-.6-.59 4.19 4.19 0 00-3.4 0 .94.94 0 00-.58 1.2.93.93 0 00.58.58 4.19 4.19 0 003.37.02zm-186 22.78V134h3.3v1.15zm14.22.66a1.62 1.62 0 01.86 2.12 1.64 1.64 0 01-.86.86 7.05 7.05 0 01-5.46 0 1.6 1.6 0 010-3 5.74 5.74 0 012.74-.56 5.56 5.56 0 012.71.6zm2.21-1.37h-9.66v-1.11H404v-1.86h1.4v1.86h4.6zm-1.26-5.42a18.3 18.3 0 01-.33 3.77l-1.36-.18a10.38 10.38 0 00.29-2.48h-5.9V129zm-1.4 8.28q0-.45-.6-.69a5.05 5.05 0 00-1.68-.23q-2.28 0-2.28.93c0 .29.2.52.6.67a4.78 4.78 0 001.68.24 4.73 4.73 0 001.67-.24c.41-.16.61-.38.61-.68zm9.76-1.61l-.78 1.1a5.5 5.5 0 01-1.54-1.25 4.64 4.64 0 01-1-1.62 4.53 4.53 0 01-.93 1.76 4.94 4.94 0 01-1.65 1.36l-.88-1.02a5 5 0 002.67-4.86v-.28h-2.14v-1.12h5.68v1.12h-2.06v.27a4.71 4.71 0 002.62 4.57zm2.16 3.64h-1.4v-10.66h1.4zm8.31-4.26c-1 .13-2.17.22-3.43.28s-2.58.1-3.54.1l-.19-1.14h2.9v-1.2h-1.86v-3.69h5v1.12h-3.62V132h3.7v1.12h-1.82v1.15c1.12-.06 2-.13 2.71-.23zm1.83-6.43v7.84H428v-7.84zm.09 10.38h-7.22v-3h1.41v1.88h5.81zm12.76.31h-1.38v-10.66h1.39zm-7.79-3.31a4.66 4.66 0 01-.74-2.76 4.74 4.74 0 01.74-2.77 2.47 2.47 0 013.45-.61 2.52 2.52 0 01.61.61 5.58 5.58 0 010 5.52 2.5 2.5 0 01-4.06 0zm3.45-2.76a4.24 4.24 0 00-.4-2 1.17 1.17 0 00-1-.72 1.13 1.13 0 00-1 .72 4.23 4.23 0 00-.39 2 4.11 4.11 0 00.39 1.95 1.12 1.12 0 001 .72 1.18 1.18 0 001-.72 4.09 4.09 0 00.4-1.95zm10.3 1.47h-4.33v-5.22h1.41V131h1.51v-1.6h1.4v2h1v-2.58h1.34v7.44h-1.33v-3.72h-1zm4.64 4.4h-7.55v-3.44h1.4V138h6.16zm-.26-2.51h-1.33v-7.92h1.33zm-5.79-3v-1.46h-1.51v1.46zm15-.69h-5.57v1.17h5.93v1.1h-7.34v-5.67h7.2v1.1h-5.82v1.2h5.57zm1.47 4V138h-9.66v-1.1zm5-3.68a21.43 21.43 0 004.23-.33l.15 1.08a22.71 22.71 0 01-4.73.38h-1v-4.89h4.76v1.12h-3.37zm8.13-.82h-1.52v2.51h-1.41v-6.25h1.41v2.6h1.52zm-1.38 4.77a1.75 1.75 0 01-1 1.56 6.53 6.53 0 01-5.38 0 1.75 1.75 0 010-3.14 5.2 5.2 0 012.68-.58 5.31 5.31 0 012.71.58 1.77 1.77 0 01.99 1.58zm-2 .75a.83.83 0 00.58-.75.85.85 0 00-.58-.76 5.09 5.09 0 00-3.27 0 .85.85 0 00-.58.76.83.83 0 00.58.75 5.09 5.09 0 003.27 0zm12.47 1.28h-7.09v-3.73h7.1zm-8.5-7.5v-1.12h5.63v1.12h-2a2.85 2.85 0 002.32 2.23c-.16.24-.4.6-.7 1.08a4.66 4.66 0 01-1.37-.74 3.22 3.22 0 01-1-1.16 3.41 3.41 0 01-1 1.32 4.27 4.27 0 01-1.52.87c-.09-.14-.22-.33-.41-.58s-.3-.43-.36-.5a3.22 3.22 0 002.5-2.52zm8.5 3.25H484v-1.82h-1.6V132h1.6v-3.36h1.4zM484 138.1v-1.54h-4.28v1.54zm-5.8-8.1v-1h3.11v1zm14.92 5.8l-.78 1a5.4 5.4 0 01-1.55-1.26 4.67 4.67 0 01-1-1.64 4.66 4.66 0 01-.94 1.77 4.94 4.94 0 01-1.65 1.36l-.87-1.05a5.11 5.11 0 002.72-4.86v-.29h-2.16v-1.15h5.7v1.15h-2.09v.28a5 5 0 002.64 4.67zm1.91-7.19v4.12h1.52v1.16H495v5.41h-1.4v-10.65zm9.9 5h-5.06v-4.63h1.38v1.34h2.27V129h1.4zm-1.4-1.09v-1.1h-2.27v1.09zm5.94-.6H508v2.07h-1.43v-5.42H508v2.2h1.5zm-1.2 7.26H501v-2.84h5.56v-.68h-5.66v-1.12h7.1v2.84h-5.6v.67h5.9zm11.07-1.18h-9.66v-1.11h2.37v-2.06h1.4v2.06h2.08v-2.06h1.4v2.06h2.41zm-.93-3.67h-7.84v-1.12h1.48l-.2-2 1.4-.14.12 2.16h2.32l.29-2.14 1.36.2-.34 1.91h1.4zm0-3.77h-7.89v-1.12h7.89zm10.5 8.7h-7.36v-2.87h5.63v-.74h-5.69v-1.1h7.08v2.84H523v.73h5.95zm-.34-5.26h-1.37v-5.35h1.39zm-8.52-2.5a2.28 2.28 0 01.8-1.78 3.3 3.3 0 014.07 0 2.3 2.3 0 01.8 1.79 2.14 2.14 0 01-.8 1.72 3 3 0 01-2 .66 3.12 3.12 0 01-2-.65 2.13 2.13 0 01-.81-1.74zm1.83-.95a1.21 1.21 0 00-.43.93 1.08 1.08 0 00.41.89 1.56 1.56 0 001 .35 1.45 1.45 0 001-.36 1.14 1.14 0 00.4-.88 1.28 1.28 0 00-.38-.94 1.45 1.45 0 00-1.05-.38 1.5 1.5 0 00-1 .39zm14.4 5.29l-.78 1a5.4 5.4 0 01-1.5-1.24 4.67 4.67 0 01-1-1.64 4.66 4.66 0 01-.94 1.77 4.94 4.94 0 01-1.65 1.36l-.87-1.05a5.11 5.11 0 002.72-4.86v-.29h-2.16v-1.15h5.7v1.15h-2.09v.28a4.94 4.94 0 002.63 4.67zm1.91-7.19v4.12h1.52v1.16h-1.51v5.41h-1.4v-10.69zm4.94 2v-1.15h5.64v1.15h-2a3.22 3.22 0 00.7 2 3.49 3.49 0 001.67 1.18l-.77 1.1a4.34 4.34 0 01-1.31-.85 4.16 4.16 0 01-1-1.32 3.64 3.64 0 01-1 1.48 4.13 4.13 0 01-1.51 1l-.83-1.1a4.05 4.05 0 001.88-1.36 3.46 3.46 0 00.7-2.12zm8.47 5.75h-1.4v-3.78h-1.61v-1.13h1.61v-2.84h1.4zm.23 2.65h-7.38v-3.37h1.41V138h6zm8-.2h-1.33v-5h-.92a5 5 0 01-.68 2.34 1.81 1.81 0 01-1.63.91 1.74 1.74 0 01-1.32-.56 3.17 3.17 0 01-.77-1.4 7.49 7.49 0 01-.22-1.88 7.23 7.23 0 01.22-1.86 3.27 3.27 0 01.82-1.4 1.78 1.78 0 011.32-.56 1.83 1.83 0 011.64.92 5 5 0 01.67 2.34h.91v-3.87h1.32zm2.13.49h-1.32v-10.69H562zm-5.9-4.18a7 7 0 000-3.75c-.16-.49-.42-.73-.76-.73s-.58.24-.75.73a7.19 7.19 0 000 3.74c.17.48.42.73.75.73s.59-.25.76-.73zm19.16 4.1h-7.6v-2.78h5.85v-.63h-5.87v-1.12h7.29v2.77H569v.63h6.18zm-.33-5h-1.34v-2.22h-.86v2.16h-1.31v-5.38h1.31v2.09h.87v-2.28h1.33zm-8.82-2.68v-1.09h4.72v1.09h-1.55a2.39 2.39 0 001.77 1.68c-.06.09-.16.25-.3.49l-.35.57a3.32 3.32 0 01-1.07-.6 2.78 2.78 0 01-.78-1 3.08 3.08 0 01-.79 1.07 4 4 0 01-1.24.77l-.76-1a2.85 2.85 0 002-2zm1-1.63v-1.09h2.78V130zm17.63 6.43h-1.4v-7.75h1.4zm.27 2.71h-7.4v-3.2H579V138h6zm-2.83-5.4l.13 1.07a12.84 12.84 0 01-2 .27c-.87.07-1.7.1-2.46.1h-1.44v-3.48h3.4v-1.15h-3.43v-1.12h4.85v3.33h-3.42V134a19.17 19.17 0 004.34-.33zm10.49 2l-.78 1.1a5.5 5.5 0 01-1.54-1.25 4.64 4.64 0 01-1-1.62 4.4 4.4 0 01-.93 1.76 4.94 4.94 0 01-1.65 1.36l-.84-1.05a5.07 5.07 0 002.68-4.86v-.28h-2.14v-1.12h5.68v1.12H590v.27a4.74 4.74 0 002.63 4.57zm2.16 3.64h-1.4v-10.68h1.4zm13.19 0h-1.33v-10.68H608zm-2.15-.49h-1.31V134h-1.39v-1.13h1.39v-4h1.31zm-2.42-8.94a8.25 8.25 0 01-3.86 7.34l-.91-1a7.11 7.11 0 002.41-2.28 6.28 6.28 0 001-3h-2.75v-1.13zm14.4 9.43h-1.4v-10.68h1.4zm-2.21-3.48l-.82 1.06a5.65 5.65 0 01-1.38-1.29 5.37 5.37 0 01-1-1.67 5.23 5.23 0 01-1 1.82 5.32 5.32 0 01-1.55 1.36l-.85-1a5.52 5.52 0 002.65-4.93v-1.63h1.45v1.56a5.3 5.3 0 002.47 4.75zm12.2 3.43h-7.52v-2.73H626v-.63h-5.82v-1.1h2.94V134h-4.1v-1h9.66v1h-4.15v.8h2.88v2.72h-5.76v.61h6.13zm-.39-7h-7.09v-3.41h7.09zm-1.42-1.1v-1.23h-4.26v1.23zm12.79 3.12h-9.66v-1.12h9.66zm-.89 5h-7.61v-2.73h5.85V136h-5.84v-1.1h7.23v2.69h-5.84v.59h6.22zm-6.25-8.57c0 .25.21.45.62.62a6.18 6.18 0 003.41 0c.42-.17.63-.37.63-.62s-.21-.46-.62-.62a4.8 4.8 0 00-1.72-.23 4.72 4.72 0 00-1.71.23c-.4.15-.6.36-.6.61zm-1.45 0a1.56 1.56 0 011-1.4 7.75 7.75 0 015.57 0 1.48 1.48 0 010 2.8 7.75 7.75 0 01-5.57 0 1.58 1.58 0 01-1-1.41zm21.75 1.62h-1.52v2.54H649v-6.24h1.42v2.54h1.52zm-8.55 3.08h7v3.92H649v-2.81h-5.63zm5-2.22l-.8 1.08a4.36 4.36 0 01-1.36-.84 4 4 0 01-1-1.31 3.59 3.59 0 01-1 1.51 4.22 4.22 0 01-1.51 1l-.82-1.12a3.85 3.85 0 001.87-1.35 3.54 3.54 0 00.69-2.15v-.94h1.44v.91a3.08 3.08 0 00.74 2 3.76 3.76 0 001.76 1.2zm9.06 2.65l-.79 1a4.34 4.34 0 01-1.11-1.07 4.26 4.26 0 01-.75-1.41 4.65 4.65 0 01-.79 1.55 4.08 4.08 0 01-1.24 1.17l-.84-1a5.17 5.17 0 002.21-4.64V131h-1.8v-1.12h4.82V131h-1.67v.49a6.62 6.62 0 00.5 2.68 3.56 3.56 0 001.47 1.69zm1.69 3h-1.3v-5.37h-1.44v-1.15h1.39v-3.48h1.31zm2.15.49h-1.33v-10.7h1.33zm7.09-7.68h-6.2v-1.09h6.2zm-.51 2.27a1.66 1.66 0 01-.72 1.4 2.91 2.91 0 01-1.8.55 3 3 0 01-1.83-.55 1.72 1.72 0 01-.72-1.4 1.75 1.75 0 01.72-1.41 2.92 2.92 0 011.83-.56 2.86 2.86 0 011.8.57 1.75 1.75 0 01.73 1.4zm-4.1-3.86V129h3.18v1.07zm6.86-1.42v3.46h1.49v1.16h-1.49v3.32h-1.4v-7.94zm.25 10.44h-7.3v-2.82h1.41V138h5.89zm-6.68-5.16a.67.67 0 00.34.58 1.49 1.49 0 001.62 0 .67.67 0 00.34-.58.72.72 0 00-.34-.61 1.49 1.49 0 00-1.62 0 .72.72 0 00-.34.61zm19.92 3.24a1.8 1.8 0 01-1 1.59 5.28 5.28 0 01-2.7.58 5.18 5.18 0 01-2.68-.58 1.8 1.8 0 01-.75-2.42 1.78 1.78 0 01.75-.76 5.2 5.2 0 012.68-.58 5.28 5.28 0 012.7.58 1.77 1.77 0 011 1.59zm-.07-2.31h-1.4v-1.17h-2v-1.07h2v-1.06h-1.82v-1.1h1.81v-1.81H684zm-2 3.08a.8.8 0 000-1.54 3.84 3.84 0 00-1.64-.28 3.64 3.64 0 00-1.6.28.86.86 0 00-.58.77.85.85 0 00.57.77 3.84 3.84 0 001.6.28 4.09 4.09 0 001.66-.28zm-1.41-8.59c-.12 2.77-1.7 4.64-4.74 5.59l-.75-1.13a6.31 6.31 0 002.57-1.19 3.62 3.62 0 001.36-2.11h-3.41v-1.17zm13.22 2.13a1.94 1.94 0 01-1 1.71 6.18 6.18 0 01-5.53 0 1.93 1.93 0 01-.81-2.61 1.89 1.89 0 01.82-.81 6.1 6.1 0 015.52 0 1.93 1.93 0 011 1.71zm-3.11 7.88h-1.4v-3.57h-4.1v-1.13h9.66v1.13h-4.15zm1-7a.94.94 0 000-1.79 4.28 4.28 0 00-3.4 0 1 1 0 000 1.79 4.28 4.28 0 003.39.01z"/><path id="패스_11580" data-name="패스 11580" class="cls-2" d="M4.72 10V3.18l-1.38.28v-.87l2.09-.93h.78V10zm3.14.14V8.69h1.47v1.4zm13.57-4.91h-2.91v1.1h4.15v1.13H13V6.34h4.1v-1.1h-2.85V1h1.4v1.09H20V1h1.39zm.12 5.8h-7.26V8.09h1.4v1.82h5.86zM20 4.13v-1h-4.35v1zm14.74 7.21h-1.4V.65h1.4zM27 8a4.73 4.73 0 01-.74-2.76 4.81 4.81 0 01.74-2.8 2.47 2.47 0 014.06 0 4.67 4.67 0 01.74 2.77A4.63 4.63 0 0131 8a2.49 2.49 0 01-4 0zm3.45-2.76a4.12 4.12 0 00-.4-2 1.16 1.16 0 00-1-.72 1.13 1.13 0 00-1 .72 4.23 4.23 0 00-.39 2 4.11 4.11 0 00.39 2 1.14 1.14 0 001 .72 1.17 1.17 0 001-.72 4 4 0 00.4-1.95zm10.3 1.47H36.4V1.46h1.41V3h1.52V1.44h1.4v2h1V.84H43v7.44h-1.31V4.56h-1zm4.64 4.4h-7.56V7.64h1.39V10h6.15zm-.26-2.51h-1.35V.65h1.33zm-5.78-3V4.12h-1.54v1.46zm15-.69h-5.62v1.15h5.93v1.1h-7.32V1.49h7.21v1.1h-5.82v1.2h5.57zm1.47 4V10h-9.71V8.89zM65.85 7h-9.67V5.92h9.66zm-1.19-2.28h-7.18V1h1.4v2.6h5.77zm.07 6.33h-7.31V7.89h1.39v2h5.92zm6.13-5.84a21.27 21.27 0 004.22-.33L75.24 6a22.77 22.77 0 01-4.73.38h-1V1.45h4.76v1.12h-3.41zM79 4.39h-1.53V6.9h-1.41V.65h1.41v2.6H79zm-1.4 4.79a1.75 1.75 0 01-1 1.56 6.53 6.53 0 01-5.38 0 1.75 1.75 0 01-1-1.56 1.77 1.77 0 011-1.59 6.66 6.66 0 015.39 0 1.78 1.78 0 011 1.59zm-2 .75a.83.83 0 00.58-.75.85.85 0 00-.58-.76 4 4 0 00-1.64-.27 3.94 3.94 0 00-1.63.27.85.85 0 00-.58.76.83.83 0 00.58.75 5.09 5.09 0 003.27 0zm12-9.28v4.11h1.54v1.16h-1.59v5.42h-1.39V.65zm-1.97 7.09l-.41.53-.41.51a6.64 6.64 0 01-1.48-1.32 4.56 4.56 0 01-1-1.66 5.35 5.35 0 01-1 1.8A5.9 5.9 0 0179.8 9q-.58-.72-.87-1a5.52 5.52 0 002.66-5V1.55H83v1.39a5.61 5.61 0 00.68 2.78 5.61 5.61 0 001.95 2.02zM100.49.65v4.11H102v1.16h-1.54v5.42H99.1V.65zm-1.92 7.09l-.41.53q-.27.35-.42.51a6.59 6.59 0 01-1.47-1.32 4.56 4.56 0 01-1-1.66 5.37 5.37 0 01-1 1.8A5.61 5.61 0 0192.73 9c-.39-.48-.68-.82-.86-1a5.56 5.56 0 002.66-5V1.55H96v1.39a5.61 5.61 0 00.68 2.78 5.53 5.53 0 001.89 2.02zm12.56 1.46a1.71 1.71 0 01-1 1.55 6.92 6.92 0 01-5.5 0 1.71 1.71 0 01-1-1.55 1.73 1.73 0 011-1.57 6.92 6.92 0 015.5 0 1.73 1.73 0 011 1.57zm-8.54-6.64V1.4h5.63v1.16h-2a2.89 2.89 0 00.74 1.8 3.64 3.64 0 001.61 1.06c-.09.15-.23.35-.41.61s-.3.43-.34.5a4.58 4.58 0 01-1.33-.83 3.82 3.82 0 01-1-1.26 3.38 3.38 0 01-1 1.44 4.23 4.23 0 01-1.51 1l-.38-.5c-.2-.26-.35-.46-.46-.59A4.09 4.09 0 00104 4.51a3.19 3.19 0 00.74-1.95zm5.46 1.77V3.2h1.61V.65h1.4V7h-1.4V4.33zm-.66 3.85a4.46 4.46 0 00-1.7.27c-.4.18-.61.43-.61.75s.21.57.61.74a4.27 4.27 0 001.7.26 4.34 4.34 0 001.71-.26c.4-.18.61-.42.61-.74a.83.83 0 00-.61-.75 4.54 4.54 0 00-1.71-.27zm11.87 2.67h-1.32v-5H117a4.92 4.92 0 01-.68 2.33 1.83 1.83 0 01-1.64.92 1.78 1.78 0 01-1.32-.56 3.2 3.2 0 01-.76-1.4 7.08 7.08 0 01-.22-1.89 6.86 6.86 0 01.22-1.86 3.12 3.12 0 01.79-1.39 1.74 1.74 0 011.32-.56 1.82 1.82 0 011.64.91 5 5 0 01.65 2.37h.91V.85h1.32zm2.13.49h-1.32V.65h1.32zm-5.9-4.19a5.64 5.64 0 00.26-1.87 6 6 0 00-.26-1.88c-.16-.48-.42-.72-.76-.72s-.58.24-.75.72a6 6 0 00-.25 1.88 5.94 5.94 0 00.27 1.87q.26.72.75.72c.34 0 .59-.24.76-.72zm11.6-3.26a1.34 1.34 0 00.42 1 1.58 1.58 0 001.12.4 1.62 1.62 0 001.13-.4 1.33 1.33 0 00.42-1 1.27 1.27 0 00-.42-1 1.59 1.59 0 00-1.13-.39 1.58 1.58 0 00-1.11.39 1.31 1.31 0 00-.43 1zm7.17-3.24v10.69h-1.39V.65zm-8.6 3.25a2.36 2.36 0 01.81-1.85 3.6 3.6 0 014.32 0 2.36 2.36 0 01.81 1.85 2.38 2.38 0 01-.81 1.85 3.13 3.13 0 01-2.16.72 3.17 3.17 0 01-2.15-.72 2.38 2.38 0 01-.83-1.85zm6.77 4.7c-1.06.13-2.26.24-3.62.31q-2.4.11-3.36.09l-.2-1.2q2 0 3.48-.06c1.4 0 2.59-.14 3.58-.27zm12 2.74h-1.33V6.09h-.89v4.76h-1.31V.84h1.31V5h.89V.65h1.33zm-4.85-6a2.1 2.1 0 01.65 1.62 2.09 2.09 0 01-.65 1.61 2.61 2.61 0 01-3.38 0 2.14 2.14 0 01-.65-1.59 2.1 2.1 0 01.65-1.62 2.68 2.68 0 013.38 0zm-4.26-1V3.2h5.1v1.12zm3.68 2.6a1.08 1.08 0 00-.31-.8 1.11 1.11 0 00-1.54 0 1.11 1.11 0 00-.3.8 1.15 1.15 0 00.3.81 1 1 0 00.77.3 1 1 0 00.77-.31 1.11 1.11 0 00.31-.8zm-2.48-4.35V1.48h2.88v1.11zM157.08.65V8.4h-1.39V5.78h-1.52V4.64h1.52v-1.2h-1.52V2.29h1.52V.65zm-3.45 6h-5V1.32H150V3h2.23V1.29h1.39zm-1.4-1.12V4.07H150v1.47zm5.09 5.51h-7.27V7.75h1.39V10h5.88zm9.93-1.88a1.79 1.79 0 01-1 1.58 5.16 5.16 0 01-2.7.59 5.08 5.08 0 01-2.67-.59 1.79 1.79 0 010-3.17 5.17 5.17 0 012.69-.57 5.26 5.26 0 012.7.58 1.78 1.78 0 01.98 1.59zm-.08-2.32h-1.4V5.69h-2V4.62h2V3.56H164v-1.1h1.81V.65h1.4zm-1.95 3.09a.81.81 0 000-1.55 3.84 3.84 0 00-1.64-.28 3.79 3.79 0 00-1.59.28.85.85 0 00-.57.78.84.84 0 00.57.76 3.64 3.64 0 001.6.28 4 4 0 001.63-.26zm-1.42-8.6c-.11 2.78-1.69 4.64-4.74 5.6l-.74-1.13a6.4 6.4 0 002.56-1.19 3.65 3.65 0 001.36-2.11h-3.41V1.34zm13.88 9.88h-7.53V8.53h5.73v-.6h-5.8v-1.1h7.23v2.66h-5.75v.6h6.12zm-2.2-5.29c-1 .13-2.16.22-3.43.27s-2.56.11-3.53.11l-.19-1.13h2.92v-.92h-1.87V1h5v1.05h-3.6v1.12h3.71v1.08h-1.83v.83c1.07-.06 2-.13 2.71-.22zm1.84-5.27v5.73h-1.4V.65zm9.54 10.7h-1.42v-3.8h-4.09v-1.1H191v1.1h-4.15zm3.75-6.94L190 5.55a5.89 5.89 0 01-2.32-.87 3.73 3.73 0 01-1.49-1.56 3.51 3.51 0 01-1.45 1.55 6.16 6.16 0 01-2.35.89l-.6-1.15a4.89 4.89 0 002.56-1 2.45 2.45 0 001.09-2V.87h1.49v.55a2.19 2.19 0 00.57 1.44 4.09 4.09 0 001.4 1.07 5.41 5.41 0 001.71.49zm9.69-.61a2.24 2.24 0 01-.82 1.8 3.06 3.06 0 01-2 .7 3 3 0 01-2-.7 2.24 2.24 0 01-.82-1.8 2.4 2.4 0 01.78-1.8 2.87 2.87 0 012-.74 3 3 0 012 .73 2.39 2.39 0 01.81 1.85zm2.94 7.56a3.32 3.32 0 01-1.07-.78 3.15 3.15 0 01-.72-1.08 3.27 3.27 0 01-.66 1.16 3.34 3.34 0 01-1.13.91l-.42-.45-.49-.51a3.61 3.61 0 001.47-1.24 3.23 3.23 0 00.52-1.81v-.47h1.38v.47a2.8 2.8 0 00.55 1.72 2.91 2.91 0 001.39 1.05zM201.71.65h1.4V6.6h-1.4zm-3.07 9.63a2.21 2.21 0 01-.58-.42 2 2 0 01-.42-.57 3.27 3.27 0 01-.8 1.24 3.44 3.44 0 01-1.22.88l-.82-1a3.62 3.62 0 001.51-1.17 2.92 2.92 0 00.55-1.76v-.35h1.37v.3a2 2 0 00.36 1.19 1.9 1.9 0 00.91.72zm-.13-5.47a1.38 1.38 0 00.43-1 1.4 1.4 0 00-.4-1 1.51 1.51 0 00-1.09-.4 1.45 1.45 0 00-1.06.41 1.34 1.34 0 00-.41 1 1.4 1.4 0 00.41 1 1.45 1.45 0 001.06.41 1.48 1.48 0 001.06-.42zM214 6.54h-9.66V5.42H214zm-4.8-3.94a3.19 3.19 0 01-1.48 1.49 7 7 0 01-2.35.76l-.59-1.09a6.58 6.58 0 001.75-.42 3.74 3.74 0 001.38-.93 1.9 1.9 0 00.57-1.41V.76h1.45V1a1.93 1.93 0 00.62 1.39 4 4 0 001.45 1 5.14 5.14 0 001.64.37l-.6 1.1a7.61 7.61 0 01-1.51-.39 5.77 5.77 0 01-1.42-.78 2.75 2.75 0 01-.91-1.09zm3.58 8.61h-7.19V7.12H207v1h4.4V7.09h1.39zm-1.39-1.12v-.9H207v.9zM223.26.65v10.69h-1.38V.65zm-2.47 6.41l.21 1.12a15.84 15.84 0 01-2.36.36c-1 .08-1.85.12-2.6.12h-1V1.72h1.39v5.74a19.43 19.43 0 004.36-.4zM232.87.65v4h1.54v1.19h-1.54v5.5h-1.4V.65zm-6.55 7.05a20.69 20.69 0 004.23-.32c0 .12 0 .31.07.56s.06.44.08.56a22.13 22.13 0 01-4.74.36h-1V1.63h4.88v1.13h-3.49zm8.7 2.39v-1.4h1.46v1.4zM3.51 31.9V31l1.57-1.66a16 16 0 001.55-1.83 2.52 2.52 0 00.5-1.42 1.32 1.32 0 00-.39-1.06 1.87 1.87 0 00-1.19-.32 3.21 3.21 0 00-1.7.55l-.25-1.05a4.59 4.59 0 012.34-.63 3 3 0 012 .62 2.18 2.18 0 01.7 1.74 3 3 0 01-.19 1A4.2 4.2 0 017.9 28c-.27.36-.5.64-.69.86s-.46.51-.8.86l-1 1h3.3v1.18zm6.27.19v-1.4h1.47v1.4zm6.89-4.88a21.27 21.27 0 004.22-.33l.16 1.12a22.71 22.71 0 01-4.73.38h-1v-4.93H20v1.12h-3.33zm8.12-.82h-1.51v2.51h-1.41v-6.25h1.41v2.6h1.51zm-1.38 4.79a1.75 1.75 0 01-1 1.56 5.26 5.26 0 01-2.7.58 5.2 5.2 0 01-2.68-.58 1.76 1.76 0 01-.78-2.37 1.81 1.81 0 01.78-.77 5.2 5.2 0 012.71-.6 5.31 5.31 0 012.71.58 1.75 1.75 0 01.96 1.6zm-2 .75a.83.83 0 00.58-.75.85.85 0 00-.58-.76 4 4 0 00-1.64-.27 3.9 3.9 0 00-1.62.27.85.85 0 00-.59.76.82.82 0 00.59.75 3.9 3.9 0 001.62.27 4 4 0 001.64-.27zm12.47 1.28h-7.12v-3.73h7.09zm-8.5-7.5v-1.12H31v1.12h-2a2.85 2.85 0 002.32 2.23c-.16.24-.4.6-.7 1.08a4.66 4.66 0 01-1.37-.74 3.32 3.32 0 01-1-1.16 3.23 3.23 0 01-1 1.32 4.27 4.27 0 01-1.52.87c-.08-.14-.22-.33-.4-.58l-.36-.5a3.25 3.25 0 002.5-2.52zM33.85 29h-1.4v-1.86h-1.62V26h1.62v-3.35h1.4zm-1.4 3.14v-1.58h-4.28v1.54zM26.63 24v-1h3.11v1zm14.92 5.8l-.78 1a5.4 5.4 0 01-1.55-1.26 4.67 4.67 0 01-1-1.64 4.66 4.66 0 01-.94 1.77 4.94 4.94 0 01-1.65 1.36L34.75 30a5.12 5.12 0 002.71-4.86v-.29H35.3v-1.11H41v1.15h-2.09v.28a4.92 4.92 0 002.64 4.67zm1.91-7.19v4.12H45v1.16h-1.55v5.41h-1.4V22.65zm9.9 5H48.3v-4.55h1.38v1.34H52V23h1.4zM52 26.6v-1.1h-2.32v1.09zm5.9-.6h-1.5v2.07H55v-5.42h1.43v2.2h1.5zm-1.2 7.26h-7.29v-2.84H55v-.68h-5.68v-1.12h7.07v2.84H50.8v.67h5.89zM67.77 32h-9.66v-1.1h2.36v-2.07h1.4v2.06H64v-2.06h1.39v2.06h2.42zm-.94-3.67H59v-1.12h1.48l-.2-2 1.4-.14.12 2.16h2.33l.29-2.14 1.35.2-.33 1.93h1.4zm0-3.77H59v-1.12h7.88zm11 4.49h-9.65v-1.13h9.66zm-1.19-2.33h-7.16V23h1.4v2.6h5.77zm.07 6.34h-7.29v-3.17h1.39v2h5.92zm4.65-1.15V31L83 29.38a16 16 0 001.55-1.83 2.45 2.45 0 00.5-1.42 1.29 1.29 0 00-.39-1.06 1.87 1.87 0 00-1.19-.32 3.21 3.21 0 00-1.7.55l-.24-1.09a4.59 4.59 0 012.34-.63 3 3 0 012 .62 2.22 2.22 0 01.7 1.74 3.29 3.29 0 01-.19 1 4.2 4.2 0 01-.6 1.06c-.27.36-.5.64-.69.86s-.46.51-.8.86l-1 1h3.3v1.18zm7.33.05v-6.78l-1.38.28v-.87l2.09-.93h.78V32zm11.79 1.1h-7.24v-3.25h1.39v2.13h5.87zm-3.27-5.56l.17 1.13A19.37 19.37 0 0193 29h-1v-5.67h1.39v4.5a14.27 14.27 0 003.86-.32zm1.66-2.5h-2.65v-1.13h2.65v-1.22h1.4v7.75h-1.4v-3.58h-2.65v-1.08h2.65zm11 6.42a3.55 3.55 0 01-2.28.66 3.68 3.68 0 01-2.25-.6 2 2 0 01-.41-2.8l.08-.1a3.14 3.14 0 011.22-.84 2.12 2.12 0 01-1.46-2 1.89 1.89 0 01.77-1.55 3.33 3.33 0 012-.6 3.41 3.41 0 012 .54 1.77 1.77 0 01.75 1.5 2.2 2.2 0 01-1.5 2c1.21.41 1.82 1.1 1.82 2.08a2.07 2.07 0 01-.83 1.72zm-3.5-.76a1.88 1.88 0 001.19.34 2 2 0 001.21-.33 1 1 0 00.45-.87 1.23 1.23 0 00-.45-1 3.8 3.8 0 00-1.41-.62 2.75 2.75 0 00-1 .62 1.23 1.23 0 00-.41.92 1.1 1.1 0 00.44.93zm1.43-3.54c.79-.32 1.19-.78 1.19-1.35a1 1 0 00-.35-.78 1.49 1.49 0 00-1-.3 1.62 1.62 0 00-1 .28.9.9 0 00-.36.76c0 .68.51 1.14 1.54 1.4zm12.82 6.3h-7.66V31h5.89v-.48h-5.9v-1h7.31v2.4h-5.89v.49h6.25zM112 24.57a1.47 1.47 0 01.77-1.27 3.43 3.43 0 011.9-.5 3.33 3.33 0 011.87.5 1.53 1.53 0 01.75 1.29 1.46 1.46 0 01-.76 1.26 3.3 3.3 0 01-1.86.5 3.43 3.43 0 01-1.9-.5 1.45 1.45 0 01-.77-1.28zm4.74 4.23v-.92h2.15v-5.23h1.39v6.43h-1.39v-.28zm-1.54.29h-1.4v-1.3c-1.24.05-2 .07-2.4.07l-.2-1.11c1.32 0 2.48 0 3.47-.06 1.39-.07 2.55-.16 3.47-.28l.11 1.05c-.81.11-1.83.2-3 .27zM113.71 24a.63.63 0 00-.34.56.61.61 0 00.34.55 2.1 2.1 0 001.81 0 .62.62 0 00.35-.54.65.65 0 00-.35-.56 2.06 2.06 0 00-1.81 0zm11.91 8v-6.82l-1.38.28v-.87l2.09-.93h.78V32zm5.2.07a5.78 5.78 0 01-1.37-.17 3.47 3.47 0 01-1-.41l.24-1.06a3.46 3.46 0 00.88.33 4.56 4.56 0 001 .13 2.12 2.12 0 001.3-.34 1.26 1.26 0 00.46-1c0-.81-.57-1.23-1.7-1.24h-.86v-1.19h.76a2 2 0 001.15-.34 1 1 0 00.43-.88c0-.75-.48-1.13-1.46-1.13a4.19 4.19 0 00-1.77.43l-.17-1.09a4.23 4.23 0 011-.37 6.58 6.58 0 011.26-.15 3 3 0 011.86.54 1.79 1.79 0 01.7 1.5 1.92 1.92 0 01-1.48 1.92 1.9 1.9 0 011.75 2 2.19 2.19 0 01-.81 1.8 3.47 3.47 0 01-2.23.66zm12.83 1.24h-7.37v-2.92h5.63v-.74h-5.69v-1.1h7.08v2.84h-5.61v.73h5.95zm-.34-5.31h-1.39v-5.35h1.39zm-8.53-2.51a2.27 2.27 0 01.8-1.77 3.29 3.29 0 014.06 0 2.26 2.26 0 01.8 1.79 2.14 2.14 0 01-.79 1.73 3 3 0 01-2 .66 3.13 3.13 0 01-2-.65 2.11 2.11 0 01-.87-1.76zm1.83-.94a1.2 1.2 0 00-.44.93 1.15 1.15 0 00.42.89 1.69 1.69 0 002.07 0 1.18 1.18 0 00.4-.88 1.24 1.24 0 00-.39-.94 1.57 1.57 0 00-2.06 0zm13.23 8.6a7.49 7.49 0 01-1.6-2.18 6.37 6.37 0 01-.62-2.81v-.22a6.29 6.29 0 01.62-2.8 7.77 7.77 0 011.6-2.18H151a8.46 8.46 0 00-1.44 2.25 6.43 6.43 0 00-.55 2.63v.33a6.64 6.64 0 00.56 2.68 8.29 8.29 0 001.43 2.3zm9.78.06h-7.19v-3.95h7.19zm0-10.14a17.57 17.57 0 01-.36 3.83h1.6V28h-9.66v-1.11h6.73a10.09 10.09 0 00.21-1.34 10.49 10.49 0 00.08-1.37h-5.78v-1.11zm-1.39 9v-1.74h-4.4v1.79zm2.8 1a8 8 0 001.44-2.24 6.46 6.46 0 00.55-2.63v-.35a6.71 6.71 0 00-.56-2.68A7.8 7.8 0 00161 23h1.19a7.61 7.61 0 011.58 2.19 6.3 6.3 0 01.63 2.8v.21a6.38 6.38 0 01-.6 2.8 7.43 7.43 0 01-1.58 2.18zm4 .37l.48-2.42h1.51l-.86 2.42zm8.34-1.62l-2.9-8.23h1.55l2.19 6.41 2.14-6.36h1.38l-2.9 8.23zm5.29 0v-8.15h1.49v8.23zm3.17 0v-8.15h2.88c1.81 0 2.71.69 2.71 2.07a1.73 1.73 0 01-1.34 1.8 1.84 1.84 0 011.7 2 2.15 2.15 0 01-.73 1.71 3.16 3.16 0 01-2.14.64zm1.47-1.1h1.41c1 0 1.53-.44 1.53-1.33a1.21 1.21 0 00-.4-1 2 2 0 00-1.21-.31h-1.33zm0-3.62h1.15c1 0 1.51-.41 1.51-1.23a1.05 1.05 0 00-.35-.91 1.78 1.78 0 00-1.1-.27h-1.21zm5.7 4.81v-8.24h5.14v1.16h-3.66v2.26h2.84v1.15h-2.84v2.5h3.73v1.17zm16.29-2.09a1.62 1.62 0 010 3 5.73 5.73 0 01-2.73.56 5.79 5.79 0 01-2.74-.56 1.6 1.6 0 01-.86-2.11 1.58 1.58 0 01.86-.86 5.67 5.67 0 012.74-.55 5.6 5.6 0 012.73.54zm2.21-1.37h-9.66v-1.12h3.66v-1.86h1.4v1.86h4.6zM206.26 23a17.69 17.69 0 01-.34 3.77l-1.35-.18a10.45 10.45 0 00.28-2.49H199V23zm-1.4 8.28c0-.31-.2-.54-.61-.69a4.78 4.78 0 00-1.68-.24q-2.28 0-2.28.93c0 .29.21.52.61.67a6 6 0 003.35 0c.4-.15.6-.38.6-.68zM216.77 29h-1.4v-6.34h1.4zm-7.23.52h7.24v3.88h-1.41v-2.82h-5.84zm4.92-2.18l-.8 1.08a4.58 4.58 0 01-1.36-.85 4 4 0 01-1-1.3 3.28 3.28 0 01-1 1.47 4.17 4.17 0 01-1.51 1l-.86-1.12a4.06 4.06 0 001.89-1.34 3.27 3.27 0 00.7-2.1v-.93H212V24a3.06 3.06 0 00.73 2.06 3.85 3.85 0 001.74 1.2zM230.52 32h-9.66v-1.1H225v-2.07h-3.21v-1.12h1.57l-.3-2.46 1.4-.18.21 2.64h2.15l.39-2.61 1.35.22-.44 2.39h1.5v1.12h-3.21v2.06h4.15zm-.91-7.43h-7.88v-1.12h7.88zm11 7.38h-9.66v-1.12h9.66zm-.2-4.38l-.71 1.1a7 7 0 01-2.34-1.07 4.41 4.41 0 01-1.58-1.79 4.11 4.11 0 01-1.57 1.83 6.61 6.61 0 01-2.37 1.07l-.66-1.14A5.19 5.19 0 00233 27a4.71 4.71 0 001.48-1.26 2.76 2.76 0 00.61-1.7v-.71h1.46V24a2.58 2.58 0 00.25 1.06 3.18 3.18 0 00.65.93 5.43 5.43 0 00.92.74 6.84 6.84 0 001 .54 4.67 4.67 0 001 .3zm8.82-.67h-5.57v1.17h5.93v1.1h-7.32v-5.68h7.21v1.1h-5.82v1.2h5.57zm1.47 4V32H241v-1.1zm8.94-3.13h-5.15v-4.26h5.14zm3.68 4.6l-.64 1.09a6.08 6.08 0 01-2.16-.65 2.88 2.88 0 01-1.34-1.1 2.87 2.87 0 01-1.36 1.12 5.92 5.92 0 01-2.18.61l-.64-1.08a5.63 5.63 0 002-.47 2.45 2.45 0 001.28-1.05h-2.9v-1.08h7.52v1.07h-2.85a2.53 2.53 0 001.27 1.06 5 5 0 002 .47zm-.52-3.82h-1.4v-5.9h1.4zm-4.54-1.88v-2.09h-2.37v2.08zm2.5 2.69h-3.29v-1.09h3.29zm15 1h-1.39v-7.71h1.39zm.24 2.66h-7.42v-3.39H270V32h6zm-8.74-7a2.49 2.49 0 01.8-1.9 3.34 3.34 0 014.2 0 2.53 2.53 0 01.79 1.9 2.43 2.43 0 01-.79 1.9 3.37 3.37 0 01-4.2 0 2.44 2.44 0 01-.8-1.9zm1.44 0a1.5 1.5 0 00.4 1.07 1.58 1.58 0 002.13 0 1.45 1.45 0 00.39-1.07 1.38 1.38 0 00-1.31-1.44h-.15a1.45 1.45 0 00-1.06.41 1.47 1.47 0 00-.4 1zm18 5.87H277v-1.06h9.66zm-.2-4.38l-.71 1.09a6.86 6.86 0 01-2.35-1.07 4.28 4.28 0 01-1.58-1.79 4 4 0 01-1.57 1.83 6.71 6.71 0 01-2.37 1.08l-.66-1.14A5.51 5.51 0 00279 27a4.55 4.55 0 001.49-1.27 2.76 2.76 0 00.61-1.7v-.71h1.46V24a2.43 2.43 0 00.25 1.06 3.18 3.18 0 00.65.93 5.43 5.43 0 00.92.74 6.84 6.84 0 001 .54 4.67 4.67 0 001 .3zm2.42 2.25a21.27 21.27 0 004.22-.33c0 .13 0 .31.08.55s.06.43.08.56a23.64 23.64 0 01-4.75.34h-1v-7.3h4.9v1.1h-3.51v1.95h3.32v1.12h-3.32zm6.55-7.17v4h1.49v1.15h-1.49v5.51H294v-10.6zm11.39 9.18h-9.66v-1.1h9.66zm-1.22-8.09a34.58 34.58 0 01-.5 6.35l-1.43-.03a18.4 18.4 0 00.33-2.33c.09-.92.13-1.85.13-2.78h-5.93v-1.1zm10.74 9.47h-7.21v-3.69h7.21zm0-4.27H315v-2.43h-.86v2.41h-1.33v-6h1.32v2.48h.87v-2.69h1.34zm-4-.59a18.71 18.71 0 01-3.95.33h-.73v-3.25h2.64v-1h-2.7v-1.09h4.1v3.17h-2.66v1.1a14.89 14.89 0 001.64-.06 10.67 10.67 0 001.49-.2c.08.51.13.86.16 1.06zm2.52 3.75v-1.5h-4.4v1.56zm12.23.75h-1.33v-3.6h-1.35v-1.08h1.35v-1.52h-1.09v-1.14h1.09v-2.6h1.31zm2.14.49h-1.34V22.65h1.34zm-4.65-9.43a8.19 8.19 0 01-3.8 7.34l-.92-1a7.08 7.08 0 002.36-2.19 6.58 6.58 0 001-3h-2.69v-1.09zm14.55 7.3a1.75 1.75 0 01-1 1.55 7 7 0 01-5.51 0 1.73 1.73 0 010-3.13 6.94 6.94 0 015.51 0 1.77 1.77 0 011 1.57zm-8.55-6.65v-1.1h5.63v1.16h-2a3 3 0 00.74 1.8 3.64 3.64 0 001.61 1.06c-.09.15-.23.35-.41.61l-.34.5a4.58 4.58 0 01-1.33-.83 3.82 3.82 0 01-1-1.26 3.36 3.36 0 01-1 1.44 4.27 4.27 0 01-1.52 1l-.38-.5c-.2-.26-.35-.46-.46-.59a4.09 4.09 0 001.84-1.28 3.26 3.26 0 00.75-2zm5.46 1.78V25.2h1.61v-2.55h1.4V29h-1.4v-2.67zm-.66 3.85a4.1 4.1 0 00-1.7.27q-.6.27-.6.75c0 .32.2.56.6.73a5.67 5.67 0 003.41 0c.4-.18.61-.42.61-.73a.85.85 0 00-.61-.76 4.54 4.54 0 00-1.71-.27zM350 28.28h-9.66v-1.12H350zm-.89 5h-7.62v-2.71h5.85V30h-5.84v-1.1h7.23v2.69h-5.83v.59h6.21zm-6.25-8.57c0 .25.21.46.62.62a5.94 5.94 0 003.41 0c.42-.16.63-.37.63-.62s-.2-.45-.62-.61a6.25 6.25 0 00-3.43 0c-.47.16-.64.37-.64.62zm-1.45 0a1.56 1.56 0 011-1.4 7.86 7.86 0 015.57 0 1.48 1.48 0 010 2.8 7.65 7.65 0 01-5.57 0 1.56 1.56 0 01-1-1.4zm20.41 2.75h-3v.69h4.16v1.12h-9.66v-1.11h4.1v-.69h-2.84V23h7.18v1.1h-5.77v.6h5.41v1.05h-5.41v.59h5.87zm-.91 2.72a1.48 1.48 0 010 2.75 7.94 7.94 0 01-5.6 0 1.47 1.47 0 01-.82-1.92 1.49 1.49 0 01.82-.83 6.08 6.08 0 012.79-.51 6 6 0 012.78.52zm-.52 1.38c0-.25-.2-.45-.61-.59a5.61 5.61 0 00-1.68-.21 5.82 5.82 0 00-1.66.21c-.41.14-.61.34-.61.59s.2.43.61.56a5.48 5.48 0 001.66.2 5.64 5.64 0 001.68-.2c.41-.14.61-.33.61-.57zm12.06 1.77h-1.33v-5.24h-.89v4.75h-1.31v-10h1.31V27h.89v-4.35h1.33zm-4.85-6a2.33 2.33 0 010 3.23 2.61 2.61 0 01-3.38 0 2.29 2.29 0 010-3.2 2.65 2.65 0 013.38 0zm-4.26-1V25.2h5.1v1.12zm3.66 2.61a1.08 1.08 0 00-.31-.8 1.11 1.11 0 00-1.54 0 1.23 1.23 0 000 1.61 1.1 1.1 0 001.54 0 1.08 1.08 0 00.31-.8zm-2.48-4.35v-1.11h2.88v1.11zm17.79 8.75h-1.42v-5.89h-1.93v-1.19h1.93v-3.61h1.42zm-2.36-3.43l-.8 1.05a6 6 0 01-1.45-1.31 5.28 5.28 0 01-1-1.69 5 5 0 01-1 1.82 5 5 0 01-1.56 1.36l-.84-1a5.54 5.54 0 002.65-4.93v-1.66h1.44v1.56a5.52 5.52 0 002.56 4.8zm13.89-.1a1.62 1.62 0 010 3 5.73 5.73 0 01-2.73.56 5.79 5.79 0 01-2.74-.56 1.6 1.6 0 01-.86-2.11 1.58 1.58 0 01.86-.86 5.67 5.67 0 012.74-.55 5.54 5.54 0 012.72.55zm2.16-1.37h-9.66v-1.11H390v-1.86h1.4v1.86h4.6zM394.76 23a17.69 17.69 0 01-.34 3.77l-1.35-.18a10.45 10.45 0 00.28-2.49h-5.9V23zm-1.4 8.28c0-.31-.2-.54-.61-.69a4.78 4.78 0 00-1.68-.23q-2.28 0-2.28.93c0 .29.2.52.61.67a5.93 5.93 0 003.34 0c.41-.15.61-.38.61-.68zm9.75-1.61l-.78 1.09a5.61 5.61 0 01-1.54-1.25 4.69 4.69 0 01-1-1.62 4.4 4.4 0 01-.93 1.76 4.73 4.73 0 01-1.69 1.35l-.84-1a5 5 0 002.67-4.86v-.29h-2.14v-1.11h5.68v1.12h-2.07v.27a4.74 4.74 0 002.63 4.57zm2.16 3.64h-1.4V22.65h1.4zm10.16-.14h-7.16v-3.83h1.4v.88H414v-.9h1.43zm-1.85-4.77c-1.17.15-2.32.24-3.43.28-1.74.07-2.92.11-3.53.11l-.2-1.12c1.1 0 2.06 0 2.9-.05v-1h-1.85v-3.49h5v1.11h-3.62v1.26h3.7v1.12h-1.83v1c1-.05 1.93-.11 2.71-.2zm1.84-5.78v6.14H414v-6.11zm-1.42 9.5v-.84h-4.32v.84zm11.41-9.47v10.69H424V22.65zm-2.47 6.41l.18 1.12a15.84 15.84 0 01-2.36.36c-1 .08-1.85.12-2.6.12h-1v-6.94h1.39v5.74a19.43 19.43 0 004.38-.4zM435 22.65v4h1.54v1.16H435v5.5h-1.4V22.65zm-6.55 7.05a20.69 20.69 0 004.23-.32c0 .12 0 .31.07.56s.06.44.08.56a22.13 22.13 0 01-4.74.36h-1v-7.23H432v1.13h-3.49zm8.7 2.39v-1.4h1.47v1.4z"/></g></g></g></g></svg>