<svg xmlns="http://www.w3.org/2000/svg" width="460" height="76"><g data-name="Layer 2"><g data-name="Layer 1"><path d="M113.19 5.62H110l.7-3.78H105l-.7 3.78h-3.6l.7-3.78h-5.68L95 5.62h-3.65l-1 5.49H94l-1 5.82h-3.72l-1 5.49h3.67l-.7 3.78h5.68l.7-3.78h3.59l-.7 3.78h5.68l.7-3.78h3.22l1-5.49h-3.22l1.1-5.82h3.22zm-13.5 5.49h3.58l-1.06 5.82h-3.58zM140.35 1h-5.18v9.38h-1.4V1h-5.18v25.48h5.18V16h1.4v10.5h5.18zm-19.88 19V1.84h-5.88v24.64l12.88-2v-5.6zm29.68-12.7V5.76h17.64v-4.2h-24.08v9.94h8.82v1.12h-9.66v4.48h25.76v-4.48H159V11.5h8.82V7.3zm0 15.4v-4.48h-6.44V27h24.08v-4.3zM196.35 1h-5.18v9.38h-1.4V1h-5.18v25.48h5.18V16h1.4v10.5h5.18zm-19.88 19V1.84h-5.88v24.64l12.88-2v-5.6zm23.24-2.32V27h24.08v-4.1h-17.64v-1h17.64v-4.2zm6.44-10.78V5.62h17.64V1.56h-24.08v9.38h24.08V6.88zm-7.28 5.18v4.48h25.76v-4.5zm28 8.82v5.6h25.76v-5.6zm25.2-11.34C252.07 4 248.26 1 239.75 1s-12.32 3-12.32 8.54 3.81 8.54 12.32 8.54 12.32-3 12.32-8.54zm-6.16 0c0 2.24-1.29 3.22-6.16 3.22s-6.16-1-6.16-3.22 1.29-3.22 6.16-3.22 6.16.96 6.16 3.2zm16.24 3.08V11.5h17.64V1.56h-24.08v4.62h17.64V7.3h-17.64v9.94h24.08v-4.62zm2.38 8.26h-9.66v5.6h25.76v-5.6H271v-2.54h-6.44zm34.86-6l2.38 11.62h6.58l-3.64-17.96h-3.86l1.62-7h-6.58l-5.74 24.92h6.58zM316.19 1h-6.44v25.48h6.44zM328 8.84l.62-1.4h6.58v-5.6h-16.49v5.6h3.36l-3.92 9.24h6.58l2.38-5.68 2.1 5.66h6.58l-2.88-7.84zm15 18.48V17.8h-24.29v5.32h17.92v4.2zm0-21.42V1h-6.44v15.68H343v-4.9h2.24V5.9zm3.64-4.06v10.64h5.46v1.12h-6v4.76h18.2V13.6h-6v-1.12h5.46V8h-10.61V6.32h10.64V1.84zm25.48 25.48v-4.76h-18.69v-3.08H347v7.84zm0-26.32h-6.44v18.76h6.44zm-286 52.08l1.25-4.94h7.79v-7.6h-22.4v7.6h5.7L72 74h8.93l3.23-13L87 74h8.93l-4.56-20.9zm21.2-13.68H98.6V74h8.74zm3.42 22.8v12.92h33.06V67.9h-24.3v-5.7zm8.74-9.84V40.54h-8.74v20.14l22.42-1.9v-7.6zm24.32-4.79V39.4h-8.74v24.32h8.74v-8.17h3v-8zm41.42 18.58h-6.8V41.83h-11.8l-4.56 7.45H170v16.87h-7.52v7.45h22.8zm40.3-26.75h-8.74v1.33h-7.22v6.08h7.22v1.9h-7.22v2.81l-9.88.84V40.54h-8.74v20.14l22.42-1.9v-4h3.42v8.93h8.74zm-34.58 22.8v12.92h34.58V67.9h-25.84v-5.7zm38 0v12.92H262V67.9h-24.32v-5.7zm20.14-1.52c1.94-5.36 2.28-11 2.28-16.34v-3.8h-22.42v7.6h13.6a46.9 46.9 0 01-2.2 12.54zM262 47.57V39.4h-8.74v24.32H262v-8.17h3v-8zm39.52-8.17h-8.74V74h8.74zm-35.34 27V74h24.7v-7.6zM282.33 51c0 2.77-1.25 4.37-3.8 4.37s-3.8-1.6-3.8-4.37 1.25-4.37 3.8-4.37 3.8 1.59 3.8 4.37zm8.17 0c0-7.18-4.18-11.59-12-11.59s-12 4.41-12 11.59 4.18 11.59 12 11.59 12-4.42 12-11.59zm59.66-11.6h-8.74v3H338v-1.9h-8v3.23h-6.46v-3.19h-8v20.14l22.46-1.9v-1.52h3.42v6.46h8.74zm-34.58 22.8v12.92h34.58V67.9h-25.84v-5.7zm8-12H330V53l-6.46.54zM338 48.52h3.42v2.66H338zm48.64 3.23V39.4h-8.74V74h8.74V60.11h3v-8.36zm-22.23-3.69c-7.71 0-11.59 2.32-11.59 7.22s3.88 7.22 11.59 7.22S376 60.19 376 55.28s-3.88-7.22-11.59-7.22zm-4.18 18.32h-7.41V74H376v-7.6h-7.41v-2.68h-8.36zm8.36-25.08v-3h-8.36v3h-7V47h22.42v-5.7zm-4.18 12.46c3.15 0 4 .42 4 1.52s-.84 1.52-4 1.52-4-.41-4-1.52.85-1.52 4-1.52z"/><path fill="none" d="M0 0h460v76H0z"/></g></g></svg>