<svg xmlns="http://www.w3.org/2000/svg" width="375" height="132.2"><defs><style>.cls-2{isolation:isolate;font-size:36px;fill:#fff;font-family:AdobeMyungjoStd-Medium-KSCpc-EUC-H,Adobe Myungjo Std}.cls-4{fill:#ffd711}</style></defs><g id="Layer_2" data-name="Layer 2"><g id="Layer_1-2" data-name="Layer 1"><g id="_2_tit" data-name="2 tit"><g id="음악도_성적순이라구요_" data-name="음악도 성적순이라구요" style="isolation:isolate"><text class="cls-2" transform="rotate(-4.01 1008.714 -1874.867)">음악도</text><text class="cls-2" transform="rotate(-4.01 1737.654 -659.74)">성적순이라구요<tspan x="252" y="0" font-family="ArialMT,Arial">?</tspan></text></g><g id="그룹_3931" data-name="그룹 3931"><path id="패스_8684" data-name="패스 8684" class="cls-4" d="M244.87 28.43a.36.36 0 00.16-.11L265.61.45a.28.28 0 00-.09-.4.29.29 0 00-.38.05L244.56 28a.29.29 0 00.06.41.31.31 0 00.25.02z"/><path id="패스_8685" data-name="패스 8685" class="cls-4" d="M250.76 31.8a.23.23 0 00.12-.06l2.5-2.27A.29.29 0 10253 29l-2.5 2.27a.29.29 0 000 .41.28.28 0 00.29.08z"/><path id="패스_8686" data-name="패스 8686" class="cls-4" d="M254.82 27.87a.23.23 0 00.12-.06l9.93-9a.3.3 0 00.05-.41.31.31 0 00-.42 0l-9.93 9a.29.29 0 000 .41.29.29 0 00.25.06z"/><path id="패스_8687" data-name="패스 8687" class="cls-4" d="M248 41.22h.08l8.37-5.44a.29.29 0 10-.29-.51l-8.38 5.44a.29.29 0 00-.08.4.28.28 0 00.31.13z"/><path id="패스_8688" data-name="패스 8688" class="cls-4" d="M258.22 34.26h.09L278.62 21a.31.31 0 00.09-.41.3.3 0 00-.41-.08L258 33.74a.28.28 0 00-.08.4.28.28 0 00.31.12z"/><path id="패스_8689" data-name="패스 8689" class="cls-4" d="M252.6 45.18l5.12-1.65a.29.29 0 00.18-.37.31.31 0 00-.36-.18l-5.12 1.64a.31.31 0 00-.18.38.28.28 0 00.36.18z"/><path id="패스_8690" data-name="패스 8690" class="cls-4" d="M259.77 42.86l1.87-.6a.3.3 0 00-.18-.56l-1.86.61a.29.29 0 00.16.55z"/><path id="패스_8691" data-name="패스 8691" class="cls-4" d="M263.78 41.55l11.4-3.66a.28.28 0 00.17-.37.29.29 0 00-.35-.19L263.62 41a.31.31 0 00-.18.38.28.28 0 00.34.17z"/></g></g><path fill="none" d="M0 .2h375v132H0z"/></g></g></svg>