<svg xmlns="http://www.w3.org/2000/svg" width="142" height="36" viewBox="0 0 142 36"><defs><style>.cls-1,.cls-2{fill:none;}.cls-2{stroke:#000;stroke-width:2px;}</style></defs><title>btn_note_open</title><g id="Layer_2" data-name="Layer 2"><g id="Layer_1-2" data-name="Layer 1"><path class="cls-1" d="M18,1H124a17,17,0,0,1,17,17h0a17,17,0,0,1-17,17H18A17,17,0,0,1,1,18H1A17,17,0,0,1,18,1Z"/><path class="cls-2" d="M18,2H124a16,16,0,0,1,16,16h0a16,16,0,0,1-16,16H18A16,16,0,0,1,2,18H2A16,16,0,0,1,18,2Z"/><rect class="cls-1" width="142" height="36"/><path d="M45.08,11.84V24.08H43.23V11.84Zm-8.81,3.8V20c0,1.38.55,2,1.53,2s1.54-.63,1.54-2V15.64c0-1.36-.55-2-1.54-2s-1.53.65-1.53,2ZM34.5,20V15.64c0-2.43,1.31-3.74,3.3-3.74s3.33,1.31,3.33,3.74V20c0,2.41-1.32,3.71-3.33,3.71S34.5,22.37,34.5,20ZM58,22.3V24H47.61v-3.9h1.87v2.18ZM52.12,12v2.85h1.14v-3H55v8.6H53.26v-4H52.12v2.7h-4.9V12h1.7v2.08h1.5V12Zm-3.2,5.64h1.5v-2h-1.5Zm7,3V11.84h1.78V20.7Zm5.91-7v1.53h8.54v1.62H61.81v1.63h8.67v1.65H60V12h10.4v1.65Zm9.13,8.22v1.71H59.36V21.9Zm11.88-3.84H79.27c-2.24,0-3.68-1.25-3.68-3.1s1.44-3.12,3.68-3.12h3.55c2.23,0,3.69,1.25,3.69,3.12s-1.46,3.1-3.69,3.1ZM79.3,16.34h3.48c1.14,0,1.81-.52,1.81-1.38s-.67-1.42-1.81-1.42H79.3c-1.12,0-1.8.55-1.8,1.42s.68,1.39,1.8,1.39Zm7.53,3v1.73H84.35v3.12H82.48V21.09h-2.9v3.12H77.75V21.09h-2.5V19.36Zm8.6-4a3.42,3.42,0,0,1-3.28,3.54c-.12,0-.23,0-.35,0a3.39,3.39,0,0,1-3.61-3.16,2.28,2.28,0,0,1,0-.37,3.4,3.4,0,0,1,3.26-3.54h.35A3.41,3.41,0,0,1,95.42,15a1.82,1.82,0,0,1,0,.33Zm-1.81,0A1.79,1.79,0,0,0,92,13.43H91.8A1.8,1.8,0,0,0,90,15.2a.86.86,0,0,0,0,.16,1.8,1.8,0,0,0,1.65,1.94h.17a1.79,1.79,0,0,0,1.82-1.78v-.15Zm3.3,8.72V11.84h1.85V24.08Zm-9.07-.46V21.9h8.27v1.72Zm14.11.1-1.71-.83A22.56,22.56,0,0,0,102.61,12h1.86a35.57,35.57,0,0,1-.24,4.12,14.34,14.34,0,0,0,3.57,6.32l-1.4,1.2a14.14,14.14,0,0,1-2.77-4.23A19.12,19.12,0,0,1,102,23.71Zm9.15-5.47v5.83h-1.85V11.84h1.86v4.6h1.57v1.8Zm14.18-3.56v1.78h-1.57v2.85h-1.86V11.84h1.86v2.85ZM117,19h-.52c-1.65,0-2.9-.89-2.9-2.35s1.25-2.37,2.9-2.37H117c1.65,0,2.9.91,2.9,2.37S118.65,19,117,19Zm-.52-1.44H117c.64,0,1.12-.37,1.12-.91a1,1,0,0,0-1-.94h-.6c-.66,0-1.12.36-1.12.93S115.82,17.58,116.48,17.58Zm4.58,6.63h-4.5c-1.82,0-2.92-.78-2.92-2.25s1.1-2.27,2.92-2.27h4.5c1.79,0,2.91.91,2.91,2.27S122.85,24.21,121.06,24.21Zm-4.5-1.54h4.16c.84,0,1.35-.16,1.35-.71s-.5-.73-1.35-.73H116.9c-.87,0-1.34.17-1.34.73S115.92,22.67,116.56,22.67Zm3.87-10.3V13.9h-7.31V12.37h2.66v-1h1.87v1Z"/><path d="M17,17H27v2H17Z"/><path d="M23.32,12.91V23.15H21.61V12.91Z"/></g></g></svg>