<svg xmlns="http://www.w3.org/2000/svg" width="118" height="44" viewBox="0 0 118 44">
    <g>
        <g transform="translate(-14.666 -16.751) translate(16 14.846)">
            <rect width="118" height="44" fill="#ff006b" rx="22" transform="translate(-1.334 1.905)"/>
        </g>
        <path fill="#fff" d="M14.25 2.276v5.878H4.588V2.276zM10.417 16H8.308v-4.722H2.929V9.619h12.963v1.659h-5.475zm1.707-9.517V3.951H6.729v2.528zm15.814 3.961h-1.965v2.093h3.2v1.675H16.214v-1.678h3.2v-2.093h-1.573v-4.9h7.6V4.16h-7.616V2.453h9.743v4.8h-7.6v1.5h7.971zm-6.457 0v2.093h2.464v-2.096zm15.136 1.076l-1.127 1.61a5.562 5.562 0 0 1-1.482-1.3 5.275 5.275 0 0 1-1.03-1.73A4.919 4.919 0 0 1 32 11.914a6.465 6.465 0 0 1-1.675 1.473l-1.159-1.514a5.175 5.175 0 0 0 2.021-1.916 6.827 6.827 0 0 0 .733-3.092h-2.259V5.207h6.457v1.659h-2.142a6.171 6.171 0 0 0 .741 2.923 5.02 5.02 0 0 0 1.9 1.731zm2.367 3.817H37V9.313h-1.623V7.606H37V1.89h1.981zm2.754.644h-2V1.632h2zM34.862 4.305h-3.784V2.663h3.784zM54.7 15.835h-9.886v-4.509H54.7zm-2.14-1.626v-1.256h-5.588v1.256zm2.142-3.43h-2.158v-2.8H50.8V6.157h1.739V1.632H54.7zm-3.559-5.057h-8.358V4.1h8.358zm-1.659 1a2 2 0 0 1 .008 3.438 4.8 4.8 0 0 1-4.992 0 2 2 0 0 1 .008-3.438 4.722 4.722 0 0 1 4.976 0zm-1.514 2.39a.815.815 0 0 0 .386-.668.836.836 0 0 0-.386-.676 1.565 1.565 0 0 0-.97-.29 1.5 1.5 0 0 0-.95.29.845.845 0 0 0-.37.676.816.816 0 0 0 .37.676 1.557 1.557 0 0 0 .95.274 1.6 1.6 0 0 0 .97-.282zM44.862 3.5V1.89h4.316V3.5zm26.732 12.48H69.42V1.632h2.174zM68.808 11l-1.24 1.707a8.386 8.386 0 0 1-2-1.594 5.126 5.126 0 0 1-1.288-2.045 5.818 5.818 0 0 1-1.288 2.271 6.812 6.812 0 0 1-2.029 1.707l-1.337-1.643a6.747 6.747 0 0 0 2.673-2.7 8.447 8.447 0 0 0 .837-3.921V2.808h2.222v1.916A6.63 6.63 0 0 0 68.808 11zm4.332-6.888V2.389h7.569v1.723H78.1a4 4 0 0 0 .99 2.432 5.2 5.2 0 0 0 2.23 1.449l-1.143 1.659a5.316 5.316 0 0 1-1.811-1.112 5.064 5.064 0 0 1-1.345-1.707 4.341 4.341 0 0 1-1.288 1.9 5.559 5.559 0 0 1-2.061 1.288l-1.128-1.706a5.065 5.065 0 0 0 2.416-1.594 4.329 4.329 0 0 0 .934-2.609zm1.626 6.538h9.485V16h-2.125v-3.659h-7.359zm11.45-3.929h-2v3.317H82.11V1.632h2.11v3.333h2z" transform="translate(-14.666 -16.751) translate(29.737 30.119)"/>
    </g>
</svg>
