<svg xmlns="http://www.w3.org/2000/svg" width="142" height="36" viewBox="0 0 142 36"><defs><style>.cls-1,.cls-2{fill:none;}.cls-2{stroke:#000;stroke-width:2px;}</style></defs><title>bnt_note_close</title><g id="Layer_2" data-name="Layer 2"><g id="Layer_1-2" data-name="Layer 1"><path class="cls-1" d="M18,1H124a17,17,0,0,1,17,17h0a17,17,0,0,1-17,17H18A17,17,0,0,1,1,18H1A17,17,0,0,1,18,1Z"/><path class="cls-2" d="M18,2H124a16,16,0,0,1,16,16h0a16,16,0,0,1-16,16H18A16,16,0,0,1,2,18H2A16,16,0,0,1,18,2Z"/><path d="M45.08,11.84v12.1H43.23V11.84Zm-8.81,3.75v4.27c0,1.36.55,2,1.53,2s1.54-.63,1.54-2V15.59c0-1.34-.55-2-1.54-2s-1.53.65-1.53,2ZM34.5,19.86V15.59c0-2.39,1.31-3.7,3.3-3.7s3.33,1.3,3.33,3.7v4.27c0,2.38-1.32,3.67-3.33,3.67s-3.3-1.29-3.3-3.67ZM58,22.17v1.69H47.61V20h1.87v2.16ZM52.12,12v2.81h1.14V11.9H55v8.5H53.26V16.48H52.12v2.67h-4.9V12h1.7V14.1h1.5V12Zm-3.2,5.57h1.5v-2h-1.5Zm7,3V11.84h1.78v8.75Zm5.91-6.93v1.51h8.54v1.6H61.81v1.61h8.67V20H60V12h10.4v1.62Zm9.13,8.12v1.69H59.36V21.78ZM82.82,18H79.27c-2.24,0-3.68-1.24-3.68-3.07s1.44-3.08,3.68-3.08h3.55c2.23,0,3.69,1.23,3.69,3.08S85.05,18,82.82,18Zm-3.52-1.7h3.48c1.14,0,1.81-.52,1.81-1.37s-.67-1.4-1.81-1.4H79.3c-1.12,0-1.8.55-1.8,1.4S78.18,16.29,79.3,16.29Zm7.53,3V21H84.35v3.08H82.48V21h-2.9v3.08H77.75V21h-2.5V19.27Zm8.6-3.94a3.4,3.4,0,0,1-3.29,3.49H91.8a3.37,3.37,0,0,1-3.61-3.12,2.16,2.16,0,0,1,0-.36,3.38,3.38,0,0,1,3.25-3.5h.36A3.4,3.4,0,0,1,95.42,15c0,.11,0,.22,0,.33Zm-1.81,0A1.78,1.78,0,0,0,92,13.41H91.8A1.77,1.77,0,0,0,90,15.15a1.08,1.08,0,0,0,0,.18,1.79,1.79,0,0,0,1.64,1.91,1.08,1.08,0,0,0,.18,0,1.77,1.77,0,0,0,1.82-1.74v-.17Zm3.3,8.61V11.84h1.85v12.1Zm-9.07-.47V21.78h8.27v1.69Zm14.11.1-1.71-.81A22.06,22.06,0,0,0,102.61,12h1.86a34.59,34.59,0,0,1-.24,4.07,14.12,14.12,0,0,0,3.57,6.24l-1.4,1.19a13.79,13.79,0,0,1-2.77-4.18A18.74,18.74,0,0,1,102,23.57Zm9.15-5.4v5.77h-1.85V11.84h1.86v4.55h1.57v1.78Zm14.18-3.52v1.77h-1.57v2.81h-1.86V11.84h1.86v2.81ZM117,18.94h-.52c-1.65,0-2.9-.88-2.9-2.33s1.25-2.33,2.9-2.33H117c1.65,0,2.9.9,2.9,2.33S118.65,18.94,117,18.94Zm-.52-1.43H117c.64,0,1.12-.36,1.12-.9s-.48-.92-1.12-.92h-.52c-.66,0-1.12.36-1.12.92S115.82,17.51,116.48,17.51Zm4.58,6.55h-4.5c-1.82,0-2.92-.77-2.92-2.22s1.1-2.24,2.92-2.24h4.5c1.79,0,2.91.9,2.91,2.24S122.85,24.06,121.06,24.06Zm-4.5-1.52h4.16c.84,0,1.35-.16,1.35-.7s-.5-.72-1.35-.72H116.9c-.87,0-1.34.17-1.34.72S115.92,22.54,116.56,22.54Zm3.87-10.18v1.51h-7.31V12.36h2.66v-1h1.87v1Z"/><path d="M16,17H27v2H16Z"/><rect class="cls-1" width="142" height="36"/></g></g></svg>