<svg xmlns="http://www.w3.org/2000/svg" width="243" height="65" viewBox="0 0 243 65">
  <defs>
    <style>
      .cls-1, .cls-2 {
        stroke: #000;
        stroke-miterlimit: 10;
        stroke-width: 2px;
      }

      .cls-2 {
        fill: #ff006b;
      }

      .cls-3 {
        fill: #fff;
      }

      .cls-4 {
        stroke: none;
      }

      .cls-5 {
        fill: none;
      }
    </style>
  </defs>
  <g id="_9_btn" data-name="9_btn" transform="translate(-16)">
    <g id="Rectangle" class="cls-1" transform="translate(19 5)">
      <rect class="cls-4" width="240" height="60" rx="30"/>
      <rect class="cls-5" x="1" y="1" width="238" height="58" rx="29"/>
    </g>
    <g id="Rectangle-2" data-name="Rectangle" class="cls-2" transform="translate(16)">
      <rect class="cls-4" width="240" height="60" rx="30"/>
      <rect class="cls-5" x="1" y="1" width="238" height="58" rx="29"/>
    </g>
    <path id="_내돈내듣에_공감하기" data-name="#내돈내듣에 공감하기" class="cls-3" d="M-39.91-15.5v7.04H-51.87V-15.5ZM-44.89,1.6h-2.04v-6h-7V-6.06h16.1V-4.4h-7.06Zm2.94-11.72v-3.72h-7.86v3.72Zm19.86,4.78h-2.66v3.02h4.22V-.68h-16.1V-2.32h4.18V-5.34h-2.12V-11.1h9.92v-2.26h-9.96V-15h12v5.56h-9.9V-7h10.42Zm-8.34,0v3.02h3.66V-5.34Zm19.92,1.7L-11.69-2.2a8.123,8.123,0,0,1-1.99-1.79,6.338,6.338,0,0,1-1.29-2.33,6.828,6.828,0,0,1-1.3,2.58,7.771,7.771,0,0,1-2.14,1.98l-1.28-1.38a7.978,7.978,0,0,0,3.74-7.04h-3.1v-1.64h8.08v1.64h-2.98a8.331,8.331,0,0,0,.97,4.02A6.553,6.553,0,0,0-10.51-3.64ZM-7.81.74H-9.75v-7.5h-2.26v-1.7h2.26v-7.42h1.94Zm3.5.84H-6.27V-16.24h1.96Zm-8.3-14.72h-4.66V-14.8h4.66ZM10.61-8.72H7.87v-1.72h2.74v-5.8h2.04V-5.28H10.61ZM12.65,1.34H1.01V-4.38H12.65ZM10.61-.28v-2.5H3.07v2.5ZM5.67-14.44H.45v-1.64H5.67Zm2.5,2.64H-2.13v-1.62H8.17ZM7.21-8.2A2.463,2.463,0,0,1,6.02-6.1a5.15,5.15,0,0,1-2.99.82A5.245,5.245,0,0,1,.02-6.1,2.454,2.454,0,0,1-1.19-8.2a2.49,2.49,0,0,1,1.2-2.14,5.234,5.234,0,0,1,3.02-.82,5.15,5.15,0,0,1,2.99.82A2.5,2.5,0,0,1,7.21-8.2Zm-2,0a1.17,1.17,0,0,0-.64-1.03,2.9,2.9,0,0,0-1.54-.39,3.06,3.06,0,0,0-1.57.38A1.161,1.161,0,0,0,.81-8.2a1.153,1.153,0,0,0,.66,1.01,3.011,3.011,0,0,0,1.56.39,2.9,2.9,0,0,0,1.54-.39A1.156,1.156,0,0,0,5.21-8.2Zm30,9.78H33.17V-16.24h2.04ZM31.39-4.08,30.17-2.54a10.758,10.758,0,0,1-2.4-2.25,9.394,9.394,0,0,1-1.68-2.89,8.878,8.878,0,0,1-1.65,3.11,10.2,10.2,0,0,1-2.69,2.43l-1.26-1.5A10.16,10.16,0,0,0,23.8-7.15a9.215,9.215,0,0,0,1.21-4.63V-14.7h2.12v2.8a9.138,9.138,0,0,0,1.13,4.54A9.049,9.049,0,0,0,31.39-4.08Zm6.66-9.32v-1.7h9.38v1.7H43.87v.04a4.918,4.918,0,0,0,1.19,3.27,6.33,6.33,0,0,0,2.85,1.97L46.79-6.48a8.007,8.007,0,0,1-2.3-1.48,6.827,6.827,0,0,1-1.68-2.2,5.748,5.748,0,0,1-1.6,2.46A7.558,7.558,0,0,1,38.59-6l-1.2-1.58a7.3,7.3,0,0,0,3.16-2.26,5.377,5.377,0,0,0,1.22-3.46v-.1Zm2,8.54H51.69V1.6H49.63V-3.24H40.05Zm14.24-5.36H51.67V-5.8H49.61V-16.24h2.06v4.32h2.62Z" transform="translate(136 36)"/>
    <path id="_내돈내듣에_공감하기-2" data-name="#내돈내듣에 공감하기" class="cls-3" d="M-39.91-15.5v7.04H-51.87V-15.5ZM-44.89,1.6h-2.04v-6h-7V-6.06h16.1V-4.4h-7.06Zm2.94-11.72v-3.72h-7.86v3.72Zm19.86,4.78h-2.66v3.02h4.22V-.68h-16.1V-2.32h4.18V-5.34h-2.12V-11.1h9.92v-2.26h-9.96V-15h12v5.56h-9.9V-7h10.42Zm-8.34,0v3.02h3.66V-5.34Zm19.92,1.7L-11.69-2.2a8.123,8.123,0,0,1-1.99-1.79,6.338,6.338,0,0,1-1.29-2.33,6.828,6.828,0,0,1-1.3,2.58,7.771,7.771,0,0,1-2.14,1.98l-1.28-1.38a7.978,7.978,0,0,0,3.74-7.04h-3.1v-1.64h8.08v1.64h-2.98a8.331,8.331,0,0,0,.97,4.02A6.553,6.553,0,0,0-10.51-3.64ZM-7.81.74H-9.75v-7.5h-2.26v-1.7h2.26v-7.42h1.94Zm3.5.84H-6.27V-16.24h1.96Zm-8.3-14.72h-4.66V-14.8h4.66ZM10.61-8.72H7.87v-1.72h2.74v-5.8h2.04V-5.28H10.61ZM12.65,1.34H1.01V-4.38H12.65ZM10.61-.28v-2.5H3.07v2.5ZM5.67-14.44H.45v-1.64H5.67Zm2.5,2.64H-2.13v-1.62H8.17ZM7.21-8.2A2.463,2.463,0,0,1,6.02-6.1a5.15,5.15,0,0,1-2.99.82A5.245,5.245,0,0,1,.02-6.1,2.454,2.454,0,0,1-1.19-8.2a2.49,2.49,0,0,1,1.2-2.14,5.234,5.234,0,0,1,3.02-.82,5.15,5.15,0,0,1,2.99.82A2.5,2.5,0,0,1,7.21-8.2Zm-2,0a1.17,1.17,0,0,0-.64-1.03,2.9,2.9,0,0,0-1.54-.39,3.06,3.06,0,0,0-1.57.38A1.161,1.161,0,0,0,.81-8.2a1.153,1.153,0,0,0,.66,1.01,3.011,3.011,0,0,0,1.56.39,2.9,2.9,0,0,0,1.54-.39A1.156,1.156,0,0,0,5.21-8.2Zm30,9.78H33.17V-16.24h2.04ZM31.39-4.08,30.17-2.54a10.758,10.758,0,0,1-2.4-2.25,9.394,9.394,0,0,1-1.68-2.89,8.878,8.878,0,0,1-1.65,3.11,10.2,10.2,0,0,1-2.69,2.43l-1.26-1.5A10.16,10.16,0,0,0,23.8-7.15a9.215,9.215,0,0,0,1.21-4.63V-14.7h2.12v2.8a9.138,9.138,0,0,0,1.13,4.54A9.049,9.049,0,0,0,31.39-4.08Zm6.66-9.32v-1.7h9.38v1.7H43.87v.04a4.918,4.918,0,0,0,1.19,3.27,6.33,6.33,0,0,0,2.85,1.97L46.79-6.48a8.007,8.007,0,0,1-2.3-1.48,6.827,6.827,0,0,1-1.68-2.2,5.748,5.748,0,0,1-1.6,2.46A7.558,7.558,0,0,1,38.59-6l-1.2-1.58a7.3,7.3,0,0,0,3.16-2.26,5.377,5.377,0,0,0,1.22-3.46v-.1Zm2,8.54H51.69V1.6H49.63V-3.24H40.05Zm14.24-5.36H51.67V-5.8H49.61V-16.24h2.06v4.32h2.62Z" transform="translate(136 36)"/>
  </g>
</svg>
