<svg xmlns="http://www.w3.org/2000/svg" width="231" height="172" viewBox="0 0 231 172"><defs><style>.cls-1,.cls-5{fill:none;}.cls-1{stroke:#000;stroke-width:2px;}.cls-2{fill:#acacac;}.cls-3{fill:#ff006b;}.cls-4{fill:#fff;}</style></defs><title>img_description_sec3_chart2_w230_1</title><g id="Layer_2" data-name="Layer 2"><g id="Layer_1-2" data-name="Layer 1"><g id="_4_img2_2" data-name=" 4 img2 2"><g id="그룹_2090" data-name="그룹 2090"><path id="선_2" data-name="선 2" class="cls-1" d="M1,137.34H231"/><path id="선_3" data-name="선 3" class="cls-1" d="M1,27.34v110"/></g><g id="그룹_2097" data-name="그룹 2097"><g id="그룹_2089" data-name="그룹 2089"><g id="그룹_2091" data-name="그룹 2091"><g id="그룹_2110" data-name="그룹 2110"><g id="사각형_16" data-name="사각형 16"><path class="cls-2" d="M32,84.84H96v53H32Z"/><path class="cls-1" d="M33,85.84H95v51H33Z"/></g><g id="패스_699" data-name="패스 699"><path d="M114.38,136.59H97V86.06l17.38,15.41Z"/><path d="M98,88.28v47.31h15.38V101.92L98,88.29m-2-4.45L115.38,101v36.57H96Z"/></g></g><g id="그룹_2092" data-name="그룹 2092"><g id="사각형_15" data-name="사각형 15"><path class="cls-3" d="M110,35.84h64v102H110Z"/><path class="cls-1" d="M111,36.84h62v100H111Z"/></g><g id="패스_698" data-name="패스 698"><path d="M192.63,137.09H174.25V37l18.38,17.76Z"/><path d="M174.75,38.2v98.39h17.38V55l-17.38-16.8m-1-2.35,19.38,18.72v83H173.75V35.84Z"/></g></g></g></g><path id="패스_9478" data-name="패스 9478" class="cls-4" d="M33.5,58.29h6.61v2.83a11.23,11.23,0,0,1-6.24,10.11l-1-1.13a9.74,9.74,0,0,0,5.71-8.84V59.65h-5.1ZM45.23,58V71.82h-1.5V58ZM59.94,70.32v1.34H48.05v-3.6h1.5v2.26Zm-.16-12v1.36h-4.6a8,8,0,0,1-.65,1,10.83,10.83,0,0,0,5.71,2.26l-.74,1.2a11.9,11.9,0,0,1-5.85-2.48,10.31,10.31,0,0,1-5.27,2.68l-.78-1.21a8.54,8.54,0,0,0,5.9-3.44H48V58.29Zm-5.19,7.37h5.94V67H47.3V65.66h5.79V63.54h1.5ZM79.44,61.3v1.36h-2v3.87H76V58h1.5v3.3Zm-6.3-3v7.15H66.06V58.29h1.5v2.19h4.07V58.29Zm-5.57,5.79h4.06V61.82H67.57ZM74.34,72H69.66c-2.25,0-3.45-1.14-3.45-2.63s1.2-2.62,3.45-2.62h4.68c2.25,0,3.45,1.12,3.45,2.62S76.59,72,74.34,72Zm-4.68-1.33h4.68c1.2,0,1.87-.48,1.87-1.3S75.54,68,74.34,68H69.66c-1.2,0-1.87.48-1.87,1.3S68.46,70.64,69.66,70.64ZM83.16,58h1.5a11.56,11.56,0,0,1-.33,2.75,12,12,0,0,0,4.13,4l-.92,1.14a13.72,13.72,0,0,1-3.76-3.44,9.21,9.21,0,0,1-2.9,3.85l-1.2-1A8.75,8.75,0,0,0,83.17,58Zm9,9v5h-1.5v-3.6H80.77V67Zm-1.5-.8V58h1.5v8.22Z"/><path id="패스_9479" data-name="패스 9479" class="cls-4" d="M33.5,58.29h6.61v2.83a11.23,11.23,0,0,1-6.24,10.11l-1-1.13a9.74,9.74,0,0,0,5.71-8.84V59.65h-5.1ZM45.23,58V71.82h-1.5V58ZM59.94,70.32v1.34H48.05v-3.6h1.5v2.26Zm-.16-12v1.36h-4.6a8,8,0,0,1-.65,1,10.83,10.83,0,0,0,5.71,2.26l-.74,1.2a11.9,11.9,0,0,1-5.85-2.48,10.31,10.31,0,0,1-5.27,2.68l-.78-1.21a8.54,8.54,0,0,0,5.9-3.44H48V58.29Zm-5.19,7.37h5.94V67H47.3V65.66h5.79V63.54h1.5ZM79.44,61.3v1.36h-2v3.87H76V58h1.5v3.3Zm-6.3-3v7.15H66.06V58.29h1.5v2.19h4.07V58.29Zm-5.57,5.79h4.06V61.82H67.57ZM74.34,72H69.66c-2.25,0-3.45-1.14-3.45-2.63s1.2-2.62,3.45-2.62h4.68c2.25,0,3.45,1.12,3.45,2.62S76.59,72,74.34,72Zm-4.68-1.33h4.68c1.2,0,1.87-.48,1.87-1.3S75.54,68,74.34,68H69.66c-1.2,0-1.87.48-1.87,1.3S68.46,70.64,69.66,70.64ZM83.16,58h1.5a11.56,11.56,0,0,1-.33,2.75,12,12,0,0,0,4.13,4l-.92,1.14a13.72,13.72,0,0,1-3.76-3.44,9.21,9.21,0,0,1-2.9,3.85l-1.2-1A8.75,8.75,0,0,0,83.17,58Zm9,9v5h-1.5v-3.6H80.77V67Zm-1.5-.8V58h1.5v8.22Z"/><path id="패스_9480" data-name="패스 9480" class="cls-4" d="M115.11,22.52l.5-3.68H114l-.5,3.68H112l.5-3.68h-1.54V17.5h1.73l.43-3.17h-1.63V13h1.81l.51-3.7h1.5l-.51,3.7h1.64l.52-3.7h1.5L117.9,13h1.57v1.35h-1.74l-.43,3.17H119v1.34h-1.84l-.5,3.68Zm.69-5,.43-3.17h-1.65l-.43,3.17ZM132.54,9V22.82H131V15.91h-2.26v6.75h-1.5V9.06h1.5v5.49H131V9ZM120.81,22.22V9.29h1.5V20.86h3.85v1.36Zm26.43-.9v1.34H135.35v-4h1.5v2.7Zm-.08-6.94H141.9v1.84h5.93v1.34H134.6V16.22h5.79V14.38h-5V9.29h11.73v1.34H136.86v2.42h10.3ZM161.34,9V22.82h-1.5V15.91h-2.26v6.75h-1.5V9.06h1.5v5.49h2.25V9ZM149.61,22.22V9.29h1.5V20.86H155v1.36ZM176,14H164.15V9.29h11.73v1.33H165.66v2.06H176ZM163.4,15.32h13.23v1.34H163.4Zm2.26,6H176v1.32H164.15V18h11.73v1.32H165.66Z"/><path id="패스_9482" data-name="패스 9482" class="cls-4" d="M115.11,22.52l.5-3.68H114l-.5,3.68H112l.5-3.68h-1.54V17.5h1.73l.43-3.17h-1.63V13h1.81l.51-3.7h1.5l-.51,3.7h1.64l.52-3.7h1.5L117.9,13h1.57v1.35h-1.74l-.43,3.17H119v1.34h-1.84l-.5,3.68Zm.69-5,.43-3.17h-1.65l-.43,3.17ZM132.54,9V22.82H131V15.91h-2.26v6.75h-1.5V9.06h1.5v5.49H131V9ZM120.81,22.22V9.29h1.5V20.86h3.85v1.36Zm26.43-.9v1.34H135.35v-4h1.5v2.7Zm-.08-6.94H141.9v1.84h5.93v1.34H134.6V16.22h5.79V14.38h-5V9.29h11.73v1.34H136.86v2.42h10.3ZM161.34,9V22.82h-1.5V15.91h-2.26v6.75h-1.5V9.06h1.5v5.49h2.25V9ZM149.61,22.22V9.29h1.5V20.86H155v1.36ZM176,14H164.15V9.29h11.73v1.33H165.66v2.06H176ZM163.4,15.32h13.23v1.34H163.4Zm2.26,6H176v1.32H164.15V18h11.73v1.32H165.66Z"/><path id="패스_11571" data-name="패스 11571" class="cls-4" d="M123.31,81.06c.08.34.1,1.72.12,2.41v1.16h-.66c-.37,0-2.33,0-2.74-.12v3.07c.34-.07,1.74-.1,2.41-.12h1v1.13a22.27,22.27,0,0,1-.12,2.41h3.08c-.09-.42-.12-2.37-.12-2.74v-.8h1a22,22,0,0,1,2.41.12V84.51a19.45,19.45,0,0,1-2.41.12h-1V83.47a19.45,19.45,0,0,1,.12-2.41Zm11.14-.8c-.52,1.06-2.06,1.62-3.56,1.77l.39,2.76a7.29,7.29,0,0,0,2.71-.66v5.33h-.59c-.86,0-1.73,0-2.59-.12v2.91c.86-.08,1.73-.12,2.59-.12h3.65a17.42,17.42,0,0,1,2.28.12V89.34a17.42,17.42,0,0,1-2.28.12h-.16v-9.2Zm10.45,9.48c-1.29,0-2-1.08-1.85-2.52a2,2,0,0,1,1.81-.86c1.06,0,1.77.53,1.75,1.64a1.67,1.67,0,0,1-1.6,1.74Zm.16,2.66a4.12,4.12,0,0,0,4.25-4v-.3c0-2.76-1.55-4.22-3.9-4.22a4,4,0,0,0-2.36.71,2.13,2.13,0,0,1,2.21-2,2.88,2.88,0,0,1,2.05.75l1.55-1.77a4.56,4.56,0,0,0-3.7-1.59c-2.82,0-5.1,1.8-5.1,6.06C140.05,90.55,142,92.4,145.06,92.4Zm14.2-12.3a3.89,3.89,0,0,1-.64,1.14l-7,10.32a4.46,4.46,0,0,1-.49.57h3.4a.67.67,0,0,1,.16-.47l7-10.2a13.39,13.39,0,0,1,1-1.36Zm-1.51,9a3,3,0,0,0,2.72,3.18,3.37,3.37,0,0,0,.55,0,2.94,2.94,0,0,0,3.25-2.6,3.62,3.62,0,0,0,0-.57,2.94,2.94,0,0,0-2.67-3.18,2.91,2.91,0,0,0-.59,0,3,3,0,0,0-3.26,2.61A2.72,2.72,0,0,0,157.75,89.08ZM149.62,83a2.94,2.94,0,0,0,2.72,3.17,2,2,0,0,0,.55,0,2.94,2.94,0,0,0,3.25-2.6,2.62,2.62,0,0,0,0-.56,2.94,2.94,0,0,0-2.66-3.19,3.85,3.85,0,0,0-.59,0,3,3,0,0,0-3.26,2.6A2.81,2.81,0,0,0,149.62,83Zm10.56,6.07a.78.78,0,0,1,.71-.85H161a.78.78,0,0,1,.84.72v.13a.77.77,0,0,1-.71.84.29.29,0,0,1-.13,0,.77.77,0,0,1-.84-.71ZM152.05,83a.78.78,0,0,1,.71-.85h.13a.78.78,0,0,1,.84.73V83a.77.77,0,0,1-.71.84h-.13a.77.77,0,0,1-.84-.71Z"/></g><path id="패스_11561" data-name="패스 11561" class="cls-4" d="M40.27,169.63v-2.81A3.44,3.44,0,0,1,42,163.44l2.62-1.71a2.51,2.51,0,0,0,1.21-2.23c0-1.35-.58-2-1.94-2s-1.95.69-1.95,2H40.27c0-2.54,1.44-3.55,3.64-3.55s3.63,1,3.63,3.55A3.74,3.74,0,0,1,45.63,163L43,164.64a2.2,2.2,0,0,0-1.1,2.14v1.36h5.6v1.49Zm14.63-3.44v-6.6c0-1.35-.68-2.13-1.94-2.13s-2,.78-2,2.13v6.6c0,1.35.67,2.11,2,2.11S54.9,167.54,54.9,166.19Zm1.7-6.77v6.93a3.29,3.29,0,0,1-3.09,3.48,3.37,3.37,0,0,1-.55,0,3.28,3.28,0,0,1-3.62-2.91,3.33,3.33,0,0,1,0-.55v-6.93a3.29,3.29,0,0,1,3.08-3.48,3.49,3.49,0,0,1,.56,0,3.29,3.29,0,0,1,3.63,2.91A3.51,3.51,0,0,1,56.6,159.42Zm15.37-4V167.2H70.28v-5.69H64.84V160h5.44v-1.37H64.84v-1.49h5.44v-1.69Zm-4.07,7.43v1.53H58.77v-8.64h1.7v7.11Zm4.41,6.43v1.51h-13v-4.9H61v3.39Zm11.14-8.46h1.69v4.41h1.52v1.51H85.14v2.86H83.45v-2.86H78.2V165.6L82.77,156h1.87l-4.23,9.31h3Zm4.2,1.42v-1.48H98v1.48H92.64v2h-1.7v-2Zm1.18,4v-1.48h12.69v3.82h-11v.93h11.34V171h-13v-3.87h11v-.9Zm2.54-10.79h2.54c2,0,3.22.92,3.22,2.36s-1.19,2.38-3.22,2.38H91.37c-2,0-3.22-.94-3.22-2.38s1.19-2.35,3.22-2.35Zm2.54,1.48H91.37c-1,0-1.53.38-1.53.88s.52.88,1.53.88h2.54c1,0,1.53-.37,1.53-.88s-.52-.88-1.53-.88Zm1.93,7.31v-1.48h4v-7.3h1.69v8.78Zm21.06-1.85,1.53.68A3,3,0,0,1,114.7,165a3.5,3.5,0,0,1-.65-.3l-1.8-.83a1.61,1.61,0,0,0-2.24.44,1.4,1.4,0,0,0-.22.48l-1.52-.69a3.06,3.06,0,0,1,4.54-1.69l1.78.82a1.54,1.54,0,0,0,2.13-.44A1.46,1.46,0,0,0,116.9,162.38Zm7.52,7.25v-2.81a3.44,3.44,0,0,1,1.75-3.38l2.62-1.71A2.51,2.51,0,0,0,130,159.5c0-1.35-.58-2-1.94-2s-2,.69-2,2h-1.69c0-2.54,1.44-3.55,3.64-3.55s3.63,1,3.63,3.55a3.74,3.74,0,0,1-1.91,3.47l-2.59,1.67a2.22,2.22,0,0,0-1.1,2.15v1.35h5.6v1.49Zm12.1,0h-1.7v-12h-1.53v-1.53h3.23Zm16.72-14.18V167.2h-1.69v-5.69h-5.44V160h5.44v-1.37h-5.44v-1.49h5.44v-1.69Zm-4.07,7.43v1.53H140v-8.64h1.7v7.11Zm4.41,6.43v1.51h-13v-4.9h1.69v3.39Zm14-4.49v1.79c0,2-1.37,3.2-3.82,3.2s-3.8-1.19-3.8-3.2v-.9h1.7v.81c0,1.27.76,1.78,2.11,1.78s2.12-.5,2.12-1.78v-1.6c0-1.1-.68-1.7-2-1.7H162.6v-1.53h1.19a1.62,1.62,0,0,0,1.77-1.45,1.93,1.93,0,0,0,0-.24v-.92c0-1-.68-1.62-1.87-1.62s-1.86.6-1.86,1.62v.6h-1.69V159c0-2,1.53-3,3.55-3s3.56,1,3.56,3v1.1a2.28,2.28,0,0,1-1.53,2.3A2.28,2.28,0,0,1,167.6,164.82Zm1.5-2.55v-1.48h10.35v1.48h-5.37v2h-1.69v-2Zm1.19,4v-1.48H183v3.82H172v.93h11.34V171h-13v-3.87h11v-.9Zm2.53-10.78h2.54c2,0,3.22.91,3.22,2.35s-1.19,2.38-3.22,2.38h-2.54c-2,0-3.22-.94-3.22-2.38S170.79,155.45,172.82,155.45Zm2.54,1.47h-2.54c-1,0-1.53.38-1.53.88s.52.89,1.53.89h2.54c1,0,1.53-.38,1.53-.89S176.37,156.92,175.36,156.92Zm1.93,7.31v-1.48h4v-7.3H183v8.78Z"/><path id="패스_11562" data-name="패스 11562" class="cls-4" d="M40.27,169.63v-2.81A3.44,3.44,0,0,1,42,163.44l2.62-1.71a2.51,2.51,0,0,0,1.21-2.23c0-1.35-.58-2-1.94-2s-1.95.69-1.95,2H40.27c0-2.54,1.44-3.55,3.64-3.55s3.63,1,3.63,3.55A3.74,3.74,0,0,1,45.63,163L43,164.64a2.2,2.2,0,0,0-1.1,2.14v1.36h5.6v1.49Zm14.63-3.44v-6.6c0-1.35-.68-2.13-1.94-2.13s-2,.78-2,2.13v6.6c0,1.35.67,2.11,2,2.11S54.9,167.54,54.9,166.19Zm1.7-6.77v6.93a3.29,3.29,0,0,1-3.09,3.48,3.37,3.37,0,0,1-.55,0,3.28,3.28,0,0,1-3.62-2.91,3.33,3.33,0,0,1,0-.55v-6.93a3.29,3.29,0,0,1,3.08-3.48,3.49,3.49,0,0,1,.56,0,3.29,3.29,0,0,1,3.63,2.91A3.51,3.51,0,0,1,56.6,159.42Zm15.37-4V167.2H70.28v-5.69H64.84V160h5.44v-1.37H64.84v-1.49h5.44v-1.69Zm-4.07,7.43v1.53H58.77v-8.64h1.7v7.11Zm4.41,6.43v1.51h-13v-4.9H61v3.39Zm11.14-8.46h1.69v4.41h1.52v1.51H85.14v2.86H83.45v-2.86H78.2V165.6L82.77,156h1.87l-4.23,9.31h3Zm4.2,1.42v-1.48H98v1.48H92.64v2h-1.7v-2Zm1.18,4v-1.48h12.69v3.82h-11v.93h11.34V171h-13v-3.87h11v-.9Zm2.54-10.79h2.54c2,0,3.22.92,3.22,2.36s-1.19,2.38-3.22,2.38H91.37c-2,0-3.22-.94-3.22-2.38s1.19-2.35,3.22-2.35Zm2.54,1.48H91.37c-1,0-1.53.38-1.53.88s.52.88,1.53.88h2.54c1,0,1.53-.37,1.53-.88s-.52-.88-1.53-.88Zm1.93,7.31v-1.48h4v-7.3h1.69v8.78Zm21.06-1.85,1.53.68A3,3,0,0,1,114.7,165a3.5,3.5,0,0,1-.65-.3l-1.8-.83a1.61,1.61,0,0,0-2.24.44,1.4,1.4,0,0,0-.22.48l-1.52-.69a3.06,3.06,0,0,1,4.54-1.69l1.78.82a1.54,1.54,0,0,0,2.13-.44A1.46,1.46,0,0,0,116.9,162.38Zm7.52,7.25v-2.81a3.44,3.44,0,0,1,1.75-3.38l2.62-1.71A2.51,2.51,0,0,0,130,159.5c0-1.35-.58-2-1.94-2s-2,.69-2,2h-1.69c0-2.54,1.44-3.55,3.64-3.55s3.63,1,3.63,3.55a3.74,3.74,0,0,1-1.91,3.47l-2.59,1.67a2.22,2.22,0,0,0-1.1,2.15v1.35h5.6v1.49Zm12.1,0h-1.7v-12h-1.53v-1.53h3.23Zm16.72-14.18V167.2h-1.69v-5.69h-5.44V160h5.44v-1.37h-5.44v-1.49h5.44v-1.69Zm-4.07,7.43v1.53H140v-8.64h1.7v7.11Zm4.41,6.43v1.51h-13v-4.9h1.69v3.39Zm14-4.49v1.79c0,2-1.37,3.2-3.82,3.2s-3.8-1.19-3.8-3.2v-.9h1.7v.81c0,1.27.76,1.78,2.11,1.78s2.12-.5,2.12-1.78v-1.6c0-1.1-.68-1.7-2-1.7H162.6v-1.53h1.19a1.62,1.62,0,0,0,1.77-1.45,1.93,1.93,0,0,0,0-.24v-.92c0-1-.68-1.62-1.87-1.62s-1.86.6-1.86,1.62v.6h-1.69V159c0-2,1.53-3,3.55-3s3.56,1,3.56,3v1.1a2.28,2.28,0,0,1-1.53,2.3A2.28,2.28,0,0,1,167.6,164.82Zm1.5-2.55v-1.48h10.35v1.48h-5.37v2h-1.69v-2Zm1.19,4v-1.48H183v3.82H172v.93h11.34V171h-13v-3.87h11v-.9Zm2.53-10.78h2.54c2,0,3.22.91,3.22,2.35s-1.19,2.38-3.22,2.38h-2.54c-2,0-3.22-.94-3.22-2.38S170.79,155.45,172.82,155.45Zm2.54,1.47h-2.54c-1,0-1.53.38-1.53.88s.52.89,1.53.89h2.54c1,0,1.53-.38,1.53-.89S176.37,156.92,175.36,156.92Zm1.93,7.31v-1.48h4v-7.3H183v8.78Z"/></g><rect class="cls-5" width="230" height="172"/></g></g></svg>