<svg xmlns="http://www.w3.org/2000/svg" width="231" height="172" viewBox="0 0 231 172"><defs><style>.cls-1,.cls-5{fill:none;}.cls-1{stroke:#000;stroke-width:2px;}.cls-2{fill:#fff;}.cls-3{fill:#acacac;}.cls-4{fill:#ff006b;}</style></defs><title>img_description_sec3_chart1_w230</title><g id="Layer_2" data-name="Layer 2"><g id="Layer_1-2" data-name="Layer 1"><g id="_4_img1_2" data-name=" 4 img1 2"><g id="그룹_2090" data-name="그룹 2090"><path id="선_2" data-name="선 2" class="cls-1" d="M1,138.31H231"/><path id="선_3" data-name="선 3" class="cls-1" d="M1,28.31v110"/></g><path id="패스_11561" data-name="패스 11561" class="cls-2" d="M40.27,169.63v-2.81A3.44,3.44,0,0,1,42,163.44l2.62-1.71a2.51,2.51,0,0,0,1.21-2.23c0-1.35-.58-2-1.94-2s-1.95.69-1.95,2H40.27c0-2.54,1.44-3.55,3.64-3.55s3.63,1,3.63,3.55A3.74,3.74,0,0,1,45.63,163L43,164.64a2.2,2.2,0,0,0-1.1,2.14v1.36h5.6v1.49Zm14.63-3.44v-6.6c0-1.35-.68-2.13-1.94-2.13s-2,.78-2,2.13v6.6c0,1.35.67,2.11,2,2.11S54.9,167.54,54.9,166.19Zm1.7-6.77v6.93a3.29,3.29,0,0,1-3.09,3.48,3.37,3.37,0,0,1-.55,0,3.28,3.28,0,0,1-3.62-2.91,3.33,3.33,0,0,1,0-.55v-6.93a3.29,3.29,0,0,1,3.08-3.48,3.49,3.49,0,0,1,.56,0,3.29,3.29,0,0,1,3.63,2.91A3.51,3.51,0,0,1,56.6,159.42Zm15.37-4V167.2H70.28v-5.69H64.84V160h5.44v-1.37H64.84v-1.49h5.44v-1.69Zm-4.07,7.43v1.53H58.77v-8.64h1.7v7.11Zm4.41,6.43v1.51h-13v-4.9H61v3.39Zm11.14-8.46h1.69v4.41h1.52v1.51H85.14v2.86H83.45v-2.86H78.2V165.6L82.77,156h1.87l-4.23,9.31h3Zm4.2,1.42v-1.48H98v1.48H92.64v2h-1.7v-2Zm1.18,4v-1.48h12.69v3.82h-11v.93h11.34V171h-13v-3.87h11v-.9Zm2.54-10.79h2.54c2,0,3.22.92,3.22,2.36s-1.19,2.38-3.22,2.38H91.37c-2,0-3.22-.94-3.22-2.38s1.19-2.35,3.22-2.35Zm2.54,1.48H91.37c-1,0-1.53.38-1.53.88s.52.88,1.53.88h2.54c1,0,1.53-.37,1.53-.88s-.52-.88-1.53-.88Zm1.93,7.31v-1.48h4v-7.3h1.69v8.78Zm21.06-1.85,1.53.68A3,3,0,0,1,114.7,165a3.5,3.5,0,0,1-.65-.3l-1.8-.83a1.61,1.61,0,0,0-2.24.44,1.4,1.4,0,0,0-.22.48l-1.52-.69a3.06,3.06,0,0,1,4.54-1.69l1.78.82a1.54,1.54,0,0,0,2.13-.44A1.46,1.46,0,0,0,116.9,162.38Zm7.52,7.25v-2.81a3.44,3.44,0,0,1,1.75-3.38l2.62-1.71A2.51,2.51,0,0,0,130,159.5c0-1.35-.58-2-1.94-2s-2,.69-2,2h-1.69c0-2.54,1.44-3.55,3.64-3.55s3.63,1,3.63,3.55a3.74,3.74,0,0,1-1.91,3.47l-2.59,1.67a2.22,2.22,0,0,0-1.1,2.15v1.35h5.6v1.49Zm12.1,0h-1.7v-12h-1.53v-1.53h3.23Zm16.72-14.18V167.2h-1.69v-5.69h-5.44V160h5.44v-1.37h-5.44v-1.49h5.44v-1.69Zm-4.07,7.43v1.53H140v-8.64h1.7v7.11Zm4.41,6.43v1.51h-13v-4.9h1.69v3.39Zm14-4.49v1.79c0,2-1.37,3.2-3.82,3.2s-3.8-1.19-3.8-3.2v-.9h1.7v.81c0,1.27.76,1.78,2.11,1.78s2.12-.5,2.12-1.78v-1.6c0-1.1-.68-1.7-2-1.7H162.6v-1.53h1.19a1.62,1.62,0,0,0,1.77-1.45,1.93,1.93,0,0,0,0-.24v-.92c0-1-.68-1.62-1.87-1.62s-1.86.6-1.86,1.62v.6h-1.69V159c0-2,1.53-3,3.55-3s3.56,1,3.56,3v1.1a2.28,2.28,0,0,1-1.53,2.3A2.28,2.28,0,0,1,167.6,164.82Zm1.5-2.55v-1.48h10.35v1.48h-5.37v2h-1.69v-2Zm1.19,4v-1.48H183v3.82H172v.93h11.34V171h-13v-3.87h11v-.9Zm2.53-10.78h2.54c2,0,3.22.91,3.22,2.35s-1.19,2.38-3.22,2.38h-2.54c-2,0-3.22-.94-3.22-2.38S170.79,155.45,172.82,155.45Zm2.54,1.47h-2.54c-1,0-1.53.38-1.53.88s.52.89,1.53.89h2.54c1,0,1.53-.38,1.53-.89S176.37,156.92,175.36,156.92Zm1.93,7.31v-1.48h4v-7.3H183v8.78Z"/><path id="패스_11562" data-name="패스 11562" class="cls-2" d="M40.27,169.63v-2.81A3.44,3.44,0,0,1,42,163.44l2.62-1.71a2.51,2.51,0,0,0,1.21-2.23c0-1.35-.58-2-1.94-2s-1.95.69-1.95,2H40.27c0-2.54,1.44-3.55,3.64-3.55s3.63,1,3.63,3.55A3.74,3.74,0,0,1,45.63,163L43,164.64a2.2,2.2,0,0,0-1.1,2.14v1.36h5.6v1.49Zm14.63-3.44v-6.6c0-1.35-.68-2.13-1.94-2.13s-2,.78-2,2.13v6.6c0,1.35.67,2.11,2,2.11S54.9,167.54,54.9,166.19Zm1.7-6.77v6.93a3.29,3.29,0,0,1-3.09,3.48,3.37,3.37,0,0,1-.55,0,3.28,3.28,0,0,1-3.62-2.91,3.33,3.33,0,0,1,0-.55v-6.93a3.29,3.29,0,0,1,3.08-3.48,3.49,3.49,0,0,1,.56,0,3.29,3.29,0,0,1,3.63,2.91A3.51,3.51,0,0,1,56.6,159.42Zm15.37-4V167.2H70.28v-5.69H64.84V160h5.44v-1.37H64.84v-1.49h5.44v-1.69Zm-4.07,7.43v1.53H58.77v-8.64h1.7v7.11Zm4.41,6.43v1.51h-13v-4.9H61v3.39Zm11.14-8.46h1.69v4.41h1.52v1.51H85.14v2.86H83.45v-2.86H78.2V165.6L82.77,156h1.87l-4.23,9.31h3Zm4.2,1.42v-1.48H98v1.48H92.64v2h-1.7v-2Zm1.18,4v-1.48h12.69v3.82h-11v.93h11.34V171h-13v-3.87h11v-.9Zm2.54-10.79h2.54c2,0,3.22.92,3.22,2.36s-1.19,2.38-3.22,2.38H91.37c-2,0-3.22-.94-3.22-2.38s1.19-2.35,3.22-2.35Zm2.54,1.48H91.37c-1,0-1.53.38-1.53.88s.52.88,1.53.88h2.54c1,0,1.53-.37,1.53-.88s-.52-.88-1.53-.88Zm1.93,7.31v-1.48h4v-7.3h1.69v8.78Zm21.06-1.85,1.53.68A3,3,0,0,1,114.7,165a3.5,3.5,0,0,1-.65-.3l-1.8-.83a1.61,1.61,0,0,0-2.24.44,1.4,1.4,0,0,0-.22.48l-1.52-.69a3.06,3.06,0,0,1,4.54-1.69l1.78.82a1.54,1.54,0,0,0,2.13-.44A1.46,1.46,0,0,0,116.9,162.38Zm7.52,7.25v-2.81a3.44,3.44,0,0,1,1.75-3.38l2.62-1.71A2.51,2.51,0,0,0,130,159.5c0-1.35-.58-2-1.94-2s-2,.69-2,2h-1.69c0-2.54,1.44-3.55,3.64-3.55s3.63,1,3.63,3.55a3.74,3.74,0,0,1-1.91,3.47l-2.59,1.67a2.22,2.22,0,0,0-1.1,2.15v1.35h5.6v1.49Zm12.1,0h-1.7v-12h-1.53v-1.53h3.23Zm16.72-14.18V167.2h-1.69v-5.69h-5.44V160h5.44v-1.37h-5.44v-1.49h5.44v-1.69Zm-4.07,7.43v1.53H140v-8.64h1.7v7.11Zm4.41,6.43v1.51h-13v-4.9h1.69v3.39Zm14-4.49v1.79c0,2-1.37,3.2-3.82,3.2s-3.8-1.19-3.8-3.2v-.9h1.7v.81c0,1.27.76,1.78,2.11,1.78s2.12-.5,2.12-1.78v-1.6c0-1.1-.68-1.7-2-1.7H162.6v-1.53h1.19a1.62,1.62,0,0,0,1.77-1.45,1.93,1.93,0,0,0,0-.24v-.92c0-1-.68-1.62-1.87-1.62s-1.86.6-1.86,1.62v.6h-1.69V159c0-2,1.53-3,3.55-3s3.56,1,3.56,3v1.1a2.28,2.28,0,0,1-1.53,2.3A2.28,2.28,0,0,1,167.6,164.82Zm1.5-2.55v-1.48h10.35v1.48h-5.37v2h-1.69v-2Zm1.19,4v-1.48H183v3.82H172v.93h11.34V171h-13v-3.87h11v-.9Zm2.53-10.78h2.54c2,0,3.22.91,3.22,2.35s-1.19,2.38-3.22,2.38h-2.54c-2,0-3.22-.94-3.22-2.38S170.79,155.45,172.82,155.45Zm2.54,1.47h-2.54c-1,0-1.53.38-1.53.88s.52.89,1.53.89h2.54c1,0,1.53-.38,1.53-.89S176.37,156.92,175.36,156.92Zm1.93,7.31v-1.48h4v-7.3H183v8.78Z"/><g id="그룹_2097" data-name="그룹 2097"><g id="그룹_2089" data-name="그룹 2089"><g id="그룹_2091" data-name="그룹 2091"><g id="그룹_2110" data-name="그룹 2110"><g id="사각형_16" data-name="사각형 16"><path class="cls-3" d="M32,74.84H96v64H32Z"/><path class="cls-1" d="M33,75.84H95v62H33Z"/></g><g id="패스_699" data-name="패스 699"><path d="M114.38,137.59H97V77.34l17.38,18.28Z"/><path d="M98,79.84v56.75h15.38V96L98,79.84m-2-5,19.38,20.38v43.37H96Z"/></g></g><g id="그룹_2092" data-name="그룹 2092"><g id="사각형_15" data-name="사각형 15"><path class="cls-4" d="M110,27.84h64v111H110Z"/><path class="cls-1" d="M111,28.84h62v109H111Z"/></g><g id="패스_698" data-name="패스 698"><path d="M192.63,138.09H174.25v-109l18.38,19.33Z"/><path d="M174.75,30.34V137.59h17.38v-89L174.75,30.34m-1-2.5,19.38,20.38v90.37H173.75Z"/></g></g></g></g><path id="패스_9448" data-name="패스 9448" class="cls-2" d="M33.5,48.29h6.61v2.83a11.23,11.23,0,0,1-6.24,10.11l-1-1.13a9.74,9.74,0,0,0,5.71-8.84V49.65h-5.1ZM45.23,48V61.82h-1.5V48ZM59.94,60.32v1.34H48.05v-3.6h1.5v2.26Zm-.16-12v1.36h-4.6a8,8,0,0,1-.65,1,10.83,10.83,0,0,0,5.71,2.26l-.74,1.2a11.9,11.9,0,0,1-5.85-2.48,10.31,10.31,0,0,1-5.27,2.68l-.78-1.21a8.54,8.54,0,0,0,5.9-3.44H48V48.29Zm-5.19,7.37h5.94V57H47.3V55.66h5.79V53.54h1.5ZM79.44,51.3v1.36h-2v3.87H76V48h1.5v3.3Zm-6.3-3v7.15H66.06V48.29h1.5v2.19h4.07V48.29Zm-5.57,5.79h4.06V51.82H67.57ZM74.34,62H69.66c-2.25,0-3.45-1.14-3.45-2.63s1.2-2.62,3.45-2.62h4.68c2.25,0,3.45,1.12,3.45,2.62S76.59,62,74.34,62Zm-4.68-1.33h4.68c1.2,0,1.87-.48,1.87-1.3S75.54,58,74.34,58H69.66c-1.2,0-1.87.48-1.87,1.3S68.46,60.64,69.66,60.64ZM83.16,48h1.5a11.56,11.56,0,0,1-.33,2.75,12,12,0,0,0,4.13,4l-.92,1.14a13.72,13.72,0,0,1-3.76-3.44,9.21,9.21,0,0,1-2.9,3.85l-1.2-1A8.75,8.75,0,0,0,83.17,48Zm9,9V62h-1.5v-3.6H80.77V57Zm-1.5-.8V48h1.5v8.22Z"/><path id="패스_9495" data-name="패스 9495" class="cls-2" d="M33.5,48.29h6.61v2.83a11.23,11.23,0,0,1-6.24,10.11l-1-1.13a9.74,9.74,0,0,0,5.71-8.84V49.65h-5.1ZM45.23,48V61.82h-1.5V48ZM59.94,60.32v1.34H48.05v-3.6h1.5v2.26Zm-.16-12v1.36h-4.6a8,8,0,0,1-.65,1,10.83,10.83,0,0,0,5.71,2.26l-.74,1.2a11.9,11.9,0,0,1-5.85-2.48,10.31,10.31,0,0,1-5.27,2.68l-.78-1.21a8.54,8.54,0,0,0,5.9-3.44H48V48.29Zm-5.19,7.37h5.94V57H47.3V55.66h5.79V53.54h1.5ZM79.44,51.3v1.36h-2v3.87H76V48h1.5v3.3Zm-6.3-3v7.15H66.06V48.29h1.5v2.19h4.07V48.29Zm-5.57,5.79h4.06V51.82H67.57ZM74.34,62H69.66c-2.25,0-3.45-1.14-3.45-2.63s1.2-2.62,3.45-2.62h4.68c2.25,0,3.45,1.12,3.45,2.62S76.59,62,74.34,62Zm-4.68-1.33h4.68c1.2,0,1.87-.48,1.87-1.3S75.54,58,74.34,58H69.66c-1.2,0-1.87.48-1.87,1.3S68.46,60.64,69.66,60.64ZM83.16,48h1.5a11.56,11.56,0,0,1-.33,2.75,12,12,0,0,0,4.13,4l-.92,1.14a13.72,13.72,0,0,1-3.76-3.44,9.21,9.21,0,0,1-2.9,3.85l-1.2-1A8.75,8.75,0,0,0,83.17,48Zm9,9V62h-1.5v-3.6H80.77V57Zm-1.5-.8V48h1.5v8.22Z"/><path id="패스_9447" data-name="패스 9447" class="cls-2" d="M115.11,14.52l.5-3.68H114l-.5,3.68H112l.5-3.68h-1.54V9.5h1.73l.43-3.17h-1.63V5h1.81l.51-3.7h1.5L114.76,5h1.64l.52-3.7h1.5L117.9,5h1.57V6.33h-1.74L117.3,9.5H119v1.34h-1.84l-.5,3.68Zm.69-5,.43-3.17h-1.65l-.43,3.17ZM132.54,1V14.82H131V7.91h-2.26v6.75h-1.5V1.06h1.5V6.55H131V1ZM120.81,14.22V1.29h1.5V12.86h3.85v1.36Zm26.43-.9v1.34H135.35v-4h1.5v2.7Zm-.08-6.94H141.9V8.22h5.93V9.56H134.6V8.22h5.79V6.38h-5V1.29h11.73V2.63H136.86V5.05h10.3ZM161.34,1V14.82h-1.5V7.91h-2.26v6.75h-1.5V1.06h1.5V6.55h2.25V1ZM149.61,14.22V1.29h1.5V12.86H155v1.36ZM176,6H164.15V1.29h11.73V2.62H165.66V4.68H176ZM163.4,7.32h13.23V8.66H163.4Zm2.26,6H176v1.32H164.15V10h11.73v1.32H165.66Z"/><path id="패스_9494" data-name="패스 9494" class="cls-2" d="M115.11,14.52l.5-3.68H114l-.5,3.68H112l.5-3.68h-1.54V9.5h1.73l.43-3.17h-1.63V5h1.81l.51-3.7h1.5L114.76,5h1.64l.52-3.7h1.5L117.9,5h1.57V6.33h-1.74L117.3,9.5H119v1.34h-1.84l-.5,3.68Zm.69-5,.43-3.17h-1.65l-.43,3.17ZM132.54,1V14.82H131V7.91h-2.26v6.75h-1.5V1.06h1.5V6.55H131V1ZM120.81,14.22V1.29h1.5V12.86h3.85v1.36Zm26.43-.9v1.34H135.35v-4h1.5v2.7Zm-.08-6.94H141.9V8.22h5.93V9.56H134.6V8.22h5.79V6.38h-5V1.29h11.73V2.63H136.86V5.05h10.3ZM161.34,1V14.82h-1.5V7.91h-2.26v6.75h-1.5V1.06h1.5V6.55h2.25V1ZM149.61,14.22V1.29h1.5V12.86H155v1.36ZM176,6H164.15V1.29h11.73V2.62H165.66V4.68H176ZM163.4,7.32h13.23V8.66H163.4Zm2.26,6H176v1.32H164.15V10h11.73v1.32H165.66Z"/><path id="패스_11564" data-name="패스 11564" class="cls-2" d="M122.19,79.06c.07.34.1,1.72.12,2.41v1.16h-.66c-.38,0-2.33,0-2.75-.12v3.07c.35-.07,1.74-.1,2.42-.12h1v1.13c0,.67,0,2.07-.12,2.41h3.07c-.09-.42-.12-2.37-.12-2.74v-.8h1a22.33,22.33,0,0,1,2.42.12V82.51a19.61,19.61,0,0,1-2.42.12h-1V81.47a19.45,19.45,0,0,1,.12-2.41Zm8.7,1.87q1.13-.11,2.28-.12h1.89l-.59.2-2.83,2,1.53,2a2,2,0,0,1,1.56-.6,1.65,1.65,0,0,1,1.75,1.54v.2a1.72,1.72,0,0,1-1.8,1.64h-.08a2.26,2.26,0,0,1-2.19-1.5l-2.2,1.64a4.71,4.71,0,0,0,4.58,2.56,4.34,4.34,0,0,0,4.39-4.31V86a3.44,3.44,0,0,0-2.76-3.74A24.59,24.59,0,0,1,139,80.56V78.14a17.42,17.42,0,0,1-2.28.12h-3.51a17.24,17.24,0,0,1-2.28-.12Zm14.16,6.74c-1.23,0-1.85-1.08-1.85-3.33V84c0-2.28.62-3.24,1.86-3.24s1.82,1,1.82,3.33v.37C146.88,86.75,146.28,87.67,145.05,87.67Zm0,2.77c2.58,0,4.8-1.62,4.8-6.07V84c0-4.44-2.17-6-4.75-6s-4.83,1.57-4.83,6.1v.41C140.25,88.72,142.36,90.44,145,90.44ZM160.39,78.1a4.13,4.13,0,0,1-.64,1.14l-7,10.32a4.53,4.53,0,0,1-.5.57h3.4a.68.68,0,0,1,.17-.47l6.95-10.2a13.39,13.39,0,0,1,1-1.36Zm-1.51,9a3,3,0,0,0,2.71,3.18,3.49,3.49,0,0,0,.56,0,2.94,2.94,0,0,0,3.24-2.6,2.72,2.72,0,0,0,0-.57,2.94,2.94,0,0,0-2.67-3.18,2.81,2.81,0,0,0-.58,0,3,3,0,0,0-3.27,2.61A2.71,2.71,0,0,0,158.88,87.08ZM150.75,81a2.93,2.93,0,0,0,2.71,3.17,2.1,2.1,0,0,0,.56,0,2.93,2.93,0,0,0,3.24-2.6,2.61,2.61,0,0,0,0-.56,3,3,0,0,0-2.67-3.19,3.75,3.75,0,0,0-.58,0,3,3,0,0,0-3.27,2.6A2.81,2.81,0,0,0,150.75,81Zm10.56,6.07a.77.77,0,0,1,.7-.85h.14A.79.79,0,0,1,163,87v.13a.78.78,0,0,1-.72.84.24.24,0,0,1-.12,0,.77.77,0,0,1-.84-.71A.28.28,0,0,1,161.31,87.08ZM153.18,81a.77.77,0,0,1,.7-.85H154a.79.79,0,0,1,.84.73V81a.79.79,0,0,1-.72.84H154a.77.77,0,0,1-.84-.71A.29.29,0,0,1,153.18,81Z"/></g></g><rect class="cls-5" width="230" height="172"/></g></g></svg>