<svg xmlns="http://www.w3.org/2000/svg" width="540" height="478" viewBox="0 0 540 478"><defs><style>.cls-1{fill:#ffb5c5;}.cls-2{fill:#fed843;}.cls-3{fill:none;}</style></defs><title>img_sec4_w460</title><g id="Layer_2" data-name="Layer 2"><g id="Layer_1-2" data-name="Layer 1"><g id="_5_img" data-name=" 5 img"><g id="그룹_4557" data-name="그룹 4557"><g id="그룹_4095" data-name="그룹 4095"><path id="패스_9268" data-name="패스 9268" class="cls-1" d="M13.17,128.76v.5s.31,5.4,2.87,7.76,7.77,3.54,7.77,3.54-6,.39-7.77,2.36-2.87,8.36-2.87,8.36-.87-7.08-3.33-8.36a62.56,62.56,0,0,0-7.48-2.85s6.2-.39,8.36-3.84,1.68-5.09,1.68-5.09l.77-3.1Z"/><path id="패스_9265" data-name="패스 9265" class="cls-1" d="M13.17,157.89l-.74-4.72C11,144,10,142.76,2.88,141L0,140.22l2.88-.73c7.12-1.81,8.11-3.06,9.55-12.22l.74-4.72.75,4.72c1.44,9.16,2.42,10.41,9.55,12.22l2.87.73-2.87.73c-7.13,1.81-8.11,3.06-9.55,12.22ZM5.83,140.22c4.51,1.46,6.16,3.34,7.34,8.66,1.19-5.32,2.84-7.2,7.35-8.66-4.51-1.46-6.16-3.34-7.35-8.66-1.18,5.32-2.83,7.2-7.34,8.66Z"/></g></g><g id="그룹_4558" data-name="그룹 4558"><g id="그룹_4095-2" data-name="그룹 4095-2"><path id="패스_9268-2" data-name="패스 9268-2" class="cls-1" d="M503.94,67.6V68s.24,4.21,2.24,6.05,6.06,2.76,6.06,2.76-4.68.3-6.06,1.84-2.24,6.52-2.24,6.52-.68-5.53-2.6-6.52a46.62,46.62,0,0,0-5.83-2.22s4.84-.31,6.52-3,1.3-4,1.3-4l.61-2.42Z"/><path id="패스_9265-2" data-name="패스 9265-2" class="cls-1" d="M503.94,90.31l-.58-3.68c-1.12-7.14-1.89-8.12-7.44-9.53l-2.25-.57,2.25-.56c5.55-1.41,6.32-2.39,7.44-9.53l.58-3.68.58,3.68c1.13,7.14,1.89,8.12,7.45,9.53l2.24.56L512,77.1c-5.56,1.41-6.32,2.39-7.45,9.53Zm-5.72-13.78c3.51,1.15,4.8,2.61,5.72,6.76.93-4.15,2.21-5.61,5.73-6.76-3.52-1.14-4.8-2.6-5.73-6.75-.92,4.15-2.21,5.61-5.73,6.76Z"/></g><g id="그룹_4559" data-name="그룹 4559"><path id="패스_9268-3" data-name="패스 9268-3" class="cls-1" d="M481,73v.56s.34,6,3.18,8.6,8.61,3.93,8.61,3.93-6.65.44-8.61,2.62S481,98,481,98s-1-7.85-3.7-9.27A69.73,69.73,0,0,0,469,85.53s6.87-.43,9.27-4.25,1.86-5.65,1.86-5.65L481,72.2Z"/><path id="패스_9265-3" data-name="패스 9265-3" class="cls-1" d="M481,105.3l-.83-5.24c-1.6-10.15-2.68-11.54-10.59-13.55l-3.19-.81,3.19-.81c7.9-2,9-3.4,10.59-13.55L481,66.1l.82,5.24c1.6,10.15,2.69,11.54,10.6,13.55l3.19.81-3.19.81c-7.9,2-9,3.4-10.6,13.55Zm-8.15-19.6c5,1.62,6.83,3.71,8.15,9.6,1.32-5.9,3.14-8,8.15-9.6-5-1.62-6.83-3.7-8.15-9.6C479.71,82,477.89,84.08,472.88,85.7Z"/></g></g><g id="COIN"><g id="그룹_4098" data-name="그룹 4098"><ellipse id="타원_44" data-name="타원 44" class="cls-2" cx="517.9" cy="464.9" rx="5.84" ry="16.81" transform="translate(-175.32 526.61) rotate(-47)"/><path id="패스_9269" data-name="패스 9269" d="M513.54,469.58c-6.25-5.82-11.07-13.59-8.34-16.52s10.81,1.35,17.06,7.17,11.06,13.59,8.33,16.52S519.78,475.4,513.54,469.58Zm8-8.54c-7.11-6.63-13.75-9.09-15.49-7.22s1.17,8.32,8.28,14.95,13.75,9.09,15.5,7.22S528.61,467.67,521.5,461Z"/></g><path id="패스_9270" data-name="패스 9270" class="cls-2" d="M509.36,450.23,505.8,454l9.35,13.81,14.34,8.28,3.78-4.06Z"/><g id="그룹_4099" data-name="그룹 4099"><ellipse id="타원_45" data-name="타원 45" class="cls-2" cx="521.02" cy="461.56" rx="5.84" ry="16.81" transform="translate(-171.88 527.82) rotate(-47)"/><path id="패스_9271" data-name="패스 9271" d="M516.66,466.23c-6.24-5.82-11.07-13.59-8.34-16.51s10.82,1.34,17.06,7.16,11.07,13.59,8.34,16.52S522.9,472.05,516.66,466.23Zm8-8.54c-7.11-6.63-13.75-9.09-15.49-7.22s1.17,8.32,8.28,14.95,13.76,9.09,15.5,7.22-1.17-8.32-8.29-14.95Z"/></g><g id="그룹_4100" data-name="그룹 4100"><path id="선_32" data-name="선 32" class="cls-2" d="M533.31,473l-3.44,3.69"/><path id="사각형_129" data-name="사각형 129" d="M532.91,472.64l.81.76-3.44,3.69-.81-.76Z"/></g><g id="그룹_4101" data-name="그룹 4101"><path id="선_33" data-name="선 33" class="cls-2" d="M508.72,450.09l-3.43,3.69"/><path id="사각형_130" data-name="사각형 130" d="M508.32,449.72l.81.75-3.44,3.69-.81-.76Z"/></g><g id="그룹_4102" data-name="그룹 4102"><path id="선_34" data-name="선 34" class="cls-2" d="M513.87,469.13l3.4-3.64"/><path id="사각형_131" data-name="사각형 131" d="M516.86,465.11l.81.75-3.4,3.65-.81-.75Z"/></g><g id="그룹_4103" data-name="그룹 4103"><path id="선_35" data-name="선 35" class="cls-2" d="M518.38,473.34l3.4-3.65"/><path id="사각형_132" data-name="사각형 132" d="M521.38,469.32l.81.75-3.4,3.65L518,473Z"/></g><g id="그룹_4104" data-name="그룹 4104"><path id="선_36" data-name="선 36" class="cls-2" d="M524.4,476.48l3.4-3.64"/><path id="사각형_133" data-name="사각형 133" d="M527.4,472.46l.81.75-3.4,3.65-.81-.75Z"/></g></g><g id="COIN-2"><g id="그룹_4098-2" data-name="그룹 4098-2"><ellipse id="타원_44-2" data-name="타원 44-2" class="cls-2" cx="69.06" cy="19.76" rx="21.84" ry="7.59" transform="translate(10.24 60.99) rotate(-51)"/><path id="패스_9269-2" data-name="패스 9269-2" d="M62.6,14.54C69.58,5.92,79.21-1,83.26,2.23S82.49,16.37,75.51,25,58.9,40.57,54.86,37.3,55.62,23.16,62.6,14.54Zm11.79,9.55c8-9.82,10.54-18.65,8-20.74S71.67,5.62,63.72,15.44s-10.54,18.66-8,20.74S66.44,33.91,74.39,24.09Z"/></g><path id="패스_9270-2" data-name="패스 9270-2" class="cls-2" d="M87.31,7.37,82,3.1,65,16.47,55.56,35.81l5.6,4.53Z"/><g id="그룹_4099-2" data-name="그룹 4099-2"><ellipse id="타원_45-2" data-name="타원 45-2" class="cls-2" cx="73.68" cy="23.51" rx="21.84" ry="7.59" transform="translate(9.04 65.97) rotate(-51)"/><path id="패스_9271-2" data-name="패스 9271-2" d="M67.22,18.28C74.2,9.66,83.84,2.7,87.88,6s-.77,14.15-7.75,22.77S63.52,44.32,59.48,41,60.24,26.9,67.22,18.28ZM79,27.83C87,18,89.55,9.18,87,7.09S76.29,9.36,68.34,19.19s-10.53,18.65-8,20.74S71.06,37.65,79,27.83Z"/></g><g id="그룹_4100-2" data-name="그룹 4100-2"><path id="선_32-2" data-name="선 32-2" class="cls-2" d="M59.93,40.49l-5.09-4.13"/><path id="사각형_129-2" data-name="사각형 129-2" d="M54.39,36.92l.9-1.12,5.09,4.13L59.48,41Z"/></g><g id="그룹_4101-2" data-name="그룹 4101-2"><path id="선_33-2" data-name="선 33-2" class="cls-2" d="M87.43,6.53l-5.1-4.12"/><path id="사각형_130-2" data-name="사각형 130-2" d="M81.88,3l.91-1.12L87.88,6,87,7.09Z"/></g><g id="그룹_4102-2" data-name="그룹 4102-2"><path id="선_34-2" data-name="선 34-2" class="cls-2" d="M63.21,14.93l5,4.07"/><path id="사각형_131-2" data-name="사각형 131-2" d="M62.76,15.49l.9-1.12,5,4.08-.91,1.11Z"/></g><g id="그룹_4103-2" data-name="그룹 4103-2"><path id="선_35-2" data-name="선 35-2" class="cls-2" d="M58.16,21.16l5,4.07"/><path id="사각형_132-2" data-name="사각형 132-2" d="M57.71,21.72l.91-1.12,5,4.08-.9,1.11Z"/></g><g id="그룹_4104-2" data-name="그룹 4104-2"><path id="선_36-2" data-name="선 36-2" class="cls-2" d="M54.64,29.25l5,4.08"/><path id="사각형_133-2" data-name="사각형 133-2" d="M54.18,29.81l.91-1.12,5,4.08-.9,1.12Z"/></g></g><g id="COIN-3"><g id="그룹_4098-3" data-name="그룹 4098-3"><ellipse id="타원_44-3" data-name="타원 44-3" class="cls-2" cx="492.56" cy="415.51" rx="21.84" ry="7.59" transform="translate(-140.33 536.81) rotate(-51)"/><path id="패스_9269-3" data-name="패스 9269-3" d="M499,420.74c-7,8.62-16.61,15.58-20.65,12.3s.76-14.14,7.74-22.76S502.72,394.7,506.76,398,506,412.12,499,420.74Zm-11.79-9.55c-8,9.82-10.54,18.65-8,20.74s10.68-2.28,18.63-12.1,10.54-18.65,8-20.74-10.68,2.27-18.63,12.09Z"/></g><path id="패스_9270-3" data-name="패스 9270-3" class="cls-2" d="M474.3,427.91l5.27,4.26,17.06-13.37,9.42-19.34-5.6-4.53Z"/><g id="그룹_4099-3" data-name="그룹 4099-3"><ellipse id="타원_45-3" data-name="타원 45-3" class="cls-2" cx="487.93" cy="411.76" rx="21.84" ry="7.59" transform="translate(-139.13 531.83) rotate(-51)"/><path id="패스_9271-3" data-name="패스 9271-3" d="M494.39,417c-7,8.62-16.62,15.58-20.66,12.31s.77-14.14,7.75-22.76,16.61-15.58,20.65-12.31S501.37,408.37,494.39,417Zm-11.79-9.55c-8,9.82-10.54,18.65-8,20.74s10.68-2.27,18.63-12.09,10.54-18.66,8-20.74S490.55,397.62,482.6,407.44Z"/></g><g id="그룹_4100-3" data-name="그룹 4100-3"><path id="선_32-3" data-name="선 32-3" class="cls-2" d="M501.68,394.79l5.09,4.12"/><path id="사각형_129-3" data-name="사각형 129-3" d="M507.22,398.35l-.9,1.12-5.09-4.12.9-1.12Z"/></g><g id="그룹_4101-3" data-name="그룹 4101-3"><path id="선_33-3" data-name="선 33-3" class="cls-2" d="M474.19,428.74l5.09,4.12"/><path id="사각형_130-3" data-name="사각형 130-3" d="M479.73,432.3l-.9,1.12-5.1-4.12.91-1.12Z"/></g><g id="그룹_4102-3" data-name="그룹 4102-3"><path id="선_34-3" data-name="선 34-3" class="cls-2" d="M498.4,420.35l-5-4.08"/><path id="사각형_131-3" data-name="사각형 131-3" d="M498.86,419.79,498,420.9l-5-4.07.91-1.12Z"/></g><g id="그룹_4103-3" data-name="그룹 4103-3"><path id="선_35-3" data-name="선 35-3" class="cls-2" d="M503.45,414.12l-5-4.08"/><path id="사각형_132-3" data-name="사각형 132-3" d="M503.9,413.56l-.9,1.11-5-4.07.91-1.12Z"/></g><g id="그룹_4104-3" data-name="그룹 4104-3"><path id="선_36-3" data-name="선 36-3" class="cls-2" d="M507,406l-5-4.08"/><path id="사각형_133-3" data-name="사각형 133-3" d="M507.43,405.46l-.91,1.12-5-4.08.9-1.12Z"/></g></g><path id="패스_11168" data-name="패스 11168" class="cls-1" d="M158.28,288.45a3,3,0,0,0-.09-.43c0-.14-.09-.28-.13-.42l-5.68-21.23-17.61,8.87,3.92,14.66a6.25,6.25,0,1,0,4.49,5.38l.09,0-4.2-15.68,12-6.26,2.77,10.33a6.22,6.22,0,1,0,4.45,4.93h0Z"/></g><rect class="cls-3" width="540" height="478"/></g></g></svg>