<svg xmlns="http://www.w3.org/2000/svg" width="600" height="64" viewBox="0 0 600 64"><defs><style>.cls-1{fill:#fff;}.cls-2{fill:none;}</style></defs><title>txt_spot_title_w600</title><g id="Layer_2" data-name="Layer 2"><g id="Layer_1-2" data-name="Layer 1"><g id="_1_tit" data-name=" 1 tit"><g id="그룹_4658" data-name="그룹 4658"><path id="패스_11471" data-name="패스 11471" class="cls-1" d="M303.83,36.77H347.2l1.53-8.67H305.36Z"/><path id="패스_11472" data-name="패스 11472" class="cls-1" d="M352,36.77h43.37l1.53-8.67H353.49Z"/><path id="패스_11473" data-name="패스 11473" class="cls-1" d="M111.43,27.89h3.21c8.33,0,12.69-4.08,14-11.71h-9.54c-.38,2.14-1.44,3-3.58,3H97.35l1.53-8.68h30.36l1.53-8.67H90.87l-.88,5-.27,1.51-.14.78-.24,1.4-1.53,8.67L87,23.56l-.76,4.33h15.61l-.92,5.2H83.63L82.1,41.77h43.37L127,33.09H110.52Z"/><path id="패스_11474" data-name="패스 11474" class="cls-1" d="M109.45,54.33H91.23l1.38-7.81H83.07l-1.38,7.81-.7,4L80.16,63h28.37c8.32,0,12.69-4.08,14-11.71H113C112.64,53.43,111.59,54.33,109.45,54.33Z"/><path id="패스_11475" data-name="패스 11475" class="cls-1" d="M130.68,42h43.37l1.53-8.68H132.21Z"/><g id="그룹_4653" data-name="그룹 4653"><path id="패스_11476" data-name="패스 11476" class="cls-1" d="M474.05,37.43c7.19,0,14-5.82,15.31-13L491.19,14c1.27-7.19-3.53-13-10.71-13s-14,5.82-15.31,13l-1.83,10.41c-1.27,7.18,3.53,13,10.71,13ZM474.71,14c.67-3.75,2.8-4.34,4.24-4.34s3.36.59,2.7,4.34l-1.84,10.41c-.66,3.75-2.8,4.34-4.23,4.34s-3.37-.59-2.71-4.34Z"/></g><path id="패스_11477" data-name="패스 11477" class="cls-1" d="M413.21,36.77h43.37l1.53-8.67H414.73Z"/><g id="그룹_4654" data-name="그룹 4654"><path id="패스_11478" data-name="패스 11478" class="cls-1" d="M412.87,48.58l-.1.54-.92,5.2-.52,2.93-1,5.75h39.9l1-5.75.52-2.93.92-5.2.09-.54L454,41.31h-39.9Zm29.34,5.74H421.39l.92-5.2h20.82Z"/></g><path id="패스_11479" data-name="패스 11479" class="cls-1" d="M492.34,41.31H461.11L459.58,50h31.23l-2.29,13h9.54l3.82-21.69Z"/><path id="패스_11480" data-name="패스 11480" class="cls-1" d="M508.77,1.87h-9.54L493,37.43h9.54L505,23.55h4.33l1.53-8.67h-4.34Z"/><g id="그룹_4655" data-name="그룹 4655"><path id="패스_11481" data-name="패스 11481" class="cls-1" d="M536.56,23.27h-3.27l2-11.35C536.33,5.89,532.61,1,527,1s-11.09,4.89-12.14,10.92l-5.51,31.43c-1.05,6,2.67,10.92,8.32,10.92s11.08-4.89,12.14-10.92l2-11.35H535L529.6,63h8.18L548.49,1.87h-8.18Zm-15,20.08a2.65,2.65,0,0,1-2.43,2.19,1.75,1.75,0,0,1-1.73-1.75,3.32,3.32,0,0,1,.06-.44L523,11.92a2.64,2.64,0,0,1,2.43-2.19,1.74,1.74,0,0,1,1.66,2.19Z"/></g><path id="패스_11482" data-name="패스 11482" class="cls-1" d="M541.06,63h8.18L560,1.87h-8.19Z"/><path id="패스_11483" data-name="패스 11483" class="cls-1" d="M573,1.87l-7.19,40.77h9.54L582.5,1.87Z"/><path id="패스_11484" data-name="패스 11484" class="cls-1" d="M562.25,63h9.54l1.84-10.41h-9.54Z"/><path id="패스_11485" data-name="패스 11485" class="cls-1" d="M289.64,1.87H280.1L269.39,63h9.55l5.35-30.57h4.34l1.53-8.73h-4.34Z"/><g id="그룹_4656" data-name="그룹 4656"><path id="패스_11486" data-name="패스 11486" class="cls-1" d="M154.7,28.76c13.82,0,21.05-6.21,22.4-13.88S173.41,1,159.6,1s-21,6.21-22.4,13.88S140.89,28.76,154.7,28.76Zm3.37-19.08c6.91,0,10,2.33,9.49,5.2s-4.42,5.2-11.33,5.2-10-2.33-9.49-5.2S151.16,9.68,158.07,9.68Z"/></g><g id="그룹_4657" data-name="그룹 4657"><path id="패스_11487" data-name="패스 11487" class="cls-1" d="M436.94,25c13.81,0,20.8-4.8,22-11.53S454.82,2,441,2s-20.8,4.8-22,11.53S423.13,25,436.94,25Zm2.54-14.38c6.9,0,10.22,1.07,9.9,2.85s-4,2.86-10.91,2.86-10.22-1.07-9.9-2.86,4-2.85,10.91-2.85Z"/></g><path id="패스_11488" data-name="패스 11488" class="cls-1" d="M56.68,23.7H52.35L56.17,1.87H47.5l-7.29,41.6a29.49,29.49,0,0,1-11.63,2.06L36.22,1.87H26.68L19.76,41.39,17.5,54.27h8.68A30.78,30.78,0,0,0,38.74,51.9l-2,11.1h8.68l5.35-30.56h4.34L49.8,63h9.55L64.7,32.44l1.53-8.74L70.05,1.87H60.51Z"/><path id="패스_11489" data-name="패스 11489" class="cls-1" d="M229.8,23.7h-4.34l3.83-21.83h-8.68l-7.29,41.6a29.46,29.46,0,0,1-11.63,2.06l7.64-43.66h-9.54l-6.92,39.52-2.25,12.88h8.67a30.7,30.7,0,0,0,12.55-2.37L209.9,63h8.67l5.36-30.56h4.33L222.91,63h9.54l5.36-30.56,1.53-8.74,3.82-21.83h-9.54Z"/><path id="패스_11490" data-name="패스 11490" class="cls-1" d="M312.78,50h30.36l1.53-8.67h-39.9l-1.07,6.07-.46,2.6-1.46,8.29L301,63h30.1c8.33,0,10.83-3.36,11.76-8.67H312Z"/><path id="패스_11491" data-name="패스 11491" class="cls-1" d="M307.88,23.56h31c8.33,0,10-3.35,10.9-8.67H319l.77-4.35h30.36l1.53-8.67h-39.9l-1,5.65-.53,3-1.39,7.87Z"/><path id="패스_11492" data-name="패스 11492" class="cls-1" d="M158,54.33H139.8l1.38-7.81h-9.55l-1.38,7.81-.7,4L128.72,63h28.37c8.32,0,12.69-4.08,14-11.71h-9.54c-.37,2.14-1.42,3-3.56,3Z"/><path id="패스_11493" data-name="패스 11493" class="cls-1" d="M378.36,54.33H360.14l2.3-13H352.9l-2.3,13-.7,4L349.07,63h28.37c8.32,0,12.69-4.08,14-11.71h-9.54C381.55,53.43,380.5,54.33,378.36,54.33Z"/><path id="패스_11494" data-name="패스 11494" class="cls-1" d="M398.41,11.84h-9.54c-.38,2.14-1.43,3-3.57,3H367.08l2.3-13h-9.55l-2.29,13-.7,4L356,23.55h28.37C392.7,23.55,397.07,19.47,398.41,11.84Z"/><path id="패스_11495" data-name="패스 11495" class="cls-1" d="M264.32,1.87H248.71l-1.53,8.74h15.21c-4.08,19.91-16.83,38.76-20.07,42.72l7.93,3.07c2.8-3.46,18.75-25.66,23.59-54.53Z"/></g></g><rect class="cls-2" width="600" height="64"/></g></g></svg>