<svg xmlns="http://www.w3.org/2000/svg" width="200" height="86" viewBox="0 0 200 86"><defs><style>.cls-1{fill:#999;}.cls-2{fill:none;}</style></defs><title>txt_sec5_article_info3</title><g id="Layer_2" data-name="Layer 2"><g id="Layer_1-2" data-name="Layer 1"><g id="_6_txt03" data-name=" 6 txt03"><path id="패스_11176" data-name="패스 11176" d="M7.76,1.25v13H.63v-13H2.68V5.38h3V1.25Zm4.54,7v6.59H10.17V1H12.3v5.2h1.79v2ZM2.68,12.32h3v-5h-3ZM26.83,1V14.85H24.72V1ZM16.76,5.32V10.2c0,1.55.63,2.27,1.75,2.27s1.76-.72,1.76-2.27V5.32c0-1.54-.63-2.28-1.76-2.28S16.76,3.78,16.76,5.32Zm-2,4.88V5.32c0-2.74,1.5-4.23,3.78-4.23s3.81,1.49,3.81,4.23V10.2c0,2.72-1.5,4.19-3.81,4.19S14.73,12.92,14.73,10.2ZM41.15,1.25V10H29.26V1.25h2.13v2.4H39V1.25ZM31.39,8H39V5.6H31.39Zm10.43,4.35v2H28.59v-2Zm1,3.23-.53-1c.8-.35,1-.87,1-2.05v-.8h2.33v1c0,1.78-.89,2.75-2.78,2.94ZM52.11,4.48h-1.5L50.37.94h2Zm3.42.28v.59a1.81,1.81,0,0,0,1.66,1.93h.15a1.79,1.79,0,0,0,1.81-1.8V4.76a1.8,1.8,0,0,0-1.66-1.93h-.15a1.79,1.79,0,0,0-1.81,1.77Zm-2.1.59V4.76A3.7,3.7,0,0,1,57.07,1h.26a3.69,3.69,0,0,1,3.9,3.47v.85a3.7,3.7,0,0,1-3.66,3.73h-.24a3.7,3.7,0,0,1-3.89-3.5A1.77,1.77,0,0,1,53.43,5.35ZM66,12.84v1.93H54.25V10.23h2.13v2.61ZM65.76,1V11.27H63.64V1ZM80.3,13.24v1.61H68.49v-4h9.39v-.77H68.49V8.47H80v4H70.62v.79ZM75,1.25v6.4H68V1.25h2V2.8H73V1.25ZM80,1V7.91H77.88V6.81H75.64V5h2.24V3.94H75.64V2.13h2.24V1ZM70.07,6H73V4.45H70.08ZM87,3.06a7.88,7.88,0,0,1-.21,1.18A10.18,10.18,0,0,0,90.4,7.37L89.13,8.9A11.89,11.89,0,0,1,86,6.29a8.13,8.13,0,0,1-2.75,2.93L81.68,7.89a6.44,6.44,0,0,0,3.21-4.83H82.28V1.25h7.43V3.06ZM91,15H86c-2.21,0-3.49-1-3.49-2.72S83.79,9.52,86,9.52h5c2.24,0,3.5,1.14,3.5,2.76S93.2,15,91,15Zm-5-1.8h4.6c1.06,0,1.68-.25,1.68-.92s-.62-1-1.68-1H86.36c-1,0-1.68.24-1.68,1C84.68,12.84,85.16,13.2,86,13.2ZM94.23,1V9.14H92.12V5.8H89.43V4h2.69V1Zm14.25,11.81v1.93H96.83V10.23h2.11v2.61Zm1.5-8v2h-1.8v4.43h-2.12V1h2.12V4.82ZM99,1h2.13a12.26,12.26,0,0,1-.35,3A11.84,11.84,0,0,0,104.7,7.7l-1.27,1.58a13.08,13.08,0,0,1-3.42-3,8.77,8.77,0,0,1-2.67,3.31L95.76,8.23A8.58,8.58,0,0,0,99,1Zm12.92,3.45h-1.5L110.18,1h2ZM125.56,9.6h-4.51c-2.11,0-3.7-.86-3.7-2.7s1.59-2.7,3.7-2.7h4.51c2.1,0,3.68.88,3.68,2.7S127.66,9.6,125.56,9.6Zm4.36.74v2h-5.49V15h-2.26V12.31h-5.49v-2ZM121.05,7.8h4.16c1.15,0,1.78-.24,1.78-.9s-.63-.9-1.78-.9h-3.82c-1.19,0-1.78.27-1.78.9S120.08,7.8,121.05,7.8Zm8.34-4.24H117.21V1.7h4.88V.5h2.27V1.7h5ZM.11,30.11H13.34v1.73H.11Zm9.18-.8H4.17c-2.34,0-3.54-.91-3.54-2.64S1.83,24,4.17,24H9.29c2.32,0,3.52,1,3.52,2.64S11.61,29.31,9.29,29.31Zm-5.1-1.73H8.88c1.16,0,1.76-.24,1.76-.91s-.6-.91-1.76-.91H4.56c-1.08,0-1.76.24-1.76.91s.41.91,1.39.91Zm8.48,5.22v5H.78v-5ZM2.91,36.08h7.63V34.49H2.91Zm21.81-2.15H21.55V32.3h3.17V24h2.11V34.75H24.72Zm2.41,2v1.89H15.32V34h2.13v1.87Zm-7.52-6.51H18c-2,0-3.23-1-3.23-2.67S15.93,24,18,24h1.65c2,0,3.23,1.06,3.23,2.68S21.64,29.37,19.61,29.37ZM18,27.69h1.65c.7,0,1.2-.35,1.2-1s-.5-1-1.2-1H18c-.72,0-1.2.34-1.2,1s.48,1,1.2,1ZM23.5,30v1.7H19.18v2H17.05v-2h-2.7V30Zm17.79.93v1.85h-12V27.58H39v-1.5H29.26V24.25H41.15v5.1H31.39v1.57Zm.53,4.46v1.94H28.59V35.39h2.77V33.24h2.12v2.15h3.46V33.24h2.11v2.15ZM52.63,24.56V26.2L48.89,36.72H46.62l3.73-10.21H46v-2Zm6.85,0V26.2L55.74,36.72H53.47L57.2,26.51H52.88v-2Zm7.94,0h2L63,36.72H61ZM63,28V26.73c0-.45-.17-.67-.57-.67s-.6.22-.6.67V28c0,.45.18.67.6.67S63,28.46,63,28Zm1.87-1.36v1.43a2.46,2.46,0,0,1-4.9,0V26.65a2.46,2.46,0,0,1,4.9,0Zm3.84,7.9V33.27c0-.45-.16-.69-.57-.69s-.58.24-.58.69v1.28c0,.45.16.67.58.67s.57-.22.57-.66Zm1.89-1.36v1.43a2.47,2.47,0,0,1-4.91,0V33.2a2.46,2.46,0,0,1,4.91,0Zm13.22,4.05H75.52v-13H83v1.94H77.64v9.13h6.15Zm1.57-5.81h-4v-2h4V24h2.11V37.85H85.36Zm15.39-7.18v7.32H93.36V24.25h2v1.94h3.34V24.25ZM95.39,29.8h3.34V27.93H95.39Zm11.42-2.75v2H105v3h-2.13V24H105v3Zm-11,9h9.39v1.76H93.66V32.59H105v1.76H95.77Zm24-.11v1.87h-12v-3.9h2.13v2Zm-12.7-4.82H120.3v1.84H107.07Zm9-1h-4.66c-2.4,0-3.76-1.15-3.76-3s1.36-3,3.76-3H116c2.41,0,3.76,1.3,3.76,3s-1.35,3-3.77,3Zm-4.64-1.78H116c1.06,0,1.57-.51,1.57-1.25s-.51-1.24-1.57-1.24h-4.63c-1,0-1.57.51-1.57,1.24s.52,1.26,1.57,1.26Zm14.14-4.06h6.69v3.34a10.69,10.69,0,0,1-5.92,9.67l-1.46-1.54a8.65,8.65,0,0,0,5.25-7.84v-1.7h-4.56Zm11.58,7v6.59H135V24h2.13v5.2h1.79v2Zm3-.85-1-1.73A7.43,7.43,0,0,0,145,23.94l2.19.45a8.71,8.71,0,0,1-.48,1.19,12,12,0,0,0,5.76,2.67c-.33.57-.65,1.18-1,1.77a13.27,13.27,0,0,1-5.89-2.81,9.71,9.71,0,0,1-5.49,3.2Zm12.27,1.5v2h-5.49V38h-2.26V33.87h-5.49V31.92Zm5.14,5.33v-13h2.13V35.31h6.22v1.93Zm11.66-6v6.59h-2.13V24h2.13v5.2H171v2Zm5.33,1.36,2,.35a5.7,5.7,0,0,1-.37,1.36,4.7,4.7,0,0,0,1.65,1.35,4.68,4.68,0,0,0,1.87-3.06l2,.35a5.48,5.48,0,0,1-.38,1.33A10.36,10.36,0,0,0,184.46,36l-.93,1.67a10.91,10.91,0,0,1-3.18-1.81,6.53,6.53,0,0,1-2.48,1.94,8.86,8.86,0,0,1-2.74-1.9,6.62,6.62,0,0,1-2.73,1.84l-1.27-1.52a4.61,4.61,0,0,0,3.38-3.64Zm6.79-.06V24h2.12v3.39h1.8v2h-1.8v3.12ZM174.85,24h1.65c2,0,3.23,1.06,3.23,2.67s-1.12,2.59-3,2.67v1h3.71v1.74h-9.2V30.35h3.39v-1c-1.88-.08-3-1.1-3-2.67S172.81,24,174.84,24Zm1.65,1.7h-1.65c-.72,0-1.2.34-1.2,1s.48,1,1.2,1h1.65c.7,0,1.2-.35,1.2-1s-.5-1-1.21-1Zm17.77,11.52H186v-13h7.49v1.94h-5.36v9.13h6.14Zm3.39-6v6.59h-2.13V24h2.13v5.2h1.79v2Z"/><path id="패스_11585" data-name="패스 11585" class="cls-1" d="M.2,84.49v-2A2.48,2.48,0,0,1,1.46,80l1.9-1.23a1.85,1.85,0,0,0,.87-1.62c0-1-.42-1.47-1.4-1.47s-1.4.49-1.4,1.47H.2a2.31,2.31,0,0,1,2-2.57,2.49,2.49,0,0,1,.61,0,2.3,2.3,0,0,1,2.62,1.93,2.66,2.66,0,0,1,0,.63,2.72,2.72,0,0,1-1.38,2.51L2.2,80.89a1.6,1.6,0,0,0-.8,1.55v1H5.45v1.08ZM10.76,82V77.24c0-1-.49-1.54-1.4-1.54S8,76.26,8,77.24V82c0,1,.49,1.52,1.4,1.52S10.76,83,10.76,82ZM12,77.12v5a2.38,2.38,0,0,1-2.23,2.5,1.77,1.77,0,0,1-.4,0,2.37,2.37,0,0,1-2.62-2.1,2.54,2.54,0,0,1,0-.39v-5A2.38,2.38,0,0,1,9,74.6a2.77,2.77,0,0,1,.41,0A2.38,2.38,0,0,1,12,76.72C12,76.85,12,77,12,77.12Zm1.27,7.37v-2A2.5,2.5,0,0,1,14.52,80l1.9-1.23a1.81,1.81,0,0,0,.87-1.62c0-1-.42-1.47-1.4-1.47s-1.4.49-1.4,1.47H13.26a2.31,2.31,0,0,1,2-2.57,2.15,2.15,0,0,1,.62,0,2.29,2.29,0,0,1,2.61,1.93,1.9,1.9,0,0,1,0,.63,2.7,2.7,0,0,1-1.38,2.51l-1.87,1.21a1.59,1.59,0,0,0-.79,1.55v1h4v1.08Zm8.74,0H20.77V75.83h-1.1v-1.1H22ZM34.07,74.25v8.49H32.85V78.63H28.93V77.54h3.92v-1H28.93V75.47h3.92V74.25Zm-2.94,5.37v1.1H24.54V74.48h1.23v5.14Zm3.19,4.64v1.09H24.91V81.81h1.22v2.45ZM44.45,81v1.29c0,1.45-1,2.31-2.76,2.31S39,83.77,39,82.31v-.65h1.22v.58c0,.93.55,1.29,1.52,1.29s1.54-.36,1.54-1.29V81.09c0-.8-.5-1.22-1.42-1.22h-1V78.76h.86A1.18,1.18,0,0,0,43,77.71a1,1,0,0,0,0-.17v-.67c0-.74-.5-1.17-1.35-1.17s-1.34.43-1.34,1.17v.43H39.07v-.49c0-1.47,1.1-2.2,2.56-2.2s2.57.73,2.57,2.2v.79a1.66,1.66,0,0,1-1.1,1.67A1.65,1.65,0,0,1,44.45,81Zm1.08-1.84V78.11H53v1.07H49.13v1.48H47.91V79.18ZM46.38,82V81h9.17v2.76H47.61v.67H55.8v1.08H46.38v-2.8h7.95V82Zm1.84-7.79h1.83c1.47,0,2.33.66,2.33,1.7s-.86,1.72-2.33,1.72H48.22c-1.47,0-2.33-.68-2.33-1.72S46.75,74.25,48.22,74.25Zm1.83,1.06H48.22c-.73,0-1.1.28-1.1.64s.37.64,1.1.64h1.83c.73,0,1.1-.27,1.1-.64S50.78,75.31,50.05,75.31Zm1.39,5.28V79.53h2.89V74.25h1.22v6.34Z"/><path id="패스_11177" data-name="패스 11177" class="cls-1" d="M.49,56.59V55.48h6v1.11H4a8.84,8.84,0,0,1-.23,1.53,9.09,9.09,0,0,0,3.35,3l-.79.9a10.72,10.72,0,0,1-3-2.58A7.82,7.82,0,0,1,1,62.35l-1-.78a6.21,6.21,0,0,0,2.81-5Zm.37,9.76V62.94H2.08v2.32h8.19v1.09ZM8.8,58.06V55.25H10v8.49H8.8V59.15H6.24V58.06Zm3.39-1.47V55.48h6v1.11H15.61a21,21,0,0,1-.27,3.16,12.23,12.23,0,0,0,3.5,5.48l-.92.76a14,14,0,0,1-3-4.28,13.6,13.6,0,0,1-2.11,4.43l-1.11-.57a14.71,14.71,0,0,0,2.69-9Zm8.06-1.34h1.23v4.48h1.58v1.1H21.48v5.65H20.25Zm5.84,0h1.22a9.25,9.25,0,0,1-.3,2.33,10,10,0,0,0,3.38,3.26l-.75.93a10.57,10.57,0,0,1-3.08-2.84,7.71,7.71,0,0,1-2.33,3.17l-1-.78A7.53,7.53,0,0,0,26.09,55.25Zm7.58,10v1.09H24.26V62.81h1.22v2.45Zm-.25-10v8.49H32.2V55.25Zm11.95,10v1.09H35.71V63.06h1.22v2.2Zm-.13-9.78v4.28H35.71V55.48Zm-8.31,3.2H44V56.57H36.93Zm4.22,5.37H39.92V62H35.1v-1.1H45.85V62h-4.7Z"/></g><rect class="cls-2" width="200" height="86"/></g></g></svg>