<svg xmlns="http://www.w3.org/2000/svg" width="162" height="86" viewBox="0 0 162 86"><defs><style>.cls-1{fill:#999;}.cls-2{fill:none;}</style></defs><title>txt_sec5_article_info4</title><g id="Layer_2" data-name="Layer 2"><g id="Layer_1-2" data-name="Layer 1"><g id="_6_txt04" data-name=" 6 txt04"><path id="패스_11180" data-name="패스 11180" d="M1,14.58v-13H3.17V12.64H6.66v1.94ZM9.65,1.43V15H7.55V8.33H4.88v-2H7.55V1.43ZM13,15.19H10.88V1.36H13ZM27.24,1.36V15.19H25.12V1.36ZM17.17,5.65v4.88c0,1.55.62,2.27,1.74,2.27s1.76-.72,1.76-2.27V5.65c0-1.53-.62-2.27-1.76-2.27S17.17,4.12,17.17,5.65Zm-2,4.88V5.65c0-2.73,1.5-4.22,3.77-4.22s3.81,1.49,3.81,4.22v4.88c0,2.72-1.5,4.19-3.81,4.19S15.14,13.25,15.14,10.53ZM36.48,1.59v13h-7v-13h2.05V5.72h2.87V1.59Zm2.88,7H37v-2h2.4V1.36h2.11V15.19H39.36Zm-7.79,4.08h2.87v-5H31.57ZM54.48,1.59v13H47.36v-13h2V5.72h3V1.59ZM59,8.6v6.59H56.9V1.36H59v5.2h1.8v2Zm-9.61,4.06h3v-5h-3ZM73.55,1.36V15.19H71.44V1.36ZM63.49,5.65v4.88c0,1.55.62,2.27,1.75,2.27S67,12.08,67,10.53V5.65c0-1.53-.63-2.27-1.76-2.27S63.49,4.12,63.49,5.65Zm-2,4.88V5.65c0-2.73,1.5-4.22,3.77-4.22S69,2.92,69,5.65v4.88c0,2.72-1.5,4.19-3.8,4.19S61.46,13.25,61.46,10.53ZM87.87,1.59V10.3H76V1.58h2.13V4h7.63V1.58ZM78.11,8.36h7.63V5.94H78.11ZM88.54,12.7v2H75.31v-2Zm1,3.24L89,14.88c.8-.35,1-.86,1-2V12h2.34v1c0,1.77-.9,2.75-2.79,2.94ZM100.69.5a3.65,3.65,0,0,1,.25.53c.1.18.2.39.28.56a1.16,1.16,0,0,0-.5.27,1,1,0,0,0-.29.4,2.38,2.38,0,0,0-.16.58c0,.21,0,.46,0,.77v.8H97.9v-1A2.69,2.69,0,0,1,100.32.51Zm13.58.87V15.19h-2.11V8.6h-1.5V15h-2.1V1.43h2.1V6.66h1.5V1.36Zm-12,13.21v-13h2.13V12.64h3.26v1.94Zm26.42-1.34V15.1h-12v-4h2.14v2.18Zm-.07-6.3h-5V8.4h5.63v1.83H116V8.4h5.47V6.93h-4.8V1.59H128.6V3.35h-9.76V5.17h9.84Zm14.08-5.57V15.19h-2.11V8.6h-1.5V15H137V1.43h2.1V6.66h1.5V1.36ZM130.8,14.58v-13h2.13V12.64h3.26v1.94ZM157.15,6.5h-12V1.59h11.89v1.7h-9.76V4.8h9.84Zm-12.64,1h13.23V9.22H144.51Zm2.8,5.92h9.9V15.1h-12V10.28h11.89V12h-9.76Zm11.55-8.68a5.12,5.12,0,0,1-.25-.53c-.1-.18-.19-.35-.27-.53a1.71,1.71,0,0,0,.5-.3.81.81,0,0,0,.28-.4,2.26,2.26,0,0,0,.16-.58,7.59,7.59,0,0,0,0-.76V.84h2.33v1a2.67,2.67,0,0,1-2.42,2.92,2.26,2.26,0,0,1-.37,0ZM4.77,30l1.09-5.14H8.13L5.2,37.13H2.93L0,24.89H2.27L3.34,30,4,34.22Zm11.39-1.19c0,2.52-1.34,3.94-3.9,3.94H10.91v4.27H8.8V24.89h3.46C14.82,24.89,16.16,26.32,16.16,28.84Zm-2.11,0c0-1.47-.72-2-2-2H10.91v4H12.1C13.33,30.83,14.05,30.3,14.05,28.84Zm10-.88H22c0-.8-.45-1.28-1.43-1.28S19,27.15,19,28s.51,1.44,1.49,1.7l.75.2c2.08.54,3.15,1.71,3.15,3.68,0,2.32-1.42,3.58-3.74,3.58h-.29c-2.29,0-3.58-1.07-3.63-3.26h2.12c0,.9.56,1.32,1.52,1.32h.28c1.07,0,1.63-.52,1.63-1.55a1.72,1.72,0,0,0-1.49-1.9L20,31.64c-2-.47-3.17-1.41-3.17-3.59s1.28-3.31,3.68-3.31S24,25.9,24.08,28Zm6.45,9.81-2-.93A25.1,25.1,0,0,0,31.26,24.5h2.13a38.09,38.09,0,0,1-.27,4.66A16.19,16.19,0,0,0,37.2,36.3l-1.6,1.36a15.73,15.73,0,0,1-3.16-4.78A21,21,0,0,1,30.53,37.77ZM41.28,24.36V38.19H39.17V24.36Zm15,11.34v2H43v-2Zm-12-3.1L43,31a8.67,8.67,0,0,0,5.86-6.68l2.2.37a8.18,8.18,0,0,1-.64,2.15,11.75,11.75,0,0,0,6,3.61L55.2,32.12a12.79,12.79,0,0,1-5.86-3.48A11,11,0,0,1,44.26,32.6Zm25.5.68V38.1H58.26V33.28Zm-6.3-2.74v1.71H57.81V24.59H63V26.3h-3.2v1.24h3.06v1.7H59.82v1.31ZM60.38,36.4h7.27V35H60.38Zm6.26-12V32.7h-2V29.32H63.28v-1.9h1.39v-3Zm1.09,8.27V24.36h2V32.7Zm8.73.23L75,31.47a6,6,0,0,0,3.58-4.4h-3V25.26h2.93V23.84h2.14v1.42h2.9v1.81H80.74a7.21,7.21,0,0,1-.24,1.12,9.14,9.14,0,0,0,3.8,2.75l-1.15,1.6A11,11,0,0,1,79.63,30a7.48,7.48,0,0,1-3.17,2.88Zm11.6,3.45-.84,1.72a11.89,11.89,0,0,1-5.67-2.48,8.94,8.94,0,0,1-5.1,2.52l-1-1.7c2.61-.3,4.86-1.59,5.65-3.78l2,.58a7.5,7.5,0,0,1-.42.91,10.73,10.73,0,0,0,5.4,2.23Zm-2.57-12H87.6v8.92H85.49v-3.7H83V27.79h2.47Zm8,2V24.59h7.42V26.4H98.18a8.3,8.3,0,0,1-.26,1.39,11.26,11.26,0,0,0,3.74,3.36l-1.31,1.47a12.35,12.35,0,0,1-3.23-2.75,8.72,8.72,0,0,1-2.62,3.07l-1.62-1.26A7.24,7.24,0,0,0,96.1,26.4Zm.3,8.94v-1.9h11.65v4.9h-2.12v-3Zm9.53-7.89V24.36h2.12v8.39h-2.12V29.28h-2.68V27.45Zm16.58,8.3c0,1.68-1.26,2.58-3.52,2.58h-5.12c-2.26,0-3.54-.9-3.54-2.58s1.28-2.59,3.54-2.59h5.12c2.26,0,3.52,1,3.52,2.6Zm-2.18,0c0-.57-.43-.91-1.45-.91h-4.91c-1,0-1.46.34-1.46.91s.45.9,1.46.9h4.91c1,0,1.46-.35,1.46-.89Zm-2.25-6.21h-3.33v1.14h3.33Zm-5.43-.1A2.4,2.4,0,0,1,107.72,27h0c0-1.55,1.2-2.59,3.54-2.59h5.12c2.32,0,3.52,1,3.52,2.59a2.41,2.41,0,0,1-2.32,2.5h0v1.24h2.86v1.73H107.2V30.68h2.85Zm1.24-1.61h5.08c1,0,1.36-.34,1.36-.88s-.38-.87-1.36-.87h-5.08c-.92,0-1.4.32-1.4.87s.42.89,1.4.89Z"/><path id="패스_11586" data-name="패스 11586" class="cls-1" d="M.6,84.83v-2a2.48,2.48,0,0,1,1.26-2.44l1.9-1.24a1.83,1.83,0,0,0,.87-1.62c0-1-.42-1.46-1.4-1.46s-1.4.49-1.4,1.46H.6a2.3,2.3,0,0,1,2-2.56,2.57,2.57,0,0,1,.62,0,2.29,2.29,0,0,1,2.61,1.93,2.15,2.15,0,0,1,0,.62A2.71,2.71,0,0,1,4.47,80L2.6,81.23a1.57,1.57,0,0,0-.79,1.54v1h4v1.08Zm10.57-2.48V77.57c0-1-.5-1.53-1.4-1.53s-1.4.56-1.4,1.53v4.78c0,1,.48,1.52,1.4,1.52S11.17,83.32,11.17,82.35Zm1.22-4.89v5A2.37,2.37,0,0,1,10.16,85a2.71,2.71,0,0,1-.4,0,2.37,2.37,0,0,1-2.61-2.1,1.79,1.79,0,0,1,0-.4v-5a2.37,2.37,0,0,1,2.22-2.52,1.79,1.79,0,0,1,.4,0,2.37,2.37,0,0,1,2.62,2.1A1.88,1.88,0,0,1,12.39,77.46Zm1.27,7.37v-2a2.5,2.5,0,0,1,1.27-2.44l1.9-1.23a1.82,1.82,0,0,0,.86-1.63c0-1-.41-1.46-1.4-1.46s-1.4.49-1.4,1.46H13.66a2.3,2.3,0,0,1,2-2.56,2.15,2.15,0,0,1,.62,0,2.3,2.3,0,0,1,2.62,1.93,2.66,2.66,0,0,1,0,.63A2.73,2.73,0,0,1,17.54,80l-1.87,1.21a1.6,1.6,0,0,0-.8,1.54v1h4.05v1.08Zm10.58-2.48V77.57c0-1-.5-1.53-1.4-1.53s-1.4.56-1.4,1.53v4.78c0,1,.48,1.52,1.4,1.52S24.24,83.32,24.24,82.35Zm1.22-4.89v5A2.37,2.37,0,0,1,23.23,85a1.79,1.79,0,0,1-.4,0,2.37,2.37,0,0,1-2.61-2.1,1.77,1.77,0,0,1,0-.4v-5a2.37,2.37,0,0,1,2.22-2.52,1.79,1.79,0,0,1,.4,0,2.37,2.37,0,0,1,2.62,2.11c0,.13,0,.26,0,.4Zm11.1-2.88v8.49H35.34V79H31.41v-1.1h3.93v-1H31.41V75.8h3.93V74.58ZM33.62,80v1.11H27V74.82h1.22V80Zm3.18,4.64v1.1H27.39V82.15h1.22v2.44ZM44.06,76c-.92,0-1.4.49-1.4,1.53V79.1a2.71,2.71,0,0,1,1.77-.62,2,2,0,0,1,2.26,1.79,1.93,1.93,0,0,1,0,.48v1.71A2.37,2.37,0,0,1,44.46,85a1.79,1.79,0,0,1-.4,0,2.37,2.37,0,0,1-2.61-2.1,1.77,1.77,0,0,1,0-.4v-5a2.31,2.31,0,0,1,2.1-2.52,1.81,1.81,0,0,1,.52,0,2.18,2.18,0,0,1,2.48,1.83,1.93,1.93,0,0,1,0,.48H45.35a1.15,1.15,0,0,0-1-1.23Zm1.4,6.31V80.88c0-.93-.37-1.29-1.17-1.29a1.46,1.46,0,0,0-1.63,1.27.53.53,0,0,0,0,.13v1.35c0,1,.48,1.52,1.4,1.52a1.32,1.32,0,0,0,1.41-1.51Zm2.3-2.84V78.45h7.48v1.06H51.36V81H50.14V79.51Zm.86,2.86V81.3h9.17v2.76H49.84v.68H58v1.08H48.62V83h7.94v-.65Zm1.83-7.79h1.84c1.47,0,2.32.67,2.32,1.7S53.76,78,52.29,78H50.45c-1.46,0-2.32-.67-2.32-1.71S49,74.58,50.45,74.58Zm1.84,1.07H50.45c-.72,0-1.1.27-1.1.64s.38.63,1.1.63h1.84c.73,0,1.1-.27,1.1-.63S53,75.65,52.29,75.65Zm1.39,5.28V79.86h2.88V74.58h1.23v6.35Z"/><path id="패스_11178" data-name="패스 11178" class="cls-1" d="M2.6,55.7H3.82a29.7,29.7,0,0,1-.24,3.77,13,13,0,0,0,3.35,6l-.9.83a13.47,13.47,0,0,1-2.87-4.53,17.2,17.2,0,0,1-1.78,4.69L.29,65.9A20.62,20.62,0,0,0,2.6,55.7Zm6.6-.11h1.22V66.82H9.21V61.16H5.66V60.07H9.21Zm13.17,10v1.09H12.72v-2.9H21v-.73h-8.3V62h4.1v-.91H12.1V60H22.86v1.09H18V62h4.21v2.89H13.94v.73ZM14.8,58.2h5.25c.61,0,1.1-.28,1.1-.76s-.5-.78-1.1-.78H14.8c-.62,0-1,.28-1,.78s.36.77,1,.77Zm0-2.62h5.25c1.35,0,2.32.64,2.32,1.86s-1,1.84-2.32,1.84H14.8c-1.34,0-2.2-.62-2.2-1.84s.86-1.86,2.2-1.86ZM31.14,66.93H27.47c-1.83,0-2.92-.92-2.92-2.25s1.09-2.26,2.92-2.26h3.67c1.83,0,2.93.93,2.93,2.26S33,66.93,31.14,66.93Zm-3.67-1.08h3.67c1,0,1.65-.45,1.65-1.17s-.68-1.18-1.65-1.18H27.47c-1,0-1.65.46-1.65,1.19S26.5,65.85,27.47,65.85Zm6.36-10.27V62H32.61V60.47H29.78v-1.1h2.83V58.15h-2.7V57h2.7V55.58Zm-9.53.24h5.26v.66c0,2.68-2.18,4.76-5.22,5.19l-.54-1c2.54-.31,4.28-1.62,4.54-3.73h-4Zm11.7,0h4.76v1.1H38.92a27.81,27.81,0,0,1-.17,2.88,16.1,16.1,0,0,0,2.66,5.57l-1,.7a16.88,16.88,0,0,1-2.06-3.95,15.34,15.34,0,0,1-1.73,4.36L35.5,66c1.66-2.67,2.18-5.53,2.2-9.08H36Zm9.53,11H44.31V55.58h1.22ZM43,55.64v11H41.8V61H40V59.86H41.8V55.64Z"/></g><rect class="cls-2" width="162" height="86"/></g></g></svg>