<svg xmlns="http://www.w3.org/2000/svg" width="460" height="78" viewBox="0 0 460 78"><defs><style>.cls-1{fill:#111;}.cls-2{fill:none;}</style></defs><title>txt_sec5_title_w460</title><g id="Layer_2" data-name="Layer 2"><g id="Layer_1-2" data-name="Layer 1"><path class="cls-1" d="M74,2.68V27.32l16.52-2v-5.6L80.44,21V8.28H90.52V2.68Zm25.48-.84H93v9.24H88V17h5V27.32h6.44ZM119.7,11.92l.92-3.64h5.74V2.68H109.84v5.6H114l-4.76,19h6.58l2.38-9.55,2.1,9.55h6.58l-3.36-15.4Zm14.5-1V1.84h-6.44V27.32h6.44V17.1h2.24V10.94Zm10.08,7,1.12,9.35H151L148.59,9.4h-2.85l1.2-7h-5.52L137,27.32h5.68ZM157.16,1.84h-5v8h-2.24v5.6h2.24v11.9h5Zm6.16,0h-5V27.32h5Zm19,16.38c0-5.68-2.46-9.38-8.26-9.38s-8.26,3.7-8.26,9.38,2.46,9.38,8.26,9.38S182.36,23.9,182.36,18.22Zm7.84-7.28V1.84h-6.44V27.32h6.44V17.1h2.24V10.94Zm-12.88-7.7V1h-6.44V3.24h-5v5h16.52v-5Zm-1.12,15c0,3-.62,4.06-2.1,4.06s-2.1-1.09-2.1-4.06.62-4.06,2.1-4.06S176.2,15.25,176.2,18.22Zm37-16.38h-5v9.38h-1.71c0-1.12,0-2.3,0-3.5v-5H193.56v5.6h7c0,3.44-.11,6.47-.34,9.52a82.59,82.59,0,0,1-1.34,9.52h5.88a83.09,83.09,0,0,0,1.37-9.8c0-.23,0-.47.06-.7h1.93v10.5h5Zm6.16,0h-5V27.32h5Zm17.36,22.68v-.84H254V15.84H229.68v3.64H247v.84H229.68v7.84H254V24.52Zm9.24-16.38c0-4.28-2.94-6.58-8.54-6.58s-8.54,2.3-8.54,6.58,2.94,6.58,8.54,6.58S245.92,12.42,245.92,8.14ZM254,5.62V1.84H247.6V15H254V11.22h2.24V5.62ZM237.38,10c-2.24,0-2.94-.67-2.94-1.82s.7-1.82,2.94-1.82,2.94.67,2.94,1.82S239.62,10,237.38,10ZM282.6,2.4H258.52V8H275.8L275,19.48h6.44ZM264.54,21.72h-6.86v5.6h25.76v-5.6H271v-9h-6.44ZM315.22,24V20.6H319V16.4H293.52v4.2h3.78V24h-3.78v4.2H319V24ZM302.28,9l2.5,6.58h6.58L308,6.6h-4.62l1.9-4.2H298.7l-6,13.16h6.58ZM319,1.84h-6.44V15.56H319ZM303.74,20.6h5V24h-5Zm17.81-4.2c0,7.92,2.3,11.2,8.26,11.2S338,24.46,338.07,17h2.49V27.32H347V1.84h-6.44v9.24H338c-.48-6.1-2.86-8.68-8.15-8.68-6,0-8.26,3.28-8.26,11.2Zm10.36-.28c0,5.1-.56,6.16-2.1,6.16s-2.1-1.06-2.1-6.16V13.88c0-5.1.56-6.16,2.1-6.16s2.1,1.06,2.1,6.16ZM374.72,10c0-5.26-3.81-8.12-12.32-8.12S350.08,4.7,350.08,10s3.81,8.12,12.32,8.12S374.72,15.22,374.72,10Zm-9.94,11.76H360v-2.8h-6.44v2.8h-4.06v5.6h25.76v-5.6h-4.06v-2.8h-6.44ZM368.56,10c0,2-1.29,2.8-6.16,2.8s-6.16-.84-6.16-2.8,1.29-2.8,6.16-2.8S368.56,8,368.56,10Zm16,10.19V2.68h-6.24V20.15Zm0,6.89V21.55h-6.24V27ZM108.31,48.51h-4.37l1-5.13H97.18l-1,5.13H91.36l1-5.13H84.6l-.95,5.13h-5L77.3,56h5l-1.44,7.9h-5l-1.37,7.45h5l-1,5.13h7.71l1-5.13h4.87l-1,5.13h7.71l1-5.13h4.37l1.37-7.45h-4.37l1.44-7.9h4.37ZM90,56h4.86l-1.44,7.9H88.55Zm55.17-13.72h-7V55h-1.9V42.24h-7V76.82h7V62.57h1.9V76.82h7ZM118.19,68V43.38h-8V76.82l17.48-2.66v-7.6Zm40.28-17.21V48.7h23.94V43H149.73V56.49h12V58H148.59v6.08h35V58H170.44V56.49h12v-5.7Zm0,20.9V65.61h-8.74v12h32.68V71.69Zm62.7-29.45h-7V55h-1.9V42.24h-7V76.82h7V62.57h1.9V76.82h7ZM194.19,68V43.38h-8V76.82l17.48-2.66v-7.6Zm31.54-3.15V77.58h32.68V72H234.47V70.55h23.94v-5.7Zm8.74-14.63V48.51h23.94V43H225.73V55.73h32.68V50.22Zm-9.88,7v6.08h35V57.25Zm48.26,7.41V78h35V64.66Zm35-22.42h-7v7h-1.9v-7h-7v20.9h7V56.49h1.9v6.65h7Zm-19.76,20.9c1.94-5.36,2.28-11,2.28-16.34V43.38H272.85V50.6h9.43c0,.76-.08,1.44-.16,2.17h-8.89v6.84h7.83c-.27,1.17-.61,2.31-1,3.53Zm-6.84,7h18.24v2.28H281.21Zm45.3-3.31V51h1.82v-7.6H310.85V51h1.83V69l-1.83.27v7.6l17.48-2.66v-7.6Zm10.94-24.62h-6.84V55h-3v7.6h3V76.82h6.84Zm8.36,0H339V76.82h6.84ZM318.57,51h2.05V67.74l-2.05.3Zm52.7,1.52c0-6.42-4.18-10.64-11.59-10.64s-11.59,4.22-11.59,10.64,4.18,10.64,11.59,10.64S371.27,58.92,371.27,52.5ZM349.23,65V78h34.58V70.74H358V65Zm34.58-22.8h-8.74V66.56h8.74ZM359.68,56.3A3.44,3.44,0,0,1,356.06,53a3.25,3.25,0,0,1,0-.54,3.61,3.61,0,1,1,7.22-.38,2.41,2.41,0,0,1,0,.38,3.45,3.45,0,0,1-3.07,3.79A4.87,4.87,0,0,1,359.68,56.3Z"/><rect class="cls-2" width="460" height="78"/></g></g></svg>