<svg xmlns="http://www.w3.org/2000/svg" width="375" height="129.41" viewBox="0 0 375 129.41"><defs><style>.cls-1{fill:#fff;}.cls-2,.cls-3{fill:none;}.cls-2{stroke:#000;stroke-width:2px;}</style></defs><title>txt_sec6_description_w375</title><g id="Layer_2" data-name="Layer 2"><g id="Layer_1-2" data-name="Layer 1"><g id="Layer_1-2-2" data-name="Layer 1-2"><g id="Layer_1-2-2-2" data-name="Layer 1-2-2"><g id="Layer_1-2-3" data-name="Layer 1-2-3"><g id="_7_tag" data-name=" 7 tag"><g id="tag1"><g id="사각형_162" data-name="사각형 162"><path class="cls-1" d="M70,88.41H190a20,20,0,0,1,20,20h0a20,20,0,0,1-20,20H70a20,20,0,0,1-20-20h0A20,20,0,0,1,70,88.41Z"/><path class="cls-2" d="M70,89.41H190a19,19,0,0,1,19,19h0a19,19,0,0,1-19,19H70a19,19,0,0,1-19-19h0a19,19,0,0,1,19-19Z"/></g><path id="_내돈내듣에_공감하기" data-name=" 내돈내듣에 공감하기" d="M72.53,106.81c1,0,1.34.88,1.34,1.73,0,1.06-.54,2.72-2,2.72-1.06,0-1.3-1-1.3-1.6C70.55,108.41,71.26,106.81,72.53,106.81Zm4.87,5.81a6.37,6.37,0,0,1-4.66,1.79,5.1,5.1,0,0,1-5.45-4.72h0v-.62a5.19,5.19,0,0,1,4.89-5.45h.41c2.9,0,5,1.62,5,4.62,0,1.75-.74,3-1.8,3-.61,0-.72-.4-.72-.81a6.92,6.92,0,0,1,.18-1.28l.7-3.38h-1.4l-.16.75h0a1.87,1.87,0,0,0-1.82-1A3.83,3.83,0,0,0,69,109.58h0a2.63,2.63,0,0,0,2.29,2.92h.3a2.59,2.59,0,0,0,2.22-1.26h.09c0,.68.55,1.26,1.56,1.26,1.86,0,3.53-1.51,3.53-4.41,0-3.87-3.1-5.78-6.37-5.78a6.72,6.72,0,0,0-6.88,6.56h0V109c0,3.9,2.76,6.67,6.88,6.67a7.58,7.58,0,0,0,5.63-2.16Zm11-5.74H86.6l-2.52,6.71h0l-2.5-6.71h-1.9l3.48,8.53H85Zm3.35,0H90.07v8.53h1.69ZM92,103.8a1.13,1.13,0,1,0-1.18,1.08h0a1.11,1.11,0,0,0,1.18-1h0Zm4.37,10.26a3.6,3.6,0,0,0,3.08,1.58,4.26,4.26,0,0,0,4.31-4.2v-.31a4.26,4.26,0,0,0-4-4.48h-.28a3.7,3.7,0,0,0-3,1.52h0V101.8H94.75v13.61h1.63v-1.35Zm5.63-2.93a2.87,2.87,0,0,1-2.61,3.09H99.2a3,3,0,0,1-2.88-3h0v-.09a3,3,0,0,1,2.8-3.1h.08a2.85,2.85,0,0,1,2.85,2.84,1.13,1.13,0,0,1,0,.26Zm5.28-.74A2.64,2.64,0,0,1,110,108a2.28,2.28,0,0,1,2.4,2.13h0v.3Zm6.78.68c0-2.72-1.58-4.43-4.1-4.43a4.34,4.34,0,0,0-4.41,4.23v.29a4.3,4.3,0,0,0,4.11,4.48h.39a4.38,4.38,0,0,0,3.68-1.74l-1.19-1a2.87,2.87,0,0,1-2.49,1.3,2.73,2.73,0,0,1-2.77-2.59h6.77a4.86,4.86,0,0,0,0-.54Zm4.45,3.26a1.17,1.17,0,0,0-1.17-1.17h0a1.18,1.18,0,0,0-1.17,1.19h0v.06a1.18,1.18,0,0,0,2.36,0h0Zm11.23-3.2a4.6,4.6,0,1,0-4.6,4.6h0a4.6,4.6,0,0,0,4.61-4.59h0Zm-1.76,0a2.86,2.86,0,0,1-5.69.48,3.84,3.84,0,0,1,0-.48,2.85,2.85,0,1,1,5.69-.45h0a3.39,3.39,0,0,1,0,.45Zm8.12-4.25h-2V105.1c0-1,.23-2.06,1.51-2.06a4,4,0,0,1,.84.13l.2-1.46a3.79,3.79,0,0,0-1.06-.12c-2.3,0-3.18,1.51-3.18,3.51v1.78h-1.7v1.38h1.69v7.15h1.7v-7.15h2Zm5.2,0h-2V105.1c0-1,.23-2.06,1.51-2.06a4,4,0,0,1,.84.13l.2-1.46a3.79,3.79,0,0,0-1.06-.12c-2.3,0-3.18,1.51-3.18,3.51v1.78H136v1.38h1.7v7.15h1.69v-7.15h2Zm3.36,0H143v8.53h1.69Zm.29-3.08a1.13,1.13,0,1,0-1.18,1.08h0a1.11,1.11,0,0,0,1.18-1h0Zm9.86,4.25a4,4,0,0,0-3.2-1.4,4.35,4.35,0,0,0-4.55,4.14v.36a4.34,4.34,0,0,0,4.17,4.5h.4a4,4,0,0,0,3.18-1.34l-1.13-1a2.52,2.52,0,0,1-2.05.94,2.86,2.86,0,0,1-2.82-2.88h0v-.19a2.85,2.85,0,0,1,2.59-3.07h.2a2.42,2.42,0,0,1,2,1Zm3.4-1.17h-1.68v8.53h1.69Zm.29-3.08a1.13,1.13,0,0,0-2.23-.38v.1a.61.61,0,0,0,0,.19,1.13,1.13,0,0,0,1.08,1.17h0a1.11,1.11,0,0,0,1.14-1.08h0Zm8,6.32c-2.88,0-5.94.3-5.94,2.88,0,2,1.74,2.63,3.1,2.63a3.27,3.27,0,0,0,2.86-1.44h0a5,5,0,0,0,.15,1.22h1.53a8.69,8.69,0,0,1-.13-1.69V110c0-1.89-1.12-3.35-3.56-3.35a5.21,5.21,0,0,0-3.49,1.28l1,1.07a3.55,3.55,0,0,1,2.43-1c1.26,0,2.11.61,2.11,1.87Zm0,1.22v.45a2.33,2.33,0,0,1-2.14,2.5H164c-.85,0-1.75-.32-1.75-1.33,0-1.44,2.13-1.62,3.8-1.62Zm6.17-9.54H171v13.61h1.69Zm5,12.53a1.17,1.17,0,0,0-1.17-1.17h0a1.18,1.18,0,0,0-1.15,1.21h0a1.18,1.18,0,1,0,2.36,0h0ZM182,101.8h-1.69v13.61H182V111h.05l3.95,4.43h2.34L184,110.75l4-3.87h-2.3l-3.58,3.71h-.06Zm7.76,6.91v6.7h1.69v-4.48a2.46,2.46,0,0,1,2.14-2.72h.25a3.46,3.46,0,0,1,.78.09l.07-1.56a3,3,0,0,0-.67-.08,2.93,2.93,0,0,0-2.61,1.68h0a9.92,9.92,0,0,0-.07-1.44h-1.6c0,.56.07,1.38.07,1.83Z"/></g><g id="tag2"><g id="사각형_162-2" data-name="사각형 162-2"><path class="cls-1" d="M238,88.41h60a20,20,0,0,1,20,20h0a20,20,0,0,1-20,20H238a20,20,0,0,1-20-20h0A20,20,0,0,1,238,88.41Z"/><path class="cls-2" d="M238,89.41h60a19,19,0,0,1,19,19h0a19,19,0,0,1-19,19H238a19,19,0,0,1-19-19h0a19,19,0,0,1,19-19Z"/></g><path id="_내돈내듣에_공감하기-2" data-name=" 내돈내듣에 공감하기-2" d="M233.22,106.08v-1.5H235l.54-3.51h1.36l-.55,3.51h1.87l.56-3.51h1.38l-.56,3.51H241v1.5h-1.6l-.4,2.14h1.44v1.51h-1.69l-.54,3.68h-1.39l.6-3.67h-1.87l-.55,3.67h-1.4l.56-3.67h-1.4v-1.52h1.65l.34-2.14Zm2.92,0-.38,2.14h1.87l.36-2.14Zm19.48,9.75h-1.77v-8.12h-1.71v7.34h-1.73V100.12h1.73v6h1.71V99.79h1.77Zm-6.23-6.28.25,1.49a23.1,23.1,0,0,1-5.18.5h-1.59V101.7h1.84V110A18,18,0,0,0,249.39,109.55Zm21.06-3.46h-4.63v2h6.36v1.49H257.69v-1.52H264v-2h-4.4v-5.65h10.73v1.48h-8.87v2.77h9Zm0,9.29H259.54v-4.61h1.85v3.14h9.09Zm16.28.45H285v-8.12h-1.71v7.34h-1.73V100.12h1.73v6H285V99.79h1.77Zm-6.23-6.28.25,1.49a23.1,23.1,0,0,1-5.18.5H274V101.7h1.84V110a18.05,18.05,0,0,0,4.69-.47Zm22.79-.86H288.83v-1.5h14.49Zm-1.7,6.94H290.68v-5.47h10.78v1.48h-8.94v2.5h9.1Zm0-9.93H290.73v-5.49h10.73v1.49h-8.87v2.52h9Z"/></g></g><rect class="cls-3" y="87.41" width="375" height="42"/></g></g></g><g id="_7_tit" data-name=" 7 tit"><path id="패스_11576" data-name="패스 11576" d="M32.58,11.66H31.31V5.6H30V4.68a1.61,1.61,0,0,0,1.6-1.37h1ZM37.65,7.5a5.75,5.75,0,0,0-5.43-6.07h-.41A5.76,5.76,0,0,0,26,7.1c0,.13,0,.27,0,.4a5.76,5.76,0,0,0,5.44,6.07h.4a5.77,5.77,0,0,0,5.85-5.72C37.66,7.74,37.66,7.62,37.65,7.5Zm1,0a6.71,6.71,0,0,1-6.45,7h-.37A6.74,6.74,0,0,1,25,7.83c0-.11,0-.22,0-.33a6.71,6.71,0,0,1,6.45-7h.36A6.68,6.68,0,0,1,38.63,7.1,2.67,2.67,0,0,1,38.63,7.5Zm5.17,2V5C43.8,2,45.3.6,47.5.6S51.18,2,51.18,5V9.48c0,2.92-1.5,4.34-3.68,4.34S43.8,12.4,43.8,9.48ZM45.3,5V9.48c0,2.1.75,3,2.19,3s2.18-.9,2.18-3V5c0-2.11-.76-3-2.18-3s-2.19.9-2.19,3ZM55.38,7.32v7h-1.5V.46h1.5V6h1.95V7.32ZM70.08.46V14.28h-1.5V7.37H66.77v6.75h-1.5V.52h1.5V6h1.81V.46ZM64.21,12.32v1.36H58.36V6.32h3.75V2.11H58.35V.75h5.27V7.68H59.86v4.64ZM81.33,2.86a6.52,6.52,0,0,1-.25,1,8.49,8.49,0,0,0,4,3l-.86,1.2a10.3,10.3,0,0,1-3.82-2.77,7.94,7.94,0,0,1-3.38,3.14l-1.14-1a6.53,6.53,0,0,0,3.9-4.53h-3.3V1.5h3.24V0h1.5V1.5h3.24V2.86Zm5.1,5.66V.46h1.5v3.3h2V5.12h-2V8.53Zm-9.61,5.6V9.18H87.94v4.94Zm9.62-1.32V10.51H78.33V12.8Zm4.32-3.31V5C90.76,2.11,92.2.6,94.37.6S98,2.1,98,5V9.48c0,2.84-1.44,4.34-3.62,4.34s-3.61-1.5-3.61-4.34ZM92.26,5V9.49c0,2.1.75,3,2.11,3s2.11-.9,2.11-3V5c0-2.11-.75-3-2.11-3s-2.11.9-2.11,3Zm8.88,4.8H98.58V8.43h2.56V5.26H98.58V3.92h2.56V.46h1.5V14.28h-1.5Zm14.55-9V13.68h-6.61V.75h1.5V5.26h3.6V.75Zm3.61,6.62h-3V6h3V.46h1.5V14.28h-1.5Zm-8.72,5h3.6V6.62h-3.6Zm24.93.46v1.34H123.62v-3.3h1.5v2ZM122.87,8.65H136.1V10H122.87Zm12.64-2.53V7.47H123.62V.75h11.73V2.09H125.13V3.44h10.22V4.76H125.13V6.12Zm14.4,6.66v1.34H138V10.46h10.23V9.53H138V8.19h11.73v3.6H139.53v1ZM137.27,5.87h13.24V7.21H137.27Zm3.32-2.18h6.46c.75,0,1.36-.35,1.36-.94s-.61-1-1.36-1h-6.46c-.76,0-1.2.35-1.2,1s.44.94,1.19.94Zm0-3.23h6.46c1.66,0,2.86.78,2.86,2.29S148.71,5,147.05,5h-6.46c-1.65,0-2.7-.77-2.7-2.27s1-2.29,2.69-2.29Zm27.48,12.32v1.34H156.18V10.38h10.23v-1H156.18V8h5V6.91h-5.79V5.56h13.23V6.91h-5.93V8h5.18v3.7H157.69v1Zm0-9.68V4.44H156.18V.6h1.5V3.1Zm9.59,9.22v1.36h-7.22V6.32h4.66V2.11h-4.66V.75h6.16V7.68H172v4.64Zm3-4.64h-3.32V6.32h3.32V.46h1.5V14.28h-1.5Zm13.21,5.39-.67-2.83h-3.33l-.67,2.83h-1.65L190.71,1h1.67l3.15,12.08Zm-1-4.19-.46-2-.9-4-.87,4-.46,2Zm10.32.9v3.3h-1.5V9.93a1.66,1.66,0,0,0-1.26-1.81h-2.36v5h-1.5v-12h3.32c2.1,0,3.6,1.2,3.6,3.31a3.25,3.25,0,0,1-1.81,3.19,2.3,2.3,0,0,1,1.51,2.22Zm-3.47-7.36h-1.65V6.76h1.65a2.14,2.14,0,0,0,2.26-2c0-.1,0-.2,0-.3,0-1.36-.82-2-2.26-2ZM217.31,13v1.33h-11.6V10.54h9.78V9.45h-9.78V8.12H217v3.72h-9.77V13Zm-6-7.22h1.87V7.07H205V5.74h1.42v-3h1.5v3h1.89l.53-3h1.5ZM217,.46v7h-1.5v-7Zm-4.29.29V2.09h-7.44V.75Zm14.18,12.93h-7.22V.75h6.46V2.11h-5V6.17H226V7.52h-4.82v4.8h5.72Zm3-6.16h-3.15V6.17h3.15V.46h1.5V14.28h-1.5Zm16.21,5.31v1.3H234.21V10.8h10.23v-.7H234.21V8.8h11.73v3.28H235.71v.75ZM233.46,6.76h13.23V8.08H233.46Zm12.64-2v1.3H234.21V2.76h10.23V2H234.21V.74h11.73V4H235.71v.72Zm8.53-4.3h1.5a8,8,0,0,1-.29,2.18,9.91,9.91,0,0,0,4.4,3l-.7,1.28a12.61,12.61,0,0,1-4.22-2.8,7.84,7.84,0,0,1-2.66,3.21l-1.18-.91a6.76,6.76,0,0,0,3.15-6ZM264.26,13v1.33H252.68V10.48h9.77V9.29h-9.77V8H264v3.79h-9.78V13ZM264,.46V7.28h-1.5V.46Zm14.4,0V8.8h-1.5V5.26H275.1V8.8h-1.47V.52h1.47v3.4h1.76V.46ZM273,1.22v1.3h-6.83V1.21h2.65V0h1.5V1.21Zm-.37,4.64a3,3,0,1,1-3.33-2.69h.32a2.73,2.73,0,0,1,3,2.47,1.64,1.64,0,0,1,0,.22Zm-1.49,0a1.52,1.52,0,1,0-1.6,1.43h.08a1.45,1.45,0,0,0,1.52-1.37V5.85Zm4.19,8.57h-5.12c-2.1,0-3.3-1-3.3-2.46s1.2-2.48,3.3-2.48h5.12c2.12,0,3.32,1,3.32,2.48s-1.21,2.46-3.32,2.46Zm-5.12-1.33h5.12c1.06,0,1.73-.4,1.73-1.13s-.67-1.17-1.73-1.17h-5.12c-1,0-1.72.42-1.72,1.17s.68,1.13,1.72,1.13Zm-236,21.5v1.06H29.35a4.8,4.8,0,0,1,1.73-3.34c1.1-1.16,2-1.38,2-2.72,0-1-.54-1.43-1-1.43-1.12,0-1.22,1.52-1.23,2H29.53c.08-1.46.56-3.09,2.44-3.09a2.2,2.2,0,0,1,2.26,2.15,1.51,1.51,0,0,1,0,.3c0,1.23-.5,1.9-1.64,2.88C31.25,33.6,31.08,34,30.9,34.6Zm3.44-3.1a5.75,5.75,0,0,0-5.43-6.07h-.41A5.76,5.76,0,0,0,26,31.1c0,.13,0,.27,0,.4a5.76,5.76,0,0,0,5.44,6.07h.4a5.77,5.77,0,0,0,5.85-5.72C37.66,31.74,37.66,31.62,37.65,31.5Zm1,0a6.71,6.71,0,0,1-6.45,7h-.37A6.74,6.74,0,0,1,25,31.83c0-.11,0-.22,0-.33a6.71,6.71,0,0,1,6.45-7h.36a6.68,6.68,0,0,1,6.82,6.56A2.67,2.67,0,0,1,38.63,31.5Zm17.06-7V38.28h-1.5V31.37H51.93v6.75h-1.5V24.52h1.5V30h2.25V24.46ZM44,37.68V24.75h1.5V36.32h3.85v1.36Zm15.92-.15H58.07V35.74h1.81Zm14-.75v1.34H62v-4h1.5v2.7Zm-.08-6.94H68.57v1.84H74.5V33H61.27V31.68h5.79V29.84H62V24.75H73.75v1.34H63.53v2.42h10.3Zm4,7.7H76v-1.8H77.8ZM91.53,24.46V38.28H90V31.37H87.77v6.75h-1.5V24.52h1.5V30H90V24.46ZM79.8,37.68V24.75h1.5V36.32h3.85v1.36Zm15.92-.15H93.91V35.74h1.8Zm14-8.06H97.86V24.75h11.73v1.33H99.37v2.06h10.3ZM97.11,30.78h13.23v1.34H97.11Zm2.26,6h10.38v1.33H97.86V33.49h11.73V34.8H99.37Zm20.28-7.54h1.5v3.92h1.35v1.34h-1.34v2.55h-1.5V34.52H115v-1l4.07-8.57h1.66L117,33.18h2.7Zm16.07-4.8V32.8h-1.5V29.26h-1.76V32.8H131V24.52h1.47v3.4h1.76V24.46Zm-5.35.75v1.31h-6.83V25.21h2.66V24h1.5v1.22ZM130,29.85a3,3,0,1,1-3.34-2.68l.33,0a2.74,2.74,0,0,1,3,2.47A1.79,1.79,0,0,1,130,29.85Zm-1.49,0a1.52,1.52,0,1,0-1.6,1.44H127a1.44,1.44,0,0,0,1.51-1.37v-.07Zm4.19,8.58h-5.12c-2.1,0-3.3-1-3.3-2.47s1.2-2.48,3.3-2.48h5.12c2.11,0,3.31,1,3.31,2.48s-1.2,2.47-3.31,2.47Zm-5.12-1.33h5.12c1.06,0,1.73-.4,1.73-1.14s-.67-1.16-1.73-1.16h-5.12c-1,0-1.73.41-1.73,1.16S126.55,37.1,127.59,37.1Zm12.9-12.5H142a36,36,0,0,1-.3,4.64,16.1,16.1,0,0,0,4.13,7.41l-1.1,1a16.51,16.51,0,0,1-3.54-5.58A21.34,21.34,0,0,1,139,37.86l-1.34-.7a25.59,25.59,0,0,0,2.84-12.56Zm8.12-.14h1.5V38.28h-1.5Zm16.36,14h-4.52c-2.25,0-3.6-1.14-3.6-2.77s1.35-2.78,3.6-2.78H165c2.25,0,3.61,1.13,3.61,2.78S167.22,38.43,165,38.43Zm-4.52-1.33H165c1.2,0,2-.56,2-1.44s-.83-1.46-2-1.46h-4.52c-1.2,0-2,.56-2,1.46S159.25,37.1,160.45,37.1Zm-2.7-9a2.19,2.19,0,0,0,4.37.3,1.5,1.5,0,0,0,0-.3,2.19,2.19,0,0,0-4.37-.3Zm-1.5,0a3.69,3.69,0,1,1,3.7,3.68h0a3.57,3.57,0,0,1-3.68-3.45.89.89,0,0,1,0-.23Zm12-3.68v7.78h-1.5V30.32h-2.58V29h2.56V27.31h-2.56V26h2.56v-1.5Zm5.37,0h1.5a10.23,10.23,0,0,1-.25,2.34,11.13,11.13,0,0,0,4,3.79L178,31.74a13.85,13.85,0,0,1-3.67-3.28,8.33,8.33,0,0,1-3,3.68l-1.15-1a7.43,7.43,0,0,0,3.48-6.66Zm10.67,3v1.34h-2v3.57h-1.5V24.46h1.5v3Zm-5.26,11h-4.36c-2.25,0-3.61-1.14-3.61-2.77s1.36-2.78,3.61-2.78h4.36c2.25,0,3.61,1.13,3.61,2.78s-1.37,2.77-3.62,2.77Zm-4.36-1.33h4.36c1.21,0,2-.56,2-1.44s-.82-1.46-2-1.46h-4.36c-1.2,0-2,.56-2,1.46S173.51,37.1,174.71,37.1Zm22.68-.32v1.34h-11.9V34.46h10.22v-.93H185.49V32.19h11.73v3.6H187v1Zm-12.64-6.91H198v1.34H184.74Zm3.31-2.18h6.45c.76,0,1.36-.35,1.36-.94s-.6-1-1.36-1h-6.46c-.75,0-1.2.35-1.2,1s.45.94,1.2.94Zm0-3.23h6.45c1.67,0,2.87.78,2.87,2.29S196.18,29,194.51,29h-6.46c-1.64,0-2.7-.77-2.7-2.27s1.06-2.29,2.7-2.29Zm27.18,13.82H203.81v-3.5h9.62v-.84h-9.62V32.6h11.12v3.46h-9.62V37h9.92Zm-1.81-13.82h1.5v3.15h1.95V29h-1.95V32h-1.5Zm-9.63,5.38-.9-1.12a5.75,5.75,0,0,0,3.7-2h-3.09V25.36h3.1V24h1.5v1.36h3v1.31h-2.92c-.07.13-.15.26-.23.39a8.32,8.32,0,0,0,3.86,1.32l-.69,1.22a10.25,10.25,0,0,1-4-1.57A7.14,7.14,0,0,1,203.8,29.84Zm8.53,1.93H202.9V30.46h3.68V29.12h1.5v1.34h4.24Zm14,6.66h-4.52c-2.25,0-3.6-1.14-3.6-2.77s1.35-2.78,3.6-2.78h4.52c2.25,0,3.61,1.13,3.61,2.78s-1.36,2.77-3.61,2.77Zm-4.52-1.33h4.52c1.2,0,2-.56,2-1.44s-.83-1.46-2-1.46h-4.52c-1.2,0-2,.56-2,1.46S220.61,37.1,221.81,37.1Zm-2.7-9a2.19,2.19,0,0,0,4.37.3,1.5,1.5,0,0,0,0-.3,2.19,2.19,0,0,0-4.37-.3Zm-1.5,0a3.69,3.69,0,1,1,3.7,3.68h0a3.57,3.57,0,0,1-3.68-3.45.89.89,0,0,1,0-.23Zm12-3.68v7.78h-1.5V30.32h-2.56V29h2.56V27.31h-2.56V26h2.56v-1.5ZM31.77,55.71h-.46v-.93c.9,0,1.56-.22,1.56-1.31,0-.74-.42-1.3-1-1.3-.78,0-1,.8-1.08,1.52h-1.2c.1-1.81,1.05-2.59,2.3-2.59A2.07,2.07,0,0,1,34.08,53v.25a1.83,1.83,0,0,1-1,1.87,1.83,1.83,0,0,1,1.21,2,2.46,2.46,0,0,1-2.2,2.71h-.26c-1.66,0-2.37-1.31-2.45-2.9h1.23c0,.7.11,1.82,1.24,1.82.64,0,1.25-.54,1.25-1.6C33.06,56.35,32.69,55.71,31.77,55.71Zm5.88-.21a5.75,5.75,0,0,0-5.43-6.07h-.41A5.76,5.76,0,0,0,26,55.1c0,.13,0,.27,0,.4a5.76,5.76,0,0,0,5.44,6.07h.4a5.77,5.77,0,0,0,5.85-5.72C37.66,55.74,37.66,55.62,37.65,55.5Zm1,0a6.71,6.71,0,0,1-6.45,7h-.37a7,7,0,0,1,0-13.92,6.68,6.68,0,0,1,6.82,6.56A2.67,2.67,0,0,1,38.63,55.5Zm5.17,2V53c0-2.94,1.5-4.37,3.7-4.37S51.18,50,51.18,53v4.51c0,2.92-1.5,4.34-3.68,4.34S43.8,60.4,43.8,57.48ZM45.3,53v4.51c0,2.1.75,3,2.19,3s2.18-.9,2.18-3V53c0-2.11-.76-3-2.18-3s-2.19.9-2.19,3Zm10.08,2.35v7h-1.5V48.46h1.5V54h1.95v1.34Zm14.1-6.86V62.28H68V55.37H66.17v6.75h-1.5V48.52h1.5V54H68V48.46ZM63.61,60.32v1.36H57.75V54.32h3.76V50.11H57.75V48.75H63v6.93H59.25v4.64Zm10.72.75v-2.5a3,3,0,0,1,1.55-3L78.21,54a2.26,2.26,0,0,0,1.08-2c0-1.2-.52-1.81-1.73-1.81s-1.73.61-1.73,1.81h-1.5c0-2.26,1.28-3.16,3.23-3.16s3.23.9,3.23,3.16a3.31,3.31,0,0,1-1.7,3.08l-2.3,1.49a2,2,0,0,0-1,1.9v1.2h5v1.33ZM82.2,48.75H87V52a12.14,12.14,0,0,1-4.11,9.71l-1.34-.83a10.61,10.61,0,0,0,4-8.74v-2H82.2Zm11.73-.29V62.28h-1.5V55.37H90.17v6.75h-1.5V48.52h1.5V54h2.25V48.46Zm16.94,0V62.28h-1.5V55.37h-1.81v6.75h-1.5V48.52h1.5V54h1.81V48.46ZM105,60.32v1.36H99.14V48.75h5.41v1.36h-3.9v4.21h3.76v1.36h-3.76v4.64Zm19.81-1.49h-1.5V50.11H113.08V48.75h11.73Zm.75,1.49v1.36H112.33V60.32Zm13.2.51v1.3H126.87V58.8h10.22v-.7H126.87V56.8H138.6v3.28H128.37v.75Zm-12.65-6.07h13.24v1.32H126.11Zm12.64-2v1.3H126.87v-3.3h10.22V50H126.87v-1.3H138.6V52H128.37v.72Zm16.95,8v1.33H143.81V56.4h5v-.91h-5.79V54.14h13.23v1.34h-5.93v.92h5.18v1.33H145.31v.85h10.23V59.9H145.31v.9Zm-.16-12v4.51H143.81V48.75h1.5v.9H154v-.9ZM145.31,52H154V51h-8.72Zm12,5.52V53c0-2.86,1.44-4.37,3.61-4.37s3.62,1.5,3.62,4.37v4.51c0,2.84-1.44,4.34-3.62,4.34s-3.61-1.5-3.61-4.34ZM158.8,53v4.51c0,2.1.75,3,2.11,3s2.11-.9,2.11-3V53c0-2.11-.75-3-2.11-3s-2.1.9-2.1,3Zm8.88,4.8h-2.56V56.43h2.56V53.26h-2.56V51.92h2.56V48.46h1.5V62.28h-1.5Zm5.66-9.17h1.5a35.8,35.8,0,0,1-.3,4.64,16.09,16.09,0,0,0,4.13,7.41l-1.1,1A16.81,16.81,0,0,1,174,56.09a21.08,21.08,0,0,1-2.19,5.78l-1.34-.7a25.55,25.55,0,0,0,2.85-12.57Zm8.13-.14H183V62.28h-1.5v-7h-4.36V54h4.37ZM184.31,63l-.44-.61a2,2,0,0,0,.9-2v-.74h1.72v.74A2.56,2.56,0,0,1,184.31,63Zm19.43-2.72v1.36H190.5V60.32Zm-12.33-3.81-.91-1.12a9.23,9.23,0,0,0,6.13-6.93l1.49.29a8.49,8.49,0,0,1-.61,2,12.31,12.31,0,0,0,6.22,4L203,56a13.84,13.84,0,0,1-6.14-3.89,11.16,11.16,0,0,1-5.4,4.4Zm25.52-.75V57.1H205.05V48.75h11.72v1.36H206.55v2.11h10.22v1.34H206.55v2.2Zm.6,4.56v1.36H204.29V60.32h5.88V57.87h1.5v2.45Zm9.13,0v1.36h-8V54.32h5.41V50.11h-5.41V48.75h6.92v6.93H220.2v4.64Zm3.76-11.86V62.28h-1.5V48.46Zm4.79,9.78V54.92c0-2,1.34-3,3.3-3s3.31,1,3.31,3v3.32c0,1.93-1.35,3-3.31,3S235.21,60.17,235.21,58.24Zm1.5-3.09V58c0,1.27.59,1.87,1.79,1.87s1.81-.6,1.81-1.87V55.15c0-1.28-.6-1.89-1.81-1.89s-1.79.61-1.79,1.89ZM247.22,52v1.5c-1.66-.46-2.86.29-2.86,1.73v5.84h-1.5v-9h1.36l.14,1A2.64,2.64,0,0,1,247.22,52Zm15.9,9v1.33H251.54V58.54h9.77V57.45h-9.77V56.12h11.28v3.72H253V61Zm-.3-12.5v7h-1.5v-7Zm-3.45,5.28v1.33h-8.28V51.23h5.57V50.09h-5.57V48.75h7.08v3.77H252.6v1.22Zm18.14,6.58v1.36H264.28V60.32Zm-12.32-3.81-.91-1.12a9.23,9.23,0,0,0,6.13-6.93l1.49.29a8.49,8.49,0,0,1-.61,2,12.31,12.31,0,0,0,6.22,4l-.78,1.2a13.84,13.84,0,0,1-6.14-3.89,11.16,11.16,0,0,1-5.4,4.4Zm25.22,5.77h-1.5V48.46h1.5ZM280,51.61v7.22c0,1.2.53,1.65,1.28,1.65s1.28-.45,1.28-1.65V51.61c0-1.2-.53-1.65-1.28-1.65S280,50.41,280,51.61Zm-1.5,7.22V51.61a2.79,2.79,0,0,1,5.57-.42,2.94,2.94,0,0,1,0,.42V54h1.72V48.52h1.5v13.6h-1.5V55.37h-1.72v3.46a2.79,2.79,0,0,1-5.57.39,2.54,2.54,0,0,1,0-.39Zm28.83-2.4v5.7H296.07v-5.7h1.54v1.34h8.24V56.43Zm-12-4.43a3.61,3.61,0,1,1,3.7,3.52h-.08a3.47,3.47,0,0,1-3.61-3.34A1.09,1.09,0,0,1,295.31,52Zm12-3.54v7.32h-1.5v-3.1h-2.7V51.32h2.7V48.46ZM296.82,52a2.11,2.11,0,1,0,2.11-2.2,2.08,2.08,0,0,0-2.11,2Zm.75,8.8h8.28V59.1h-8.28Zm23.88-5V57.1H309.56V52.22h10.22V50.11H309.56V48.75h11.73v4.81H311.06v2.2Zm.59,4.56v1.36H308.81V60.32h5.87V57.87h1.5v2.45Zm2.81-5.39h10.39v1.34H323.35V48.75h11.73v1.36H324.85Zm11,5.39v1.36H322.6V60.32Zm1.18-12h1.5v9.63H337ZM338.66,62h-1.81V60.17h1.81Z"/></g></g></g></svg>