<svg xmlns="http://www.w3.org/2000/svg" width="210" height="64" viewBox="0 0 210 64"><defs><style>.cls-1{fill:#666;}.cls-2{fill:none;}</style></defs><title>txt_sec8_reward_info5_w210</title><g id="Layer_2" data-name="Layer 2"><g id="Layer_1-2" data-name="Layer 1"><g id="_8_txt05" data-name=" 8 txt05"><path id="패스_11573" data-name="패스 11573" class="cls-1" d="M80.81,63H72.73V58.71h8.08ZM71.33,54.3V53h6.58V54.3H75.53a3.31,3.31,0,0,0,2.67,2.46L77.39,58a5.44,5.44,0,0,1-1.6-.88,3.69,3.69,0,0,1-1.16-1.35,4.22,4.22,0,0,1-1.16,1.55,4.84,4.84,0,0,1-1.76,1L70.8,57.1c1.7-.56,2.67-1.5,2.91-2.8Zm11.25.91H80.81v2.87H79.18V50.63h1.63v3.23h1.77Zm-3.41,6.45V60h-4.8v1.71Zm-6.36-9.35V51h3.63v1.28ZM90,58.5l.06-1.4h1.79V54.48H90.06L90,53.1h1.85V50.63h1.64V63.1H91.85V58.5ZM83.24,56a5.6,5.6,0,0,1,.86-3.24,2.69,2.69,0,0,1,2.35-1.23,2.72,2.72,0,0,1,2.36,1.23,6.48,6.48,0,0,1,0,6.45,2.88,2.88,0,0,1-4.71,0A5.56,5.56,0,0,1,83.24,56Zm4.86,0a4.93,4.93,0,0,0-.45-2.3,1.36,1.36,0,0,0-1.2-.85,1.34,1.34,0,0,0-1.17.85,4.92,4.92,0,0,0-.44,2.3,4.84,4.84,0,0,0,.44,2.28,1.34,1.34,0,0,0,1.17.84,1.36,1.36,0,0,0,1.2-.84A4.83,4.83,0,0,0,88.1,56ZM102.81,59l-.91,1.19a5.94,5.94,0,0,1-1.8-1.47,5.22,5.22,0,0,1-1.19-1.91,5.41,5.41,0,0,1-1.1,2.06,5.61,5.61,0,0,1-1.93,1.59l-1-1.22A6,6,0,0,0,98,53.58v-.33H95.52V51.9h6.65v1.35H99.73v.32A5.78,5.78,0,0,0,102.81,59ZM105,50.63v4.8h1.78v1.36H105V63.1H103.4V50.63ZM111.51,53V51.62h6.58V53h-2.4a3.83,3.83,0,0,0,.82,2.37,4,4,0,0,0,2,1.38l-.9,1.29A5,5,0,0,1,116,57a4.67,4.67,0,0,1-1.17-1.54,4.21,4.21,0,0,1-1.12,1.73A4.86,4.86,0,0,1,112,58.36l-1-1.29a4.76,4.76,0,0,0,2.2-1.58A4,4,0,0,0,114,53v0Zm9.88,6.7h-1.63V55.26h-1.88V54h1.88V50.63h1.64Zm.27,3.1h-8.61V58.83h1.65v2.65h7Zm7.74-11.09a2,2,0,0,1,.88,1.66,2,2,0,0,1-.87,1.66,3.67,3.67,0,0,1-2.25.64,3.81,3.81,0,0,1-2.27-.65,2,2,0,0,1-.9-1.67,2,2,0,0,1,.9-1.65,3.8,3.8,0,0,1,2.26-.65A3.69,3.69,0,0,1,129.4,51.68Zm.29,7.33V57.84h2.38V50.63h1.64v9.64h-1.64V59Zm4.22,3.76h-9.16V59.08h1.64v2.38h7.52Zm-5.48-3.1h-1.62V57.45c-1.16,0-2.31,0-3.46,0-.11-.67-.18-1.1-.22-1.29a66,66,0,0,0,8-.37l.1,1.2c-.69.11-1.6.21-2.74.29Zm-.18-5.57a.94.94,0,0,0,.41-.75,1,1,0,0,0-.42-.77,1.62,1.62,0,0,0-1.08-.34,1.71,1.71,0,0,0-1.1.33,1,1,0,0,0-.41.77.92.92,0,0,0,.41.76,1.79,1.79,0,0,0,1.1.31A1.76,1.76,0,0,0,128.25,54.1Z"/><path id="패스_11405" data-name="패스 11405" class="cls-1" d="M30.4,12.11H23.56V1.61h6.11V2.72H24.78V11H30.4ZM32.84,7v5.66H31.62V1.38h1.22V5.86h1.59V7ZM37,1.49h1.22a28,28,0,0,1-.25,3.77,13.13,13.13,0,0,0,3.35,6l-.9.83a13.38,13.38,0,0,1-2.87-4.53,17.2,17.2,0,0,1-1.78,4.69l-1.09-.57A20.79,20.79,0,0,0,37,1.5Zm6.6-.11h1.22V12.61H43.57ZM55.76,6.26a2.56,2.56,0,0,1-2.67,2.46h-.15a2.56,2.56,0,0,1-2.8-2.28s0-.11,0-.17a2.55,2.55,0,0,1,2.64-2.45h.17a2.56,2.56,0,0,1,2.81,2.29S55.76,6.21,55.76,6.26Zm3.79,5.13v1.09H50.26V9.19h1.22v2.2Zm1.34-6.52V6H59.3v4H58.08V1.38H59.3v3.5Zm-4.52-2.7V3.25H49.65V2.17h2.68V1h1.22V2.17Zm-1.83,4.1a1.43,1.43,0,0,0-1.42-1.44h-.18a1.42,1.42,0,0,0-1.57,1.25,1,1,0,0,0,0,.17,1.4,1.4,0,0,0,1.39,1.42l.2,0a1.4,1.4,0,0,0,1.58-1.21,1.15,1.15,0,0,0,0-.19ZM67.22,1.62v6.3h-5.5V1.61h1.22v2h3v-2Zm4.27,9.77v1.09H62.08V9.07H63.3v2.32Zm-.24-10V9.87H70V5.28h-2.2V4.18H70V1.38ZM62.94,6.81h3V4.73h-3ZM86,11.53v1.08H76.72V9.51h7.81v-1H76.72V7.49h9v3.08H77.94v1Zm1.34-7.84V4.8H85.75V6.92H84.53V1.38h1.22V3.69ZM82.22,1.61V6.5H76.47V1.61Zm-4.53,3.8H81V2.71h-3.3Zm10.6,4V7.85A2.64,2.64,0,0,1,90.76,5h.4A2.65,2.65,0,0,1,94,7.44a2.81,2.81,0,0,1,0,.41V9.44a2.63,2.63,0,0,1-2.46,2.8h-.41a2.61,2.61,0,0,1-2.87-2.8ZM97.46,7v5.65H96.23V1.38h1.22V5.86H99V7Zm-7.94.9V9.44a1.5,1.5,0,0,0,1.32,1.69,1.13,1.13,0,0,0,.32,0,1.52,1.52,0,0,0,1.66-1.37,1.82,1.82,0,0,0,0-.33V7.85a1.53,1.53,0,0,0-1.33-1.71h-.32a1.53,1.53,0,0,0-1.65,1.4,1.71,1.71,0,0,0,0,.32Zm4.88-4H87.93V2.73h2.6V1h1.22V2.71H94.4Zm5.48-1.1V1.61h6V2.72h-2.55A20.82,20.82,0,0,1,103,5.87a12.26,12.26,0,0,0,3.5,5.49l-.93.75a13.87,13.87,0,0,1-3-4.27,13.6,13.6,0,0,1-2.11,4.43l-1.1-.57a14.71,14.71,0,0,0,2.69-9Zm8.3-1.35h1.22V12.61h-1.22Zm14.26,3.36V5.85h-1.59v4h-1.22V1.38h1.22V4.74Zm-1.34,6.65v1.09h-9.28V8.94H113v2.45Zm-3.78-9.78v6h-5.75v-6ZM112.79,6.5h3.3V2.72h-3.3Zm21.6,1.81V1.38h1.22V4.25h1.59V5.34h-1.59v3Zm-4.81-5.59V1.61h3.52V5.52h-1.22V2.72Zm-3.38,0V1.61h2.94V5.52h-1.23V2.72Zm3.18,6h3.54c1.78,0,2.94.73,2.94,2s-1.16,2-2.94,2h-3.54c-1.78,0-2.94-.72-2.94-2S127.6,8.71,129.38,8.71Zm3.54,1.06h-3.54c-1,0-1.65.34-1.65,1s.68.93,1.65.93h3.54c1,0,1.65-.33,1.65-.93S133.91,9.77,132.92,9.77ZM125.83,7.7V6.6h4V4.3H131V6.6h2.75V7.7Zm22,3.69v1.09h-9.66V9.55h1.23v1.84Zm-10.27-4h10.75v1.1H137.53Zm7.22-1.1h-3.67c-2,0-3.05-.85-3.05-2.44s1.09-2.44,3.05-2.44h3.67c1.95,0,3.05,1,3.05,2.44S146.7,6.26,144.75,6.26Zm-3.67-1.1h3.67c1.22,0,1.7-.55,1.7-1.34s-.48-1.35-1.7-1.35h-3.67c-1.1,0-1.71.56-1.71,1.35S139.86,5.16,141.08,5.16Zm12.68-.91A1.69,1.69,0,0,0,155.36,6h.12a1.69,1.69,0,0,0,1.7-1.67v-.1a1.7,1.7,0,0,0-1.6-1.78h-.1a1.68,1.68,0,0,0-1.72,1.66Zm-1.22,0a2.81,2.81,0,0,1,2.77-2.87h.16a2.83,2.83,0,0,1,2.93,2.71v.16a2.82,2.82,0,0,1-2.78,2.86h-.15a2.83,2.83,0,0,1-2.93-2.71.75.75,0,0,1,0-.15Zm7.19,3.67,1.14.11a4.67,4.67,0,0,1-.25,1.33,7.5,7.5,0,0,0,2.48,2.14l-.75.93a9.87,9.87,0,0,1-2.24-1.94,5.52,5.52,0,0,1-1.91,2l-.53-.48v.48h-4.52V8h1.24V9.12h2.06V8h1.22v3.46a4.55,4.55,0,0,0,2.05-3.51Zm-3.28,2.24h-2.08v1.27h2.08Zm4.64-8.78h1.22V7.45h-1.22V4.8h-2.2V3.69h2.2Zm3.26,7.33V5c0-2.32,1.17-3.55,2.94-3.55s2.94,1.23,2.94,3.55V8.71c0,2.3-1.17,3.52-2.94,3.52S164.35,11,164.35,8.71ZM165.57,5V8.71c0,1.7.62,2.43,1.72,2.43S169,10.41,169,8.71V5c0-1.71-.61-2.44-1.72-2.44S165.57,3.33,165.57,5Zm7.22,2h-2.08V5.89h2.08V1.38H174V12.61h-1.22Zm9.75.49H179.6c-2.08,0-3.55-1.22-3.55-3s1.47-3.06,3.55-3.06h2.94c2.07,0,3.54,1.22,3.54,3.05s-1.47,3.06-3.54,3.06ZM179.6,6.38h2.94a2,2,0,0,0,2.23-1.75,1.36,1.36,0,0,0,0-.2,2,2,0,0,0-2-2H179.6a2,2,0,0,0-2.25,1.77c0,.06,0,.13,0,.19a2,2,0,0,0,2.08,2ZM186.44,11v1.1H175.69V11h2.44V8.21h1.22V11h3.42V8.21H184V11Z"/><path id="패스_11457" data-name="패스 11457" d="M38.46,29.84l.9-5.08H43L39.52,40.24H35.9L32.46,24.76h3.6l.88,5.08.76,5.94Zm8.88,10.32H43.92V24.76h3.42Zm1.68,0V24.76h4.9c3,0,4.5,1.68,4.5,4.08a3.67,3.67,0,0,1-1.8,3.42,3.58,3.58,0,0,1,2.08,3.68c0,2.54-1.68,4.22-4.5,4.22ZM52.44,37h1.1c1.22,0,1.74-.62,1.74-1.6s-.62-1.5-1.74-1.5h-1.1Zm1.08-9H52.44v2.72h1A1.36,1.36,0,0,0,55,29.53a1.22,1.22,0,0,0,0-.27C55,28.38,54.42,28,53.52,28Zm6.16-3.2H68V28H63.1v2.62h4.3v3.2H63.1V37h5.24v3.18H59.68Zm18.9,15.4H75.16V28h-1.3v-3.2h4.72Zm3.06-15.78h6.58v5.46c0,4.28-1.32,8.24-4.68,11L80.9,38.92a10.81,10.81,0,0,0,3.9-8.74V27.54H81.64Zm15.24-.18V41.48H93.46V33.64h-.92v7.64H89.18v-17h3.36v6.2h.92V24.2Zm3.34,12.18v-2.1h14.66v4.6H103.6v.48h11.66v2.12h-15V36.84H111.5v-.46Zm3-12.18H106c2.36,0,3.76,1,3.76,2.56S108.4,29.3,106,29.3h-2.82c-2.38,0-3.76-1-3.76-2.54S100.84,24.2,103.22,24.2ZM106,26.36h-2.82c-.36,0-.56.12-.56.4s.2.38.56.38H106c.36,0,.56-.12.56-.38S106.4,26.36,106,26.36Zm-7,5.44V29.66H110.3V31.8h-4.68V34H102.2V31.8ZM108,34V32h3.46V24.2h3.42V34Zm29.58-9.76V41.48h-3.42V24.2Zm-5.64,5.06v6.58c0,3.18-1.88,5.06-4.9,5.06s-4.88-1.88-4.88-5.06V29.26c0-3.18,1.88-5.06,4.88-5.06S131.94,26.08,131.94,29.26Zm-3.24,6.58V29.26c0-1.22-.62-1.9-1.66-1.9s-1.64.68-1.64,1.9v6.58c0,1.24.62,1.92,1.64,1.92S128.7,37.08,128.7,35.84Zm27.06,2.54c0,2.06-1.68,3.28-4.32,3.28h-6.76c-2.64,0-4.34-1.22-4.34-3.28s1.7-3.28,4.34-3.28h6.76C154.08,35.1,155.76,36.32,155.76,38.38Zm-3.48,0c0-.46-.42-.72-1.08-.72h-6.28c-.66,0-1.1.26-1.1.72s.44.72,1.1.72h6.28C151.86,39.1,152.28,38.84,152.28,38.38Zm-2.52-7.6h-3.42v1h3.42ZM143,30.6a3,3,0,0,1-2.62-3.12c0-2,1.52-3.28,4.34-3.28h6.76c2.82,0,4.32,1.3,4.32,3.28a3,3,0,0,1-2.62,3.12v1.18h3.18v2.64H139.78V31.78H143Zm1.74-2.48h6.7c.56,0,.9-.2.9-.64s-.34-.64-.9-.64h-6.7c-.56,0-.9.22-.9.64S144.14,28.12,144.7,28.12Zm28.88-3.92v13h-3.42V36.1h-3.72V33.6h3.72V24.2Zm-5.42,5.46h-3.38v-2.3h-6.44v-3h9.82Zm5.8,8.72v3.1h-15V36.2h3.42v2.18Zm-10-2.66h-3.38V33h-2.78V30.24H169.2V33h-5.26Z"/></g><rect class="cls-2" width="210" height="64"/></g></g></svg>