<svg xmlns="http://www.w3.org/2000/svg" width="375" height="234" viewBox="0 0 375 234"><defs><style>.cls-1{fill:#5525d7;}.cls-2{fill:#fed843;}.cls-3{fill:#fff;}.cls-4{fill:none;}</style></defs><title>txt_sec1_description_w375</title><g id="Layer_2" data-name="Layer 2"><g id="Layer_1-2" data-name="Layer 1"><g id="_2_txt" data-name=" 2 txt"><g id="그룹_4081" data-name="그룹 4081"><path id="사각형_127" data-name="사각형 127" class="cls-1" d="M51.64,198h274v10h-274Z"/><path id="사각형_128" data-name="사각형 128" class="cls-1" d="M58.64,224h260v10h-260Z"/></g><path id="패스_11243" data-name="패스 11243" class="cls-2" d="M130.6,13.72V16.9H114.06V13.72Zm-14.64-3L113.88,8a10.27,10.27,0,0,0,7-8l3.66.56a11.74,11.74,0,0,1-.84,2.84,14.26,14.26,0,0,0,7.12,4l-1.92,2.8a14.86,14.86,0,0,1-7-3.9,13.75,13.75,0,0,1-6,4.44Zm31.7-6.06V7.52H136V9h11.8V12H132.62V.38h15v3H136V4.66Zm.74,9.1V16.9H131.86V13.76ZM165.46.2V17.48H162V.2ZM160.2,13.58v3.14h-10v-10H156V3.54h-5.74V.38h9.16v9.5h-5.74v3.7Zm17-13.2V9.22H168V.38Zm-6,6.12H174V3.1h-2.82Zm12-6.3V9.92h-3.42V.2Zm-4.32,17.46h-6.22c-2.72,0-4.5-1.5-4.5-3.64s1.78-3.68,4.5-3.68h6.22c2.72,0,4.5,1.5,4.5,3.68S181.66,17.66,178.94,17.66Zm-6.22-2.82h6.22c.64,0,1-.36,1-.82a.89.89,0,0,0-.93-.87h-6.31c-.66,0-1,.38-1,.86S172.06,14.84,172.72,14.84ZM192.58,17l-3.2-1.44c2.48-4.6,3.16-9.68,3.16-15.14H196a49.7,49.7,0,0,1-.3,5.72,20.5,20.5,0,0,0,5.06,8.68l-2.6,2.12a19.17,19.17,0,0,1-3.52-5.08,24.41,24.41,0,0,1-2,5.14ZM205.56.2V17.48h-3.42V9.22h-4.3V5.84h4.3V.2Zm17.8,0V17.48h-3.42V.2Zm-5.9.18V16.72h-9.34V.38h3.24v4.7h2.88V.38Zm-6.1,13.2h2.88V8.24h-2.88Zm30.54.14V16.9H225.36V13.72Zm-14.64-3L225.18,8a10.27,10.27,0,0,0,7-8l3.66.56A11.74,11.74,0,0,1,235,3.4a14.26,14.26,0,0,0,7.12,4l-1.92,2.8a14.86,14.86,0,0,1-7-3.9,13.75,13.75,0,0,1-6,4.44Zm26.8-5.46a5.26,5.26,0,0,1-10.52,0,5.26,5.26,0,0,1,10.52,0Zm-3.26,0a2,2,0,1,0-4,0,2,2,0,1,0,4,.52A1.51,1.51,0,0,0,250.8,5.26Zm4.74,12.22V.2H259V17.48Zm-12.38-.58V13.76h11.5V16.9Zm-136.77,23V38.6h-8.2v1.28ZM109.81,36v6.48h-15V36ZM94,32.5h16.54v2.68H94Zm11.66-.68H98.91c-2.82,0-4.34-1.16-4.34-3.32,0-2,1.52-3.3,4.34-3.3h6.76c2.82,0,4.32,1.32,4.32,3.3C110,30.66,108.49,31.82,105.67,31.82Zm-6.74-2.66h6.7c.56,0,.9-.22.9-.66s-.34-.66-.9-.66h-6.7c-.56,0-.9.24-.9.66S98.37,29.16,98.93,29.16ZM124.19,38h-3.46V35.54h3.46V25.2h3.42V38.5h-3.42Zm3.8,1.48v3H113v-4.8h3.42v1.78ZM118.21,32h-1.7c-2.72,0-4.32-1.34-4.32-3.4s1.6-3.4,4.32-3.4h1.7c2.72,0,4.32,1.32,4.32,3.4S120.93,32,118.21,32Zm-1.7-2.54h1.7c.66,0,1.12-.28,1.12-.86s-.46-.86-1.12-.86h-1.7c-.66,0-1.12.28-1.12.86S115.85,29.46,116.51,29.46Zm6.52,3V35h-4.7v2.28h-3.42V35h-3.1V32.5Zm11.64-4.32v-2.8h9.4v2.8H141a8,8,0,0,1-.24,1.18,12.4,12.4,0,0,0,4.16,3.42L143,35.22a13.91,13.91,0,0,1-3.56-2.78,9.47,9.47,0,0,1-3.14,3.06l-2.34-2.1a7.63,7.63,0,0,0,3.68-5.22Zm11,14.48h-6.38c-2.74,0-4.42-1.44-4.42-3.56s1.68-3.56,4.42-3.56h6.38c2.74,0,4.42,1.44,4.42,3.56S148.41,42.66,145.67,42.66Zm-6.38-2.82h6.38c.62,0,.94-.3.94-.74s-.32-.74-.94-.74h-6.38c-.62,0-.94.32-.94.74S138.67,39.84,139.29,39.84ZM149.91,25.2v10h-3.42V31.48h-2.78V28.6h2.78V25.2Zm17.8,14.14v3.14H152.85V36.54h3.42v2.8Zm1.68-9.88V32.8h-2.06v4.94h-3.42V25.2h3.42v4.26Zm-14.1-4.26h3.42a18.13,18.13,0,0,1-.4,3.88,14,14,0,0,0,4.64,4.2l-2,2.5a15.52,15.52,0,0,1-3.84-3.2A9.55,9.55,0,0,1,154,36.06l-2.46-2.2c2.44-1.78,3.76-4.52,3.76-8.66Zm29.16.18V34.7h-9.68V25.38H178V27.5h3.3V25.38ZM178,32h3.3V30.18H178Zm13.72-3.4V32h-2.06v3.26h-3.42v-10h3.42v3.42Zm-6.1,14h-6.2c-2.74,0-4.42-1.44-4.42-3.56s1.68-3.56,4.42-3.56h6.2c2.72,0,4.42,1.44,4.42,3.56S188.31,42.66,185.59,42.66Zm-6.2-2.82h6.2c.62,0,.94-.3.94-.74s-.32-.74-.94-.74h-6.2c-.62,0-.94.32-.94.74S178.77,39.84,179.39,39.84ZM207.81,25.2V35.48h-3.42V25.2Zm0,11v6.46h-3.42V39.28H193V36.2Zm-12.42-11h3.42a17.11,17.11,0,0,1-.4,3.7,13.94,13.94,0,0,0,4.62,4l-2,2.48a15.86,15.86,0,0,1-3.86-3.16,9.82,9.82,0,0,1-3.06,3.44l-2.46-2.2c2.44-1.78,3.76-4.32,3.76-8.28Zm28.82.18V41.72h-9.34V25.38h3.24v4.7H221v-4.7Zm5.52,9.3v7.8h-3.42V25.2h3.42v6.1h2.06v3.38Zm-11.62,3.9H221V33.24h-2.88Zm29.8-13.2v6.94H236.29v1.36h11.8v2.9H232.87V29.5h11.62V28.3H232.87V25.38Zm.74,13.38V41.9H232.11V38.76h6.36V37h3.74v1.76Zm17.06,1.36v2.36H250.85V37.16h11.06v-.6H250.85V34.22h14.48v5.3H254.27v.6Zm1.68-12.24V31.2h-2.06v2.52h-3.42V25.2h3.42v2.68Zm-14.1,1.64A1.6,1.6,0,1,0,255,28h-.06a1.49,1.49,0,0,0-1.59,1.37A.91.91,0,0,0,253.29,29.52Zm-3.38,0c0-2.54,2.08-4.32,5-4.32s5,1.78,5,4.32-2.06,4.32-5,4.32S249.91,32.06,249.91,29.52Zm33.6-4.32V42.48h-3.42V25.2Zm-15,.18h8.64V30a12.9,12.9,0,0,1-7.2,11.7l-2.38-2.4c3.88-1.88,6.16-5.2,6.16-8.94V28.54h-5.22Z"/><path id="패스_11244" data-name="패스 11244" class="cls-3" d="M81.22,63.16V77h-1.5V70.07h-2.4v6.75h-1.5V63.22h1.5v5.49h2.4V63.16ZM75,75v1.36H69.49V63.45h5.13v1.36H71V75ZM95.76,63.45v7.07H84V63.45h1.5v2.11h8.72V63.45ZM96.51,72v1.36H90.66v3.75h-1.5V73.38H83.28V72Zm-11-2.84h8.72V66.92H85.54Zm24.62-5.73v6H98.43v-6h1.5v1.74h8.72V63.45Zm-5,10.85h-1.5V72.18H97.68V70.82h13.23v1.36h-5.79Zm5.2,1.18v1.35H98.43v-3.6h1.5v2.25ZM99.94,68.15h8.72V66.5H99.94Zm12.14,8.23V75h9.73v1.36Zm10.83.6V63.16h1.5V77Zm-2.25-9.92a4.07,4.07,0,1,1-3.91-3.9A4.07,4.07,0,0,1,120.66,67.06Zm-1.5,0a2.56,2.56,0,1,0-2.56,2.56A2.56,2.56,0,0,0,119.16,67.06Zm24.32,8v1.36H130.24V75Zm-12.32-3.81-.92-1.12a9.23,9.23,0,0,0,6.13-6.93l1.49.29a8.51,8.51,0,0,1-.62,2,12.34,12.34,0,0,0,6.23,4l-.78,1.2a13.92,13.92,0,0,1-6.15-3.89,11.2,11.2,0,0,1-5.39,4.4Zm15.74-6.4v2.4h10.22v1.36H146.9v2.48h10.38v1.36H145.39v-9h11.73v1.36Zm11,10.21v1.36H144.64V75Zm9.74,0v1.36h-8V69h5.41V64.81h-5.41V63.45h6.92v6.93h-5.41V75Zm3.76-11.86V77h-1.5V63.16Zm12.9,7.78V63.16h1.5v7.78Zm-1.81,6.19H178c-2.26,0-3.6-1.14-3.6-2.77s1.34-2.78,3.6-2.78h4.51c2.26,0,3.62,1.13,3.62,2.78s-1.37,2.77-3.63,2.77ZM178,75.8h4.51c1.2,0,2-.56,2-1.44s-.84-1.46-2-1.46H178c-1.2,0-2,.56-2,1.46S176.75,75.8,178,75.8Zm3.17-12.35v6.62H174V63.45Zm-5.57,5.26h4.07v-3.9h-4.07ZM194.3,63.3h1.5a32.77,32.77,0,0,1-.3,4.64,16.19,16.19,0,0,0,4.13,7.41l-1.1,1A16.49,16.49,0,0,1,195,70.79a21.37,21.37,0,0,1-2.2,5.77l-1.34-.7A25.37,25.37,0,0,0,194.3,63.3Zm8.13-.14h1.5V77h-1.5V70h-4.37V68.68h4.37Zm15.9,0V77h-1.5V63.16Zm-4.81.28V76.38H206.6V63.45h1.5V68H212V63.45ZM208.11,75H212V69.32h-3.9Zm25.52,0v1.36H220.4V75ZM221.31,71.2l-.91-1.12a9.2,9.2,0,0,0,6.12-6.92l1.49.28a8.13,8.13,0,0,1-.61,2,12.34,12.34,0,0,0,6.23,4l-.79,1.2a14,14,0,0,1-6.14-3.89,11.2,11.2,0,0,1-5.39,4.4Zm13.49-1.13H248v1.36H234.8Zm12.64,5.41v1.34H235.55V72.63h1.5v2.85Zm-11.89-7.25V63.3h1.5v3.62h10.39v1.31Zm20.11-4.93h1.5a32.77,32.77,0,0,1-.3,4.64A16.19,16.19,0,0,0,261,75.35l-1.1,1a16.49,16.49,0,0,1-3.53-5.58,21.37,21.37,0,0,1-2.2,5.77l-1.34-.7A25.37,25.37,0,0,0,255.66,63.3Zm7.83-.14H265v5.52h1.95V70H265v7h-1.5Zm12.45,5.1H272v1.38h3.9Zm-5.41-.06C268.82,68,268,67.11,268,65.7s1.2-2.54,3.6-2.54h4.81c2.42,0,3.62,1,3.62,2.54s-.85,2.26-2.56,2.5v1.44h3.15V71H267.36V69.64h3.17Zm1-1.25h4.81c1.5,0,2-.5,2-1.25s-.53-1.23-2-1.23h-4.81c-1.35,0-2,.48-2,1.23S270.06,67,271.57,67Zm4.81,10.18h-4.81c-2.4,0-3.6-1-3.6-2.55s1.2-2.56,3.6-2.56h4.81c2.42,0,3.62,1,3.62,2.56S278.8,77.13,276.38,77.13Zm-4.81-1.33h4.81c1.5,0,2-.48,2-1.22s-.53-1.23-2-1.23h-4.81c-1.35,0-2,.48-2,1.23S270.06,75.8,271.57,75.8Zm10.8-11V63.45h7.34v1.36h-3.13a26.76,26.76,0,0,1-.34,3.89,15.24,15.24,0,0,0,4.3,6.75l-1.13.93a17.12,17.12,0,0,1-3.7-5.26,17,17,0,0,1-2.59,5.45l-1.36-.7c2.43-3.28,3.24-6.9,3.31-11.05Zm9.92-1.65h1.5v5.52h1.95V70h-1.95v7h-1.5Zm3.87,13.22V75h9.73v1.36ZM307,77V63.16h1.5V77Zm-2.25-9.92a4.07,4.07,0,1,1-3.91-3.9A4.07,4.07,0,0,1,304.74,67.06Zm-1.5,0a2.56,2.56,0,0,0-5.12,0h0a2.56,2.56,0,1,0,5.12,0ZM50.48,96.68H49V90.81H38.75V89.45H50.48Zm.75,1v1.36H45.38v4h-1.5v-4H38V97.72Zm1.92-3.63V89.45H64.88v1.33H54.66v2H65v1.33H59.7v1.7h5.93v1.34H52.4V95.78h5.79v-1.7Zm0,5.87V98.63H64.88v4.5h-1.5V100ZM79.44,96.3v1.36H67.55V92.84H77.78v-2H67.55V89.45H79.28V94.2H69.06v2.1ZM80,101v1.36H66.8V101h3V98.33h1.5V101h4.21V98.33H77V101Zm13.8.51v1.3H82V99.5H92.18v-.7H82V97.5H93.68v3.28H83.46v.75ZM81.2,95.47H94.43v1.31H81.2Zm12.64-2v1.3H82v-3.3H92.18v-.72H82v-1.3H93.68v3.3H83.46v.72Zm6.28,5.61v-2a3.54,3.54,0,0,1,7.07,0v2a3.54,3.54,0,0,1-7.07,0Zm11.28-3v7h-1.5V89.16h1.5v5.52h1.94V96Zm-9.78,1.1v2a2,2,0,1,0,4.06.13.28.28,0,0,0,0-.13v-2a2,2,0,0,0-4.06-.18Zm6-5h-8V90.81h3.2V88.7h1.5v2.11h3.27Zm6.73,10.21V89.45h1.5V101h6.91v1.36ZM125.8,96v7h-1.5V89.16h1.5v5.52h1.94V96Zm2.36,6.36V101h9.73v1.36ZM139,103V89.16h1.5V103Zm-2.26-9.92a4.07,4.07,0,1,1-4.23-3.89h.17a3.83,3.83,0,0,1,4,3.59c0,.1,0,.21,0,.31Zm-1.5,0a2.56,2.56,0,1,0-2.56,2.56h0a2.44,2.44,0,0,0,2.55-2.34.81.81,0,0,0,0-.22Zm23.57,2.7h-1.5V94.2H147.07V92.86H157.3v-2H147.07V89.45H158.8Zm.16,5.72v1.34h-11.9V99.08h1.5v2.4Zm-12.64-5h13.23v1.36H146.32Zm25.53-7.08v12.94H165.1V89.45h1.5V94h3.76V89.45ZM176.52,96v7H175V89.16h1.5v5.52h1.95V96Zm-9.92,5h3.76v-5.7H166.6Zm24.77-4.33h-1.5V90.81H179.63V89.45h11.73Zm.75,1v1.36h-5.86v4h-1.5v-4h-5.87V97.72Zm13.5-8.56V103h-1.5V89.16Zm-11.73,13.22V89.45h1.5V101h7.21v1.36ZM220,103h-1.5V89.16H220ZM209.63,92.31v7.22c0,1.2.53,1.65,1.28,1.65s1.28-.45,1.28-1.65V92.31c0-1.2-.53-1.65-1.28-1.65S209.63,91.11,209.63,92.31Zm-1.5,7.22V92.31a2.79,2.79,0,0,1,5.57-.42,2.94,2.94,0,0,1,0,.42v2.4h1.73V89.22h1.5v13.6h-1.5V96.07H213.7v3.46a2.79,2.79,0,0,1-5.57.39A2.54,2.54,0,0,1,208.13,99.53Zm29.75-2v5.24H226.76V97.58Zm-9.62,3.92h8.11V98.9h-8.11Zm11.57-9.33v1.34h-2v3.43h-1.5V89.16h1.5v3Zm-5,2.54v1.36h-8.43V89.45H234v1.36h-6v3.9Zm18,6.77v1.34H241v-3.6h1.5v2.26Zm-12.64-5h13.24v1.36H240.24Zm8.88-1.34h-4.51c-2.41,0-3.76-1.06-3.76-3s1.35-3,3.76-3h4.51c2.4,0,3.76,1.2,3.76,3s-1.36,3-3.76,3Zm-4.51-1.36h4.51c1.5,0,2.1-.68,2.1-1.65s-.59-1.67-2.1-1.67h-4.51c-1.36,0-2.11.69-2.11,1.67s.6,1.65,2.11,1.65Zm22.51,3.76h-4.2c-2.1,0-3.76-.76-3.76-2.63s1.66-2.64,3.76-2.64h4.2c2.12,0,3.76.75,3.76,2.64s-1.65,2.63-3.76,2.63Zm4.52,1V100h-5.86v3.15h-1.5V100h-5.87V98.63Zm-8.72-2.41h4.2c1.5,0,2.2-.52,2.2-1.27s-.69-1.28-2.2-1.28h-4.2c-1.5,0-2.18.53-2.18,1.28s.67,1.27,2.17,1.27Zm8.12-4.8H259V90.06h5.15V88.7h1.58v1.36H271Zm1.64,12.32-.45-.61a2,2,0,0,0,.9-1.95v-.74h1.71v.74a2.56,2.56,0,0,1-2.17,2.56Zm8-14.29h5.85v1.36h-2.25a34.65,34.65,0,0,1-.21,3.53,19.77,19.77,0,0,0,3.26,6.87l-1.23.86a21.19,21.19,0,0,1-2.53-4.86,18.63,18.63,0,0,1-2.12,5.36l-1.38-.59c2-3.28,2.67-6.8,2.7-11.17h-2.1Zm11.73-.29V103h-1.5V96.07H289.1v6.75h-1.5V89.22h1.5v5.49h1.81V89.16Zm14.4,0v7.89h-1.5V93.67h-1.76v3.38h-1.47V89.22h1.47v3.09h1.76V89.16Zm-3.32,14H299c-2.25,0-3.6-1.14-3.6-2.77s1.35-2.78,3.6-2.78h4.51c2.26,0,3.62,1.13,3.62,2.78S305.76,103.13,303.5,103.13ZM299,101.8h4.51c1.2,0,2-.56,2-1.44s-.84-1.46-2-1.46H299c-1.2,0-2,.56-2,1.46S297.79,101.8,299,101.8Zm-2.1-12.64h1.5a16.11,16.11,0,0,1-.24,2.77,9.68,9.68,0,0,0,3.36,3.6l-1,1.12a13.66,13.66,0,0,1-2.88-3,9.07,9.07,0,0,1-2.05,3.44l-1.32-.81c1.91-1.79,2.6-4.31,2.6-7.17Zm28.4,12.42-.61,1.24a11.33,11.33,0,0,1-5.55-2.3,7.93,7.93,0,0,1-5.18,2.3l-.7-1.21c2.56-.24,4.75-1.27,5.6-3.31l1.44.41a6.43,6.43,0,0,1-.39.79,10.82,10.82,0,0,0,5.4,2.08Zm-1.82-12.42H325v9.73h-1.5Zm-7.12,2.42H318c1.65,0,2.8.81,2.8,2.11s-1.15,2.1-2.8,2.1h-.13v.9h4.47V98h-9.73V96.68h3.76v-.9h0c-1.65,0-2.8-.82-2.8-2.1S314.7,91.58,316.35,91.58Zm0,2.94H318c.85,0,1.3-.34,1.3-.83s-.45-.88-1.3-.88h-1.68c-.85,0-1.3.38-1.3.88S315.5,94.52,316.35,94.52Zm.08-4.77v-1h1.5v1.06h3.6v1.31h-8.59V89.75Zm11.35,5.65L327,94.2a7.77,7.77,0,0,0,6.13-5l1.49.29a7.41,7.41,0,0,1-.5,1.2,12.29,12.29,0,0,0,6.11,3l-.67,1.23a13.4,13.4,0,0,1-6.16-3.07A9.62,9.62,0,0,1,327.78,95.4Zm12.5,1.73v1.34h-5.86v4.66h-1.5V98.47H327V97.13Zm-260.82,18V129H78V115.16Zm-4.82.29v12.93H67.73V115.45h1.5V120h3.9v-4.51ZM69.23,127h3.9v-5.7h-3.9ZM94,115.45v1.36H89.39a6.12,6.12,0,0,1-.5.64,12.14,12.14,0,0,0,5.57,2l-.77,1.2A12.78,12.78,0,0,1,88,118.38a10.77,10.77,0,0,1-5.36,2.48l-.77-1.19a9.83,9.83,0,0,0,5.71-2.86H82.27v-1.36Zm-3.46,13.68H85.73c-2.32,0-3.6-1-3.6-2.47s1.28-2.48,3.6-2.48h1.58V122.9H81.52v-1.34H94.75v1.34H88.82v1.28h1.72c2.34,0,3.62,1,3.62,2.48S92.88,129.13,90.54,129.13Zm-4.81-1.33h4.81c1.5,0,2-.48,2-1.14s-.53-1.16-2-1.16H85.73c-1.35,0-2,.48-2,1.16S84.22,127.8,85.73,127.8ZM108.26,129h-1.5V115.16h1.5ZM97.87,118.31v7.22c0,1.2.53,1.65,1.28,1.65s1.28-.45,1.28-1.65v-7.22c0-1.2-.53-1.65-1.28-1.65S97.87,117.11,97.87,118.31Zm-1.5,7.22v-7.22a2.79,2.79,0,0,1,5.57-.42,2.94,2.94,0,0,1,0,.42v2.4h1.72v-5.49h1.5v13.6h-1.5v-6.75h-1.72v3.46a2.79,2.79,0,1,1-5.57.39,2.54,2.54,0,0,1,0-.39ZM123.82,127v1.36h-4.56V115.45h4.2v1.36h-2.69V127Zm-5.15,0v1.36h-4V115.45h4v1.36h-2.48V127Zm7.6-5v7h-1.5V115.16h1.5v5.52h1.79V122Zm10.64,5v1.36h-7.82V121h5.26v-4.21h-5.26v-1.36h6.77v6.93h-5.27V127Zm3.6-5v7H139V115.16h1.5v5.52h2V122Zm5.07-6.72h1.5a32.58,32.58,0,0,1-.3,4.64,16.09,16.09,0,0,0,4.13,7.41l-1.1,1a16.63,16.63,0,0,1-3.53-5.59,21.43,21.43,0,0,1-2.2,5.78l-1.34-.7a25.43,25.43,0,0,0,2.84-12.57Zm8.13-.14h1.5V129h-1.5v-7h-4.37v-1.34h4.37Zm7.78,9v-4.51c0-2.94,1.5-4.37,3.7-4.37s3.68,1.43,3.68,4.37v4.51c0,2.92-1.5,4.34-3.68,4.34S161.49,127.1,161.49,124.18Zm1.5-4.51v4.51c0,2.1.75,3,2.19,3s2.18-.9,2.18-3v-4.51c0-2.11-.76-3-2.18-3s-2.19.9-2.19,3ZM173.07,122v7h-1.5V115.16h1.5v5.52h2V122Zm10.8,6.36H176V115.45H183v1.36h-5.41v4.06H183v1.35h-5.41V127h6.32Zm3.9-13.22V129h-1.5V115.16ZM203.07,127v1.36H189.84V127Zm-12.32-3.81-.91-1.12a9.23,9.23,0,0,0,6.12-6.93l1.49.29a8.05,8.05,0,0,1-.61,2,12.34,12.34,0,0,0,6.23,4l-.79,1.2a14,14,0,0,1-6.14-3.89,11.2,11.2,0,0,1-5.39,4.4Zm15.74-6.4v2.4h10.23v1.36H206.5v2.48h10.38v1.36H205v-9h11.73v1.36Zm11,10.21v1.36H204.24V127Zm13.5,2h-1.5V115.16H231Zm-10.38-10.67v7.22c0,1.2.53,1.65,1.28,1.65s1.28-.45,1.28-1.65v-7.22c0-1.2-.53-1.65-1.28-1.65S220.59,117.11,220.59,118.31Zm-1.5,7.22v-7.22a2.79,2.79,0,0,1,5.57-.42,2.94,2.94,0,0,1,0,.42v2.4h1.73v-5.49h1.5v13.6h-1.5v-6.75h-1.73v3.46a2.79,2.79,0,0,1-5.57.39A2.54,2.54,0,0,1,219.09,125.53Zm14.55-10.08h4.82v3.23a12.14,12.14,0,0,1-4.11,9.71l-1.35-.83a10.6,10.6,0,0,0,4-8.74v-2h-3.32Zm8.5-.23v13.6h-1.5v-6.75h-1.88v-1.36h1.88v-5.49ZM245.38,129h-1.5V115.16h1.5Zm11.7-13.53v12.93h-5.27V115.45h1.5v4.81h2.26v-4.81ZM253.32,127h2.25v-5.4h-2.25Zm10.22-11.86V129H262v-6.91h-1.82v6.75h-1.5v-13.6h1.5v5.49H262v-5.55Zm14.54.29v6H266.35v-6h1.5v1.74h8.72v-1.74Zm-5,10.85h-1.5v-2.12h-5.93v-1.36h13.23v1.36H273Zm5.2,1.18v1.35H266.35v-3.6h1.5v2.25Zm-10.38-7.32h8.72V118.5h-8.72Zm18.46,2.52v3a2.86,2.86,0,1,1-5.71,0v-3a2.86,2.86,0,1,1,5.71,0Zm-1.5,3v-3c0-.91-.44-1.5-1.36-1.5s-1.34.59-1.34,1.5v3c0,.9.45,1.49,1.34,1.49a1.3,1.3,0,0,0,1.36-1.49Zm7.52-10.53V129h-1.5v-6.91H289v6.75h-1.5v-13.6H289v5.49h1.81v-5.55Zm-5.7,1.65v1.36H280.3v-1.36h2.4V114.7h1.5v2.11Zm16.2,5.87h-3.62c-2.56,0-4.37-1.5-4.37-3.76s1.81-3.76,4.37-3.76h3.62c2.54,0,4.35,1.5,4.35,3.76s-1.81,3.76-4.36,3.76Zm-3.62-1.36h3.62a2.43,2.43,0,1,0,0-4.82h-3.62a2.44,2.44,0,0,0-.7,4.82A2.73,2.73,0,0,0,299.22,121.32Zm8.42,5.7v1.36H294.4V127h3v-3.44h1.5V127h4.21v-3.44h1.5V127Zm3.3,1.22h-1.81v-1.8h1.81Zm-195.1,46.7v-7.78h1.5v7.78Zm-7.52-7.78h1.5a10.83,10.83,0,0,1-.26,2.34,11.16,11.16,0,0,0,4,3.79l-.93,1.15a13.65,13.65,0,0,1-3.66-3.28,8.47,8.47,0,0,1-3,3.68l-1.16-1a7.42,7.42,0,0,0,3.49-6.66Zm-2.26,13.66v-5.24h11.28v5.24Zm9.78-1.32v-2.6h-8.28v2.6Zm16.2,0v1.32H120.15v-3.53h10.23v-.87H120.15V175.1h11.73v3.52H121.66v.88Zm-12.64-6.63h13.24v1.35H119.4Zm12.48-5.42v1.34H120.15v-1.34Zm-8,3.21h4l.37-1.47h1.54l-.37,1.47H132V172H120v-1.3h2.4v-1.47h1.5Zm10.64,6.42v-2a3.54,3.54,0,0,1,7.07,0v2a3.54,3.54,0,0,1-7.07,0ZM145.84,174v7h-1.5V167.16h1.5v5.52h1.95V174Zm-9.78,1.1v2a2,2,0,1,0,4.06.12.24.24,0,0,0,0-.12v-2a2,2,0,0,0-4.06-.18Zm6-5h-8V168.8h3.2v-2.1h1.5v2.11h3.27Zm15.15,10.21h-8.42V167.45h7.52v1.36h-6V179h6.91Zm3-6.35v7h-1.5V167.16h1.5v5.52h1.95V174Zm2.36,0h13.24v1.36H162.6Zm12.64,5.41v1.34H163.35v-4.19h1.5v2.85Zm-11.88-7.25V167.3h1.5v3.62h10.38v1.31ZM182,175.28l-1.19-1a6.77,6.77,0,0,0,3.44-5.52h-2.83v-1.36h7.35v1.36h-3a9.79,9.79,0,0,1-.2,1.44,10.7,10.7,0,0,0,3.92,3.52l-1,1.12a12.58,12.58,0,0,1-3.52-3,8.24,8.24,0,0,1-3,3.43Zm12.8-4.83v1.36H192.8v3.71h-1.5v-8.36h1.5v3.3Zm-5.11,10.68H185c-2.25,0-3.45-1.14-3.45-2.63s1.2-2.62,3.45-2.62h4.67c2.26,0,3.46,1.12,3.46,2.62S191.9,181.13,189.64,181.13ZM185,179.8h4.67c1.2,0,1.88-.48,1.88-1.3s-.68-1.3-1.88-1.3H185c-1.2,0-1.87.48-1.87,1.3s.67,1.3,1.87,1.3Zm11.38-4.51-1.19-1a6.8,6.8,0,0,0,3.44-5.52h-2.83v-1.36h7.35v1.36h-3a10.17,10.17,0,0,1-.2,1.44,10.7,10.7,0,0,0,3.92,3.52l-1,1.12a12.62,12.62,0,0,1-3.52-3,8.25,8.25,0,0,1-3,3.43Zm11.15.59v4.94H196.22v-4.94Zm-9.78,3.62H206v-2.29h-8.28ZM206,167.16h1.5v8.22H206v-3.71h-3.16v-1.36H206Zm16.2,12.32v1.34H210.31v-3.6h1.5v2.26Zm-12.64-5H222.8v1.36H209.56Zm8.88-1.34h-4.51c-2.41,0-3.76-1.06-3.76-3s1.35-3,3.76-3h4.51c2.4,0,3.76,1.2,3.76,3S220.84,173.18,218.44,173.18Zm-4.51-1.36h4.51c1.5,0,2.1-.68,2.1-1.65s-.59-1.67-2.1-1.67h-4.51c-1.36,0-2.11.69-2.11,1.67s.6,1.65,2.11,1.65Zm26.13-4.66v7.78h-1.5v-7.78ZM229,180.82l-1.12-1a6.17,6.17,0,0,0,3.59-4.66l1.42.21a6.55,6.55,0,0,1-.41,1.68,7.84,7.84,0,0,0,2.06,2.08,6.09,6.09,0,0,0,2.18-4l1.44.21a5.39,5.39,0,0,1-.42,1.77,12.43,12.43,0,0,0,3.31,2.45l-.86,1.17a15.77,15.77,0,0,1-3.1-2.34,8.34,8.34,0,0,1-2.48,2.47,10.44,10.44,0,0,1-2.85-2.53,7.68,7.68,0,0,1-2.76,2.46Zm.55-10.12a2.19,2.19,0,0,0,4.37,0,2.2,2.2,0,0,0-2.2-2.18,2.1,2.1,0,0,0-2.17,2,.61.61,0,0,0,0,.19Zm-1.5,0a3.69,3.69,0,1,1,3.86,3.51h-.18A3.5,3.5,0,0,1,228,170.9c0-.06,0-.13,0-.2Zm14.7-1.89v-1.36h7.34v1.36h-3.13a26.76,26.76,0,0,1-.34,3.89,15.21,15.21,0,0,0,4.3,6.75l-1.14.93a17.33,17.33,0,0,1-3.7-5.27,16.63,16.63,0,0,1-2.59,5.46l-1.36-.7c2.43-3.28,3.25-6.9,3.31-11.06ZM253,167.16h1.5V181H253Zm17.55,4.14v1.36h-1.95v4.94h-1.5V167.16h1.5v4.14Zm-1.64,8.18v1.34H257.43v-4.35h1.5v3Zm-4.66-12v7.38h-7.07v-7.38Zm-5.57,6h4.07V168.8h-4.07Zm12.16,8.27-.45-.61a2,2,0,0,0,.9-2v-.73H273v.73a2.56,2.56,0,0,1-2.18,2.57Z"/><path id="패스_11245" data-name="패스 11245" class="cls-3" d="M70,195v2H68.23v4.43H66.1V191.16h2.13V195Zm-1.5,8v1.93H56.87v-4.54H59V203Zm-3.6-5.79V199H56.57v-7.59h7.52v1.83H58.7v4Zm10.74-4a9.58,9.58,0,0,1-.22,1.19,10.33,10.33,0,0,0,3.64,3.12L77.82,199a12,12,0,0,1-3.18-2.62,8.13,8.13,0,0,1-2.75,2.93L70.36,198a6.45,6.45,0,0,0,3.22-4.83H71v-1.81h7.42v1.81Zm7.26,6.58v5.13H71.42v-5.13Zm-9.38,3.37h7.27v-1.61H73.54Zm9.38-12v8.19H80.81v-3.42H78.12V194.1h2.69v-2.94ZM97.54,203v1.87h-12V201h2.13v2Zm-12.7-4.81H98.07v1.84H84.84Zm9-1H89.13c-2.4,0-3.76-1.15-3.76-3s1.36-3,3.76-3h4.65c2.42,0,3.76,1.3,3.76,3s-1.34,3-3.76,3Zm-4.65-1.77h4.63c1,0,1.57-.51,1.57-1.25S94.82,193,93.77,193H89.14c-1,0-1.56.51-1.56,1.25S88.09,195.45,89.14,195.45Zm26.34-4.29V205h-2.11v-6.59h-1.5v6.43h-2.1v-13.6h2.1v5.24h1.5v-5.3Zm-12,13.22v-13h2.13v11.06h3.26v1.94Zm14.48-13h6.69v3.35a10.67,10.67,0,0,1-5.92,9.66l-1.46-1.53a8.68,8.68,0,0,0,5.25-7.84v-1.7H118Zm11.58,7V205h-2.13V191.16h2.13v5.2h1.79v2ZM148,191.16V201h-2v-4.66H144.7v4.44h-2v-9.56h2v3.27H146v-3.33Zm.23,11.81v1.93H136.54v-4.43h2.12V203Zm-6.35-5.84v1.92h-5.83v-7.67h2.11v5.75Zm24.36,1.47h-2.13v-5.26h-9.76v-2h11.89Zm.67.9v2h-5.49v3.66h-2.25v-3.67h-5.49v-2Zm1.84-3.14v-5h11.89v1.73h-9.76v1.52h9.84v1.73h-5v1.33h5.6v1.74H168.12v-1.74h5.5v-1.33Zm0,5.9v-1.74h11.89v4.61h-2.13v-2.87Zm26.43-4.2v1.84h-12v-5.19H193v-1.5h-9.76v-1.83h11.89v5.1h-9.76v1.58Zm.53,4.46v1.94H182.52v-1.94h2.77v-2.14h2.13v2.14h3.45v-2.14H193v2.14Zm1.78-11.14h6.69v3.35a10.67,10.67,0,0,1-5.92,9.66l-1.46-1.53a8.64,8.64,0,0,0,5.25-7.84v-1.7h-4.56Zm11.58,7V205H207V191.16h2.13v5.2h1.79v2ZM227.56,203v1.93H215.91v-4.4H218V203Zm1.5-8v2h-1.79v4.5h-2.13V191.16h2.13V195ZM223,191.38v7.9h-7.4v-7.9h2v2.23H221v-2.23Zm-5.36,6.13H221v-2.14h-3.35Zm14.64-.27h9.9v2h-12v-7.83H242v2h-9.76Zm10.43,5.26v1.95H229.48V202.5Zm2.9,2.06-2-.92a25.15,25.15,0,0,0,2.68-12.34h2.13a38.21,38.21,0,0,1-.27,4.66,16.11,16.11,0,0,0,4.08,7.13l-1.6,1.36a15.94,15.94,0,0,1-3.17-4.78,21.17,21.17,0,0,1-1.9,4.9Zm10.75-13.4V205h-2.12V191.16Zm18.16,0V205h-2.11v-6.59h-1.5v6.43h-2.1v-13.6h2.1v5.24h1.5v-5.3Zm-11.95,13.22v-13h2.13v11.06H268v1.94Zm14.47-13h6.69v3.35a10.67,10.67,0,0,1-5.92,9.66l-1.45-1.53A8.65,8.65,0,0,0,281.6,195v-1.7H277Zm11.59,7V205H286.5V191.16h2.13v5.2h1.79v2Zm18.61-2.09h-12v-4.92h11.89v1.7H297.4v1.52h9.84Zm-12.64,1h13.23V199H294.6Zm2.8,5.92h9.9v1.68h-12v-4.83h11.89v1.68H297.4ZM309,197.8h13.23v1.88H309ZM321.7,203v1.94h-12v-4.25h2.13V203Zm-12-6.56v-5.18h2.13v3.32h9.87v1.87ZM63.48,226.33v-4.88c0-2.74,1.5-4.23,3.78-4.23s3.8,1.49,3.8,4.23v4.88c0,2.72-1.5,4.19-3.8,4.19S63.48,229.05,63.48,226.33Zm2-4.88v4.88c0,1.55.63,2.27,1.75,2.27s1.76-.72,1.76-2.27v-4.88c0-1.54-.63-2.27-1.76-2.27S65.51,219.91,65.51,221.45Zm9.78,2.94V231H73.16V217.16h2.13v5.2h1.79v2Zm10.64,6H78v-13h7.11v1.94h-5v3.31h5v1.94h-5v3.89h5.78Zm4-13.22V231H87.86V217.16Zm15.15,11.34v1.95H91.9V228.5Zm-12-3.1-1.3-1.65a8.67,8.67,0,0,0,5.86-6.67l2.21.37a8.8,8.8,0,0,1-.64,2.14,11.8,11.8,0,0,0,6,3.62l-1.14,1.71a12.76,12.76,0,0,1-5.86-3.49A11.07,11.07,0,0,1,93.11,225.4Zm16-6.16V221h9.76v1.82H109.1v1.84H119v1.86H107v-9.1h11.89v1.85Zm10.43,9.28v1.94H106.3v-1.94ZM133.18,231h-2V217.16h2Zm-10.12-10.7v7.3c0,.75.36,1.1.9,1.1s.9-.35.9-1.1v-7.3c0-.75-.33-1.1-.9-1.1S123.06,219.53,123.06,220.28Zm-2,7.3v-7.3a2.9,2.9,0,1,1,5.79-.3,1.5,1.5,0,0,1,0,.3v2.16h1.22v-5.22h2v13.6h-2v-6.44h-1.22v3.2a2.9,2.9,0,0,1-5.79.3,1.5,1.5,0,0,1,0-.3Zm14.54-10.2h5v3.8c0,.43,0,.84,0,1.26h1.62v-5.22h2.06v13.6H142.2v-6.44h-1.89a10.64,10.64,0,0,1-3.57,6.06l-1.74-1.2a9.57,9.57,0,0,0,3.54-7.86v-2.06h-2.92Zm12,13.6h-2.12V217.16h2.12Zm9.66-13.6V225H150v-7.59Zm-5.18,5.83h3.15v-4h-3.15ZM162,229v1.93H150.33v-4.54h2.11V229Zm1.5-8v2h-1.8v4.43h-2.12V217.16h2.12V221Zm4.78-3.57H175v3.35a10.67,10.67,0,0,1-5.92,9.66l-1.46-1.53a8.66,8.66,0,0,0,5.25-7.84v-1.7h-4.56Zm11.58,7V231h-2.12V217.16h2.12v5.2h1.8v2Zm2.74-7h7.68v1.94h-3a26.75,26.75,0,0,1-.28,3.46,15.58,15.58,0,0,0,4.11,6.33l-1.63,1.35a17.16,17.16,0,0,1-3.22-4.52,16.18,16.18,0,0,1-2.35,4.63l-1.89-1a16.56,16.56,0,0,0,3.15-10.22h-2.55Zm11.95-.22V231h-2.11V217.16Zm15.75,6.74v-6.74h2.13v2.51h1.79v2h-1.79v2.23Zm-9.24,7v-6h2.12V229h2.62v1.9Zm9.14-2.24H208.6c-.36,0-.61.14-.61.42s.25.43.61.43h1.58c.35,0,.61-.16.61-.43s-.25-.42-.61-.42Zm-1.63-1.54h1.66c1.44,0,2.43.76,2.43,2s-1,2-2.43,2h-1.66c-1.43,0-2.43-.75-2.43-2s1-2,2.43-2Zm-6.08-6.51a1.6,1.6,0,0,0,1.51,1.67h.17a1.67,1.67,0,0,0,.11-3.33h-.11a1.59,1.59,0,0,0-1.68,1.5v.17Zm-2.1,0a3.81,3.81,0,1,1,4.14,3.44l-.37,0a3.5,3.5,0,0,1-3.75-3.24,1.48,1.48,0,0,1,0-.21Zm7.93,4.47V224h2.12v1.09h2.5v1.6h-7.06v-1.6Zm9.88-4.92h6c.56,0,1-.25,1-.7s-.42-.67-1-.67h-6c-.56,0-.91.24-.91.67s.35.71.91.71Zm0-3h6c1.89,0,3.15.8,3.15,2.3s-1.26,2.32-3.15,2.32h-6c-1.9,0-3-.82-3-2.32s1.1-2.3,3-2.3Zm9.17,12.16v1.58h-12V227h9.76v-.7h-9.76v-1.59h11.89v3.87h-9.76v.74Zm-12.7-6.93h13.23V224H214.62Zm19.12,1.15-1-1.73a7.44,7.44,0,0,0,5.92-4.73l2.19.44a8.22,8.22,0,0,1-.48,1.19,11.9,11.9,0,0,0,5.76,2.67c-.33.58-.65,1.18-1,1.78a13.39,13.39,0,0,1-5.89-2.82,9.72,9.72,0,0,1-5.48,3.2ZM246,225v2h-5.48v4.13h-2.26V227h-5.48v-1.95Zm17.41-7.89v7.78H261.3v-7.77Zm-11,13.75-1.5-1.39a5.58,5.58,0,0,0,3.38-4.35l2,.28a5.45,5.45,0,0,1-.39,1.59,5.4,5.4,0,0,0,1.73,1.7,5.49,5.49,0,0,0,1.88-3.57l2,.29a6.08,6.08,0,0,1-.4,1.63,11.41,11.41,0,0,0,3.15,2.21l-1.17,1.55a14.46,14.46,0,0,1-2.91-2.06,7.51,7.51,0,0,1-2.53,2.19,8.59,8.59,0,0,1-2.72-2.26A7.37,7.37,0,0,1,252.42,230.9Zm.77-10.14A1.77,1.77,0,1,0,255,219a1.72,1.72,0,0,0-1.76,1.66v.15Zm-2.1,0a3.88,3.88,0,1,1,4.14,3.6H255A3.62,3.62,0,0,1,251.1,221v-.25Zm23,9.61h-8.27v-13h7.49v1.94H268v9.14h6.15Zm3.39-6V231H275.4V217.16h2.12v5.2h1.8v2Zm2.21-.59H293v1.88H279.74Zm12.7,5.16v1.94h-12v-4.25h2.13V229Zm-12-6.56v-5.18h2.13v3.32h9.87v1.87Zm22.7-3.21a7.88,7.88,0,0,1-.21,1.18,10.1,10.1,0,0,0,3.63,3.12L305.26,225a11.89,11.89,0,0,1-3.17-2.61,8.13,8.13,0,0,1-2.75,2.93L297.8,224a6.43,6.43,0,0,0,3.22-4.83h-2.6v-1.81h7.42v1.81Zm7.26,6.57v5.14h-11.5v-5.13ZM301,229.14h7.26v-1.61H301Zm9.37-12v8.19h-2.1v-3.42h-2.68V220.1h2.68v-2.94Zm2.3-.23h2.12v9.7h-2.12Zm2.28,13.81H312.5v-2.38h2.44Z"/></g><rect class="cls-4" width="375" height="234"/></g></g></svg>