<svg xmlns="http://www.w3.org/2000/svg" width="460" height="145.22" viewBox="0 0 460 145.22"><defs><style>.cls-1{fill:#fff;}.cls-2,.cls-3{fill:none;}.cls-2{stroke:#000;stroke-width:2px;}</style></defs><title>txt_sec6_description_w460</title><g id="Layer_2" data-name="Layer 2"><g id="Layer_1-2" data-name="Layer 1"><g id="Layer_1-2-2" data-name="Layer 1-2"><g id="Layer_1-2-2-2" data-name="Layer 1-2-2"><g id="_7_tag" data-name=" 7 tag"><g id="tag1"><g id="사각형_162" data-name="사각형 162"><path class="cls-1" d="M74,104.22H214a20,20,0,0,1,20,20h0a20,20,0,0,1-20,20H74a20,20,0,0,1-20-20h0A20,20,0,0,1,74,104.22Z"/><path class="cls-2" d="M74,105.22H214a19,19,0,0,1,19,19h0a19,19,0,0,1-19,19H74a19,19,0,0,1-19-19h0A19,19,0,0,1,74,105.22Z"/></g><path id="_내돈내듣에_공감하기" data-name=" 내돈내듣에 공감하기" d="M80.15,122.66c1.16,0,1.48,1,1.48,1.92,0,1.18-.6,3-2.24,3-1.18,0-1.44-1.1-1.44-1.78C78,124.4,78.73,122.66,80.15,122.66Zm5.4,6.46a7.11,7.11,0,0,1-5.18,2c-3.56,0-6.06-2.3-6.06-5.94a5.75,5.75,0,0,1,5.43-6h.45c3.22,0,5.54,1.8,5.54,5.14,0,1.94-.82,3.34-2,3.34-.68,0-.8-.44-.8-.9a7.59,7.59,0,0,1,.2-1.42l.78-3.76H82.39l-.18.84h0a2.06,2.06,0,0,0-2-1.14c-2.4,0-4,2.26-4,4.52,0,1.92,1.08,3.26,2.88,3.26a2.85,2.85,0,0,0,2.46-1.4h.1c0,.76.62,1.4,1.74,1.4,2.06,0,3.92-1.68,3.92-4.9,0-4.3-3.44-6.42-7.08-6.42A7.45,7.45,0,0,0,72.59,125h0v.18c0,4.34,3.06,7.42,7.64,7.42a8.42,8.42,0,0,0,6.26-2.4Zm12.24-6.38h-2L93,130.2h0l-2.78-7.46H88.09L92,132.22h2Zm3.72,0H99.63v9.48h1.88Zm.32-3.42a1.25,1.25,0,1,0-1.3,1.2h0a1.25,1.25,0,0,0,1.3-1.18h0Zm4.86,11.4a4.08,4.08,0,0,0,3.42,1.76,4.73,4.73,0,0,0,4.79-4.67h0v-.35a4.7,4.7,0,0,0-4.4-5h-.34a4.07,4.07,0,0,0-3.38,1.68h-.06v-7h-1.88v15.12h1.82v-1.5Zm6.26-3.26a3.19,3.19,0,0,1-2.91,3.43h-.25a3.26,3.26,0,0,1-3.2-3.32h0v-.1A3.29,3.29,0,0,1,109.7,124h.09a3.15,3.15,0,0,1,3.21,3.09h0v.32Zm5.86-.82a2.94,2.94,0,0,1,3-2.68,2.53,2.53,0,0,1,2.66,2.38,1.5,1.5,0,0,1,0,.3Zm7.54.76c0-3-1.76-4.92-4.56-4.92a4.79,4.79,0,0,0-4.9,4.68h0a1.82,1.82,0,0,0,0,.33,4.79,4.79,0,0,0,4.55,5h.45a4.89,4.89,0,0,0,4.08-1.94l-1.32-1.06a3.28,3.28,0,0,1-2.76,1.44,3,3,0,0,1-3.08-2.88h7.52v-.66Zm4.94,3.62a1.31,1.31,0,0,0-1.31-1.3h0A1.3,1.3,0,0,0,128.7,131h0a1.31,1.31,0,0,0,2.62,0Zm12.48-3.56a5.11,5.11,0,1,0-5.22,5h.22A5.11,5.11,0,0,0,143.77,127.46Zm-2,0a3.17,3.17,0,1,1-6.32.53,4.69,4.69,0,0,1,0-.53,3.17,3.17,0,1,1,6.32-.56h0V127A4.17,4.17,0,0,1,141.77,127.46Zm9-4.72h-2.2v-2c0-1.16.26-2.28,1.68-2.28a3.29,3.29,0,0,1,.94.14l.22-1.62a4.24,4.24,0,0,0-1.18-.14c-2.56,0-3.54,1.68-3.54,3.9v2h-1.88v1.54h1.88v7.94h1.88v-7.94h2.2Zm5.78,0h-2.2v-2c0-1.16.26-2.28,1.68-2.28a3.29,3.29,0,0,1,.94.14l.22-1.62a4.24,4.24,0,0,0-1.18-.14c-2.56,0-3.54,1.68-3.54,3.9v2h-1.88v1.54h1.88v7.94h1.88v-7.94h2.2Zm3.74,0h-1.88v9.48h1.88Zm.32-3.42a1.25,1.25,0,1,0-1.3,1.2h0a1.24,1.24,0,0,0,1.35-1.12h0a.11.11,0,0,0,0-.08Zm11,4.72a4.53,4.53,0,0,0-3.56-1.56A4.84,4.84,0,0,0,163,127v.4a4.82,4.82,0,0,0,4.63,5h.47a4.56,4.56,0,0,0,3.54-1.48l-1.26-1.14a2.89,2.89,0,0,1-2.28,1,3.17,3.17,0,0,1-3.13-3.21h0v-.21a3.16,3.16,0,0,1,2.88-3.41h.22a2.67,2.67,0,0,1,2.18,1.08Zm3.78-1.3h-1.88v9.48h1.88Zm.32-3.42a1.25,1.25,0,1,0-1.3,1.2h0a1.26,1.26,0,0,0,1.32-1.16h0Zm8.86,7c-3.2,0-6.6.34-6.6,3.2,0,2.18,1.94,2.92,3.44,2.92a3.63,3.63,0,0,0,3.18-1.6h.06a6.24,6.24,0,0,0,.16,1.36h1.7a10.75,10.75,0,0,1-.14-1.88V126.2c0-2.1-1.24-3.72-4-3.72a5.6,5.6,0,0,0-3.88,1.42l1,1.2a3.84,3.84,0,0,1,2.7-1.1c1.4,0,2.34.68,2.34,2.08Zm0,1.36v.5A2.59,2.59,0,0,1,182.2,131h-.37c-.94,0-1.94-.36-1.94-1.48,0-1.6,2.36-1.8,4.22-1.8Zm6.86-10.6h-1.88V132.2h1.88ZM197,131a1.31,1.31,0,0,0-1.31-1.3h0a1.3,1.3,0,0,0-1.28,1.32v0a1.31,1.31,0,1,0,2.62,0Zm4.8-13.92H200v15.12h1.88v-4.9h.06l4.28,4.92h2.6L204,127l4.44-4.3h-2.52l-4,4.12h-.06Zm8.62,7.68v7.44h1.88v-5c0-1.58.86-3,2.66-3a3.55,3.55,0,0,1,.86.1l.08-1.74a2.63,2.63,0,0,0-.74-.08,3.19,3.19,0,0,0-2.9,1.86h-.06a12.25,12.25,0,0,0-.08-1.6h-1.78c.06.62.08,1.54.08,2Z"/></g><g id="tag2"><g id="사각형_162-2" data-name="사각형 162-2"><path class="cls-1" d="M270,104.22h80a20,20,0,0,1,20,20h0a20,20,0,0,1-20,20H270a20,20,0,0,1-20-20h0A20,20,0,0,1,270,104.22Z"/><path class="cls-2" d="M270,105.22h80a19,19,0,0,1,19,19h0a19,19,0,0,1-19,19H270a19,19,0,0,1-19-19h0A19,19,0,0,1,270,105.22Z"/></g><path id="_내돈내듣에_공감하기-2" data-name=" 내돈내듣에 공감하기-2" d="M271.36,122V120.3h2l.6-3.9h1.52l-.62,3.9h2.08l.62-3.9h1.54l-.62,3.9H280V122h-1.78l-.34,2.38h1.6V126H277.6l-.64,4.08h-1.54L276,126h-2l-.66,4.08h-1.5l.62-4.08H270.9v-1.7h1.84l.38-2.38Zm3.24,0-.42,2.38h2.08l.4-2.38Zm21.64,10.84h-2v-9h-1.9V132h-1.92v-16.6h1.92V122h1.9v-7h2Zm-6.92-7,.28,1.66a25.93,25.93,0,0,1-5.76.56h-1.76V117.1h2v9.24a20.12,20.12,0,0,0,5.24-.54Zm23.4-3.84h-5.14v2.18h7.06v1.66h-16.1v-1.66h7V122h-4.88V115.6h11.92v1.64h-9.86v3.08h10Zm0,10.32H300.6v-5.12h2.06v3.48h10.1Zm18.08.5h-2v-9H327v8.16h-1.92v-16.6H327V122h1.9V115h2Zm-6.92-7,.28,1.66a25.93,25.93,0,0,1-5.76.56h-1.76V117.1h2v9.24a20,20,0,0,0,5.28-.54Zm25.32-1H333.1V123.2h16.1Zm-1.88,7.72H335.2v-6h12v1.64h-9.94v2.78h10.12Zm0-11h-12.1v-6.1h11.92V117h-9.86v2.8h10Z"/></g></g><rect class="cls-3" y="103.22" width="460" height="42"/></g></g><g id="_7_tit" data-name=" 7 tit"><path id="패스_11577" data-name="패스 11577" d="M40.38,14.58H38.8V7H37.18V5.86a2,2,0,0,0,2-1.72h1.2Zm6.34-5.2c0-4.32-3-7.6-7.3-7.6s-7.3,3.28-7.3,7.6,3,7.6,7.3,7.6S46.72,13.7,46.72,9.38Zm1.22,0a8.38,8.38,0,0,1-8.06,8.7h-.46A8.41,8.41,0,0,1,30.9,9.79c0-.14,0-.27,0-.41A8.39,8.39,0,0,1,39,.68h.46A8.37,8.37,0,0,1,48,8.87C48,9,48,9.21,47.94,9.38Zm6.46,2.48V6.22C54.4,2.54,56.28.76,59,.76s4.6,1.78,4.6,5.46v5.64c0,3.64-1.88,5.42-4.6,5.42S54.4,15.5,54.4,11.86Zm1.88-5.64v5.64c0,2.62.94,3.74,2.74,3.74s2.72-1.12,2.72-3.74V6.22c0-2.64-.94-3.76-2.72-3.76S56.28,3.58,56.28,6.22Zm12.6,2.94v8.7H67V.58h1.88v6.9h2.44V9.16ZM87.26.58V17.86H85.38V9.22H83.12v8.44H81.24V.66h1.88V7.52h2.26V.58ZM79.92,15.4v1.7H72.6V7.9h4.7V2.64H72.6V.94h6.58V9.6h-4.7v5.8Zm21.4-11.82A7.53,7.53,0,0,1,101,4.82a10.6,10.6,0,0,0,5,3.76L105,10.08a12.92,12.92,0,0,1-4.78-3.46A9.81,9.81,0,0,1,96,10.54l-1.42-1.3a8.2,8.2,0,0,0,4.88-5.66H95.3V1.88h4V0h1.88V1.88h4.06v1.7Zm6.38,7.08V.58h1.88V4.7H112V6.4h-2.44v4.26Zm-12,7V11.48h13.9v6.18Zm12-1.66V13.14H97.56V16Zm5.4-4.14V6.22c0-3.58,1.8-5.46,4.52-5.46s4.52,1.88,4.52,5.46v5.64c0,3.54-1.8,5.42-4.52,5.42S113.1,15.4,113.1,11.86ZM115,6.22v5.64c0,2.62.94,3.74,2.64,3.74s2.64-1.12,2.64-3.74V6.22c0-2.64-.94-3.76-2.64-3.76S115,3.58,115,6.22Zm11.1,6h-3.2V10.54h3.2v-4h-3.2V4.9h3.2V.58H128V17.86h-1.88ZM144.26.94V17.1H136V.94h1.88V6.58h4.5V.94Zm4.52,8.28H145V7.52h3.76V.58h1.88V17.86h-1.88Zm-10.9,6.18h4.5V8.28h-4.5ZM169,16v1.68H154.18V13.54h1.88V16Zm-15.8-5.16h16.54v1.7H153.24ZM169,7.66V9.34H154.18V.94h14.66V2.62H156.06V4.3h12.78V6H156.06v1.7ZM187,16v1.68H172.18V13.08H185V11.92H172.18V10.24h14.66v4.5H174.06V16Zm-15.8-8.64h16.54V9H171.24Zm4.14-2.72h8.08c.94,0,1.7-.44,1.7-1.18s-.76-1.2-1.7-1.2h-8.08c-.94,0-1.5.44-1.5,1.2S174.44,4.62,175.38,4.62Zm0-4h8.08c2.08,0,3.58,1,3.58,2.86s-1.5,2.84-3.58,2.84h-8.08c-2.06,0-3.38-1-3.38-2.84S173.32.58,175.38.58ZM209.74,16v1.68H194.88V13h12.78V11.72H194.88V10h6.3V8.64h-7.24V7h16.54V8.64h-7.42V10h6.48v4.62H196.76V16Zm0-12.1V5.56H194.88V.76h1.88V3.88Zm12,11.52v1.7h-9V7.9h5.82V2.64H212.7V.94h7.7V9.6h-5.82v5.8Zm3.76-5.8h-4.14V7.9h4.14V.58h1.88V17.86h-1.88ZM242,16.34l-.84-3.54H237l-.84,3.54H234.1L238,1.24h2.08l3.94,15.1Zm-1.24-5.24-.58-2.5-1.12-4.94-1.08,5-.58,2.44Zm12.9,1.12v4.12h-1.88V12.42a2.08,2.08,0,0,0-1.58-2.26h-2.94v6.18h-1.88v-15h4.14c2.62,0,4.5,1.5,4.5,4.14a4,4,0,0,1-2.26,4,2.87,2.87,0,0,1,1.9,2.78ZM249.32,3h-2.06V8.46h2.06a2.69,2.69,0,0,0,2.83-2.52c0-.13,0-.25,0-.38C252.14,3.86,251.12,3,249.32,3Zm22,13.18v1.66H256.8V13.18H269V11.82H256.8V10.16h14.1V14.8H258.68v1.4Zm-7.52-9h2.34V8.84H255.86V7.18h1.78V3.4h1.88V7.18h2.36l.66-3.78h1.88ZM270.9.58v8.7H269V.58Zm-5.36.36V2.62h-9.3V.94ZM283.26,17.1h-9V.94h8.08v1.7h-6.2V7.72h6V9.4h-6v6h7.14ZM287,9.4h-3.94V7.72H287V.58h1.88V17.86H287ZM307.28,16v1.62H292.42V13.5H305.2v-.88H292.42V11h14.66v4.1H294.3V16Zm-15.8-7.58H308V10.1H291.48ZM307.28,6V7.58H292.42V3.46H305.2v-.9H292.42V.94h14.66V5.06H294.3V6ZM317.94.58h1.88a10.42,10.42,0,0,1-.36,2.72A12.46,12.46,0,0,0,325,7.06l-.88,1.6a15.87,15.87,0,0,1-5.28-3.5,9.91,9.91,0,0,1-3.32,4L314,8A8.46,8.46,0,0,0,317.94.58ZM330,16.2v1.66H315.5V13.1h12.22V11.62H315.5V10h14.1v4.74H317.38V16.2ZM329.6.58V9.1h-1.88V.58Zm18,0V11h-1.88V6.58h-2.2V11h-1.84V.66h1.84V4.9h2.2V.58Zm-6.68.94V3.16h-8.54V1.52h3.32V0h1.88V1.52Zm-.46,5.8c0,2-1.6,3.38-3.76,3.38s-3.76-1.34-3.76-3.38,1.6-3.38,3.76-3.38S340.46,5.3,340.46,7.32Zm-1.86,0a1.8,1.8,0,0,0-1.81-1.8h-.09a1.8,1.8,0,0,0-1.9,1.68v.12a1.8,1.8,0,0,0,1.79,1.8h.11a1.8,1.8,0,0,0,1.9-1.71ZM343.84,18h-6.4c-2.62,0-4.12-1.22-4.12-3.08s1.5-3.1,4.12-3.1h6.4c2.64,0,4.14,1.22,4.14,3.1S346.48,18,343.84,18Zm-6.4-1.66h6.4c1.32,0,2.16-.5,2.16-1.42s-.84-1.46-2.16-1.46h-6.4c-1.3,0-2.16.52-2.16,1.46S336.14,16.38,337.44,16.38Zm-295,26.88v1.32H36.34C36.46,43,37,42,38.5,40.4s2.44-1.72,2.44-3.4c0-1.18-.68-1.78-1.3-1.78-1.4,0-1.52,1.9-1.54,2.52H36.56c.1-1.82.7-3.86,3.06-3.86a2.75,2.75,0,0,1,2.82,2.68,2.42,2.42,0,0,1,0,.38c0,1.54-.62,2.38-2.06,3.6-1.64,1.46-1.86,2-2.08,2.72Zm4.3-3.88c0-4.32-3-7.6-7.3-7.6s-7.3,3.28-7.3,7.6,3,7.6,7.3,7.6S46.72,43.7,46.72,39.38Zm1.22,0a8.38,8.38,0,0,1-8.06,8.7h-.46a8.41,8.41,0,0,1-8.52-8.29c0-.14,0-.27,0-.41A8.39,8.39,0,0,1,39,30.68h.46A8.37,8.37,0,0,1,48,38.87C48,39,48,39.21,47.94,39.38Zm21.32-8.8V47.86H67.38V39.22H64.56v8.44H62.68v-17h1.88v6.86h2.82V30.58ZM54.6,47.1V30.94h1.88V45.4H61.3v1.7Zm19.9-.18H72.24V44.68H74.5ZM92,46v1.68H77.18V42.6h1.88V46Zm-.1-8.68H85.36v2.3h7.42v1.68H76.24V39.6h7.24V37.3h-6.3V30.94H91.84v1.68H79.06v3H91.94Zm5,9.62H94.64V44.68H96.9Zm17.16-16.34V47.86h-1.88V39.22h-2.82v8.44h-1.88v-17h1.88v6.86h2.82V30.58ZM99.4,47.1V30.94h1.88V45.4h4.82v1.7Zm19.9-.18H117V44.68h2.26Zm17.44-10.08H122v-5.9h14.66V32.6H123.86v2.58h12.88ZM121,38.48h16.54v1.68H121ZM123.86,46h13v1.66H122v-5.8h14.66V43.5H123.86Zm25.36-9.42h1.88v4.9h1.68v1.68H151.1v3.18h-1.88V43.16h-5.84v-1.3l5.08-10.72h2.08l-4.7,10.34h3.38Zm20.08-6V41h-1.88V36.58h-2.2V41h-1.84V30.66h1.84V34.9h2.2V30.58Zm-6.68.94v1.64h-8.54V31.52h3.32V30h1.88v1.52Zm-.46,5.8c0,2-1.6,3.38-3.76,3.38s-3.76-1.34-3.76-3.38,1.6-3.38,3.76-3.38S162.16,35.3,162.16,37.32Zm-1.86,0a1.9,1.9,0,1,0-2,1.8h.1a1.8,1.8,0,0,0,1.9-1.71ZM165.54,48h-6.4C156.52,48,155,46.82,155,45s1.5-3.1,4.12-3.1h6.4c2.64,0,4.14,1.22,4.14,3.1S168.18,48,165.54,48Zm-6.4-1.66h6.4c1.32,0,2.16-.5,2.16-1.42s-.84-1.46-2.16-1.46h-6.4c-1.3,0-2.16.52-2.16,1.46S157.84,46.38,159.14,46.38Zm16.12-15.62h1.88a43.24,43.24,0,0,1-.38,5.8,20.09,20.09,0,0,0,5.16,9.26l-1.38,1.28a20.71,20.71,0,0,1-4.42-7,26.64,26.64,0,0,1-2.74,7.22l-1.68-.88C174.34,41.84,175.26,36.22,175.26,30.76Zm10.16-.18h1.88V47.86h-1.88ZM205.86,48h-5.64c-2.82,0-4.5-1.42-4.5-3.46s1.68-3.48,4.5-3.48h5.64c2.82,0,4.52,1.42,4.52,3.48S208.68,48,205.86,48Zm-5.64-1.66h5.64c1.5,0,2.54-.7,2.54-1.8s-1-1.82-2.54-1.82h-5.64c-1.5,0-2.54.7-2.54,1.82S198.72,46.38,200.22,46.38Zm-3.38-11.2a2.74,2.74,0,1,0,5.46.36,2.16,2.16,0,0,0,0-.36,2.74,2.74,0,0,0-5.46-.36A2.16,2.16,0,0,0,196.84,35.18Zm-1.88,0a4.61,4.61,0,0,1,9.22,0h0a4.61,4.61,0,0,1-9.22,0Zm15-4.6V40.3h-1.88V37.9h-3.2V36.22h3.2V34.14h-3.2V32.46h3.2V30.58Zm6.72,0h1.88a12.5,12.5,0,0,1-.32,2.92,14,14,0,0,0,5.06,4.74l-1.16,1.44a17.24,17.24,0,0,1-4.58-4.1,10.4,10.4,0,0,1-3.8,4.6l-1.44-1.28a9.29,9.29,0,0,0,4.36-8.32Zm13.34,3.76V36h-2.44v4.46h-1.88v-9.9h1.88v3.76ZM223.48,48H218c-2.82,0-4.52-1.42-4.52-3.46s1.7-3.48,4.52-3.48h5.44c2.82,0,4.52,1.42,4.52,3.48S226.3,48,223.48,48ZM218,46.38h5.44c1.52,0,2.54-.7,2.54-1.8s-1-1.82-2.54-1.82H218c-1.5,0-2.54.7-2.54,1.82S216.54,46.38,218,46.38Zm28.34-.4v1.68H231.52V43.08H244.3V41.92H231.52V40.24h14.66v4.5H233.4V46Zm-15.8-8.64h16.54V39H230.58Zm4.14-2.72h8.08c.94,0,1.7-.44,1.7-1.18s-.76-1.2-1.7-1.2h-8.08c-.94,0-1.5.44-1.5,1.2S233.78,34.62,234.72,34.62Zm0-4h8.08c2.08,0,3.58,1,3.58,2.86s-1.5,2.84-3.58,2.84h-8.08c-2.06,0-3.38-1-3.38-2.84S232.66,30.58,234.72,30.58Zm34,17.28H254.42V43.48h12V42.42h-12V40.76h13.9v4.32h-12V46.2h12.4Zm-2.26-17.28h1.88v3.94h2.44v1.7h-2.44V40h-1.88Zm-12,6.72-1.12-1.4a7.13,7.13,0,0,0,4.62-2.56H254V31.7h3.88V30h1.88v1.7h3.8v1.64h-3.66c-.08.16-.18.32-.28.48a10.27,10.27,0,0,0,4.82,1.66L263.62,37a13,13,0,0,1-5-2,8.9,8.9,0,0,1-4.24,2.26Zm10.66,2.42H253.28V38.08h4.6V36.4h1.88v1.68h5.3ZM282.56,48h-5.64c-2.82,0-4.5-1.42-4.5-3.46s1.68-3.48,4.5-3.48h5.64c2.82,0,4.52,1.42,4.52,3.48S285.38,48,282.56,48Zm-5.64-1.66h5.64c1.5,0,2.54-.7,2.54-1.8s-1-1.82-2.54-1.82h-5.64c-1.5,0-2.54.7-2.54,1.82S275.42,46.38,276.92,46.38Zm-3.38-11.2a2.74,2.74,0,1,0,5.46.36,2.16,2.16,0,0,0,0-.36,2.74,2.74,0,1,0-5.46-.36A2.16,2.16,0,0,0,273.54,35.18Zm-1.88,0a4.61,4.61,0,0,1,9.22,0h0a4.61,4.61,0,0,1-9.22,0Zm15-4.6V40.3h-1.88V37.9h-3.2V36.22h3.2V34.14h-3.2V32.46h3.2V30.58ZM39.36,69.64H38.8V68.48c1.12,0,1.94-.28,1.94-1.64,0-.92-.52-1.62-1.24-1.62-1,0-1.26,1-1.36,1.9h-1.5c.12-2.26,1.32-3.24,2.88-3.24a2.6,2.6,0,0,1,2.74,2.44,1.5,1.5,0,0,1,0,.3A2.27,2.27,0,0,1,41,69a2.29,2.29,0,0,1,1.52,2.5,3.08,3.08,0,0,1-2.75,3.38,1.83,1.83,0,0,1-.33,0c-2.08,0-3-1.64-3.06-3.62h1.52c.06.88.14,2.28,1.56,2.28.8,0,1.56-.68,1.56-2C41,70.44,40.52,69.64,39.36,69.64Zm7.36-.26c0-4.32-3-7.6-7.3-7.6s-7.3,3.28-7.3,7.6,3,7.6,7.3,7.6S46.72,73.7,46.72,69.38Zm1.22,0a8.38,8.38,0,0,1-8.06,8.7h-.46a8.41,8.41,0,0,1-8.52-8.29c0-.14,0-.27,0-.41A8.39,8.39,0,0,1,39,60.68h.46A8.37,8.37,0,0,1,48,68.87C48,69,48,69.21,47.94,69.38Zm6.46,2.48V66.22c0-3.68,1.88-5.46,4.62-5.46s4.6,1.78,4.6,5.46v5.64c0,3.64-1.88,5.42-4.6,5.42S54.4,75.5,54.4,71.86Zm1.88-5.64v5.64c0,2.62.94,3.74,2.74,3.74s2.72-1.12,2.72-3.74V66.22c0-2.64-.94-3.76-2.72-3.76S56.28,63.58,56.28,66.22Zm12.6,2.94v8.7H67V60.58h1.88v6.9h2.44v1.68Zm18.38-8.58V77.86H85.38V69.22H83.12v8.44H81.24v-17h1.88v6.86h2.26V60.58ZM79.92,75.4v1.7H72.6V67.9h4.7V62.64H72.6v-1.7h6.58V69.6h-4.7v5.8Zm14.92.94V73.22a3.83,3.83,0,0,1,1.94-3.76l2.92-1.9A2.78,2.78,0,0,0,101,65.08c0-1.5-.64-2.26-2.16-2.26s-2.16.76-2.16,2.26H94.84c0-2.82,1.6-3.94,4-3.94s4,1.12,4,3.94a4.17,4.17,0,0,1-2.12,3.86L97.92,70.8a2.46,2.46,0,0,0-1.22,2.38v1.5h6.22v1.66Zm10.6-15.4h6v4c0,4.9-1.56,9.08-5.14,12.14l-1.68-1a13.25,13.25,0,0,0,4.94-10.92V62.64h-4.14Zm14.66-.36V77.86h-1.88V69.22H115.4v8.44h-1.88v-17h1.88v6.86h2.82V60.58Zm22.7,0V77.86h-1.88V69.22h-2.26v8.44h-1.88v-17h1.88v6.86h2.26V60.58ZM135.46,75.4v1.7h-7.32V60.94h6.76v1.7H130V67.9h4.7v1.7H130v5.8ZM161,73.54H159.1V62.64H146.32v-1.7H161Zm.94,1.86v1.7H145.38V75.4Zm17.26.64v1.62H164.32V73.5H177.1v-.88H164.32V71H179v4.1H166.2V76Zm-15.8-7.58h16.54V70.1H163.38Zm15.8-2.5v1.62H164.32V63.46H177.1v-.9H164.32V60.94H179v4.12H166.2V66Zm22.7,10v1.66H187V70.5h6.3V69.36h-7.24V67.68h16.54v1.68H195.2V70.5h6.48v1.66H188.9v1.06h12.78v1.66H188.9V76Zm-.2-15.06v5.64H187V60.94h1.88v1.12h10.9V60.94ZM188.9,65h10.9V63.7H188.9Zm15.74,6.9V66.22c0-3.58,1.8-5.46,4.52-5.46s4.52,1.88,4.52,5.46v5.64c0,3.54-1.8,5.42-4.52,5.42S204.64,75.4,204.64,71.86Zm1.88-5.64v5.64c0,2.62.94,3.74,2.64,3.74s2.64-1.12,2.64-3.74V66.22c0-2.64-.94-3.76-2.64-3.76S206.52,63.58,206.52,66.22Zm11.1,6h-3.2V70.54h3.2v-4h-3.2V64.9h3.2V60.58h1.88V77.86h-1.88Zm7.84-11.46h1.88a43.24,43.24,0,0,1-.38,5.8,20.09,20.09,0,0,0,5.16,9.26l-1.38,1.28a20.71,20.71,0,0,1-4.42-7,26.64,26.64,0,0,1-2.74,7.22l-1.68-.88C224.54,71.84,225.46,66.22,225.46,60.76Zm10.16-.18h1.88V77.86h-1.88v-8.7h-5.46V67.48h5.46Zm4.3,18.22-.56-.76a2.47,2.47,0,0,0,1.12-2.44v-.92h2.16v.92A3.19,3.19,0,0,1,239.92,78.8Zm25.8-3.4v1.7H249.18V75.4Zm-15.4-4.76-1.14-1.4a11.53,11.53,0,0,0,7.66-8.66l1.86.36a10.19,10.19,0,0,1-.76,2.54,15.37,15.37,0,0,0,7.78,5l-1,1.5a17.47,17.47,0,0,1-7.68-4.86,13.9,13.9,0,0,1-6.74,5.5ZM283,69.7v1.68H268.12V60.94h14.66v1.7H270v2.64h12.78V67H270V69.7Zm.74,5.7v1.7H267.18V75.4h7.34V72.34h1.88V75.4Zm12.18,0v1.7h-10V67.9h6.76V62.64h-6.76v-1.7h8.64V69.6h-6.76v5.8Zm4.7-14.82V77.86h-1.88V60.58Zm7.5,12.22V68.66c0-2.44,1.68-3.76,4.12-3.76s4.14,1.32,4.14,3.76V72.8c0,2.42-1.68,3.74-4.14,3.74S308.1,75.22,308.1,72.8ZM310,68.94v3.58c0,1.58.74,2.34,2.24,2.34s2.26-.76,2.26-2.34V68.94c0-1.6-.74-2.36-2.26-2.36S310,67.34,310,68.94ZM323.88,65v1.88c-2.08-.58-3.58.36-3.58,2.16v7.3h-1.88V65.08h1.7l.18,1.22a3.29,3.29,0,0,1,3.58-1.3Zm21.4,11.2v1.66H330.8V73.18H343V71.82H330.8V70.16h14.1V74.8H332.68v1.4Zm-.38-15.62v8.7H343v-8.7Zm-4.32,6.6v1.66H330.24V64h7V62.62h-7V60.94h8.84v4.72h-7v1.52ZM364,75.4v1.7H347.48V75.4Zm-15.4-4.76-1.14-1.4a11.53,11.53,0,0,0,7.66-8.66l1.86.36a10.19,10.19,0,0,1-.76,2.54,15.37,15.37,0,0,0,7.78,5L363,70a17.47,17.47,0,0,1-7.68-4.86,13.9,13.9,0,0,1-6.74,5.5Zm32.28,7.22H379V60.58h1.88Zm-13-13.34v9c0,1.5.66,2.06,1.6,2.06s1.6-.56,1.6-2.06v-9c0-1.5-.66-2.06-1.6-2.06S367.92,63,367.92,64.52Zm-1.88,9v-9c0-2.64,1.6-3.76,3.48-3.76S373,61.88,373,64.52v3h2.16V60.66H377v17h-1.88V69.22H373v4.32c0,2.62-1.6,3.74-3.48,3.74S366,76.16,366,73.54Zm37.56-3v7.12H389.5V70.54h1.92v1.68h10.3V70.54Zm-15-5.54a4.51,4.51,0,1,1,4.62,4.4h-.1a4.35,4.35,0,0,1-4.52-4.17Zm15-4.42v9.14h-1.88V65.84h-3.38v-1.7h3.38V60.58ZM390.44,65a2.63,2.63,0,1,0,2.64-2.74,2.6,2.6,0,0,0-2.64,2.56Zm.94,11h10.34V73.88H391.38ZM422,69.7v1.68H407.12v-6.1H419.9V62.64H407.12v-1.7h14.66v6H409V69.7Zm.74,5.7v1.7H406.18V75.4h7.34V72.34h1.88V75.4ZM427,68.66h13v1.68H425.12v-9.4h14.66v1.7H427Zm13.72,6.74v1.7H424.18V75.4Zm2.24-15h1.88v12H443ZM445,77.48h-2.26V75.22H445Z"/></g></g></g></svg>