<svg xmlns="http://www.w3.org/2000/svg" width="375" height="132.2" viewBox="0 0 375 132.2"><defs><style>.cls-1,.cls-2{isolation:isolate;}.cls-2{font-size:36px;fill:#fff;font-family:AdobeMyungjoStd-Medium-KSCpc-EUC-H, Adobe Myungjo Std;}.cls-3{font-family:ArialMT, Arial;}.cls-4{fill:#ffd711;}.cls-5{fill:none;}</style></defs><title>txt_sec1_title_w375</title><g id="Layer_2" data-name="Layer 2"><g id="Layer_1-2" data-name="Layer 1"><g id="_2_tit" data-name=" 2 tit"><g id="음악도_성적순이라구요_" data-name="음악도 성적순이라구요 " class="cls-1"><text class="cls-2" transform="translate(133.58 65.95) rotate(-4.01)">음악도</text><text class="cls-2" transform="translate(50.39 119.9) rotate(-4.01)">성적순이라구요<tspan class="cls-3" x="252" y="0">?</tspan></text></g><g id="그룹_3931" data-name="그룹 3931"><path id="패스_8684" data-name="패스 8684" class="cls-4" d="M244.87,28.43a.36.36,0,0,0,.16-.11L265.61.45a.28.28,0,0,0-.09-.4.29.29,0,0,0-.38.05L244.56,28a.29.29,0,0,0,.06.41A.31.31,0,0,0,244.87,28.43Z"/><path id="패스_8685" data-name="패스 8685" class="cls-4" d="M250.76,31.8a.23.23,0,0,0,.12-.06l2.5-2.27A.29.29,0,1,0,253,29h0l-2.5,2.27a.29.29,0,0,0,0,.41.28.28,0,0,0,.29.08Z"/><path id="패스_8686" data-name="패스 8686" class="cls-4" d="M254.82,27.87a.23.23,0,0,0,.12-.06l9.93-9a.3.3,0,0,0,.05-.41.31.31,0,0,0-.42,0l0,0-9.93,9a.29.29,0,0,0,0,.41A.29.29,0,0,0,254.82,27.87Z"/><path id="패스_8687" data-name="패스 8687" class="cls-4" d="M248,41.22l.08,0,8.37-5.44a.29.29,0,1,0-.29-.51l0,0-8.38,5.44a.29.29,0,0,0-.08.4.28.28,0,0,0,.31.13Z"/><path id="패스_8688" data-name="패스 8688" class="cls-4" d="M258.22,34.26l.09,0L278.62,21a.31.31,0,0,0,.09-.41.3.3,0,0,0-.41-.08L258,33.74a.28.28,0,0,0-.08.4.28.28,0,0,0,.31.12Z"/><path id="패스_8689" data-name="패스 8689" class="cls-4" d="M252.6,45.18h0l5.12-1.65a.29.29,0,0,0,.18-.37.31.31,0,0,0-.36-.18l-5.12,1.64a.31.31,0,0,0-.18.38A.28.28,0,0,0,252.6,45.18Z"/><path id="패스_8690" data-name="패스 8690" class="cls-4" d="M259.77,42.86h0l1.87-.6a.3.3,0,0,0-.18-.56l-1.86.61a.29.29,0,0,0,.16.55Z"/><path id="패스_8691" data-name="패스 8691" class="cls-4" d="M263.78,41.55h0l11.4-3.66a.28.28,0,0,0,.17-.37.29.29,0,0,0-.35-.19L263.62,41a.31.31,0,0,0-.18.38A.28.28,0,0,0,263.78,41.55Z"/></g></g><rect class="cls-5" y="0.2" width="375" height="132"/></g></g></svg>