<svg xmlns="http://www.w3.org/2000/svg" width="600" height="27" viewBox="0 0 600 27"><defs><style>.cls-1{fill:#fff;}.cls-2{fill:none;}</style></defs><title>txt_spot_description_w600</title><g id="Layer_2" data-name="Layer 2"><g id="Layer_1-2" data-name="Layer 1"><g id="_1_tit" data-name=" 1 tit"><path id="패스_11536" data-name="패스 11536" class="cls-1" d="M119.74,23.21v-2l3.66-3.86A38.72,38.72,0,0,0,127,13.06a5.86,5.86,0,0,0,1.17-3.32,3,3,0,0,0-.91-2.46,4.29,4.29,0,0,0-2.78-.76,7.83,7.83,0,0,0-4,1.29L120,5.26a10.59,10.59,0,0,1,5.46-1.45,7,7,0,0,1,4.73,1.42,5.16,5.16,0,0,1,1.63,4.06,7.2,7.2,0,0,1-.44,2.43A9.4,9.4,0,0,1,130,14.18c-.61.83-1.15,1.5-1.61,2s-1.07,1.18-1.86,2l-2.27,2.32h7.7v2.69Zm21.78.34a6.89,6.89,0,0,1-5.4-2.29q-2-2.28-2-6.93v-1.2a13.92,13.92,0,0,1,.6-4.34,7.25,7.25,0,0,1,1.66-2.91,7,7,0,0,1,2.37-1.57,7.87,7.87,0,0,1,2.84-.5,6.93,6.93,0,0,1,5.33,2.24c1.38,1.5,2.06,3.83,2.06,7v1.2q0,4.77-2.07,7a6.92,6.92,0,0,1-5.35,2.27Zm0-2.64a3.17,3.17,0,0,0,2.91-1.52,9.51,9.51,0,0,0,.95-4.92V13.05c0-4.39-1.27-6.58-3.83-6.58A3.2,3.2,0,0,0,138.61,8a9.51,9.51,0,0,0-1,4.86v1.48C137.66,18.72,138.94,20.91,141.52,20.91Zm30.41,5H155V18.34h3.25v4.95h13.69ZM164.26,13l.39,2.63a46.88,46.88,0,0,1-10.16.87H152V3.22h3.25v10.5A33.34,33.34,0,0,0,164.26,13ZM168.12,7h-6.19V4.48h6.19V1.62h3.28V19.71h-3.28V11.37h-6.19V8.85h6.19Zm18.62,16.47a12.76,12.76,0,0,1-3.2-.4,7.84,7.84,0,0,1-2.43-.95l.56-2.49a7.33,7.33,0,0,0,2.06.77,10.44,10.44,0,0,0,2.42.32,4.94,4.94,0,0,0,3-.81,2.86,2.86,0,0,0,1.06-2.41q0-2.85-4-2.91l-2,0V12.07L186,12a4.74,4.74,0,0,0,2.69-.8,2.43,2.43,0,0,0,1-2.06q0-2.62-3.42-2.63a9.72,9.72,0,0,0-4.09,1L181.84,5a9.21,9.21,0,0,1,2.44-.86,13.82,13.82,0,0,1,2.94-.35,7,7,0,0,1,4.34,1.25,4.17,4.17,0,0,1,1.62,3.51q0,3.28-3.44,4.48c2.72.55,4.09,2.11,4.09,4.7a5.13,5.13,0,0,1-1.9,4.2,8,8,0,0,1-5.19,1.55Zm30.41,3.17H199.29V21H213V19.91H199.26V17.56h17.05v5.6H202.56V24.3h14.59ZM197,6.1a3.43,3.43,0,0,1,1.79-3A8,8,0,0,1,203.23,2a7.71,7.71,0,0,1,4.36,1.16,3.52,3.52,0,0,1,1.75,3,3.41,3.41,0,0,1-1.77,2.94,7.8,7.8,0,0,1-4.34,1.15,8.08,8.08,0,0,1-4.42-1.15A3.44,3.44,0,0,1,197,6.1ZM208.08,16V13.83h5V1.62h3.25v15h-3.25V16Zm-3.62.67h-3.27v-3c-2.88.12-4.74.17-5.6.17l-.45-2.6c3.08,0,5.78,0,8.09-.14q4.88-.22,8.1-.64l.25,2.43c-1.89.27-4.26.48-7.11.65ZM201.12,4.83a1.45,1.45,0,0,0,0,2.59,4.08,4.08,0,0,0,2.11.47,4,4,0,0,0,2.1-.49,1.44,1.44,0,0,0,.81-1.27,1.47,1.47,0,0,0-.81-1.29,3.93,3.93,0,0,0-2.1-.5A4,4,0,0,0,201.12,4.83ZM218.77,27l1.12-5.66h3.53l-2,5.66Zm13.86-15.34V9h2.72L236.13,4h2.38L237.7,9h2.74L241.28,4h2.36L242.83,9h2v2.64h-2.41l-.53,3.19h2.21v2.6h-2.6l-.86,5.35h-2.36l.87-5.35h-2.77l-.87,5.35h-2.35l.81-5.35h-2.1v-2.6h2.55l.5-3.19Zm4.68,0-.56,3.19h2.77l.56-3.19Zm29.82,14.92H264V14.08h-2.41V25.42h-3.05V2.07h3.05v9.38H264V1.62h3.11Zm-9.58-7.34a20.64,20.64,0,0,1-3.5.5c-1.68.15-3.27.23-4.79.23H247V4.53h3.22V17.25a27.07,27.07,0,0,0,6.89-.65c0,.36.11.86.22,1.5s.18,1,.19,1.13Zm31.84-7.67h-7.08v2.77H292V17H269.45V14.33H279V11.56h-6.58V2.46h16.71V5.09H275.73V9h13.66Zm0,14.33H272.34V18.73h3.25v4.59h13.8Zm24.78.68h-3.11V14.08h-2.41V25.42h-3V2.07h3v9.38h2.41V1.62h3.11Zm-9.58-7.34a20.64,20.64,0,0,1-3.5.5c-1.68.15-3.27.23-4.78.23h-2.24V4.53h3.22V17.25a27,27,0,0,0,6.88-.65c0,.36.12.86.23,1.5S304.57,19.13,304.59,19.23ZM339,15.62H316.49V13H339Zm-2.6,10.64H319.38v-8.7h16.8v2.63H322.63v3.47h13.8Zm-.06-15.32H319.49V2.46h16.69v2.6H322.77V8.33h13.6Zm16.75,12.27L346.34,4H350l5,14.84h.09l5-14.84h3.22l-6.78,19.21Zm12.34,0V4h3.48V23.21Zm7.4,0V4h6.72c4.22,0,6.32,1.62,6.32,4.85a4.07,4.07,0,0,1-3.13,4.2v.08q4,.73,4,4.59a5,5,0,0,1-1.7,4,7.35,7.35,0,0,1-5,1.5Zm3.41-2.58h3.3q3.56,0,3.56-3.1a2.76,2.76,0,0,0-.94-2.34,4.58,4.58,0,0,0-2.81-.72h-3.11Zm0-8.45H379q3.53,0,3.53-2.86a2.52,2.52,0,0,0-.83-2.14,4.19,4.19,0,0,0-2.56-.63h-2.83Zm13.27,11V4h12V6.72H393V12h6.64v2.69H393v5.82h8.71v2.72Zm18.29-14a3.09,3.09,0,0,0,1,2.35,4.17,4.17,0,0,0,5.25,0,3.06,3.06,0,0,0,1-2.35,3,3,0,0,0-1-2.28,4.21,4.21,0,0,0-5.23,0A3,3,0,0,0,407.83,9.18Zm16.71-7.56v25H421.3V1.62ZM404.47,9.21a5.47,5.47,0,0,1,1.9-4.33,8.45,8.45,0,0,1,10.06,0,5.49,5.49,0,0,1,1.89,4.33,5.47,5.47,0,0,1-1.89,4.31,8.36,8.36,0,0,1-10.05,0,5.47,5.47,0,0,1-1.91-4.31Zm15.79,11c-2.47.31-5.28.56-8.43.72q-5.59.22-7.84.2l-.47-2.8c3.06,0,5.77,0,8.12-.14q4.88-.17,8.34-.61Zm34.05,6.38H451V1.62h3.28Zm-5.15-8.12-1.9,2.46a13.2,13.2,0,0,1-3.24-3A12.41,12.41,0,0,1,441.77,14a12.36,12.36,0,0,1-2.32,4.24,12.58,12.58,0,0,1-3.64,3.18l-2-2.4A12.89,12.89,0,0,0,440,7.53V3.72h3.39V7.36q0,7.36,5.77,11.09ZM457.5,5.88V3.22h13.13V5.88h-4.76a7.24,7.24,0,0,0,1.77,4.31,8.41,8.41,0,0,0,3.81,2.52l-1.8,2.6a10.94,10.94,0,0,1-3.11-2,9.48,9.48,0,0,1-2.32-3A7.74,7.74,0,0,1,462,13.76,9.46,9.46,0,0,1,458.45,16l-1.93-2.55a9.68,9.68,0,0,0,4.27-2.94,7.56,7.56,0,0,0,1.72-4.62Zm2.83,11.53h16.41V26.6h-3.3V20H460.33Zm19.93-7.2h-3.55v5.95h-3.3V1.62h3.3V7.53h3.55Z"/><rect class="cls-2" width="600" height="27"/></g></g></g></svg>