<svg xmlns="http://www.w3.org/2000/svg" width="460" height="134" viewBox="0 0 460 134"><defs><style>.cls-1{fill:#111;}.cls-2{fill:#8214ff;}.cls-3{fill:none;}</style></defs><title>txt_sec2_title_w460</title><g id="Layer_2" data-name="Layer 2"><g id="Layer_1-2" data-name="Layer 1"><g id="_3_tit" data-name=" 3 tit"><g id="SMALL_TIT" data-name="SMALL TIT"><path id="패스_11223" data-name="패스 11223" class="cls-1" d="M148.92,17.27V1.72h-5V22.84l11-1.68v-4.8ZM160.68,1h-4.32V7.6H152v4.8h4.32V22.84h4.32ZM166,1h-4.32V22.84H166Zm24,0h-5.52V22.84H190ZM168.14,13.48c0,6.79,2,9.6,7.08,9.6s7.08-2.81,7.08-9.6v-2.4c0-6.79-2-9.6-7.08-9.6s-7.08,2.81-7.08,9.6Zm8.88-.24c0,4.37-.48,5.28-1.8,5.28s-1.8-.91-1.8-5.28V11.32c0-4.37.48-5.28,1.8-5.28S177,7,177,11.32Zm31.42.72v8.88H214V1h-5.52V8.92h-2.16V1.72H201v6h-3.6v-6h-5.28V22.84l14.16-1.68V14Zm-11-1.68H201v4.94l-3.6.44Z"/><g id="VIBE"><g id="그룹_4493" data-name="그룹 4493"><g id="그룹_4492" data-name="그룹 4492"><path id="패스_11055" data-name="패스 11055" class="cls-1" d="M232.77,14.91,228.17,2.2a.55.55,0,0,0-.51-.36h-4.74a.55.55,0,0,0-.54.55.41.41,0,0,0,0,.19l7.83,19.72a.57.57,0,0,0,.51.34h4a.56.56,0,0,0,.5-.34l7.83-19.72a.55.55,0,0,0-.3-.7.71.71,0,0,0-.2,0h-4.74a.55.55,0,0,0-.51.36Z"/><rect id="사각형_144" data-name="사각형 144" class="cls-1" x="246.69" y="1.84" width="5.41" height="20.79" rx="1"/><path id="패스_11056" data-name="패스 11056" class="cls-1" d="M290,5.88V2.38a.54.54,0,0,0-.54-.54H276.77a.54.54,0,0,0-.54.54h0V22.1a.54.54,0,0,0,.54.54h12.64a.54.54,0,0,0,.54-.54h0V18.6a.54.54,0,0,0-.54-.54h-8.09V14.37h7.47a.54.54,0,0,0,.54-.54h0V10.54a.55.55,0,0,0-.54-.54h-7.47V6.42h8.09a.54.54,0,0,0,.54-.54Z"/><path id="패스_11057" data-name="패스 11057" class="cls-1" d="M269.27,11.82A5.8,5.8,0,0,0,272,7.18c0-3-2.15-5.34-5.67-5.34h-8.7a.55.55,0,0,0-.54.54h0V22.1a.54.54,0,0,0,.54.54h8.69c3.51,0,6.16-1.71,6.16-5.7a5.25,5.25,0,0,0-3.2-5.12ZM262.17,6h2.63A2,2,0,0,1,267,7.93a.74.74,0,0,1,0,.21c0,1.76-1,2.23-1.81,2.23h-3Zm3,12.48h-3V14.11H265a2,2,0,0,1,2.28,1.69,2.07,2.07,0,0,1,0,.5,2,2,0,0,1-1.73,2.17A1.53,1.53,0,0,1,265.19,18.48Z"/></g></g></g><path id="패스_11224" data-name="패스 11224" class="cls-1" d="M300.36,6.28V1.48h-5.52V10h20.64V6.28Zm0,13.32V15.76h-5.52v7.56h20.64V19.6ZM294.12,11V14.8H316.2V11Z"/></g><path id="패스_11222" data-name="패스 11222" class="cls-2" d="M165.06,43.32h-7.77V57.39h-2.1V43.32h-7.77V81.54h7.77V65.79h2.1V81.54h7.77ZM135.24,71.8V44.58h-8.82v37l19.32-2.94V70.2Zm44.52-19V50.46h26.46v-6.3H170.1V59.07h13.23v1.68H168.84v6.72h38.64V60.75H193V59.07h13.23v-6.3Zm0,23.1V69.15H170.1V82.38h36.12V75.87Zm69.3-32.55h-7.77V57.39h-2.1V43.32h-7.77V81.54h7.77V65.79h2.1V81.54h7.77ZM219.24,71.8V44.58h-8.82v37l19.32-2.94V70.2Zm34.86-3.49V82.38h36.12V76.16H263.76V74.61h26.46v-6.3Zm9.66-16.17V50.25h26.46V44.16H254.1V58.23h36.12V52.14Zm-10.92,7.77v6.72h38.64V59.91Zm71-16.59h-7.56V57.39h-2.6c-.5-9.58-3.49-13.23-9.58-13.23-6.72,0-9.66,4.45-9.66,16.38v5c0,11.93,2.94,16.38,9.66,16.38s9.62-4.41,9.66-16.17h2.52V81.54h7.56Zm9.24,0H325.5V81.54h7.56ZM306.18,64.74c0,7.48-.42,9.24-2.1,9.24s-2.1-1.76-2.1-9.24V61.38c0-7.48.42-9.24,2.1-9.24s2.1,1.76,2.1,9.24ZM140.87,105.08l.88-2.1h9.87v-8.4H126.84V103h5L126,116.84h9.87l3.61-8.48,3.11,8.48h9.87l-4.33-11.76Zm-14,13.44V132.8h38.22v-8H136.5v-6.3Zm38.22-25.2H155.4V120.2h9.66Zm3.78,24.78v14.7h38.22V118.1Zm13-12,3.57,10.37h9.87l-4.75-13.86H183.2l3.28-8.4h-9.87L168,116.42h9.87Zm25.2-12.73H197.4v23.1h9.66Zm-29,30.87h19.74v2.52H178.08Zm71-9H239.4v3.57H220.5v-3.57h-9.66V132.8h38.22Zm-13.86-12c0-6.43-4.41-10.29-12.81-10.29s-12.81,3.86-12.81,10.29,4.41,10.29,12.81,10.29S235.2,109.62,235.2,103.19Zm13.86-9.87H239.4V113.9h9.66Zm-26.67,13c-3.36,0-4.41-1.43-4.41-3.15S219,100,222.39,100s4.41,1.43,4.41,3.15S225.75,106.34,222.39,106.34ZM220.5,124.4h18.9v2.31H220.5Zm42-2.39V94.58h-9.66v37l24.78-2.94v-8.4Zm28.56-28.69H281.4v38.22h9.66Zm3.78,1.26v37l24.78-2.94v-8.4L304.5,122V103h15.12v-8.4ZM331.38,107V93.32h-9.66v38.22h9.66V116.21h3.36V107Z"/></g><rect class="cls-3" width="460" height="134"/></g></g></svg>