<svg xmlns="http://www.w3.org/2000/svg" width="460" height="50" viewBox="0 0 460 50"><defs><style>.cls-1{fill:#fff;}.cls-2{fill:none;}</style></defs><title>txt_sec4_description_w460</title><g id="Layer_2" data-name="Layer 2"><g id="Layer_1-2" data-name="Layer 1"><g id="_4_tit" data-name=" 4 tit"><path id="패스_11470" data-name="패스 11470" class="cls-1" d="M76,18.44H65.48V2.28h9.4V4H67.36V16.74H76Zm3.76-7.94v8.7H77.88V1.92h1.88v6.9H82.2V10.5Zm13.36,8.88H87.68c-2.82,0-4.52-1.42-4.52-3.46s1.7-3.48,4.52-3.48h5.44c2.82,0,4.52,1.42,4.52,3.48S95.94,19.38,93.12,19.38ZM82.6,6.52a4.7,4.7,0,1,1,4.69,4.69A4.69,4.69,0,0,1,82.6,6.52Zm5.08,11.2h5.44c1.52,0,2.54-.7,2.54-1.8s-1-1.82-2.54-1.82H87.68c-1.5,0-2.54.7-2.54,1.82S86.18,17.72,87.68,17.72Zm9.58-8v2.1H95.38V1.92h1.88V4.16H99.7v1.7H97.26V8H99.7v1.7ZM84.48,6.52a2.82,2.82,0,1,0,5.64.21V6.52a2.82,2.82,0,1,0-5.64-.21Zm24.84,2.92c0,2.16-1.8,3.76-4.34,3.76s-4.32-1.6-4.32-3.76,1.78-3.76,4.32-3.76S109.32,7.28,109.32,9.44Zm5.82,7.88V19H100.86V13.94h1.88v3.38Zm2.06-10V9h-2.44v6.18h-1.88V1.92h1.88V7.3Zm-6.94-4.16V4.8H99.92V3.14H104V1.34h1.88v1.8Zm-2.82,6.3a2.46,2.46,0,0,0-4.9,0,2.47,2.47,0,0,0,4.9,0ZM124.8,2.1h1.88a45,45,0,0,1-.38,5.8,20.09,20.09,0,0,0,5.16,9.26l-1.38,1.28a20.71,20.71,0,0,1-4.42-7,26.64,26.64,0,0,1-2.74,7.22l-1.68-.88C123.88,13.18,124.8,7.56,124.8,2.1Zm9.78-.18h1.88v6.9h2.44V10.5h-2.44v8.7h-1.88ZM156.4,6v1.7H154v4.64h-1.88V1.92H154V6ZM154,13.2V19h-13.9V13.2Zm-12,4.14h10.14v-2.5H141.94ZM150,9.8v1.7H139.68V6h7V4h-7V2.28h8.84v5.4h-7V9.8Zm22.2,7.54V19H157.36V14.44h12.78V13.26H157.36V11.6H172v4.48H159.24v1.26Zm-15.8-8.66H173v1.68H156.42Zm15.7-1.16H157.36V2.28H172V4H159.24V5.84h12.88Zm17.22-5.6V19.2h-1.88V1.92Zm-13,5.64V13.2c0,2.62.94,3.74,2.74,3.74s2.72-1.12,2.72-3.74V7.56c0-2.64-.94-3.76-2.72-3.76S176.36,4.92,176.36,7.56Zm-1.88,5.64V7.56c0-3.68,1.88-5.46,4.62-5.46s4.6,1.78,4.6,5.46V13.2c0,3.64-1.88,5.42-4.6,5.42S174.48,16.84,174.48,13.2ZM211.22,2.28V4h-5.78c-.16.2-.34.4-.52.6a15.42,15.42,0,0,0,6.88,2L210.88,8a16,16,0,0,1-7.22-2.38,14.79,14.79,0,0,1-6.76,2.62L196,6.8A12.75,12.75,0,0,0,203.1,4h-6.54V2.28ZM208,19.38h-8.28c-1.88,0-3.2-.84-3.2-2.3s1.32-2.26,3.2-2.26H208c1.88,0,3.18.84,3.18,2.26S209.92,19.38,208,19.38Zm-8.28-1.66H208c.7,0,1.22-.2,1.22-.64s-.52-.64-1.22-.64h-8.28c-.72,0-1.22.22-1.22.64S199,17.72,199.76,17.72Zm11.66-5.46V13.9h-15V12.26h6.54v-1h1.88v1Zm-6.68-3.2h7.42v1.68H195.62V9.06h7.24V7.16h1.88Zm8.94,4.14V7.56c0-3.68,1.88-5.46,4.62-5.46s4.6,1.78,4.6,5.46V13.2c0,3.64-1.88,5.42-4.6,5.42S213.68,16.84,213.68,13.2Zm1.88-5.64V13.2c0,2.62.94,3.74,2.74,3.74S221,15.82,221,13.2V7.56c0-2.64-.94-3.76-2.72-3.76S215.56,4.92,215.56,7.56Zm12.6,2.94v8.7h-1.88V1.92h1.88v6.9h2.44V10.5Zm3.4,3.82V11.88a4.42,4.42,0,0,1,8.84,0v2.44a4.42,4.42,0,0,1-8.84,0Zm14.1-3.82v8.7h-1.88V1.92h1.88v6.9h2.44V10.5Zm-12.22,1.38v2.44a2.54,2.54,0,0,0,5.08.14V11.88a2.54,2.54,0,1,0-5.08-.2ZM241,5.68H231V4h4V1.34h1.88V4H241Zm7.16,4.88h16.54v1.7H248.12Zm15.8,6.76V19H249.06V13.76h1.88v3.56ZM249.06,8.26V2.1h1.88V6.62h13V8.26Zm21.32,4.94V7.56c0-3.68,1.88-5.46,4.62-5.46s4.6,1.78,4.6,5.46V13.2c0,3.64-1.88,5.42-4.6,5.42S270.38,16.84,270.38,13.2Zm1.88-5.64V13.2c0,2.62.94,3.74,2.74,3.74s2.72-1.12,2.72-3.74V7.56c0-2.64-.94-3.76-2.72-3.76S272.26,4.92,272.26,7.56Zm12.6,2.94v8.7H283V1.92h1.88v6.9h2.44V10.5Zm13,7.94h-9.78V2.28h8.64V4H290V9.06h6.76v1.68H290v6h7.9Zm4.88-16.52V19.2h-1.88V1.92Zm18.62,14.82v1.7H304.82v-1.7ZM306,12l-1.14-1.4a11.53,11.53,0,0,0,7.66-8.66l1.86.36a10.63,10.63,0,0,1-.76,2.54,15.33,15.33,0,0,0,7.78,5l-1,1.5a17.47,17.47,0,0,1-7.68-4.86A13.9,13.9,0,0,1,306,12Zm19.18-8V7h12.78v1.7H325.14v3.1h13v1.7H323.26V2.28h14.66V4Zm13.72,12.76v1.7H322.32v-1.7Zm1,1.7v-1.7H352v1.7Zm13.54.76V1.92h1.88V19.2ZM350.54,6.8a5.08,5.08,0,0,1-10.16,0,5.08,5.08,0,0,1,10.16,0Zm-1.88,0a3.2,3.2,0,0,0-6.4,0h0a3.2,3.2,0,0,0,6.4,0ZM372.8,19.38h-5.64c-2.82,0-4.5-1.42-4.5-3.46s1.68-3.48,4.5-3.48h5.64c2.82,0,4.52,1.42,4.52,3.48s-1.7,3.46-4.52,3.46Zm-5.64-1.66h5.64c1.5,0,2.54-.7,2.54-1.8s-1-1.82-2.54-1.82h-5.64c-1.5,0-2.54.7-2.54,1.82s1,1.8,2.54,1.8Zm9.78-15.8v9.9h-1.88V9.44h-4.34V7.74h4.34V5.86H370.9V4.16h4.16V1.92Zm-14.66.36h8.1v1c0,4.12-3.36,7.32-8,8l-.82-1.56c3.9-.48,6.58-2.5,7-5.74h-6.22Zm27.46,8.28h-4.88c-3.12,0-5.28-1.7-5.28-4.32s2.16-4.32,5.28-4.32h4.88c3.1,0,5.26,1.68,5.26,4.32S392.84,10.56,389.74,10.56Zm-4.88-1.7h4.88c2.06,0,3.28-1,3.28-2.62S391.8,3.6,389.74,3.6h-4.88c-2.08,0-3.3,1-3.3,2.64S382.78,8.86,384.86,8.86ZM395.56,13v1.7h-7.32v4.68h-1.88V14.7H379V13ZM35.18,32.28h8.26v3.54a14,14,0,0,1-7.8,12.64L34.42,47a12.19,12.19,0,0,0,7.14-11V34H35.18Zm14.66-.36V49.2H48V31.92Zm17.88,15.4V49H52.86V44.5h1.88v2.82Zm-.2-15V34H61.78A10.23,10.23,0,0,1,61,35.22,13.53,13.53,0,0,0,68.1,38l-.92,1.5a14.83,14.83,0,0,1-7.32-3.1,12.94,12.94,0,0,1-6.58,3.36l-1-1.52A10.65,10.65,0,0,0,59.68,34H52.86v-1.7ZM61,41.5h7.42v1.7H51.92V41.5h7.24V38.84H61ZM91.1,36v1.7H88.66v4.84H86.78V31.92h1.88V36Zm-7.88-3.76v8.94H74.38V32.28h1.88V35h5.08V32.28Zm-7,7.24h5.08V36.7H76.26Zm8.46,9.86H78.88c-2.82,0-4.32-1.42-4.32-3.28s1.5-3.28,4.32-3.28h5.84c2.82,0,4.32,1.4,4.32,3.28S87.54,49.38,84.72,49.38Zm-5.84-1.66h5.84c1.5,0,2.34-.6,2.34-1.62s-.84-1.62-2.34-1.62H78.88c-1.5,0-2.34.6-2.34,1.62S77.38,47.72,78.88,47.72Zm16.38-15.8h1.88a14.27,14.27,0,0,1-.42,3.44,15,15,0,0,0,5.16,5l-1.16,1.42a17.36,17.36,0,0,1-4.7-4.3,11.58,11.58,0,0,1-3.62,4.82l-1.5-1.22a10.87,10.87,0,0,0,4.36-9.14ZM106.54,43.2v6.18h-1.88v-4.5H92.26V43.2Zm-1.88-1V31.92h1.88V42.2Zm19.56-9.92V42.62H109.56V32.28h1.88v3.4h10.9v-3.4Zm-12.78,8.66h10.9V37.36h-10.9Zm13.72,5.8v1.7H108.62v-1.7H116V43.5h1.88v3.24Zm12.24,1.7H126.88V32.28h9.4V34h-7.52V46.74h8.64Zm3.76-7.94v8.7h-1.88V31.92h1.88v6.9h2.44V40.5Zm8.14,1.58-1.48-1.2a8.51,8.51,0,0,0,4.3-6.9h-3.54v-1.7h9.18V34H154a12,12,0,0,1-.26,1.8,13.46,13.46,0,0,0,4.9,4.4l-1.22,1.4A15.8,15.8,0,0,1,153,37.8a10.42,10.42,0,0,1-3.72,4.28Zm10,7.3h-6c-2.82,0-4.32-1.42-4.32-3.28s1.5-3.28,4.32-3.28h6c2.82,0,4.32,1.4,4.32,3.28S162.12,49.38,159.3,49.38Zm-6-1.66h6c1.5,0,2.34-.6,2.34-1.62s-.84-1.62-2.34-1.62h-6c-1.5,0-2.36.6-2.36,1.62S151.78,47.72,153.28,47.72Zm8.08-15.8h1.88V42.2h-1.88V37.56h-3.94v-1.7h3.94ZM182.8,37.1v1.7h-2.44V45h-1.88V31.92h1.88V37.1Zm-2.06,10.22V49H166.46V43.56h1.88v3.76Zm-11.28-15.4h1.88a14.41,14.41,0,0,1-.46,3.58,15.14,15.14,0,0,0,5.2,5L174.92,42a16.5,16.5,0,0,1-4.74-4.38,11.89,11.89,0,0,1-3.58,4.88l-1.5-1.2a11.6,11.6,0,0,0,4.36-9.34Zm29,6.2h-1.88V34H183.76v-1.7h14.66Zm-15.6.94h16.54v1.68H182.82Zm15.6,3.56V49H183.76V42.62Zm-12.78,4.72h10.9V44.28h-10.9Zm30.1-15.42V49.2h-1.88V31.92Zm-13,5.64V43.2c0,2.62.94,3.74,2.74,3.74s2.72-1.12,2.72-3.74V37.56c0-2.64-.94-3.76-2.72-3.76S202.76,34.92,202.76,37.56Zm-1.88,5.64V37.56c0-3.68,1.88-5.46,4.62-5.46s4.6,1.78,4.6,5.46V43.2c0,3.64-1.88,5.42-4.6,5.42S200.88,46.84,200.88,43.2Zm25.28-11.28H228a12.5,12.5,0,0,1-.32,2.92,14,14,0,0,0,5.06,4.74L231.62,41a17.24,17.24,0,0,1-4.58-4.1,10.4,10.4,0,0,1-3.8,4.6l-1.44-1.28A9.29,9.29,0,0,0,226.16,31.92Zm13.34,3.76v1.68h-2.44v4.46h-1.88v-9.9h1.88v3.76Zm-6.58,13.7h-5.44c-2.82,0-4.52-1.42-4.52-3.46s1.7-3.48,4.52-3.48h5.44c2.82,0,4.52,1.42,4.52,3.48S235.74,49.38,232.92,49.38Zm-5.44-1.66h5.44c1.52,0,2.54-.7,2.54-1.8s-1-1.82-2.54-1.82h-5.44c-1.5,0-2.54.7-2.54,1.82S226,47.72,227.48,47.72Zm12-8.28h16.54v1.68H239.52Zm.88-1-.88-1.52c3.52-.46,6.54-1.94,7.58-5l1.94.28a7.69,7.69,0,0,1-.56,1.2,15.38,15.38,0,0,0,7.58,3.22l-.78,1.52a17,17,0,0,1-7.8-3.32A11.08,11.08,0,0,1,240.4,38.4Zm10.4,11h-6c-3,0-4.5-1.22-4.5-3.18s1.5-3.2,4.5-3.2h6c3,0,4.52,1.22,4.52,3.2S253.82,49.38,250.8,49.38Zm-6-1.66h6c1.88,0,2.54-.6,2.54-1.52s-.66-1.54-2.54-1.54h-6c-1.68,0-2.54.6-2.54,1.54S242.9,47.72,244.78,47.72ZM258,44.32V41.88a4.42,4.42,0,0,1,8.84,0v2.44a4.42,4.42,0,0,1-8.84,0Zm14.1-3.82v8.7h-1.88V31.92h1.88v6.9h2.44V40.5Zm-12.22,1.38v2.44a2.54,2.54,0,1,0,5.08.14V41.88a2.54,2.54,0,1,0-5.08-.2Zm7.52-6.2h-10V34h4V31.34h1.88V34h4.08Zm7.16,4.88h16.54v1.7H274.52Zm15.8,6.76V49H275.46V43.76h1.88v3.56Zm-14.86-9.06V32.1h1.88v4.52h13v1.64Zm36.18-6.34V49.2h-1.88V40.56H307.7V49h-1.88V32h1.88v6.86h2.06V31.92Zm-6.76.36V34H297v-1.7Zm.18,14.46v1.7h-8.28v-1.7h1.52V35.68h1.88V46.74h1l.94-11.06H304l-.94,11.06Zm18.82-6.18v1.7h-9.4v-10h8.46V34h-6.58v2.4h6.38v1.68h-6.38v2.5Zm5.64,6.76V49H315V43.76h1.88v3.56Zm-.38-15.4V45h-1.88V38.06h-3.58v-1.7h3.58V31.92ZM347,47.32V49H332.16V44.42h12.78V43.26H332.16V41.58h14.66v4.5H334v1.24Zm-15.8-8.64h16.54v1.68H331.22ZM335.36,36h8.08c.94,0,1.7-.44,1.7-1.18s-.76-1.2-1.7-1.2h-8.08c-.94,0-1.5.44-1.5,1.2S334.42,36,335.36,36Zm0-4h8.08c2.08,0,3.58,1,3.58,2.86s-1.5,2.84-3.58,2.84h-8.08c-2.06,0-3.38-1-3.38-2.84S333.3,31.92,335.36,31.92Zm33.16.36V42.62H353.86V32.28h1.88v3.4h10.9v-3.4Zm-12.78,8.66h10.9V37.36h-10.9Zm13.72,5.8v1.7H352.92v-1.7h7.34V43.5h1.88v3.24Zm3.22-10.4a2.63,2.63,0,1,0,2.64-2.74,2.6,2.6,0,0,0-2.64,2.56Zm-1.88,0a4.51,4.51,0,1,1,4.62,4.4h-.1a4.35,4.35,0,0,1-4.52-4.17v-.23ZM372,49l-1.4-1.26a7.73,7.73,0,0,0,4.48-5.82l1.78.26a7.61,7.61,0,0,1-.52,2.1,9.67,9.67,0,0,0,2.58,2.6,7.58,7.58,0,0,0,2.72-5l1.8.26a6.54,6.54,0,0,1-.52,2.22,15.77,15.77,0,0,0,4.14,3.06L386,48.92A19.73,19.73,0,0,1,382.1,46a10.23,10.23,0,0,1-3.1,3.08,13.12,13.12,0,0,1-3.56-3.16A9.61,9.61,0,0,1,372,49Zm12-17.08h1.88v9.72H384V39.16h-3.38v-1.7H384V35.4h-3.38V33.7H384Zm4.52,11.28V37.56c0-3.58,1.8-5.46,4.52-5.46s4.52,1.88,4.52,5.46V43.2c0,3.54-1.8,5.42-4.52,5.42S388.48,46.74,388.48,43.2Zm1.88-5.64V43.2c0,2.62.94,3.74,2.64,3.74s2.64-1.12,2.64-3.74V37.56c0-2.64-.94-3.76-2.64-3.76S390.36,34.92,390.36,37.56Zm11.1,3h-3.2v-1.7h3.2V31.92h1.88V49.2h-1.88Zm14.5.76h-4.52c-3.2,0-5.46-1.88-5.46-4.7s2.26-4.7,5.46-4.7H416c3.18,0,5.44,1.88,5.44,4.7S419.14,41.32,416,41.32Zm-4.52-1.7H416c2.06,0,3.46-1.22,3.46-3s-1.4-3-3.46-3h-4.52c-2.06,0-3.48,1.22-3.48,3S409.38,39.62,411.44,39.62ZM422,46.74v1.7H405.42v-1.7h3.76v-4.3h1.88v4.3h5.26v-4.3h1.88v4.3Zm3.62,1.52h-2.26V46h2.26Z"/><rect class="cls-2" width="460" height="50"/></g></g></g></svg>