<svg xmlns="http://www.w3.org/2000/svg" width="210" height="64" viewBox="0 0 210 64"><defs><style>.cls-1{fill:#666;}.cls-2{fill:none;}</style></defs><title>txt_sec8_reward_info2_w210</title><g id="Layer_2" data-name="Layer 2"><g id="Layer_1-2" data-name="Layer 1"><g id="_8_txt02" data-name=" 8 txt02"><path id="패스_11428" data-name="패스 11428" class="cls-1" d="M29.75,9.87V1.38H31V9.87ZM21.8,12.48V9.07H23v2.32h8.19v1.09Zm3.55-9.15a4.68,4.68,0,0,1-.21,1,8.08,8.08,0,0,0,3.28,2.74l-.75.94a10.6,10.6,0,0,1-3-2.47,6.85,6.85,0,0,1-2.8,2.82l-.91-.82a5.77,5.77,0,0,0,3.19-4.25H21.44V2.22h2.62V1h1.23V2.22h2.64V3.33ZM42.79,7.49H41.56V2.72h-8.3V1.61h9.53Zm.61.84V9.44H38.64v3.29H37.42V9.44H32.65V8.33ZM54.61,11.4v1.08H45v-3h8.3V8.75H45V7.67h9.52v2.91h-8.3v.82ZM44.34,5.77H55.1V6.86H44.34ZM54.55,5H45V1.61h9.52V2.7h-8.3V3.92h8.37ZM65.82,7v5.66H64.6V1.38h1.23V5.86H67.4V7ZM63.7,11v1.1H56.05V11h2.2V5.77h1.22V11ZM62.52,8.94H61.3V2.72H56.54V1.61h6ZM79.6,1.38h1.23V12.61H79.6Zm-7.86,6.9-1-.86a6.42,6.42,0,0,0,3.13-4H71.29V2.35h2.63V1h1.22V2.35H77.8V3.44H75.14c-.07.25-.13.48-.22.73a9.15,9.15,0,0,0,3.36,3.09l-.8.93a11.14,11.14,0,0,1-3.12-2.76,7.72,7.72,0,0,1-2.62,2.85Zm-.94,3.83V11h3V8.14h1.22V11H78.7v1.1ZM84.09,3.94V9.8c0,1,.43,1.34,1,1.34s1-.37,1-1.34V3.94c0-1-.43-1.34-1-1.34s-1,.36-1,1.34ZM82.86,9.8V3.94a2.17,2.17,0,0,1,1.88-2.43,2.54,2.54,0,0,1,.39,0A2.16,2.16,0,0,1,87.4,3.55a2.54,2.54,0,0,1,0,.39V9.8a2.16,2.16,0,0,1-1.88,2.41,2.48,2.48,0,0,1-.38,0,2.16,2.16,0,0,1-2.28-2.05A2.38,2.38,0,0,1,82.86,9.8Zm9.66-8.43V12.61H91.3V7H89.83v5.48H88.61v-11h1.22V5.89H91.3V1.38Zm12,10.06v1.05H94.81V9.78h8.31V9.21H94.81V8.15h9.53v2.66H96v.62ZM94.2,6.5H105V7.56H94.2Zm10.27-1.63V5.93H94.81V3.25h8.31V2.66H94.81v-1h9.53V4.29H96v.58ZM112,12.36l.4-3h-1.34l-.4,3h-1.22l.4-3H108.6V8.28H110l.35-2.57H109V4.61h1.47l.42-3h1.22l-.42,3h1.34l.42-3h1.22l-.41,3h1.27v1.1h-1.42l-.35,2.57h1.34V9.37h-1.5l-.4,3Zm.56-4.08.35-2.57h-1.34l-.35,2.57Zm13.6-6.9V12.61h-1.23V7h-1.83v5.48h-1.22v-11h1.22V5.89h1.83V1.38Zm-9.53,10.73V1.61h1.22V11H121v1.1Zm21.47-.72v1.09h-9.66V9.19h1.23v2.2Zm-.06-5.65h-4.28v1.5h4.82v1.1H127.84V7.24h4.71V5.74h-4.1V1.61H138V2.7h-8.3v2h8.37Zm11.52-4.36V12.61h-1.23V7h-1.83v5.48h-1.22v-11h1.22V5.89h1.83V1.38ZM140,12.11V1.61h1.22V11h3.13v1.1Zm21.41-6.66h-9.6V1.61h9.53V2.69h-8.3V4.37h8.37ZM151.24,6.51H162V7.6H151.24Zm1.84,4.89h8.43v1.08h-9.66V8.71h9.53V9.77h-8.3Zm13.53-2V7.85A2.64,2.64,0,0,1,169.07,5h.41a2.65,2.65,0,0,1,2.87,2.4c0,.14,0,.27,0,.41V9.44a2.65,2.65,0,0,1-2.47,2.8h-.41a2.61,2.61,0,0,1-2.87-2.8ZM175.77,7v5.66h-1.22V1.38h1.22V5.86h1.59V7Zm-7.94.9V9.44a1.52,1.52,0,0,0,1.33,1.69,1.13,1.13,0,0,0,.32,0,1.53,1.53,0,0,0,1.66-1.38,1.16,1.16,0,0,0,0-.32V7.85a1.53,1.53,0,0,0-1.33-1.71h-.32a1.55,1.55,0,0,0-1.66,1.4c0,.11,0,.21,0,.32Zm4.89-4h-6.47V2.72h2.6V1h1.22V2.71h2.65Zm5.47-1.1V1.61h6V2.72h-2.55a20.82,20.82,0,0,1-.27,3.15,12.26,12.26,0,0,0,3.5,5.49l-.92.75a13.7,13.7,0,0,1-3-4.27,13.83,13.83,0,0,1-2.12,4.43l-1.1-.57a14.72,14.72,0,0,0,2.69-9Zm8.06-1.34h1.22V5.87h1.59V7h-1.59v5.65h-1.22Z"/><path id="패스_11344" data-name="패스 11344" d="M37.42,40.16V24.76h4.9c3,0,4.5,1.68,4.5,4.08A3.65,3.65,0,0,1,45,32.26a3.58,3.58,0,0,1,2.08,3.68c0,2.54-1.68,4.22-4.5,4.22ZM40.84,37h1.1c1.22,0,1.74-.62,1.74-1.6s-.62-1.5-1.74-1.5h-1.1Zm1.08-9H40.84v2.72h1a1.35,1.35,0,0,0,1.53-1.15,1.22,1.22,0,0,0,0-.27C43.4,28.38,42.82,28,41.92,28ZM53.16,36.4h3.42c-.1,2.52-1.94,3.94-4.58,3.94S47.5,39,47.5,36.6V32.28c0-2.44,1.88-3.76,4.5-3.76s4.52,1.32,4.52,3.76v3.5h-5.6v.54c0,.66.38.92,1.08.92S53.08,37,53.16,36.4Zm-2.24-3.88V33H53.1v-.44c0-.66-.34-.88-1.1-.88S50.92,31.86,50.92,32.52Zm6.72,4.08V32.28c0-2.36,1.68-3.76,4.5-3.76s4.52,1.4,4.52,3.76V36.6c0,2.34-1.7,3.74-4.52,3.74S57.64,38.94,57.64,36.6Zm3.42-3.86v3.4c0,.64.34,1,1.08,1s1.1-.38,1.1-1v-3.4c0-.66-.34-1-1.1-1S61.06,32.08,61.06,32.74Zm16.5-2.82c0,3.3-1.7,5.18-5.08,5.18h-1.1v5.06H68V24.76h4.52C75.86,24.76,77.56,26.64,77.56,29.92Zm-3.44,0c0-1.4-.62-2-1.84-2h-.9V31.9h.9C73.5,31.9,74.12,31.34,74.12,29.92Zm4.3,7.8V24.38h3.42V36.22c0,.56.18.76.84.76v3.18C79.94,40.54,78.42,40.06,78.42,37.72ZM92.1,32.08v8.08H89l-.1-.62a3.72,3.72,0,0,1-2.24.7c-2,0-3.4-.84-3.62-2.92C82.82,35,84.52,33.58,87,33.16A10,10,0,0,1,88.72,33v-.58c0-.5-.3-.76-.9-.76s-1,.32-.94.92H83.54c-.18-2.48,1.3-4.08,4.28-4.08S92.1,29.92,92.1,32.08Zm-3.38,3.74A3.78,3.78,0,0,0,87,36.1a.76.76,0,0,0-.58.68c0,.26.26.32.62.3C88,37,88.72,36.46,88.72,35.82ZM95.94,40l0-.06-3.2-11.2h3.5l.66,2.88.7,4.14.5-4.12.52-2.9h3.52L98.92,41.48A2.65,2.65,0,0,1,96,43.54H93.88v-3.2h1.5A.51.51,0,0,0,95.94,40Zm21.26-10c0,3.3-1.7,5.18-5.08,5.18H111v5.06H107.6V24.76h4.52C115.5,24.76,117.2,26.64,117.2,29.92Zm-3.44,0c0-1.4-.62-2-1.84-2H111V31.9h.9C113.14,31.9,113.76,31.34,113.76,29.92ZM118,40.16V36.1a3.33,3.33,0,0,1,1.34-3l3.5-2.66a1.74,1.74,0,0,0,.58-1.36c0-.84-.34-1.32-1-1.32s-1,.54-1,1.5H118c0-3.22,1.8-4.7,4.42-4.7s4.42,1.48,4.42,4.52a4.73,4.73,0,0,1-1.72,4.1l-3.24,2.36a1.1,1.1,0,0,0-.46.84V37h5.42v3.18ZM136.54,28v9.76c0,.94.34,1.12,1.46,1.12V42c-3.58,0-4.88-.94-4.88-4.12V27.76c0-3.2,1.3-4.14,4.88-4.14v3.2C136.88,26.82,136.54,27,136.54,28ZM139,40.16V36.1a3.33,3.33,0,0,1,1.34-3l3.5-2.66a1.74,1.74,0,0,0,.58-1.36c0-.84-.34-1.32-1-1.32s-1,.54-1,1.5H139c0-3.22,1.8-4.7,4.42-4.7s4.42,1.48,4.42,4.52a4.73,4.73,0,0,1-1.72,4.1l-3.24,2.36a1.1,1.1,0,0,0-.46.84V37h5.42v3.18Zm21.7,1.5H154.5c-2.72,0-4.5-1.5-4.5-3.64s1.78-3.68,4.5-3.68h6.22c2.72,0,4.5,1.5,4.5,3.68S163.44,41.66,160.72,41.66Zm-1.88-17.28v8.84h-9V24.38Zm.56,8v-3h2.22v-1H159.4v-3h2.22V24.2H165V34h-3.42V32.36Zm-4.9,6.48h6.22c.64,0,1-.36,1-.82a.89.89,0,0,0-.93-.87H154.5c-.66,0-1,.38-1,.86S153.84,38.84,154.5,38.84ZM153,30.5h2.64V27.1H153Zm15.36,7.22V28c0-.94-.34-1.14-1.48-1.14v-3.2c3.58,0,4.9.94,4.9,4.14V37.92c0,3.18-1.32,4.12-4.9,4.12v-3.2C168,38.84,168.36,38.66,168.36,37.72Z"/><path id="패스_11342" data-name="패스 11342" class="cls-1" d="M74.48,61.42v-9.6H77.7q3.35,0,3.35,2.82a2.47,2.47,0,0,1-1.74,2.47v.07l2.38,4.25H79.82l-2.14-3.88H76.2v3.87Zm1.72-5.07h1.32a1.86,1.86,0,0,0,1.34-.4,1.7,1.7,0,0,0,.41-1.26,1.47,1.47,0,0,0-.42-1.18,2.08,2.08,0,0,0-1.35-.36H76.2Zm9.43,5.2a3.31,3.31,0,0,1-2.53-.95A3.72,3.72,0,0,1,82.21,58v-.22a3.76,3.76,0,0,1,.94-2.68,3.76,3.76,0,0,1,5,0A3.71,3.71,0,0,1,89,57.7v.2a3.69,3.69,0,0,1-.94,2.68,3.31,3.31,0,0,1-2.47,1Zm0-1.22c1.14,0,1.71-.77,1.71-2.3v-.35a2.83,2.83,0,0,0-.47-1.85,1.62,1.62,0,0,0-1.28-.53,1.53,1.53,0,0,0-1.3.59,2.72,2.72,0,0,0-.45,1.73V58a2.74,2.74,0,0,0,.48,1.84,1.68,1.68,0,0,0,1.32.53ZM91,63.5a1.93,1.93,0,0,1-1-.24V62.18a3.33,3.33,0,0,0,.7.07,1.76,1.76,0,0,0,.85-.18,1.22,1.22,0,0,0,.5-.68l.2-.5-2.71-6.67H91.2L93,58.89h0l1.68-4.67h1.56l-2.8,7.4a3,3,0,0,1-.92,1.45A2.64,2.64,0,0,1,91,63.5Zm8-2A2.42,2.42,0,0,1,97.36,61a1.9,1.9,0,0,1-.6-1.53c0-1.21.77-1.93,2.31-2.15l1.69-.2v-.54a1.06,1.06,0,0,0-.36-1,2.43,2.43,0,0,0-1.3-.25,8,8,0,0,0-1.75.2V54.5a6.53,6.53,0,0,1,2.39-.4c1.75,0,2.63.71,2.63,2.14v5.18H101l-.12-.59h-.09A2.32,2.32,0,0,1,99,61.55Zm.49-1.14a1.82,1.82,0,0,0,1.3-.43V58.2l-1.33.14a1.35,1.35,0,0,0-.82.3,1,1,0,0,0-.27.78.91.91,0,0,0,.3.74A1.2,1.2,0,0,0,99.46,60.41Zm4.47,1V51.19h1.62V61.42Zm6.73,0v-9.6H114c2.11,0,3.16.81,3.16,2.42a2,2,0,0,1-1.56,2.1v0a2.15,2.15,0,0,1,2,2.28v0a2.51,2.51,0,0,1-.85,2,3.72,3.72,0,0,1-2.49.75Zm1.71-1.29H114c1.19,0,1.78-.51,1.78-1.55a1.4,1.4,0,0,0-.47-1.17,2.33,2.33,0,0,0-1.41-.36h-1.55Zm0-4.22h1.34c1.18,0,1.77-.48,1.77-1.43a1.28,1.28,0,0,0-.42-1.07,2.06,2.06,0,0,0-1.28-.31h-1.41Zm6.48,5.51V51.19h1.62V61.42Zm5.36.13c-1.45,0-2.18-.7-2.18-2.1V54.21h1.61v4.93a1.16,1.16,0,0,0,.26.86,1.34,1.34,0,0,0,.91.25,4,4,0,0,0,1.61-.44v-5.6H128v7.21h-1.4l-.14-.63h-.07A3.67,3.67,0,0,1,124.21,61.55Zm8.53,0a3.51,3.51,0,0,1-2.67-.95,3.78,3.78,0,0,1-.9-2.69v-.2A3.66,3.66,0,0,1,130.1,55a3.23,3.23,0,0,1,2.37-.93,2.85,2.85,0,0,1,2.31.86,4,4,0,0,1,.74,2.62v.67h-4.7a2.15,2.15,0,0,0,.63,1.57,2.38,2.38,0,0,0,1.61.46,4.67,4.67,0,0,0,2.23-.53v1.12A4.49,4.49,0,0,1,132.74,61.55Zm-.3-6.26q-1.49,0-1.62,1.86h3.07a2.34,2.34,0,0,0-.36-1.43A1.36,1.36,0,0,0,132.44,55.29Z"/></g><rect class="cls-2" width="210" height="64"/></g></g></svg>