<svg xmlns="http://www.w3.org/2000/svg" width="375" height="18" viewBox="0 0 375 18"><defs><style>.cls-1{fill:none;}</style></defs><title>txt_sec7_description_w375</title><g id="Layer_2" data-name="Layer 2"><g id="Layer_1-2" data-name="Layer 1"><g id="_9_tit" data-name=" 9 tit"><g id="그룹_4671" data-name="그룹 4671"><path id="패스_11525" data-name="패스 11525" d="M61.49,10.87l-1.6-1.64a6.77,6.77,0,0,0,4-4.95H60.57v-2h3.29V.65h2.41v1.6h3.26v2H66.29A6.73,6.73,0,0,1,66,5.54a10.25,10.25,0,0,0,4.28,3.1L69,10.44a12.55,12.55,0,0,1-4-2.81A8.54,8.54,0,0,1,61.49,10.87Zm13.05,3.89-1,1.94a13.46,13.46,0,0,1-6.37-2.79,10,10,0,0,1-5.74,2.83l-1.15-1.91c2.93-.34,5.47-1.78,6.35-4.25l2.25.65a6,6,0,0,1-.47,1A12.07,12.07,0,0,0,74.54,14.76ZM71.64,1.24H74v10H71.64V7.11H68.87v-2h2.77ZM93.82,9.61h-2.4V3.69h-11V1.49H93.82Zm.75,1v2.21H88.4V17H85.86V12.83H79.69V10.62Zm1.71-3.53V1.49h13.38v2h-11V5.15h11.07V7.09h-5.64V8.58h6.3v2H95.53v-2h6.19V7.09Zm0,6.64v-2h13.38V17h-2.4V13.73ZM112,1.49h8.64V3.67h-3.4a28.23,28.23,0,0,1-.33,3.89,17.63,17.63,0,0,0,4.63,7.13l-1.84,1.51A19.6,19.6,0,0,1,116,11.12a18.1,18.1,0,0,1-2.64,5.2l-2.13-1.15a18.67,18.67,0,0,0,3.55-11.5H112Zm13.12,7.89v7.41h-2.39V1.24h2.39V7.09h2V9.38Zm2.13-.67h14.88v2.12H127.21Zm14.29,5.81V16.7H128V11.91h2.4v2.61ZM128,7.14V1.31h2.4V5h11.1v2.1Zm20.84-2h-1.69l-.27-4h2.22Zm15.27-3.64V9H150.7V1.49Zm-11,5.35h8.59V3.67h-8.59ZM164.83,11v2.2h-6.18V17h-2.54v-3.8h-6.17V11Zm1.54-9.47h6.68V3.67h-2.28c0,1.22-.08,2.39-.2,3.51A23.26,23.26,0,0,0,174,14.81c-.64.38-1.27.79-1.92,1.15a23.29,23.29,0,0,1-2.27-4.55,21.13,21.13,0,0,1-2,4.91l-2.14-.81A23.27,23.27,0,0,0,168.5,3.67h-2.13Zm13.45,15.3h-2.29V1.24h2.29ZM176.35,1.31v15.3H174.1V9H172V6.84h2.15V1.31ZM190.42,8c0,2-1.69,3.45-4.07,3.45s-4-1.44-4-3.45,1.7-3.48,4-3.48S190.42,6,190.42,8Zm5.24,6.5V16.7h-13.1V12.06h2.38v2.47Zm1.69-8.86V7.94h-2v5h-2.4V1.24h2.4V5.67Zm-6.24-3.62V4h-9.4V2.05h3.42V.65h2.39v1.4Zm-3,6a1.64,1.64,0,0,0-1.64-1.65h-.15a1.61,1.61,0,0,0-1.75,1.45,1.15,1.15,0,0,0,0,.19,1.59,1.59,0,0,0,1.58,1.59h.18a1.62,1.62,0,0,0,1.78-1.43S188.14,8.08,188.14,8Zm27.41-1H202.09V1.49h13.37V3.4h-11V5.11h11.07ZM201.33,8.15h14.89v1.93H201.33Zm3.15,6.66h11.14V16.7H202.09V11.27h13.37v1.89h-11ZM231.21,1.24V16.79h-2.38V1.24Zm-13.36.25h7.62V5.18a12.18,12.18,0,0,1-6.75,11l-1.64-1.73a10,10,0,0,0,6-9V3.67h-5.22ZM234.9,5.13h-1.69l-.27-4h2.21Zm9.68,1.69H247v3.89h1.33v2.2H247v2.61h-2.38V12.91h-5.07V11.05l4-9.4H246l-3.63,9h2.2Zm4.86-5.33h5.67V5.76c0,4.14-1.3,7.79-4.41,10.44l-2-1.37a10.75,10.75,0,0,0,4-8.84V3.67h-3.28Zm13.45-.25V16.79h-2.38V9.38h-1.69v7.23h-2.36V1.31h2.36V7.2h1.69v-6Zm2.9,10.87V10.44h12.94v4H268.16v.68h10.91v1.69H265.79v-4h10.58v-.67Zm2.63-10.87H271c2.09,0,3.3.9,3.3,2.32S273,5.9,271,5.9h-2.53c-2.09,0-3.3-.92-3.3-2.34S266.33,1.24,268.42,1.24ZM271,3h-2.53c-.69,0-1,.23-1,.59s.32.63,1,.63H271c.67,0,1-.25,1-.63S271.62,3,271,3Zm-6.26,5.11V6.37h10.22V8.08h-4.78v2h-2.4v-2Zm8.1,1.94V8.4h3.56V1.24h2.38V10Zm25.74-8.53V9H285.16V1.49Zm-11,5.35h8.59V3.67h-8.59ZM299.29,11v2.2h-6.18V17h-2.54v-3.8H284.4V11Zm15.24-2v2.07H301V5.24h11V3.54H301v-2h13.37V7.23h-11V9Zm.6,5V16.2H300.24V14h3.11V11.61h2.4V14h3.89V11.61H312V14Z"/><rect class="cls-1" width="375" height="18"/></g></g></g></g></svg>