<svg xmlns="http://www.w3.org/2000/svg" width="242.224" height="84.98" viewBox="0 0 242.224 84.98">
  <defs>
    <style>
      .cls-1 {
        fill: #999;
      }
    </style>
  </defs>
  <g id="_6_txt01" data-name="6_txt01" transform="translate(-278.336 -4463.632)">
    <path id="패스_11169" data-name="패스 11169" d="M6.976-4.432v3.008A2.739,2.739,0,0,1,4.032,1.52,2.719,2.719,0,0,1,1.1-1.424V-4.432A2.736,2.736,0,0,1,4.032-7.408,2.756,2.756,0,0,1,6.976-4.432Zm-2,3.008V-4.192c0-.784-.24-1.312-.944-1.312-.688,0-.944.528-.944,1.312V-1.68c0,.832.272,1.328.944,1.328C4.64-.352,4.976-.768,4.976-1.424Zm8.08-10.416V1.984H11.04V-4.624H9.792V1.824H7.808v-13.6H9.792V-6.56H11.04v-5.28ZM7.184-10.416V-8.5H.8v-1.92H2.976v-1.952H5.024v1.952ZM23.472-7.888a3.863,3.863,0,0,1-4.144,3.936A3.85,3.85,0,0,1,15.2-7.888a3.854,3.854,0,0,1,4.128-3.952A3.867,3.867,0,0,1,23.472-7.888Zm-2.064,0a2.029,2.029,0,0,0-2.08-2.16,2.029,2.029,0,0,0-2.08,2.16,2.016,2.016,0,0,0,2.08,2.144A2.016,2.016,0,0,0,21.408-7.888ZM27.3-11.84V1.984H25.184V-11.84ZM24.272-.48V1.456H14.816V-.48H18.24V-3.312h2.128V-.48ZM41.536,1.984H39.52V-11.84h2.016ZM31.424-8.72v7.3c0,.752.352,1.1.9,1.1.56,0,.9-.352.9-1.1v-7.3c0-.752-.336-1.1-.9-1.1C31.776-9.824,31.424-9.472,31.424-8.72Zm-1.984,7.3v-7.3a2.746,2.746,0,0,1,2.88-3.056A2.769,2.769,0,0,1,35.232-8.72v2.16h1.216v-5.216h2v13.6h-2V-4.624H35.232v3.2A2.751,2.751,0,0,1,32.32,1.6,2.728,2.728,0,0,1,29.44-1.424ZM45.024,1.568c-.656-.32-1.312-.608-1.952-.928A25.14,25.14,0,0,0,45.76-11.7h2.128a38.421,38.421,0,0,1-.272,4.656A15.954,15.954,0,0,0,51.7.08L50.1,1.456a15.788,15.788,0,0,1-3.168-4.784A21.03,21.03,0,0,1,45.024,1.568Zm8.64-6.352h-3.9V-6.816h3.9V-11.84h2.112V1.984H53.664Zm9.2,6.352L60.912.64A25.14,25.14,0,0,0,63.6-11.7h2.128a38.421,38.421,0,0,1-.272,4.656A16.1,16.1,0,0,0,69.536.1l-1.6,1.36a15.788,15.788,0,0,1-3.168-4.784A21.03,21.03,0,0,1,62.864,1.568ZM73.616-11.84V1.984H71.5V-11.84Zm14.24,8.608V1.9h-11.5V-3.232Zm-4.848-8.384V-4.3H75.9v-7.312h2.032V-9.68h3.04v-1.936Zm4.848-.224v8.112H85.744v-3.28H83.568V-8.944h2.176v-2.9ZM78.48.144h7.264V-1.472H78.48Zm-.544-6.208h3.04V-7.936h-3.04Zm27.984.016V-4.1H93.888v-7.52h11.888v1.952h-9.76v3.616ZM106.448-.5V1.456H93.216V-.5h5.472V-3.408h2.24V-.5Zm3.264-7.744a1.714,1.714,0,0,0,1.76,1.824,1.717,1.717,0,0,0,1.776-1.824,1.713,1.713,0,0,0-1.776-1.808A1.709,1.709,0,0,0,109.712-8.24Zm-2.1,0a3.612,3.612,0,0,1,3.856-3.6,3.64,3.64,0,0,1,3.888,3.6,3.634,3.634,0,0,1-3.888,3.616A3.606,3.606,0,0,1,107.616-8.24Zm12.32-3.6v7.248h-2.112V-11.84Zm0,7.856V1.9h-11.5V-3.984h2.128V-2.8h7.28V-3.984ZM110.544.192h7.3V-1.1h-7.3Zm18.976-6c0,1.792-1.5,3.072-3.616,3.072-2.1,0-3.6-1.28-3.6-3.072,0-1.808,1.5-3.088,3.6-3.088C128.016-8.9,129.52-7.616,129.52-5.808Zm4.656,5.776V1.9H122.528V-2.224h2.112V-.032Zm1.5-7.872v2.016h-1.792v4.432H131.76V-11.84h2.128V-7.9Zm-5.552-3.216v1.728h-8.352V-11.12h3.04v-1.248h2.128v1.248Zm-2.64,5.312A1.457,1.457,0,0,0,125.9-7.264a1.435,1.435,0,0,0-1.568,1.456A1.408,1.408,0,0,0,125.9-4.4,1.431,1.431,0,0,0,127.488-5.808Zm13.776,7.376L139.312.64A25.14,25.14,0,0,0,142-11.7h2.128a38.421,38.421,0,0,1-.272,4.656A16.1,16.1,0,0,0,147.936.1l-1.6,1.36a15.788,15.788,0,0,1-3.168-4.784A21.03,21.03,0,0,1,141.264,1.568Zm10.464-6.176V1.984H149.6V-11.84h2.128v5.2h1.792v2.032ZM159.84-.544v1.92H154.3V-6.288h2.88V-9.68H154.3v-1.936h4.9v7.248h-2.88V-.544Zm1.184-1.84h-1.44V-4.4h1.44V-6.656H159.68V-8.672h1.344v-3.1h2.064v13.6h-2.064Zm5.232,4.368h-2.08V-11.84h2.08Zm1.76-7.184h13.232v1.888H168.016Zm12.7,5.168V1.9H168.688V-2.352h2.128v2.32Zm-12.032-6.56v-5.184h2.128v3.312h9.872v1.872Zm29.648-5.248v7.776h-2.112V-11.84ZM187.344,1.9,185.84.512a5.573,5.573,0,0,0,3.376-4.352l2.016.288a5.461,5.461,0,0,1-.384,1.584,5.462,5.462,0,0,0,1.728,1.7,5.508,5.508,0,0,0,1.888-3.568l2.032.288a5.8,5.8,0,0,1-.4,1.632A11.459,11.459,0,0,0,199.248.288L198.08,1.84a14.291,14.291,0,0,1-2.912-2.064,7.414,7.414,0,0,1-2.528,2.192,8.557,8.557,0,0,1-2.72-2.256A7.437,7.437,0,0,1,187.344,1.9Zm.768-10.144a1.714,1.714,0,0,0,1.76,1.824,1.717,1.717,0,0,0,1.776-1.824,1.713,1.713,0,0,0-1.776-1.808A1.709,1.709,0,0,0,188.112-8.24Zm-2.1,0a3.612,3.612,0,0,1,3.856-3.6,3.64,3.64,0,0,1,3.888,3.6,3.634,3.634,0,0,1-3.888,3.616A3.606,3.606,0,0,1,186.016-8.24Zm16.336,0a1.688,1.688,0,0,0,1.68,1.824,1.7,1.7,0,0,0,1.712-1.824,1.7,1.7,0,0,0-1.712-1.808A1.683,1.683,0,0,0,202.352-8.24Zm-2.1,0a3.562,3.562,0,0,1,3.776-3.6,3.59,3.59,0,0,1,3.808,3.6,3.6,3.6,0,0,1-3.808,3.616A3.575,3.575,0,0,1,200.256-8.24ZM201.584,1.9,200.08.512a5.573,5.573,0,0,0,3.376-4.352l2.016.288a5.461,5.461,0,0,1-.384,1.584,5.463,5.463,0,0,0,1.728,1.7A5.508,5.508,0,0,0,208.7-3.84l2.032.288a5.8,5.8,0,0,1-.4,1.632A11.459,11.459,0,0,0,213.488.288L212.32,1.84a14.292,14.292,0,0,1-2.912-2.064,7.414,7.414,0,0,1-2.528,2.192,8.557,8.557,0,0,1-2.72-2.256A7.437,7.437,0,0,1,201.584,1.9Zm8.88-13.744h2.112v7.776h-2.112V-7.28h-2.176V-9.232h2.176Zm4.4.224h7.68V-9.68H219.52a26.486,26.486,0,0,1-.288,3.456A15.6,15.6,0,0,0,223.344.112l-1.632,1.344A17.253,17.253,0,0,1,218.5-3.056a16.169,16.169,0,0,1-2.352,4.624L214.256.544A16.572,16.572,0,0,0,217.408-9.68h-2.544Zm11.952-.224V1.984H224.7V-11.84Zm9.5.224v7.584H229.1v-7.584Zm-5.184,5.824h3.152V-9.824h-3.152Zm9.92,5.76V1.9H229.408V-2.64h2.112V-.032Zm1.5-8.016v2.016h-1.792V-1.6H238.64V-11.84h2.128v3.792ZM14.56,13.88V15.9H12.768V19H10.64V11.16h2.128v2.72ZM3.5,11.16H5.632a11.29,11.29,0,0,1-.272,2.464A11.063,11.063,0,0,0,9.216,17L7.952,18.568a12.809,12.809,0,0,1-3.36-2.816A8.494,8.494,0,0,1,1.92,18.9L.336,17.528A7.272,7.272,0,0,0,3.5,11.16ZM9.456,25.128H4.864c-2.224,0-3.616-1.008-3.616-2.848,0-1.68,1.392-2.848,3.616-2.848H9.456c2.208,0,3.6,1.168,3.6,2.848C13.056,24.12,11.664,25.128,9.456,25.128ZM4.864,23.336H9.456c.848,0,1.424-.416,1.424-1.056,0-.624-.576-1.056-1.424-1.056H4.864c-.88,0-1.424.432-1.424,1.056C3.44,22.92,3.984,23.336,4.864,23.336Zm22.656-.784c0,1.68-1.264,2.576-3.52,2.576H18.88c-2.256,0-3.536-.9-3.536-2.576,0-1.616,1.28-2.592,3.536-2.592H24C26.256,19.96,27.52,20.936,27.52,22.552Zm-2.176,0c0-.576-.432-.912-1.456-.912H18.976c-.944,0-1.456.336-1.456.912,0,.544.448.9,1.456.9h4.912C24.912,23.448,25.344,23.1,25.344,22.552Zm-2.256-6.208H19.76V17.48h3.328Zm-5.424-.1a2.41,2.41,0,0,1-2.32-2.5c0-1.552,1.2-2.592,3.536-2.592H24c2.32,0,3.52,1.04,3.52,2.592a2.41,2.41,0,0,1-2.32,2.5V17.48h2.848v1.728H14.816V17.48h2.848ZM18.9,14.632h5.088c.976,0,1.36-.336,1.36-.88s-.384-.864-1.36-.864H18.9c-.912,0-1.392.32-1.392.864S17.92,14.632,18.9,14.632ZM37.328,17.24c0,1.808-1.472,3.088-3.68,3.088h-.16c-2.224,0-3.68-1.28-3.68-3.088,0-1.792,1.456-3.072,3.68-3.072h.16C35.856,14.168,37.328,15.448,37.328,17.24Zm-2.08,0a1.466,1.466,0,0,0-1.6-1.424h-.16a1.48,1.48,0,0,0-1.616,1.424,1.462,1.462,0,0,0,1.616,1.424h.16A1.448,1.448,0,0,0,35.248,17.24Zm6,1.152v6.592H39.12V11.16h2.128v5.2H43.04v2.032Zm-2.96,4.128v1.936H29.056V22.52h3.472V20.712h2.128V22.52Zm-.5-10.56V13.7H29.28V11.96h3.168V10.632h2.176V11.96ZM51.12,17.192c0,1.792-1.5,3.072-3.616,3.072-2.1,0-3.6-1.28-3.6-3.072,0-1.808,1.5-3.088,3.6-3.088C49.616,14.1,51.12,15.384,51.12,17.192Zm4.656,5.776V24.9H44.128V20.776H46.24v2.192Zm1.5-7.872v2.016H55.488v4.432H53.36V11.16h2.128V15.1ZM51.728,11.88v1.728H43.376V11.88h3.04V10.632h2.128V11.88Zm-2.64,5.312A1.457,1.457,0,0,0,47.5,15.736a1.435,1.435,0,0,0-1.568,1.456A1.408,1.408,0,0,0,47.5,18.6,1.431,1.431,0,0,0,49.088,17.192Zm12.576-5.808h6.848v1.152c0,3.536-2.688,6.368-6.5,7.184l-1.04-1.664c3.008-.576,5.056-2.432,5.344-4.816H61.664Zm11.952-.224V21.4H71.5V16.584H68.5V14.632H71.5V11.16Zm.3,11.808V24.9H62.112V20.36H64.24v2.608Zm12.7-11.584V24.376H79.5V11.384h2.048v4.128h3.024V11.384Zm4.544,7.008v6.592H89.04V11.16h2.128v5.2H92.96v2.032Zm-9.616,4.064h3.024V17.464H81.552ZM105.7,11.16V24.984h-2.112V11.16ZM95.632,15.448v4.88c0,1.552.624,2.272,1.744,2.272,1.136,0,1.76-.72,1.76-2.272v-4.88c0-1.536-.624-2.272-1.76-2.272C96.256,13.176,95.632,13.912,95.632,15.448ZM93.6,20.328v-4.88c0-2.736,1.5-4.224,3.776-4.224,2.3,0,3.808,1.488,3.808,4.224v4.88c0,2.72-1.5,4.192-3.808,4.192C95.1,24.52,93.6,23.048,93.6,20.328Zm26.416-8.944V20.1H108.128v-8.72h2.128v2.4h7.632v-2.4Zm-9.76,6.768h7.632V15.736h-7.632ZM120.688,22.5v1.952H107.456V22.5Zm1.616-11.12h6.688v3.344a10.667,10.667,0,0,1-5.92,9.664l-1.456-1.536a8.658,8.658,0,0,0,5.248-7.84v-1.7H122.3Zm11.584,7.008v6.592H131.76V11.16h2.128v5.2h1.792v2.032Zm7.424,6.176-1.92-.7c1.856-3.648,2.064-8.128,2.064-12.56h2.08c0,1.584-.048,3.216-.176,4.816a19.267,19.267,0,0,0,3.28,7.056V17.768h-1.984V15.832h1.984V11.224H148.7v13.6H146.64v-1.5l-1.664,1.056a17.119,17.119,0,0,1-2.192-4.128A18.831,18.831,0,0,1,141.312,24.568Zm10.7.416H149.9V11.16h2.112Zm10.928-13.76v13.6H160.88v-4.08h-1.728v-2h1.728V16.12h-1.6a11.17,11.17,0,0,1-3.856,8.32l-1.744-1.2a9.555,9.555,0,0,0,3.536-7.856V13.32H154.3V11.384h5.008V14.12h1.568v-2.9Zm3.312,13.76h-2.112V11.16h2.112ZM184.1,11.16V24.984h-2.112V11.16ZM177.184,14.1a6.1,6.1,0,0,1-.208.72,10.664,10.664,0,0,0,3.824,3.184c-.4.544-.816,1.072-1.248,1.616a12.648,12.648,0,0,1-3.52-2.864,8.968,8.968,0,0,1-2.976,2.976l-1.584-1.44a7.261,7.261,0,0,0,3.52-4.192h-2.848V12.2h2.912V10.632H177.2V12.2h3.008v1.9Zm3.888,8.416v1.936h-9.456V22.52h3.424V19.48h2.128v3.04Zm5.936-2.144-1.072-1.68a8.039,8.039,0,0,0,5.488-4.464h-4.9V12.28h4.72V10.632h2.288V12.28h4.88v1.952h-4.688a8.048,8.048,0,0,1-.416,1.088,11.257,11.257,0,0,0,5.712,2.96l-.944,1.76a13.123,13.123,0,0,1-5.856-3.008A10.352,10.352,0,0,1,187.008,20.376Zm12.08,2.128v1.952H185.856V22.5h5.472V19.48h2.24V22.5Z" transform="translate(278 4476)"/>
    <path id="패스_11595" data-name="패스 11595" class="cls-1" d="M.663.624V-1.4A2.491,2.491,0,0,1,1.924-3.848l1.9-1.235A1.812,1.812,0,0,0,4.693-6.7c0-.975-.416-1.469-1.4-1.469s-1.4.494-1.4,1.469H.663A2.306,2.306,0,0,1,3.289-9.256,2.3,2.3,0,0,1,5.915-6.7,2.712,2.712,0,0,1,4.537-4.186L2.665-2.977A1.594,1.594,0,0,0,1.872-1.43v.975H5.915V.624ZM11.232-1.859V-6.63c0-.975-.494-1.534-1.4-1.534s-1.4.559-1.4,1.534v4.771c0,.975.481,1.521,1.4,1.521S11.232-.884,11.232-1.859Zm1.222-4.888v5.005A2.372,2.372,0,0,1,9.828.754,2.372,2.372,0,0,1,7.2-1.742V-6.747A2.375,2.375,0,0,1,9.828-9.256,2.375,2.375,0,0,1,12.454-6.747ZM13.728.624V-1.4a2.491,2.491,0,0,1,1.261-2.444l1.9-1.235A1.812,1.812,0,0,0,17.758-6.7c0-.975-.416-1.469-1.4-1.469s-1.4.494-1.4,1.469H13.728a2.306,2.306,0,0,1,2.626-2.561A2.3,2.3,0,0,1,18.98-6.7,2.712,2.712,0,0,1,17.6-4.186L15.73-2.977a1.594,1.594,0,0,0-.793,1.547v.975H18.98V.624Zm8.736,0H21.242V-8.034h-1.1v-1.1h2.327ZM34.541-9.62v8.489H33.319V-5.239H29.393V-6.331h3.926v-.988H29.393V-8.4h3.926V-9.62ZM31.6-4.251v1.105H25.012v-6.24h1.222v5.135ZM34.788.39V1.482H25.376V-2.054H26.6V.39Zm8.047-6.11h1.222v3.185h1.092v1.092H44.057V.624H42.835V-1.443h-3.8v-.845l3.3-6.968h1.352L40.638-2.535h2.2Zm3.029,1.027V-5.759h7.475v1.066H49.465v1.482H48.243V-4.693Zm.858,2.86V-2.9h9.165V-.143H47.944V.533h8.19V1.612H46.722v-2.8h7.943v-.65ZM48.555-9.62h1.833c1.469,0,2.327.663,2.327,1.7S51.857-6.2,50.388-6.2H48.555c-1.469,0-2.327-.676-2.327-1.716S47.086-9.62,48.555-9.62Zm1.833,1.066H48.555c-.728,0-1.1.273-1.1.637s.377.637,1.1.637h1.833c.728,0,1.1-.273,1.1-.637S51.116-8.554,50.388-8.554Zm1.391,5.278V-4.342h2.886V-9.62h1.222v6.344Z" transform="translate(278 4547)"/>
    <path id="패스_11171" data-name="패스 11171" class="cls-1" d="M.962-1.066V-3.51A2.123,2.123,0,0,1,3.276-5.837,2.127,2.127,0,0,1,5.6-3.51v2.444a2.114,2.114,0,0,1-2.327,2.3A2.11,2.11,0,0,1,.962-1.066ZM6.89-4.979V-9.568H8.112V1.482H6.89V-3.887H5.85V-4.979ZM9.269,1.612V-9.62h1.222V1.612ZM2.184-3.51v2.444c0,.728.364,1.209,1.092,1.209S4.381-.338,4.381-1.066V-3.51c0-.741-.364-1.222-1.105-1.222S2.184-4.251,2.184-3.51ZM.715-7.176v-1.1h1.95V-10H3.887v1.716H5.863v1.1ZM22.438.533V1.612H13.026V-1.43h7.943v-.884H13.026V-3.393h9.165V-.377H14.248v.91ZM19.019-5.33v1.079H12.662v-3.12h4.147v-.923H12.662V-9.386h5.369v3.068H13.884v.988Zm3.172-4.29v5.655H20.969V-6.318H18.642V-7.4h2.327V-9.62ZM25.7-4.368h8.437v1.092H24.479v-6.11h9.529v1.105H25.7ZM34.619.013V1.118H23.868V.013ZM45.955,1.729H42.289c-1.833,0-2.925-.923-2.925-2.249s1.092-2.262,2.925-2.262h3.666c1.833,0,2.938.923,2.938,2.262S47.788,1.729,45.955,1.729ZM42.289.65h3.666C46.93.65,47.606.2,47.606-.52S46.93-1.7,45.955-1.7H42.289c-.975,0-1.651.455-1.651,1.183S41.314.65,42.289.65ZM48.646-9.62v6.435H47.424V-4.732H44.6V-5.837h2.821V-7.059h-2.7V-8.164h2.7V-9.62Zm-9.529.234h5.265v.663c0,2.678-2.184,4.758-5.226,5.187L38.623-4.55c2.535-.312,4.277-1.625,4.537-3.731H39.117Zm11.7,0h4.758v1.105H53.742a28.707,28.707,0,0,1-.169,2.873A15.953,15.953,0,0,0,56.225.169l-1,.7A17.074,17.074,0,0,1,53.17-3.081a15.25,15.25,0,0,1-1.729,4.355L50.323.793c1.651-2.665,2.171-5.525,2.2-9.074h-1.7Zm9.529,11H59.124V-9.62h1.222ZM57.837-9.568V1.482H56.615V-4.251H54.847V-5.343h1.768V-9.568Z" transform="translate(278 4528)"/>
  </g>
</svg>
