<svg xmlns="http://www.w3.org/2000/svg" width="240" height="79" viewBox="0 0 240 79"><defs><style>.cls-1{fill:#666;}.cls-2{fill:none;}</style></defs><title>txt_sec8_reward_info1</title><g id="Layer_2" data-name="Layer 2"><g id="Layer_1-2" data-name="Layer 1"><g id="_8_txt02" data-name=" 8 txt02"><path id="패스_11407" data-name="패스 11407" class="cls-1" d="M30.58,11.91V1.46h1.5V11.91ZM20.8,15.12V10.93h1.5v2.85H32.38v1.34ZM25.17,3.86a6.32,6.32,0,0,1-.26,1.28,9.94,9.94,0,0,0,4,3.38L28,9.67a13,13,0,0,1-3.72-3,8.34,8.34,0,0,1-3.44,3.47l-1.12-1a7,7,0,0,0,3.92-5.23H20.35V2.5h3.23V1h1.5V2.5h3.25V3.86ZM46.22,9h-1.5V3.11H34.5V1.75H46.22ZM47,10v1.36H41.12v4h-1.5v-4H33.75V10Zm13.4,3.78v1.32H48.5V11.48H58.72v-1H48.5V9.2H60.22v3.59H50v1ZM47.74,6.87H61V8.22H47.74ZM60.3,5.94H48.5V1.75H60.22V3.1H50V4.6H60.3ZM73.78,8.33v7h-1.5V1.46h1.5V7h2V8.32Zm-2.61,5v1.36H61.74V13.32h2.7V6.87h1.5v6.45Zm-1.46-2.55h-1.5V3.11H62.35V1.75h7.36ZM89.93,1.46h1.5V15.28h-1.5ZM80.25,10,79,8.9A7.88,7.88,0,0,0,82.88,4H79.71V2.66h3.23V1h1.5V2.66h3.28V4H84.44c-.08.3-.16.59-.27.9a11.25,11.25,0,0,0,4.15,3.81l-1,1.13a13.67,13.67,0,0,1-3.84-3.39A9.63,9.63,0,0,1,80.26,10ZM79.1,14.68V13.32h3.74V9.78h1.5v3.54h4.48v1.36Zm16-10.07v7.22c0,1.2.52,1.65,1.28,1.65s1.28-.45,1.28-1.65V4.61c0-1.2-.53-1.65-1.28-1.65S95.06,3.41,95.06,4.61Zm-1.5,7.22V4.61a2.65,2.65,0,0,1,2.3-3,2.43,2.43,0,0,1,.47,0,2.66,2.66,0,0,1,2.8,2.53,2.57,2.57,0,0,1,0,.48v7.21a2.67,2.67,0,0,1-2.31,3,2.57,2.57,0,0,1-.48,0,2.66,2.66,0,0,1-2.8-2.52,3.62,3.62,0,0,1,0-.47ZM105.44,1.46V15.28h-1.5V8.37h-1.81v6.75h-1.5V1.52h1.5V7h1.8V1.46Zm14.3,12.37v1.3H107.86V11.8h10.22v-.7H107.86V9.8h11.72v3.28H109.36v.75ZM107.1,7.76h13.23V9.08H107.1Zm12.64-2v1.3H107.86V3.76h10.22V3H107.86V1.74h11.72V5H109.36v.72ZM128.22,15l.5-3.68h-1.65l-.5,3.68h-1.5l.5-3.68H124V10h1.73l.43-3.17h-1.63V5.44h1.81l.51-3.7h1.5l-.51,3.7h1.65l.51-3.7h1.5L131,5.44h1.57V6.79h-1.74L130.42,10h1.64V11.3h-1.84l-.5,3.68Zm.69-5,.43-3.17H127.7L127.26,10Zm16.34-8.5V15.28h-1.5V8.37h-2.26v6.75H140V1.52h1.5V7h2.25V1.46ZM133.52,14.68V1.75H135V13.32h3.86v1.36Zm26-.9v1.34H147.66v-4h1.5v2.7Zm-.08-6.94h-5.26V8.68h5.93V10H146.91V8.68h5.79V6.84h-5V1.75h11.73V3.09H149.17V5.51h10.3Zm13.78-5.38V15.28h-1.5V8.37h-2.26v6.75H168V1.52h1.5V7h2.25V1.46ZM161.52,14.68V1.75H163V13.32h3.86v1.36Zm25.95-8.21H175.66V1.75h11.73V3.08H177.17V5.14h10.3ZM174.91,7.78h13.23V9.12H174.91Zm2.26,6h10.38v1.32H175.66V10.48h11.73V11.8H177.17ZM193,11.38v-2a3.25,3.25,0,0,1,3-3.46h.5a3.25,3.25,0,0,1,3.53,3,2.9,2.9,0,0,1,0,.51v2a3.26,3.26,0,0,1-3,3.45,4.13,4.13,0,0,1-.5,0A3.25,3.25,0,0,1,193,11.88,4.17,4.17,0,0,1,193,11.38ZM204.3,8.32v7h-1.5V1.46h1.5V7h2V8.32Zm-9.77,1.11v2a1.87,1.87,0,0,0,1.62,2.09,1.89,1.89,0,0,0,.41,0,1.9,1.9,0,0,0,2-2.1v-2A1.9,1.9,0,0,0,197,7.32a1.78,1.78,0,0,0-.4,0,1.88,1.88,0,0,0-2,1.71A2.67,2.67,0,0,0,194.53,9.43Zm6-5h-8V3.11h3.2V1h1.5V3.11h3.26Zm6.33-1.36V1.75h7.35V3.11h-3.14A26.76,26.76,0,0,1,210.75,7a15.24,15.24,0,0,0,4.3,6.75l-1.13.93a17.12,17.12,0,0,1-3.7-5.26,16.88,16.88,0,0,1-2.59,5.45l-1.36-.7c2.43-3.28,3.25-6.9,3.31-11.06Zm9.92-1.65h1.5V7h2V8.32h-2v7h-1.5Z"/><path id="패스_11363" data-name="패스 11363" d="M41.45,51.17V32.69h5.88c3.6,0,5.4,2,5.4,4.9a4.4,4.4,0,0,1-2.16,4.1c1.7.81,2.5,2.16,2.5,4.41,0,3-2,5.07-5.4,5.07Zm4.1-3.82h1.32c1.46,0,2.08-.74,2.08-1.92s-.74-1.8-2.08-1.8H45.55Zm1.3-10.82h-1.3v3.26h1.22a1.62,1.62,0,0,0,1.84-1.37,1.82,1.82,0,0,0,0-.33C48.62,37,47.93,36.53,46.85,36.53ZM60.34,46.65h4.1c-.12,3-2.33,4.73-5.5,4.73s-5.41-1.58-5.41-4.49V41.71c0-2.93,2.26-4.51,5.41-4.51s5.42,1.58,5.42,4.51v4.2H57.64v.65c0,.79.46,1.1,1.3,1.1S60.24,47.35,60.34,46.65ZM57.65,42v.53h2.61V42c0-.79-.41-1.06-1.32-1.06S57.65,41.21,57.65,42Zm8.06,4.9V41.71c0-2.83,2-4.51,5.4-4.51s5.42,1.68,5.42,4.51v5.18c0,2.81-2,4.49-5.42,4.49s-5.4-1.68-5.4-4.49Zm4.1-4.63v4.08c0,.76.41,1.22,1.3,1.22s1.32-.46,1.32-1.22V42.27c0-.8-.41-1.23-1.32-1.23s-1.29.43-1.29,1.22Zm19.8-3.39c0,4-2,6.22-6.1,6.22H82.19v6.07h-4.1V32.69h5.42c4.07,0,6.11,2.25,6.11,6.18Zm-4.13,0c0-1.68-.74-2.35-2.21-2.35H82.19v4.72h1.08c1.47,0,2.21-.67,2.21-2.38Zm5.16,9.36v-16h4.1V46.44c0,.67.22.91,1,.91v3.82c-3.28.45-5.1-.12-5.1-2.93Zm16.42-6.77v9.7h-3.67l-.12-.74a4.45,4.45,0,0,1-2.69.84c-2.44,0-4.08-1-4.34-3.5-.31-2.78,1.73-4.49,4.7-5a11.85,11.85,0,0,1,2.06-.17v-.7c0-.6-.36-.91-1.08-.91s-1.17.38-1.12,1.1h-4c-.22-3,1.56-4.9,5.13-4.9S107.06,38.87,107.06,41.47ZM103,46a4.59,4.59,0,0,0-2.07.34.9.9,0,0,0-.7.81c0,.32.32.39.75.36,1.11-.12,2-.74,2-1.51Zm8.66,5,0-.07-3.84-13.44h4.2l.79,3.45.84,5,.6-4.94.62-3.48h4.23l-3.89,15.33a3.17,3.17,0,0,1-3.46,2.47H109.2V51.38H111a.61.61,0,0,0,.67-.45Zm25.51-12.06c0,4-2,6.22-6.1,6.22h-1.31v6.08h-4.11V32.69h5.42C135.14,32.69,137.18,34.94,137.18,38.87Zm-4.12,0c0-1.68-.75-2.35-2.21-2.35h-1.08v4.73h1.08C132.31,41.25,133.06,40.58,133.06,38.87Zm5.06,12.3V46.29a4,4,0,0,1,1.61-3.6l4.2-3.19a2.1,2.1,0,0,0,.7-1.63c0-1-.41-1.58-1.2-1.58s-1.2.64-1.2,1.8h-4.1c0-3.87,2.16-5.64,5.3-5.64s5.3,1.77,5.3,5.42c0,2.14-.6,3.86-2.07,4.92l-3.88,2.83a1.34,1.34,0,0,0-.56,1v.72h6.5v3.82Zm22.27-14.64V48.24c0,1.13.41,1.34,1.75,1.34v3.84c-4.3,0-5.85-1.13-5.85-4.94V36.29c0-3.84,1.56-5,5.85-5v3.84C160.8,35.16,160.39,35.4,160.39,36.53Zm3,14.64V46.29a4,4,0,0,1,1.61-3.6l4.2-3.19a2.1,2.1,0,0,0,.7-1.63c0-1-.41-1.58-1.2-1.58s-1.2.64-1.2,1.8h-4.1c0-3.87,2.16-5.64,5.3-5.64s5.3,1.77,5.3,5.42c0,2.14-.6,3.86-2.07,4.92L168,45.62a1.33,1.33,0,0,0-.55,1v.72H174v3.82Zm26,1.8h-7.47c-3.26,0-5.4-1.8-5.4-4.37s2.14-4.42,5.4-4.42h7.47c3.26,0,5.4,1.8,5.4,4.42S192.67,53,189.41,53Zm-2.26-20.74V42.84H176.3V32.23Zm.67,9.58V38.18h2.66V37h-2.66V33.33h2.66V32h4.1V43.77h-4.1v-2Zm-5.88,7.77h7.47c.76,0,1.22-.43,1.22-1a1.07,1.07,0,0,0-1.12-1h-7.57c-.79,0-1.22.45-1.22,1S181.15,49.58,181.94,49.58Zm-1.8-10h3.17V35.49h-3.17Zm18.44,8.67V36.53c0-1.13-.41-1.37-1.78-1.37V31.32c4.3,0,5.88,1.13,5.88,5V48.47c0,3.82-1.59,5-5.88,5V49.58C198.17,49.58,198.58,49.37,198.58,48.24Z"/><path id="패스_11361" data-name="패스 11361" class="cls-1" d="M89.75,76.22v-11h3.68c2.55,0,3.83,1.08,3.83,3.22a2.82,2.82,0,0,1-2,2.83v.08L98,76.22H95.85L93.4,71.79H91.72v4.43Zm2-5.79h1.5A2.12,2.12,0,0,0,94.75,70a1.92,1.92,0,0,0,.47-1.44,1.67,1.67,0,0,0-.48-1.34,2.33,2.33,0,0,0-1.53-.42H91.72Zm10.77,5.93a3.76,3.76,0,0,1-2.89-1.08,4.18,4.18,0,0,1-1-3V72A4.21,4.21,0,0,1,99.66,69a4.28,4.28,0,0,1,5.72,0,4.25,4.25,0,0,1,1,3v.23a4.25,4.25,0,0,1-1.07,3.06A3.75,3.75,0,0,1,102.49,76.36Zm0-1.39c1.3,0,2-.87,2-2.62V72a3.15,3.15,0,0,0-.53-2.11,1.83,1.83,0,0,0-1.47-.61,1.78,1.78,0,0,0-1.48.67,3.23,3.23,0,0,0-.52,2v.39a3.15,3.15,0,0,0,.55,2.1,1.91,1.91,0,0,0,1.5.61Zm6.11,3.62a2.3,2.3,0,0,1-1.2-.27V77.08a3.11,3.11,0,0,0,.8.08,1.91,1.91,0,0,0,1-.2,1.46,1.46,0,0,0,.57-.77l.22-.58L106.89,68h2l2.08,5.34H111L112.91,68h1.77l-3.18,8.46a3.38,3.38,0,0,1-1.06,1.66A3,3,0,0,1,108.63,78.59Zm9.1-2.23a2.7,2.7,0,0,1-1.83-.58,2.16,2.16,0,0,1-.69-1.75c0-1.39.88-2.21,2.64-2.47l1.94-.22v-.62a1.25,1.25,0,0,0-.41-1.1,2.71,2.71,0,0,0-1.48-.28,9,9,0,0,0-2,.22V68.3a7.4,7.4,0,0,1,2.72-.45c2,0,3,.82,3,2.45v5.92h-1.52l-.14-.67h-.1a2.71,2.71,0,0,1-2.13.81Zm.56-1.3a2.09,2.09,0,0,0,1.5-.48v-2l-1.52.16a1.49,1.49,0,0,0-.94.34,1.17,1.17,0,0,0-.31.9,1,1,0,0,0,.35.84,1.35,1.35,0,0,0,.93.29Zm5.1,1.16V64.52h1.87v11.7Zm7.7,0v-11h3.84c2.41,0,3.62.93,3.62,2.77a2.33,2.33,0,0,1-1.79,2.4v0a2.45,2.45,0,0,1,2.27,2.6v0a2.87,2.87,0,0,1-1,2.28,4.15,4.15,0,0,1-2.84.86Zm2-1.47h1.89c1.35,0,2-.59,2-1.78a1.54,1.54,0,0,0-.54-1.33,2.6,2.6,0,0,0-1.6-.41h-1.78Zm0-4.83h1.54c1.34,0,2-.55,2-1.64a1.45,1.45,0,0,0-.48-1.22,2.41,2.41,0,0,0-1.46-.36h-1.62Zm7.41,6.3V64.52h1.85v11.7Zm6.13.14c-1.67,0-2.5-.8-2.5-2.4V68h1.84v5.63a1.27,1.27,0,0,0,.3,1,1.5,1.5,0,0,0,1,.3,4.72,4.72,0,0,0,1.84-.5V68H151v8.24h-1.6l-.16-.72h-.08A4.24,4.24,0,0,1,146.59,76.36Zm9.74,0a4,4,0,0,1-3.05-1.08,4.32,4.32,0,0,1-1-3.08V72a4.13,4.13,0,0,1,1.06-3.06A3.68,3.68,0,0,1,156,67.85a3.31,3.31,0,0,1,2.64,1,4.58,4.58,0,0,1,.84,3v.76h-5.37a2.45,2.45,0,0,0,.71,1.79,2.78,2.78,0,0,0,1.85.53,5.49,5.49,0,0,0,2.54-.6V75.6a5.23,5.23,0,0,1-2.91.76ZM156,69.21q-1.69,0-1.86,2.13h3.5a2.58,2.58,0,0,0-.4-1.63A1.54,1.54,0,0,0,156,69.21Z"/></g><rect class="cls-2" width="240" height="79"/></g></g></svg>