<svg xmlns="http://www.w3.org/2000/svg" width="460" height="84" viewBox="0 0 460 84"><defs><style>.cls-1{fill:#fff;}.cls-2{fill:none;}</style></defs><title>txt_sec3_title_w460</title><g id="Layer_2" data-name="Layer 2"><g id="Layer_1-2" data-name="Layer 1"><g id="_4_tit" data-name=" 4 tit"><path id="패스_11225" data-name="패스 11225" class="cls-1" d="M143.4,7.63h-3.91L140.34,3h-6.9l-.85,4.59h-4.35L129.09,3h-6.9l-.85,4.59h-4.46l-1.22,6.66h4.45l-1.29,7.08h-4.45L113.14,28h4.45l-.85,4.59h6.9l.85-4.59h4.36L128,32.62h6.9l.85-4.59h3.91l1.22-6.66H137l1.3-7.08h3.91ZM127,14.29h4.35l-1.29,7.08h-4.35ZM176.38,2h-6.29V13.41h-1.7V2H162.1V33h6.29V20.21h1.7V33h6.29ZM152.24,25.07V3H145.1V33l15.64-2.38v-6.8Zm36-15.4V7.8H209.7V2.7H180.46V14.77h10.71v1.36H179.44v5.44h31.28V16.13H199V14.77H209.7V9.67Zm0,18.7V22.93h-7.82V33.64H209.7V28.37ZM244.38,2h-6.29V13.41h-1.7V2H230.1V33h6.29V20.21h1.7V33h6.29ZM220.24,25.07V3H213.1V33l15.64-2.38v-6.8Zm28.22-2.82V33.64H277.7v-5H256.28V27.35H277.7v-5.1Zm7.82-13.09V7.63H277.7V2.7H248.46V14.09H277.7V9.16Zm-8.84,6.29v5.44h31.28V15.45Zm54.06,6.46c0-6.9-3-11.39-10-11.39s-10,4.49-10,11.39,3,11.39,10,11.39S301.5,28.81,301.5,21.91ZM311,13.07V2H303.2V33H311V20.55h2.72V13.07ZM295.38,3.72V1h-7.82V3.72h-6.12V9.84H301.5V3.72ZM294,21.91c0,3.6-.75,4.93-2.55,4.93s-2.55-1.33-2.55-4.93.75-4.93,2.55-4.93S294,18.31,294,21.91ZM315.44,3v18l20.06-1.7V18h3.06v5.78h7.82V2h-7.82V4.74H335.5V3Zm0,19.38V34h30.94V27.52H323.26v-5.1ZM322.75,9.5h5.44v4.05l-5.44.44Zm12.75.68h3.06v2.38H335.5ZM66.07,50H58.25v4.76H54.41c-1.16-3.33-4.52-5.1-9.93-5.1-6.8,0-10.37,2.79-10.37,8s3.57,8,10.37,8c5,0,8.3-1.5,9.66-4.42h4.11V66h7.82ZM43.63,77.56v-1H66.07V67H35.13v4.42H57.57v1H35.13V82H66.07V77.56Zm.85-17.68c-2.72,0-3.57-.82-3.57-2.21s.85-2.21,3.57-2.21,3.57.82,3.57,2.21-.85,2.21-3.57,2.21ZM69.13,51V81l19.72-2.35V51Zm29.58,10V50H90.89V81h7.82V68.55h2.72V61.07ZM76.61,57.5h4.76V73.07l-4.76.55ZM111,73.24V51h-7.82V81l20.06-2.38v-6.8Zm21.76-12.17V50h-7.82V81h7.82V68.55h2.72V61.07Zm5.1,21.59h4.76l1.7-8.7h-6.46Zm15-15c0,9.62,2.79,13.6,10,13.6,7.07,0,9.89-3.81,10-12.92h3V81h7.82V50h-7.82V61.24h-3.17c-.57-7.41-3.46-10.54-9.89-10.54-7.24,0-10,4-10,13.6Zm12.58-.34c0,6.19-.68,7.48-2.55,7.48s-2.55-1.29-2.55-7.48V64.64c0-6.19.68-7.48,2.55-7.48s2.55,1.29,2.55,7.48Zm53,10.2c0-3.4-2.72-4.93-16.15-4.93s-16.15,1.53-16.15,4.93,2.72,4.93,16.15,4.93,16.14-1.53,16.14-4.93Zm-12.24-10.2v-1.7H198.3v1.7H186.4V72H218V67.36ZM193.2,59.27V56.65h3.23V51h-10V65.32l10-.65V59.06ZM218,50h-7.15v4.76h-2.72v6.46h2.72V66H218Zm-13.77,8.53v-1.9h3.23V51h-10V64.61l10-.65V58.35Zm6.29,19c0,.61-.51.85-8.33.85s-8.33-.24-8.33-.85.51-.85,8.33-.85,8.32.24,8.32.85ZM244.2,50h-6.13V61.41H236c0-1.36,0-2.79,0-4.25V51H220.39v6.8h8.5c0,4.18-.13,7.85-.41,11.56A102.39,102.39,0,0,1,226.85,81H234a101.39,101.39,0,0,0,1.67-11.9,8.12,8.12,0,0,1,.07-.85h2.34V81h6.12Zm7.48,0h-6.12V81h6.11ZM264.25,81l20.06-2.38V51h-7.48v8.5h-5.1V51h-7.48Zm29.58-19.89V50H286V81h7.82V68.55h2.72V61.07ZM271.73,66h5.1v7l-5.1.61Zm57.8-16h-7.14V81h7.14Zm-32,18.36v6.8h7.82V82h7.48v-6.8h7.82v-6.8ZM309,51h-11v6.8h3.37L300.6,67h7.14Zm11.73,0H310v6.8h3L312.33,67h7.14Zm19.38,22.2V51h-7.82V81l20.06-2.38v-6.8Zm21.76-12.17V50H354V81h7.82V68.55h2.72V61.07Zm35-1.19c0-6.39-4.62-9.86-15-9.86s-15,3.47-15,9.86,4.62,9.86,15,9.86,15-3.47,15-9.86ZM384.78,74.16H379v-3.4h-7.82v3.4h-4.93V81h31.28v-6.8H392.6v-3.4h-7.82Zm4.59-14.28c0,2.38-1.56,3.4-7.48,3.4s-7.48-1-7.48-3.4,1.57-3.4,7.48-3.4,7.48,1,7.48,3.4Zm22.71,2.65c-2.61,0-3.4,1-3.4,3.4v6.33h7.59V69.09c6.49-.91,9.15-4.21,9.15-9.24,0-6-3.88-9.49-12.58-9.49s-12.58,3.54-12.58,9.15v.57h7.85v-.57c0-1.74,1.5-2.35,4.73-2.35s4.72.61,4.72,2.69-1.32,2.68-5.23,2.68Zm4.19,18.09V74h-7.58v6.66Z"/></g><rect class="cls-2" width="460" height="84"/></g></g></svg>