<svg xmlns="http://www.w3.org/2000/svg" width="240" height="79" viewBox="0 0 240 79"><defs><style>.cls-1{fill:#666;}.cls-2{fill:none;}</style></defs><title>txt_sec8_reward_info2_w240</title><g id="Layer_2" data-name="Layer 2"><g id="Layer_1-2" data-name="Layer 1"><g id="_8_txt02" data-name=" 8 txt02"><path id="패스_11407" data-name="패스 11407" class="cls-1" d="M30.58,11.91V1.46h1.5V11.91ZM20.8,15.13V10.94h1.5v2.84H32.38v1.35ZM25.17,3.86a6.06,6.06,0,0,1-.26,1.28,9.94,9.94,0,0,0,4,3.38L28,9.67a12.84,12.84,0,0,1-3.72-3,8.28,8.28,0,0,1-3.44,3.47l-1.12-1a7.06,7.06,0,0,0,3.92-5.24H20.35V2.5h3.23V1h1.5V2.5h3.25V3.86ZM46.22,9h-1.5V3.11H34.5V1.75H46.22ZM47,10v1.36H41.12v4h-1.5v-4H33.75V10Zm13.4,3.78v1.33H48.5V11.48H58.72v-.94H48.5V9.2H60.22v3.59H50v1ZM47.74,6.88H61V8.22H47.74ZM60.3,6H48.5V1.76H60.22V3.1H50V4.6H60.3ZM73.78,8.33v7h-1.5V1.46h1.5V7h2V8.33Zm-2.61,5v1.36H61.74V13.32h2.7V6.87h1.5v6.45Zm-1.46-2.54h-1.5V3.11H62.35V1.75h7.36ZM89.93,1.46h1.5V15.29h-1.5ZM80.25,10,79,8.9A7.85,7.85,0,0,0,82.88,4H79.71V2.66h3.23V1h1.5V2.67h3.28V4H84.44c-.08.3-.16.6-.27.9a11.25,11.25,0,0,0,4.15,3.81l-1,1.14a13.83,13.83,0,0,1-3.84-3.39A9.6,9.6,0,0,1,80.26,10ZM79.1,14.68V13.32h3.74V9.78h1.5v3.54h4.48v1.36Zm16-10.06v7.21c0,1.2.52,1.65,1.28,1.65s1.28-.45,1.28-1.65V4.62c0-1.2-.53-1.65-1.28-1.65S95.06,3.42,95.06,4.62Zm-1.5,7.21V4.62a2.66,2.66,0,0,1,2.3-3,3.62,3.62,0,0,1,.47,0,2.67,2.67,0,0,1,2.8,2.53,2.57,2.57,0,0,1,0,.48v7.22a2.67,2.67,0,0,1-2.31,3,2.57,2.57,0,0,1-.48,0,2.66,2.66,0,0,1-2.8-2.52,3.77,3.77,0,0,1,0-.47ZM105.44,1.46V15.29h-1.5V8.38h-1.81v6.75h-1.5V1.53h1.5V7h1.8V1.46Zm14.3,12.37v1.3H107.86V11.8h10.22v-.7H107.86V9.8h11.72v3.28H109.36v.75ZM107.1,7.77h13.23V9.08H107.1Zm12.64-2v1.3H107.86V3.77h10.22V3.05H107.86V1.75h11.72v3.3H109.36v.72ZM128.22,15l.5-3.68h-1.65l-.5,3.68h-1.5l.5-3.68H124V10h1.73l.43-3.17h-1.63V5.45h1.81l.51-3.7h1.5l-.51,3.7h1.65l.51-3.7h1.5L131,5.45h1.57V6.79h-1.74L130.42,10h1.64V11.3h-1.84l-.5,3.68Zm.69-5,.43-3.17H127.7L127.26,10Zm16.34-8.5V15.29h-1.5V8.38h-2.26v6.75H140V1.53h1.5V7h2.25V1.46ZM133.52,14.68V1.75H135V13.32h3.86v1.36Zm26-.9v1.35H147.66V11.08h1.5v2.7Zm-.08-6.94h-5.26V8.68h5.93V10H146.91V8.68h5.79V6.84h-5V1.75h11.73V3.1H149.17V5.51h10.3Zm13.78-5.38V15.29h-1.5V8.38h-2.26v6.75H168V1.53h1.5V7h2.25V1.46ZM161.52,14.68V1.75H163V13.32h3.86v1.36Zm25.95-8.21H175.66V1.75h11.73V3.08H177.17V5.14h10.3ZM174.91,7.78h13.23V9.13H174.91Zm2.26,6h10.38v1.33H175.66V10.49h11.73V11.8H177.17ZM193,11.38v-2a3.26,3.26,0,0,1,3-3.46,2.8,2.8,0,0,1,.5,0,3.25,3.25,0,0,1,3.53,2.95,2.79,2.79,0,0,1,0,.5v2a3.25,3.25,0,0,1-3,3.45,2.77,2.77,0,0,1-.5,0A3.24,3.24,0,0,1,193,11.88,4.17,4.17,0,0,1,193,11.38ZM204.3,8.33v7h-1.5V1.46h1.5V7h2V8.33Zm-9.77,1.1v2a2.05,2.05,0,0,0,4.07.42,2,2,0,0,0,0-.42v-2A1.89,1.89,0,0,0,197,7.33a1.77,1.77,0,0,0-.4,0,1.89,1.89,0,0,0-2,1.71A2.64,2.64,0,0,0,194.53,9.43Zm6-5h-8V3.11h3.2V1h1.5V3.12h3.26Zm6.33-1.36V1.75h7.35V3.11h-3.14A26.52,26.52,0,0,1,210.75,7a15.27,15.27,0,0,0,4.3,6.76l-1.13.92a17,17,0,0,1-3.7-5.26,16.68,16.68,0,0,1-2.59,5.45l-1.36-.7c2.43-3.28,3.25-6.9,3.31-11Zm9.92-1.65h1.5V7h2V8.33h-2v7h-1.5Z"/><path id="패스_11363" data-name="패스 11363" d="M41.45,51.17V32.69h5.88c3.6,0,5.4,2,5.4,4.9a4.38,4.38,0,0,1-2.16,4.1c1.7.82,2.5,2.16,2.5,4.42,0,3-2,5.06-5.4,5.06Zm4.1-3.82h1.32c1.46,0,2.08-.74,2.08-1.92s-.74-1.8-2.08-1.8H45.55Zm1.3-10.82h-1.3v3.26h1.22a1.62,1.62,0,0,0,1.84-1.37,1.82,1.82,0,0,0,0-.33C48.62,37,47.93,36.53,46.85,36.53ZM60.34,46.66h4.1c-.12,3-2.33,4.73-5.5,4.73s-5.41-1.59-5.41-4.49V41.71c0-2.92,2.26-4.51,5.41-4.51s5.42,1.59,5.42,4.51v4.2H57.64v.65c0,.79.46,1.1,1.3,1.1S60.24,47.35,60.34,46.66ZM57.65,42v.53h2.61V42c0-.79-.41-1-1.32-1S57.65,41.21,57.65,42Zm8.06,4.9V41.71c0-2.83,2-4.51,5.4-4.51s5.42,1.68,5.42,4.51V46.9c0,2.81-2,4.49-5.42,4.49s-5.4-1.68-5.4-4.49Zm4.1-4.63v4.08c0,.77.41,1.22,1.3,1.22s1.32-.45,1.32-1.22V42.27c0-.79-.41-1.22-1.32-1.22s-1.29.43-1.29,1.22Zm19.8-3.38c0,4-2,6.21-6.1,6.21H82.19v6.07h-4.1V32.69h5.42c4.07,0,6.11,2.26,6.11,6.19Zm-4.13,0c0-1.68-.74-2.36-2.21-2.36H82.19v4.73h1.08c1.47,0,2.21-.67,2.21-2.38Zm5.16,9.36v-16h4.1V46.44c0,.67.22.91,1,.91v3.82c-3.28.46-5.1-.12-5.1-2.93Zm16.42-6.77v9.7h-3.67l-.12-.75a4.39,4.39,0,0,1-2.69.84c-2.44,0-4.08-1-4.34-3.5-.31-2.78,1.73-4.48,4.7-5a12.91,12.91,0,0,1,2.06-.17v-.7c0-.6-.36-.91-1.08-.91s-1.17.39-1.12,1.1h-4c-.22-3,1.56-4.9,5.13-4.9S107.06,38.88,107.06,41.48ZM103,46a4.58,4.58,0,0,0-2.07.33.9.9,0,0,0-.7.82c0,.31.32.38.75.36,1.11-.13,2-.75,2-1.52Zm8.66,5,0-.07-3.84-13.44h4.2l.79,3.46.84,5,.6-5,.62-3.48h4.23l-3.89,15.33a3.18,3.18,0,0,1-3.46,2.48H109.2V51.39H111a.62.62,0,0,0,.67-.46Zm25.51-12c0,4-2,6.21-6.1,6.21h-1.31v6.08h-4.11V32.69h5.42C135.14,32.69,137.18,35,137.18,38.88Zm-4.12,0c0-1.68-.75-2.35-2.21-2.35h-1.08v4.73h1.08C132.31,41.26,133.06,40.59,133.06,38.88Zm5.06,12.29V46.3a4,4,0,0,1,1.61-3.6l4.2-3.19a2.11,2.11,0,0,0,.7-1.64c0-1-.41-1.58-1.2-1.58s-1.2.65-1.2,1.8h-4.1c0-3.86,2.16-5.64,5.3-5.64s5.3,1.78,5.3,5.42c0,2.14-.6,3.87-2.07,4.92l-3.88,2.84a1.3,1.3,0,0,0-.56,1v.72h6.5v3.82Zm22.27-14.64V48.24c0,1.13.41,1.35,1.75,1.35v3.84c-4.3,0-5.85-1.13-5.85-5V36.29c0-3.84,1.56-5,5.85-5v3.84C160.8,35.16,160.39,35.4,160.39,36.53Zm3,14.64V46.3A4,4,0,0,1,165,42.7l4.2-3.19a2.11,2.11,0,0,0,.7-1.64c0-1-.41-1.58-1.2-1.58s-1.2.65-1.2,1.8h-4.1c0-3.86,2.16-5.64,5.3-5.64s5.3,1.78,5.3,5.42c0,2.14-.6,3.87-2.07,4.92L168,45.63a1.29,1.29,0,0,0-.55,1v.72H174v3.82Zm26,1.8h-7.47c-3.26,0-5.4-1.8-5.4-4.37s2.14-4.41,5.4-4.41h7.47c3.26,0,5.4,1.8,5.4,4.41S192.67,53,189.41,53Zm-2.26-20.74V42.84H176.3V32.23Zm.67,9.58V38.19h2.66V37h-2.66V33.34h2.66V32h4.1V43.78h-4.1v-2Zm-5.88,7.78h7.47c.76,0,1.22-.44,1.22-1a1.08,1.08,0,0,0-1.12-1h-7.57c-.79,0-1.22.46-1.22,1S181.15,49.59,181.94,49.59Zm-1.8-10h3.17V35.5h-3.17Zm18.44,8.66V36.53c0-1.13-.41-1.37-1.78-1.37V31.32c4.3,0,5.88,1.13,5.88,5V48.48c0,3.81-1.59,4.94-5.88,4.94V49.59C198.17,49.59,198.58,49.37,198.58,48.24Z"/><path id="패스_11361" data-name="패스 11361" class="cls-1" d="M89.75,76.22v-11h3.68q3.82,0,3.83,3.21a2.82,2.82,0,0,1-2,2.83v.08L98,76.22H95.85L93.4,71.79H91.72v4.43Zm2-5.79h1.5A2.16,2.16,0,0,0,94.75,70a2,2,0,0,0,.47-1.44,1.69,1.69,0,0,0-.48-1.35,2.32,2.32,0,0,0-1.53-.41H91.72Zm10.77,5.94a3.84,3.84,0,0,1-2.89-1.08,4.22,4.22,0,0,1-1-3V72A4.21,4.21,0,0,1,99.66,69a4.28,4.28,0,0,1,5.72,0,4.28,4.28,0,0,1,1,3v.22a4.23,4.23,0,0,1-1.07,3.06A3.76,3.76,0,0,1,102.49,76.37Zm0-1.4c1.3,0,2-.87,2-2.62V72a3.16,3.16,0,0,0-.53-2.11,1.87,1.87,0,0,0-1.47-.61,1.78,1.78,0,0,0-1.48.67,3.26,3.26,0,0,0-.52,2v.38a3.14,3.14,0,0,0,.55,2.1,1.88,1.88,0,0,0,1.5.61Zm6.11,3.62a2.21,2.21,0,0,1-1.2-.27V77.09a4.34,4.34,0,0,0,.8.08,2,2,0,0,0,1-.21,1.38,1.38,0,0,0,.57-.77l.22-.58L106.89,68h2l2.08,5.34H111L112.91,68h1.77l-3.18,8.47a3.35,3.35,0,0,1-1.06,1.65A2.9,2.9,0,0,1,108.63,78.59Zm9.1-2.22a2.76,2.76,0,0,1-1.83-.59,2.14,2.14,0,0,1-.69-1.75q0-2.09,2.64-2.46l1.94-.23v-.62a1.26,1.26,0,0,0-.41-1.1,2.71,2.71,0,0,0-1.48-.28,9,9,0,0,0-2,.22V68.3a7.4,7.4,0,0,1,2.72-.45c2,0,3,.82,3,2.45v5.92h-1.52l-.14-.67h-.1a2.68,2.68,0,0,1-2.13.82Zm.56-1.3a2.1,2.1,0,0,0,1.5-.49v-2l-1.52.16a1.61,1.61,0,0,0-.94.34,1.19,1.19,0,0,0-.31.9,1.06,1.06,0,0,0,.35.85,1.39,1.39,0,0,0,.93.28Zm5.1,1.15V64.52h1.87v11.7Zm7.7,0v-11h3.84q3.62,0,3.62,2.76a2.33,2.33,0,0,1-1.79,2.4v0A2.45,2.45,0,0,1,139,73.07v0a2.88,2.88,0,0,1-1,2.28,4.2,4.2,0,0,1-2.84.85Zm2-1.47h1.89c1.35,0,2-.59,2-1.78a1.54,1.54,0,0,0-.54-1.33,2.6,2.6,0,0,0-1.6-.41h-1.78Zm0-4.83h1.54c1.34,0,2-.55,2-1.63a1.47,1.47,0,0,0-.48-1.23,2.41,2.41,0,0,0-1.46-.36h-1.62Zm7.41,6.3V64.52h1.85v11.7Zm6.13.15c-1.67,0-2.5-.8-2.5-2.4V68h1.84v5.63a1.31,1.31,0,0,0,.3,1,1.49,1.49,0,0,0,1,.29,4.72,4.72,0,0,0,1.84-.5V68H151v8.24h-1.6l-.16-.72h-.08A4.25,4.25,0,0,1,146.59,76.37Zm9.74,0a4,4,0,0,1-3.05-1.09,4.3,4.3,0,0,1-1-3.07V72a4.14,4.14,0,0,1,1.06-3.06A3.72,3.72,0,0,1,156,67.85a3.31,3.31,0,0,1,2.64,1,4.54,4.54,0,0,1,.84,3v.77h-5.37a2.43,2.43,0,0,0,.71,1.78,2.84,2.84,0,0,0,1.85.54,5.63,5.63,0,0,0,2.54-.61V75.6a5.23,5.23,0,0,1-2.91.77ZM156,69.21q-1.69,0-1.86,2.13h3.5a2.6,2.6,0,0,0-.4-1.63A1.54,1.54,0,0,0,156,69.21Z"/></g><rect class="cls-2" width="240" height="79"/></g></g></svg>