<svg xmlns="http://www.w3.org/2000/svg" width="540" height="97" viewBox="0 0 540 97"><defs><style>.cls-1{fill:#ff006b;}.cls-2{fill:none;}</style></defs><title>txt_sec7_title_w460</title><g id="Layer_2" data-name="Layer 2"><g id="Layer_1-2" data-name="Layer 1"><g id="_9_tit" data-name=" 9 tit"><g id="그룹_4672" data-name="그룹 4672"><path id="패스_11531" data-name="패스 11531" d="M67.56,34.44v-1H93.18V22.05H57.06v5.33H82.68v1.09H57.06v11.3H93.18V34.44ZM57.06,1.55v12H93.18V8.44H66.73V6.67H93.18V1.55ZM55.81,14.82v6H94.45v-6Zm53.75,19.62v-1h25.62V22.05H99.06v5.33h25.62v1.09H99.06v11.3h36.12V34.44Zm26.05-27.3c0-3.95-3.74-6.64-18.48-6.64S98.65,3.19,98.65,7.14s3.73,6.63,18.48,6.63S135.61,11.08,135.61,7.14Zm-37.8,7.68v6h38.64v-6Zm28.56-7.68c0,.8-.47,1.3-9.25,1.3s-9.24-.5-9.24-1.3.47-1.3,9.24-1.3S126.37,6.34,126.37,7.14ZM159.08,12l7.23,12.22H178l-9.4-14.7h-8l5-8.4H154.51l-14.28,23.1h11.55Zm-19.27,13.9v8.4H154.3v5.88H164V34.31h14.49v-8.4ZM209.53,6.55V7.81H183.06V18.64h13.23V19.9H181.81v6.39h38.64V19.9H206V18.64h13.23v-5H192.73V12.38h26.46V1.55H183.06v5Zm0,27.17v6.05h9.66V27.55H183.06v6.17ZM235.6,22.55c0,11.89,3.45,16.8,12.39,16.8s12.39-4.91,12.39-16.8v-4.2c0-11.89-3.44-16.8-12.39-16.8S235.6,6.46,235.6,18.35Zm36.51-8.19V.71h-9.66V38.93h9.66V23.6h3.36V14.36Zm-21,7.77c0,7.64-.84,9.24-3.15,9.24s-3.15-1.6-3.15-9.24V18.77c0-7.64.84-9.24,3.15-9.24s3.15,1.6,3.15,9.24Zm26.42-9.66V38.93L302.35,36v-8.4L287.23,29.4V20.87h15.12v-8.4ZM315.78.71h-9.65V38.93h9.65ZM277.57,2v8.4h24.78V2Zm61.36,10.29,7.9,14.07h11.71L348.38,9.53h-7.86l4.88-8.4H334.27l-15,25.2h11.55ZM319.57,30.53v8.4H358.2v-8.4Zm52.91-10.71V17.51h26V11H362.83V27H399V19.82ZM361.56,30.53v8.4H400.2v-8.4Zm1.27-29V8.69H399V1.55ZM432.55.71H425V14.78h-2.6c-.5-9.58-3.49-13.23-9.58-13.23-6.72,0-9.66,4.45-9.66,16.38v5c0,11.93,2.94,16.38,9.66,16.38s9.62-4.41,9.66-16.17H425V38.93h7.56Zm9.24,0h-7.56V38.93h7.56ZM414.9,22.13c0,7.48-.42,9.24-2.1,9.24s-2.1-1.76-2.1-9.24V18.77c0-7.48.42-9.24,2.1-9.24s2.1,1.76,2.1,9.24ZM474.54.71H467V14.78h-2.56c.05-1.68.05-3.44.05-5.25V2H445.15v8.4h10.5c0,5.17-.17,9.7-.5,14.28a127.47,127.47,0,0,1-2,14.28H462A127.4,127.4,0,0,0,464,24.23a7.42,7.42,0,0,1,.08-1.05H467V38.93h7.56Zm9.24,0h-7.55V38.93h7.55Z"/><path id="패스_11530" data-name="패스 11530" d="M9.69,82.75V96.19H47.91V82.75ZM22.08,66c-8.91,0-12.81,2.48-12.81,7.56s3.9,7.56,12.81,7.56,12.81-2.39,12.81-7.56S31,66,22.08,66Zm25.83-9.24H38.25V81.07h9.66Zm-21,1.68V55.45H17.25v2.94H9.69v6.72H34.47V58.39Zm-8,30H38.66v2.1H18.92Zm3.16-16.17c3.48,0,4.4.25,4.4,1.26s-.92,1.26-4.41,1.26-4.41-.25-4.41-1.26S18.59,72.25,22.08,72.25ZM89.91,56.71H80.25V94.93h9.66ZM51.73,78.55c0,11.89,3.44,16.8,12.39,16.8s12.39-4.91,12.39-16.8v-4.2c0-11.89-3.45-16.8-12.39-16.8s-12.39,4.91-12.39,16.8Zm15.54-.42c0,7.64-.84,9.24-3.15,9.24S61,85.77,61,78.13V74.77c0-7.64.84-9.24,3.15-9.24s3.15,1.6,3.15,9.24ZM93.69,58v23.1h25.62v-8h-16V66h16V58Zm38.22-1.26h-9.66V94.93h9.66Zm-30,29.82h-9v8.4h27.3v-8.4h-9V82.75h-9.24ZM146.6,66v-8.4h-9.66V72.46h36.12V66Zm0,23.31V82.54h-9.66V95.77h36.12V89.26ZM135.69,74.14v6.72h38.64V74.14Z"/><path id="패스_11529" data-name="패스 11529" class="cls-1" d="M225.81,63.64H221L222,58h-8.52l-1.06,5.67h-5.37l1-5.67h-8.52l-1.05,5.67h-5.5l-1.52,8.23H197l-1.6,8.74h-5.5l-1.51,8.23h5.5l-1.05,5.67h8.53l1.05-5.67h5.38l-1.05,5.67h8.52l1.05-5.67h4.83l1.51-8.23h-4.83l1.61-8.74h4.83Zm-20.24,8.23H211l-1.6,8.74H204Zm61-15.16h-7.77V70.78h-2.1V56.71h-7.77V94.93h7.77V79.18h2.1V94.93h7.77ZM236.74,85.19V58h-8.82v37L247.24,92v-8.4Zm44.52-19V63.85h26.46v-6.3H271.59V72.46h13.23v1.68H270.34v6.72H309V74.14H294.49V72.46h13.23v-6.3Zm0,23.1V82.54h-9.67V95.77h36.12V89.26Zm69.3-32.55h-7.77V70.78h-2.1V56.71h-7.77V94.93h7.77V79.18h2.1V94.93h7.77ZM320.74,85.19V58h-8.82v37L331.24,92v-8.4ZM355.6,81.7V95.77h36.12V89.55H365.26V88h26.46V81.7Zm9.66-16.17V63.64h26.46V57.55H355.6V71.62h36.12V65.53ZM354.34,73.3V80H393V73.3ZM408.1,94.93,432.88,92V58h-9.24v10.5h-6.3V58H408.1Zm36.53-24.57V56.71H435V94.93h9.66V79.6H448V70.36Zm-27.3,6.09h6.3V85.1l-6.3.76Zm71-19.74h-9.66V94.93h9.66ZM450.14,78.55c0,11.89,3.44,16.8,12.39,16.8s12.39-4.91,12.39-16.8v-4.2c0-11.89-3.45-16.8-12.39-16.8s-12.39,4.91-12.39,16.8Zm15.54-.42c0,7.64-.84,9.24-3.15,9.24s-3.15-1.6-3.15-9.24V74.77c0-7.64.84-9.24,3.15-9.24s3.15,1.6,3.15,9.24Zm54.55-20.58V63H502.59V57.55h-9.24V82.33h36.12V57.55Zm-28.14,29v8.4h38.64v-8.4Zm10.5-16h17.64v3.78H502.59Z"/></g></g><rect class="cls-2" width="540" height="97"/></g></g></svg>