<svg xmlns="http://www.w3.org/2000/svg" width="460" height="16" viewBox="0 0 460 16"><defs><style>.cls-1{fill:none;}</style></defs><title>txt_sec8_description_w460</title><g id="Layer_2" data-name="Layer 2"><g id="Layer_1-2" data-name="Layer 1"><g id="_8_tit" data-name=" 8 tit"><path id="패스_11542" data-name="패스 11542" d="M99.62,15H97.76V.69h1.86Zm-10.39-4.5a6.23,6.23,0,0,1-1-3.68,6.28,6.28,0,0,1,1-3.7,3.28,3.28,0,0,1,4.59-.81,3.12,3.12,0,0,1,.81.81,6.28,6.28,0,0,1,1,3.7,6.28,6.28,0,0,1-1,3.67,3.32,3.32,0,0,1-4.62.79A3.4,3.4,0,0,1,89.23,10.45Zm4.6-3.68a5.54,5.54,0,0,0-.53-2.63,1.56,1.56,0,0,0-1.38-1,1.51,1.51,0,0,0-1.33,1,5.42,5.42,0,0,0-.52,2.63,5.36,5.36,0,0,0,.52,2.61,1.54,1.54,0,0,0,1.33,1,1.58,1.58,0,0,0,1.38-1,5.46,5.46,0,0,0,.53-2.61Zm13.72,2h-5.77v-7h1.89v2.1h2V1.75h1.87V4.38h1.28V1h1.78v9.92h-1.78v-5h-1.28Zm6.2,5.85H103.68V10h1.86v3.09h8.21Zm-.36-3.34h-1.77V.69h1.77Zm-7.71-4V5.32h-2V7.27Zm20-.9h-7.42V7.91h7.9V9.38h-9.76V1.81H126V3.28h-7.76v1.6h7.43Zm1.95,5.32v1.48H114.72V11.68ZM143.76,15h-1.87V.69h1.87ZM139.38,2.18A11.32,11.32,0,0,1,133,12.38L131.86,11a9.74,9.74,0,0,0,3.81-3.07,8.23,8.23,0,0,0,1.7-4.16h-4.64V2.18ZM158.59,6.3h-2V11h-1.89V.69h1.89V4.76h2Zm-6-4.52a7.18,7.18,0,0,1-1.83,4.94,9.13,9.13,0,0,1-4.6,2.7l-.93-1.49a7.45,7.45,0,0,0,3.46-1.58,4.94,4.94,0,0,0,1.88-3h-4.62V1.78Zm4.33,12.76h-9.52V9.94h1.89V13h7.63Zm6.48-8V4.6h2V6.48Zm0,5.79v-1.9h2v1.89Zm7.41.75V11.88l2.1-2.21A22.82,22.82,0,0,0,175,7.23a3.34,3.34,0,0,0,.67-1.9,1.73,1.73,0,0,0-.52-1.41,2.45,2.45,0,0,0-1.59-.43,4.52,4.52,0,0,0-2.28.73l-.32-1.45a6,6,0,0,1,3.12-.83,4,4,0,0,1,2.7.81,3,3,0,0,1,.93,2.32,3.92,3.92,0,0,1-.25,1.39,5.31,5.31,0,0,1-.77,1.4c-.35.48-.66.86-.92,1.16s-.62.67-1.07,1.14l-1.3,1.33h4.4V13Zm12.45.19a4,4,0,0,1-3.09-1.3A5.8,5.8,0,0,1,179,8V7.27a8,8,0,0,1,.35-2.48,4.22,4.22,0,0,1,.95-1.67,4,4,0,0,1,1.35-.9,4.51,4.51,0,0,1,1.63-.28,3.91,3.91,0,0,1,3,1.28,5.75,5.75,0,0,1,1.18,4V7.9a5.8,5.8,0,0,1-1.18,4,4,4,0,0,1-3.06,1.3Zm0-1.5a1.81,1.81,0,0,0,1.66-.87A5.46,5.46,0,0,0,185.46,8V7.22c0-2.51-.73-3.76-2.19-3.76a1.83,1.83,0,0,0-1.68.87A5.35,5.35,0,0,0,181,7.11V8c0,2.5.74,3.76,2.21,3.76ZM188.9,13V11.88L191,9.67a24,24,0,0,0,2.06-2.44,3.27,3.27,0,0,0,.67-1.9,1.73,1.73,0,0,0-.52-1.41,2.42,2.42,0,0,0-1.59-.43,4.38,4.38,0,0,0-2.27.74L189,2.77a6.08,6.08,0,0,1,3.12-.83,3.93,3.93,0,0,1,2.7.82,2.88,2.88,0,0,1,.92,2.32,4,4,0,0,1-.24,1.38,5.4,5.4,0,0,1-.78,1.41c-.35.47-.66.86-.92,1.15s-.62.67-1.06,1.14l-1.3,1.33h4.4V13Zm9.77.06v-9l-1.84.37V3.28L199.62,2h1V13.09Zm15.72,1.46h-9.68V10.24h1.85v2.84h7.83ZM210,7.17l.23,1.5a26.38,26.38,0,0,1-5.81.5H203V1.6h1.86v6A18.57,18.57,0,0,0,210,7.17Zm2.21-3.39h-3.54V2.32h3.54V.69h1.87V11h-1.87V6.26h-3.54V4.82h3.54Zm11.66,9.44a3.6,3.6,0,0,1-3-1.28,5.58,5.58,0,0,1-1-3.58V7.57a6,6,0,0,1,1.3-4.25A4.45,4.45,0,0,1,224.55,2a5,5,0,0,1,2.56.6L226.73,4a4.53,4.53,0,0,0-.94-.32,4.81,4.81,0,0,0-1.12-.16,2.61,2.61,0,0,0-2,.81,4.69,4.69,0,0,0-.83,2.81,3.84,3.84,0,0,1,2.56-1,3.27,3.27,0,0,1,2.36.87,3.18,3.18,0,0,1,.9,2.41,3.79,3.79,0,0,1-1,2.7,3.59,3.59,0,0,1-2.76,1.06Zm0-1.45a1.76,1.76,0,0,0,1.38-.57,2.3,2.3,0,0,0,.5-1.59c0-1.35-.65-2-1.94-2a2.23,2.23,0,0,0-1.1.32,3,3,0,0,0-.86.75v.1c0,2,.67,3,2,3Zm17,3.23H230.67V11.78h7.86v-.64h-7.87V9.8h9.74V13h-7.85v.65h8.33ZM229.38,3.26a2,2,0,0,1,1-1.7A4.58,4.58,0,0,1,232.93.9a4.44,4.44,0,0,1,2.49.66,2,2,0,0,1,1,1.72,1.93,1.93,0,0,1-1,1.68,4.4,4.4,0,0,1-2.48.66A4.58,4.58,0,0,1,230.41,5a1.94,1.94,0,0,1-1-1.71ZM235.7,8.9V7.67h2.87v-7h1.85V9.27h-1.85V8.9Zm-2.06.39h-1.87V7.56c-1.65.06-2.71.1-3.2.1l-.26-1.5c1.76,0,3.3,0,4.62-.08q2.79-.12,4.62-.36l.15,1.39c-1.08.15-2.43.27-4.07.37Zm-1.91-6.76a.83.83,0,0,0,0,1.48,2.76,2.76,0,0,0,2.4,0,.85.85,0,0,0,.47-.73.85.85,0,0,0-.47-.73,2.18,2.18,0,0,0-1.2-.29,2.31,2.31,0,0,0-1.21.27ZM246,13V11.88l2.1-2.21a24,24,0,0,0,2.06-2.44,3.35,3.35,0,0,0,.68-1.9,1.76,1.76,0,0,0-.52-1.41,2.46,2.46,0,0,0-1.6-.43,4.49,4.49,0,0,0-2.27.73l-.32-1.45a6,6,0,0,1,3.12-.83,4,4,0,0,1,2.7.81,3,3,0,0,1,.93,2.32,4.16,4.16,0,0,1-.25,1.39,5.61,5.61,0,0,1-.77,1.4c-.36.48-.66.86-.92,1.16l-1.07,1.14-1.3,1.33H253V13Zm9.78.06v-9l-1.84.37V3.28L256.71,2h1V13.09Zm15.85,1.75h-9.81V11h7.5V10h-7.58V8.55h9.44v3.81h-7.49v1h7.94Zm-.45-7h-1.85V.69h1.85ZM259.81,4.48a3,3,0,0,1,1.07-2.36,4.39,4.39,0,0,1,5.42,0,3,3,0,0,1,1.06,2.38,2.84,2.84,0,0,1-1.05,2.3,4.6,4.6,0,0,1-5.4,0A2.79,2.79,0,0,1,259.81,4.48Zm2.44-1.25a1.61,1.61,0,0,0-.58,1.24,1.46,1.46,0,0,0,.55,1.18,2.11,2.11,0,0,0,1.39.47A2,2,0,0,0,265,5.64a1.55,1.55,0,0,0,.53-1.17A1.7,1.7,0,0,0,265,3.21a1.89,1.89,0,0,0-1.39-.5A2,2,0,0,0,262.25,3.23Zm19.21,3.45a3,3,0,0,1,.28.2l.31.21.29.18a1.71,1.71,0,0,0,.33.17l.29.08a.88.88,0,0,0,.33.05,1,1,0,0,0,.77-.43,2,2,0,0,0,.41-1.09c.64.24,1.09.4,1.34.48a3,3,0,0,1-.84,2,2.3,2.3,0,0,1-1.67.63,3.33,3.33,0,0,1-1.85-.64,4.37,4.37,0,0,0-1.8-1h0a1,1,0,0,0-.85.31,1.85,1.85,0,0,0-.52,1l-.58-.28L277,8.2a3,3,0,0,1,1-1.88,2.33,2.33,0,0,1,1.7-.41,3.26,3.26,0,0,1,1.67.77ZM291.53,13l4-9.35h-5V2.13h7.1V3.3l-4,9.73Zm19.23,2H300.55V11.78h7.85v-.64h-7.87V9.8h9.74V13h-7.85v.65h8.33ZM299.25,3.25a1.93,1.93,0,0,1,1-1.7A4.58,4.58,0,0,1,302.8.9a4.4,4.4,0,0,1,2.49.66,2,2,0,0,1,1,1.72,2,2,0,0,1-1,1.68,4.45,4.45,0,0,1-2.48.66A4.59,4.59,0,0,1,300.27,5,2,2,0,0,1,299.25,3.25Zm6.32,5.65V7.67h2.86v-7h1.86V9.27h-1.86V8.9Zm-2.06.38h-1.88V7.56c-1.64.06-2.71.1-3.2.1l-.25-1.49c1.76,0,3.3,0,4.62-.08,1.86-.09,3.4-.21,4.63-.37l.14,1.39c-1.08.15-2.43.27-4.06.37Zm-1.92-6.76a.86.86,0,0,0-.45.75.83.83,0,0,0,.45.73,2.32,2.32,0,0,0,1.21.28A2.39,2.39,0,0,0,304,4a.85.85,0,0,0,.47-.73.86.86,0,0,0-.47-.74,2.37,2.37,0,0,0-1.2-.29,2.32,2.32,0,0,0-1.21.28ZM318.8,13.18A7.05,7.05,0,0,1,317,13a4.84,4.84,0,0,1-1.38-.54l.32-1.43a3.77,3.77,0,0,0,1.17.44,5.89,5.89,0,0,0,1.39.19,2.84,2.84,0,0,0,1.72-.47,1.59,1.59,0,0,0,.61-1.37c0-1.09-.76-1.65-2.27-1.67l-1.14,0V6.66l1,0a2.72,2.72,0,0,0,1.54-.45A1.36,1.36,0,0,0,320.51,5q0-1.5-1.95-1.5a5.53,5.53,0,0,0-2.33.58L316,2.63a5.35,5.35,0,0,1,1.39-.49,8,8,0,0,1,1.68-.2,4,4,0,0,1,2.48.72,2.36,2.36,0,0,1,.93,2,2.57,2.57,0,0,1-2,2.56,2.54,2.54,0,0,1,2.34,2.69,2.9,2.9,0,0,1-1.09,2.4A4.53,4.53,0,0,1,318.8,13.18Zm6.85-.1v-9l-1.84.37V3.28L326.59,2h1V13.09Zm15.86,1.75H331.7V11h7.5V10h-7.59V8.55h9.44v3.81h-7.48v1h7.93Zm-.45-7H339.2V.69h1.86ZM329.7,4.48a3,3,0,0,1,1.07-2.36,4.39,4.39,0,0,1,5.42,0,3.05,3.05,0,0,1,1.06,2.38,2.88,2.88,0,0,1-1.06,2.3,4.06,4.06,0,0,1-2.7.88,4.13,4.13,0,0,1-2.7-.87A2.81,2.81,0,0,1,329.7,4.48Zm2.43-1.25a1.61,1.61,0,0,0-.58,1.24,1.47,1.47,0,0,0,.56,1.18,2.1,2.1,0,0,0,1.38.47,2,2,0,0,0,1.38-.48,1.51,1.51,0,0,0,.52-1.17,1.67,1.67,0,0,0-.51-1.26,1.89,1.89,0,0,0-1.39-.5A2,2,0,0,0,332.13,3.23ZM357.75.69V6.36h2V7.91h-2v7h-1.81V.69Zm-6.92,1.49a16.34,16.34,0,0,1-.78,5.56,11.73,11.73,0,0,1-2.54,4.09l-1.38-1.05a9,9,0,0,0,2.21-3.22,10,10,0,0,0,.73-3.82H347V2.18Zm4,0a21.41,21.41,0,0,1-.68,6,12.63,12.63,0,0,1-2.54,4.5l-1.46-1A11,11,0,0,0,353,3.74h-1.56V2.18Zm14.1,7.92-1,1.46a7.53,7.53,0,0,1-2.06-1.66,6.18,6.18,0,0,1-1.38-2.16,6.15,6.15,0,0,1-1.24,2.34A6.67,6.67,0,0,1,361,11.9l-1.12-1.4q3.56-1.89,3.56-6.48V3.64h-2.84V2.15h7.56V3.64h-2.75V4a6.31,6.31,0,0,0,3.5,6.1ZM371.77,15h-1.88V.69h1.88Z"/><rect class="cls-1" width="460" height="16"/></g></g></g></svg>