<svg xmlns="http://www.w3.org/2000/svg" width="210" height="64" viewBox="0 0 210 64"><defs><style>.cls-1{fill:#666;}.cls-2{fill:none;}</style></defs><title>txt_sec8_reward_info4_w210</title><g id="Layer_2" data-name="Layer 2"><g id="Layer_1-2" data-name="Layer 1"><g id="_8_txt04" data-name=" 8 txt04"><path id="패스_11404" data-name="패스 11404" class="cls-1" d="M32.89,1.23v10.5h-5.5V1.23h1.22V4.9h3.06V1.23Zm3.78,5.35v5.65H35.45V1h1.22V5.49h1.59V6.58Zm-8.06,4.05h3.06V6H28.61ZM48.62,1V12.23H47.4V1ZM40.18,4.67V8.33c0,1.7.61,2.43,1.78,2.43s1.77-.73,1.77-2.43V4.67c0-1.72-.61-2.45-1.77-2.45S40.18,3,40.18,4.67ZM39,8.33V4.67c0-2.4,1.22-3.55,3-3.55s3,1.15,3,3.55V8.33c0,2.37-1.22,3.52-3,3.52S39,10.7,39,8.33Zm21.47-7.1V8.08H50.91V1.23h1.22V3.44h7.08V1.23ZM52.13,7h7.08V4.54H52.13Zm8.92,3.65v1.11H50.29V10.63Zm7.61-7.07V5.89h2.15V7H68.66V9.55H67.44V7H65.31V5.89h2.13V3.56ZM81.05,1.23v10.5h-5.5V1.23Zm-4.27,9.4h3V2.34h-3Zm8.06-4.05v5.65H83.61V1h1.22V5.49h1.59V6.58ZM96.78,1V12.23H95.56V1ZM88.35,4.67V8.33c0,1.7.61,2.43,1.78,2.43S91.9,10,91.9,8.33V4.67c0-1.72-.62-2.45-1.77-2.45S88.35,3,88.35,4.67ZM87.12,8.33V4.67c0-2.4,1.23-3.55,3-3.55s3,1.15,3,3.55V8.33c0,2.37-1.22,3.52-3,3.52S87.12,10.7,87.12,8.33ZM108.6,9.55h-1.22V6.73H99.07V5.64h8.31V2.34H99.07V1.23h9.53Zm.61,1.08v1.11H98.46V10.63ZM119,7.23v1.1h-5.5V7.23Zm0-2.69v1.1h-5.5V4.54Zm4.45,6.7v-2a2.48,2.48,0,0,1,1.26-2.44l1.9-1.24a1.81,1.81,0,0,0,.87-1.62c0-1-.42-1.47-1.4-1.47s-1.4.5-1.4,1.47h-1.23a2.32,2.32,0,0,1,2-2.57,2.58,2.58,0,0,1,.62,0,2.29,2.29,0,0,1,2.61,1.93,1.9,1.9,0,0,1,0,.63,2.71,2.71,0,0,1-1.38,2.51l-1.87,1.21a1.59,1.59,0,0,0-.79,1.55v1h4v1.08Zm10-6.34h1.22V8.09h1.09V9.18H134.6v2.06h-1.22V9.18h-3.8V8.33l3.3-7h1.35l-3,6.73h2.2Zm5.22-3.78h1.23a29.71,29.71,0,0,1-.25,3.77,13.13,13.13,0,0,0,3.35,6l-.9.83a13.52,13.52,0,0,1-2.87-4.54,17.2,17.2,0,0,1-1.78,4.69l-1.09-.57A20.67,20.67,0,0,0,138.6,1.12ZM145.2,1h1.23V12.23h-1.22Zm3.4.24h5.74v.9c0,3.14-2.65,5.3-5.68,5.74l-.58-1c3-.38,4.9-2.13,5-4.51H148.6Zm10.87,3.13v1.1h-1.59v4h-1.22V1h1.22V4.37ZM158.13,11V12.1h-9.28V8.57h1.22V11ZM173,8.94h-1.22v-3h-8.31V4.78h8.31V2.34h-8.31V1.23H173Zm.61,1.69v1.11H162.86V10.63h3.91V7.42H168v3.21Zm1.56-9.51h1.23v4.7h8.43v1.1h-9.66Zm10.14,9.51v1.11H174.56V10.63h4.77V7.55h1.22v3.08Z"/><path id="패스_11350" data-name="패스 11350" d="M30.45,39.18v2.3H15.23v-5H26.85V36H15.23V33.7h15v5H18.65v.48Zm-16-8.3H31v2.34H14.47ZM26.85,28.1v-.66h-8.2v.66Zm3.42-3.72v6h-15v-6h3.42v.86h8.2v-.86Zm18,0v6.26H36.65v.94h11.8v2.74H33.23V28H44.85v-.88H33.23V24.38ZM42.63,41.66H38.87V38.38h-6.4V35.22H49v3.16H42.63ZM66.27,28v2.64H54.65v.94h11.8v2.74H51.23V24.38h15v2.74H54.65V28ZM60.63,41.66H56.87V38.38h-6.4V35.22H67v3.16H60.63ZM85,37.72V40.9H68.47V37.72Zm-14.64-3L68.29,32a10.28,10.28,0,0,0,7-8l3.66.56a11.74,11.74,0,0,1-.84,2.84,14.21,14.21,0,0,0,7.12,4l-1.92,2.8a14.86,14.86,0,0,1-7-3.9A13.81,13.81,0,0,1,70.37,34.72Zm30.7-10.34V40.72H91.73V24.38Zm5.52,9.3v7.8h-3.42V24.2h3.42v6.1h2.06v3.38ZM95,37.58h2.88v-10H95ZM125,24.2V41.48h-3.42V24.2Zm-5.64,5.06v6.58c0,3.18-1.88,5.06-4.9,5.06s-4.88-1.88-4.88-5.06V29.26c0-3.18,1.88-5.06,4.88-5.06S119.33,26.08,119.33,29.26Zm-3.24,6.58V29.26c0-1.22-.62-1.9-1.66-1.9s-1.64.68-1.64,1.9v6.58c0,1.24.62,1.92,1.64,1.92S116.09,37.08,116.09,35.84ZM143,36.6h-3.42V33.94H127.93V30.78h11.62v-3.2H127.93v-3.2h15Zm.74,1.12V40.9H127.17V37.72Zm9.8-9.76v9.76c0,.94.34,1.12,1.46,1.12V42c-3.58,0-4.88-.94-4.88-4.12V27.76c0-3.2,1.3-4.14,4.88-4.14v3.2C153.85,26.82,153.51,27,153.51,28Zm7,12.2h-3.42V28h-1.3v-3.2h4.72Zm7.74-3.84v-7.7c0-.58-.42-.86-1-.86s-1,.28-1,.86v7.7c0,.56.42.84,1,.84S168.27,36.88,168.27,36.32Zm3.44-7.9V36.5c0,2.34-1.52,3.84-4.42,3.84s-4.42-1.5-4.42-3.84V28.42c0-2.34,1.5-3.86,4.42-3.86S171.71,26.08,171.71,28.42Zm12.76,13.24h-6.22c-2.72,0-4.5-1.5-4.5-3.64s1.78-3.68,4.5-3.68h6.22c2.72,0,4.5,1.5,4.5,3.68S187.19,41.66,184.47,41.66Zm-1.88-17.28v8.84h-9V24.38Zm.56,8v-3h2.22v-1h-2.22v-3h2.22V24.2h3.42V34h-3.42V32.36Zm-4.9,6.48h6.22c.64,0,1-.36,1-.82a.9.9,0,0,0-.93-.87h-6.31c-.66,0-1,.38-1,.86S177.59,38.84,178.25,38.84Zm-1.5-8.34h2.64V27.1h-2.64Zm15.36,7.22V28c0-.94-.34-1.14-1.48-1.14v-3.2c3.58,0,4.9.94,4.9,4.14V37.92c0,3.18-1.32,4.12-4.9,4.12v-3.2C191.77,38.84,192.11,38.66,192.11,37.72Z"/><path id="패스_11348" data-name="패스 11348" class="cls-1" d="M56.76,61.43l-3.39-9.6h1.81l2.52,7.42h0l2.51-7.42h1.61l-3.39,9.6Zm6.17,0v-9.6h1.74v9.6Zm3.7,0v-9.6H70c2.11,0,3.17.8,3.17,2.42a2.05,2.05,0,0,1-1.57,2.1v0a2.14,2.14,0,0,1,2,2.28v0a2.51,2.51,0,0,1-.86,2,3.65,3.65,0,0,1-2.49.75Zm1.71-1.29H70c1.19,0,1.78-.52,1.78-1.56a1.38,1.38,0,0,0-.47-1.17,2.31,2.31,0,0,0-1.4-.35H68.34Zm0-4.23h1.35c1.17,0,1.76-.48,1.76-1.43A1.27,1.27,0,0,0,71,53.41a2.1,2.1,0,0,0-1.29-.31H68.34ZM75,61.43v-9.6h6v1.35H76.7v2.63H80v1.35H76.69v2.91h4.36v1.36Zm21.57,0H85.28v-1.3H96.55Zm-.24-5.11-.83,1.28a8.16,8.16,0,0,1-2.73-1.25,5,5,0,0,1-1.84-2.09,4.77,4.77,0,0,1-1.83,2.14,7.81,7.81,0,0,1-2.77,1.25l-.77-1.33a6.39,6.39,0,0,0,2.08-.7,5.46,5.46,0,0,0,1.73-1.48,3.24,3.24,0,0,0,.71-2v-.82h1.71v.82a2.82,2.82,0,0,0,.29,1.24,3.89,3.89,0,0,0,.76,1.09,6.83,6.83,0,0,0,1.07.86,7,7,0,0,0,1.22.63A5.65,5.65,0,0,0,96.31,56.37ZM103,59.89a37.79,37.79,0,0,1-5.91.4c0-.15-.06-.39-.11-.71s-.07-.57-.1-.72H98l-.12-1.94c-.07-1.15-.13-2-.17-2.63l1.58-.2.17,4.74.88,0c0-.35,0-.84.07-1.47s0-1.2.07-1.73,0-1,.07-1.49l1.53.18c-.14,1.84-.26,3.32-.35,4.43a10.79,10.79,0,0,0,1.08-.12Zm2.4,2.64H103.8V56.79h-1.33V55.46h1.33V50.87h1.55Zm2.3.58H106.1V50.63h1.55Zm-4.8-9.69H97.09V52.13h5.76ZM119.5,63h-8.59V59.7h6.57v-.81h-6.64v-1.3h8.28v3.3h-6.56v.8h6.93Zm-3.88-10V51.78h1.86V50.63h1.64V57h-1.64V55.27h-1.86V54h1.86v-.91Zm.6,2.73-.9,1.22a4.76,4.76,0,0,1-1.58-1,4.6,4.6,0,0,1-1.2-1.5,3.7,3.7,0,0,1-1.12,1.68,4.92,4.92,0,0,1-1.78,1.1l-.94-1.23a4.62,4.62,0,0,0,2.17-1.55,3.85,3.85,0,0,0,.8-2.42V51h1.71v1a3.62,3.62,0,0,0,.83,2.38,4.2,4.2,0,0,0,2,1.38ZM132,62.53h-1.54V56.72h-1.06a5.65,5.65,0,0,1-.79,2.72,2.13,2.13,0,0,1-1.91,1.08,2,2,0,0,1-1.54-.66,3.71,3.71,0,0,1-.89-1.64A8.6,8.6,0,0,1,124,56a8.37,8.37,0,0,1,.26-2.17,3.59,3.59,0,0,1,.89-1.62,2,2,0,0,1,1.54-.66,2.14,2.14,0,0,1,1.92,1.07,5.83,5.83,0,0,1,.78,2.74h1.06V50.87H132Zm2.49.58H133V50.63h1.54Zm-6.89-4.89a6.72,6.72,0,0,0,.3-2.18,6.8,6.8,0,0,0-.3-2.2c-.19-.56-.49-.84-.89-.84s-.67.28-.87.85a6.51,6.51,0,0,0-.29,2.19,6.39,6.39,0,0,0,.29,2.17c.2.57.49.85.87.85S127.42,58.78,127.61,58.22Zm18.26,4.89h-1.65V50.63h1.65ZM138,58.72a25.46,25.46,0,0,0,5.08-.37l.21,1.34a26.94,26.94,0,0,1-5.67.42h-1.25V51.78h5.67v1.3h-4Zm18.07-5h-1.88v-1.3h1.88V50.63h1.64v9h-1.64V56.16h-1.88V54.85h1.88Zm1.9,9.1h-8.48V58.85h1.64v2.63H158Zm-3.16-5.85-.92,1.29a4.73,4.73,0,0,1-1.55-1.09,5.8,5.8,0,0,1-1.25-1.67,5.32,5.32,0,0,1-2.9,3.08l-1-1.3a4.52,4.52,0,0,0,2.19-1.69,4.42,4.42,0,0,0,.82-2.61V51.35H152v1.51a4.12,4.12,0,0,0,.87,2.53A4.17,4.17,0,0,0,154.83,56.92Z"/></g><rect class="cls-2" width="210" height="64"/></g></g></svg>