<svg xmlns="http://www.w3.org/2000/svg" width="375" height="64" viewBox="0 0 375 64"><defs><style>.cls-1{fill:#fff;}.cls-2{fill:none;}</style></defs><title>txt_sec3_description_w375</title><g id="Layer_2" data-name="Layer 2"><g id="Layer_1-2" data-name="Layer 1"><g id="_4_tit" data-name=" 4 tit"><path id="패스_11469" data-name="패스 11469" class="cls-1" d="M114.2,14.75h-8.42V1.82h7.52V3.18h-6V13.39h6.91Zm3-6.35v7h-1.5V1.53h1.5V7.05h2V8.4Zm11.09,7.1h-4.36c-2.25,0-3.61-1.14-3.61-2.77s1.36-2.79,3.61-2.79h4.36c2.25,0,3.61,1.14,3.61,2.79s-1.36,2.77-3.61,2.77ZM119.88,5.21a3.76,3.76,0,0,1,7.52,0,3.76,3.76,0,0,1-7.52,0Zm4.06,9h4.36c1.21,0,2-.56,2-1.44s-.82-1.45-2-1.45h-4.36c-1.2,0-2,.56-2,1.45S122.74,14.17,123.94,14.17Zm7.67-6.4V9.45h-1.5V1.53h1.5V3.32h1.95V4.68h-1.95V6.41h1.95V7.77ZM121.38,5.21a2.26,2.26,0,1,0,4.52.14V5.21a2.26,2.26,0,0,0-4.52-.13Zm20.28,2.34c0,1.73-1.44,3-3.47,3s-3.46-1.28-3.46-3,1.43-3,3.46-3S141.66,5.82,141.66,7.55Zm4.66,6.3v1.34H134.89v-4h1.5v2.7Zm1.64-8V7.18h-2v4.94h-1.5V1.53H146v4.3Zm-5.55-3.33V3.84h-8.27V2.51h3.3V1.07h1.5V2.51Zm-2.26,5a2,2,0,0,0-3.92,0,2,2,0,0,0,3.92,0Zm14.69-5.88h1.5a36,36,0,0,1-.3,4.64,16,16,0,0,0,4.13,7.41l-1.1,1a16.51,16.51,0,0,1-3.54-5.58,21.41,21.41,0,0,1-2.19,5.78l-1.34-.7A25.43,25.43,0,0,0,154.84,1.67Zm7.82-.14h1.5V7.05h2V8.4h-2v7h-1.5Zm17.86,3.3V6.19h-2V9.9h-1.5V1.53h1.5v3.3Zm-2,5.73V15.2H167.44V10.56ZM169,13.87h8.11v-2H169Zm6.47-6V9.2h-8.28V4.81h5.57V3.18h-5.57V1.82h7.08V6.14h-5.57v1.7Zm18.16,6V15.2H181.69V11.55h10.22v-1H181.69V9.27h11.73v3.59H183.19v1ZM180.94,6.94h13.23V8.28H180.94ZM193.5,6H181.69V1.82h11.73V3.16H183.19V4.67h10.3Zm14.17-4.48V15.36h-1.5V1.53ZM197.29,6v4.52c0,2.1.75,3,2.19,3s2.18-.9,2.18-3V6c0-2.11-.76-3-2.18-3S197.29,3.93,197.29,6Zm-1.5,4.52V6c0-2.94,1.5-4.36,3.7-4.36S203.17,3.1,203.17,6v4.52c0,2.91-1.5,4.33-3.68,4.33s-3.71-1.42-3.71-4.33ZM226,1.82V3.18h-4.62c-.13.16-.28.32-.42.48a12.23,12.23,0,0,0,5.5,1.58l-.74,1.19a12.73,12.73,0,0,1-5.77-1.9,11.92,11.92,0,0,1-5.41,2.1l-.72-1.19a10.2,10.2,0,0,0,5.68-2.25h-5.23V1.82ZM223.44,15.5h-6.63c-1.5,0-2.56-.67-2.56-1.84s1.06-1.81,2.56-1.81h6.63c1.5,0,2.54.67,2.54,1.81s-1,1.84-2.55,1.84Zm-6.63-1.33h6.62c.56,0,1-.16,1-.51s-.42-.51-1-.51h-6.62c-.58,0-1,.17-1,.51S216.23,14.17,216.81,14.17Zm9.33-4.37v1.32h-12V9.8h5.24V9h1.5V9.8Zm-5.35-2.56h5.94V8.59H213.5V7.24h5.79V5.72h1.5Zm7.55,3.32V6c0-2.94,1.5-4.36,3.7-4.36S235.72,3.1,235.72,6v4.52c0,2.91-1.5,4.33-3.68,4.33S228.34,13.47,228.34,10.56ZM229.84,6v4.52c0,2.1.76,3,2.2,3s2.17-.9,2.17-3V6c0-2.11-.75-3-2.17-3s-2.19.89-2.19,3ZM239.92,8.4v7h-1.5V1.53h1.5V7.05h2V8.4Zm3.12,3V9.5a3.54,3.54,0,0,1,7.08,0v1.95a3.54,3.54,0,0,1-7.08,0Zm11.28-3v7h-1.5V1.53h1.5V7.05h2V8.4Zm-9.77,1.1v1.95a2,2,0,1,0,4.06.13V9.5a2,2,0,0,0-4.06-.18V9.5Zm6-5h-8V3.18h3.2V1.07h1.5V3.18h3.26Zm6.13,3.9h13.23V9.8H256.7Zm12.64,5.4v1.35H257.45V11H259v2.85ZM257.45,6.6V1.67H259V5.29h10.38V6.6Zm-198.79,28V30c0-2.94,1.5-4.36,3.7-4.36S66,27.1,66,30v4.52c0,2.91-1.5,4.33-3.68,4.33S58.66,37.47,58.66,34.56ZM60.16,30v4.52c0,2.1.75,3,2.19,3s2.18-.9,2.18-3V30c0-2.11-.75-3-2.18-3s-2.18.89-2.18,3ZM70.24,32.4v7h-1.5V25.53h1.5v5.52h2V32.4ZM81,38.75H73.22V25.82h6.92v1.36H74.73v4.06h5.41v1.35H74.73v4.8h6.32Zm3.9-13.22V39.36h-1.5V25.53Zm15.3,11.86v1.36H87V37.39ZM87.92,33.58,87,32.46a9.25,9.25,0,0,0,6.13-6.93l1.48.29a8.46,8.46,0,0,1-.6,2,12.23,12.23,0,0,0,6.23,4l-.79,1.2a13.84,13.84,0,0,1-6.14-3.89,11.13,11.13,0,0,1-5.39,4.4Zm15.74-6.4v2.4H113.9v1.36H103.67v2.48h10.39v1.36H102.17v-9H113.9v1.36Zm11,10.21v1.36H101.42V37.39Zm1.17,1.36V37.39h9.72v1.36Zm10.83.61V25.53h1.5V39.36Zm-2.26-9.92a4.07,4.07,0,1,1-4.23-3.9h.17a3.83,3.83,0,0,1,4.06,3.57Zm-1.5,0A2.56,2.56,0,1,0,120.33,32h0a2.46,2.46,0,0,0,2.56-2.35v-.21ZM143,39.5h-4.51c-2.26,0-3.6-1.14-3.6-2.77s1.34-2.78,3.6-2.78H143c2.26,0,3.62,1.13,3.62,2.78S145.26,39.5,143,39.5Zm-4.51-1.33H143c1.2,0,2-.56,2-1.44s-.83-1.45-2-1.45h-4.51c-1.2,0-2,.56-2,1.45S137.29,38.17,138.49,38.17Zm7.82-12.64v7.92h-1.5v-1.9h-3.47V30.19h3.47v-1.5h-3.33V27.33h3.33v-1.8Zm-11.73.29h6.48v.82c0,3.3-2.68,5.85-6.43,6.38L134,31.77c3.12-.38,5.26-2,5.58-4.59h-5ZM157,32.44h-3.9c-2.5,0-4.22-1.36-4.22-3.45s1.73-3.46,4.22-3.46H157c2.48,0,4.21,1.35,4.21,3.46s-1.73,3.45-4.21,3.45Zm-3.9-1.36H157c1.65,0,2.63-.81,2.63-2.1s-1-2.11-2.63-2.11h-3.9c-1.66,0-2.64.83-2.64,2.11s1,2.1,2.64,2.1Zm8.56,3.32v1.36h-5.85V39.5h-1.5V35.76h-5.88V34.4Zm5.54-8.58h6.61v2.83a11.25,11.25,0,0,1-6.24,10.11l-1-1.13a9.74,9.74,0,0,0,5.71-8.83V27.18h-5.1Zm11.73-.29V39.36h-1.5V25.53Zm14.7,12.32V39.2H181.69V35.6h1.5v2.25Zm-.16-12v1.36h-4.6a7.35,7.35,0,0,1-.65,1,10.83,10.83,0,0,0,5.71,2.26l-.74,1.2a11.9,11.9,0,0,1-5.85-2.48A10.41,10.41,0,0,1,182,31.84l-.78-1.22a8.5,8.5,0,0,0,5.9-3.44h-5.46V25.82Zm-5.19,7.38h5.94v1.36H180.94V33.2h5.79V31.07h1.5Zm24.85-4.37v1.36h-2v3.87h-1.5V25.53h1.5v3.3Zm-6.3-3V33h-7.07V25.82h1.5V28h4.06V25.82Zm-5.57,5.79h4.07V29.36h-4.07ZM208,39.5h-4.67c-2.26,0-3.46-1.14-3.46-2.62s1.2-2.63,3.46-2.63H208c2.26,0,3.46,1.12,3.46,2.63S210.23,39.5,208,39.5Zm-4.68-1.33H208c1.2,0,1.87-.48,1.87-1.3s-.67-1.3-1.87-1.3H203.3c-1.2,0-1.87.48-1.87,1.3S202.1,38.17,203.3,38.17Zm13.5-12.64h1.5a11.56,11.56,0,0,1-.33,2.75,12,12,0,0,0,4.13,4l-.93,1.13A13.71,13.71,0,0,1,217.41,30a9.24,9.24,0,0,1-2.9,3.86l-1.2-1a8.69,8.69,0,0,0,3.5-7.31Zm9,9V39.5h-1.5V35.9h-9.92V34.56Zm-1.5-.8V25.53h1.5v8.23Zm16-7.94v8.27H228.65V25.82h1.5v2.72h8.72V25.82Zm-10.23,6.93h8.72V29.88h-8.72Zm11,4.64v1.36H227.9V37.39h5.87V34.8h1.5v2.59Zm10.19,1.36H242.9V25.82h7.52v1.36h-6V37.39h6.91Zm3-6.35v7h-1.5V25.53h1.5v5.52h1.95V32.4Zm7.31,1.26-1.18-1a6.82,6.82,0,0,0,3.44-5.52h-2.84V25.82h7.34v1.36h-3a11.62,11.62,0,0,1-.21,1.44,10.78,10.78,0,0,0,3.92,3.52l-1,1.12a12.6,12.6,0,0,1-3.52-3A8.36,8.36,0,0,1,261.64,33.66Zm8,5.84h-4.82c-2.25,0-3.45-1.14-3.45-2.62s1.2-2.63,3.45-2.63h4.82c2.26,0,3.46,1.12,3.46,2.63S271.9,39.5,269.64,39.5Zm-4.82-1.33h4.82c1.2,0,1.87-.48,1.87-1.3s-.67-1.3-1.87-1.3h-4.82c-1.2,0-1.88.48-1.88,1.3S263.62,38.17,264.82,38.17Zm6.47-12.64h1.5v8.23h-1.5V30h-3.15V28.68h3.15Zm17.55,4.14V31h-1.95V36h-1.5V25.53h1.5v4.14Zm-1.65,8.18v1.34H275.77V34.84h1.5v3Zm-9-12.32h1.5a12,12,0,0,1-.37,2.86,12,12,0,0,0,4.16,4l-.93,1.15a13.33,13.33,0,0,1-3.79-3.5,9.55,9.55,0,0,1-2.86,3.9l-1.2-1a9.32,9.32,0,0,0,3.49-7.47Zm23.57,5h-1.5V27.18H290V25.82h11.73Zm-12.48.75h13.23v1.34H289.26Zm12.48,2.85v5.1H290v-5.1Zm-10.23,3.78h8.72V35.42h-8.72ZM316,25.54V39.36h-1.5V25.53Zm-10.38,4.51v4.51c0,2.1.75,3,2.19,3s2.18-.9,2.18-3V30c0-2.11-.76-3-2.18-3s-2.19.89-2.19,3Zm-1.5,4.51V30c0-2.94,1.5-4.36,3.7-4.36s3.68,1.42,3.68,4.36v4.52c0,2.91-1.5,4.33-3.68,4.33s-3.71-1.42-3.71-4.33Zm-197.38,15h1.5a10.24,10.24,0,0,1-.26,2.34,11.16,11.16,0,0,0,4,3.79l-.93,1.15a13.49,13.49,0,0,1-3.66-3.28,8.34,8.34,0,0,1-3,3.68l-1.15-1A7.44,7.44,0,0,0,106.73,49.53Zm10.67,3v1.34h-2v3.57H114V49.53h1.5v3Zm-5.26,11h-4.36c-2.25,0-3.61-1.14-3.61-2.77S105.53,58,107.78,58h4.36c2.25,0,3.61,1.13,3.61,2.78S114.39,63.5,112.14,63.5Zm-4.36-1.33h4.36c1.21,0,2-.56,2-1.44s-.82-1.45-2-1.45h-4.36c-1.2,0-2,.56-2,1.45S106.58,62.17,107.78,62.17Zm10-6.62h13.23v1.34H117.82Zm.7-.83-.7-1.22c2.81-.37,5.23-1.55,6.06-4l1.55.23a6,6,0,0,1-.45,1,12.33,12.33,0,0,0,6.07,2.57l-.63,1.22a13.53,13.53,0,0,1-6.24-2.66,8.89,8.89,0,0,1-5.66,2.87Zm8.32,8.78H122c-2.4,0-3.6-1-3.6-2.54s1.2-2.56,3.6-2.56h4.82c2.42,0,3.62,1,3.62,2.56s-1.2,2.54-3.62,2.54ZM122,62.17h4.82c1.5,0,2-.48,2-1.21s-.53-1.24-2-1.24H122c-1.34,0-2,.48-2,1.24S120.52,62.17,122,62.17Zm11-2.72v-2a3.54,3.54,0,0,1,7.07,0v2a3.54,3.54,0,0,1-7.07,0Zm11.28-3.05v7h-1.5V49.53h1.5v5.52h1.95V56.4Zm-9.78,1.1v2a2,2,0,1,0,4.07.13V57.5a2,2,0,0,0-4.07-.18v.18Zm6-5h-8V51.18h3.2V49.07h1.5v2.11h3.26Zm6.13,3.9h13.23V57.8H146.62Zm12.64,5.41V63.2H147.37V59h1.5v2.85ZM147.37,54.6V49.67h1.5v3.62h10.39V54.6Zm29.75-5.07V63.36h-1.5V56.44H174V63.2h-1.5V49.6H174v5.48h1.65V49.53Zm-5.41.29v1.36h-6.32V49.82Zm.14,11.57v1.36h-6.62V61.39h1.21V52.54h1.5v8.85h.82l.75-8.85H171l-.75,8.85Zm15.46-5V57.8h-7.52v-8h6.77v1.36h-5.27V53.1h5.1v1.34h-5.1v2Zm4.51,5.41V63.2H180.23V59h1.5v2.85Zm-.3-12.32V60H190V54.44h-2.86V53.08H190V49.53Zm14.7,12.32V63.2H194.33V59.53h10.22V58.6H194.33V57.26h11.73v3.6H195.83v1Zm-12.64-6.91h13.23v1.34H193.58Zm3.31-2.18h6.47c.75,0,1.36-.35,1.36-.94s-.61-1-1.36-1h-6.47c-.75,0-1.2.35-1.2,1s.45.94,1.2.94Zm0-3.23h6.47c1.66,0,2.86.79,2.86,2.29s-1.2,2.27-2.86,2.27h-6.47c-1.65,0-2.7-.77-2.7-2.27s1.05-2.29,2.7-2.29Zm27.33.29v8.27H212.49V49.82H214v2.72h8.72V49.82ZM214,56.75h8.72V53.88H214Zm11,4.64v1.36H211.74V61.39h5.87V58.8h1.5v2.59Zm3-8.32a2.11,2.11,0,1,0,2.11-2.2,2.08,2.08,0,0,0-2.12,2v.17Zm-1.5,0a3.61,3.61,0,1,1,3.69,3.52h-.08a3.48,3.48,0,0,1-3.62-3.33v-.19Zm1,10.13-1.12-1a6.17,6.17,0,0,0,3.57-4.66l1.42.21a5.74,5.74,0,0,1-.41,1.68,7.84,7.84,0,0,0,2.06,2.08,6.07,6.07,0,0,0,2.18-4l1.44.21a5.51,5.51,0,0,1-.42,1.78A12.39,12.39,0,0,0,239.44,62l-.86,1.17a16.33,16.33,0,0,1-3.1-2.33A8.31,8.31,0,0,1,233,63.26a10.44,10.44,0,0,1-2.85-2.53,7.77,7.77,0,0,1-2.75,2.47ZM237,49.53h1.5v7.78H237v-2h-2.7V54H237V52.32h-2.7V51H237Zm4,9V54c0-2.86,1.44-4.36,3.62-4.36s3.61,1.5,3.61,4.36v4.52c0,2.83-1.44,4.33-3.61,4.33S241,61.39,241,58.56Zm1.5-4.52v4.52c0,2.1.75,3,2.11,3s2.12-.9,2.12-3V54c0-2.11-.76-3-2.12-3s-2.11.89-2.11,3Zm8.88,2.4h-2.56V55.08h2.56V49.53h1.5V63.36h-1.5Zm12,.61h-3.61c-2.56,0-4.37-1.5-4.37-3.76s1.81-3.76,4.37-3.76h3.61c2.55,0,4.35,1.5,4.35,3.76s-1.81,3.76-4.35,3.76Zm-3.61-1.36h3.61a2.43,2.43,0,0,0,.67-4.81,2.51,2.51,0,0,0-.67,0h-3.61a2.43,2.43,0,1,0-.7,4.81A2.06,2.06,0,0,0,259.76,55.69Zm8.41,5.7v1.36H254.94V61.39h3V58h1.5v3.44h4.22V58h1.5v3.44Zm3.3,1.22h-1.81v-1.8h1.8Z"/></g><rect class="cls-2" width="375" height="64"/></g></g></svg>