<svg xmlns="http://www.w3.org/2000/svg" width="460" height="234" viewBox="0 0 460 234"><defs><style>.cls-1{fill:#5525d7;}.cls-2{fill:#fed843;}.cls-3{fill:#fff;}.cls-4{fill:none;}</style></defs><title>txt_sec1_description_w460</title><g id="Layer_2" data-name="Layer 2"><g id="Layer_1-2" data-name="Layer 1"><g id="_2_txt" data-name=" 2 txt"><g id="그룹_4083" data-name="그룹 4083"><path id="사각형_127" data-name="사각형 127" class="cls-1" d="M62.48,191h335v12h-335Z"/><path id="사각형_128" data-name="사각형 128" class="cls-1" d="M73.48,221h318v12h-318Z"/></g><path id="패스_11219" data-name="패스 11219" class="cls-2" d="M66.39,15.59v3.5H48.2v-3.5Zm-16.1-3.3L48,9.32A11.31,11.31,0,0,0,55.68.5l4,.62a13.18,13.18,0,0,1-.93,3.12,15.73,15.73,0,0,0,7.83,4.38L64.5,11.7a16.28,16.28,0,0,1-7.66-4.29,15.11,15.11,0,0,1-6.55,4.88ZM84.83,5.63V8.77H72.05v1.65H85v3.24H68.28V.92H84.83V4.17H72.05V5.63Zm.82,10v3.45H67.45V15.64ZM104.08.72v19h-3.76V.72ZM98.29,15.44v3.45h-11v-11h6.32V4.39H87.31V.92H97.39V11.37H91.08v4.07ZM116.71.92v9.72H106.56V.92Zm-6.63,6.73h3.1V3.91h-3.1ZM123.33.72V11.41h-3.76V.72Zm-4.75,19.21h-6.85c-3,0-5-1.65-5-4s2-4,5-4h6.85c3,0,5,1.65,5,4S121.57,19.93,118.58,19.93Zm-6.84-3.1h6.84c.7,0,1.12-.4,1.12-.9a1,1,0,0,0-1-1h-6.94c-.72,0-1.12.42-1.12.95s.4.89,1.12.89Zm21.18,2.33-3.52-1.59c2.73-5.06,3.48-10.65,3.48-16.65h3.76a55.1,55.1,0,0,1-.33,6.29,22.57,22.57,0,0,0,5.57,9.55L139,19.09a21,21,0,0,1-3.88-5.59,27.5,27.5,0,0,1-2.22,5.66ZM147.2.72v19h-3.76V10.64h-4.73V6.92h4.73V.72Zm19.25,0v19h-3.76V.72ZM160,.92v18H149.68V.92h3.56V6.09h3.17V.92Zm-6.71,14.52h3.17V9.56h-3.17Zm33.26.15v3.5H168.32v-3.5Zm-16.1-3.3-2.29-3A11.29,11.29,0,0,0,175.8.5l4,.62a12.7,12.7,0,0,1-.92,3.12,15.73,15.73,0,0,0,7.83,4.38l-2.11,3.08A16.28,16.28,0,0,1,177,7.41a15.19,15.19,0,0,1-6.55,4.88Zm29.15-6c0,3.21-2.15,5.59-5.78,5.59S188,9.5,188,6.29,190.17.72,193.78.72s5.78,2.38,5.78,5.57Zm-3.58,0a2.22,2.22,0,1,0-4.4-.53,1.57,1.57,0,0,0,0,.53,2.22,2.22,0,0,0,4.4.58A2.81,2.81,0,0,0,196,6.29Zm5.21,13.44V.72H205v19Zm-13.62-.64V15.64h12.65v3.45Zm37.49-2.22V15.46h-9v1.41Zm3.76-4.27v7.13H212.27V12.6ZM211.44,8.75h18.2V11.7h-18.2ZM224.26,8h-7.43c-3.1,0-4.78-1.28-4.78-3.65,0-2.18,1.68-3.63,4.78-3.63h7.43c3.1,0,4.76,1.45,4.76,3.63C229,6.73,227.37,8,224.26,8Zm-7.41-2.93h7.37c.62,0,1-.24,1-.72s-.37-.73-1-.73h-7.37c-.62,0-1,.27-1,.73s.37.73,1,.73Zm27.46,9.7H240.5V12.09h3.81V.72h3.76V15.35h-3.76Zm4.18,1.63v3.32H231.94V14.44h3.76v2ZM237.73,8.2h-1.87c-3,0-4.75-1.47-4.75-3.74S232.87.72,235.86.72h1.87c3,0,4.75,1.45,4.75,3.74S240.72,8.2,237.73,8.2Zm-1.87-2.79h1.87c.72,0,1.23-.31,1.23-1s-.51-1-1.23-1h-1.87c-.73,0-1.23.31-1.23,1S235.13,5.41,235.86,5.41ZM243,8.75v2.79h-5.17v2.51H234.1V11.54h-3.41V8.75ZM255.17,4V.92h10.34V4h-3.38c-.07.44-.16.87-.27,1.3a13.67,13.67,0,0,0,4.58,3.76l-2.14,2.69a15.48,15.48,0,0,1-3.91-3.06,10.48,10.48,0,0,1-3.46,3.36l-2.57-2.31A8.43,8.43,0,0,0,258.41,4Zm12.1,15.93h-7c-3,0-4.87-1.59-4.87-3.92s1.85-3.91,4.87-3.91h7c3,0,4.87,1.58,4.87,3.91s-1.85,3.92-4.87,3.92Zm-7-3.1h7c.69,0,1-.33,1-.82s-.35-.81-1-.81h-7c-.69,0-1,.35-1,.81s.35.81,1,.81ZM271.94.73v11h-3.76V7.63h-3.06V4.46h3.06V.72Zm19.25,15.55v3.46H274.84V13.19h3.76v3.08ZM293,5.41V9.08h-2.27v5.43H287V.72h3.76V5.41ZM277.53.72h3.76A20.43,20.43,0,0,1,280.85,5,15.16,15.16,0,0,0,286,9.61l-2.25,2.75a17.2,17.2,0,0,1-4.22-3.52,10.58,10.58,0,0,1-3.39,3.83l-2.7-2.42C276.07,8.29,277.53,5.27,277.53.72Zm31.41.2V11.17H298.29V.92h3.52V3.25h3.63V.92Zm-7.13,7.3h3.63v-2h-3.63Zm15.1-3.74V8.15h-2.27v3.59h-3.76V.72h3.76V4.48ZM310.2,19.92h-6.82c-3,0-4.87-1.58-4.87-3.91s1.85-3.92,4.87-3.92h6.82c3,0,4.86,1.59,4.86,3.92s-1.87,3.92-4.86,3.92Zm-6.82-3.1h6.82c.68,0,1-.33,1-.81s-.35-.81-1-.81h-6.82c-.69,0-1,.35-1,.81S302.69,16.82,303.38,16.82ZM334.31.72V12h-3.76V.72Zm0,12.1v7.11h-3.76V16.21H318V12.82ZM320.65.72h3.76A19.22,19.22,0,0,1,324,4.79a15.32,15.32,0,0,0,5.08,4.42l-2.22,2.73a17.15,17.15,0,0,1-4.25-3.48,10.75,10.75,0,0,1-3.36,3.79l-2.71-2.42C319.19,7.87,320.65,5.08,320.65.72Zm31,.2v18H341.41V.92H345V6.09h3.17V.92Zm6.07,10.23v8.58H354V.72h3.76V7.43H360v3.72ZM345,15.44h3.17V9.56H345ZM377.43.92V8.55H364.65v1.5h13v3.19H360.88V5.45h12.78V4.13H360.88V.92Zm.81,14.72v3.45H360.05V15.64h7V13.7h4.11v1.94Zm18.44,1.5v2.6H380.33V13.88H392.5v-.66H380.33V10.64h15.93v5.83H384.09v.66Zm1.85-13.47V7.32h-2.27v2.77H392.5V.72h3.76v3ZM383,5.47a1.76,1.76,0,0,0,3.52,0,1.76,1.76,0,0,0-3.52,0Zm-3.72,0c0-2.79,2.29-4.75,5.48-4.75s5.48,2,5.48,4.75-2.27,4.75-5.48,4.75-5.48-2-5.48-4.75ZM415.93.72v19h-3.76V.72Zm-16.54.2h9.5V6A14.2,14.2,0,0,1,401,18.91l-2.62-2.64c4.27-2.06,6.77-5.72,6.77-9.83V4.39h-5.74Z"/><path id="패스_11218" data-name="패스 11218" class="cls-3" d="M62.87,49.2V66.48H61V57.84H58v8.44H56.11v-17H58v6.86h3V49.2ZM55.11,64v1.7h-6.9V49.56h6.42v1.7H50.09V64ZM80.55,49.56V58.4H65.89V49.56h1.88V52.2h10.9V49.56Zm.94,10.72V62H74.17v4.68H72.29V62H65v-1.7ZM67.77,56.72h10.9V53.9H67.77Zm30.28-7.16v7.52H83.39V49.56h1.88v2.18h10.9V49.56Zm-6.3,13.56H89.87V60.48H82.45v-1.7H99v1.7H91.75Zm6.5,1.48v1.68H83.39v-4.5h1.88V64.6Zm-13-9.16h10.9V53.38H85.27ZM100,65.72V64h12.16v1.7Zm13.54.76V49.2h1.88V66.48Zm-2.82-12.4a5.08,5.08,0,1,1-4.88-4.88A5.08,5.08,0,0,1,110.67,54.08Zm-1.88,0a3.2,3.2,0,1,0-3.2,3.2A3.2,3.2,0,0,0,108.79,54.08ZM138.19,64v1.7H121.65V64Zm-15.4-4.76-1.14-1.4a11.53,11.53,0,0,0,7.66-8.66l1.86.36a10.19,10.19,0,0,1-.76,2.54,15.37,15.37,0,0,0,7.78,5l-1,1.5a17.47,17.47,0,0,1-7.68-4.86A13.9,13.9,0,0,1,122.79,59.26Zm19.18-8v3h12.78V56H142v3.1h13v1.7H140.09V49.56h14.66v1.7ZM155.69,64v1.7H139.15V64Zm11.68,0v1.7h-10v-9.2h6.76V51.26h-6.76v-1.7h8.64v8.66h-6.76V64Zm4.7-14.82V66.48h-1.88V49.2Zm15.62,9.72V49.2h1.88v9.72Zm-2.26,7.74h-5.64c-2.82,0-4.5-1.42-4.5-3.46s1.68-3.48,4.5-3.48h5.64c2.82,0,4.52,1.42,4.52,3.48S188.25,66.66,185.43,66.66ZM179.79,65h5.64c1.5,0,2.54-.7,2.54-1.8s-1-1.82-2.54-1.82h-5.64c-1.5,0-2.54.7-2.54,1.82S178.29,65,179.79,65Zm4-15.44v8.28h-8.84V49.56Zm-7,6.58h5.08V51.26h-5.08Zm22.44-6.76h1.88a43.24,43.24,0,0,1-.38,5.8,20.09,20.09,0,0,0,5.16,9.26l-1.38,1.28a20.71,20.71,0,0,1-4.42-7A26.64,26.64,0,0,1,197.35,66l-1.68-.88C198.31,60.46,199.23,54.84,199.23,49.38Zm10.16-.18h1.88V66.48h-1.88v-8.7h-5.46V56.1h5.46Zm19.38,0V66.48h-1.88V49.2Zm-6,.36V65.72h-8.64V49.56H216V55.2h4.88V49.56ZM216,64h4.88V56.9H216Zm31.4,0v1.7H230.85V64ZM232,59.26l-1.14-1.4a11.53,11.53,0,0,0,7.66-8.66l1.86.36a10.19,10.19,0,0,1-.76,2.54,15.37,15.37,0,0,0,7.78,5l-1,1.5a17.47,17.47,0,0,1-7.68-4.86,13.9,13.9,0,0,1-6.74,5.5Zm16.36-1.42h16.54v1.7H248.35Zm15.8,6.76v1.68H249.29V61h1.88V64.6Zm-14.86-9.06V49.38h1.88V53.9h13v1.64Zm24.14-6.16h1.88a43.24,43.24,0,0,1-.38,5.8,20.09,20.09,0,0,0,5.16,9.26l-1.38,1.28a20.71,20.71,0,0,1-4.42-7A26.64,26.64,0,0,1,271.55,66l-1.68-.88C272.51,60.46,273.43,54.84,273.43,49.38Zm9.78-.18h1.88v6.9h2.44v1.68h-2.44v8.7h-1.88Zm15.06,6.38h-4.88V57.3h4.88Zm-6.76-.08c-2.14-.3-3.2-1.36-3.2-3.12s1.5-3.18,4.5-3.18h6c3,0,4.52,1.3,4.52,3.18s-1.06,2.82-3.2,3.12v1.8h3.94V59H287.55V57.3h4Zm1.3-1.56h6c1.88,0,2.54-.62,2.54-1.56s-.66-1.54-2.54-1.54h-6c-1.68,0-2.54.6-2.54,1.54S290.93,53.94,292.81,53.94Zm6,12.72h-6c-3,0-4.5-1.22-4.5-3.18s1.5-3.2,4.5-3.2h6c3,0,4.52,1.22,4.52,3.2S301.85,66.66,298.83,66.66Zm-6-1.66h6c1.88,0,2.54-.6,2.54-1.52s-.66-1.54-2.54-1.54h-6c-1.68,0-2.54.6-2.54,1.54S290.93,65,292.81,65Zm13-13.74v-1.7H315v1.7h-3.92a33,33,0,0,1-.42,4.86A19,19,0,0,0,316,64.56l-1.42,1.16A21.35,21.35,0,0,1,310,59.14,21.1,21.1,0,0,1,306.75,66l-1.7-.88c3-4.1,4.06-8.62,4.14-13.82Zm12.4-2.06h1.88v6.9h2.44v1.68h-2.44v8.7h-1.88Zm4.34,16.52V64h12.16v1.7Zm13.54.76V49.2H338V66.48Zm-2.82-12.4a5.08,5.08,0,1,1-4.88-4.88A5.08,5.08,0,0,1,333.27,54.08Zm-1.88,0a3.2,3.2,0,0,0-6.4,0h0a3.2,3.2,0,0,0,6.4,0Zm28.46,4.52H358V51.26H345.19v-1.7h14.66Zm.94,1.3v1.7h-7.32v5.06h-1.88V61.6h-7.34V59.9Zm1.9-4.54v-5.8h14.66v1.66H364.57V53.7h12.88v1.66h-6.58v2.12h7.42v1.68H361.75V57.48H369V55.36Zm0,7.34V61h14.66v5.62h-1.88v-4Zm32.36-4.58v1.7H380.19v-6H393V51.26H380.19v-1.7h14.66V55.5H382.07v2.62Zm.74,5.9v1.7H379.25V64H383V60.66h1.88V64h5.26V60.66H392V64Zm16.76.64v1.62H397.69V62.12h12.78v-.88H397.69V59.62h14.66v4.1H399.57v.94Zm-15.8-7.58h16.54v1.64H396.75Zm15.8-2.5V56.2H397.69V52.08h12.78v-.9H397.69V49.56h14.66v4.12H399.57v.9ZM57.64,91.6V89.16a4.07,4.07,0,0,1,3.79-4.33,4.42,4.42,0,0,1,.63,0,4.06,4.06,0,0,1,4.41,3.69,4.42,4.42,0,0,1,0,.63V91.6a4.06,4.06,0,0,1-3.8,4.31,4.28,4.28,0,0,1-.62,0,4.07,4.07,0,0,1-4.41-3.68A4.28,4.28,0,0,1,57.64,91.6Zm14.1-3.82v8.7H69.86V79.2h1.88v6.9h2.44v1.68ZM59.52,89.16V91.6a2.54,2.54,0,0,0,5.08.14V89.16a2.54,2.54,0,1,0-5.08-.2ZM67,83h-10v-1.7h4V78.62H63v2.64H67ZM75,95.72V79.56h1.88V94h8.64v1.7Zm14.28-7.94v8.7H87.36V79.2h1.88v6.9h2.44v1.68Zm2.46,7.94V94h12.16v1.7Zm13.54.76V79.2h1.88V96.48Zm-2.82-12.4a5.08,5.08,0,1,1-5.28-4.88h.2a4.77,4.77,0,0,1,5.07,4.47C102.42,83.81,102.42,83.94,102.42,84.08Zm-1.88,0a3.2,3.2,0,1,0-3.2,3.2h0a3.06,3.06,0,0,0,3.2-2.92A1.31,1.31,0,0,0,100.54,84.08ZM129,87.46h-1.88v-2H114.34V83.82h12.78V81.26H114.34v-1.7H129Zm.2,7.14v1.68H114.34V91.6h1.88v3Zm-15.8-6.2h16.54v1.7H113.4Zm30.92-8.84V95.72h-8.46V79.56h1.88V85.2h4.7V79.56Zm5.82,8.22v8.7h-1.88V79.2h1.88v6.9h2.44v1.68ZM137.74,94h4.7V86.9h-4.7ZM168.2,88.6h-1.88V81.26H153.54v-1.7H168.2Zm.94,1.3v1.7h-7.32v5.06h-1.88V91.6H152.6V89.9Zm16.38-10.7V96.48h-1.88V79.2ZM170.86,95.72V79.56h1.88V94h9v1.7Zm32.16.76h-1.88V79.2H203ZM190,83.14v9c0,1.5.66,2.06,1.6,2.06s1.6-.56,1.6-2.06v-9c0-1.5-.66-2.06-1.6-2.06S190,81.64,190,83.14Zm-1.88,9v-9c0-2.64,1.6-3.76,3.48-3.76s3.48,1.12,3.48,3.76v3h2.16V79.28h1.88v17h-1.88V87.84h-2.16v4.32c0,2.62-1.6,3.74-3.48,3.74S188.16,94.78,188.16,92.16Zm36.18-2.44v6.56h-13.9V89.72Zm-12,4.9h10.14V91.38H212.32ZM226.78,83v1.68h-2.44v4.28h-1.88V79.2h1.88V83Zm-6.2,3.18v1.7H210.06V79.56h9.4v1.7h-7.52v4.88Zm22,8.46v1.68H227.74v-4.5h1.88V94.6Zm-15.8-6.2h16.54v1.7H226.8Zm11.1-1.68h-5.64c-3,0-4.7-1.32-4.7-3.76,0-2.26,1.68-3.76,4.7-3.76h5.64c3,0,4.7,1.5,4.7,3.76C242.6,85.4,240.9,86.72,237.9,86.72ZM232.26,85h5.64c1.88,0,2.62-.84,2.62-2.06s-.74-2.08-2.62-2.08h-5.64c-1.7,0-2.64.86-2.64,2.08S230.38,85,232.26,85Zm27.14,4.7h-5.26c-2.62,0-4.7-.94-4.7-3.28s2.08-3.3,4.7-3.3h5.26c2.64,0,4.7.94,4.7,3.3S262,89.72,259.4,89.72ZM265,91v1.68h-7.32v3.94h-1.88V92.72H248.5V91Zm-10.9-3h5.26c1.88,0,2.74-.64,2.74-1.58s-.86-1.6-2.74-1.6h-5.26c-1.88,0-2.72.66-2.72,1.6S252.26,88,254.14,88Zm10.16-6h-15v-1.7h6.44v-1.7h2v1.7h6.62Zm1.54,15.4-.56-.76a2.47,2.47,0,0,0,1.12-2.44V93.3h2.16v.92A3.19,3.19,0,0,1,265.84,97.42Zm9-17.86h7.32v1.7h-2.82a43.5,43.5,0,0,1-.26,4.42,24.69,24.69,0,0,0,4.08,8.58l-1.54,1.08a26.22,26.22,0,0,1-3.16-6.08,23.4,23.4,0,0,1-2.66,6.7l-1.72-.74c2.54-4.1,3.34-8.5,3.38-14h-2.62Zm14.66-.36V96.48h-1.88V87.84h-2.26v8.44H283.5v-17h1.88v6.86h2.26V79.2Zm17.5,0v9.86h-1.88V84.84h-2.2v4.22H301.1V79.28h1.84v3.86h2.2V79.2Zm-4.14,17.46h-5.64c-2.82,0-4.5-1.42-4.5-3.46s1.68-3.48,4.5-3.48h5.64c2.82,0,4.52,1.42,4.52,3.48S305.7,96.66,302.88,96.66ZM297.24,95h5.64c1.5,0,2.54-.7,2.54-1.8s-1-1.82-2.54-1.82h-5.64c-1.5,0-2.54.7-2.54,1.82S295.74,95,297.24,95Zm-2.62-15.8h1.88a20,20,0,0,1-.3,3.46,12.1,12.1,0,0,0,4.2,4.5l-1.2,1.4a17.21,17.21,0,0,1-3.6-3.68,11.36,11.36,0,0,1-2.56,4.3l-1.66-1C293.76,85.92,294.62,82.78,294.62,79.2Zm34.5,15.52-.76,1.56a14.25,14.25,0,0,1-6.94-2.88,10,10,0,0,1-6.48,2.88l-.88-1.52c3.2-.3,5.94-1.58,7-4.14l1.8.52a8.88,8.88,0,0,1-.48,1,13.55,13.55,0,0,0,6.74,2.6ZM326.84,79.2h1.88V91.36h-1.88Zm-8.9,3H320c2.06,0,3.5,1,3.5,2.64s-1.44,2.62-3.5,2.62h-.16V88.6h5.58v1.66H313.3V88.6H318V87.48h-.06c-2.06,0-3.5-1-3.5-2.62S315.88,82.22,317.94,82.22Zm0,3.68H320c1.06,0,1.62-.42,1.62-1s-.56-1.1-1.62-1.1h-2.1c-1.06,0-1.62.48-1.62,1.1S316.88,85.9,317.94,85.9Zm.1-6V78.62h1.88v1.32h4.5v1.64H313.68V79.94ZM331.72,87l-.92-1.5a9.68,9.68,0,0,0,7.66-6.3l1.86.36a8.17,8.17,0,0,1-.62,1.5,15.27,15.27,0,0,0,7.64,3.76l-.84,1.54a16.75,16.75,0,0,1-7.7-3.84A12,12,0,0,1,331.72,87Zm15.62,2.16v1.68H340v5.82h-1.88V90.84H330.8V89.16Zm20.58-10V96.48H366V79.2Zm-6,.36V95.72h-8.64V79.56h1.88V85.2H360V79.56ZM355.14,94H360V86.9h-4.88ZM385.6,79.56v1.7h-5.76a8.12,8.12,0,0,1-.62.8,15.19,15.19,0,0,0,7,2.52l-1,1.5A15.91,15.91,0,0,1,378,83.22a13.36,13.36,0,0,1-6.7,3.1l-1-1.48a12.37,12.37,0,0,0,7.14-3.58h-6.58v-1.7Zm-4.32,17.1h-6c-2.9,0-4.5-1.22-4.5-3.08s1.6-3.1,4.5-3.1h2v-1.6H370V87.2h16.54v1.68h-7.42v1.6h2.16c2.92,0,4.52,1.22,4.52,3.1s-1.6,3.08-4.52,3.08Zm-6-1.66h6c1.88,0,2.54-.6,2.54-1.42s-.66-1.46-2.54-1.46h-6c-1.68,0-2.54.6-2.54,1.46S373.38,95,375.26,95Zm27.66,1.48H401V79.2h1.88Zm-13-13.34v9c0,1.5.66,2.06,1.6,2.06s1.6-.56,1.6-2.06v-9c0-1.5-.66-2.06-1.6-2.06S389.94,81.64,389.94,83.14Zm-1.88,9v-9c0-2.64,1.6-3.76,3.48-3.76S395,80.5,395,83.14v3h2.16V79.28h1.88v17h-1.88V87.84H395v4.32c0,2.62-1.6,3.74-3.48,3.74S388.06,94.78,388.06,92.16ZM125.23,124v1.7h-5.7V109.56h5.24v1.7h-3.36V124Zm-6.44,0v1.7h-5V109.56h5v1.7h-3.1V124Zm9.5-6.24v8.7h-1.88V109.2h1.88v6.9h2.24v1.68Zm12.8,6.24v1.7h-9.78v-9.2h6.58v-5.26h-6.58v-1.7h8.46v8.66h-6.58V124Zm4.5-6.24v8.7h-1.88V109.2h1.88v6.9H148v1.68Zm5.84-8.4h1.88a43.24,43.24,0,0,1-.38,5.8,20.09,20.09,0,0,0,5.16,9.26l-1.38,1.28a20.71,20.71,0,0,1-4.42-7,26.64,26.64,0,0,1-2.74,7.22l-1.68-.88C150.51,120.46,151.43,114.84,151.43,109.38Zm10.16-.18h1.88v17.28h-1.88v-8.7h-5.46V116.1h5.46Zm8.72,11.28v-5.64c0-3.68,1.88-5.46,4.62-5.46s4.6,1.78,4.6,5.46v5.64c0,3.64-1.88,5.42-4.6,5.42S170.31,124.12,170.31,120.48Zm1.88-5.64v5.64c0,2.62.94,3.74,2.74,3.74s2.72-1.12,2.72-3.74v-5.64c0-2.64-.94-3.76-2.72-3.76S172.19,112.2,172.19,114.84Zm12.6,2.94v8.7h-1.88V109.2h1.88v6.9h2.44v1.68Zm13,7.94H188V109.56h8.64v1.7h-6.76v5.08h6.76V118h-6.76v6h7.9Zm4.88-16.52v17.28h-1.88V109.2ZM221.29,124v1.7H204.75V124Zm-15.4-4.76-1.14-1.4a11.53,11.53,0,0,0,7.66-8.66l1.86.36a10.19,10.19,0,0,1-.76,2.54,15.37,15.37,0,0,0,7.78,5l-1,1.5a17.47,17.47,0,0,1-7.68-4.86,13.9,13.9,0,0,1-6.74,5.5Zm19.18-8v3h12.78V116H225.07v3.1h13v1.7H223.19v-11.2h14.66v1.7ZM238.79,124v1.7H222.25V124Zm16.38,2.46h-1.88V109.2h1.88Zm-13-13.34v9c0,1.5.66,2.06,1.6,2.06s1.6-.56,1.6-2.06v-9c0-1.5-.66-2.06-1.6-2.06S242.19,111.64,242.19,113.14Zm-1.88,9v-9c0-2.64,1.6-3.76,3.48-3.76s3.48,1.12,3.48,3.76v3h2.16v-6.86h1.88v17h-1.88v-8.44h-2.16v4.32c0,2.62-1.6,3.74-3.48,3.74S240.31,124.78,240.31,122.16Zm17.7-12.6h6v4c0,4.9-1.56,9.08-5.14,12.14l-1.68-1a13.25,13.25,0,0,0,4.94-10.92v-2.52H258Zm10.62-.28v17h-1.88v-8.44h-2.36v-1.7h2.36v-6.86Zm4,17.2h-1.88V109.2h1.88Zm13.62-16.92v16.16h-6.58V109.56h1.88v6h2.82v-6ZM281.59,124h2.82v-6.74h-2.82Zm12.78-14.82v17.28h-1.88v-8.64h-2.26v8.44h-1.88v-17h1.88v6.86h2.26V109.2Zm17.68.36v7.52H297.39v-7.52h1.88v2.18h10.9v-2.18Zm-6.3,13.56h-1.88v-2.64h-7.42v-1.7H313v1.7h-7.24Zm6.5,1.48v1.68H297.39v-4.5h1.88v2.82Zm-13-9.16h10.9v-2.06h-10.9Zm22.58,3.16v3.76a3.57,3.57,0,0,1-7.14,0V118.6a3.57,3.57,0,0,1,7.14,0ZM320,122.36V118.6c0-1.14-.56-1.88-1.7-1.88s-1.68.74-1.68,1.88v3.76c0,1.12.56,1.86,1.68,1.86s1.7-.74,1.7-1.86Zm9.4-13.16v17.28h-1.88v-8.64h-2.26v8.44h-1.88v-17h1.88v6.86h2.26V109.2Zm-7.12,2.06V113h-7.92v-1.7h3v-2.64h1.88v2.64ZM342,118.6h-4.52c-3.2,0-5.46-1.88-5.46-4.7s2.26-4.7,5.46-4.7H342c3.18,0,5.44,1.88,5.44,4.7S345.17,118.6,342,118.6Zm-4.52-1.7H342c2.06,0,3.46-1.22,3.46-3s-1.4-3-3.46-3h-4.52c-2.06,0-3.48,1.22-3.48,3S335.41,116.9,337.47,116.9ZM348,124v1.7H331.45V124h3.76v-4.3h1.88V124h5.26v-4.3h1.88V124Zm3.62,1.52h-2.26V123.3h2.26Z"/><path id="패스_11217" data-name="패스 11217" class="cls-3" d="M144.09,160.92V151.2H146v9.72Zm-9.4-9.72h1.88a12.5,12.5,0,0,1-.32,2.92,14,14,0,0,0,5.06,4.74l-1.16,1.44a17.24,17.24,0,0,1-4.58-4.1,10.4,10.4,0,0,1-3.8,4.6l-1.44-1.28a9.29,9.29,0,0,0,4.36-8.32Zm-2.82,17.08v-6.56H146v6.56Zm12.22-1.66v-3.24H133.75v3.24Zm19.76,0v1.66H149v-4.42h12.78v-1.08H149v-1.66h14.66v4.4H150.87v1.1Zm-15.8-8.28h16.54V160H148.05Zm15.6-6.78v1.68H149v-1.68Zm-10,4h5l.46-1.84H161l-.46,1.84h3.28v1.62h-15v-1.62h3v-1.84h1.88Zm12.8,8v-2.44a4.42,4.42,0,0,1,8.84,0v2.44a4.42,4.42,0,0,1-8.84,0Zm14.1-3.82v8.7h-1.88V151.2h1.88v6.9H183v1.68Zm-12.22,1.38v2.44a2.54,2.54,0,0,0,5.08.14v-2.58a2.54,2.54,0,1,0-5.08-.2Zm7.52-6.2h-10v-1.7h4v-2.64h1.88v2.64h4.08Zm18.44,12.76H183.81V151.56h9.4v1.7h-7.52V166h8.64Zm3.76-7.94v8.7h-1.88V151.2h1.88v6.9h2.44v1.68Zm2.46.06h16.54v1.7H200.55Zm15.8,6.76v1.68H201.49V163h1.88v3.56Zm-14.86-9.06v-6.16h1.88v4.52h13v1.64Zm22.24,3.82-1.48-1.2a8.51,8.51,0,0,0,4.3-6.9H223v-1.7h9.18v1.7h-3.76a12,12,0,0,1-.26,1.8,13.46,13.46,0,0,0,4.9,4.4l-1.22,1.4a15.8,15.8,0,0,1-4.4-3.78,10.42,10.42,0,0,1-3.72,4.28Zm16-6V157h-2.44v4.64h-1.88V151.2h1.88v4.12Zm-6.38,13.34h-5.84c-2.82,0-4.32-1.42-4.32-3.28s1.5-3.28,4.32-3.28h5.84c2.82,0,4.32,1.4,4.32,3.28S236.17,168.66,233.35,168.66ZM227.51,167h5.84c1.5,0,2.34-.6,2.34-1.62s-.84-1.62-2.34-1.62h-5.84c-1.5,0-2.34.6-2.34,1.62S226,167,227.51,167Zm13.72-5.64-1.48-1.2a8.51,8.51,0,0,0,4.3-6.9h-3.54v-1.7h9.18v1.7h-3.76a12,12,0,0,1-.26,1.8,13.46,13.46,0,0,0,4.9,4.4l-1.22,1.4a15.8,15.8,0,0,1-4.4-3.78,10.42,10.42,0,0,1-3.72,4.28Zm13.94.74v6.18h-14.1V162.1ZM243,166.62h10.34v-2.86H243Zm10.34-15.42h1.88v10.28h-1.88v-4.64h-3.94v-1.7h3.94Zm19.76,15.4v1.68H258.19v-4.5h1.88v2.82Zm-15.8-6.2h16.54v1.7H257.25Zm11.1-1.68h-5.64c-3,0-4.7-1.32-4.7-3.76,0-2.26,1.68-3.76,4.7-3.76h5.64c3,0,4.7,1.5,4.7,3.76C273.05,157.4,271.35,158.72,268.35,158.72Zm-5.64-1.7h5.64c1.88,0,2.62-.84,2.62-2.06s-.74-2.08-2.62-2.08h-5.64c-1.7,0-2.64.86-2.64,2.08S260.83,157,262.71,157Zm31.66-5.82v9.72h-1.88V151.2Zm-13.84,17.08-1.4-1.26a7.71,7.71,0,0,0,4.48-5.82l1.78.26a7.61,7.61,0,0,1-.52,2.1,9.67,9.67,0,0,0,2.58,2.6,7.58,7.58,0,0,0,2.72-5l1.8.26a6.54,6.54,0,0,1-.52,2.22,15.77,15.77,0,0,0,4.14,3.06l-1.08,1.46a19.73,19.73,0,0,1-3.88-2.92,10.23,10.23,0,0,1-3.1,3.08A13.12,13.12,0,0,1,284,165.2a9.61,9.61,0,0,1-3.44,3.08Zm.68-12.66a2.73,2.73,0,1,0,2.74-2.73,2.74,2.74,0,0,0-2.74,2.73Zm-1.88,0a4.61,4.61,0,1,1,4.4,4.4A4.62,4.62,0,0,1,279.33,155.62Zm17.88-2.36v-1.7h9.18v1.7h-3.92a33,33,0,0,1-.42,4.86,19,19,0,0,0,5.38,8.44L306,167.72a21.35,21.35,0,0,1-4.62-6.58,21.1,21.1,0,0,1-3.24,6.82l-1.7-.88c3-4.1,4.06-8.62,4.14-13.82ZM310,151.2h1.88v17.28H310Zm21.44,5.18v1.7H329v6.18h-1.88V151.2H329v5.18Zm-2.06,10.22v1.68H315.09v-5.44H317v3.76Zm-5.82-15v9.22h-8.84v-9.22Zm-7,7.52h5.08v-5.82h-5.08Zm14.7,10.34-.56-.76a2.47,2.47,0,0,0,1.12-2.44v-.92H334v.92A3.19,3.19,0,0,1,331.29,169.42Z"/><path id="패스_11216" data-name="패스 11216" class="cls-3" d="M87,185.94v2.52H84.74V194H82.08V181.2h2.66v4.74ZM85.1,196v2.42H70.54V192.7h2.64V196Zm-4.5-7.24V191H70.16v-9.48h9.4v2.28H72.82v5Zm12.92-5a10.66,10.66,0,0,1-.26,1.48,12.75,12.75,0,0,0,4.54,3.9L96.22,191a14.81,14.81,0,0,1-4-3.26,10.23,10.23,0,0,1-3.44,3.66l-1.92-1.66a8,8,0,0,0,4-6H87.66v-2.26h9.28v2.26ZM102.6,192v6.42H88.22V192Zm-11.72,4.22H100v-2H90.88Zm11.72-15v10.24H100v-4.28H96.6v-2.28H100V181.2ZM120.38,196v2.34h-15V193.5H108V196Zm-15.88-6H121v2.3H104.5Zm11.18-1.24h-5.82c-3,0-4.7-1.44-4.7-3.78,0-2.18,1.7-3.8,4.7-3.8h5.82c3,0,4.7,1.62,4.7,3.8C120.38,187.34,118.7,188.78,115.68,188.78Zm-5.8-2.22h5.78c1.32,0,2-.64,2-1.56s-.64-1.56-2-1.56h-5.78c-1.22,0-2,.64-2,1.56S108.56,186.56,109.88,186.56Zm31.92-5.36v17.28h-2.64v-8.24h-1.88v8h-2.62v-17h2.62v6.54h1.88V181.2Zm-14.94,16.52V181.48h2.66V195.3h4.08v2.42Zm17.6-16.24h8.36v4.18a13.33,13.33,0,0,1-7.4,12.08l-1.82-1.92c4.22-2.06,6.56-5.68,6.56-9.8V183.9h-5.7Zm14.48,8.76v8.24h-2.66V181.2h2.66v6.5h2.24v2.54Zm22.06-9v12.3h-2.54v-5.82h-1.64v5.54h-2.48V181.28h2.48v4.08h1.64V181.2Zm.28,14.76v2.42H166.62v-5.54h2.66V196Zm-7.94-7.3v2.4h-7.28v-9.58h2.64v7.18Zm29.46,1.84h-2.66v-6.58h-12.2v-2.44H202.8Zm.84,1.12v2.46h-6.86v4.58H194v-4.58H187.1v-2.46Zm1.8-3.92v-6.22H220.3v2.16H208.1v1.9h12.3v2.16h-6.26v1.66h7v2.18H204.6v-2.18h6.88V187.7Zm0,7.38V192.9H220.3v5.76h-2.66v-3.58ZM238,189.82v2.3h-15v-6.48h12.2v-1.88h-12.2v-2.28H237.8v6.38H225.6v2Zm.66,5.58v2.42H222.1V195.4h3.46v-2.68h2.66v2.68h4.32v-2.68h2.64v2.68Zm1.72-13.92h8.36v4.18a13.33,13.33,0,0,1-7.4,12.08l-1.82-1.92c4.22-2.06,6.56-5.68,6.56-9.8V183.9h-5.7Zm14.48,8.76v8.24h-2.66V181.2h2.66v6.5h2.24v2.54ZM276.9,196v2.42H262.34v-5.5H265V196Zm1.88-10v2.52h-2.24v5.62h-2.66V181.2h2.66V186Zm-7.58-4.48v9.88H262v-9.88h2.54v2.78h4.18v-2.78Zm-6.7,7.66h4.18v-2.68H264.5Zm17.8-.34h12.38v2.46h-15v-9.78H294.5v2.44H282.3Zm13,6.58v2.44H278.8v-2.44Zm3.12,2.58L296,196.8c2.56-4.6,3.36-10,3.36-15.42H302a47.1,47.1,0,0,1-.34,5.82,20.17,20.17,0,0,0,5.1,8.92l-2,1.7a19.67,19.67,0,0,1-4-6A25.9,25.9,0,0,1,298.46,198ZM311.9,181.2v17.28h-2.64V181.2Zm21.7,0v17.28H331v-8.24h-1.88v8h-2.62v-17h2.62v6.54H331V181.2Zm-14.94,16.52V181.48h2.66V195.3h4.08v2.42Zm17.6-16.24h8.36v4.18a13.33,13.33,0,0,1-7.4,12.08l-1.82-1.92c4.22-2.06,6.56-5.68,6.56-9.8V183.9h-5.7Zm14.48,8.76v8.24h-2.66V181.2h2.66v6.5H353v2.54ZM373,187.62H358v-6.14H372.9v2.12H360.7v1.9H373Zm-15.8,1.26h16.54V191H357.2Zm3.5,7.4h12.38v2.1H358v-6H372.9v2.1H360.7Zm14-6.78h16.54v2.36H374.7ZM390.58,196v2.42h-15v-5.32h2.66V196Zm-15-8.2v-6.48h2.66v4.14h12.34v2.34ZM80.65,222.66v-6.1c0-3.42,1.88-5.28,4.72-5.28s4.76,1.86,4.76,5.28v6.1c0,3.4-1.88,5.24-4.76,5.24S80.65,226.06,80.65,222.66Zm2.54-6.1v6.1c0,1.94.78,2.84,2.18,2.84s2.2-.9,2.2-2.84v-6.1c0-1.92-.78-2.84-2.2-2.84S83.19,214.64,83.19,216.56Zm12.22,3.68v8.24H92.75V211.2h2.66v6.5h2.24v2.54Zm12.8,7.48H98.33V211.48h8.9v2.42H101V218h6.24v2.42H101v4.86h7.22Zm5.06-16.52v17.28h-2.64V211.2Zm18.44,14.18v2.44H115.17v-2.44Zm-15-3.88-1.62-2.06a10.84,10.84,0,0,0,7.32-8.34l2.76.46a10.89,10.89,0,0,1-.8,2.68,14.67,14.67,0,0,0,7.46,4.52l-1.44,2.14a15.93,15.93,0,0,1-7.32-4.36A13.83,13.83,0,0,1,116.69,221.5Zm19.48-7.7V216h12.2v2.28h-12.2v2.3h12.38v2.32h-15V211.48h14.86v2.32Zm13,11.6v2.42H132.67V225.4Zm16.56,3.08h-2.52V211.2h2.52ZM153.13,215.1v9.12c0,.94.44,1.38,1.12,1.38s1.12-.44,1.12-1.38V215.1c0-.94-.42-1.38-1.12-1.38S153.13,214.16,153.13,215.1Zm-2.48,9.12V215.1c0-2.62,1.62-3.82,3.6-3.82a3.45,3.45,0,0,1,3.65,3.26,2.63,2.63,0,0,1,0,.56v2.7h1.52v-6.52h2.5v17h-2.5v-8.06h-1.52v4a3.62,3.62,0,1,1-7.24.29Zm17.68-12.74h6.26v4.74c0,.54,0,1.06-.06,1.58h2v-6.52h2.58v17h-2.58v-8.06h-2.36a13.3,13.3,0,0,1-4.46,7.58l-2.18-1.5a12,12,0,0,0,4.42-9.82V213.9h-3.64Zm14.94,17h-2.64V211.2h2.64Zm11.58-17V221h-9v-9.48Zm-6.48,7.28h3.94v-5h-3.94Zm12.4,7.2v2.42H186.21V222.7h2.64V226Zm1.88-10v2.52h-2.24V224h-2.66V211.2h2.66v4.74Zm5-4.46H216v4.18a13.33,13.33,0,0,1-7.4,12.08l-1.82-1.92c4.22-2.06,6.56-5.68,6.56-9.8V213.9h-5.7Zm14.48,8.76v8.24h-2.66V211.2h2.66v6.5h2.24v2.54Zm2.92-8.76h9.6v2.42h-3.78a31.21,31.21,0,0,1-.36,4.32,19.49,19.49,0,0,0,5.14,7.92l-2,1.68a21.8,21.8,0,0,1-4-5.64,20.1,20.1,0,0,1-2.94,5.78l-2.36-1.28c2.74-3.74,3.86-7.64,3.94-12.78H225ZM240,211.2v17.28h-2.64V211.2Zm18.68,8.42V211.2h2.66v3.14h2.24v2.5h-2.24v2.78Zm-11.54,8.76v-7.5h2.64V226H253v2.38Zm11.42-2.8h-2c-.44,0-.76.18-.76.52s.32.54.76.54h2c.44,0,.76-.2.76-.54S259,225.58,258.53,225.58Zm-2-1.92h2.08c1.8,0,3,.94,3,2.44s-1.24,2.46-3,2.46h-2.08c-1.78,0-3-.94-3-2.46S254.71,223.66,256.49,223.66Zm-7.6-8.14a2,2,0,0,0,1.89,2.08H251a2.08,2.08,0,1,0,.13-4.16H251a2,2,0,0,0-2.1,1.87Zm-2.62,0c0-2.48,2-4.32,4.72-4.32s4.76,1.84,4.76,4.32-2,4.32-4.76,4.32S246.27,218,246.27,215.52Zm9.92,5.58v-1.36h2.64v1.36H262v2h-8.82v-2ZM268,215h7.52c.7,0,1.22-.32,1.22-.88s-.52-.84-1.22-.84H268c-.7,0-1.14.3-1.14.84s.44.88,1.14.88Zm0-3.76h7.52c2.36,0,3.94,1,3.94,2.88s-1.58,2.9-3.94,2.9H268c-2.38,0-3.76-1-3.76-2.9S265.61,211.2,268,211.2Zm11.46,15.2v2h-15V223.5h12.2v-.88h-12.2v-2h14.86v4.84h-12.2v.92Zm-15.88-8.66h16.54v2H263.57Zm22.9,1.44-1.3-2.16a9.29,9.29,0,0,0,7.4-5.92l2.74.56a10,10,0,0,1-.6,1.48,14.8,14.8,0,0,0,7.2,3.34c-.42.72-.82,1.48-1.22,2.22a16.79,16.79,0,0,1-7.36-3.52,12.17,12.17,0,0,1-6.86,4Zm15.34,1.88v2.44H295v5.16h-2.82V223.5h-6.86v-2.44Zm20.76-9.86v9.72h-2.64V211.2Zm-13.74,17.18L307,226.64a7,7,0,0,0,4.22-5.44l2.52.36a6.75,6.75,0,0,1-.48,2,6.83,6.83,0,0,0,2.16,2.12,6.87,6.87,0,0,0,2.36-4.46l2.54.36a7.17,7.17,0,0,1-.5,2,14.22,14.22,0,0,0,3.94,2.76l-1.46,1.94a17.53,17.53,0,0,1-3.64-2.58,9.26,9.26,0,0,1-3.16,2.74,10.63,10.63,0,0,1-3.4-2.82,9.25,9.25,0,0,1-3.22,2.74Zm1-12.68a2.21,2.21,0,1,0,2.2-2.26,2.14,2.14,0,0,0-2.2,2.08Zm-2.62,0a4.85,4.85,0,1,1,5.17,4.51H312a4.51,4.51,0,0,1-4.81-4.2C307.17,215.91,307.17,215.81,307.17,215.7Zm28.3,12H325.13V211.48h9.36v2.42h-6.7v11.42h7.68Zm4.24-7.48v8.24h-2.66V211.2h2.66v6.5H342v2.54Zm2.26-.74h16.54v2.36H342ZM357.85,226v2.42h-15v-5.32h2.66V226Zm-15-8.2v-6.48h2.66v4.14h12.34v2.34Zm27.38-4a10.66,10.66,0,0,1-.26,1.48,12.75,12.75,0,0,0,4.54,3.9L372.89,221a14.81,14.81,0,0,1-4-3.26,10.23,10.23,0,0,1-3.44,3.66l-1.92-1.66a8,8,0,0,0,4-6h-3.26v-2.26h9.28v2.26Zm9.08,8.22v6.42H364.89V222Zm-11.72,4.22h9.08v-2h-9.08Zm11.72-15v10.24h-2.64v-4.28h-3.36v-2.28h3.36V211.2Zm2.38-.28h2.64V223h-2.64Zm2.84,17.26h-3v-3h3Z"/></g><rect class="cls-4" width="460" height="234"/></g></g></svg>