<svg xmlns="http://www.w3.org/2000/svg" width="213" height="86" viewBox="0 0 213 86"><defs><style>.cls-1{fill:#999;}.cls-2{fill:none;}</style></defs><title>txt_sec5_article_info5</title><g id="Layer_2" data-name="Layer 2"><g id="Layer_1-2" data-name="Layer 1"><g id="_6_txt05" data-name=" 6 txt05"><path id="패스_11183" data-name="패스 11183" d="M7.76,1.25v13H.63v-13H2.68V5.38h3V1.25Zm4.54,7v6.59H10.17V1H12.3v5.2h1.79v2ZM2.68,12.32h3v-5h-3ZM26.83,1V14.85H24.72V1ZM16.76,5.32V10.2c0,1.55.63,2.27,1.75,2.27s1.76-.72,1.76-2.27V5.32c0-1.54-.63-2.28-1.76-2.28S16.76,3.78,16.76,5.32Zm-2,4.88V5.32c0-2.74,1.5-4.23,3.78-4.23s3.81,1.49,3.81,4.23V10.2c0,2.72-1.5,4.19-3.81,4.19S14.73,12.92,14.73,10.2ZM41.15,1.25V10H29.26V1.25h2.13v2.4H39V1.25ZM31.39,8H39V5.6H31.39Zm10.43,4.35v2H28.59v-2ZM43.43,1.25h6.69V4.6a10.67,10.67,0,0,1-5.92,9.66l-1.45-1.54A8.67,8.67,0,0,0,48,4.88V3.18H43.43ZM55,8.26v6.59H52.89V1H55v5.2h1.79v2ZM73.15,1V14.85H71V1ZM63.08,5.32V10.2c0,1.55.63,2.27,1.75,2.27s1.76-.72,1.76-2.27V5.32C66.59,3.78,66,3,64.83,3S63.08,3.78,63.08,5.32Zm-2,4.88V5.32c0-2.74,1.5-4.23,3.78-4.23s3.81,1.49,3.81,4.23V10.2c0,2.72-1.51,4.19-3.81,4.19S61.05,12.92,61.05,10.2Zm27.09,2.17v2H74.91v-2ZM75.43,1.25h5.41v9.84H78.73V3.2h-3.3Zm6.1,0h5.94v9.84H85.34V3.2H81.53Zm7.62,6.42h13.23V9.56H89.15Zm12.7,5.17v1.93h-12V10.52H92v2.32Zm-12-6.56V1.09H92V4.4h9.87V6.28ZM107,7.11h13.23V8.84H107Zm9.18-.8h-5.12c-2.33,0-3.53-.91-3.53-2.64S108.72,1,111.05,1h5.12c2.32,0,3.52,1.05,3.52,2.64S118.49,6.31,116.17,6.31Zm-5.1-1.73h4.69c1.17,0,1.76-.24,1.76-.91s-.59-.91-1.76-.91h-4.33c-1.07,0-1.76.24-1.76.91s.42.91,1.4.91Zm8.48,5.22v5H107.66v-5Zm-9.76,3.28h7.63V11.49h-7.63Zm21.81-2.15h-3.17V9.3h3.17V1h2.11V11.75H131.6Zm2.41,2v1.89H122.2V11h2.13v1.87Zm-7.52-6.51h-1.65c-2,0-3.23-1-3.23-2.67S122.81,1,124.84,1h1.65c2,0,3.23,1.06,3.23,2.68S128.52,6.37,126.49,6.37Zm-1.65-1.68h1.65c.7,0,1.2-.35,1.2-1s-.5-1-1.2-1h-1.65c-.72,0-1.2.34-1.2,1s.48,1,1.2,1ZM130.38,7v1.7h-4.32v2h-2.13v-2h-2.7V7Zm10.42,7.44-2-.92a25,25,0,0,0,2.69-12.34h2.13a40.15,40.15,0,0,1-.27,4.65A16.08,16.08,0,0,0,147.47,13l-1.6,1.36a15.68,15.68,0,0,1-3.17-4.79,21.45,21.45,0,0,1-1.9,4.9ZM151.55,1V14.85h-2.12V1Zm7,2a9.38,9.38,0,0,1-.2,1.18A10.17,10.17,0,0,0,162,7.37L160.75,8.9a11.93,11.93,0,0,1-3.17-2.62,8.3,8.3,0,0,1-2.83,2.94c-.51-.44-1-.88-1.52-1.34a6.45,6.45,0,0,0,3.28-4.82h-2.68V1.26h7.5v1.8Zm8.69,1v2H165.5V9.22h-2.13V1h2.13v3Zm-5,11h-4.81c-2.21,0-3.49-1-3.49-2.72s1.28-2.76,3.49-2.76h4.81c2.23,0,3.5,1.14,3.5,2.76S164.51,15,162.28,15Zm-4.81-1.8H162c1,0,1.66-.25,1.66-.92s-.62-1-1.66-1h-4.12c-1.07,0-1.66.24-1.66,1C156.17,12.84,156.63,13.2,157.47,13.2ZM176.2,5a3.86,3.86,0,0,1-3.75,4h-.39a3.86,3.86,0,0,1-4.12-3.57c0-.14,0-.28,0-.42a3.86,3.86,0,0,1,3.73-4h.4a3.88,3.88,0,0,1,4.14,3.61A2.29,2.29,0,0,1,176.2,5Zm-2.06,0a2,2,0,0,0-1.88-2.18h-.2a2,2,0,0,0-2.09,2,1.34,1.34,0,0,0,0,.2,2,2,0,0,0,1.88,2.19h.2a2,2,0,0,0,2.09-2A1.41,1.41,0,0,0,174.14,5Zm3.78,9.84V1H180V14.85Zm-10.37-.53V12.39H177v1.93Zm22.21-4.48h-.3c-2,0-3.46-1.18-3.46-3s1.5-3,3.46-3h.3c2,0,3.45,1.17,3.45,3S191.71,9.84,189.76,9.84ZM197.87,1V9.84h-2.11V8.53h-2V6.79h2V5.56h-2V3.81h2V1Zm0,9.44V15h-2.11V12.36h-9.54V10.47ZM193.82,1.7V3.43h-8.35V1.7h3V.5h2.12V1.7Zm-4.37,6.47h.3A1.31,1.31,0,0,0,191.17,7s0-.07,0-.1a1.33,1.33,0,0,0-1.34-1.32h-.39A1.31,1.31,0,0,0,188,6.74a.41.41,0,0,0,0,.11,1.3,1.3,0,0,0,1.28,1.32Zm23,4.67v1.93H200.6V10.23h2.13v2.61ZM212.11,1V11.27H210V1Zm-9.47,0h2.13a12.76,12.76,0,0,1-.35,3,11.65,11.65,0,0,0,3.92,3.66l-1.27,1.58a13.08,13.08,0,0,1-3.42-3A8.89,8.89,0,0,1,201,9.59l-1.58-1.36A8.56,8.56,0,0,0,202.63,1ZM12.81,36.19v1.58H.78V34h9.76v-.63H.78V31.8H12.67v3.78H2.91v.61ZM.11,29.57H13.34v1.6H.11Zm12.56-5.31V25.9H.78V24.25Zm-7.75,3.1H8.28c.08-.39.18-.77.28-1.16h2.19l-.29,1.16h2.35v1.58H.63V27.36H2.79V26.2H4.92Zm17,6.57a11.3,11.3,0,0,0,5.36,2.15l-.8,1.7a13.53,13.53,0,0,1-5.68-2.4,8.8,8.8,0,0,1-5.06,2.43l-1-1.68c2.61-.26,4.82-1.57,5.65-3.54l1.95.59A6.59,6.59,0,0,1,21.87,33.93Zm5-9.9v9.14h-2v-4H23.55v3.37h-2V24.09h2v3.23H24.8V24Zm-6,6.46v1.73H14.88V27.36H18.4V26H14.88V24.25H20.4v4.82H16.88v1.42Zm20.34,2.69v4.59H29.26V33.18Zm-9.76,2.91H39V34.84H31.39Zm4.81-6.5v1h5.62v1.73H28.59V30.62h5.49v-1h-5V28h2.16V26.38H33.4V28h3.32c.11-.53.25-1.06.36-1.59h2.2L38.89,28h2.4V29.6Zm4.95-5.34V26H29.26V24.25Zm14.16,13.6h-2V24h2ZM45.2,27.15v7.3c0,.75.35,1.1.9,1.1s.9-.35.9-1.1v-7.3c0-.75-.34-1.1-.9-1.1S45.2,26.4,45.2,27.15Zm-2,7.3v-7.3A2.9,2.9,0,0,1,49,26.84a1.6,1.6,0,0,1,0,.31v2.16h1.22V24.09h2v13.6h-2V31.24H49v3.2a2.9,2.9,0,1,1-5.79.31v-.31Zm15.59,3c-.66-.32-1.32-.61-2-.93a25,25,0,0,0,2.69-12.34h2.13a40.15,40.15,0,0,1-.27,4.65,15.83,15.83,0,0,0,4.08,7.12l-1.6,1.38a15.76,15.76,0,0,1-3.17-4.78,21.63,21.63,0,0,1-1.9,4.9Zm8.64-6.35H63.53v-2h3.9V24h2.11V37.85H67.43Zm20-6.83v6.68H75.58V24.25ZM77.71,29h7.63V26.19H77.71Zm10.43,3.58v2H85.31V38H83.18V34.56H79.87V38H77.76V34.56H74.91v-2Zm1.54-8.34h7.68v1.94h-3A24.83,24.83,0,0,1,94,29.64,15.57,15.57,0,0,0,98.16,36l-1.64,1.34a17.31,17.31,0,0,1-3.21-4.51A16.44,16.44,0,0,1,91,37.44l-1.89-1a16.56,16.56,0,0,0,3.15-10.22H89.68ZM101.63,24V37.85H99.52V24Zm2.73,13.74V33.31h2.13v2.53h9.68v1.93Zm2-13.75h2.12a13.85,13.85,0,0,1-.35,3.08,11.9,11.9,0,0,0,3.92,3.68l-1.26,1.57a12.87,12.87,0,0,1-3.44-3,8.73,8.73,0,0,1-2.66,3.33l-1.58-1.36A8.64,8.64,0,0,0,106.4,24Zm7.36,1.27V24h2.11V34.27h-2.11V29.61h-3V27.9h3V27h-3V25.29Zm20-1V26h-4.51l-.44.56a14,14,0,0,0,5.48,1.53l-.84,1.57a14.17,14.17,0,0,1-5.93-1.9,10.7,10.7,0,0,1-5.25,2.1l-.91-1.54A9.41,9.41,0,0,0,126.72,26H121.9V24.25Zm.14,11.28c0,1.6-1.34,2.46-3.52,2.46h-5.12c-2.17,0-3.53-.86-3.53-2.46s1.36-2.5,3.53-2.5h1.39V32h-5.45V30.28h13.23V32h-5.65v1h1.6c2.18,0,3.52.93,3.52,2.49Zm-2.17,0c0-.48-.4-.82-1.38-.82h-5.07c-.91,0-1.38.34-1.38.82s.4.78,1.38.78h5.07c1,0,1.38-.31,1.38-.78Zm4.68,2.24v-5.5h11.5v5.5Zm9.4-1.79V34.06h-7.27V36Zm0-4.34V24H148v7.61ZM138.4,24h2.12a11.4,11.4,0,0,1-.27,2.47,11.11,11.11,0,0,0,3.86,3.38l-1.27,1.57a13,13,0,0,1-3.36-2.82,8.46,8.46,0,0,1-2.67,3.15l-1.58-1.37A7.3,7.3,0,0,0,138.4,24Zm24.54,11.35v2H149.71v-2ZM158.14,32h-3.62c-2.7,0-4.43-1.68-4.43-4s1.73-4,4.43-4h3.62c2.7,0,4.43,1.67,4.43,4s-1.73,4-4.43,4Zm-3.58-2h3.53a2.06,2.06,0,0,0,.43-4.1h-4a2.06,2.06,0,1,0-.39,4.1Zm22.1,1V32.9h-12V27.63h9.76V26.09h-9.76V24.25h11.89v5.19h-9.76v1.63Zm.52,4.32v1.94H164V35.39h5.47V33.45h2.24v1.94Z"/><path id="패스_11587" data-name="패스 11587" class="cls-1" d="M.2,84.49v-2A2.48,2.48,0,0,1,1.46,80l1.9-1.23a1.85,1.85,0,0,0,.87-1.62c0-1-.42-1.47-1.4-1.47s-1.4.49-1.4,1.47H.2a2.31,2.31,0,0,1,2-2.57,2.49,2.49,0,0,1,.61,0,2.3,2.3,0,0,1,2.62,1.93,2.66,2.66,0,0,1,0,.63,2.72,2.72,0,0,1-1.38,2.51L2.2,80.89a1.6,1.6,0,0,0-.8,1.55v1H5.45v1.08ZM10.76,82V77.24c0-1-.49-1.54-1.4-1.54S8,76.26,8,77.24V82c0,1,.49,1.52,1.4,1.52S10.76,83,10.76,82ZM12,77.12v5a2.38,2.38,0,0,1-2.23,2.5,1.77,1.77,0,0,1-.4,0,2.37,2.37,0,0,1-2.62-2.1,2.54,2.54,0,0,1,0-.39v-5A2.38,2.38,0,0,1,9,74.6a2.77,2.77,0,0,1,.41,0A2.38,2.38,0,0,1,12,76.72C12,76.85,12,77,12,77.12Zm1.27,7.37v-2A2.5,2.5,0,0,1,14.52,80l1.9-1.23a1.81,1.81,0,0,0,.87-1.62c0-1-.42-1.47-1.4-1.47s-1.4.49-1.4,1.47H13.26a2.31,2.31,0,0,1,2-2.57,2.15,2.15,0,0,1,.62,0,2.29,2.29,0,0,1,2.61,1.93,1.9,1.9,0,0,1,0,.63,2.7,2.7,0,0,1-1.38,2.51l-1.87,1.21a1.59,1.59,0,0,0-.79,1.55v1h4v1.08ZM23.83,82V77.24c0-1-.49-1.54-1.4-1.54s-1.4.56-1.4,1.54V82c0,1,.48,1.52,1.4,1.52S23.83,83,23.83,82Zm1.22-4.89v5a2.37,2.37,0,0,1-2.22,2.51h-.4a2.38,2.38,0,0,1-2.62-2.1,2.71,2.71,0,0,1,0-.4v-5A2.38,2.38,0,0,1,22,74.6a2.81,2.81,0,0,1,.41,0A2.38,2.38,0,0,1,25,76.72a1.79,1.79,0,0,1,0,.4Zm11.1-2.87v8.49H34.93V78.63H31V77.54h3.92v-1H31V75.47h3.92V74.25Zm-2.93,5.37v1.1h-6.6V74.48h1.23v5.14Zm3.18,4.64v1.09H27V81.81h1.22v2.45Zm8.05-6.11h1.22v3.18h1.09v1.1H45.67v2.06H44.45V82.43h-3.8v-.85l3.3-7H45.3l-3,6.72h2.2Zm3,1V78.11H55v1.07H51.08v1.48H49.86V79.18ZM48.33,82V81H57.5v2.76H49.56v.67h8.19v1.08H48.33v-2.8h8V82Zm1.84-7.79H52c1.47,0,2.33.66,2.33,1.7s-.86,1.72-2.33,1.72H50.17c-1.47,0-2.33-.68-2.33-1.72S48.7,74.25,50.17,74.25ZM52,75.31H50.17c-.73,0-1.1.28-1.1.64s.37.64,1.1.64H52c.73,0,1.1-.27,1.1-.64S52.73,75.31,52,75.31Zm1.39,5.28V79.53h2.89V74.25H57.5v6.34Z"/><path id="패스_11181" data-name="패스 11181" class="cls-1" d="M10.27,65.27v1.08H.61V63.48H8.92v-.7H.61V61.7h9.53v2.86H1.83v.71ZM0,59.89H10.75V61H0Zm10.14-4.41v3.71H.61V55.48H1.83v.78H8.92v-.78ZM1.83,58.12H8.92v-.79H1.83ZM22,61.18v1.09H12.31v-4h8.31V56.59H12.31V55.48h9.53V59.4H13.53v1.78Zm.48,3.7V66H11.7V64.88h4.77v-2h1.22v2ZM29.76,66H23.89V55.49h5.26v1.1h-4v3.3H29V61H25.12v3.9h4.64Zm2.44-5H29.64V59.89H32.2V55.25h1.22V66.48H32.2Z"/></g><rect class="cls-2" width="213" height="86"/></g></g></svg>