<svg xmlns="http://www.w3.org/2000/svg" width="375" height="66" viewBox="0 0 375 66"><defs><style>.cls-1{fill:#111;}.cls-2{fill:none;}</style></defs><title>txt_sec4_title_w375</title><g id="Layer_2" data-name="Layer 2"><g id="Layer_1-2" data-name="Layer 1"><path class="cls-1" d="M96.31,4.63H93.78l.55-3H89.86l-.55,3H86.5l.55-3H82.58l-.55,3H79.15l-.79,4.31h2.88l-.84,4.58H77.52l-.79,4.31h2.88l-.55,3h4.47l.55-3h2.81l-.55,3h4.47l.55-3h2.53l.79-4.31H92.15L93,8.94h2.53ZM85.71,8.94h2.82l-.84,4.58H84.87ZM117.65,1h-4.07V8.37h-1.1V1h-4.07V21h4.07V12.77h1.1V21h4.07ZM102,15.92V1.66H97.41V21l10.12-1.54v-4.4ZM125.35,6V4.74h13.86V1.44H120.29V9.25h6.93v.88h-7.59v3.52h20.24V10.13h-7.59V9.25h6.93V6Zm0,12.1V14.53h-5.06v6.93h18.92V18.05Zm36.3-17h-4.07V8.37h-1.1V1h-4.07V21h4.07V12.77h1.1V21h4.07ZM146,15.92V1.66h-4.62V21l10.12-1.54v-4.4Zm18.26-1.83v7.37h18.92V18.2H169.35v-.81h13.86v-3.3Zm5.06-8.47v-1h13.86V1.44H164.29V8.81h18.92V5.62Zm-5.72,4.07v3.52h20.24V9.69Zm22,6.93V21h20.24v-4.4Zm19.8-8.91c0-4.36-3-6.71-9.68-6.71s-9.68,2.35-9.68,6.71,3,6.71,9.68,6.71S205.43,12.07,205.43,7.71Zm-4.84,0c0,1.76-1,2.53-4.84,2.53s-4.84-.77-4.84-2.53,1-2.53,4.84-2.53S200.59,6,200.59,7.71Zm12.76,2.42V9.25h13.86V1.44H208.29V5.07h13.86V6H208.29v7.81h18.92V10.13Zm1.87,6.49h-7.59V21h20.24v-4.4h-7.59v-2h-5.06Zm27.39-4.73L244.48,21h5.17L246.79,6.94h-3L245,1.44h-5.17L235.35,21h5.17ZM255.81,1h-5.06V21h5.06Zm9.31,6.16.48-1.1h5.17V1.66h-13v4.4h2.64l-3.08,7.26h5.17l1.87-4.44L266,13.32h5.17l-2.27-6.16Zm11.81,14.52V14.2H257.79v4.18h14.08v3.3Zm0-16.83V1h-5.06V13.32h5.06V9.47h1.76V4.85Zm2.86-3.19V10h4.29v.88h-4.73v3.74h14.3V10.9h-4.73V10h4.29V6.5h-8.36V5.18h8.36V1.66Zm20,20V17.94H285.07V15.52H280v6.16Zm0-20.68h-5.06V15.74h5.06ZM66.9,46.92,68,42.76h6.56v-6.4H55.64v6.4h4.8L55,64.52h7.52l2.72-10.91,2.4,10.91h7.52l-3.84-17.6ZM84.76,35.4H77.4V64.52h7.36Zm2.88,19.2V65.48h27.84V59.4H95V54.6ZM95,46.31v-10H87.64v17l18.88-1.6v-6.4Zm20.48-4V35.4h-7.36V55.88h7.36V49H118V42.28Zm34.88,15.65h-5.73V37.45h-9.95l-3.84,6.27h6.66V57.93h-6.34V64.2h19.2ZM184.28,35.4h-7.36v1.12h-6.08v5.12h6.08v1.6h-6.08v2.37l-8.32.7v-10h-7.36v17L174,51.72V48.36h2.88v7.52h7.36ZM155.16,54.6V65.48h29.12V59.4H162.52V54.6Zm32,0V65.48H215V59.4H194.52V54.6Zm17-1.28A39.9,39.9,0,0,0,206,39.56v-3.2H187.16v6.4h11.46a39.89,39.89,0,0,1-1.86,10.56Zm10.88-11V35.4h-7.36V55.88H215V49h2.56V42.28Zm33.28-6.88h-7.36V64.52h7.36ZM218.52,58.12v6.4h20.8v-6.4Zm13.6-13c0,2.34-1.06,3.68-3.2,3.68s-3.2-1.34-3.2-3.68,1.06-3.68,3.2-3.68S232.12,42.82,232.12,45.16Zm6.88,0c0-6-3.52-9.76-10.08-9.76s-10.08,3.71-10.08,9.76,3.52,9.76,10.08,9.76S239,51.21,239,45.16Zm50.24-9.76h-7.36V38H279v-1.6h-6.72v2.72h-5.44V36.36h-6.72v17L279,51.72V50.44h2.88v5.44h7.36ZM260.12,54.6V65.48h29.12V59.4H267.48V54.6Zm6.72-10.08h5.44v2.34l-5.44.44ZM279,43.08h2.88v2.24H279Zm41,2.72V35.4H312.6V64.52H320V52.84h2.56v-7Zm-18.72-3.1c-6.5,0-9.76,1.95-9.76,6.08s3.26,6.08,9.76,6.08,9.76-2,9.76-6.08-3.26-6.08-9.76-6.08Zm-3.52,15.42h-6.24v6.4H311v-6.4h-6.24V55.88h-7Zm7-21.12V34.44h-7V37H291.8v4.8h18.88V37Zm-3.52,10.5c2.66,0,3.36.35,3.36,1.28s-.7,1.28-3.36,1.28-3.36-.35-3.36-1.28.7-1.28,3.36-1.28Z"/><rect class="cls-2" width="375" height="66"/></g></g></svg>