<svg xmlns="http://www.w3.org/2000/svg" width="375" height="18" viewBox="0 0 375 18"><defs><style>.cls-1{fill:#fff;}.cls-2{fill:none;}</style></defs><title>txt_spot_description_w375</title><g id="Layer_2" data-name="Layer 2"><g id="Layer_1-2" data-name="Layer 1"><path class="cls-1" d="M73,14.88v-1.3l2.36-2.48a25.37,25.37,0,0,0,2.32-2.75,3.73,3.73,0,0,0,.76-2.13,2,2,0,0,0-.59-1.59,2.76,2.76,0,0,0-1.79-.48A5,5,0,0,0,73.5,5l-.36-1.64a6.89,6.89,0,0,1,3.51-.94,4.51,4.51,0,0,1,3,.92,3.29,3.29,0,0,1,1,2.61,4.62,4.62,0,0,1-.28,1.56,5.94,5.94,0,0,1-.87,1.58c-.4.53-.74,1-1,1.3s-.69.76-1.2,1.29l-1.46,1.49h5v1.73Zm14,.22a4.44,4.44,0,0,1-3.47-1.47,6.49,6.49,0,0,1-1.31-4.46V8.4a9.08,9.08,0,0,1,.38-2.79,4.67,4.67,0,0,1,1.07-1.87,4.45,4.45,0,0,1,1.52-1A5,5,0,0,1,87,2.41a4.42,4.42,0,0,1,3.43,1.44,6.43,6.43,0,0,1,1.32,4.5v.77a6.51,6.51,0,0,1-1.33,4.52A4.43,4.43,0,0,1,87,15.1Zm0-1.7a2.05,2.05,0,0,0,1.88-1,6.26,6.26,0,0,0,.61-3.16V8.34q0-4.23-2.47-4.23a2.07,2.07,0,0,0-1.89,1,6.15,6.15,0,0,0-.61,3.13v.95q0,4.23,2.48,4.23Zm19.55,3.21H95.66V11.75h2.09v3.18h8.8Zm-4.94-8.32.26,1.69a29.3,29.3,0,0,1-6.54.56h-1.6V2h2.09V8.78A21.21,21.21,0,0,0,101.61,8.29Zm2.49-3.81h-4V2.84h4V1h2.11V12.63H104.1V7.27h-4V5.65h4Zm12,10.58a8.48,8.48,0,0,1-2.06-.25,5.45,5.45,0,0,1-1.55-.61l.36-1.6a4.77,4.77,0,0,0,1.32.49,6.81,6.81,0,0,0,1.56.21,3.16,3.16,0,0,0,1.94-.52,1.84,1.84,0,0,0,.69-1.55c0-1.23-.86-1.85-2.56-1.87l-1.28,0V7.72l1.13,0a3,3,0,0,0,1.73-.51A1.55,1.55,0,0,0,118,5.86c0-1.12-.73-1.69-2.2-1.69a6.5,6.5,0,0,0-2.63.65l-.25-1.64a6.1,6.1,0,0,1,1.57-.55,8.56,8.56,0,0,1,1.89-.22,4.49,4.49,0,0,1,2.79.8,2.68,2.68,0,0,1,1,2.26A2.9,2.9,0,0,1,118,8.35a2.84,2.84,0,0,1,2.63,3,3.3,3.3,0,0,1-1.22,2.7,5.13,5.13,0,0,1-3.34,1Zm19.55,2H124.14V13.48H133v-.72h-8.86V11.24h11v3.6h-8.84v.74h9.38ZM122.68,3.88A2.2,2.2,0,0,1,123.83,2a5.19,5.19,0,0,1,2.85-.73,5,5,0,0,1,2.8.74,2.25,2.25,0,0,1,1.12,1.94,2.18,2.18,0,0,1-1.13,1.89,5.08,5.08,0,0,1-2.79.74,5.29,5.29,0,0,1-2.85-.74A2.23,2.23,0,0,1,122.68,3.88Zm7.11,6.36V8.85H133V1h2.09v9.65H133v-.41Zm-2.32.43h-2.11V8.72c-1.85.08-3,.11-3.6.11l-.29-1.67c2,0,3.72,0,5.2-.09,2.09-.1,3.83-.24,5.2-.42L132,8.22c-1.22.17-2.74.31-4.58.41Zm-2.15-7.61a1,1,0,0,0-.52.84.93.93,0,0,0,.52.83,3.14,3.14,0,0,0,2.7,0,.94.94,0,0,0,.53-.82,1,1,0,0,0-.53-.83,3.05,3.05,0,0,0-2.7,0Zm11.35,14.25.72-3.64h2.26l-1.3,3.64Zm8.91-9.86V5.75h1.74l.5-3.25h1.53l-.52,3.25h1.76l.54-3.25h1.52l-.53,3.25h1.3v1.7h-1.54l-.35,2.05H153v1.67h-1.68l-.56,3.44h-1.5l.55-3.44H148l-.56,3.44h-1.51l.52-3.44h-1.35V9.5h1.64l.32-2Zm3,0-.36,2.05H150l.36-2ZM167.75,17h-2V9H164.2V16.3h-2v-15h2v6h1.55V1h2Zm-6.15-4.72a14.37,14.37,0,0,1-2.25.33c-1.08.09-2.11.14-3.08.14h-1.44V2.87h2.07v8.18a17.39,17.39,0,0,0,4.43-.42c0,.23.07.55.14,1S161.58,12.25,161.6,12.32Zm20.46-4.93h-4.55V9.17h6.23v1.7H169.25V9.17h6.15V7.39h-4.23V1.54h10.74V3.23h-8.64v2.5h8.79Zm0,9.22h-11V12h2.09V15h8.87ZM198,17h-2V9h-1.54V16.3h-2v-15h2v6H196V1h2Zm-6.15-4.72a14.37,14.37,0,0,1-2.25.33c-1.08.09-2.11.14-3.08.14h-1.44V2.87h2.07v8.18a17.39,17.39,0,0,0,4.43-.42c0,.23.07.55.14,1S191.82,12.25,191.84,12.32ZM214,10H199.49V8.31H214Zm-1.68,6.84h-11v-5.6h10.8v1.69h-8.71v2.24h8.87Zm0-9.84H201.41V1.54h10.73V3.22h-8.63v2.1h8.75ZM223,14.88,218.67,2.53H221l3.24,9.54h0l3.22-9.54h2.07l-4.35,12.35Zm7.94,0V2.53h2.23V14.88Zm4.75,0V2.53H240q4.07,0,4.07,3.12a2.62,2.62,0,0,1-2,2.7V8.4a2.75,2.75,0,0,1,2.56,2.93v0a3.27,3.27,0,0,1-1.1,2.57,4.73,4.73,0,0,1-3.2,1Zm2.2-1.66H240c1.53,0,2.29-.66,2.29-2a1.79,1.79,0,0,0-.6-1.5,3.05,3.05,0,0,0-1.81-.46h-2Zm0-5.43h1.73c1.51,0,2.27-.61,2.27-1.84a1.66,1.66,0,0,0-.53-1.38,2.74,2.74,0,0,0-1.65-.39h-1.82Zm8.53,7.09V2.53h7.7V4.28h-5.49V7.66h4.26V9.39h-4.26v3.74h5.6v1.75Zm11.75-9a2,2,0,0,0,.62,1.51,2.68,2.68,0,0,0,3.38,0,2,2,0,0,0,.63-1.51,1.92,1.92,0,0,0-.63-1.46,2.4,2.4,0,0,0-1.69-.59,2.35,2.35,0,0,0-1.68.59A1.92,1.92,0,0,0,258.2,5.86ZM269,1V17h-2.09V1ZM256,5.88a3.53,3.53,0,0,1,1.23-2.78,5.43,5.43,0,0,1,6.47,0A3.52,3.52,0,0,1,265,5.88a3.52,3.52,0,0,1-1.21,2.77,5.39,5.39,0,0,1-6.47,0A3.54,3.54,0,0,1,256,5.88Zm10.15,7.06c-1.58.2-3.39.36-5.41.46-2.4.1-4.08.14-5,.13l-.31-1.8q3,0,5.22-.09c2.09-.07,3.88-.21,5.36-.4ZM288.08,17H286V1h2.1Zm-3.31-5.22-1.22,1.58a8.45,8.45,0,0,1-2.08-1.92A8.14,8.14,0,0,1,280,9a7.86,7.86,0,0,1-1.5,2.73,8,8,0,0,1-2.34,2l-1.27-1.55a8.28,8.28,0,0,0,4-7.4V2.35h2.18V4.69A7.93,7.93,0,0,0,284.77,11.82Zm5.36-8.08V2h8.45V3.74h-3.07a4.69,4.69,0,0,0,1.14,2.77,5.5,5.5,0,0,0,2.45,1.62L297.94,9.8a7,7,0,0,1-2-1.26,6,6,0,0,1-1.49-1.91A5,5,0,0,1,293,8.8a6,6,0,0,1-2.28,1.43L289.5,8.6a6.34,6.34,0,0,0,2.75-1.89,4.9,4.9,0,0,0,1.11-3ZM292,11.15H302.5v5.9h-2.12V12.83H292Zm12.82-4.62h-2.29v3.81h-2.12V1h2.12V4.8h2.29Z"/><rect class="cls-2" width="375" height="18"/></g></g></svg>