<svg xmlns="http://www.w3.org/2000/svg" width="375" height="92" viewBox="0 0 375 92"><defs><style>.cls-1{fill:#fff;}.cls-2{fill:none;}</style></defs><title>txt_spot_title_w375</title><g id="Layer_2" data-name="Layer 2"><g id="Layer_1-2" data-name="Layer 1"><g id="_1_tit1" data-name=" 1 tit1"><path id="패스_11496" data-name="패스 11496" class="cls-1" d="M133.34,73.63h28.13l1-5.62H134.33Z"/><path id="패스_11497" data-name="패스 11497" class="cls-1" d="M165.37,73.63h28.12l1-5.62H166.36Z"/><path id="패스_11498" data-name="패스 11498" class="cls-1" d="M194.56,18.44h2.08c5.4,0,8.23-2.65,9.1-7.6h-6.19a2,2,0,0,1-2.11,2l-.2,0H185.43l1-5.62H206.1l1-5.63H181.22l-.57,3.24-.18,1-.08.5-.16.9-1,5.63-.5,2.81-.5,2.81h10.12l-.6,3.38H176.51l-1,5.62h28.12l1-5.62H194Z"/><path id="패스_11499" data-name="패스 11499" class="cls-1" d="M193.16,36.23H181.35l.89-5.07h-6.19l-.89,5.07-.45,2.56-.54,3.06h18.39c5.4,0,8.23-2.64,9.1-7.59h-6.19a2,2,0,0,1-2.11,2Z"/><path id="패스_11500" data-name="패스 11500" class="cls-1" d="M207.49,28.05h28.12l1-5.63H208.48Z"/><g id="그룹_4662" data-name="그룹 4662"><g id="그룹_4661" data-name="그룹 4661"><path id="패스_11501" data-name="패스 11501" class="cls-1" d="M246.22,74.07a10.49,10.49,0,0,0,9.92-8.44l1.19-6.75a6.89,6.89,0,0,0-5.15-8.26,6.79,6.79,0,0,0-1.8-.17,10.49,10.49,0,0,0-9.92,8.43l-1.19,6.75a6.88,6.88,0,0,0,5.15,8.27A7.23,7.23,0,0,0,246.22,74.07Zm.42-15.19c.43-2.43,1.82-2.81,2.75-2.81s2.18.38,1.75,2.81L250,65.63c-.43,2.44-1.81,2.82-2.74,2.82s-2.18-.38-1.76-2.81Z"/></g></g><path id="패스_11502" data-name="패스 11502" class="cls-1" d="M206.12,73.63h28.12l1-5.62H207.11Z"/><g id="그룹_4664" data-name="그룹 4664"><g id="그룹_4663" data-name="그룹 4663"><path id="패스_11503" data-name="패스 11503" class="cls-1" d="M205.83,81.65l-.06.35-.59,3.37-.34,1.9L204.18,91h25.88l.66-3.73.33-1.9.6-3.37.06-.35.83-4.71H206.67Zm19,3.72h-13.5L212,82h13.5Z"/></g></g><path id="패스_11504" data-name="패스 11504" class="cls-1" d="M257.77,76.94H237.52l-1,5.62h20.25L255.29,91h6.19L264,76.94Z"/><path id="패스_11505" data-name="패스 11505" class="cls-1" d="M268.72,51h-6.19l-4.06,23.06h6.18l1.59-9h2.81l1-5.62h-2.81Z"/><g id="그룹_4666" data-name="그룹 4666"><g id="그룹_4665" data-name="그룹 4665"><path id="패스_11506" data-name="패스 11506" class="cls-1" d="M288.21,65.41h-2.12l1.29-7.31c.68-3.89-1.73-7-5.4-7s-7.18,3.14-7.87,7l-3.57,20.25c-.68,3.88,1.73,7,5.39,7s7.19-3.14,7.88-7L285.1,71h2.12L283.7,91H289L296,51.63h-5.31ZM278.5,78.35a1.7,1.7,0,0,1-1.57,1.4,1.12,1.12,0,0,1-1.12-1.12.9.9,0,0,1,0-.28l3.57-20.25A1.7,1.7,0,0,1,281,56.69a1.12,1.12,0,0,1,1.12,1.12,1,1,0,0,1,0,.29Z"/></g></g><path id="패스_11507" data-name="패스 11507" class="cls-1" d="M291.13,91h5.3l6.95-39.37h-5.31Z"/><path id="패스_11508" data-name="패스 11508" class="cls-1" d="M311.81,51.63l-4.66,26.43h6.19L318,51.63Z"/><path id="패스_11509" data-name="패스 11509" class="cls-1" d="M304.87,91h6.19l1.19-6.75h-6.19Z"/><path id="패스_11510" data-name="패스 11510" class="cls-1" d="M123.5,51.63h-6.18L110.38,91h6.18L120,71.31h2.82l1-5.62H121Z"/><g id="그룹_4668" data-name="그룹 4668"><g id="그룹_4667" data-name="그룹 4667"><path id="패스_11511" data-name="패스 11511" class="cls-1" d="M223.11,19c8.95,0,13.64-4,14.52-9s-2.4-9-11.35-9-13.65,4-14.52,9S214.15,19,223.11,19Zm2.18-12.38c4.48,0,6.48,1.52,6.15,3.38s-2.86,3.37-7.34,3.37-6.49-1.51-6.16-3.37,2.87-3.38,7.35-3.38Z"/></g></g><g id="그룹_4670" data-name="그룹 4670"><g id="그룹_4669" data-name="그룹 4669"><path id="패스_11512" data-name="패스 11512" class="cls-1" d="M221.56,65.84c8.95,0,13.48-3.11,14.25-7.47s-2.66-7.48-11.62-7.48S210.71,54,209.94,58.37,212.6,65.84,221.56,65.84Zm1.64-9.33c4.48,0,6.63.7,6.42,1.86s-2.6,1.85-7.07,1.85-6.63-.7-6.42-1.85,2.59-1.86,7.07-1.86Z"/></g></g><path id="패스_11513" data-name="패스 11513" class="cls-1" d="M157.63,15.62h-2.81L157.3,1.56h-5.62L147,28.35a19.11,19.11,0,0,1-7.55,1.33l5-28.12h-6.18L133.69,27l-1.46,8.29h5.62A19.9,19.9,0,0,0,146,33.79l-1.26,7.14h5.63l3.47-19.68h2.81l-3.47,19.68h6.19l3.47-19.68,1-5.63L166.3,1.56h-6.19Z"/><path id="패스_11514" data-name="패스 11514" class="cls-1" d="M83.41,65.69H80.59l2.48-14.06H77.45L72.73,78.42a19.32,19.32,0,0,1-7.55,1.33l5-28.12H64L59.46,77.08,58,85.37h5.62a20,20,0,0,0,8.15-1.52L70.51,91h5.62L79.6,71.31h2.81L78.94,91h6.19L88.6,71.31l1-5.62,2.48-14.07H85.89Z"/><path id="패스_11515" data-name="패스 11515" class="cls-1" d="M139.1,82.56h19.68l1-5.62H133.9l-.69,3.93-.3,1.69L132,87.94,131.42,91h19.52c5.4,0,7-2.18,7.63-5.63h-20Z"/><path id="패스_11516" data-name="패스 11516" class="cls-1" d="M136,64.87h20.08c5.4,0,6.46-2.18,7.07-5.63h-20l.5-2.82H163.4l1-5.62H138.51l-.64,3.66-.35,2-.9,5.11Z"/><path id="패스_11517" data-name="패스 11517" class="cls-1" d="M225.14,36.23H213.33l.89-5.07H208l-.9,5.07-.45,2.56-.54,3.06h18.39c5.4,0,8.23-2.64,9.1-7.59h-6.18a2.05,2.05,0,0,1-2.12,2Z"/><path id="패스_11518" data-name="패스 11518" class="cls-1" d="M182.42,85.37H170.61l1.49-8.43h-6.19l-1.49,8.43L164,87.94,163.43,91h18.39c5.4,0,8.23-2.65,9.1-7.59h-6.18a2.05,2.05,0,0,1-2.12,2l-.2,0Z"/><path id="패스_11519" data-name="패스 11519" class="cls-1" d="M195.54,57.27h-6.19a2,2,0,0,1-2.11,2h-12l1.49-8.44h-6.19L169,59.24l-.46,2.56L168,64.86h18.4c5.4,0,8.22-2.64,9.1-7.59Z"/><path id="패스_11520" data-name="패스 11520" class="cls-1" d="M105.57,51.63H95.45l-1,5.62h9.86c-2.64,12.82-10.91,25-13,27.49l5.14,2a84.54,84.54,0,0,0,15.3-35.09Z"/></g><rect class="cls-2" width="375" height="92"/></g></g></svg>