<svg xmlns="http://www.w3.org/2000/svg" width="460" height="130" viewBox="0 0 460 130"><defs><style>.cls-1{fill:#f8f4f0;}.cls-2{fill:#111;}.cls-3{fill:none;}</style></defs><title>txt_sec2_description_w460</title><g id="Layer_2" data-name="Layer 2"><g id="Layer_1-2" data-name="Layer 1"><g id="_3_txt" data-name=" 3 txt"><path id="사각형_140" data-name="사각형 140" class="cls-1" d="M14,113.8H448v16H14Z"/><path id="사각형_146" data-name="사각형 146" class="cls-1" d="M23,80.8H439v16H23Z"/><path id="패스_11220" data-name="패스 11220" d="M50.47,16.76V13.64a3.83,3.83,0,0,1,1.94-3.76L55.33,8A2.8,2.8,0,0,0,56.67,5.5c0-1.5-.64-2.26-2.16-2.26S52.35,4,52.35,5.5H50.47c0-2.82,1.6-3.94,4-3.94s4,1.12,4,3.94a4.17,4.17,0,0,1-2.12,3.86l-2.88,1.86a2.46,2.46,0,0,0-1.22,2.38v1.5h6.22v1.66Zm15.76-3.82V5.6c0-1.5-.76-2.36-2.16-2.36s-2.16.86-2.16,2.36v7.34c0,1.5.74,2.34,2.16,2.34S66.23,14.44,66.23,12.94Zm1.88-7.52v7.7c0,2.34-1.5,3.84-4,3.84s-4-1.5-4-3.84V5.42c0-2.36,1.5-3.86,4-3.86S68.11,3.06,68.11,5.42Zm1.46,11.34V13.64a3.83,3.83,0,0,1,1.94-3.76L74.43,8A2.8,2.8,0,0,0,75.77,5.5c0-1.5-.64-2.26-2.16-2.26S71.45,4,71.45,5.5H69.57c0-2.82,1.6-3.94,4-3.94s4,1.12,4,3.94a4.17,4.17,0,0,1-2.12,3.86l-2.88,1.86a2.46,2.46,0,0,0-1.22,2.38v1.5h6.22v1.66Zm15.76-3.82V5.6c0-1.5-.76-2.36-2.16-2.36S81,4.1,81,5.6v7.34c0,1.5.74,2.34,2.16,2.34S85.33,14.44,85.33,12.94Zm1.88-7.52v7.7c0,2.34-1.5,3.84-4,3.84s-4-1.5-4-3.84V5.42c0-2.36,1.5-3.86,4-3.86S87.21,3.06,87.21,5.42ZM103.79,1V14.06h-1.88V7.74h-6V6.06h6V4.54h-6V2.88h6V1ZM99.27,9.26V11H89.13V1.36H91v7.9Zm4.9,7.14v1.68H89.69V12.64h1.88V16.4Zm1.54,2.82-.56-.76A2.47,2.47,0,0,0,106.27,16V15.1h2.16V16A3.19,3.19,0,0,1,105.71,19.22Zm9-1.7V1.36h1.88V15.82H122v1.7ZM125.35,1.08v17h-1.88V9.26h-4V7.58h4V1.08Zm4,17.2h-1.88V1h1.88ZM146.89,1V18.28H145V1Zm-13,5.64v5.64c0,2.62.94,3.74,2.74,3.74s2.72-1.12,2.72-3.74V6.64c0-2.64-.94-3.76-2.72-3.76S133.91,4,133.91,6.64ZM132,12.28V6.64c0-3.68,1.88-5.46,4.62-5.46s4.6,1.78,4.6,5.46v5.64c0,3.64-1.88,5.42-4.6,5.42S132,15.92,132,12.28ZM158,1.36V17.52h-8.26V1.36h1.88V7h4.5V1.36Zm4.52,8.28h-3.76V7.94h3.76V1h1.88V18.28h-1.88Zm-10.9,6.18h4.5V8.7h-4.5ZM179.89,1.36V17.52h-8.46V1.36h1.88V7H178V1.36Zm5.82,8.22v8.7h-1.88V1h1.88V7.9h2.44V9.58Zm-12.4,6.24H178V8.7h-4.7ZM203.59,1V18.28h-1.88V1Zm-13,5.64v5.64c0,2.62.94,3.74,2.74,3.74s2.72-1.12,2.72-3.74V6.64c0-2.64-.94-3.76-2.72-3.76S190.61,4,190.61,6.64Zm-1.88,5.64V6.64c0-3.68,1.88-5.46,4.62-5.46S198,3,198,6.64v5.64c0,3.64-1.88,5.42-4.6,5.42S188.73,15.92,188.73,12.28ZM221.27,1.36V11.9H206.61V1.36h1.88v3.4h10.9V1.36ZM208.49,10.2h10.9V6.44h-10.9Zm13.72,5.62v1.7H205.67v-1.7Zm1-6.18h16.54v1.7H223.17ZM239,16.4v1.68H224.11V12.84H226V16.4ZM224.11,7.34V1.18H226V5.7h13V7.34Zm36.36,0h-1.88V3.06H245.81V1.36h14.66Zm0,11.08h-1.88V14.34H245.81v-1.7h6.3V10h-7.24V8.32h16.54V10H254v2.62h6.48ZM277.79,1V18.28h-1.88V9.64h-2.82v8.44h-1.88v-17h1.88V7.94h2.82V1ZM263.13,17.52V1.36H265V15.82h4.82v1.7Zm20.94-8.64h16.54v1.68H284.07Zm11.28-1.3h-6c-3,0-4.5-1.14-4.5-3.3,0-2,1.5-3.28,4.5-3.28h6c3,0,4.52,1.3,4.52,3.28C299.87,6.44,298.37,7.58,295.35,7.58Zm-6-1.66h6c1.88,0,2.54-.7,2.54-1.64s-.66-1.64-2.54-1.64h-6c-1.68,0-2.54.7-2.54,1.64S287.45,5.92,289.33,5.92Zm10.34,6.16v6H285v-6Zm-12.78,4.34h10.9V13.74h-10.9Zm32.16-11.3v1.7h-2.44v4.46h-1.88V1h1.88V5.12Zm-2.44,7.16v6.18h-1.88V14H302.51V12.28ZM303.83,5.6V6a2.82,2.82,0,0,0,5.64.15V5.6a2.82,2.82,0,1,0-5.64-.21ZM302,6V5.6a4.7,4.7,0,0,1,9.4,0V6A4.7,4.7,0,0,1,302,6Zm24.7-4.8h1.88a45,45,0,0,1-.38,5.8,20.09,20.09,0,0,0,5.16,9.26l-1.38,1.28a20.71,20.71,0,0,1-4.42-7,26.64,26.64,0,0,1-2.74,7.22l-1.68-.88C325.73,12.26,326.65,6.64,326.65,1.18ZM336.81,1h1.88V18.28h-1.88V9.58h-5.46V7.9h5.46Zm19.38,0V18.28h-1.88V1Zm-6,.36V17.52h-8.64V1.36h1.88V7h4.88V1.36Zm-6.76,14.46h4.88V8.7h-4.88Zm31.4,0v1.7H358.27v-1.7Zm-15.4-4.76-1.14-1.4A11.53,11.53,0,0,0,365.93,1l1.86.36A10.63,10.63,0,0,1,367,3.9a15.33,15.33,0,0,0,7.78,5l-1,1.5a17.47,17.47,0,0,1-7.68-4.86,13.9,13.9,0,0,1-6.74,5.5Zm32.16-.94V11.8H376.71V5.7h12.78V3.06H376.71V1.36h14.66v6H378.59v2.74Zm.74,5.7v1.7H375.77v-1.7h7.34V12.76H385v3.06Zm1-6.18h16.54v1.7H393.27Zm15.8,6.76v1.68H394.21V12.84h1.88V16.4ZM394.21,7.34V1.18h1.88V5.7h13V7.34ZM90.48,31h1.88V48.28H90.48ZM78.38,41.62,76.84,40.3a9.84,9.84,0,0,0,4.82-6.12h-4V32.5h4V30.42h1.88V32.5h4.1v1.68h-4.1c-.1.38-.2.74-.34,1.12a14.09,14.09,0,0,0,5.18,4.76l-1.24,1.42a17.23,17.23,0,0,1-4.8-4.24A12.05,12.05,0,0,1,78.38,41.62Zm-1.44,5.9v-1.7h4.68V41.4H83.5v4.42h5.6v1.7Zm18.8-5-1.1-1.42c3.56-1.18,6.38-3.48,7.3-6.76H95.38v-1.7h6.26V30.42h2v2.26H110v1.7h-6.16a8.94,8.94,0,0,1-.64,1.82,14.27,14.27,0,0,0,7.56,4.36l-.88,1.54a17.9,17.9,0,0,1-7.58-4.34,13.51,13.51,0,0,1-6.6,4.8ZM111,45.82v1.7H94.44v-1.7h7.34V41.36h1.88v4.46Zm16.76-5.7V41.8H112.88V35.7h12.78V33.06H112.88v-1.7h14.66v6H114.76v2.74Zm.74,5.7v1.7H111.94v-1.7h7.34V42.76h1.88v3.06Zm9.86,2.08.62-4.6H136.9l-.62,4.6H134.4l.62-4.6H133.1V41.62h2.16l.54-4h-2V36H136l.64-4.62h1.88L137.9,36H140l.64-4.62h1.88L141.84,36h2v1.68h-2.18l-.54,4h2.06V43.3h-2.3l-.62,4.6Zm.86-6.28.54-4h-2.06l-.54,4ZM159.62,31V48.28h-1.88V39.64h-2.82v8.44H153v-17h1.88v6.86h2.82V31ZM145,47.52V31.36h1.88V45.82h4.82v1.7ZM177.5,46.4v1.68H162.64V43h1.88V46.4Zm-.1-8.68h-6.58V40h7.42V41.7H161.7V40h7.24v-2.3h-6.3V31.36H177.3V33H164.52v3H177.4ZM194.62,31V48.28h-1.88V39.64h-2.82v8.44H188v-17h1.88v6.86h2.82V31ZM180,47.52V31.36h1.88V45.82h4.82v1.7ZM212.4,37.26H197.64v-5.9H212.3V33H199.52V35.6H212.4ZM196.7,38.9h16.54v1.68H196.7Zm2.82,7.52h13v1.66H197.64v-5.8H212.3v1.64H199.52Zm19.64-15.06h7v1.2a9,9,0,0,1-6.62,8.52l-1.14-1.44a8.15,8.15,0,0,0,4.6-3h-3.8V35h4.68a7,7,0,0,0,.4-1.92h-5.08ZM233.82,31V41.06h-1.88V36.64h-2.2v4.42H227.9v-10h1.84v3.86h2.2V31Zm0,10.7v6.38h-14.1V41.7ZM221.6,46.42h10.34V43.36H221.6Zm23.14-.6v1.7h-8.28v-1.7H238V34.76h1.88V45.82h1l.94-11.06h1.88l-.94,11.06Zm3-14.74v17h-1.88V40H244v-1.7h1.88V31.08Zm3.58,17.2h-1.88V31h1.88Zm-6.76-16.92v1.7h-7.9v-1.7Zm11.1,4.24v.76a2.82,2.82,0,1,0,5.64.15V35.6a2.82,2.82,0,1,0-5.64-.21Zm-1.88.76V35.6a4.7,4.7,0,0,1,9.4,0v.76a4.7,4.7,0,0,1-9.4,0Zm15.42,10v1.68H254.72V42.64h1.88V46.4ZM268.82,31V44.06h-1.88V31ZM286.7,46.4v1.68H271.84V43.5h12.78V42.34H271.84V40.66H286.5v4.5H273.72V46.4Zm-15.8-8.64h16.54v1.68H270.9ZM275,35h8.08c.94,0,1.7-.44,1.7-1.18s-.76-1.2-1.7-1.2H275c-.94,0-1.5.44-1.5,1.2S274.1,35,275,35Zm0-4h8.08c2.08,0,3.58,1,3.58,2.86s-1.5,2.84-3.58,2.84H275c-2.06,0-3.38-1-3.38-2.84S273,31,275,31Zm20.94.18h1.88a45,45,0,0,1-.38,5.8,20.09,20.09,0,0,0,5.16,9.26l-1.38,1.28a20.71,20.71,0,0,1-4.42-7,26.64,26.64,0,0,1-2.74,7.22l-1.68-.88C295.06,42.26,296,36.64,296,31.18ZM306.14,31H308V48.28h-1.88Zm4.72.36H320v1.7h-3.76a11.41,11.41,0,0,1-.36,2.18,14.1,14.1,0,0,0,5.18,4.58l-1.22,1.4a16.65,16.65,0,0,1-4.66-4,11.74,11.74,0,0,1-3.64,4.48l-1.48-1.2a9.51,9.51,0,0,0,4.3-7.46h-3.54Zm16.72,4V37h-2.44v4.66h-1.88V31h1.88v4.32Zm-2.44,7.32v5.82h-1.88V44.34H311v-1.7Zm3.62,5.44-1.18-1.38a6,6,0,0,0,4.52-4.76l1.74.4a6.12,6.12,0,0,1-.46,1.62,9,9,0,0,0,2.54,2.1,6.37,6.37,0,0,0,2.74-4.12l1.76.4a6.74,6.74,0,0,1-.54,1.7,13.83,13.83,0,0,0,4.18,2.4l-.9,1.56A14.58,14.58,0,0,1,339,45.5a8.75,8.75,0,0,1-3,2.66,14.84,14.84,0,0,1-3.52-2.68,7.94,7.94,0,0,1-3.7,2.6ZM341.14,31H343V41.42h-1.88V37h-2.2v4.42H337.1V31.08h1.84v4.24h2.2Zm-10,.94V30.42H333v1.52h3.34v1.64H327.8V31.94Zm-2.76,5.8c0-2,1.6-3.38,3.76-3.38s3.76,1.36,3.76,3.38-1.6,3.38-3.76,3.38S328.36,39.78,328.36,37.74Zm1.86,0a1.9,1.9,0,1,0,2-1.8h-.1a1.8,1.8,0,0,0-1.9,1.68Zm15.44,4.54V36.64c0-3.58,1.8-5.46,4.52-5.46s4.52,1.88,4.52,5.46v5.64c0,3.54-1.8,5.42-4.52,5.42S345.66,45.82,345.66,42.28Zm1.88-5.64v5.64c0,2.62.94,3.74,2.64,3.74s2.64-1.12,2.64-3.74V36.64c0-2.64-.94-3.76-2.64-3.76S347.54,34,347.54,36.64Zm11.1,3h-3.2v-1.7h3.2V31h1.88V48.28h-1.88Zm14.5.76h-4.52c-3.2,0-5.46-1.88-5.46-4.7s2.26-4.7,5.46-4.7h4.52c3.18,0,5.44,1.88,5.44,4.7S376.32,40.4,373.14,40.4Zm-4.52-1.7h4.52c2.06,0,3.46-1.22,3.46-3s-1.4-3-3.46-3h-4.52c-2.06,0-3.48,1.22-3.48,3S366.56,38.7,368.62,38.7Zm10.52,7.12v1.7H362.6v-1.7h3.76v-4.3h1.88v4.3h5.26v-4.3h1.88v4.3Zm3.62,1.52H380.5V45.1h2.26Z"/><path id="패스_11221" data-name="패스 11221" class="cls-2" d="M41.34,73.72v18H31.06v-18h3.57v5.17H37.8V73.72ZM47.41,84v8.58H43.65v-19h3.76v6.71h2.27V84ZM34.63,88.24H37.8V82.36H34.63ZM67.08,73.52v19H63.32v-19Zm-6.2,5.57v7.23c0,3.5-2.07,5.57-5.39,5.57s-5.37-2.07-5.37-5.57V79.09c0-3.5,2.07-5.57,5.37-5.57s5.38,2.07,5.38,5.57Zm-3.57,7.23V79.09c0-1.35-.68-2.09-1.83-2.09s-1.8.74-1.8,2.09v7.23c0,1.37.69,2.12,1.8,2.12S57.31,87.69,57.31,86.32Zm29-12.6V86.13H69.78V73.72h3.77v2.9h9v-2.9ZM73.55,82.61h9V80.12h-9Zm13.6,5.78v3.5H69v-3.5ZM89,73.72h9.5v5.12a14.18,14.18,0,0,1-7.92,12.87L88,89.07c4.27-2.06,6.78-5.72,6.78-9.83v-2H89ZM105.16,84v8.58H101.4v-19h3.76v6.71h2.27V84Zm12.06,8.36.52-4h-1.6l-.53,4h-3.67l.52-4h-1.1V84.87h1.57l.48-3.7h-1.32V77.74h1.78l.53-4h3.7l-.53,4h1.61l.53-4h3.67l-.53,4H124v3.44h-1.58l-.48,3.7h1.34V88.3h-1.8l-.53,4Zm1-7.44.5-3.7h-1.6l-.51,3.7ZM141.7,73.52v19h-3.76V83.9h-1v8.4h-3.7V73.61h3.7v6.82h1V73.52ZM124.94,91.69v-18h3.76V88.19h3.7v3.5Zm36.21-2.42v3.26H144.41V87h3.76v2.31Zm-13-10.82H161v3h-6.58v1.47h7.3v3.22H143.57V82.91h7.11V81.44h-6.27V73.72H161v3H148.17Zm32-4.93v19h-3.76V83.9h-1v8.4h-3.7V73.61h3.7v6.82h1V73.52ZM163.44,91.69v-18h3.76V88.19h3.7v3.5Zm23.23-13.77h12.87v2.86H182.91V73.72h16.54v2.86H186.67Zm-4.6,3.78h18.19v2.9H182.07Zm4.6,8h13v2.82H182.91V85.62h16.54v2.79H186.67Zm32.85-1.32v3.5h-18.2v-3.5Zm-6.6-3.63h-5c-3.93,0-6.2-2.31-6.2-5.63s2.27-5.61,6.2-5.61h5c3.91,0,6.2,2.31,6.2,5.61S216.83,84.76,212.92,84.76Zm-4.87-3.52h4.76a2.13,2.13,0,0,0,.61-4.22,2.08,2.08,0,0,0-.61,0h-4.76a2.13,2.13,0,0,0-.61,4.22A2.08,2.08,0,0,0,208.05,81.24ZM238,73.72v7.63H225.17v1.5h13V86H221.41V78.25h12.78V76.93H221.41V73.72Zm.82,14.72v3.45h-18.2V88.44h7V86.5h4.12v1.94Zm16.56-14.72v18H245.06v-18h3.56v5.17h3.17V73.72ZM261.4,84v8.58h-3.76v-19h3.76v6.71h2.27V84Zm-12.78,4.29h3.17V82.36h-3.17Zm26.67,0v3.45h-11v-11h6.31v-3.5h-6.31V73.72h10.07V84.17h-6.31v4.07ZM280.65,84v8.58h-3.76v-19h3.76v6.71h2.27V84Zm6.89-6.29h12.87V81H283.78V73.52h3.76Zm-4.6,4.6h18.19V85.6H282.94Zm17.58,6.84v3.43H283.78v-6h3.76V89.1Zm6.91-15.38h9.72v2.07c0,4.62-3.65,8.62-8.95,9.59l-1.8-2.88c3.74-.69,6.27-2.78,6.84-5.5h-5.81Zm17.18,15.35v3.46H308.07V86h3.76v3.08Zm-7.46-7.67V77.88h3.28V73.52h3.76V87.31h-3.76V81.4Zm14.15-7.68h9.94v2.07c0,4.62-3.78,8.62-9.17,9.59l-1.8-2.88c3.81-.69,6.49-2.78,7-5.5h-6Zm16.76,15.35v3.46H331.72V86h3.76v3.08Zm1.85-10.86v3.67h-2.27v5.43h-3.76V73.52h3.76v4.69Zm17.4,10.86v3.46H351V86h3.76v3.08Zm1.85-10.86v3.67h-2.27v5.43h-3.76V73.52h3.76v4.69Zm-14.85,3.14h7.61v3.13H350.55V73.72h10.34v3.12h-6.58ZM386.14,85v7.55H370.22V85h3.71v1h8.5V85Zm-10.75-.33h-.82c-2.7,0-4.77-1.32-4.77-3.61s2.07-3.63,4.77-3.63h.82c2.68,0,4.75,1.35,4.75,3.63S378.07,84.65,375.39,84.65Zm13-7.48v3.68h-2.27V84.3h-3.76V73.52h3.76v3.65Zm-7.63-3V77h-11.6V74.14H373V72.68h3.81v1.46Zm-6.85,15.62h8.5V88.68h-8.5Zm.64-7.81h.82c.79,0,1.25-.38,1.25-.9s-.46-1-1.25-1h-.82c-.79,0-1.25.4-1.25,1S373.78,82,374.57,82Zm14.48,9.74v-18h3.76V88.19h7.61v3.5Zm16.76-18.17v19h-3.76v-19Zm13.66,14.72v3.45H408.3v-18h10.27v3.47h-6.51v11ZM424.64,84v8.58h-3.76v-19h3.76v6.71h2.27V84Zm6.67,7.74h-4.16V87.78h4.16ZM39.91,103.52v19H36.15V113.9h-1v8.4h-3.7V103.6h3.7v6.82h1v-6.9ZM23.14,121.69v-18h3.77v14.47h3.7v3.5Zm40.64-8H60v-6.4H47.23v-3.52H63.78Zm-6.2,9.09H53.44v-4.54h-7v-3.52H64.59v3.52h-7ZM66.49,111v-7.3H83v2.92H70.25v1.45H83.12V111H76.6v1.3h7.24v3H65.65v-3h7.19V111Zm0,8.18v-3H83v6.49H79.27v-3.52Zm35.79-15.49v7.54H89.5v1.39h13v3.19H85.73v-7.63H98.52v-1.3H85.73v-3.19Zm.81,14.72v3.45H84.9v-3.45h3.48v-2.18h3.76v2.18h3.72v-2.18h3.76v2.18Zm5.66-10.78h12.87V111H105v-7.44h3.77Zm-4.6,4.6h18.19v3.34H104.15Zm17.58,6.84v3.43H105v-6h3.77v2.53Zm23.67-15.58v19h-3.76V113.9h-1v8.4h-3.7V103.6h3.7v6.82h1v-6.9Zm-16.77,18.17v-18h3.77v14.47h3.7v3.5Zm19.47-18h9.5v5.12a14.2,14.2,0,0,1-7.92,12.87l-2.62-2.64c4.27-2.06,6.78-5.72,6.78-9.83v-2H148.1ZM164.23,114v8.58h-3.77v-19h3.77v6.71h2.27V114Zm11.5-6H188.6v2.86H172v-7.06h16.55v2.86H175.74Zm-4.6,3.78h18.2v2.9H171.14Zm4.6,8h13v2.82H172v-6.91h16.55v2.79H175.74Zm19.25-12h12.87V111H191.22v-7.44H195Zm-4.6,4.6h18.2v3.34H190.39ZM208,119.1v3.43H191.22v-6H195v2.53Zm17.46-10v7.24c0,3.5-2.06,5.56-5.39,5.56s-5.36-2.06-5.36-5.56v-7.24c0-3.5,2.06-5.57,5.36-5.57s5.39,2.07,5.39,5.57Zm-3.56,7.24v-7.24c0-1.35-.68-2.09-1.83-2.09s-1.8.74-1.8,2.09v7.23c0,1.37.69,2.12,1.8,2.12s1.83-.75,1.83-2.12Zm9.35-2.38v8.58h-3.76v-19h3.76v6.71h2.27V114Zm13.88,4.29v3.46h-11v-18H244.2v3.47h-6.31v3.5h6.31v3.48h-6.31v4.07Zm5.79-14.72v19h-3.76v-19ZM271,118.4v3.5H252.76v-3.5Zm-16.1-3.3-2.29-3a11.32,11.32,0,0,0,7.68-8.83l4,.62a12.9,12.9,0,0,1-.93,3.12,15.57,15.57,0,0,0,7.84,4.38l-2.12,3.08a16.28,16.28,0,0,1-7.66-4.29,15.11,15.11,0,0,1-6.55,4.88Zm34.54-6.67v3.15H276.61v1.65h13v3.23H272.84V103.72h16.55V107H276.61v1.46Zm.82,10v3.45H272v-3.45Zm4.88-10.69v10.14a.73.73,0,1,0,1.45.07V107.74a.72.72,0,0,0-.72-.72.73.73,0,0,0-.73.72h0Zm-3.41,10.14V107.74a4.14,4.14,0,0,1,8.27-.18v2.82h1v-6.77h3.41v18.7h-3.41v-8.45h-1v4a4.14,4.14,0,0,1-8.27.18v-.18Zm13.49,4.64v-19h3.47v19Zm19,0v-19h3.74v19Zm-13-18.81h7.17v6.67h1.32v-6.78h3.58v18.7h-3.59v-8.45H317.9a13.84,13.84,0,0,1-4.69,8l-2.9-2.14a11.88,11.88,0,0,0,4.29-9.61v-2.9h-3.48Zm24.51,18.81v-6.32h3.76v2.86h12.78v3.46ZM335,106.8v-3.08h10.34v3.08h-3.54a10.61,10.61,0,0,1-.26,1.69,17.12,17.12,0,0,0,4.82,4.31l-2.27,2.62a19.63,19.63,0,0,1-3.87-3.35,10.73,10.73,0,0,1-3.21,3.68l-2.82-2.26a8.65,8.65,0,0,0,3.89-6.69Zm13,.73v-4h3.77v14H348v-6.75h-3.06v-3.24Zm14.52,6v4.14a4.14,4.14,0,1,1-8.27.18v-4.32a4.14,4.14,0,0,1,8.27-.18.54.54,0,0,1,0,.18Zm-3.41,4.14v-4.14c0-.57-.3-.88-.72-.88s-.73.31-.73.88v4.14a.77.77,0,0,0,.65.85h.08c.42,0,.73-.31.73-.86Zm7.48-3.83v8.45h-3.41v-18.7h3.41v6.78h.95v-6.87H371v19h-3.48v-8.67Zm-3.89-5.26h-8.84v-3.43h2.64v-2.29h3.61v2.29h2.6Zm21.83-1.41h-4a36.24,36.24,0,0,1-.33,4.16,21.92,21.92,0,0,0,5.37,8.14l-2.92,2.4a21.8,21.8,0,0,1-3.79-5.21A22.75,22.75,0,0,1,376,122l-3.3-1.83a21.08,21.08,0,0,0,4.09-12.94h-3.28v-3.47h11Zm5.74-3.67v19H386.5v-19Zm6.47,4.13H409.6V111H393v-7.43h3.77Zm-4.6,4.6h18.19v3.35H392.13Zm17.58,6.85v3.43H393v-6h3.77v2.53Zm6.9-15.38h9.53v1.87c0,4.6-3.61,8.36-9,9.4l-1.58-2.89c3.28-.55,6-2.51,6.6-5.1h-5.57Zm10.08,12.65a14.72,14.72,0,0,0,7.22,3.13l-1.59,3A17.32,17.32,0,0,1,424.8,119a11.41,11.41,0,0,1-6.62,3.59l-2.07-2.95a9.4,9.4,0,0,0,7.63-5.61l3.52,1a11,11,0,0,1-.57,1.32Zm-.35-5.59v-3.52h3.28v-3.74h3.76v11.92h-3.76v-4.66Zm9.13-7.67h3.76v13.43h-3.76Zm4,19.2h-4.18v-4.12h4.18Z"/></g><rect class="cls-3" width="460" height="130"/></g></g></svg>