<svg xmlns="http://www.w3.org/2000/svg" width="460" height="76" viewBox="0 0 460 76"><defs><style>.cls-1{fill:none;}</style></defs><title>txt_sec4_title_w460</title><g id="Layer_2" data-name="Layer 2"><g id="Layer_1-2" data-name="Layer 1"><path d="M113.19,5.62H110l.7-3.78H105l-.7,3.78H100.7l.7-3.78H95.72L95,5.62H91.35l-1,5.49H94L93,16.93H89.28l-1,5.49h3.67l-.7,3.78h5.68l.7-3.78h3.59l-.7,3.78h5.68l.7-3.78h3.22l1-5.49H107.9L109,11.11h3.22Zm-13.5,5.49h3.58l-1.06,5.82H98.63ZM140.35,1h-5.18v9.38h-1.4V1h-5.18V26.48h5.18V16h1.4v10.5h5.18ZM120.47,20V1.84h-5.88V26.48l12.88-2v-5.6ZM150.15,7.3V5.76h17.64V1.56H143.71V11.5h8.82v1.12h-9.66V17.1h25.76V12.62H159V11.5h8.82V7.3Zm0,15.4V18.22h-6.44V27h24.08V22.7ZM196.35,1h-5.18v9.38h-1.4V1h-5.18V26.48h5.18V16h1.4v10.5h5.18ZM176.47,20V1.84h-5.88V26.48l12.88-2v-5.6Zm23.24-2.32V27h24.08V22.9H206.15v-1h17.64v-4.2Zm6.44-10.78V5.62h17.64V1.56H199.71v9.38h24.08V6.88Zm-7.28,5.18v4.48h25.76V12.06Zm28,8.82v5.6h25.76v-5.6Zm25.2-11.34C252.07,4,248.26,1,239.75,1s-12.32,3-12.32,8.54,3.81,8.54,12.32,8.54S252.07,15.08,252.07,9.54Zm-6.16,0c0,2.24-1.29,3.22-6.16,3.22s-6.16-1-6.16-3.22,1.29-3.22,6.16-3.22S245.91,7.3,245.91,9.54Zm16.24,3.08V11.5h17.64V1.56H255.71V6.18h17.64V7.3H255.71v9.94h24.08V12.62Zm2.38,8.26h-9.66v5.6h25.76v-5.6H271V18.36h-6.44Zm34.86-6,2.38,11.62h6.58L304.71,8.56h-3.86l1.62-7h-6.58l-5.74,24.92h6.58ZM316.19,1h-6.44V26.48h6.44ZM328,8.84l.62-1.4h6.58V1.84H318.71v5.6h3.36l-3.92,9.24h6.58L327.11,11l2.1,5.66h6.58l-2.88-7.84Zm15,18.48V17.8H318.71v5.32h17.92v4.2Zm0-21.42V1h-6.44V16.68h6.44v-4.9h2.24V5.9Zm3.64-4.06V12.48h5.46V13.6h-6v4.76h18.2V13.6h-6V12.48h5.46V8H353.15V6.32h10.64V1.84Zm25.48,25.48V22.56H353.43V19.48H347v7.84Zm0-26.32h-6.44V19.76h6.44Zm-286,52.08,1.25-4.94h7.79v-7.6H72.76v7.6h5.7L72,74h8.93l3.23-13L87,74h8.93l-4.56-20.9Zm21.2-13.68H98.6V74h8.74Zm3.42,22.8V75.12h33.06V67.9H119.5V62.2Zm8.74-9.84V40.54h-8.74V60.68l22.42-1.9v-7.6Zm24.32-4.79V39.4h-8.74V63.72h8.74V55.55h3v-8Zm41.42,18.58h-6.8V41.83H166.62l-4.56,7.45H170V66.15h-7.52V73.6h22.8ZM225.52,39.4h-8.74v1.33h-7.22v6.08h7.22v1.9h-7.22v2.81l-9.88.84V40.54h-8.74V60.68l22.42-1.9v-4h3.42v8.93h8.74ZM190.94,62.2V75.12h34.58V67.9H199.68V62.2Zm38,0V75.12H262V67.9H237.68V62.2Zm20.14-1.52c1.94-5.36,2.28-11,2.28-16.34v-3.8H228.94v7.6h13.6a46.9,46.9,0,0,1-2.2,12.54ZM262,47.57V39.4h-8.74V63.72H262V55.55h3v-8Zm39.52-8.17h-8.74V74h8.74Zm-35.34,27V74h24.7v-7.6ZM282.33,51c0,2.77-1.25,4.37-3.8,4.37s-3.8-1.6-3.8-4.37,1.25-4.37,3.8-4.37S282.33,48.22,282.33,51Zm8.17,0c0-7.18-4.18-11.59-12-11.59s-12,4.41-12,11.59,4.18,11.59,12,11.59S290.5,58.17,290.5,51ZM350.16,39.4h-8.74v3H338v-1.9h-8v3.23h-6.46V40.54h-8V60.68L338,58.78V57.26h3.42v6.46h8.74ZM315.58,62.2V75.12h34.58V67.9H324.32V62.2Zm8-12H330V53l-6.46.54ZM338,48.52h3.42v2.66H338Zm48.64,3.23V39.4H377.9V74h8.74V60.11h3V51.75Zm-22.23-3.69c-7.71,0-11.59,2.32-11.59,7.22s3.88,7.22,11.59,7.22S376,60.19,376,55.28,372.12,48.06,364.41,48.06Zm-4.18,18.32h-7.41V74H376v-7.6h-7.41V63.72h-8.36Zm8.36-25.08v-3h-8.36v3h-7V47h22.42V41.3Zm-4.18,12.46c3.15,0,4,.42,4,1.52s-.84,1.52-4,1.52-4-.41-4-1.52S361.26,53.76,364.41,53.76Z"/><rect class="cls-1" width="460" height="76"/></g></g></svg>