<svg xmlns="http://www.w3.org/2000/svg" width="375" height="153" viewBox="0 0 375 153"><defs><style>.cls-1{fill:#f8f4f0;}.cls-2{fill:#111;}.cls-3{fill:none;}</style></defs><title>txt_sec2_description_w375</title><g id="Layer_2" data-name="Layer 2"><g id="Layer_1-2" data-name="Layer 1"><g id="_3_txt" data-name=" 3 txt"><g id="line"><path id="사각형_145" data-name="사각형 145" class="cls-1" d="M43,77.84H329v16H43Z"/><path id="사각형_140" data-name="사각형 140" class="cls-1" d="M82,107.84H288v16H82Z"/><path id="사각형_147" data-name="사각형 147" class="cls-1" d="M40,136.84H338v16H40Z"/></g><path id="패스_11247" data-name="패스 11247" class="cls-2" d="M59.2,73.22V89.56H49.86V73.22H53.1v4.7H56v-4.7Zm5.52,9.3v7.8H61.3V73h3.42v6.1h2.06v3.38ZM53.1,86.42H56V81.08H53.1ZM82.9,73V90.32H79.48V73ZM77.26,78.1v6.58c0,3.18-1.88,5.06-4.9,5.06s-4.88-1.88-4.88-5.06V78.1c0-3.18,1.88-5.06,4.88-5.06S77.26,74.92,77.26,78.1ZM74,84.68V78.1c0-1.22-.62-1.9-1.66-1.9s-1.64.68-1.64,1.9v6.58c0,1.24.62,1.92,1.64,1.92S74,85.92,74,84.68ZM100.7,73.22V84.5h-15V73.22h3.42v2.64h8.2V73.22ZM89.08,81.3h8.2V79h-8.2Zm12.36,5.26v3.18H84.9V86.56Zm2-13.34h8.64v4.66a12.91,12.91,0,0,1-7.2,11.7l-2.38-2.4c3.88-1.88,6.16-5.2,6.16-8.94V76.38h-5.22Zm14.66,9.3v7.8H114.7V73h3.42v6.1h2.06v3.38Zm11.56,7.6.48-3.64H128.7l-.48,3.64h-3.34l.48-3.64h-1V83.36h1.42l.44-3.36H125V76.88h1.62l.48-3.66h3.36L130,76.88h1.46l.48-3.66h3.34l-.48,3.66h1V80h-1.44l-.44,3.36h1.22v3.12h-1.64L133,90.12Zm.9-6.76L131,80h-1.46l-.46,3.36ZM152.24,73V90.32h-3.42V82.48h-.92v7.64h-3.36v-17h3.36v6.2h.92V73ZM137,89.56V73.22h3.42V86.38h3.36v3.18Zm33.22-2.2v3H155V85.26h3.42v2.1Zm-11.8-9.84h11.7v2.72h-6v1.34h6.64V84.5H154.24V81.58h6.46V80.24H155v-7h15v2.7H158.42ZM187.84,73V90.32h-3.42V82.48h-.92v7.64h-3.36v-17h3.36v6.2h.92V73ZM172.6,89.56V73.22H176V86.38h3.36v3.18ZM194,77h11.7v2.6H190.6V73.22h15v2.6H194Zm-4.18,3.44h16.54v2.64H189.84ZM194,87.76h11.8v2.56H190.6V84h15v2.54H194Zm30.16-1.2v3.18H207.64V86.56Zm-6-3.3h-4.52c-3.58,0-5.64-2.1-5.64-5.12s2.06-5.1,5.64-5.1h4.52c3.56,0,5.64,2.1,5.64,5.1S221.74,83.26,218.18,83.26Zm-4.42-3.2h4.32a1.94,1.94,0,0,0,.56-3.84,1.75,1.75,0,0,0-.56,0h-4.32a1.94,1.94,0,1,0-.56,3.84A1.75,1.75,0,0,0,213.76,80.06Zm27.48-6.84v6.94H229.62v1.36h11.8v2.9H226.2V77.34h11.62v-1.2H226.2V73.22ZM242,86.6v3.14H225.44V86.6h6.36V84.84h3.74V86.6Zm15.66-13.38V89.56H248.3V73.22h3.24v4.7h2.88v-4.7Zm5.52,9.3v7.8h-3.42V73h3.42v6.1h2.06v3.38Zm-11.62,3.9h2.88V81.08h-2.88Zm24.54,0v3.14h-10v-10h5.74V76.38H266.1V73.22h9.16v9.5h-5.74v3.7Zm4.88-3.9v7.8h-3.42V73H281v6.1H283v3.38Zm6.56-5.72h11.7v3H284.1V73h3.42ZM283.34,81h16.54v3H283.34Zm16,6.22v3.12H284.1V84.9h3.42v2.3Zm6.88-14H315V75.1c0,4.2-3.32,7.84-8.14,8.72l-1.64-2.62c3.4-.62,5.7-2.52,6.22-5H306.2Zm15.62,14v3.14h-15V84.38h3.42v2.8Zm-6.78-7V77h3V73h3.42V85.58H318V80.2Zm-224.33,23h9v1.88c0,4.2-3.44,7.84-8.34,8.72l-1.64-2.62c3.46-.62,5.9-2.52,6.4-5H90.71Zm15.24,14v3.14H91.09v-5.94h3.42v2.8Zm1.68-9.88v3.34h-2.06v4.94h-3.42V103h3.42v4.26Zm16.12,9.88v3.14H108.89v-5.94h3.42v2.8Zm1.68-9.88v3.34h-2.06v4.94H120V103h3.42v4.26Zm-13.5,2.86h6.92V113H108.51v-9.78h9.4v2.84h-6Zm29.24,3.3v6.86H126.69v-6.86h3.38v.94h7.72v-.94Zm-9.78-.3h-.74c-2.46,0-4.34-1.2-4.34-3.28s1.88-3.3,4.34-3.3h.74c2.44,0,4.32,1.22,4.32,3.3S133.83,113.16,131.39,113.16Zm11.84-6.8v3.34h-2.06v3.14h-3.42V103h3.42v3.32Zm-6.94-2.76v2.62H125.75V103.6h3.48v-1.32h3.46v1.32Zm-6.22,14.2h7.72v-1h-7.72Zm.58-7.1h.74c.72,0,1.14-.34,1.14-.82s-.42-.86-1.14-.86h-.74c-.72,0-1.14.36-1.14.86S129.93,110.7,130.65,110.7Zm13.46,8.86V103.22h3.42v13.16h6.92v3.18ZM159.35,103v17.28h-3.42V103Zm12.72,13.38v3.14H161.91V103.22h9.34v3.16h-5.92v10Zm4.7-3.9v7.8h-3.42V103h3.42v6.1h2.06v3.38Zm6.36,7h-3.78V116h3.78ZM204.89,103v17.28h-3.42v-7.84h-.92v7.64h-3.36v-17h3.36v6.2h.92V103Zm-15.24,16.52V103.22h3.42v13.16h3.36v3.18Zm37.54-7.32h-3.42v-5.82H212.15v-3.2h15Zm-5.64,8.26h-3.76v-4.12h-6.4v-3.2h16.54v3.2h-6.38Zm8.4-10.64v-6.64h15v2.66H233.37v1.32h11.7v2.66h-5.92V111h6.58v2.7H229.19V111h6.54v-1.18Zm0,7.44v-2.7h15v5.9h-3.42v-3.2Zm32.84-14.08v6.86H251.17v1.26H263v2.9H247.75V107.3h11.62v-1.18H247.75v-2.9Zm.74,13.38v3.14H247V116.6h3.16v-2h3.42v2H257v-2h3.42v2Zm5.44-9.8h11.7v3H265.55V103H269ZM264.79,111h16.54v3H264.79Zm16,6.22v3.12H265.55V114.9H269v2.3ZM59.38,133v17.28H56v-7.84H55v7.64H51.68v-17H55v6.2H56V133ZM44.14,149.56V133.22h3.42v13.16h3.36v3.18Zm18-16.34h8.64v4.66a12.91,12.91,0,0,1-7.2,11.7l-2.38-2.4c3.88-1.88,6.16-5.2,6.16-8.94v-1.86H62.14Zm14.66,9.3v7.8H73.38V133H76.8v6.1h2.06v3.38ZM87.86,137h11.7v2.6H84.44v-6.42h15v2.6H87.86Zm-4.18,3.44h16.54v2.64H83.68Zm4.18,7.28h11.8v2.56H84.44V144h15v2.54H87.86Zm17.8-11h11.7v3H102.24V133h3.42ZM101.48,141H118v3H101.48Zm16,6.22v3.12H102.24V144.9h3.42v2.3Zm16.48-9.1v6.58c0,3.18-1.88,5.06-4.9,5.06s-4.88-1.88-4.88-5.06V138.1c0-3.18,1.88-5.06,4.88-5.06S133.94,134.92,133.94,138.1Zm-3.24,6.58V138.1c0-1.22-.62-1.9-1.66-1.9s-1.64.68-1.64,1.9v6.58c0,1.24.62,1.92,1.64,1.92S130.7,145.92,130.7,144.68Zm8.5-2.16v7.8h-3.42V133h3.42v6.1h2.06v3.38Zm12.92,3.9v3.14h-10V133.22h9.16v3.16h-5.74v3.18h5.74v3.16h-5.74v3.7ZM157.38,133v17.28H154V133Zm18.54,13.52v3.18H159.38v-3.18Zm-14.64-3-2.08-2.7a10.28,10.28,0,0,0,7-8l3.66.56a11.74,11.74,0,0,1-.84,2.84,14.21,14.21,0,0,0,7.12,4L174.2,143a14.86,14.86,0,0,1-7-3.9,13.81,13.81,0,0,1-6,4.44ZM193,137.5v2.86H181.36v1.5h11.8v2.94H177.94V133.22h15v3H181.36v1.32Zm.74,9.1v3.14H177.18V146.6Zm4.74-9.72v9.22a.66.66,0,1,0,1.32.07v-9.29a.66.66,0,0,0-1.32,0Zm-3.1,9.22v-9.22a3.76,3.76,0,1,1,7.52-.17v2.57h.9v-6.16h3.1v17h-3.1v-7.68h-.9v3.66a3.76,3.76,0,1,1-7.52.17Zm12.26,4.22V133h3.16v17.28Zm17.56,0V133h3.4v17.28Zm-11.84-17.1h6.52v6.06h1.2v-6.16h3.26v17h-3.26v-7.68H219.5a12.56,12.56,0,0,1-4.26,7.26l-2.64-1.94a10.81,10.81,0,0,0,3.9-8.74v-2.64h-3.16Zm22.88,17.1v-5.74h3.42v2.6h11.62v3.14Zm-.58-14.3v-2.8H245V136h-3.22a10.06,10.06,0,0,1-.24,1.54,15.77,15.77,0,0,0,4.38,3.92l-2.06,2.38a17.62,17.62,0,0,1-3.52-3,9.67,9.67,0,0,1-2.92,3.34l-2.56-2.06a7.88,7.88,0,0,0,3.54-6.08Zm11.82.66V133h3.42v12.72h-3.42v-6.14h-2.78v-2.94Zm13.5,5.48v3.76a3.76,3.76,0,0,1-7.52,0v-3.76A3.76,3.76,0,1,1,261,142Zm-3.1,3.76v-3.76c0-.52-.28-.8-.66-.8s-.66.28-.66.8v3.76a.69.69,0,0,0,.59.77h.07C257.58,146.7,257.86,146.42,257.86,145.92Zm6.8-3.48v7.68h-3.1v-17h3.1v6.16h.86V133h3.16v17.28h-3.16v-7.88Zm-3.54-4.78h-8v-3.12h2.4v-2.08h3.28v2.08h2.36Zm20.14-1.28h-3.62a34.17,34.17,0,0,1-.3,3.78,20,20,0,0,0,4.88,7.4l-2.66,2.18a20.1,20.1,0,0,1-3.44-4.74,20.91,20.91,0,0,1-2.62,4.8l-3-1.66a19.18,19.18,0,0,0,3.72-11.76h-3v-3.16h10Zm5.22-3.34v17.28h-3.42V133Zm6.18,3.76h11.7v3H289.24V133h3.42ZM288.48,141H305v3H288.48Zm16,6.22v3.12H289.24V144.9h3.42v2.3Zm6.88-14H320v1.7c0,4.18-3.28,7.6-8.16,8.54l-1.44-2.62c3-.5,5.42-2.28,6-4.64h-5.06Zm9.16,11.5a13.31,13.31,0,0,0,6.56,2.84l-1.44,2.76a15.9,15.9,0,0,1-6.84-3.2,10.33,10.33,0,0,1-6,3.26l-1.88-2.68a8.58,8.58,0,0,0,6.94-5.1l3.2.92a10.6,10.6,0,0,1-.52,1.2Zm-.32-5.08v-3.2h3V133h3.42v10.84h-3.42v-4.24Zm8.6-7h3.42v12.22h-3.42Zm3.6,17.46h-3.8v-3.74h3.8Z"/><path id="패스_11394" data-name="패스 11394" class="cls-2" d="M52.58,13.61v-2.5a3,3,0,0,1,1.55-3l2.33-1.52a2.25,2.25,0,0,0,1.08-2c0-1.2-.52-1.81-1.73-1.81s-1.73.61-1.73,1.81h-1.5c0-2.26,1.28-3.15,3.23-3.15S59,2.35,59,4.6a3.33,3.33,0,0,1-1.7,3.09L55,9.18a2,2,0,0,0-1,1.9v1.2h5V13.6Zm13-3.06V4.68c0-1.2-.6-1.89-1.72-1.89s-1.73.69-1.73,1.89v5.87c0,1.2.59,1.87,1.73,1.87S65.58,11.75,65.58,10.55Zm1.5-6V10.7a2.9,2.9,0,0,1-2.74,3.08,2.68,2.68,0,0,1-.49,0,2.93,2.93,0,0,1-3.22-2.59,2.57,2.57,0,0,1,0-.48V4.54a2.93,2.93,0,0,1,2.74-3.1,2.68,2.68,0,0,1,.49,0A2.94,2.94,0,0,1,67.08,4a4.17,4.17,0,0,1,0,.5Zm1.57,9.07v-2.5a3.07,3.07,0,0,1,1.55-3l2.34-1.52a2.25,2.25,0,0,0,1.08-2c0-1.2-.52-1.81-1.73-1.81s-1.73.61-1.73,1.81h-1.5c0-2.26,1.28-3.15,3.23-3.15s3.23.9,3.23,3.15a3.33,3.33,0,0,1-1.7,3.09l-2.3,1.49a2,2,0,0,0-1,1.9v1.2h5V13.6Zm13-3.06V4.68c0-1.2-.61-1.89-1.73-1.89s-1.73.69-1.73,1.89v5.87c0,1.2.6,1.87,1.73,1.87s1.73-.67,1.73-1.87Zm1.5-6V10.7a2.92,2.92,0,0,1-2.75,3.08,2.57,2.57,0,0,1-.48,0,2.92,2.92,0,0,1-3.22-2.59,2.57,2.57,0,0,1,0-.48V4.54a2.93,2.93,0,0,1,2.74-3.1,2.68,2.68,0,0,1,.49,0A2.94,2.94,0,0,1,83.16,4a4.17,4.17,0,0,1,0,.5ZM96.83,1V11.45h-1.5V6.39H90.5V5.05h4.83V3.83H90.5V2.5h4.83V1ZM93.22,7.61V9H85.1V1.29h1.5V7.61Zm3.92,5.71v1.34H85.55V10.31h1.5v3Zm1.63,2.26L98.32,15a2,2,0,0,0,.9-2v-.74H101V13A2.57,2.57,0,0,1,98.77,15.58Zm8-1.36V1.29h1.5V12.86h4.3v1.36Zm8.5-13.16v13.6h-1.5v-7h-3.24V6.26h3.24V1.06Zm3.24,13.76H117V1h1.5ZM132.92,1V14.82h-1.5V1ZM122.53,5.51V10c0,2.1.75,3,2.19,3s2.18-.9,2.18-3V5.51c0-2.11-.76-3-2.18-3S122.53,3.4,122.53,5.51ZM121,10V5.51c0-2.94,1.5-4.37,3.7-4.37s3.68,1.43,3.68,4.37V10c0,2.92-1.5,4.34-3.68,4.34S121,12.94,121,10ZM142.2,1.29V14.22h-6.61V1.29h1.5V5.8h3.6V1.29Zm3.61,6.62h-3V6.55h3V1h1.5V14.82h-1.5Zm-8.72,4.95h3.6V7.16h-3.6ZM160.51,1.29V14.22h-6.77V1.29h1.5V5.8H159V1.29Zm4.66,6.57v7h-1.5V1h1.5V6.52h2V7.86Zm-9.92,5H159V7.16h-3.76ZM179.87,1V14.82h-1.5V1ZM169.49,5.51V10c0,2.1.75,3,2.19,3s2.18-.9,2.18-3V5.51c0-2.11-.76-3-2.18-3S169.49,3.4,169.49,5.51ZM168,10V5.51c0-2.94,1.5-4.37,3.7-4.37s3.68,1.43,3.68,4.37V10c0,2.92-1.5,4.34-3.68,4.34S168,12.94,168,10Zm26.43-8.73V9.72H182.69V1.29h1.5V4h8.72V1.29ZM184.19,8.36h8.72v-3h-8.72Zm11,4.5v1.36H181.94V12.86Zm1.17-4.94h13.23V9.28H196.34ZM209,13.32v1.35H197.09v-4.2h1.5v2.85ZM197.09,6.07V1.14h1.5V4.76H209V6.07ZM227,6.1h-1.5V2.65H215.25V1.29H227ZM227,15h-1.5v-3.3H215.25V10.31h5V8.21H214.5V6.86h13.23V8.22H221.8v2.1H227ZM241.23,1V14.82h-1.5V7.91h-2.25v6.75H236V1.06h1.5V6.55h2.25V1ZM229.5,14.22V1.29H231V12.86h3.86v1.36ZM247.05,7.3h13.23V8.65H247.06Zm9-1h-4.82c-2.4,0-3.6-.91-3.6-2.64S248.86,1,251.26,1h4.82c2.41,0,3.61,1,3.61,2.62s-1.19,2.64-3.61,2.64Zm-4.82-1.32h4.82c1.5,0,2-.56,2-1.31s-.53-1.31-2-1.31h-4.82c-1.34,0-2,.56-2,1.31S249.76,4.94,251.26,4.94Zm8.28,4.93v4.8H247.81V9.87Zm-10.23,3.47H258V11.19h-8.72Zm26.13-9V5.66h-1.95V9.23H272V1h1.5V4.3ZM273.49,10V15H272v-3.6h-9.78V10ZM263.26,4.68V5a2.26,2.26,0,0,0,4.52.13V4.68a2.26,2.26,0,0,0-4.52-.13Zm-1.5.3v-.3a3.76,3.76,0,0,1,7.52,0V5a3.76,3.76,0,0,1-7.52,0Zm20.56-3.84h1.5a36,36,0,0,1-.3,4.64,16.1,16.1,0,0,0,4.13,7.41l-1.1,1A16.51,16.51,0,0,1,283,8.63a21.34,21.34,0,0,1-2.19,5.77l-1.34-.7A25.37,25.37,0,0,0,282.32,1.14ZM290.45,1H292V14.82h-1.5v-7h-4.37V6.52h4.37Zm15.9,0V14.82h-1.5V1Zm-4.82.28V14.22h-6.91V1.29h1.5V5.8H300V1.29Zm-5.41,11.57H300V7.16h-3.9Zm25.52,0v1.36H308.42V12.85ZM309.32,9l-.91-1.12A9.2,9.2,0,0,0,314.54,1l1.49.28a8.56,8.56,0,0,1-.61,2,12.3,12.3,0,0,0,6.23,4l-.79,1.2a14,14,0,0,1-6.14-3.89,11.09,11.09,0,0,1-5.39,4.4ZM71.38,27h1.5V40.82h-1.5ZM61.7,35.5l-1.23-1.06a7.88,7.88,0,0,0,3.86-4.9H61.16V28.2h3.23V26.54h1.5V28.2h3.28v1.34H65.9c-.08.3-.16.59-.27.9a11.23,11.23,0,0,0,4.14,3.81l-1,1.13A13.54,13.54,0,0,1,64.94,32,9.66,9.66,0,0,1,61.7,35.5Zm-1.15,4.72V38.86H64.3V35.32h1.5v3.54h4.48v1.36Zm15.44-4-.88-1.13c2.85-.95,5.1-2.79,5.84-5.41H75.7V28.34h5v-1.8H82.3v1.8h5.14V29.7H82.5A7.66,7.66,0,0,1,82,31.16,11.42,11.42,0,0,0,88,34.64l-.7,1.24a14.39,14.39,0,0,1-6.07-3.48A10.78,10.78,0,0,1,76,36.25Zm12.19,2.61v1.36H75V38.86h5.87V35.29h1.5v3.57ZM102,34.3v1.34H90.1V30.76h10.23V28.65H90.1V27.29h11.73V32.1H91.61v2.2Zm.59,4.56v1.36H89.35V38.86h5.87V36.41h1.5v2.45Zm8.69,1.66.5-3.68h-1.65l-.5,3.68h-1.5l.5-3.68h-1.54V35.5h1.73l.43-3.17h-1.63V31h1.81l.51-3.7h1.5l-.51,3.7h1.64l.52-3.7h1.5l-.52,3.7h1.58v1.35H113.9l-.43,3.17h1.65v1.34h-1.84l-.5,3.68Zm.69-5,.43-3.17h-1.65l-.43,3.17ZM128.7,27V40.82h-1.5V33.91h-2.26v6.75h-1.5V27.06h1.5v5.49h2.25V27ZM117,40.22V27.29h1.5V38.86h3.85v1.36Zm26.43-.9v1.34H131.51v-4H133v2.7Zm-.08-7h-5.26v1.84H144v1.35H130.76V34.22h5.79V32.38h-5V27.29h11.73v1.34H133v2.42h10.3ZM157.5,27V40.82H156V33.91h-2.26v6.75h-1.5V27.06h1.5v5.49H156V27ZM145.77,40.22V27.29h1.5V38.86h3.85v1.36ZM172.12,32H160.31V27.29H172v1.33H161.82v2.06h10.3Zm-12.56,1.31h13.23v1.34H159.56Zm2.26,6H172.2v1.32H160.31V36H172v1.32H161.82Zm16.51-12.05h5.57v1a7.15,7.15,0,0,1-5.3,6.81l-.91-1.15a6.51,6.51,0,0,0,3.68-2.4h-3V30.18h3.74a5.35,5.35,0,0,0,.32-1.53h-4.06ZM190.06,27v8h-1.5V31.51H186.8v3.54h-1.48v-8h1.47v3.09h1.76V27Zm0,8.56v5.1H178.78v-5.1Zm-9.78,3.78h8.27V36.89h-8.27Zm18.91-.48v1.36h-6.62V38.86h1.21V30h1.5v8.85h.82l.75-8.85h1.5l-.75,8.85Zm2.4-11.79v13.6h-1.5V34.23h-1.5V32.87h1.5V27.06Zm2.87,13.76H203V27h1.5Zm-5.41-13.54v1.36h-6.32V27.29Zm9.28,3.39v.61a2.26,2.26,0,1,0,4.51.14v-.75a2.26,2.26,0,0,0-4.51-.13v.13Zm-1.5.61v-.61a3.76,3.76,0,0,1,7.52,0v.61a3.76,3.76,0,0,1-7.52,0Zm12.33,8v1.34H207.58V36.31h1.5v3ZM218.86,27V37.45h-1.5V27Zm14.7,12.32v1.34H221.67V37H231.9v-.93H221.67V34.73H233.4v3.6H223.18v1Zm-12.64-6.91h13.23v1.34H220.92Zm3.31-2.18h6.47c.75,0,1.36-.35,1.36-.94s-.61-1-1.36-1h-6.46c-.76,0-1.2.35-1.2,1S223.48,30.23,224.23,30.23Zm0-3.23h6.47c1.66,0,2.86.78,2.86,2.29s-1.2,2.27-2.86,2.27h-6.46c-1.65,0-2.7-.77-2.7-2.27S222.58,27,224.23,27Zm17.55.14h1.5a32.58,32.58,0,0,1-.3,4.64,16.09,16.09,0,0,0,4.13,7.41l-1.1,1a16.63,16.63,0,0,1-3.53-5.59,21.43,21.43,0,0,1-2.2,5.78l-1.34-.7a25.43,25.43,0,0,0,2.84-12.57Zm8.13-.14h1.5V40.82h-1.5Zm4.18.29h7.34v1.36h-3a8.53,8.53,0,0,1-.28,1.74,11.25,11.25,0,0,0,4.14,3.67l-1,1.12A13.55,13.55,0,0,1,257.58,32a9.43,9.43,0,0,1-2.92,3.59l-1.18-1a7.61,7.61,0,0,0,3.44-6h-2.83Zm13.37,3.17V31.8h-1.95v3.73H264V27h1.5v3.46Zm-1.95,5.85V41H264v-3.3h-9.77V36.31Zm3.3,4.35-.94-1.1a4.78,4.78,0,0,0,3.61-3.8l1.4.32a5.49,5.49,0,0,1-.37,1.3,7.65,7.65,0,0,0,2,1.68,5.06,5.06,0,0,0,2.19-3.3l1.41.32a5.52,5.52,0,0,1-.43,1.36,11,11,0,0,0,3.34,1.92l-.72,1.24a11.31,11.31,0,0,1-3.31-2,7,7,0,0,1-2.43,2.13,12,12,0,0,1-2.82-2.14,6.33,6.33,0,0,1-3,2.07ZM278.71,27h1.5v8.34h-1.5V31.8H277v3.54h-1.47V27.06H277v3.4h1.76Zm-8,.75V26.54h1.5v1.22h2.67v1.31H268V27.75Zm-2.21,4.64a3,3,0,1,1,3.33,2.68,1.77,1.77,0,0,1-.32,0,2.75,2.75,0,0,1-3-2.48A1.7,1.7,0,0,1,268.49,32.39Zm1.49,0a1.52,1.52,0,0,0,3,.17A1.54,1.54,0,0,0,271.58,31h-.08A1.44,1.44,0,0,0,270,32.3ZM282.73,36V31.51c0-2.86,1.44-4.37,3.61-4.37s3.62,1.5,3.62,4.37V36c0,2.84-1.44,4.34-3.62,4.34S282.73,38.86,282.73,36Zm1.5-4.51V36c0,2.1.75,3,2.11,3s2.11-.9,2.11-3V31.51c0-2.11-.75-3-2.11-3s-2.11.9-2.11,3Zm8.88,2.4h-2.56V32.55h2.56V27h1.5V40.82h-1.5Zm12,.61H301.5c-2.56,0-4.37-1.5-4.37-3.76S298.94,27,301.5,27h3.62c2.54,0,4.35,1.5,4.35,3.76s-1.81,3.76-4.36,3.76Zm-3.61-1.36h3.62a2.43,2.43,0,1,0,0-4.82H301.5a2.44,2.44,0,1,0-.7,4.82A2.73,2.73,0,0,0,301.5,33.16Zm8.42,5.7v1.36H296.68V38.86h3V35.42h1.5v3.44h4.21V35.42h1.5v3.44Zm3.3,1.22H311.4v-1.8h1.81Z"/></g><rect class="cls-3" width="375" height="153"/></g></g></svg>