<svg xmlns="http://www.w3.org/2000/svg" width="720" height="162" viewBox="0 0 720 162"><defs><style>.cls-1{fill:none;}.cls-2{fill:#999;}</style></defs><title>txt_sec8_note_w720</title><g id="Layer_2" data-name="Layer 2"><g id="Layer_1-2" data-name="Layer 1"><g id="Layer_1-2-2" data-name="Layer 1-2"><rect class="cls-1" width="720" height="162"/></g><g id="_8_txt_notice" data-name=" 8 txt notice"><g id="그룹_4629" data-name="그룹 4629"><path id="패스_11438" data-name="패스 11438" class="cls-2" d="M5.71,54a5.78,5.78,0,0,1-1.37-.17,3.47,3.47,0,0,1-1-.41l.24-1.06a3.46,3.46,0,0,0,.88.33,4.56,4.56,0,0,0,1,.13,2.12,2.12,0,0,0,1.3-.34,1.26,1.26,0,0,0,.46-1c0-.81-.57-1.23-1.7-1.24l-.86,0V49.12h.75a2,2,0,0,0,1.16-.34A1,1,0,0,0,7,47.89c0-.75-.49-1.13-1.47-1.13a4.3,4.3,0,0,0-1.75.43L3.61,46.1a4.23,4.23,0,0,1,1.05-.37,6.58,6.58,0,0,1,1.26-.15,3,3,0,0,1,1.86.54,1.79,1.79,0,0,1,.7,1.5A1.92,1.92,0,0,1,7,49.54a1.9,1.9,0,0,1,1.75,2,2.17,2.17,0,0,1-.82,1.8A3.45,3.45,0,0,1,5.71,54Zm4.08.07v-1.4h1.47v1.4Zm14,1.25H22.38V44.65h1.39ZM16,52a4.73,4.73,0,0,1-.74-2.76A4.81,4.81,0,0,1,16,46.44a2.47,2.47,0,0,1,4.06,0A5.58,5.58,0,0,1,20,52,2.49,2.49,0,0,1,16,52Zm3.45-2.76a4.12,4.12,0,0,0-.4-2,1.16,1.16,0,0,0-1-.72,1.13,1.13,0,0,0-1,.72,4.23,4.23,0,0,0-.39,2A4.11,4.11,0,0,0,17,51.16a1.14,1.14,0,0,0,1,.72,1.17,1.17,0,0,0,1-.72,4.09,4.09,0,0,0,.4-1.95Zm10.3,1.47H25.39V45.46h1.42V47h1.51v-1.6h1.4v2h1V44.84H32v7.44H30.68V48.56h-1Zm4.64,4.4H26.82V51.64h1.39V54h6.16Zm-.26-2.51H32.77V44.65h1.34Zm-5.79-3V48.12H26.81v1.46Zm15-.69H37.73v1.17h5.93v1.1H36.34V45.49h7.21v1.1H37.73v1.2H43.3Zm1.46,4V54H35.1v-1.1ZM54.84,51H45.18V49.92h9.66Zm-1.19-2.32H46.48V45h1.4v2.6h5.77Zm.08,6.33H46.42V51.89h1.39v2h5.92ZM67,55.34h-1.4V44.65H67Zm-3.29-9.58a8.46,8.46,0,0,1-4.77,7.65L58,52.35a7.22,7.22,0,0,0,2.86-2.3,6.06,6.06,0,0,0,1.27-3.12H58.68V45.76Zm13.62,9.58H76V50H75.1v4.87H73.79v-10H75.1v4H76v-4.2h1.33Zm-3.84-3.49-.78,1a4.65,4.65,0,0,1-1.1-1.07,4.24,4.24,0,0,1-.76-1.42,5,5,0,0,1-2,2.73l-.85-.94a5.18,5.18,0,0,0,2.21-4.65v-.47h-1.8V45.93h4.83v1.12H71.5v.44a6.37,6.37,0,0,0,.5,2.69A3.52,3.52,0,0,0,73.45,51.85Zm11.9-.77c-1,.13-2.17.22-3.43.28s-2.58.1-3.54.1l-.19-1.14c1.1,0,2.06,0,2.9,0v-1.2H79.23V45.4h5v1.12H80.64V48h3.7v1.12H82.51v1.15c1.12-.06,2-.13,2.72-.23Zm1.84-6.43v7.84H85.78V44.65ZM87.28,55H80.05V52h1.42v1.88h5.81Zm12.78.31h-1.4V44.65h1.4Zm-2.21-3.48L97,52.92a5.88,5.88,0,0,1-1.39-1.29,5.37,5.37,0,0,1-1-1.67,5.23,5.23,0,0,1-1,1.82,5.1,5.1,0,0,1-1.56,1.36l-.85-1a5.53,5.53,0,0,0,2.66-4.93V45.55h1.45v1.56a5.3,5.3,0,0,0,2.47,4.75Zm13.33-3h-1.52v3.54h-1.42V44.65h1.42v3h1.52Zm-4.51-3.39a5.34,5.34,0,0,1-1.37,3.7,6.78,6.78,0,0,1-3.45,2l-.7-1.11a5.73,5.73,0,0,0,2.6-1.19,3.75,3.75,0,0,0,1.41-2.26h-3.47V45.46ZM109.92,55h-7.14V51.58h1.42v2.33h5.72Zm13.14.31h-1.39V44.65h1.39ZM115.27,52a5.54,5.54,0,0,1,0-5.53,2.34,2.34,0,0,1,2-1.06,2.3,2.3,0,0,1,2,1.06,5.52,5.52,0,0,1,0,5.52,2.48,2.48,0,0,1-4,0Zm3.45-2.76a4.24,4.24,0,0,0-.4-2,1.18,1.18,0,0,0-1-.72,1.13,1.13,0,0,0-1,.72,4.11,4.11,0,0,0-.39,2,4,4,0,0,0,.39,1.95,1.12,1.12,0,0,0,1,.72,1.18,1.18,0,0,0,1-.72A4.09,4.09,0,0,0,118.72,49.21Zm13.88.37a1.37,1.37,0,0,1-.92,1.24,7.28,7.28,0,0,1-5,0,1.31,1.31,0,0,1,0-2.5,5.71,5.71,0,0,1,2.52-.46,5.8,5.8,0,0,1,2.53.46A1.39,1.39,0,0,1,132.6,49.58Zm-2.78,5.75h-1.4V52.81h-4.1V51.69H134v1.12h-4.15Zm3.61-7.84h-8.56v-1.1h8.56Zm-6.19-1.61V44.79h3.81v1.09Zm3.92,3.7q0-.3-.57-.48a4.92,4.92,0,0,0-1.43-.18,4.86,4.86,0,0,0-1.42.18c-.38.11-.56.28-.56.48s.18.35.56.47a5.21,5.21,0,0,0,1.42.17,5.33,5.33,0,0,0,1.43-.17c.38-.12.57-.28.57-.47Zm14.92.47h-1.4V49h-1.55V48h1.55V47h-1.55V46h1.55V44.65h1.4Zm.33,5.21h-7.36V52.39h5.64v-.73H139V50.54h7.08v2.87h-5.62v.72h5.95Zm-3.79-5.52h-5V45.1H139v1.3h2.22V45.09h1.4Zm-1.4-1.12V47.5H139v1.12Zm14.59,1.8h-3v2.47H157V54h-9.66v-1.1h4.1V50.42h-2.85v-5h7.17v1.11H150V49.3h5.83Zm14.11,3.42h-9.66V52.72h3.47v-3.6h1.4v3.6h4.79Zm-1.1-8.26a24.12,24.12,0,0,1-.45,6.06L167,51.48a17.79,17.79,0,0,0,.39-4.77H161.3V45.58ZM177,51.7l-.78,1.1a5.5,5.5,0,0,1-1.54-1.25,4.64,4.64,0,0,1-1-1.62,4.4,4.4,0,0,1-.93,1.76,4.94,4.94,0,0,1-1.65,1.36l-.84-1a5.07,5.07,0,0,0,2.68-4.86v-.28h-2.15V45.74h5.68v1.12h-2.07v.27A4.73,4.73,0,0,0,177,51.7Zm2.15,3.64h-1.4V44.65h1.4Zm12.93-5h-1.4V48.13h-1.43V47h1.43V44.65h1.4Zm-8-1a2.18,2.18,0,0,1-.8-1.76,2.33,2.33,0,0,1,.79-1.81,2.75,2.75,0,0,1,2-.74,2.82,2.82,0,0,1,2,.73,2.41,2.41,0,0,1,.79,1.82,2.28,2.28,0,0,1-.78,1.76,3.16,3.16,0,0,1-3.94,0Zm1-2.73a1.32,1.32,0,0,0-.41,1,1.17,1.17,0,0,0,.4.91,1.38,1.38,0,0,0,1,.38,1.34,1.34,0,0,0,1-.38,1.2,1.2,0,0,0,.4-.91,1.35,1.35,0,0,0-1.4-1.37,1.33,1.33,0,0,0-1,.41Zm3.08,8.57h-3.83V51h1.32v1.13h1.2V51h1.31Zm-1.31-1v-1h-1.2v1Zm6.12.07-.74,1.06a3,3,0,0,1-.93-.6,2.24,2.24,0,0,1-.66-.92,2.1,2.1,0,0,1-.63.87,3.34,3.34,0,0,1-1,.65l-.77-1.1A2.46,2.46,0,0,0,190,51.7v-.8h1.38v.8a2.94,2.94,0,0,0,.42,1.59,2.2,2.2,0,0,0,1.23.93Zm9.18,1.12H200.8V44.65h1.39ZM194.4,52a5.54,5.54,0,0,1,0-5.53,2.46,2.46,0,0,1,4,0,5.52,5.52,0,0,1,0,5.52,2.48,2.48,0,0,1-4,0Zm3.45-2.76a4.24,4.24,0,0,0-.4-2,1.18,1.18,0,0,0-1-.72,1.16,1.16,0,0,0-1,.72,4.36,4.36,0,0,0-.39,2,4.23,4.23,0,0,0,.39,1.95,1.14,1.14,0,0,0,1,.72,1.18,1.18,0,0,0,1-.72,4.09,4.09,0,0,0,.4-1.95Zm14.9,2.63-.78,1a5.27,5.27,0,0,1-1.55-1.27,4.67,4.67,0,0,1-1-1.64,4.66,4.66,0,0,1-.94,1.77,4.94,4.94,0,0,1-1.65,1.36L206,52a5.13,5.13,0,0,0,2.71-4.86v-.29H206.5V45.74h5.7v1.15h-2.09v.28a4.93,4.93,0,0,0,2.64,4.67Zm1.9-7.19v4.11h1.53v1.17h-1.52v5.41h-1.4V44.65Zm10.25,4h-3v1H226v1.12h-9.66V49.65h4.1v-1h-2.82V44.89h7.16V46h-5.76v1.49h5.85Zm0,4.73a1.65,1.65,0,0,1-1,1.47,7.37,7.37,0,0,1-5.49,0,1.59,1.59,0,0,1,0-2.93,7.35,7.35,0,0,1,5.48,0,1.62,1.62,0,0,1,1,1.46Zm-2.06.65c.41-.15.62-.37.62-.64s-.21-.49-.62-.65a4.76,4.76,0,0,0-1.67-.24,4.67,4.67,0,0,0-1.66.24c-.41.16-.61.38-.61.65s.2.49.61.64a5.9,5.9,0,0,0,3.33,0Zm15-.65a1.62,1.62,0,0,1-1,1.46,7.37,7.37,0,0,1-5.49,0,1.56,1.56,0,0,1,0-2.9,5.7,5.7,0,0,1,2.73-.53,5.78,5.78,0,0,1,2.75.53,1.6,1.6,0,0,1,1,1.44Zm.64-5.37-.6,1.1a5.5,5.5,0,0,1-2.23-.67,3.7,3.7,0,0,1-1.53-1.35,3.28,3.28,0,0,1-1.45,1.38,5.94,5.94,0,0,1-2.33.66l-.58-1.1a5.14,5.14,0,0,0,2.21-.57,2.57,2.57,0,0,0,1.29-1.27h-3v-1.1H238v1.1h-3a2.77,2.77,0,0,0,1.37,1.27A4.91,4.91,0,0,0,238.51,48ZM239,50.9h-9.66V49.77h4.1V48.43h1.4v1.34H239ZM235.8,54c.42-.15.63-.37.63-.64s-.21-.49-.63-.64a4.73,4.73,0,0,0-1.67-.24,4.62,4.62,0,0,0-1.65.24c-.41.15-.61.37-.61.64s.2.49.61.64a4.62,4.62,0,0,0,1.65.24A4.73,4.73,0,0,0,235.8,54Zm12.34-2.78h-1.55v1.67h2.46V54h-9.66V52.89h2.44V51.22h-1.2V47.68h5.8V46.45h-5.86V45.33h7.26V48.8H242v1.3h6.12Zm-4.95,0v1.67h2V51.22Zm15.19,4h-7.15V51.34h1.4v.88H257v-.9h1.43Zm-1.83-4.78c-1.18.15-2.32.24-3.43.28-1.75.07-2.92.11-3.53.11l-.2-1.12c1.1,0,2.06,0,2.9-.05v-1h-1.85V45.13h5v1.11h-3.63V47.5h3.71v1.12h-1.83v1c1-.05,1.93-.11,2.71-.2Zm1.83-5.78v6.14H257V44.65ZM257,54.12v-.84h-4.32v.84Zm11.41-9.47V55.34H267V44.65Zm-2.47,6.41.18,1.12a15.77,15.77,0,0,1-2.37.36c-1,.08-1.84.12-2.59.12h-1V45.72h1.39v5.74a19.43,19.43,0,0,0,4.37-.4ZM278,44.65v4h1.54v1.16H278v5.5h-1.4V44.65Zm-6.55,7.05a20.54,20.54,0,0,0,4.22-.32c0,.12,0,.31.08.56s.06.44.08.56a22.13,22.13,0,0,1-4.74.36h-1V45.63h4.88v1.13h-3.49Zm8.7,2.39v-1.4h1.46v1.4ZM7,76V74.35H3.17v-.86l4.16-5.82h1v5.59H9.55v1.09H8.34V76ZM4.78,73.26H7v-3.1Zm5.63,2.83v-1.4h1.46v1.4Zm13.51-9.44v4.1H25.5v1.16H23.92v5.43H22.49V66.65Zm-8.28,4.56a4.67,4.67,0,0,1,.74-2.77,2.46,2.46,0,0,1,4.06,0,5.52,5.52,0,0,1,0,5.52,2.48,2.48,0,0,1-3.47.59,2.36,2.36,0,0,1-.59-.59A4.63,4.63,0,0,1,15.64,71.21Zm4.2,0a4.24,4.24,0,0,0-.4-2,1.18,1.18,0,0,0-1-.72,1.15,1.15,0,0,0-1,.72,4.12,4.12,0,0,0-.4,2,4,4,0,0,0,.4,2,1.14,1.14,0,0,0,1,.72,1.18,1.18,0,0,0,1-.72A4.09,4.09,0,0,0,19.84,71.21Zm14.89,6.13H33.38V72h-.9v4.87H31.16v-10h1.32v4h.9v-4.2h1.35Zm-4.07-2.85a17.4,17.4,0,0,1-3.81.3H26V70.57h2.64V68.93H26V67.81H30v3.87H27.41v2a14.65,14.65,0,0,0,3.1-.27Q30.63,74.13,30.66,74.49Zm6.91-4.6a1.33,1.33,0,0,0,.42,1,1.54,1.54,0,0,0,1.12.4,1.57,1.57,0,0,0,1.13-.4,1.33,1.33,0,0,0,.42-1,1.3,1.3,0,0,0-.42-1,1.61,1.61,0,0,0-1.13-.39,1.59,1.59,0,0,0-1.12.39A1.34,1.34,0,0,0,37.57,69.89Zm7.17-3.24V77.34H43.35V66.65Zm-8.6,3.25A2.36,2.36,0,0,1,37,68.05a3.63,3.63,0,0,1,4.32,0,2.53,2.53,0,0,1,.14,3.56l-.14.14a3.59,3.59,0,0,1-4.31,0,2.35,2.35,0,0,1-.83-1.85Zm6.77,4.7c-1.06.14-2.26.24-3.62.32-1.6.06-2.72.09-3.36.08l-.2-1.2q2,0,3.48-.06c1.4,0,2.59-.14,3.58-.26ZM57,66.65v4.11h1.53v1.16H57v5.42H55.61V66.65Zm-1.93,7.09-.41.53q-.27.35-.42.51a6.82,6.82,0,0,1-1.47-1.32,4.56,4.56,0,0,1-1-1.66,5.21,5.21,0,0,1-1,1.8A5.71,5.71,0,0,1,49.25,75c-.4-.48-.68-.82-.87-1A5.53,5.53,0,0,0,51,69V67.55h1.46v1.39a5.45,5.45,0,0,0,2.59,4.8ZM67.35,69.5a2,2,0,0,1-1,1.73,6.16,6.16,0,0,1-5.52,0A1.94,1.94,0,0,1,60,68.61a2,2,0,0,1,.82-.82,6.16,6.16,0,0,1,5.52,0A2,2,0,0,1,67.35,69.5ZM62.4,77.33H61V73.76H58.73V72.65h9.66v1.11H66.07v3.57h-1.4V73.76H62.4Zm2.84-6.93a1,1,0,0,0,.64-.9,1,1,0,0,0-.63-.88,4.3,4.3,0,0,0-3.41,0,1,1,0,0,0-.64.88,1,1,0,0,0,.64.9,4.28,4.28,0,0,0,3.4,0Zm10.53,6.45H74.45v-5h-.91a4.92,4.92,0,0,1-.68,2.33,1.82,1.82,0,0,1-1.64.92,1.78,1.78,0,0,1-1.32-.56,3.2,3.2,0,0,1-.76-1.4,7.51,7.51,0,0,1-.22-1.89,7.28,7.28,0,0,1,.22-1.86A3.12,3.12,0,0,1,69.9,68a1.74,1.74,0,0,1,1.32-.56,1.85,1.85,0,0,1,1.65.91,5.11,5.11,0,0,1,.67,2.35h.91V66.85h1.32Zm2.14.49H76.58V66.65H77.9ZM72,73.15a5.91,5.91,0,0,0,.25-1.87A6,6,0,0,0,72,69.4c-.17-.48-.43-.72-.77-.72s-.58.24-.75.72a7.16,7.16,0,0,0,0,3.75q.26.72.75.72c.34,0,.59-.24.76-.72Zm18.84,4.19H89.51V72.09h-.89v4.75H87.31v-10h1.31V71h.89V66.65h1.33Zm-4.86-6a2.33,2.33,0,0,1,0,3.23,2.6,2.6,0,0,1-3.37,0,2.29,2.29,0,0,1,0-3.2,2.64,2.64,0,0,1,3.37,0Zm-4.26-1V69.2h5.1v1.12Zm3.65,2.62a1.11,1.11,0,0,0-.3-.8,1.1,1.1,0,0,0-.78-.32,1,1,0,0,0-.77.32,1.23,1.23,0,0,0,0,1.61,1.12,1.12,0,0,0,1.55,0A1.14,1.14,0,0,0,85.38,72.94ZM82.9,68.59V67.48h2.88v1.11Zm10.67,2.62a21.33,21.33,0,0,0,4.22-.33L98,72a22.77,22.77,0,0,1-4.73.38h-1V67.45h4.77v1.12H93.57Zm8.12-.82h-1.51V72.9H98.76V66.65h1.42v2.6h1.51Zm-1.38,4.79a1.75,1.75,0,0,1-1,1.56,5.3,5.3,0,0,1-2.7.58A5.18,5.18,0,0,1,94,76.74a1.75,1.75,0,0,1,0-3.14A5.18,5.18,0,0,1,96.64,73a5.26,5.26,0,0,1,2.7.58A1.76,1.76,0,0,1,100.31,75.18Zm-2,.75a.83.83,0,0,0,.58-.75.85.85,0,0,0-.58-.76,5.09,5.09,0,0,0-3.27,0,.85.85,0,0,0-.58.76.83.83,0,0,0,.58.75A5.09,5.09,0,0,0,98.28,75.93Zm9.78-5.62h-6.2V69.19h6.2Zm-4.7-1.86v-1.1h3.3v1.1Zm6.91-1.8V71h1.49v1.16h-1.49v5.2h-1.41V66.65ZM102.38,73a2.16,2.16,0,0,1,.72-1.65,3,3,0,0,1,3.73,0,2.27,2.27,0,0,1,.1,3.2l-.11.1a3,3,0,0,1-3.72,0A2.12,2.12,0,0,1,102.38,73Zm1.37,0a1.09,1.09,0,0,0,.34.84,1.38,1.38,0,0,0,1.77,0,1.15,1.15,0,0,0,.31-.85,1.09,1.09,0,0,0-.34-.85,1.33,1.33,0,0,0-1.74,0,1.12,1.12,0,0,0-.34.85Zm17.89.06H112V71.92h9.66Zm-1.19-2.32h-7.17V67h1.4v2.6h5.77Zm.08,6.33h-7.31V73.89h1.39v2h5.92Zm12.81-5.72h-7.19V67.08h1.4v1.1H132V67.07h1.39ZM130.54,75h-1.4V73.25h-4.22v-1.1h9.66v1.1h-4Zm2.9,2h-7.3v-3h1.4V76h5.89Zm-1.5-6.84v-.93h-4.38v.93Zm11.58,0h-7.24V66.83h7.17v1.11h-5.76v1.19h5.84ZM144.65,72H135V70.91h9.66Zm-.89,5.25h-7.53V74.51H142v-.65h-5.82v-1.1h7.23v2.76h-5.76v.62h6.14Zm11-4.14h-9.65V72h9.66Zm-1.12,3.9h-7.35V73.93h1.4v2h6Zm0-7.87a1.78,1.78,0,0,1-1,1.56,6.51,6.51,0,0,1-5.46,0,1.7,1.7,0,0,1,0-3.1,6.49,6.49,0,0,1,5.45,0,1.77,1.77,0,0,1,1,1.54Zm-1.45,0a.89.89,0,0,0-.62-.78,4,4,0,0,0-1.68-.3,3.93,3.93,0,0,0-1.65.3.88.88,0,0,0-.61.78c0,.32.2.57.61.76a4.08,4.08,0,0,0,1.65.29,4.16,4.16,0,0,0,1.68-.29c.42-.19.63-.44.63-.76Zm7.56,2a20.59,20.59,0,0,0,4.22-.32l.16,1.08a22.76,22.76,0,0,1-4.73.37h-1.05V67.45h4.77v1.12h-3.37Zm8.13-.81h-1.51V72.9H165V66.65h1.42v2.6h1.51Zm-1.38,4.79a1.75,1.75,0,0,1-1,1.56,6.53,6.53,0,0,1-5.38,0,1.75,1.75,0,0,1,0-3.14,5.2,5.2,0,0,1,2.68-.58,5.31,5.31,0,0,1,2.71.58A1.77,1.77,0,0,1,166.5,75.18Zm-2,.75a.83.83,0,0,0,.58-.75.85.85,0,0,0-.58-.76,5.09,5.09,0,0,0-3.27,0,.85.85,0,0,0-.58.76.83.83,0,0,0,.58.75A5.09,5.09,0,0,0,164.47,75.93Zm12.47,1.28h-7.09V73.48h7.09Zm-8.5-7.5V68.59h5.63v1.12h-2a2.85,2.85,0,0,0,2.32,2.23c-.16.24-.4.6-.7,1.08a4.66,4.66,0,0,1-1.37-.74,3.22,3.22,0,0,1-1-1.16,3.41,3.41,0,0,1-1,1.32,4.27,4.27,0,0,1-1.52.87c-.09-.14-.22-.33-.41-.58s-.3-.43-.36-.5a3.22,3.22,0,0,0,2.5-2.52Zm8.5,3.25h-1.4V71.14h-1.62V70h1.62V66.65h1.4Zm-1.4,3.14V74.56h-4.28V76.1ZM169.72,68V67h3.11V68Zm20.41,9.3h-1.35V72h-.95v4.87h-1.32v-10h1.32v4h.95V66.65h1.35Zm-7.38-3.68a12.37,12.37,0,0,0,3.1-.24l.14,1.1a15.66,15.66,0,0,1-3.62.28h-1V67.92h4.05V69h-2.64ZM201,70.34h-1.53V72.9h-1.42V66.65h1.42v2.54H201Zm-3.6,1-.8,1.09a4.35,4.35,0,0,1-1.37-.86,4.06,4.06,0,0,1-1-1.3,3.37,3.37,0,0,1-1,1.47,4.2,4.2,0,0,1-1.52,1l-.85-1.12a4,4,0,0,0,1.89-1.33,3.32,3.32,0,0,0,.7-2.1v-1h1.44v.92a3.08,3.08,0,0,0,.74,2,3.9,3.9,0,0,0,1.75,1.22Zm2.2,3.86a1.79,1.79,0,0,1-1,1.58,6.53,6.53,0,0,1-5.38,0,1.78,1.78,0,0,1,0-3.17,5.2,5.2,0,0,1,2.68-.58,5.41,5.41,0,0,1,2.71.57,1.81,1.81,0,0,1,1,1.6Zm-3.68-1.06a3.94,3.94,0,0,0-1.62.29.79.79,0,0,0,0,1.53,3.9,3.9,0,0,0,1.62.27,4,4,0,0,0,1.65-.27.79.79,0,0,0,0-1.53,3.89,3.89,0,0,0-1.65-.29Zm12.23,2.73h-1.32v-5h-.91a4.92,4.92,0,0,1-.68,2.33,1.81,1.81,0,0,1-1.64.92,1.78,1.78,0,0,1-1.32-.56,3.2,3.2,0,0,1-.76-1.4,7.51,7.51,0,0,1-.22-1.89,7.28,7.28,0,0,1,.22-1.86,3.22,3.22,0,0,1,.76-1.39,1.74,1.74,0,0,1,1.32-.56,1.85,1.85,0,0,1,1.65.91,5.11,5.11,0,0,1,.67,2.35h.91V66.85h1.32Zm2.14.49H209V66.65h1.32Zm-5.9-4.19a5.91,5.91,0,0,0,.25-1.87,6,6,0,0,0-.25-1.88c-.17-.48-.43-.72-.77-.72s-.58.24-.74.72a6.89,6.89,0,0,0,0,3.75c.16.48.41.72.74.72s.59-.24.75-.72Zm15.74,4.19h-1.41V71.45h-1.95V70.26h1.93V66.65h1.42Zm-2.36-3.43-.8,1a6,6,0,0,1-1.45-1.31,5.28,5.28,0,0,1-1-1.69A5.85,5.85,0,0,1,212,75.14l-.84-1a5.54,5.54,0,0,0,2.65-4.93V67.55h1.44v1.56a5.46,5.46,0,0,0,2.56,4.8Zm11.7,0-.79,1a4.38,4.38,0,0,1-1.11-1.08,4.08,4.08,0,0,1-.75-1.41,4.46,4.46,0,0,1-.79,1.55,4,4,0,0,1-1.24,1.18l-.85-1a5.17,5.17,0,0,0,2.21-4.64V69h-1.8V67.88h4.82V69h-1.67v.49a6.62,6.62,0,0,0,.5,2.68,3.62,3.62,0,0,0,1.47,1.69Zm1.69,3h-1.31V71.48h-1.39V70.33h1.39V66.85h1.31Zm2.15.49H232V66.65h1.33Zm8-2.42a55.33,55.33,0,0,1-6.69.37c-.08-.46-.15-.83-.2-1.13l2.67,0v-1.7a2.86,2.86,0,0,1-1.59-.83,2.34,2.34,0,0,1-.6-1.61,2.44,2.44,0,0,1,.82-1.86,3.19,3.19,0,0,1,4.11,0,2.36,2.36,0,0,1,.84,1.86,2.26,2.26,0,0,1-.6,1.58,2.82,2.82,0,0,1-1.57.84v1.66c1.13-.08,2-.16,2.71-.24Zm1.9-8.27V77.34h-1.42V66.65ZM239.25,70a1.38,1.38,0,0,0-.44-1,1.58,1.58,0,0,0-1.08-.39,1.54,1.54,0,0,0-1,.4,1.33,1.33,0,0,0-.43,1,1.16,1.16,0,0,0,.43,1,1.55,1.55,0,0,0,1,.37A1.6,1.6,0,0,0,238.8,71,1.2,1.2,0,0,0,239.25,70Zm12,3.85.14,1.07c-1,.14-2.15.23-3.33.29-1.8.06-3,.08-3.53.08l-.19-1.14c1,0,1.88,0,2.8,0v-2h-1.94V67.61h5.34v1.11h-3.93v2.33h4v1.1h-2v1.91c1.06,0,2-.12,2.72-.21Zm2-7.2v10.7h-1.4V66.65Zm7.07,3.46V68.93h1.56V66.65h1.39V77.34h-1.39V73.09h-1.56V71.92h1.56V70.1Zm-2,3.29V68.76h-2.2v4.63Zm1.42-5.76v6.89h-5V67.63Zm4.73,9.89L265,75.1h1.51l-.86,2.42Zm7.32-6.31a21.33,21.33,0,0,0,4.22-.33l.16,1.08a22.77,22.77,0,0,1-4.73.38h-1V67.45h4.76v1.12h-3.37Zm8.12-.82h-1.51V72.9H277V66.65h1.42v2.6H280Zm-1.38,4.79a1.75,1.75,0,0,1-1,1.56,6.53,6.53,0,0,1-5.38,0,1.75,1.75,0,0,1,0-3.14,5.2,5.2,0,0,1,2.68-.58,5.31,5.31,0,0,1,2.71.58,1.77,1.77,0,0,1,1,1.58Zm-2,.75a.83.83,0,0,0,.58-.75.85.85,0,0,0-.58-.76,5.09,5.09,0,0,0-3.27,0,.85.85,0,0,0-.58.76.83.83,0,0,0,.58.75A5.09,5.09,0,0,0,276.55,75.93ZM289,77.21h-7.09V73.48H289Zm-8.5-7.5V68.59h5.63v1.12h-2a2.85,2.85,0,0,0,2.32,2.23c-.16.24-.4.6-.7,1.08a4.66,4.66,0,0,1-1.37-.74,3.22,3.22,0,0,1-1-1.16,3.41,3.41,0,0,1-1,1.32,4.27,4.27,0,0,1-1.52.87c-.09-.14-.22-.33-.41-.58s-.3-.43-.36-.5a3.22,3.22,0,0,0,2.5-2.52ZM289,73h-1.4V71.14H286V70h1.62V66.65H289Zm-1.4,3.14V74.56h-4.28V76.1ZM281.8,68V67h3.11V68ZM302,77.34h-1.39V66.65H302ZM294.16,74a5.54,5.54,0,0,1,0-5.53,2.46,2.46,0,0,1,3.44-.61,2.21,2.21,0,0,1,.61.61,5.52,5.52,0,0,1,0,5.52,2.49,2.49,0,0,1-3.47.59A2.66,2.66,0,0,1,294.16,74Zm3.45-2.76a4.24,4.24,0,0,0-.4-2,1.18,1.18,0,0,0-1-.72,1.16,1.16,0,0,0-1,.72,4.36,4.36,0,0,0-.39,2,4.23,4.23,0,0,0,.39,2,1.14,1.14,0,0,0,1,.72,1.18,1.18,0,0,0,1-.72,4.11,4.11,0,0,0,.39-2Zm13.88.37a1.38,1.38,0,0,1-.92,1.24,7.28,7.28,0,0,1-5,0,1.31,1.31,0,0,1,0-2.5,7.2,7.2,0,0,1,5.05,0,1.4,1.4,0,0,1,.9,1.26Zm-2.78,5.75h-1.4V74.81h-4.1V73.69h9.66v1.12H308.7Zm3.61-7.84h-8.56v-1.1h8.56Zm-6.19-1.61V66.79h3.81v1.09Zm3.92,3.7q0-.3-.57-.48a5.89,5.89,0,0,0-2.86,0c-.37.11-.55.28-.55.48s.18.35.55.47a6.1,6.1,0,0,0,2.86,0c.38-.12.57-.28.57-.47Zm10.19,5.27h-1.32v-5H318a5,5,0,0,1-.68,2.34,1.84,1.84,0,0,1-1.64.91,1.74,1.74,0,0,1-1.32-.56,3.15,3.15,0,0,1-.76-1.4,7.06,7.06,0,0,1-.22-1.88,6.82,6.82,0,0,1,.22-1.86,3.15,3.15,0,0,1,.76-1.4,1.78,1.78,0,0,1,1.32-.56,1.81,1.81,0,0,1,1.64.92,5,5,0,0,1,.68,2.34h.91V66.85h1.32Zm2.13.49h-1.32V66.65h1.32Zm-5.9-4.18a5.7,5.7,0,0,0,.26-1.88,5.91,5.91,0,0,0-.26-1.87c-.16-.49-.42-.73-.76-.73s-.58.24-.75.73a7.12,7.12,0,0,0,0,3.74c.17.48.42.73.75.73s.59-.25.76-.73Zm13.2,1.4a27.09,27.09,0,0,1-4.76.33h-1.13V70.45h3.47V68.68h-3.52V67.56h4.92v4h-3.47v2.17a25.56,25.56,0,0,0,4.37-.31Zm2-7.91v4.1h1.5V71.9h-1.5v5.44h-1.4V66.65Zm10.22,5.77h-3v2.47h4.15V76h-9.66v-1.1h4.1V72.42h-2.85v-5h7.18v1.11h-5.78V71.3h5.83Zm13.62,4.85h-7.37V74.39h5.63v-.74h-5.69V72.53h7.08v2.88h-5.6v.73h5.94ZM355.21,72h-1.39v-.91h-2V70h2v-.9H352v-1h1.81V66.65h1.39Zm-3.34-4.9a4.75,4.75,0,0,1-.41,2,4.66,4.66,0,0,1-1.11,1.53,7.14,7.14,0,0,1-1.52,1,7.86,7.86,0,0,1-1.77.6l-.68-1.14a5.86,5.86,0,0,0,2.57-1,3.17,3.17,0,0,0,1.36-1.88h-3.43V67.1Zm13.43,5.74h-1.4V71.77h-2V70.62h2v-1h-1.81V68.45h1.81v-1.8h1.4Zm0,4.51H363.9V74.51h-5.83V73.39h7.24Zm-3.39-10.07q-.15,4.14-4.74,5.6l-.73-1.13A6.22,6.22,0,0,0,359,70.57a3.58,3.58,0,0,0,1.35-2.12H357V67.28Zm15.82-.63v4.11h1.53v1.16h-1.53v5.42h-1.39V66.65Zm-1.92,7.09-.42.53c-.18.23-.31.4-.41.51a6.87,6.87,0,0,1-1.48-1.32,4.85,4.85,0,0,1-1-1.66,5.18,5.18,0,0,1-1,1.8A5.75,5.75,0,0,1,370,75c-.39-.48-.68-.82-.86-1a5.53,5.53,0,0,0,2.65-5V67.55h1.45v1.39a5.61,5.61,0,0,0,.68,2.78A5.55,5.55,0,0,0,375.82,73.74Zm12.26-4.24a2,2,0,0,1-1,1.73,6.16,6.16,0,0,1-5.52,0,2,2,0,0,1,0-3.44,6.16,6.16,0,0,1,5.52,0A2,2,0,0,1,388.08,69.5Zm-4.94,7.83h-1.4V73.76h-2.27V72.65h9.66v1.11h-2.32v3.57h-1.4V73.76h-2.26ZM386,70.4a1.06,1.06,0,0,0,.64-.9,1,1,0,0,0-.64-.88,4.3,4.3,0,0,0-3.41,0,1,1,0,0,0-.63.88,1,1,0,0,0,.63.9,4.28,4.28,0,0,0,3.4,0Zm13.47,1.52H397.9v5.42h-1.39V66.65h1.39v4.1h1.55Zm-4.36-4.18a8.5,8.5,0,0,1-4.79,7.67l-.85-1.06a7.16,7.16,0,0,0,2.84-2.3,6.09,6.09,0,0,0,1.28-3.14H390.1V67.74Zm13.14,3.35a1.07,1.07,0,0,1-.49.91,2.81,2.81,0,0,1-1.33.47v.37a24.34,24.34,0,0,0,2.56-.23q0,.21.06.6a4.11,4.11,0,0,1,.05.46c-.85.1-1.94.19-3.26.26s-2.4.11-3.23.11l-.19-1.13,2.6,0v-.41a2.73,2.73,0,0,1-1.33-.47,1.11,1.11,0,0,1-.5-.92,1.2,1.2,0,0,1,.7-1.07,4.39,4.39,0,0,1,3.65,0,1.19,1.19,0,0,1,.71,1.07ZM411,66.65V70h1.32v1.16H411V74h-1.4V66.65Zm-7.35,7.87H411v2.83h-1.4V75.62H403.6Zm5.15-5.18h-6v-1h6Zm-4.4-1.42v-1h2.9v1Zm2.51,3.17c0-.15-.1-.27-.3-.37a2,2,0,0,0-.86-.14,1.91,1.91,0,0,0-.85.14c-.2.1-.3.22-.3.37s.1.27.3.36a2,2,0,0,0,.85.13C406.47,71.58,406.86,71.42,406.86,71.09Zm14.53,3.31H420V66.65h1.39Zm.24,2.66h-7.41V73.63h1.41V76h6Zm-8.73-7a2.49,2.49,0,0,1,.8-1.9,3.33,3.33,0,0,1,4.19,0,2.46,2.46,0,0,1,.79,1.9,2.43,2.43,0,0,1-.79,1.9,3.37,3.37,0,0,1-4.2,0,2.43,2.43,0,0,1-.79-1.9Zm1.44,0a1.46,1.46,0,0,0,.4,1.07,1.58,1.58,0,0,0,2.13,0,1.54,1.54,0,0,0,.39-1.07,1.39,1.39,0,0,0-1.32-1.44h-.15a1.39,1.39,0,0,0-1.45,1.44Zm15.38,3c-1,.13-2.17.22-3.43.28s-2.58.11-3.54.11l-.19-1.14c1.09,0,2.06,0,2.9,0v-1.2H423.6V67.4h5v1.12H425V70h3.7v1.12h-1.82v1.15c1.12-.06,2-.13,2.71-.23Zm1.84-6.43v7.84h-1.42V66.65ZM431.64,77h-7.22V74h1.41v1.88h5.81Zm12.85-1.86a1.78,1.78,0,0,1-1,1.59,5.26,5.26,0,0,1-2.7.58,5.15,5.15,0,0,1-2.67-.58,1.79,1.79,0,0,1-.76-2.42,1.74,1.74,0,0,1,.76-.76,5.15,5.15,0,0,1,2.67-.58,5.26,5.26,0,0,1,2.7.58,1.78,1.78,0,0,1,1,1.59Zm-.07-2.31H443V71.69h-2V70.62h2V69.56h-1.81v-1.1H443V66.65h1.4Zm-1.95,3.08a.84.84,0,0,0,.57-.77.85.85,0,0,0-.58-.77,3.84,3.84,0,0,0-1.64-.28,3.66,3.66,0,0,0-1.6.28.81.81,0,0,0,0,1.54,3.78,3.78,0,0,0,1.6.28,4.07,4.07,0,0,0,1.65-.28Zm-1.42-8.59c-.11,2.77-1.69,4.64-4.74,5.59l-.74-1.13a6.27,6.27,0,0,0,2.56-1.19,3.62,3.62,0,0,0,1.36-2.11h-3.41V67.34Zm13.22,2.13a1.94,1.94,0,0,1-1,1.71,6.18,6.18,0,0,1-5.53,0,1.93,1.93,0,0,1-.81-2.61,1.89,1.89,0,0,1,.82-.81,6.1,6.1,0,0,1,5.52,0,1.93,1.93,0,0,1,1,1.71Zm-3.1,7.88h-1.4V73.8h-4.1V72.67h9.66V73.8h-4.16Zm1-7a1,1,0,0,0,.59-1.2.91.91,0,0,0-.59-.59,4.28,4.28,0,0,0-3.4,0,.94.94,0,0,0-.59,1.2,1,1,0,0,0,.59.59A4.28,4.28,0,0,0,452.17,70.38Zm10.53,6.47h-1.32v-5h-.91a5,5,0,0,1-.68,2.34,1.82,1.82,0,0,1-1.64.91,1.74,1.74,0,0,1-1.32-.56,3.15,3.15,0,0,1-.76-1.4,7.49,7.49,0,0,1-.22-1.88,7.23,7.23,0,0,1,.22-1.86,3.25,3.25,0,0,1,.76-1.4,1.78,1.78,0,0,1,1.32-.56,1.83,1.83,0,0,1,1.65.92,5.07,5.07,0,0,1,.67,2.34h.91V66.85h1.32Zm2.13.49h-1.32V66.65h1.32Zm-5.9-4.18a5.69,5.69,0,0,0,.25-1.88,5.63,5.63,0,0,0-.25-1.87c-.17-.49-.42-.73-.77-.73s-.57.24-.74.73a7.12,7.12,0,0,0,0,3.74c.17.48.42.73.74.73s.6-.25.77-.73Zm16.55-.11h-9.66V71.92h9.66Zm-1.19-2.33h-7.17V67h1.4v2.6h5.77Zm.07,6.34h-7.3V73.89h1.39v2h5.91Zm6.14-5.85a20.59,20.59,0,0,0,4.22-.32l.16,1.08a22.76,22.76,0,0,1-4.73.37h-1V67.45h4.77v1.12h-3.38Zm8.12-.82h-1.51V72.9h-1.42V66.65h1.42v2.6h1.51Zm-1.38,4.79a1.75,1.75,0,0,1-1,1.56,5.3,5.3,0,0,1-2.7.58,5.24,5.24,0,0,1-2.69-.58,1.76,1.76,0,0,1-.77-2.37,1.79,1.79,0,0,1,.77-.77,5.2,5.2,0,0,1,2.68-.58,5.31,5.31,0,0,1,2.71.58A1.76,1.76,0,0,1,487.24,75.18Zm-2,.75a.82.82,0,0,0,.59-.75.85.85,0,0,0-.59-.76,5.06,5.06,0,0,0-3.26,0,.85.85,0,0,0-.58.76.83.83,0,0,0,.58.75A5.06,5.06,0,0,0,485.2,75.93Zm12.48,1.28h-7.1V73.48h7.1Zm-8.5-7.5V68.59h5.63v1.12h-2a2.85,2.85,0,0,0,2.32,2.23c-.16.24-.4.6-.7,1.08a4.66,4.66,0,0,1-1.37-.74,3.22,3.22,0,0,1-1-1.16,3.41,3.41,0,0,1-1,1.32,4.27,4.27,0,0,1-1.52.87c-.09-.14-.22-.33-.41-.58s-.3-.43-.36-.5a3.22,3.22,0,0,0,2.5-2.52Zm8.5,3.25h-1.4V71.14h-1.62V70h1.62V66.65h1.4Zm-1.4,3.14V74.56H492V76.1ZM490.46,68V67h3.11V68Zm17.29,9.3h-1.39V66.65h1.39ZM500,74a4.66,4.66,0,0,1-.74-2.76,4.74,4.74,0,0,1,.74-2.77,2.47,2.47,0,0,1,3.45-.61,2.52,2.52,0,0,1,.61.61A5.58,5.58,0,0,1,504,74,2.5,2.5,0,0,1,500,74Zm3.45-2.76a4.24,4.24,0,0,0-.4-2,1.17,1.17,0,0,0-1-.72,1.13,1.13,0,0,0-1,.72,4.23,4.23,0,0,0-.39,2,4.11,4.11,0,0,0,.39,2,1.12,1.12,0,0,0,1,.72,1.18,1.18,0,0,0,1-.72,4,4,0,0,0,.39-2Zm17.36-4.56V77.34h-1.4V66.65Zm-8.19,3v-1.1h5.6v1.1h-2.06a1.59,1.59,0,0,0,.85,1,3.68,3.68,0,0,0,1.52.42l-.56,1a4.29,4.29,0,0,1-1.48-.48,1.05,1.05,0,0,0-2.09.15,4.39,4.39,0,0,1-1.57.55l-.59-1.05c1.46-.24,2.28-.78,2.45-1.62ZM516,77h-1.42V73.84c-.9,0-1.79,0-2.65,0l-.2-1.14c1.05,0,2.23,0,3.55-.06s2.55-.14,3.54-.25L519,73.5c-.7.1-1.67.19-2.93.26ZM513.84,68v-1.1H517V68Zm17.47,3.44-.66,1.1a6.72,6.72,0,0,1-2.32-1.07,4.32,4.32,0,0,1-1.58-1.78,3.59,3.59,0,0,1-.92,1.3,6.45,6.45,0,0,1-1.43,1,7,7,0,0,1-1.53.55l-.64-1.14a5.39,5.39,0,0,0,1.75-.58,4.31,4.31,0,0,0,1.45-1.23,2.69,2.69,0,0,0,.6-1.69V67.2h1.47v.65a2.57,2.57,0,0,0,.36,1.3,3.74,3.74,0,0,0,.94,1.08A6.47,6.47,0,0,0,530,71,4.88,4.88,0,0,0,531.31,71.39Zm.28,4.62h-9.66v-1.1H526V72.36h1.42V74.9h4.15Zm9.7,1.21h-7.54V74.53h5.73v-.6h-5.8v-1.1h7.23v2.66h-5.75v.6h6.12Zm-2.21-5.29c-1,.13-2.16.22-3.43.27s-2.56.11-3.53.11l-.19-1.13c1.1,0,2.08,0,2.92,0v-.89H533V67h5v1.08h-3.6v1.12h3.71v1.08h-1.83v.83c1.07-.06,2-.13,2.71-.22Zm1.84-5.28v5.73h-1.4V66.65Zm9.54,10.7H549v-3.8H545v-1.1h9.66v1.1h-4.15Zm3.75-6.94-.61,1.14a5.89,5.89,0,0,1-2.32-.87,3.73,3.73,0,0,1-1.49-1.56,3.51,3.51,0,0,1-1.45,1.55,6.16,6.16,0,0,1-2.35.89l-.6-1.15a4.89,4.89,0,0,0,2.56-1,2.45,2.45,0,0,0,1.09-2v-.55h1.49v.55a2.19,2.19,0,0,0,.57,1.44,4.09,4.09,0,0,0,1.4,1.07,5.41,5.41,0,0,0,1.71.49Zm9.69-.61a2.24,2.24,0,0,1-.82,1.8,3.27,3.27,0,0,1-4,0,2.24,2.24,0,0,1-.82-1.8A2.4,2.4,0,0,1,559,68a2.87,2.87,0,0,1,2-.74,3,3,0,0,1,2,.73,2.39,2.39,0,0,1,.81,1.85Zm2.94,7.56a3.07,3.07,0,0,1-1.06-.79,3.14,3.14,0,0,1-.73-1.07,3.67,3.67,0,0,1-1.79,2.06l-.42-.44-.49-.52a3.35,3.35,0,0,0,1.47-1.24,3.18,3.18,0,0,0,.52-1.8v-.47h1.38v.47a2.87,2.87,0,0,0,.55,1.72,2.93,2.93,0,0,0,1.4,1Zm-1.53-10.72h1.4v6h-1.4Zm-3.07,9.64a2,2,0,0,1-.57-.43,1.69,1.69,0,0,1-.42-.57,4,4,0,0,1-2,2.13l-.83-1a3.62,3.62,0,0,0,1.51-1.17,2.92,2.92,0,0,0,.55-1.76v-.33h1.37v.3a2,2,0,0,0,.36,1.19,1.9,1.9,0,0,0,.91.72Zm-.12-5.48a1.44,1.44,0,0,0,0-2,1.41,1.41,0,0,0-1.09-.4,1.45,1.45,0,0,0-1.06.4,1.45,1.45,0,0,0,0,2,1.58,1.58,0,0,0,2.13,0Zm15.51,1.74H568V71.42h9.66ZM572.8,68.6a3.15,3.15,0,0,1-1.47,1.48,6.54,6.54,0,0,1-2.36.76l-.58-1.09a6.58,6.58,0,0,0,1.75-.42,3.89,3.89,0,0,0,1.38-.92,2,2,0,0,0,.56-1.37v-.29h1.45V67a2,2,0,0,0,.62,1.39,4.27,4.27,0,0,0,1.45,1,5.19,5.19,0,0,0,1.64.36l-.6,1.1a6.71,6.71,0,0,1-1.51-.39,5.62,5.62,0,0,1-1.42-.78,2.66,2.66,0,0,1-.91-1.08Zm3.59,8.6H569.2V73.12h1.39v1H575v-1h1.39ZM575,76.09v-.9h-4.4v.9Zm11.87-9.44V77.34h-1.38V66.65Zm-2.47,6.41.18,1.12a15.84,15.84,0,0,1-2.36.36c-1,.08-1.85.12-2.6.12h-1V67.72H580v5.74A19.43,19.43,0,0,0,584.39,73.06Zm12.08-6.41v4H598v1.16h-1.54v5.5h-1.4V66.65Zm-6.55,7a20.69,20.69,0,0,0,4.23-.32c0,.12,0,.31.07.56s.06.44.08.56a22.13,22.13,0,0,1-4.74.36h-1V67.63h4.88v1.13h-3.49Zm8.7,2.39v-1.4h1.46v1.4Z"/><path id="패스_11436" data-name="패스 11436" class="cls-2" d="M5.59,160a4.48,4.48,0,0,1-2.34-.56l.27-1.13a3.39,3.39,0,0,0,1.7.49,2.05,2.05,0,0,0,1.35-.4,1.43,1.43,0,0,0,.49-1.15c0-1-.59-1.48-1.78-1.48a3.79,3.79,0,0,0-1.67.45l.3-4.53h4.3v1.15H5l-.16,2a4.06,4.06,0,0,1,1-.14,2.72,2.72,0,0,1,2,.65,2.46,2.46,0,0,1,.7,1.93,2.55,2.55,0,0,1-.81,1.94A3,3,0,0,1,5.59,160Zm3.93.07v-1.4H11v1.4Zm14,1.25H22.11V150.65H23.5ZM15.7,158a5.6,5.6,0,0,1,0-5.53,2.36,2.36,0,0,1,2-1.06,2.32,2.32,0,0,1,2,1.06,5.52,5.52,0,0,1,0,5.52,2.49,2.49,0,0,1-4.06,0Zm3.45-2.76a4,4,0,0,0-.4-2,1.08,1.08,0,0,0-2,0,4.23,4.23,0,0,0-.39,2,4.11,4.11,0,0,0,.39,1.95,1.14,1.14,0,0,0,1,.72,1.16,1.16,0,0,0,1-.72A4,4,0,0,0,19.15,155.21Zm10.3,1.47H25.12v-5.22h1.41V153h1.52v-1.6h1.4v2h1v-2.58h1.33v7.44H30.41v-3.72h-1Zm4.64,4.4H26.55v-3.44h1.39V160h6.15Zm-.26-2.51H32.5v-7.92h1.33Zm-5.78-3v-1.46H26.53v1.46Zm15-.69H37.45v1.17h5.93v1.1H36.06v-5.67h7.21v1.1H37.45v1.2H43Zm1.47,4V160H34.83v-1.1Zm12.19.28a1.78,1.78,0,0,1-1,1.58,5.19,5.19,0,0,1-2.7.59,5.09,5.09,0,0,1-2.68-.59,1.79,1.79,0,0,1,0-3.17A5.19,5.19,0,0,1,53,157a5.3,5.3,0,0,1,2.7.58A1.79,1.79,0,0,1,56.68,159.17Zm-.07-2.32h-1.4v-1.16h-2v-1.07h2v-1.06H53.39v-1.1H55.2v-1.81h1.4Zm-2,3.09a.81.81,0,0,0,0-1.55,3.77,3.77,0,0,0-1.63-.28,3.64,3.64,0,0,0-1.6.28.86.86,0,0,0-.58.78.84.84,0,0,0,.57.76,3.66,3.66,0,0,0,1.6.28A3.88,3.88,0,0,0,54.65,159.94Zm-1.42-8.6c-.11,2.78-1.69,4.64-4.74,5.6l-.74-1.13a6.5,6.5,0,0,0,2.57-1.19,3.59,3.59,0,0,0,1.35-2.11h-3.4v-1.17Zm13,9.85h-7.2v-3.52h2.86v-.78H57.84v-1.13H67.5v1.13H63.35v.78h2.92Zm.22-6.12h-7.7V154h1.48c0-.1-.06-.31-.13-.63s-.11-.58-.13-.76l1.34-.18c0,.15,0,.4.11.76s.09.62.12.81h2.14l.26-1.56,1.37.17L65,154h1.45Zm0-3H58.77V151h7.76Zm-1.65,8v-1.35H60.46v1.35Zm4.9-6.21a1.31,1.31,0,0,0,.42,1,1.54,1.54,0,0,0,1.12.4,1.57,1.57,0,0,0,1.13-.4,1.37,1.37,0,0,0,.42-1,1.32,1.32,0,0,0-.42-1,1.54,1.54,0,0,0-1.13-.39,1.59,1.59,0,0,0-1.12.39A1.27,1.27,0,0,0,69.78,153.89ZM77,150.65v10.69h-1.4V150.65Zm-8.6,3.25a2.3,2.3,0,0,1,.81-1.85,3.64,3.64,0,0,1,4.32,0,2.52,2.52,0,0,1,0,3.7,3.16,3.16,0,0,1-2.16.72,3.12,3.12,0,0,1-2.15-.72,2.35,2.35,0,0,1-.83-1.85Zm6.76,4.7c-1,.14-2.26.24-3.61.32-1.6.06-2.72.09-3.36.08l-.2-1.2q2,0,3.48-.06c1.39-.05,2.59-.14,3.58-.26Zm11-.74-.79,1a4.6,4.6,0,0,1-1.12-1.08,4.35,4.35,0,0,1-.75-1.41,4.53,4.53,0,0,1-.78,1.55,4.36,4.36,0,0,1-1.24,1.18l-.86-1a5.17,5.17,0,0,0,2.21-4.64V153H81v-1.12h4.83V153H84.16v.49a6.3,6.3,0,0,0,.5,2.68,3.56,3.56,0,0,0,1.47,1.69Zm1.69,3H86.51v-5.37H85.12v-1.15h1.39v-3.48h1.31Zm2.15.49H88.63V150.65H90Zm10.06,0H98.7V150.65H100Zm-2.13-.49H96.59v-5.38H95.15v-1.14h1.44v-3.48H97.9Zm-1.56-3.11-.79,1a5.06,5.06,0,0,1-1.17-1.09,3.94,3.94,0,0,1-.78-1.47,4.84,4.84,0,0,1-.79,1.61A4.45,4.45,0,0,1,91.5,159l-.83-1a4.59,4.59,0,0,0,1.65-1.9,6.46,6.46,0,0,0,.6-2.87v-1.6h1.34v1.59a6.32,6.32,0,0,0,.55,2.71A3.88,3.88,0,0,0,96.34,157.74Zm12.13.07a1.67,1.67,0,0,1,1,1.49,1.65,1.65,0,0,1-1,1.49,5.56,5.56,0,0,1-2.72.55,5.68,5.68,0,0,1-2.75-.55,1.61,1.61,0,0,1,0-3,5.81,5.81,0,0,1,2.75-.56A5.56,5.56,0,0,1,108.47,157.81Zm2.21-1.37H101v-1.11h3.66v-1.86h1.4v1.86h4.6ZM109.43,151a17.64,17.64,0,0,1-.34,3.77l-1.35-.18a10.38,10.38,0,0,0,.29-2.48h-5.9V151Zm-1.4,8.28c0-.3-.2-.53-.61-.69a5,5,0,0,0-1.67-.23q-2.28,0-2.28.93c0,.29.2.52.6.67a6,6,0,0,0,3.35,0c.4-.16.61-.38.61-.68Zm13-3.13h-1.42v5.16h-1.39V150.65h1.39V155H121Zm-3.33,2.65c-.93.12-2.2.23-3.82.33-1.1,0-2,.07-2.8.07l-.18-1.14h2.2v-3h1.33v3c1.38-.08,2.43-.16,3.16-.26Zm-.49-7a22.82,22.82,0,0,1-.36,4.67l-1.35-.14a16.85,16.85,0,0,0,.28-3.4h-4.21v-1.13Zm12.44,9.4h-7.19v-4h7.19Zm0-10.14a17.63,17.63,0,0,1-.36,3.83h1.6V156h-9.66v-1.12h6.73a10.09,10.09,0,0,0,.21-1.34,10.49,10.49,0,0,0,.08-1.37h-5.78v-1.11Zm-1.39,9.05v-1.79h-4.4v1.79Zm12.71-3h-9.66V156h9.66Zm-1.12,3.9h-7.35v-3.12h1.4v2h6Zm0-7.87a1.78,1.78,0,0,1-1,1.56,6.51,6.51,0,0,1-5.46,0,1.7,1.7,0,0,1,0-3.1,5.33,5.33,0,0,1,2.71-.6,5.42,5.42,0,0,1,2.74.6A1.79,1.79,0,0,1,139.83,153.18Zm-1.46,0a.88.88,0,0,0-.61-.78,4,4,0,0,0-1.68-.3,3.9,3.9,0,0,0-1.65.3.89.89,0,0,0-.62.78c0,.32.21.57.62.76a4.08,4.08,0,0,0,1.65.29,4.22,4.22,0,0,0,1.68-.29C138.17,153.77,138.37,153.52,138.37,153.2Zm14.91,8.14H152V150.65h1.33Zm-3.51-6.2h-2.12V154h2.12v-3.17h1.32v10h-1.32ZM149,157.3l.16,1.11a8.38,8.38,0,0,1-1.5.24c-.73.06-1.41.1-2.06.1h-1v-7.17H146v6a11.09,11.09,0,0,0,3-.29Zm14.09,4h-1.4V150.65h1.4Zm-7.8-3.37a4.73,4.73,0,0,1-.74-2.76,4.81,4.81,0,0,1,.74-2.77,2.47,2.47,0,0,1,4.06,0,5.52,5.52,0,0,1,0,5.52,2.49,2.49,0,0,1-4.06,0Zm3.45-2.76a4.12,4.12,0,0,0-.4-2,1.16,1.16,0,0,0-1-.72,1.13,1.13,0,0,0-1,.72,4.23,4.23,0,0,0-.39,2,4.11,4.11,0,0,0,.39,1.95,1.14,1.14,0,0,0,1,.72,1.17,1.17,0,0,0,1-.72,4,4,0,0,0,.4-1.95Zm14.42,6.13h-1.39v-5.76h-1.63V154.4h1.63v-3.75h1.39Zm-3.48-2.64h-5v-7.19H166v2.57h2.27v-2.59h1.4Zm-1.4-1.1v-2.42H166v2.41Zm13.09,3.25h-1.32v-5h-.91a4.92,4.92,0,0,1-.68,2.33,1.81,1.81,0,0,1-1.64.92,1.78,1.78,0,0,1-1.32-.56,3.2,3.2,0,0,1-.76-1.4,7.51,7.51,0,0,1-.22-1.89,7.28,7.28,0,0,1,.22-1.86,3.22,3.22,0,0,1,.76-1.39,1.74,1.74,0,0,1,1.32-.56,1.85,1.85,0,0,1,1.65.91,5.11,5.11,0,0,1,.67,2.35h.91v-3.87h1.32Zm2.14.49h-1.32V150.65h1.32Zm-5.9-4.19a5.63,5.63,0,0,0,.25-1.87,5.69,5.69,0,0,0-.25-1.88c-.17-.48-.42-.72-.77-.72s-.57.24-.74.72a7.16,7.16,0,0,0,0,3.75c.17.48.41.72.74.72s.6-.24.77-.72Zm15.74,4.19H192v-5.89H190v-1.19H192v-3.61h1.42ZM191,157.91l-.8,1.05a6,6,0,0,1-1.45-1.31,5.1,5.1,0,0,1-1-1.69,5.37,5.37,0,0,1-1,1.82,5.11,5.11,0,0,1-1.57,1.36l-.84-1a5.52,5.52,0,0,0,2.65-4.93v-1.63h1.44v1.56a5.82,5.82,0,0,0,.67,2.78A5.58,5.58,0,0,0,191,157.91ZM206,155.64h-7.34v-4.49H200v1.21h4.52v-1.22H206Zm-3,5.71h-1.4v-3.51h-4.1v-1.12h9.66v1.12H203Zm1.57-6.83v-1.06H200v1.06Zm12.88-.25h-1.53v2.3h-1.41v-5.92h1.41v2.48h1.53Zm-1.53,6.94H209v-4.07h6.92Zm-1.4-1.1v-1.9h-4.12v1.9ZM209.27,155a20.34,20.34,0,0,0,4.2-.31l.18,1.08a23.36,23.36,0,0,1-4.72.36h-1.05v-4.83h4.77v1.12h-3.38Zm18.2-.32H226V157h-1.4v-6.31H226v2.91h1.5Zm-1.5,6.54H219v-3.78h1.39v.83h4.14v-.84H226Zm-1.4-1.1v-.77h-4.14v.76Zm-.78-6.66h-6.26v-1.06h6.26Zm-4.65-1.56v-1.08h3.17v1.07Zm4.11,3.52a1.46,1.46,0,0,1-.71,1.26,3.31,3.31,0,0,1-1.82.48,3.44,3.44,0,0,1-1.85-.48,1.46,1.46,0,0,1-.73-1.26,1.48,1.48,0,0,1,.73-1.25,3.27,3.27,0,0,1,1.85-.48,3.12,3.12,0,0,1,1.81.48,1.47,1.47,0,0,1,.72,1.24Zm-3.7,0a.55.55,0,0,0,.34.51,1.59,1.59,0,0,0,.83.19,1.55,1.55,0,0,0,.82-.19.56.56,0,0,0,.33-.51.55.55,0,0,0-.33-.5,1.82,1.82,0,0,0-1.66,0,.55.55,0,0,0-.34.49Zm17-4.8v10.68h-1.38V150.65Zm-2.47,6.4.18,1.13a15.84,15.84,0,0,1-2.36.36c-1,.08-1.85.12-2.59.12h-1v-6.95h1.39v5.74a19.43,19.43,0,0,0,4.37-.4Zm12.08-6.41v4h1.54v1.16h-1.54v5.5h-1.4V150.65Zm-6.55,7a20.54,20.54,0,0,0,4.22-.32c0,.12,0,.31.08.56s.06.44.08.56a22.13,22.13,0,0,1-4.74.36h-1v-7.23h4.89v1.13h-3.5Zm8.7,2.39v-1.4h1.46v1.4Z"/><path id="패스_11435" data-name="패스 11435" class="cls-2" d="M3.54,95.15V94h3.3v1.15Zm15.27-1.51H11.47V89.15h1.4v1.21h4.52V89.14h1.42Zm-3,5.71h-1.4V95.84h-4.1V94.72H20v1.12H15.82Zm1.57-6.83V91.46H12.87v1.06ZM29.31,97.2a1.73,1.73,0,0,1-1,1.55,5.62,5.62,0,0,1-2.76.57,5.56,5.56,0,0,1-2.75-.57,1.71,1.71,0,0,1-1-1.55,1.73,1.73,0,0,1,1-1.57,5.45,5.45,0,0,1,2.75-.57,5.51,5.51,0,0,1,2.76.57A1.75,1.75,0,0,1,29.31,97.2Zm-8.55-6.64V89.4h5.63v1.16h-2a3,3,0,0,0,.74,1.8,3.64,3.64,0,0,0,1.61,1.06c-.09.15-.23.35-.41.61l-.34.5a4.58,4.58,0,0,1-1.33-.83,3.82,3.82,0,0,1-1-1.26,3.36,3.36,0,0,1-1,1.44,4.27,4.27,0,0,1-1.52,1l-.38-.5c-.2-.26-.35-.46-.46-.59a4.09,4.09,0,0,0,1.82-1.24,3.19,3.19,0,0,0,.74-2Zm5.46,1.77V91.2h1.61V88.65h1.4V95h-1.4V92.33Zm-.66,3.85a4.46,4.46,0,0,0-1.7.27q-.6.27-.6.75a.82.82,0,0,0,.6.74,4.29,4.29,0,0,0,1.7.26,4.32,4.32,0,0,0,1.71-.26c.41-.18.61-.42.61-.74a.82.82,0,0,0-.6-.75A4.56,4.56,0,0,0,25.56,96.18Zm14.05,1.3a1.51,1.51,0,0,1-1,1.39,6.27,6.27,0,0,1-2.74.5,6.38,6.38,0,0,1-2.76-.5,1.45,1.45,0,0,1,0-2.76,6.08,6.08,0,0,1,2.76-.5,6,6,0,0,1,2.74.5,1.51,1.51,0,0,1,1,1.37Zm0-1.92H38.23V92.81h-.87v2.4h-1.3V88.84h1.3v2.83h.87v-3h1.34Zm-4.78-3a1.55,1.55,0,0,1,0,2.48,3.09,3.09,0,0,1-3.31,0,1.55,1.55,0,0,1,0-2.48A2.62,2.62,0,0,1,33.13,92,2.65,2.65,0,0,1,34.79,92.51Zm2.77,5.56c.42-.14.62-.33.62-.58s-.21-.44-.63-.59a5.13,5.13,0,0,0-1.7-.22,5.25,5.25,0,0,0-1.67.21c-.41.15-.61.35-.61.6s.2.45.61.58a5.27,5.27,0,0,0,1.68.21A5.4,5.4,0,0,0,37.56,98.07Zm-7.07-6.38V90.61h5.12v1.08Zm1.22-1.55V89.06h2.83v1.08Zm2.16,4.07a.56.56,0,0,0,.26-.47.54.54,0,0,0-.26-.46,1.27,1.27,0,0,0-.74-.18,1.26,1.26,0,0,0-.73.18.54.54,0,0,0-.26.46.56.56,0,0,0,.26.47,1.26,1.26,0,0,0,.73.18,1.27,1.27,0,0,0,.74-.18Zm12.92-2.78A1.92,1.92,0,0,1,46,93a3.07,3.07,0,0,1-2,.63A3.13,3.13,0,0,1,42,93a2,2,0,0,1-.76-1.6A2,2,0,0,1,42,89.79a3.48,3.48,0,0,1,4,0A2.06,2.06,0,0,1,46.79,91.43Zm2.66-2.78V99.34H48.06V88.65ZM44.74,99H43.31V95.49c-1,.05-1.9.07-2.64.07l-.2-1.15a68.64,68.64,0,0,0,7-.32l.12,1.08c-.71.09-1.67.18-2.88.25Zm.64-7.61a1,1,0,0,0-.39-.81,1.56,1.56,0,0,0-1-.32,1.52,1.52,0,0,0-1,.32,1,1,0,0,0-.39.81,1,1,0,0,0,.39.78,1.56,1.56,0,0,0,1,.3,1.58,1.58,0,0,0,1-.3A.92.92,0,0,0,45.38,91.42ZM59,88.65v4.07h1.54v1.16H59v5.46h-1.4V88.65Zm-2.12,7.58a14.06,14.06,0,0,1-2.31.37c-.95.09-1.79.14-2.53.14H51v-7h1.39v5.82a19.1,19.1,0,0,0,4.27-.42Zm15.63,1a1.71,1.71,0,0,1-1,1.55,5.56,5.56,0,0,1-2.75.57A5.62,5.62,0,0,1,66,98.75a1.73,1.73,0,0,1-1-1.55,1.75,1.75,0,0,1,1-1.57,6.94,6.94,0,0,1,5.51,0A1.73,1.73,0,0,1,72.48,97.2Zm-8.54-6.64V89.4h5.63v1.16h-2a2.89,2.89,0,0,0,.74,1.8,3.64,3.64,0,0,0,1.61,1.06l-.41.61-.35.5a4.67,4.67,0,0,1-1.32-.83,3.7,3.7,0,0,1-1-1.26,3.47,3.47,0,0,1-1,1.44,4.18,4.18,0,0,1-1.52,1l-.37-.5c-.2-.26-.35-.46-.47-.59a4.18,4.18,0,0,0,1.83-1.24,3.25,3.25,0,0,0,.74-2Zm5.46,1.77V91.2H71V88.65h1.4V95H71V92.33Zm-.66,3.85a4.46,4.46,0,0,0-1.7.27c-.41.18-.61.43-.61.75s.2.57.61.74a4.27,4.27,0,0,0,1.7.26,4.34,4.34,0,0,0,1.71-.26c.4-.18.6-.42.6-.74a.82.82,0,0,0-.6-.75A4.54,4.54,0,0,0,68.74,96.18Zm6.64-3a21.43,21.43,0,0,0,4.23-.33L79.76,94a22.71,22.71,0,0,1-4.73.38H74V89.45h4.77v1.12H75.38Zm8.13-.82H82V94.9H80.58V88.65H82v2.6h1.51Zm-1.38,4.79a1.75,1.75,0,0,1-1,1.56,5.3,5.3,0,0,1-2.7.58,5.18,5.18,0,0,1-2.68-.58,1.76,1.76,0,0,1-1-1.56,1.78,1.78,0,0,1,1-1.59,6.63,6.63,0,0,1,5.38,0A1.78,1.78,0,0,1,82.13,97.18Zm-2,.75a.83.83,0,0,0,.58-.75.85.85,0,0,0-.58-.76,4,4,0,0,0-1.64-.27,3.94,3.94,0,0,0-1.63.27.85.85,0,0,0-.58.76.83.83,0,0,0,.58.75,3.94,3.94,0,0,0,1.63.27A4,4,0,0,0,80.1,97.93Zm9.78-5.62h-6.2V91.19h6.2Zm-4.7-1.86v-1.1h3.3v1.1Zm6.91-1.8V93h1.49v1.16H92.09v5.2H90.67V88.65ZM84.21,95a2.09,2.09,0,0,1,.72-1.65,2.68,2.68,0,0,1,1.86-.65,2.64,2.64,0,0,1,1.86.65,2.25,2.25,0,0,1,0,3.3,3,3,0,0,1-3.73,0A2.08,2.08,0,0,1,84.21,95Zm1.36,0a1.1,1.1,0,0,0,.35.84,1.2,1.2,0,0,0,.87.33,1.23,1.23,0,0,0,.89-.32A1.16,1.16,0,0,0,88,95a1.12,1.12,0,0,0-.34-.85,1.22,1.22,0,0,0-.87-.32,1.19,1.19,0,0,0-.87.32A1.13,1.13,0,0,0,85.57,95Zm14.92.72-.78,1.09a5.33,5.33,0,0,1-1.54-1.25,4.55,4.55,0,0,1-1-1.62,4.4,4.4,0,0,1-.93,1.76A4.82,4.82,0,0,1,94.55,97l-.84-1a5,5,0,0,0,2.67-4.86v-.28H94.25V89.74h5.68v1.12H97.86v.27A4.74,4.74,0,0,0,100.49,95.7Zm2.16,3.64h-1.4V88.65h1.4Zm8.45-.49a14.23,14.23,0,0,1-3.31.36V95.12h1.34v3a8.9,8.9,0,0,0,1.78-.27Zm3.48-3.63h-2.47v-.94h2.47ZM116,96.54H110.7v-1H116Zm.61-4.53h-1.52v1.86h-1.43V88.65h1.43v2.21h1.52Zm-9.79-.33a2.43,2.43,0,0,1,.79-1.82,2.71,2.71,0,0,1,2-.74,2.79,2.79,0,0,1,2,.73,2.38,2.38,0,0,1,.79,1.83,2.26,2.26,0,0,1-.79,1.77,2.93,2.93,0,0,1-2,.7,2.87,2.87,0,0,1-2-.69A2.24,2.24,0,0,1,106.84,91.68Zm1.39,0a1.24,1.24,0,0,0,.37.93,1.33,1.33,0,0,0,1,.37,1.41,1.41,0,0,0,1-.37,1.24,1.24,0,0,0,.38-.93,1.37,1.37,0,0,0-.38-1,1.31,1.31,0,0,0-1-.41,1.26,1.26,0,0,0-1,.41A1.37,1.37,0,0,0,108.23,91.67Zm7,6.43a1.12,1.12,0,0,1-.56,1,2.55,2.55,0,0,1-1.4.36,2.47,2.47,0,0,1-1.4-.36,1.12,1.12,0,0,1-.56-1,1.14,1.14,0,0,1,.56-1,2.9,2.9,0,0,1,2.8,0A1.12,1.12,0,0,1,115.27,98.1Zm-1.24,0a.37.37,0,0,0-.2-.32,1.16,1.16,0,0,0-.52-.11c-.47,0-.71.15-.71.43s.24.44.71.44S114,98.39,114,98.1Zm12.45-2.95h-9.66V94h9.66Zm-1.11,3.9H118V95.93h1.4v2h6Zm0-7.87a1.78,1.78,0,0,1-1,1.56,5.28,5.28,0,0,1-2.73.6,5.22,5.22,0,0,1-2.72-.6,1.7,1.7,0,0,1,0-3.1,5.31,5.31,0,0,1,2.71-.6,5.38,5.38,0,0,1,2.73.6A1.77,1.77,0,0,1,125.39,91.18Zm-1.45,0a.89.89,0,0,0-.62-.78,4,4,0,0,0-1.67-.3,3.87,3.87,0,0,0-1.65.3.87.87,0,0,0-.62.78c0,.32.2.57.62.76a4,4,0,0,0,1.65.29,4.15,4.15,0,0,0,1.67-.29C123.73,91.77,123.94,91.52,123.94,91.2Zm15.7,1.14h-1.52V94.9h-1.43V88.65h1.43v2.54h1.51Zm-4.56,1.83H130V89.25h1.39V90.7h2.26V89.22h1.41Zm-1.41-1.12V91.79h-2.26v1.26Zm4.57,4.13a1.76,1.76,0,0,1-1,1.58,6.55,6.55,0,0,1-5.39,0,1.78,1.78,0,0,1-1-1.58,1.8,1.8,0,0,1,1-1.59,5.24,5.24,0,0,1,2.69-.58,5.31,5.31,0,0,1,2.71.58A1.76,1.76,0,0,1,138.24,97.18Zm-3.67-1.06a3.8,3.8,0,0,0-1.63.29.86.86,0,0,0-.58.77.85.85,0,0,0,.58.76,3.94,3.94,0,0,0,1.63.27,4,4,0,0,0,1.64-.27.85.85,0,0,0,.59-.76.86.86,0,0,0-.59-.77A3.85,3.85,0,0,0,134.57,96.12Zm14.11,3.09h-7V95h1.43v1h4.21V95h1.4Zm-1.4-1.12v-1h-4.21v1Zm1.39-3.67h-1.39V92.14h-1.52V91h1.52v-2.3h1.39ZM145.22,94h-5V89.14h1.4v1.39h2.23V89.12h1.4Zm-1.4-1.13V91.61h-2.23v1.21Zm15.76,5.12h-9.66v-1.1h9.66Zm-2-7.77a2.39,2.39,0,0,1,0,4,5.64,5.64,0,0,1-5.69,0,2.39,2.39,0,0,1,0-4,4.84,4.84,0,0,1,2.84-.77A4.78,4.78,0,0,1,157.6,90.17Zm-1,3.21a1.39,1.39,0,0,0,.68-1.19,1.4,1.4,0,0,0-.68-1.2,3.26,3.26,0,0,0-1.81-.45A3.21,3.21,0,0,0,153,91a1.4,1.4,0,0,0,0,2.4,3.79,3.79,0,0,0,3.6,0Zm12.19,1.84h-3.24v1.67h4.15V98H160V96.89h4.1V95.22h-2.87V91.68H167V90.45h-5.87V89.33h7.26V92.8h-5.81v1.3h6.12Zm13,4.12h-1.4V88.65h1.4ZM174,96a4.73,4.73,0,0,1-.74-2.76,4.81,4.81,0,0,1,.74-2.77,2.47,2.47,0,0,1,4.06,0A5.52,5.52,0,0,1,178,96,2.49,2.49,0,0,1,174,96Zm3.45-2.76a4.12,4.12,0,0,0-.4-2,1.16,1.16,0,0,0-1-.72,1.13,1.13,0,0,0-1,.72,4.23,4.23,0,0,0-.39,2,4.11,4.11,0,0,0,.39,2,1.14,1.14,0,0,0,1,.72,1.17,1.17,0,0,0,1-.72A4,4,0,0,0,177.42,93.21Zm10.3,1.47h-4.34V89.46h1.42V91h1.51v-1.6h1.4v2h1V88.84H190v7.44h-1.32V92.56h-1Zm4.64,4.4h-7.55V95.64h1.4V98h6.15Zm-.26-2.51h-1.33V88.65h1.33Zm-5.79-3V92.12H184.8v1.46Zm15-.69h-5.57v1.17h5.93v1.1h-7.32V89.49h7.21v1.1h-5.82v1.2h5.57Zm1.46,4V98h-9.66v-1.1Zm7.38,2h-1.32v-5h-.91a4.92,4.92,0,0,1-.68,2.33,1.8,1.8,0,0,1-1.63.92,1.78,1.78,0,0,1-1.32-.56,3.22,3.22,0,0,1-.77-1.4,7.51,7.51,0,0,1-.22-1.89,7.28,7.28,0,0,1,.22-1.86,3.24,3.24,0,0,1,.77-1.39,1.74,1.74,0,0,1,1.32-.56,1.84,1.84,0,0,1,1.64.91,5,5,0,0,1,.67,2.35h.91V88.85h1.32Zm2.14.49H211V88.65h1.32Zm-5.9-4.19a5.63,5.63,0,0,0,.25-1.87,5.69,5.69,0,0,0-.25-1.88c-.17-.48-.42-.72-.77-.72s-.57.24-.74.72a7.16,7.16,0,0,0,0,3.75c.17.48.41.72.74.72s.6-.24.77-.72Zm18.09,4.06h-6.92V95.57h6.92Zm-8.12-7.42v-1.1H222v1.1h-2a2.84,2.84,0,0,0,2.29,2.11l-.7,1.1a4.71,4.71,0,0,1-1.37-.76,3.17,3.17,0,0,1-1-1.16,3.74,3.74,0,0,1-1,1.33,4,4,0,0,1-1.52.86q-.24-.36-.78-1.08a3.22,3.22,0,0,0,2.5-2.4Zm9.65.78h-1.53V95h-1.39V88.65h1.39v2.77H226Zm-2.93,5.53V96.64h-4.12V98.1Zm-5.45-8V89h3.11v1.1Zm14.44,5.3,0-1.2h1.54V92h-1.54l0-1.19h1.58V88.65H235V99.34h-1.4v-4Zm-5.8-2.18a4.71,4.71,0,0,1,.73-2.78,2.47,2.47,0,0,1,4,0A5.6,5.6,0,0,1,231,96a2.47,2.47,0,0,1-4,0,4.72,4.72,0,0,1-.73-2.76Zm4.16,0a4.23,4.23,0,0,0-.39-2,1.16,1.16,0,0,0-1-.72,1.14,1.14,0,0,0-1,.72,4.35,4.35,0,0,0-.38,2,4.23,4.23,0,0,0,.38,2,1.08,1.08,0,0,0,2,0,4.11,4.11,0,0,0,.39-2Zm12-1.55h-6.2V90.57h6.2Zm-.52,2.27a1.69,1.69,0,0,1-.71,1.4,3.32,3.32,0,0,1-3.63,0,1.66,1.66,0,0,1-.72-1.4,1.68,1.68,0,0,1,.72-1.41,2.83,2.83,0,0,1,1.82-.56,2.9,2.9,0,0,1,1.8.56,1.75,1.75,0,0,1,.72,1.41Zm-4.1-3.87V89H241v1.07Zm6.86-1.41V92.1h1.49v1.17h-1.49v3.32h-1.4V88.65Zm.25,10.44h-7.3V96.27H239V98h5.88Zm-6.68-5.16a.68.68,0,0,0,.33.58,1.34,1.34,0,0,0,.82.24,1.38,1.38,0,0,0,.81-.24.67.67,0,0,0,.34-.58.72.72,0,0,0-.34-.61,1.38,1.38,0,0,0-.81-.24,1.41,1.41,0,0,0-.82.24.73.73,0,0,0-.33.61Zm19.85,5.41h-1.4V88.65h1.4Zm-3.29-9.58A8.47,8.47,0,0,1,250,97.41l-.86-1.06a7.29,7.29,0,0,0,2.86-2.3,6.06,6.06,0,0,0,1.27-3.12h-3.48V89.76ZM268,93.46h-3.16v.82H269v1.13h-9.67V94.28h4.1v-.82h-2.83V90.71h5.69v-.66h-5.72V89h7.13V91.7H262v.7h6ZM260.43,96h7.27v3.33h-1.39V97.14h-5.88Zm17.77,3.32h-1.39V88.65h1.39ZM270.4,96a5.6,5.6,0,0,1,0-5.53,2.36,2.36,0,0,1,2-1.06,2.32,2.32,0,0,1,2,1.06,5.52,5.52,0,0,1,0,5.52,2.49,2.49,0,0,1-4.06,0Zm3.45-2.76a4,4,0,0,0-.4-2,1.08,1.08,0,0,0-2,0,4.23,4.23,0,0,0-.39,2,4.11,4.11,0,0,0,.39,2,1.14,1.14,0,0,0,1,.72,1.16,1.16,0,0,0,1-.72,4,4,0,0,0,.4-2Zm14.2-.12a1.07,1.07,0,0,1-.49.91,2.77,2.77,0,0,1-1.33.47v.37a24.53,24.53,0,0,0,2.57-.23q0,.21.06.6c0,.27.05.42.05.46-.86.1-2,.19-3.27.26s-2.39.11-3.23.11l-.19-1.13,2.6,0v-.41a2.77,2.77,0,0,1-1.33-.47,1.1,1.1,0,0,1-.49-.92,1.2,1.2,0,0,1,.7-1.07,3.7,3.7,0,0,1,1.82-.4,3.66,3.66,0,0,1,1.83.4,1.2,1.2,0,0,1,.7,1.07Zm2.73-4.44V92h1.32v1.16h-1.32V96h-1.4V88.65Zm-7.36,7.87h7.36v2.83h-1.4V97.62h-5.95Zm5.15-5.18h-6v-1h6Zm-4.39-1.42v-1h2.9v1Zm2.5,3.17c0-.15-.1-.27-.3-.37a2,2,0,0,0-.86-.14,1.91,1.91,0,0,0-.85.14c-.2.1-.3.22-.3.37s.1.27.3.36a2,2,0,0,0,.85.13C286.29,93.58,286.68,93.42,286.68,93.09Zm14.53,3.31h-1.39V88.65h1.39Zm.24,2.66H294V95.63h1.41V98h6Zm-8.73-7a2.49,2.49,0,0,1,.8-1.9,3.34,3.34,0,0,1,4.19,0,2.46,2.46,0,0,1,.79,1.9,2.43,2.43,0,0,1-.79,1.9,3.35,3.35,0,0,1-4.2,0,2.43,2.43,0,0,1-.79-1.9Zm1.44,0a1.46,1.46,0,0,0,.4,1.07,1.56,1.56,0,0,0,2.12,0,1.44,1.44,0,0,0,.39-1.06,1.39,1.39,0,0,0-1.47-1.44,1.37,1.37,0,0,0-1.44,1.44Zm15.38,3c-1,.13-2.17.22-3.43.28s-2.58.11-3.54.11l-.19-1.14c1.09,0,2.06,0,2.9,0v-1.2h-1.86V89.4h5v1.12h-3.61V92h3.7v1.12H306.7v1.15c1.12-.06,2-.13,2.71-.23Zm1.84-6.43v7.84H310V88.65ZM311.46,99h-7.22V96h1.41v1.88h5.81Zm12.85-1.86a1.76,1.76,0,0,1-1,1.58,5.16,5.16,0,0,1-2.7.59,5.06,5.06,0,0,1-2.67-.59,1.79,1.79,0,0,1-1-1.58,1.76,1.76,0,0,1,1-1.59,5.15,5.15,0,0,1,2.67-.59,5.26,5.26,0,0,1,2.7.58,1.78,1.78,0,0,1,1,1.6Zm-.07-2.32h-1.4V93.69h-2V92.62h2V91.56H321v-1.1h1.81V88.65h1.4Zm-2,3.09a.87.87,0,0,0,.58-.77.89.89,0,0,0-.58-.78,3.84,3.84,0,0,0-1.64-.28,3.69,3.69,0,0,0-1.6.28.85.85,0,0,0-.57.78.84.84,0,0,0,.57.76,3.64,3.64,0,0,0,1.6.28A4,4,0,0,0,322.28,97.94Zm-1.41-8.6c-.12,2.78-1.7,4.64-4.74,5.6l-.75-1.13A6.44,6.44,0,0,0,318,92.62a3.65,3.65,0,0,0,1.36-2.11H315.9V89.34Zm13.22,2.14a1.94,1.94,0,0,1-1,1.71,6.21,6.21,0,0,1-5.53,0,2,2,0,0,1-1-1.71,1.92,1.92,0,0,1,1-1.71,5.07,5.07,0,0,1,2.75-.66,5.16,5.16,0,0,1,2.77.66,1.93,1.93,0,0,1,1,1.71ZM331,99.35h-1.4V95.8h-4.1V94.67h9.66V95.8H331Zm1-7a.94.94,0,0,0,0-1.78,4.19,4.19,0,0,0-3.4,0,.94.94,0,0,0,0,1.78,3.57,3.57,0,0,0,1.7.36,3.49,3.49,0,0,0,1.71-.36ZM3.54,115.15V114h3.3v1.15Zm8.51-1.94a21.27,21.27,0,0,0,4.22-.33l.16,1.08a22.71,22.71,0,0,1-4.73.38h-1v-4.89h4.76v1.12H12.05Zm8.12-.82H18.66v2.51H17.25v-6.25h1.41v2.6h1.51Zm-1.38,4.79a1.75,1.75,0,0,1-1,1.56,5.26,5.26,0,0,1-2.7.58,5.2,5.2,0,0,1-2.68-.58,1.76,1.76,0,0,1-.78-2.37,1.81,1.81,0,0,1,.78-.77,5.2,5.2,0,0,1,2.68-.58,5.31,5.31,0,0,1,2.71.58A1.75,1.75,0,0,1,18.79,117.18Zm-2,.75a.83.83,0,0,0,.58-.75.85.85,0,0,0-.58-.76,4,4,0,0,0-1.64-.27,3.9,3.9,0,0,0-1.62.27.85.85,0,0,0-.59.76.82.82,0,0,0,.59.75,3.9,3.9,0,0,0,1.62.27A4,4,0,0,0,16.76,117.93Zm12.47,1.28H22.14v-3.73h7.09Zm-8.5-7.5v-1.12h5.63v1.12h-2a2.85,2.85,0,0,0,2.32,2.23c-.16.24-.4.6-.7,1.08a4.73,4.73,0,0,1-1.36-.74,3.32,3.32,0,0,1-1-1.16,3.23,3.23,0,0,1-1,1.32,4.23,4.23,0,0,1-1.51.87c-.09-.14-.23-.33-.41-.58l-.36-.5a3.25,3.25,0,0,0,2.5-2.52Zm8.5,3.25h-1.4v-1.82H26.21V112h1.62v-3.36h1.4Zm-1.4,3.14v-1.54H23.55v1.54ZM22,110V109h3.11V110Zm19.68-1.39v3H43.2v1.16H41.69v3.59H40.27v-7.75ZM42,119h-7.2v-3.42h1.4v2.3h5.79Zm-7.67-5a2.68,2.68,0,0,1,0-3.77,3.22,3.22,0,0,1,4.08,0,2.67,2.67,0,0,1,0,3.77A3.21,3.21,0,0,1,34.28,114Zm.66-1.88a1.46,1.46,0,0,0,.37,1,1.47,1.47,0,0,0,2,0,1.43,1.43,0,0,0,.38-1,1.41,1.41,0,0,0-.38-1,1.49,1.49,0,0,0-2,0,1.46,1.46,0,0,0-.39,1Zm17.55,7.21H51.16V114h-1v4.86H48.82v-10h1.31v4h1v-4.21h1.33Zm-4.11-3.15a9.35,9.35,0,0,1-1.5.22c-.72.06-1.4.1-2.05.1h-1v-6.62h1.38v5.45a11.28,11.28,0,0,0,3-.28c0,.16,0,.37.1.65S48.38,116.14,48.38,116.19Zm14.76-1.63H53.48v-1h9.66Zm-1,4.66H54.71v-2.48h5.81v-.57H54.66v-1h7.25v2.5h-5.8v.56h6ZM62.08,113H54.76v-2.43h5.68V110h-5.7v-1h7.11v2.44H56.16V112h5.92Zm12.89.5h-3v.68h4.15v1.13H66.42v-1.12h4.1v-.69H67.69V109h7.18v1.1H69.1v.6h5.41v1.05H69.1v.59H75Zm-.91,2.72a1.48,1.48,0,0,1,0,2.75,6,6,0,0,1-2.8.51,6,6,0,0,1-2.8-.51,1.49,1.49,0,0,1,0-2.75,7.94,7.94,0,0,1,5.6,0Zm-.52,1.38c0-.25-.21-.45-.61-.59a5.65,5.65,0,0,0-1.68-.21,5.82,5.82,0,0,0-1.66.21c-.41.14-.61.34-.61.59s.2.43.61.56a5.48,5.48,0,0,0,1.66.2,5.64,5.64,0,0,0,1.68-.2c.4-.14.61-.33.61-.57Zm12.06,1.77H84.27v-5.25h-.89v4.75H82.07v-10h1.31V113h.89v-4.32H85.6Zm-4.85-6a2.33,2.33,0,0,1,0,3.23,2.61,2.61,0,0,1-3.38,0,2.29,2.29,0,0,1,0-3.2,2.65,2.65,0,0,1,3.38,0Zm-4.26-1V111.2h5.1v1.12Zm3.65,2.62a1.08,1.08,0,0,0-.31-.8,1.11,1.11,0,0,0-1.54,0,1.23,1.23,0,0,0,0,1.61,1.09,1.09,0,0,0,1.85-.81Zm-2.49-4.35v-1.11h2.88v1.11ZM91.91,118a5.78,5.78,0,0,1-1.37-.17,3.47,3.47,0,0,1-1-.41l.24-1.06a3.33,3.33,0,0,0,.88.33,4.56,4.56,0,0,0,1,.13,2.14,2.14,0,0,0,1.3-.34,1.22,1.22,0,0,0,.45-1c0-.81-.56-1.23-1.7-1.24l-.85,0v-1.07h.76a2,2,0,0,0,1.15-.34,1,1,0,0,0,.43-.88c0-.75-.49-1.13-1.46-1.13a4.15,4.15,0,0,0-1.76.43l-.17-1.09a4.23,4.23,0,0,1,1-.37,6.58,6.58,0,0,1,1.26-.15,3,3,0,0,1,1.86.54,1.79,1.79,0,0,1,.7,1.5,1.92,1.92,0,0,1-1.48,1.92,1.9,1.9,0,0,1,1.75,2,2.19,2.19,0,0,1-.81,1.8A3.43,3.43,0,0,1,91.91,118Zm12.83,1.24H97.38v-2.87H103v-.74H97.32v-1.1h7.08v2.84H98.78v.73h6ZM104.4,114H103v-5.35h1.39Zm-8.52-2.51a2.27,2.27,0,0,1,.8-1.77,3.29,3.29,0,0,1,4.06,0,2.26,2.26,0,0,1,.8,1.79,2.14,2.14,0,0,1-.79,1.73,3,3,0,0,1-2,.66,3.13,3.13,0,0,1-2-.65A2.11,2.11,0,0,1,95.88,111.49Zm1.83-.94a1.2,1.2,0,0,0-.44.93,1.15,1.15,0,0,0,.42.89,1.69,1.69,0,0,0,2.07,0,1.18,1.18,0,0,0,.4-.88,1.24,1.24,0,0,0-.39-.94,1.57,1.57,0,0,0-2.06,0Zm19.88,8.79h-1.33V114h-1v4.86h-1.31v-10h1.31v4h1v-4.21h1.33Zm-4.11-3.15a9.35,9.35,0,0,1-1.5.22c-.72.06-1.4.1-2,.1h-1v-6.62h1.38v5.45a11.28,11.28,0,0,0,3-.28c0,.16,0,.37.1.65S113.48,116.14,113.48,116.19Zm13.86-2.35,0-1.19h1.5v-1.46h-1.5l0-1.19h1.52v-1.35h1.4v7.75h-1.4v-2.56Zm3.17,5.21h-7.39v-3.37h1.43V118h6Zm-8.25-5a2.78,2.78,0,0,1,0-3.84,3.17,3.17,0,0,1,4.08,0,2.78,2.78,0,0,1,0,3.84A3.17,3.17,0,0,1,122.26,114Zm.65-1.93a1.59,1.59,0,0,0,.38,1.08,1.34,1.34,0,0,0,1,.42,1.31,1.31,0,0,0,1-.42,1.58,1.58,0,0,0,.37-1.08,1.49,1.49,0,0,0-.37-1,1.31,1.31,0,0,0-1-.42,1.34,1.34,0,0,0-1,.42,1.51,1.51,0,0,0-.37,1Zm17.78,7.18h-7.36v-2.87H139v-.74h-5.69v-1.12h7.08v2.88h-5.6v.73h5.94Zm-.34-5.26H139v-.91h-2V112h2v-.9h-1.81v-1H139v-1.43h1.39ZM137,109.1a4.78,4.78,0,0,1-.41,2,4.66,4.66,0,0,1-1.11,1.53,6.74,6.74,0,0,1-1.52,1,7,7,0,0,1-1.77.6l-.68-1.14a5.72,5.72,0,0,0,2.57-1,3.23,3.23,0,0,0,1.36-1.88H132V109.1Zm13.42,10.23H149V108.65h1.39ZM142.64,116a5.54,5.54,0,0,1,0-5.53,2.47,2.47,0,0,1,3.44-.61,2.21,2.21,0,0,1,.61.61,5.52,5.52,0,0,1,0,5.52,2.49,2.49,0,0,1-3.47.6A2.7,2.7,0,0,1,142.64,116Zm3.45-2.76a4.17,4.17,0,0,0-.4-2,1.08,1.08,0,0,0-2,0,5.15,5.15,0,0,0,0,3.93,1.08,1.08,0,0,0,2,0,4.12,4.12,0,0,0,.4-2Zm15.33,2.64.15,1.07c-1,.13-2.16.23-3.34.29-1.79,0-3,.08-3.53.08l-.19-1.14c1,0,1.89,0,2.8,0v-1.94h-1.93v-4.55h5.34v1.11h-3.94v2.33h4v1.1h-2v1.91c1.06,0,2-.12,2.72-.21Zm2-7.2v10.7H162V108.65Zm7.87,7.06-.78,1.09a5.61,5.61,0,0,1-1.54-1.25,4.69,4.69,0,0,1-1-1.62,4.4,4.4,0,0,1-.93,1.76,4.84,4.84,0,0,1-1.65,1.36l-.84-1a5.07,5.07,0,0,0,2.68-4.86v-.29h-2.13v-1.11h5.68v1.12h-2.07v.27a4.74,4.74,0,0,0,2.63,4.57Zm2.16,3.63h-1.4V108.65h1.4Zm8.45-.49a13.17,13.17,0,0,1-3.31.36v-4.08h1.34v3a8.9,8.9,0,0,0,1.78-.27Zm3.48-3.62h-2.47v-1h2.47Zm1.44,1.32h-5.31v-1h5.31Zm.61-4.54h-1.52v1.86h-1.43v-5.22h1.43v2.21h1.52Zm-9.79-.32a2.44,2.44,0,0,1,.79-1.83,3,3,0,0,1,3.95,0,2.39,2.39,0,0,1,.79,1.84,2.22,2.22,0,0,1-.79,1.76,3.19,3.19,0,0,1-4,0,2.24,2.24,0,0,1-.77-1.77Zm1.39,0a1.24,1.24,0,0,0,.38.93,1.33,1.33,0,0,0,1,.37,1.39,1.39,0,0,0,1-.37,1.24,1.24,0,0,0,.37-.93,1.37,1.37,0,0,0-.38-1,1.41,1.41,0,0,0-2,0,1.41,1.41,0,0,0-.37,1Zm7.05,6.44a1.12,1.12,0,0,1-.57,1,2.45,2.45,0,0,1-1.4.36,2.49,2.49,0,0,1-1.4-.36,1.17,1.17,0,0,1-.37-1.62,1.22,1.22,0,0,1,.37-.38,2.66,2.66,0,0,1,1.4-.36,2.61,2.61,0,0,1,1.4.36,1.13,1.13,0,0,1,.57,1Zm-1.25,0a.35.35,0,0,0-.2-.33,1.16,1.16,0,0,0-.52-.11c-.47,0-.7.15-.7.44s.23.43.7.43.73-.14.73-.43Zm11.64,1.23h-1.4V114h-2V112.8h2v-4.15h1.4Zm-3.41-9.57a8.52,8.52,0,0,1-4.77,7.69l-.87-1.06a7.19,7.19,0,0,0,2.85-2.31,6.19,6.19,0,0,0,1.27-3.16h-3.46v-1.16Zm13-1.12v4.07h1.53v1.16h-1.53v5.46h-1.4V108.65Zm-2.13,7.58a13.91,13.91,0,0,1-2.31.38c-1,.08-1.79.13-2.52.13h-1v-7h1.4v5.82a19.15,19.15,0,0,0,4.27-.42Zm16.6-4.12H219v2.22h-1.42v-5.67H219V111h1.52Zm-8.13.84a23,23,0,0,0,4.22-.32l.16,1.07a21.47,21.47,0,0,1-4.73.37h-1v-4.77h4.77v1.12h-3.37ZM219,119.2h-6.92v-4.31h1.39V116h4.13v-1.1H219Zm-1.4-1.12v-1h-4.13v1Zm12-1.69h-1.4v-7.74h1.4Zm.23,2.65h-7.43V115.7h1.42V118h6Zm-2.57-5.35-.79,1.12a4.23,4.23,0,0,1-1.35-.91,4.72,4.72,0,0,1-1.05-1.38,3.74,3.74,0,0,1-1,1.53,4,4,0,0,1-1.5,1l-.85-1.12a3.82,3.82,0,0,0,1.88-1.39,3.67,3.67,0,0,0,.7-2.17v-1.12h1.46v1.06a3.37,3.37,0,0,0,.74,2.11,3.65,3.65,0,0,0,1.73,1.27Zm13.24.58h-9.66v-1.11h9.66Zm-.89,5H232v-2.72h5.85V116H232v-1.1h7.23v2.69h-5.83v.59h6.21Zm-6.25-8.57c0,.25.21.46.62.62a5.94,5.94,0,0,0,3.41,0c.42-.16.63-.37.63-.62s-.2-.45-.62-.61a6.25,6.25,0,0,0-3.43,0C233.53,110.26,233.33,110.47,233.33,110.72Zm-1.45,0a1.56,1.56,0,0,1,1-1.4,7.86,7.86,0,0,1,5.57,0,1.48,1.48,0,0,1,0,2.8,7.65,7.65,0,0,1-5.57,0,1.56,1.56,0,0,1-1-1.4Zm18,1.59h-6.2v-1.12h6.2Zm-4.7-1.86v-1.1h3.3v1.1Zm6.91-1.8V113h1.49v1.16h-1.49v5.2H250.7V108.65ZM244.23,115a2.13,2.13,0,0,1,.72-1.65,3,3,0,0,1,3.73,0,2.27,2.27,0,0,1,.1,3.2l-.11.1a3,3,0,0,1-3.73,0,2.14,2.14,0,0,1-.71-1.67Zm1.37,0a1.09,1.09,0,0,0,.34.84,1.36,1.36,0,0,0,1.76,0A1.12,1.12,0,0,0,248,115a1.09,1.09,0,0,0-.34-.85,1.33,1.33,0,0,0-1.74,0,1.13,1.13,0,0,0-.35.85Zm14.91.72-.78,1.1a5.79,5.79,0,0,1-1.54-1.25,4.79,4.79,0,0,1-1-1.62,4.4,4.4,0,0,1-.93,1.76,4.84,4.84,0,0,1-1.65,1.36l-.84-1a5,5,0,0,0,2.68-4.86v-.28h-2.14v-1.12H260v1.12h-2.07v.27a4.74,4.74,0,0,0,2.63,4.57Zm2.16,3.64h-1.4V108.65h1.4Zm8.45-.49a14.17,14.17,0,0,1-3.31.36v-4.09h1.34v3a8.9,8.9,0,0,0,1.78-.27Zm3.48-3.63h-2.47v-.94h2.47Zm1.44,1.32h-5.32v-1H276Zm.61-4.53h-1.52v1.86H273.7v-5.22h1.43v2.21h1.52Zm-9.79-.33a2.43,2.43,0,0,1,.79-1.82,2.73,2.73,0,0,1,2-.74,2.79,2.79,0,0,1,2,.73,2.38,2.38,0,0,1,.79,1.83,2.23,2.23,0,0,1-.79,1.77,3.19,3.19,0,0,1-4,0,2.27,2.27,0,0,1-.78-1.78Zm1.39,0a1.24,1.24,0,0,0,.38.93,1.33,1.33,0,0,0,1,.37,1.43,1.43,0,0,0,1-.37,1.24,1.24,0,0,0,.37-.93,1.37,1.37,0,0,0-.38-1,1.41,1.41,0,0,0-2,0,1.37,1.37,0,0,0-.38,1Zm7.05,6.43a1.13,1.13,0,0,1-.57,1,2.53,2.53,0,0,1-1.4.36,2.49,2.49,0,0,1-1.4-.36,1.17,1.17,0,0,1-.37-1.62,1.22,1.22,0,0,1,.37-.38,2.57,2.57,0,0,1,1.4-.36,2.61,2.61,0,0,1,1.4.36,1.12,1.12,0,0,1,.56,1Zm-1.25,0a.35.35,0,0,0-.2-.32,1.16,1.16,0,0,0-.52-.11c-.47,0-.7.15-.7.43s.23.44.7.44.72-.15.72-.44Zm12.46-3.82h-9.66v-1.12h9.66Zm-.89,5H278v-2.72h5.84V116H278v-1.1h7.22v2.69H279.4v.59h6.22Zm-6.25-8.57c0,.25.2.46.62.62a4.68,4.68,0,0,0,1.7.25,4.73,4.73,0,0,0,1.71-.25c.42-.16.63-.37.63-.62s-.21-.45-.62-.61a5,5,0,0,0-1.72-.24,5,5,0,0,0-1.71.24c-.41.15-.62.36-.62.61Zm-1.46,0a1.58,1.58,0,0,1,1-1.4,7.89,7.89,0,0,1,5.58,0,1.48,1.48,0,0,1,0,2.8,7.65,7.65,0,0,1-5.57,0,1.55,1.55,0,0,1-1-1.4Zm20.79,6.45a1.78,1.78,0,0,1-1,1.58,5.19,5.19,0,0,1-2.7.59,5.09,5.09,0,0,1-2.68-.59,1.79,1.79,0,0,1-.75-2.42,1.75,1.75,0,0,1,.75-.75A5.18,5.18,0,0,1,295,115a5.3,5.3,0,0,1,2.7.58,1.76,1.76,0,0,1,1,1.59Zm-.07-2.32h-1.4v-1.16h-2v-1.07h2v-1.06h-1.81v-1.1h1.81v-1.81h1.4Zm-2,3.09a.81.81,0,0,0,0-1.55,3.92,3.92,0,0,0-1.63-.28,3.78,3.78,0,0,0-1.6.28.87.87,0,0,0-.58.78.85.85,0,0,0,.57.77,3.8,3.8,0,0,0,1.6.27,3.9,3.9,0,0,0,1.65-.27Zm-1.42-8.6c-.11,2.78-1.69,4.64-4.74,5.6l-.74-1.13a6.5,6.5,0,0,0,2.57-1.19,3.59,3.59,0,0,0,1.35-2.11h-3.41v-1.17Zm13.23,2.14a2,2,0,0,1-1,1.71,6.18,6.18,0,0,1-5.53,0,1.93,1.93,0,0,1-.81-2.61,1.89,1.89,0,0,1,.82-.81,6.1,6.1,0,0,1,5.52,0,1.93,1.93,0,0,1,1,1.71Zm-3.11,7.87H304V115.8h-4.1v-1.13h9.66v1.13h-4.15Zm1-7a.94.94,0,0,0,.59-1.19.91.91,0,0,0-.59-.59,4.19,4.19,0,0,0-3.4,0,.94.94,0,0,0,0,1.78A4.19,4.19,0,0,0,306.37,112.37ZM3.54,135.15V134h3.3v1.15Zm8.57.66a20.54,20.54,0,0,0,4.22-.32c0,.13.05.31.08.55s.06.42.08.55a22.94,22.94,0,0,1-4.75.35h-1v-7.36h4.91v1.1H12.11v1.95h3.32v1.12H12.11Zm6.55-7.16v4h1.49v1.15H18.66v5.51h-1.4V128.65Zm10.56,7.75H27.83v-7.75h1.39Zm.24,2.65H22.05v-3.42h1.41V138h6Zm-8.73-7a2.45,2.45,0,0,1,.8-1.9,2.91,2.91,0,0,1,2.09-.74,3,3,0,0,1,2.1.74,2.66,2.66,0,0,1,0,3.77l0,0a2.94,2.94,0,0,1-2.1.73,2.94,2.94,0,0,1-2.1-.73A2.41,2.41,0,0,1,20.73,132.08Zm1.44,0a1.44,1.44,0,0,0,.4,1.06,1.58,1.58,0,0,0,2.13,0,1.53,1.53,0,0,0,.39-1.06,1.38,1.38,0,0,0-1.32-1.44h-.15a1.39,1.39,0,0,0-1.45,1.44Zm10.16-.19a1.36,1.36,0,0,0,.41,1,1.56,1.56,0,0,0,1.13.4,1.54,1.54,0,0,0,1.12-.4,1.3,1.3,0,0,0,.42-1,1.27,1.27,0,0,0-.42-1,1.8,1.8,0,0,0-2.24,0A1.27,1.27,0,0,0,32.33,131.89Zm7.16-3.24v10.69H38.1V128.65Zm-8.6,3.25a2.34,2.34,0,0,1,.82-1.85,3.15,3.15,0,0,1,2.16-.71,3.11,3.11,0,0,1,2.15.71,2.51,2.51,0,0,1,.14,3.56l-.14.14a3.57,3.57,0,0,1-4.3,0,2.32,2.32,0,0,1-.83-1.85Zm6.77,4.7c-1,.14-2.26.24-3.61.32-1.6.06-2.72.09-3.36.08l-.2-1.2q2,0,3.48-.06c1.39-.05,2.58-.14,3.58-.26Zm12.71,2.25H49.06v-3.6H47.7v-1.14h1.36v-1.52H48v-1.14h1.09v-2.6h1.31Zm2.14.49H51.17V128.65H52.5Zm-4.65-9.43a8.19,8.19,0,0,1-3.8,7.34l-.91-1A7.18,7.18,0,0,0,45.53,134a6.58,6.58,0,0,0,1-3h-2.7v-1.13Zm14.55,7.3a1.75,1.75,0,0,1-1,1.55,5.61,5.61,0,0,1-2.76.56,5.55,5.55,0,0,1-2.75-.56,1.73,1.73,0,0,1,0-3.13,5.56,5.56,0,0,1,2.75-.57,5.62,5.62,0,0,1,2.76.57,1.74,1.74,0,0,1,1,1.57Zm-8.55-6.65V129.4h5.62v1.16h-2a2.89,2.89,0,0,0,.74,1.8,3.64,3.64,0,0,0,1.61,1.06l-.41.61-.35.5a4.67,4.67,0,0,1-1.32-.83,3.7,3.7,0,0,1-1-1.26,3.47,3.47,0,0,1-1,1.44,4.18,4.18,0,0,1-1.52,1l-.37-.5c-.2-.26-.35-.46-.47-.59a4.18,4.18,0,0,0,1.83-1.24,3.25,3.25,0,0,0,.74-1.95Zm5.46,1.78V131.2h1.61v-2.55h1.4V135h-1.4v-2.68Zm-.66,3.85a4.1,4.1,0,0,0-1.7.27q-.6.27-.6.75c0,.32.2.56.6.73a5.67,5.67,0,0,0,3.41,0c.4-.18.61-.42.61-.73a.85.85,0,0,0-.61-.76,4.54,4.54,0,0,0-1.71-.27Zm14.57,1.75H63.57v-1.1h9.66Zm-2-7.77a2.4,2.4,0,0,1,.67,3.34,2.25,2.25,0,0,1-.67.67,5.67,5.67,0,0,1-5.69,0,2.4,2.4,0,0,1,0-4A5.67,5.67,0,0,1,71.25,130.17Zm-1,3.21a1.38,1.38,0,0,0,.48-1.9,1.41,1.41,0,0,0-.48-.49,3.82,3.82,0,0,0-3.6,0,1.39,1.39,0,0,0-.48,1.91,1.3,1.3,0,0,0,.48.48A3.82,3.82,0,0,0,70.21,133.38Zm12.18,1.84H79.15v1.67h4.16V138H73.65v-1.12h4.1v-1.67H74.88v-3.54h5.81v-1.23H74.82v-1.12h7.26v3.47H76.27v1.3h6.12Zm13.29,4.12H94.33V134h-1v4.87H92.06v-10h1.32v4h1v-4.21h1.35Zm-7.38-3.68a12.41,12.41,0,0,0,3.1-.24l.13,1.1a15.58,15.58,0,0,1-3.61.28h-1v-6.88h4V131H88.31Zm17.21.74h-1.4v-7.75h1.4Zm.23,2.65H98.31V135.7h1.41V138h6Zm-2.57-5.35-.79,1.12a4.29,4.29,0,0,1-1.35-.91,4.48,4.48,0,0,1-1-1.39,3.88,3.88,0,0,1-1,1.54,4,4,0,0,1-1.5,1L96.65,134a3.8,3.8,0,0,0,1.88-1.39,3.61,3.61,0,0,0,.7-2.17v-1.13h1.47v1.06a3.3,3.3,0,0,0,.73,2.11,3.63,3.63,0,0,0,1.74,1.27Zm15.26,5.64H117V128.65h1.39ZM110.64,136a4.66,4.66,0,0,1-.74-2.76,4.74,4.74,0,0,1,.74-2.77,2.47,2.47,0,0,1,3.45-.61,2.52,2.52,0,0,1,.61.61,5.58,5.58,0,0,1,0,5.52,2.5,2.5,0,0,1-4.06,0Zm3.45-2.76a4.24,4.24,0,0,0-.4-2,1.17,1.17,0,0,0-1-.72,1.13,1.13,0,0,0-1,.72,4.23,4.23,0,0,0-.39,2,4.11,4.11,0,0,0,.39,1.95,1.12,1.12,0,0,0,1,.72,1.18,1.18,0,0,0,1-.72,4,4,0,0,0,.39-1.95Zm10.3,1.47h-4.33v-5.22h1.41V131H123v-1.6h1.4v2h1v-2.58h1.33v7.44h-1.33v-3.72h-1Zm4.64,4.4h-7.55v-3.44h1.39V138H129Zm-.26-2.51h-1.33v-7.92h1.33Zm-5.79-3v-1.46h-1.51v1.46Zm15-.68h-5.58v1.16h5.93v1.1H131v-5.67h7.21v1.1h-5.82v1.2H138Zm1.46,4V138h-9.66v-1.11Zm7.38,1.95h-1.32v-5h-.91a5,5,0,0,1-.68,2.34,1.82,1.82,0,0,1-1.64.91,1.74,1.74,0,0,1-1.32-.56,3.15,3.15,0,0,1-.76-1.4,7.49,7.49,0,0,1-.22-1.88,7.23,7.23,0,0,1,.22-1.86,3.25,3.25,0,0,1,.76-1.4,1.78,1.78,0,0,1,1.32-.56,1.83,1.83,0,0,1,1.65.92,5.07,5.07,0,0,1,.67,2.34h.91v-3.87h1.32Zm2.14.49h-1.32V128.65h1.32Zm-5.9-4.18a7.23,7.23,0,0,0,0-3.75c-.17-.49-.43-.73-.77-.73s-.58.24-.74.73a7,7,0,0,0,0,3.74c.16.48.41.73.74.73s.59-.25.76-.73Zm18.1,4.05H154.2v-3.64h6.93ZM153,131.79v-1.1h5.64v1.1h-2a2.84,2.84,0,0,0,2.29,2.11l-.7,1.1a4.85,4.85,0,0,1-1.37-.76,3.17,3.17,0,0,1-1-1.16,3.74,3.74,0,0,1-1,1.33,4,4,0,0,1-1.51.86l-.78-1.08a3.23,3.23,0,0,0,2.5-2.4Zm9.65.78h-1.52V135h-1.4v-6.38h1.4v2.77h1.52Zm-2.93,5.53v-1.46h-4.11v1.46Zm-5.45-8V129h3.11v1.1Zm14.44,5.3,0-1.2h1.53V132h-1.53l0-1.19h1.58v-2.11h1.4v10.69h-1.4v-4Zm-5.8-2.18a4.78,4.78,0,0,1,.73-2.78,2.47,2.47,0,0,1,3.45-.6,2.63,2.63,0,0,1,.6.6,5.6,5.6,0,0,1,0,5.53,2.47,2.47,0,0,1-3.45.6,2.4,2.4,0,0,1-.6-.59,4.8,4.8,0,0,1-.73-2.76Zm4.16,0a4.11,4.11,0,0,0-.39-2,1.16,1.16,0,0,0-1-.72,1.13,1.13,0,0,0-1,.72,4.23,4.23,0,0,0-.39,2,4.11,4.11,0,0,0,.39,1.95,1.12,1.12,0,0,0,1,.72,1.14,1.14,0,0,0,1-.72,4.12,4.12,0,0,0,.4-1.95Zm12-1.55h-6.2v-1.09h6.2Zm-.52,2.27a1.69,1.69,0,0,1-.71,1.4,2.85,2.85,0,0,1-1.81.54,2.89,2.89,0,0,1-1.82-.54,1.66,1.66,0,0,1-.72-1.4,1.71,1.71,0,0,1,.72-1.41,3.21,3.21,0,0,1,3.62,0,1.73,1.73,0,0,1,.73,1.41Zm-4.1-3.87V129h3.18v1.07Zm6.87-1.41v3.45h1.48v1.17h-1.49v3.32h-1.4v-7.94Zm.25,10.44h-7.31v-2.82h1.42V138h5.89Zm-6.68-5.16a.68.68,0,0,0,.33.58,1.54,1.54,0,0,0,1.63,0,.67.67,0,0,0,.34-.58.72.72,0,0,0-.34-.61,1.5,1.5,0,0,0-1.63,0,.71.71,0,0,0-.33.61Zm19.92,3.24a1.79,1.79,0,0,1-1,1.58,5.16,5.16,0,0,1-2.7.59,5.08,5.08,0,0,1-2.67-.59,1.79,1.79,0,0,1-.76-2.42,1.83,1.83,0,0,1,.76-.75,5.17,5.17,0,0,1,2.67-.58,5.26,5.26,0,0,1,2.7.58,1.77,1.77,0,0,1,1,1.59Zm-.08-2.32h-1.4v-1.16h-1.95v-1.07h1.95v-1.06H191.5v-1.1h1.81v-1.81h1.4Zm-2,3.09a.81.81,0,0,0,0-1.55,3.84,3.84,0,0,0-1.64-.28,3.69,3.69,0,0,0-1.6.28.85.85,0,0,0-.57.78.84.84,0,0,0,.57.76,3.64,3.64,0,0,0,1.6.28,3.9,3.9,0,0,0,1.65-.27Zm-1.42-8.6c-.11,2.78-1.69,4.64-4.74,5.6l-.74-1.13a6.5,6.5,0,0,0,2.57-1.19,3.59,3.59,0,0,0,1.35-2.11h-3.41v-1.17Zm13.23,2.14a2,2,0,0,1-1,1.72,6.25,6.25,0,0,1-5.53,0,1.93,1.93,0,0,1,0-3.43,6.16,6.16,0,0,1,5.52,0,2,2,0,0,1,1,1.71Zm-3.11,7.87h-1.4V135.8H196v-1.13h9.66v1.13h-4.15Zm1-7a.94.94,0,0,0,.59-1.19.91.91,0,0,0-.59-.59,4.19,4.19,0,0,0-3.4,0,.94.94,0,0,0,0,1.78A4.19,4.19,0,0,0,202.46,132.37Z"/><path id="패스_11434" data-name="패스 11434" class="cls-2" d="M393.54,95.15V94h3.3v1.15Zm15.69,2a1.79,1.79,0,0,1-1,1.58,5.16,5.16,0,0,1-2.7.59,5.08,5.08,0,0,1-2.67-.59,1.79,1.79,0,0,1,0-3.17,5.18,5.18,0,0,1,2.67-.59,5.26,5.26,0,0,1,2.7.58A1.81,1.81,0,0,1,409.23,97.17Zm-.08-2.32h-1.4V93.69h-2V92.62h2V91.56h-1.81v-1.1h1.81V88.65h1.4Zm-1.95,3.09a.81.81,0,0,0,0-1.55,3.84,3.84,0,0,0-1.64-.28,3.69,3.69,0,0,0-1.6.28.85.85,0,0,0-.57.78.84.84,0,0,0,.57.76,3.64,3.64,0,0,0,1.6.28A3.9,3.9,0,0,0,407.2,97.94Zm-1.42-8.6c-.11,2.78-1.69,4.64-4.74,5.6l-.74-1.13a6.5,6.5,0,0,0,2.57-1.19,3.59,3.59,0,0,0,1.35-2.11h-3.41V89.34Zm13,9.85h-7.2V95.67h2.87v-.78h-4.09V93.76h9.66v1.13H415.9v.78h2.91Zm.23-6.12h-7.7V92h1.48c0-.1-.06-.31-.13-.63s-.11-.58-.14-.76l1.35-.18c0,.15.05.4.11.76s.09.62.12.81h2.14l.27-1.56,1.37.17L417.59,92H419Zm0-3h-7.77V89h7.77Zm-1.65,8V96.75H413V98.1Zm11.4,1.25h-1.41v-3.8h-4.09v-1.1H433v1.1h-4.15Zm3.76-6.93L432,93.56a6.07,6.07,0,0,1-2.32-.88,3.68,3.68,0,0,1-1.49-1.56,3.45,3.45,0,0,1-1.45,1.55,6.18,6.18,0,0,1-2.35.9l-.6-1.15a5.06,5.06,0,0,0,2.56-1,2.47,2.47,0,0,0,1.09-2v-.55h1.49v.55a2.17,2.17,0,0,0,.57,1.44,4.22,4.22,0,0,0,1.4,1.08A5.39,5.39,0,0,0,432.59,92.42Zm9.68,4.87a1.66,1.66,0,0,1-1,1.51,5.49,5.49,0,0,1-2.7.55,5.43,5.43,0,0,1-2.69-.55,1.65,1.65,0,0,1,0-3,5.33,5.33,0,0,1,2.69-.56,5.39,5.39,0,0,1,2.7.56A1.66,1.66,0,0,1,442.27,97.29ZM439,94.42a18.4,18.4,0,0,1-3.85.29h-1.38V91.32h3.3v-1h-3.3v-1.1h4.72v3.14h-3.3v1.2h.4a14.47,14.47,0,0,0,3.22-.23C438.87,93.56,438.93,93.91,439,94.42Zm.23-3.2V90.06h1.6V88.65h1.39v6.48h-1.39V93.45h-1.6V92.29h1.6V91.21Zm-.65,5.11a3.89,3.89,0,0,0-1.62.26c-.4.18-.6.41-.6.7s.2.52.6.69a4.08,4.08,0,0,0,1.62.26,4.23,4.23,0,0,0,1.65-.26c.39-.17.58-.4.58-.69s-.19-.52-.58-.7A4.05,4.05,0,0,0,438.6,96.33Zm9.6-4.44a1.31,1.31,0,0,0,.42,1,1.54,1.54,0,0,0,1.12.4,1.57,1.57,0,0,0,1.13-.4,1.34,1.34,0,0,0,.41-1,1.27,1.27,0,0,0-.42-1,1.59,1.59,0,0,0-1.13-.39,1.58,1.58,0,0,0-1.11.39,1.27,1.27,0,0,0-.42,1Zm7.17-3.24V99.34H454V88.65Zm-8.6,3.25a2.3,2.3,0,0,1,.81-1.85,3.6,3.6,0,0,1,4.32,0,2.52,2.52,0,0,1,0,3.7,3.59,3.59,0,0,1-4.31,0,2.35,2.35,0,0,1-.83-1.85Zm6.76,4.7c-1,.13-2.26.24-3.61.31q-2.4.11-3.36.09l-.2-1.2q2,0,3.48-.06c1.39,0,2.59-.14,3.58-.27Zm11.24-7.95v4.11h1.54v1.16h-1.54v5.42h-1.39V88.65Zm-1.92,7.09-.41.53-.41.51a6.64,6.64,0,0,1-1.48-1.32,4.56,4.56,0,0,1-1-1.66,5.35,5.35,0,0,1-1,1.8A5.9,5.9,0,0,1,457,97q-.58-.72-.87-1a5.52,5.52,0,0,0,2.66-5V89.55h1.45v1.39a5.51,5.51,0,0,0,2.59,4.8Zm13.31-1.18H466.5v-1h9.66Zm-1,4.66h-7.45V96.74h5.8v-.57h-5.85v-1h7.25v2.5h-5.8v.55h6.05ZM475.1,93h-7.32V90.54h5.67V90h-5.7V89h7.12v2.44h-5.69V92h5.92Zm11.78-1.66h-1.47v-1.1h1.47V88.65h1.39v6.23h-1.39V93.52H485.4v-1.1h1.48Zm-2.07,2.93h-4.94V89.42h4.94Zm-1.38-1.08V90.49h-2.18v2.67Zm4.92,4a1.76,1.76,0,0,1-1,1.58,5.29,5.29,0,0,1-2.71.58,5.15,5.15,0,0,1-2.67-.58,1.78,1.78,0,0,1,0-3.17,5.2,5.2,0,0,1,2.68-.58,5.41,5.41,0,0,1,2.71.57A1.78,1.78,0,0,1,488.35,97.18Zm-3.68-1.06a3.87,3.87,0,0,0-1.61.29.79.79,0,0,0,0,1.53,3.85,3.85,0,0,0,1.61.27,4,4,0,0,0,1.64-.27.85.85,0,0,0,.59-.76.86.86,0,0,0-.59-.77A3.85,3.85,0,0,0,484.67,96.12Zm9.56-1.9H489.9v-4.9h1.42v1.44h1.5V89.31h1.41Zm4.38.65h-1.34V92.29h-.8v2.46h-1.31V88.84h1.31v2.33h.8V88.65h1.34Zm-7.41.54h7.41v3.94h-1.4V96.53h-6Zm1.62-2.3V91.85h-1.5v1.26Zm15.62,6.23H507V88.65h1.4ZM506,92.26h-6.23V91.14H506Zm-4.73-1.81V89.33h3.3v1.12ZM500.31,95a2.07,2.07,0,0,1,.73-1.64,2.65,2.65,0,0,1,1.87-.66,2.73,2.73,0,0,1,1.89.65,2.12,2.12,0,0,1,.73,1.65,2.15,2.15,0,0,1-.73,1.65,3,3,0,0,1-3.77,0A2.09,2.09,0,0,1,500.31,95Zm1.72-.85a1.26,1.26,0,0,0,0,1.7,1.26,1.26,0,0,0,.88.33,1.28,1.28,0,0,0,.92-.32,1.19,1.19,0,0,0,.33-.86,1.13,1.13,0,0,0-.35-.85,1.25,1.25,0,0,0-.9-.32A1.2,1.2,0,0,0,502,94.12Zm20.33-2H520.9v2.33h-1.43v-5.8h1.43V91h1.46ZM517.53,95h3.37v4.4h-1.43V96h-1.94Zm.26,4.06a16.58,16.58,0,0,1-3.14.27h-1.18V96.7h2.17V96h-2.21V95H517v2.65h-2.18v.66a12,12,0,0,0,2.8-.22Zm.07-5.17H512.8v-4.8h1.39v1.43h2.26V89.07h1.41Zm-1.41-1.12V91.59h-2.26v1.18Zm15,6.58h-1.4V88.65h1.4ZM529,92.26h-6.22V91.14H529Zm-4.72-1.81V89.33h3.3v1.12ZM523.32,95a2.13,2.13,0,0,1,.73-1.64,2.69,2.69,0,0,1,1.88-.66,2.73,2.73,0,0,1,1.89.65,2.25,2.25,0,0,1,0,3.3,2.74,2.74,0,0,1-1.89.66,2.69,2.69,0,0,1-1.88-.65A2.1,2.1,0,0,1,523.32,95Zm1.73-.85a1.23,1.23,0,0,0,0,1.7,1.2,1.2,0,0,0,.88.33,1.27,1.27,0,0,0,.91-.32,1.11,1.11,0,0,0,.33-.86,1.09,1.09,0,0,0-.34-.85,1.25,1.25,0,0,0-.9-.32A1.19,1.19,0,0,0,525.05,94.12Zm14.33,1.58-.78,1.1a5.64,5.64,0,0,1-1.54-1.25,4.64,4.64,0,0,1-1-1.62,4.4,4.4,0,0,1-.93,1.76,4.84,4.84,0,0,1-1.65,1.36l-.84-1a5.07,5.07,0,0,0,2.68-4.86v-.28h-2.14V89.74h5.68v1.12h-2.07v.27A4.74,4.74,0,0,0,539.38,95.7Zm2.16,3.64h-1.4V88.65h1.4Zm8.44-.49a14.17,14.17,0,0,1-3.31.36V95.12H548v3a8.9,8.9,0,0,0,1.78-.27Zm3.48-3.63H551v-.94h2.47Zm1.44,1.32h-5.31v-1h5.31Zm.61-4.53H554v1.86h-1.43V88.65H554v2.21h1.52Zm-9.79-.33a2.43,2.43,0,0,1,.79-1.82,2.73,2.73,0,0,1,2-.74,2.79,2.79,0,0,1,2,.73,2.38,2.38,0,0,1,.79,1.83,2.23,2.23,0,0,1-.79,1.77,2.91,2.91,0,0,1-2,.7,2.87,2.87,0,0,1-2-.69,2.23,2.23,0,0,1-.77-1.78Zm1.39,0a1.24,1.24,0,0,0,.38.93,1.33,1.33,0,0,0,1,.37,1.43,1.43,0,0,0,1-.37,1.24,1.24,0,0,0,.37-.93,1.39,1.39,0,0,0-.38-1,1.41,1.41,0,0,0-2,0,1.43,1.43,0,0,0-.37,1Zm7,6.43a1.12,1.12,0,0,1-.56,1,2.55,2.55,0,0,1-1.4.36,2.47,2.47,0,0,1-1.4-.36,1.18,1.18,0,0,1,0-2,2.9,2.9,0,0,1,2.8,0A1.12,1.12,0,0,1,554.16,98.1Zm-1.25,0a.33.33,0,0,0-.2-.32,1.12,1.12,0,0,0-.51-.11c-.47,0-.71.15-.71.43s.24.44.71.44S552.91,98.39,552.91,98.1Zm12.46-2.95h-9.66V94h9.66Zm-1.12,3.9H556.9V95.93h1.4v2h6Zm0-7.87a1.78,1.78,0,0,1-1,1.56,6.51,6.51,0,0,1-5.46,0,1.8,1.8,0,0,1-1-1.56,1.78,1.78,0,0,1,1-1.54,6.49,6.49,0,0,1,5.45,0,1.77,1.77,0,0,1,1,1.54Zm-1.45,0a.89.89,0,0,0-.62-.78,4,4,0,0,0-1.68-.3,3.93,3.93,0,0,0-1.65.3.88.88,0,0,0-.61.78c0,.32.2.57.61.76a4.08,4.08,0,0,0,1.65.29,4.16,4.16,0,0,0,1.68-.29C562.62,91.77,562.83,91.52,562.83,91.2Zm14.73,6a1.78,1.78,0,0,1-1,1.58,6.43,6.43,0,0,1-5.38,0,1.79,1.79,0,0,1,0-3.17,6.53,6.53,0,0,1,5.38,0A1.77,1.77,0,0,1,577.56,97.17Zm-.07-2.32h-1.4V93.69h-2V92.62h2V91.56h-1.81v-1.1h1.81V88.65h1.4Zm-2,3.09a.85.85,0,0,0,.58-.77.88.88,0,0,0-.58-.78,3.84,3.84,0,0,0-1.64-.28,3.66,3.66,0,0,0-1.6.28.88.88,0,0,0-.58.78.85.85,0,0,0,.57.76,3.69,3.69,0,0,0,1.6.28A3.85,3.85,0,0,0,575.53,97.94Zm-1.41-8.6c-.11,2.78-1.69,4.64-4.74,5.6l-.75-1.13a6.38,6.38,0,0,0,2.57-1.19,3.65,3.65,0,0,0,1.36-2.11h-3.41V89.34Zm13.22,2.14a1.94,1.94,0,0,1-1,1.71,5.18,5.18,0,0,1-2.77.65,5.12,5.12,0,0,1-2.76-.65,1.93,1.93,0,0,1,0-3.42,6.1,6.1,0,0,1,5.52,0A1.93,1.93,0,0,1,587.34,91.48Zm-3.11,7.87h-1.4V95.8h-4.1V94.67h9.66V95.8h-4.15Zm1-7a.94.94,0,0,0,0-1.78,4.19,4.19,0,0,0-3.4,0,.94.94,0,0,0,0,1.78,4.19,4.19,0,0,0,3.4,0ZM601.32,98h-9.66v-1.1h4.1v-2h1.4v2h4.15Zm-.73-3.63h-3.88V89.5h3.78v1.12h-2.36v2.62h2.46Zm-6.76-1.18a8.31,8.31,0,0,0,2.28-.25l.18,1.16a17.73,17.73,0,0,1-3.85.25V89.5H596v1.12h-2.19ZM611.4,95h-9.66V93.92h9.66Zm-1.19-2.33H603V89h1.4v2.6h5.77Zm.07,6.34H603V95.89h1.39v2h5.91Zm13.24.29h-1.4V94h-2V92.8h2V88.65h1.4Zm-3.41-9.58a8.53,8.53,0,0,1-4.77,7.7l-.87-1.06a7.14,7.14,0,0,0,2.85-2.31,6.19,6.19,0,0,0,1.27-3.16h-3.46V89.76Zm13.14,3.88h-7.33V89.15h1.39v1.21h4.53V89.14h1.41Zm-3,5.71h-1.4V95.84h-4.1V94.72h9.66v1.12h-4.16Zm1.57-6.83V91.46h-4.53v1.06Zm7.71-.63a1.34,1.34,0,0,0,.42,1,1.58,1.58,0,0,0,1.12.4,1.62,1.62,0,0,0,1.13-.4,1.33,1.33,0,0,0,.42-1,1.3,1.3,0,0,0-.42-1,1.61,1.61,0,0,0-1.13-.39,1.59,1.59,0,0,0-1.12.39,1.3,1.3,0,0,0-.42,1Zm7.17-3.24V99.34h-1.39V88.65Zm-8.6,3.25a2.36,2.36,0,0,1,.81-1.85,3.6,3.6,0,0,1,4.32,0,2.52,2.52,0,0,1,0,3.7,3.13,3.13,0,0,1-2.16.72,3.17,3.17,0,0,1-2.15-.72,2.38,2.38,0,0,1-.83-1.85Zm6.76,4.7c-1,.14-2.26.24-3.61.32-1.6.06-2.72.09-3.36.08l-.2-1.2q2,0,3.48-.06c1.39,0,2.58-.14,3.58-.26Zm11.25-7.95v4.11h1.53v1.16h-1.53v5.42h-1.4V88.65Zm-1.92,7.09-.42.53-.41.51a6.87,6.87,0,0,1-1.48-1.32,4.85,4.85,0,0,1-1-1.66,5.35,5.35,0,0,1-1,1.8,5.75,5.75,0,0,1-1.55,1.4c-.39-.48-.68-.82-.86-1a5.53,5.53,0,0,0,2.65-5V89.55h1.45v1.39a5.72,5.72,0,0,0,.68,2.78,5.55,5.55,0,0,0,1.92,2Zm13.3-1.18h-9.66v-1h9.66Zm-1,4.66h-7.45V96.74h5.8v-.57H659v-1h7.25v2.5h-5.8v.55h6ZM666.45,93h-7.32V90.54h5.67V90h-5.7V89h7.12v2.44h-5.69V92h5.92Zm14.17-.85h-1.47v2.32h-1.42v-5.8h1.42V91h1.47ZM675.78,95h3.37v4.41h-1.42V96h-2Zm.27,4.07a16.62,16.62,0,0,1-3.15.27h-1.17V96.7h2.17V96h-2.21V95h3.58v2.65h-2.19v.66a12,12,0,0,0,2.81-.22Zm.07-5.17h-5.07v-4.8h1.4v1.43h2.25V89.07h1.42Zm-1.42-1.12V91.59h-2.25v1.18Zm15,3.94h-1.39V88.6h1.39Zm.3,2.41h-7.43V96.29H684V98h6Zm-2.77-7.33H681V90.7h6.23ZM686.69,94a1.67,1.67,0,0,1-.73,1.39,2.85,2.85,0,0,1-1.81.54,3,3,0,0,1-1.85-.54,1.67,1.67,0,0,1,0-2.76,3.05,3.05,0,0,1,1.85-.55,2.92,2.92,0,0,1,1.81.55,1.65,1.65,0,0,1,.73,1.37Zm-4.13-3.77V89.1h3.17v1.08ZM683,94a.67.67,0,0,0,.34.58,1.59,1.59,0,0,0,1.65,0,.67.67,0,0,0,.34-.58.69.69,0,0,0-.34-.58,1.37,1.37,0,0,0-.81-.23,1.45,1.45,0,0,0-.84.22A.7.7,0,0,0,683,94Zm19.75,3.22a1.78,1.78,0,0,1-1,1.58,6.43,6.43,0,0,1-5.38,0,1.79,1.79,0,0,1,0-3.17,6.53,6.53,0,0,1,5.38,0A1.77,1.77,0,0,1,702.72,97.17Zm-.07-2.32h-1.4V93.69h-2V92.62h2V91.56h-1.81v-1.1h1.81V88.65h1.4Zm-2,3.09a.85.85,0,0,0,.58-.77.88.88,0,0,0-.58-.78,3.84,3.84,0,0,0-1.64-.28,3.66,3.66,0,0,0-1.6.28.88.88,0,0,0-.58.78.85.85,0,0,0,.57.76,3.69,3.69,0,0,0,1.6.28A3.85,3.85,0,0,0,700.69,97.94Zm-1.41-8.6c-.11,2.78-1.69,4.64-4.74,5.6l-.74-1.13a6.5,6.5,0,0,0,2.57-1.19,3.59,3.59,0,0,0,1.35-2.11h-3.41V89.34Zm13.22,2.14a1.94,1.94,0,0,1-1,1.71,5.18,5.18,0,0,1-2.77.65,5.12,5.12,0,0,1-2.76-.65,2,2,0,0,1-1-1.71,1.93,1.93,0,0,1,1-1.71,6.1,6.1,0,0,1,5.52,0A1.92,1.92,0,0,1,712.5,91.48Zm-3.11,7.87H708V95.8h-4.11V94.67h9.66V95.8h-4.15Zm1-7a.93.93,0,0,0,0-1.78,3.54,3.54,0,0,0-1.7-.36,3.59,3.59,0,0,0-1.7.36.94.94,0,0,0,0,1.78,4.22,4.22,0,0,0,3.41,0ZM393.54,115.15V114h3.3v1.15Zm15.6,1.25h-1.39v-7.75h1.39Zm.24,2.65H402v-3.42h1.41V118h6Zm-8.73-7a2.45,2.45,0,0,1,.8-1.9,2.91,2.91,0,0,1,2.09-.74,3,3,0,0,1,2.1.74,2.48,2.48,0,0,1,.79,1.9,2.44,2.44,0,0,1-.79,1.9,3.39,3.39,0,0,1-4.2,0A2.44,2.44,0,0,1,400.65,112.08Zm1.44,0a1.44,1.44,0,0,0,.4,1.06,1.56,1.56,0,0,0,2.13,0,1.53,1.53,0,0,0,.39-1.06,1.38,1.38,0,0,0-1.32-1.44h-.15a1.37,1.37,0,0,0-1.05.41,1.42,1.42,0,0,0-.41,1Zm18,5.87h-9.66v-1.12h9.66Zm-.2-4.38-.71,1.09a7,7,0,0,1-2.34-1.07,4.28,4.28,0,0,1-1.58-1.79,4,4,0,0,1-1.57,1.83,6.71,6.71,0,0,1-2.37,1.08l-.66-1.14a5.51,5.51,0,0,0,1.78-.6,4.53,4.53,0,0,0,1.48-1.27,2.7,2.7,0,0,0,.61-1.7v-.71H416V110a2.42,2.42,0,0,0,.24,1.06,3.41,3.41,0,0,0,.66.93,5.06,5.06,0,0,0,.92.74,6.3,6.3,0,0,0,1,.54,4.75,4.75,0,0,0,1,.3Zm2.42,2.24a20.69,20.69,0,0,0,4.23-.32c0,.13,0,.31.08.55s.06.42.07.55a22.89,22.89,0,0,1-4.75.35h-1v-7.36h4.9v1.1h-3.51v1.95h3.32v1.12h-3.32Zm6.56-7.16v4h1.48v1.15h-1.49v5.51h-1.4V108.65Zm11.38,9.18h-9.66v-1.1h9.66ZM439,109.74a34.64,34.64,0,0,1-.49,6.35l-1.37-.13a18.4,18.4,0,0,0,.33-2.33c.09-.93.13-1.86.13-2.79h-5.93v-1.1Zm10.74,9.47h-7.21v-3.75h7.22Zm0-4.27h-1.34v-2.49h-.86v2.41H446.2v-6h1.32v2.48h.86v-2.67h1.35Zm-4-.59a18,18,0,0,1-3.95.32h-.73v-3.29h2.64v-1H441v-1.12h4.1v3.17h-2.66v1.1a14.89,14.89,0,0,0,1.64-.06,10.67,10.67,0,0,0,1.49-.2c.07.51.12.86.16,1.06Zm2.53,3.75v-1.56h-4.38v1.56Zm14.1,1.24H461V108.65h1.39Zm-3.25-2.64h-5.05v-7.19h1.39v2.57h2.25v-2.59h1.41Zm-1.41-1.1v-2.42h-2.25v2.41Zm13.36.22a1.61,1.61,0,0,1,.86,2.12,1.59,1.59,0,0,1-.86.85,5.54,5.54,0,0,1-2.72.55,5.64,5.64,0,0,1-2.74-.55,1.61,1.61,0,0,1-.86-2.11,1.58,1.58,0,0,1,.86-.86,5.79,5.79,0,0,1,2.74-.56,5.6,5.6,0,0,1,2.73.55Zm2.21-1.37h-9.66v-1.12h3.66v-1.86h1.4v1.86h4.6ZM472.06,109a17.64,17.64,0,0,1-.34,3.77l-1.35-.18a10.37,10.37,0,0,0,.28-2.48h-5.9V109Zm-1.4,8.28c0-.3-.2-.53-.61-.69a5,5,0,0,0-1.68-.23q-2.28,0-2.28.93c0,.29.21.52.61.67a6,6,0,0,0,3.35,0c.4-.15.6-.38.6-.68Zm12.18,2H481.5V114h-.95v4.9h-1.3v-10h1.3v4h.95v-4.19h1.33Zm-4.56-9.43a8.2,8.2,0,0,1-3.88,7.34l-.91-1a7.23,7.23,0,0,0,2.42-2.28,6.31,6.31,0,0,0,1-3h-2.79v-1.13Zm15.35,8.94h-1.32v-3.6H491v-1.14h1.35v-1.52h-1.09v-1.14h1.09v-2.6h1.31Zm2.13.49h-1.33V108.65h1.33Zm-4.64-9.43a8.19,8.19,0,0,1-3.8,7.34l-.91-1a7.05,7.05,0,0,0,2.37-2.27,6.47,6.47,0,0,0,1-3h-2.7v-1.13Zm14.54,7.3a1.73,1.73,0,0,1-1,1.55,7,7,0,0,1-5.51,0,1.73,1.73,0,0,1,0-3.13,6.94,6.94,0,0,1,5.51,0,1.75,1.75,0,0,1,1,1.57Zm-8.54-6.65V109.4h5.63v1.16h-2a2.89,2.89,0,0,0,.74,1.8,3.64,3.64,0,0,0,1.61,1.06l-.41.61-.35.5a4.67,4.67,0,0,1-1.32-.83,3.7,3.7,0,0,1-1-1.26,3.47,3.47,0,0,1-1,1.44,4.18,4.18,0,0,1-1.52,1l-.37-.5c-.2-.26-.35-.46-.47-.59a4.18,4.18,0,0,0,1.83-1.24,3.25,3.25,0,0,0,.74-2Zm5.46,1.78V111.2h1.6v-2.55h1.4V115h-1.4v-2.68Zm-.66,3.85a4.1,4.1,0,0,0-1.7.27c-.41.18-.61.43-.61.75s.2.56.61.73a5.67,5.67,0,0,0,3.41,0c.4-.18.6-.42.6-.73a.84.84,0,0,0-.6-.76,4.56,4.56,0,0,0-1.72-.27Zm14.56,1.75h-9.66v-1.1h9.66Zm-2-7.77a2.41,2.41,0,0,1,.67,3.34,2.51,2.51,0,0,1-.67.67,5.69,5.69,0,0,1-5.7,0,2.4,2.4,0,0,1-.68-3.32,2.35,2.35,0,0,1,.68-.69A5.69,5.69,0,0,1,514.51,110.17Zm-1,3.21a1.39,1.39,0,0,0,.49-1.9,1.44,1.44,0,0,0-.49-.49,3.82,3.82,0,0,0-3.6,0,1.4,1.4,0,0,0-.48,1.91,1.47,1.47,0,0,0,.48.48A3.82,3.82,0,0,0,513.46,113.38Zm12.19,1.84h-3.24v1.67h4.15V118H516.9v-1.12H521v-1.67h-2.87v-3.54h5.81v-1.23h-5.86v-1.12h7.26v3.47h-5.81v1.3h6.12Zm12.54,4h-6.92v-3.64h6.92Zm-8.12-7.42v-1.1h5.64v1.1h-2A2.82,2.82,0,0,0,536,113.9l-.7,1.1a4.9,4.9,0,0,1-1.38-.76,3.37,3.37,0,0,1-1-1.16,3.52,3.52,0,0,1-1,1.33,4,4,0,0,1-1.51.86l-.78-1.08a3.23,3.23,0,0,0,2.5-2.4Zm9.64.78h-1.52V115H536.8v-6.38h1.39v2.77h1.52Zm-2.93,5.53v-1.46h-4.11v1.46Zm-5.44-8V109h3.11v1.1Zm14.43,5.3.05-1.2h1.54V112h-1.54l-.05-1.19h1.59v-2.11h1.4v10.69h-1.4v-4Zm-5.8-2.18a4.79,4.79,0,0,1,.74-2.78,2.47,2.47,0,0,1,4,0,4.78,4.78,0,0,1,.73,2.78,4.69,4.69,0,0,1-.73,2.75,2.47,2.47,0,0,1-3.45.6,2.36,2.36,0,0,1-.59-.59,4.74,4.74,0,0,1-.73-2.76Zm4.17,0a4.23,4.23,0,0,0-.39-2,1.16,1.16,0,0,0-1-.72,1.13,1.13,0,0,0-1,.72,4.35,4.35,0,0,0-.38,2,4.23,4.23,0,0,0,.38,2,1.13,1.13,0,0,0,1,.72,1.14,1.14,0,0,0,1-.72,4.11,4.11,0,0,0,.39-2Zm12-1.93h-6.2v-1.09h6.2Zm-4.58-1.53v-1.06h3.17v1.06Zm8.33,2.84h-1.5v2.13H557v-6.07h1.4v2.8h1.5Zm-1.23,6.72h-7.31v-2.53H557v-.5h-5.64v-1h7.05v2.5h-5.64v.52h5.9Zm-3-6.11a1.39,1.39,0,0,1-.71,1.21,3.24,3.24,0,0,1-1.82.46,3.28,3.28,0,0,1-1.84-.46,1.36,1.36,0,0,1,0-2.41,3.28,3.28,0,0,1,1.84-.46,3.22,3.22,0,0,1,1.81.46,1.42,1.42,0,0,1,.72,1.21Zm-3.71,0a.52.52,0,0,0,.34.48,1.74,1.74,0,0,0,.84.18,1.63,1.63,0,0,0,.81-.18.5.5,0,0,0,0-.94,1.63,1.63,0,0,0-.81-.18,1.74,1.74,0,0,0-.84.18.53.53,0,0,0-.34.47Zm19.91,4a1.77,1.77,0,0,1-1,1.59,5.16,5.16,0,0,1-2.7.59,5.06,5.06,0,0,1-2.67-.59,1.78,1.78,0,0,1,0-3.17,5.15,5.15,0,0,1,2.67-.59,5.26,5.26,0,0,1,2.7.58,1.8,1.8,0,0,1,1,1.6Zm-.07-2.31h-1.4v-1.16h-2v-1.07h2v-1.06h-1.82v-1.1h1.81v-1.81h1.4Zm-1.95,3.09a.85.85,0,0,0,.57-.77.87.87,0,0,0-.58-.78,4,4,0,0,0-1.64-.28,3.81,3.81,0,0,0-1.6.28.86.86,0,0,0-.57.78.85.85,0,0,0,.57.77,3.78,3.78,0,0,0,1.6.27,3.83,3.83,0,0,0,1.64-.27Zm-1.42-8.6c-.11,2.78-1.69,4.64-4.74,5.6l-.74-1.13a6.4,6.4,0,0,0,2.56-1.19,3.65,3.65,0,0,0,1.36-2.11h-3.41v-1.17Zm13.22,2.14a2,2,0,0,1-1,1.72,6.25,6.25,0,0,1-5.53,0,1.94,1.94,0,0,1-.81-2.62,1.89,1.89,0,0,1,.82-.81,6.16,6.16,0,0,1,5.52,0,2,2,0,0,1,1,1.71Zm-3.11,7.87h-1.4V115.8H573v-1.13h9.66v1.13h-4.16Zm1-7a.94.94,0,0,0,.6-1.19,1,1,0,0,0-.6-.59,4.19,4.19,0,0,0-3.4,0,.94.94,0,0,0-.58,1.2.93.93,0,0,0,.58.58A4.19,4.19,0,0,0,579.52,112.37Zm-186,22.78V134h3.3v1.15Zm14.22.66a1.62,1.62,0,0,1,.86,2.12,1.64,1.64,0,0,1-.86.86,7.05,7.05,0,0,1-5.46,0,1.6,1.6,0,0,1,0-3,5.74,5.74,0,0,1,2.74-.56A5.56,5.56,0,0,1,407.76,135.81Zm2.21-1.37h-9.66v-1.11H404v-1.86h1.4v1.86H410ZM408.72,129a18.3,18.3,0,0,1-.33,3.77l-1.36-.18a10.38,10.38,0,0,0,.29-2.48h-5.9V129Zm-1.4,8.28q0-.45-.6-.69a5.05,5.05,0,0,0-1.68-.23q-2.28,0-2.28.93c0,.29.2.52.6.67a4.78,4.78,0,0,0,1.68.24,4.73,4.73,0,0,0,1.67-.24c.41-.16.61-.38.61-.68Zm9.76-1.61-.78,1.1a5.5,5.5,0,0,1-1.54-1.25,4.64,4.64,0,0,1-1-1.62,4.53,4.53,0,0,1-.93,1.76,4.94,4.94,0,0,1-1.65,1.36L410.3,136a5,5,0,0,0,2.67-4.86v-.28h-2.14v-1.12h5.68v1.12h-2.06v.27a4.71,4.71,0,0,0,2.62,4.57Zm2.16,3.64h-1.4V128.65h1.4Zm8.31-4.26c-1,.13-2.17.22-3.43.28s-2.58.1-3.54.1l-.19-1.14c1.1,0,2.06,0,2.9,0v-1.2h-1.86V129.4h5v1.12h-3.62V132h3.7v1.12h-1.82v1.15c1.12-.06,2-.13,2.71-.23Zm1.83-6.43v7.84H428v-7.84Zm.09,10.38h-7.22v-3h1.41v1.88h5.81Zm12.76.31h-1.38V128.65h1.39ZM434.44,136a4.66,4.66,0,0,1-.74-2.76,4.74,4.74,0,0,1,.74-2.77,2.47,2.47,0,0,1,3.45-.61,2.52,2.52,0,0,1,.61.61,5.58,5.58,0,0,1,0,5.52,2.5,2.5,0,0,1-4.06,0Zm3.45-2.76a4.24,4.24,0,0,0-.4-2,1.17,1.17,0,0,0-1-.72,1.13,1.13,0,0,0-1,.72,4.23,4.23,0,0,0-.39,2,4.11,4.11,0,0,0,.39,1.95,1.12,1.12,0,0,0,1,.72,1.18,1.18,0,0,0,1-.72,4.09,4.09,0,0,0,.4-1.95Zm10.3,1.47h-4.33v-5.22h1.41V131h1.51v-1.6h1.4v2h1v-2.58h1.34v7.44h-1.33v-3.72h-1Zm4.64,4.4h-7.55v-3.44h1.4V138h6.16Zm-.26-2.51h-1.33v-7.92h1.33Zm-5.79-3v-1.46h-1.51v1.46Zm15-.69h-5.57v1.17h5.93v1.1H454.8v-5.67H462v1.1h-5.82v1.2h5.57Zm1.47,4V138h-9.66v-1.1Zm5-3.68a21.43,21.43,0,0,0,4.23-.33l.15,1.08a22.71,22.71,0,0,1-4.73.38h-1v-4.89h4.76v1.12h-3.37Zm8.13-.82h-1.52v2.51h-1.41v-6.25h1.41v2.6h1.52ZM475,137.18a1.75,1.75,0,0,1-1,1.56,6.53,6.53,0,0,1-5.38,0,1.75,1.75,0,0,1,0-3.14,5.2,5.2,0,0,1,2.68-.58,5.31,5.31,0,0,1,2.71.58A1.77,1.77,0,0,1,475,137.18Zm-2,.75a.83.83,0,0,0,.58-.75.85.85,0,0,0-.58-.76,5.09,5.09,0,0,0-3.27,0,.85.85,0,0,0-.58.76.83.83,0,0,0,.58.75A5.09,5.09,0,0,0,473,137.93Zm12.47,1.28h-7.09v-3.73h7.1Zm-8.5-7.5v-1.12h5.63v1.12h-2a2.85,2.85,0,0,0,2.32,2.23c-.16.24-.4.6-.7,1.08a4.66,4.66,0,0,1-1.37-.74,3.22,3.22,0,0,1-1-1.16,3.41,3.41,0,0,1-1,1.32,4.27,4.27,0,0,1-1.52.87c-.09-.14-.22-.33-.41-.58s-.3-.43-.36-.5a3.22,3.22,0,0,0,2.5-2.52Zm8.5,3.25H484v-1.82H482.4V132H484v-3.36h1.4ZM484,138.1v-1.54h-4.28v1.54ZM478.2,130V129h3.11V130Zm14.92,5.8-.78,1a5.4,5.4,0,0,1-1.55-1.26,4.67,4.67,0,0,1-1-1.64,4.66,4.66,0,0,1-.94,1.77,4.94,4.94,0,0,1-1.65,1.36l-.87-1.05a5.11,5.11,0,0,0,2.72-4.86v-.29h-2.16v-1.15h5.7v1.15h-2.09v.28a5,5,0,0,0,2.64,4.67Zm1.91-7.19v4.12h1.52v1.16H495v5.41h-1.4V128.65Zm9.9,5h-5.06v-4.63h1.38v1.34h2.27V129h1.4Zm-1.4-1.09v-1.1h-2.27v1.09Zm5.94-.6H508v2.07h-1.43v-5.42H508v2.2h1.5Zm-1.2,7.26H501v-2.84h5.56v-.68H500.9v-1.12H508v2.84h-5.6v.67h5.9ZM519.34,138h-9.66v-1.11h2.37v-2.06h1.4v2.06h2.08v-2.06h1.4v2.06h2.41Zm-.93-3.67h-7.84v-1.12h1.48l-.2-2,1.4-.14.12,2.16h2.32l.29-2.14,1.36.2L517,133.2h1.4Zm0-3.77h-7.89v-1.12h7.89Zm10.5,8.7h-7.36v-2.87h5.63v-.74h-5.69v-1.1h7.08v2.84H523v.73h5.95Zm-.34-5.26H527.2v-5.35h1.39Zm-8.52-2.5a2.28,2.28,0,0,1,.8-1.78,3.3,3.3,0,0,1,4.07,0,2.3,2.3,0,0,1,.8,1.79,2.14,2.14,0,0,1-.8,1.72,3,3,0,0,1-2,.66,3.12,3.12,0,0,1-2-.65,2.13,2.13,0,0,1-.81-1.74Zm1.83-.95a1.21,1.21,0,0,0-.43.93,1.08,1.08,0,0,0,.41.89,1.56,1.56,0,0,0,1,.35,1.45,1.45,0,0,0,1-.36,1.14,1.14,0,0,0,.4-.88,1.28,1.28,0,0,0-.38-.94,1.45,1.45,0,0,0-1.05-.38,1.5,1.5,0,0,0-1,.39Zm14.4,5.29-.78,1A5.4,5.4,0,0,1,534,135.6a4.67,4.67,0,0,1-1-1.64,4.66,4.66,0,0,1-.94,1.77,4.94,4.94,0,0,1-1.65,1.36l-.87-1.05a5.11,5.11,0,0,0,2.72-4.86v-.29h-2.16v-1.15h5.7v1.15h-2.09v.28a4.94,4.94,0,0,0,2.63,4.67Zm1.91-7.19v4.12h1.52v1.16H538.2v5.41h-1.4V128.65Zm4.94,2V129.5h5.64v1.15h-2a3.22,3.22,0,0,0,.7,2,3.49,3.49,0,0,0,1.67,1.18l-.77,1.1a4.34,4.34,0,0,1-1.31-.85,4.16,4.16,0,0,1-1-1.32,3.64,3.64,0,0,1-1,1.48,4.13,4.13,0,0,1-1.51,1l-.83-1.1a4.05,4.05,0,0,0,1.88-1.36,3.46,3.46,0,0,0,.7-2.12v0Zm8.47,5.75h-1.4v-3.78h-1.61v-1.13h1.61v-2.84h1.4Zm.23,2.65h-7.38v-3.37h1.41V138h6Zm8-.2H558.5v-5h-.92a5,5,0,0,1-.68,2.34,1.81,1.81,0,0,1-1.63.91,1.74,1.74,0,0,1-1.32-.56,3.17,3.17,0,0,1-.77-1.4,7.49,7.49,0,0,1-.22-1.88,7.23,7.23,0,0,1,.22-1.86A3.27,3.27,0,0,1,554,130a1.78,1.78,0,0,1,1.32-.56,1.83,1.83,0,0,1,1.64.92,5,5,0,0,1,.67,2.34h.91v-3.87h1.32Zm2.13.49h-1.32V128.65H562Zm-5.9-4.18a7,7,0,0,0,0-3.75c-.16-.49-.42-.73-.76-.73s-.58.24-.75.73a7.19,7.19,0,0,0,0,3.74c.17.48.42.73.75.73s.59-.25.76-.73Zm19.16,4.1h-7.6v-2.78h5.85v-.63h-5.87v-1.12h7.29v2.77H569v.63h6.18Zm-.33-5h-1.34v-2.22h-.86v2.16h-1.31v-5.38h1.31v2.09h.87v-2.28h1.33Zm-8.82-2.68v-1.09h4.72v1.09h-1.55a2.39,2.39,0,0,0,1.77,1.68c-.06.09-.16.25-.3.49l-.35.57a3.32,3.32,0,0,1-1.07-.6,2.78,2.78,0,0,1-.78-1,3.08,3.08,0,0,1-.79,1.07,4,4,0,0,1-1.24.77l-.76-1a2.85,2.85,0,0,0,2-2Zm1-1.63v-1.09h2.78V130Zm17.63,6.43h-1.4v-7.75h1.4Zm.27,2.71h-7.4v-3.2H579V138h6Zm-2.83-5.4.13,1.07a12.84,12.84,0,0,1-2,.27c-.87.07-1.7.1-2.46.1h-1.44v-3.48h3.4v-1.15h-3.43v-1.12h4.85v3.33h-3.42V134a19.17,19.17,0,0,0,4.34-.33Zm10.49,2-.78,1.1a5.5,5.5,0,0,1-1.54-1.25,4.64,4.64,0,0,1-1-1.62,4.4,4.4,0,0,1-.93,1.76,4.94,4.94,0,0,1-1.65,1.36l-.84-1.05a5.07,5.07,0,0,0,2.68-4.86v-.28h-2.14v-1.12h5.68v1.12H590v.27a4.74,4.74,0,0,0,2.63,4.57Zm2.16,3.64h-1.4V128.65h1.4Zm13.19,0h-1.33V128.65H608Zm-2.15-.49h-1.31V134h-1.39v-1.13h1.39v-4h1.31Zm-2.42-8.94a8.25,8.25,0,0,1-3.86,7.34l-.91-1a7.11,7.11,0,0,0,2.41-2.28,6.28,6.28,0,0,0,1-3h-2.75v-1.13Zm14.4,9.43h-1.4V128.65h1.4Zm-2.21-3.48-.82,1.06a5.65,5.65,0,0,1-1.38-1.29,5.37,5.37,0,0,1-1-1.67,5.23,5.23,0,0,1-1,1.82,5.32,5.32,0,0,1-1.55,1.36l-.85-1a5.52,5.52,0,0,0,2.65-4.93v-1.63h1.45v1.56a5.3,5.3,0,0,0,2.47,4.75Zm12.2,3.43h-7.52v-2.73H626v-.63h-5.82v-1.1h2.94V134h-4.1V133h9.66V134h-4.15v.8h2.88v2.72h-5.76v.61h6.13Zm-.39-7h-7.09v-3.41h7.09Zm-1.42-1.1v-1.23h-4.26v1.23Zm12.79,3.12h-9.66v-1.12h9.66Zm-.89,5h-7.61v-2.73h5.85V136h-5.84v-1.1h7.23v2.69h-5.84v.59h6.22Zm-6.25-8.57c0,.25.21.45.62.62a6.18,6.18,0,0,0,3.41,0c.42-.17.63-.37.63-.62s-.21-.46-.62-.62a4.8,4.8,0,0,0-1.72-.23,4.72,4.72,0,0,0-1.71.23c-.4.15-.6.36-.6.61Zm-1.45,0a1.56,1.56,0,0,1,1-1.4,7.75,7.75,0,0,1,5.57,0,1.48,1.48,0,0,1,0,2.8,7.75,7.75,0,0,1-5.57,0,1.58,1.58,0,0,1-1-1.41Zm21.75,1.62h-1.52v2.54H649v-6.24h1.42v2.54h1.52Zm-8.55,3.08h7v3.92H649v-2.81h-5.63Zm5-2.22-.8,1.08a4.36,4.36,0,0,1-1.36-.84,4,4,0,0,1-1-1.31,3.59,3.59,0,0,1-1,1.51,4.22,4.22,0,0,1-1.51,1l-.82-1.12a3.85,3.85,0,0,0,1.87-1.35,3.54,3.54,0,0,0,.69-2.15v-.94h1.44V130a3.08,3.08,0,0,0,.74,2,3.76,3.76,0,0,0,1.76,1.2Zm9.06,2.65-.79,1a4.34,4.34,0,0,1-1.11-1.07,4.26,4.26,0,0,1-.75-1.41,4.65,4.65,0,0,1-.79,1.55,4.08,4.08,0,0,1-1.24,1.17l-.84-1a5.17,5.17,0,0,0,2.21-4.64V131h-1.8v-1.12h4.82V131h-1.67v.49a6.62,6.62,0,0,0,.5,2.68,3.56,3.56,0,0,0,1.47,1.69Zm1.69,3h-1.3v-5.37H656.4v-1.15h1.39v-3.48h1.31Zm2.15.49h-1.33V128.65h1.33Zm7.09-7.68h-6.2v-1.09h6.2Zm-.51,2.27a1.66,1.66,0,0,1-.72,1.4,2.91,2.91,0,0,1-1.8.55,3,3,0,0,1-1.83-.55,1.72,1.72,0,0,1-.72-1.4,1.75,1.75,0,0,1,.72-1.41,2.92,2.92,0,0,1,1.83-.56,2.86,2.86,0,0,1,1.8.57,1.75,1.75,0,0,1,.73,1.4Zm-4.1-3.86V129h3.18v1.07Zm6.86-1.42v3.46h1.49v1.16h-1.49v3.32h-1.4v-7.94Zm.25,10.44h-7.3v-2.82h1.41V138h5.89Zm-6.68-5.16a.67.67,0,0,0,.34.58,1.49,1.49,0,0,0,1.62,0,.67.67,0,0,0,.34-.58.72.72,0,0,0-.34-.61,1.49,1.49,0,0,0-1.62,0,.72.72,0,0,0-.34.61Zm19.92,3.24a1.8,1.8,0,0,1-1,1.59,5.28,5.28,0,0,1-2.7.58,5.18,5.18,0,0,1-2.68-.58,1.8,1.8,0,0,1-.75-2.42,1.78,1.78,0,0,1,.75-.76,5.2,5.2,0,0,1,2.68-.58,5.28,5.28,0,0,1,2.7.58,1.77,1.77,0,0,1,1,1.59Zm-.07-2.31h-1.4v-1.17h-2v-1.07h2v-1.06h-1.82v-1.1h1.81v-1.81H684Zm-2,3.08a.8.8,0,0,0,0-1.54,3.84,3.84,0,0,0-1.64-.28,3.64,3.64,0,0,0-1.6.28.86.86,0,0,0-.58.77.85.85,0,0,0,.57.77,3.84,3.84,0,0,0,1.6.28,4.09,4.09,0,0,0,1.66-.28Zm-1.41-8.59c-.12,2.77-1.7,4.64-4.74,5.59l-.75-1.13a6.31,6.31,0,0,0,2.57-1.19,3.62,3.62,0,0,0,1.36-2.11h-3.41v-1.17Zm13.22,2.13a1.94,1.94,0,0,1-1,1.71,6.18,6.18,0,0,1-5.53,0,1.93,1.93,0,0,1-.81-2.61,1.89,1.89,0,0,1,.82-.81,6.1,6.1,0,0,1,5.52,0,1.93,1.93,0,0,1,1,1.71Zm-3.11,7.88h-1.4V135.8h-4.1v-1.13h9.66v1.13h-4.15Zm1-7a.94.94,0,0,0,0-1.79,4.28,4.28,0,0,0-3.4,0,1,1,0,0,0,0,1.79A4.28,4.28,0,0,0,691.74,132.38Z"/><path id="패스_11580" data-name="패스 11580" class="cls-2" d="M4.72,10V3.18l-1.38.28V2.59l2.09-.93h.78V10Zm3.14.14V8.69H9.33v1.4ZM21.43,5.23H18.52v1.1h4.15V7.46H13V6.34h4.1V5.24H14.25V1h1.4V2.09H20V1h1.39Zm.12,5.8H14.29V8.09h1.4V9.91h5.86ZM20,4.13v-1H15.65v1Zm14.74,7.21h-1.4V.65h1.4ZM27,8a4.73,4.73,0,0,1-.74-2.76A4.81,4.81,0,0,1,27,2.44a2.47,2.47,0,0,1,4.06,0,4.67,4.67,0,0,1,.74,2.77A4.63,4.63,0,0,1,31,8,2.49,2.49,0,0,1,27,8Zm3.45-2.76a4.12,4.12,0,0,0-.4-2,1.16,1.16,0,0,0-1-.72,1.13,1.13,0,0,0-1,.72,4.23,4.23,0,0,0-.39,2,4.11,4.11,0,0,0,.39,2,1.14,1.14,0,0,0,1,.72,1.17,1.17,0,0,0,1-.72,4,4,0,0,0,.4-1.95Zm10.3,1.47H36.4V1.46h1.41V3h1.52V1.44h1.4v2h1V.84H43V8.28H41.69V4.56h-1Zm4.64,4.4H37.83V7.64h1.39V10h6.15Zm-.26-2.51H43.78V.65h1.33Zm-5.78-3V4.12H37.81V5.58Zm15-.69H48.73V6.06h5.93v1.1H47.34V1.49h7.21v1.1H48.73v1.2H54.3Zm1.47,4V10H46.11V8.89ZM65.85,7H56.18V5.92h9.66ZM64.66,4.72H57.48V1h1.4v2.6h5.77Zm.07,6.33H57.42V7.89h1.39v2h5.92Zm6.13-5.84a21.27,21.27,0,0,0,4.22-.33L75.24,6a22.77,22.77,0,0,1-4.73.38h-1V1.45h4.76V2.57H70.86ZM79,4.39H77.47V6.9H76.06V.65h1.41v2.6H79ZM77.6,9.18a1.75,1.75,0,0,1-1,1.56,6.53,6.53,0,0,1-5.38,0,1.75,1.75,0,0,1-1-1.56,1.77,1.77,0,0,1,1-1.59,6.66,6.66,0,0,1,5.39,0,1.78,1.78,0,0,1,1,1.59Zm-2,.75a.83.83,0,0,0,.58-.75.85.85,0,0,0-.58-.76,4,4,0,0,0-1.64-.27,3.94,3.94,0,0,0-1.63.27.85.85,0,0,0-.58.76.83.83,0,0,0,.58.75,5.09,5.09,0,0,0,3.27,0Zm12-9.28V4.76h1.54V5.92H87.55v5.42H86.16V.65ZM85.63,7.74l-.41.53-.41.51a6.64,6.64,0,0,1-1.48-1.32,4.56,4.56,0,0,1-1-1.66,5.35,5.35,0,0,1-1,1.8A5.9,5.9,0,0,1,79.8,9q-.58-.72-.87-1a5.52,5.52,0,0,0,2.66-5V1.55H83V2.94a5.61,5.61,0,0,0,.68,2.78A5.61,5.61,0,0,0,85.63,7.74ZM100.49.65V4.76H102V5.92h-1.54v5.42H99.1V.65ZM98.57,7.74l-.41.53q-.27.35-.42.51a6.59,6.59,0,0,1-1.47-1.32,4.56,4.56,0,0,1-1-1.66,5.37,5.37,0,0,1-1,1.8A5.61,5.61,0,0,1,92.73,9c-.39-.48-.68-.82-.86-1a5.56,5.56,0,0,0,2.66-5V1.55H96V2.94a5.61,5.61,0,0,0,.68,2.78A5.53,5.53,0,0,0,98.57,7.74ZM111.13,9.2a1.71,1.71,0,0,1-1,1.55,6.92,6.92,0,0,1-5.5,0,1.71,1.71,0,0,1-1-1.55,1.73,1.73,0,0,1,1-1.57,6.92,6.92,0,0,1,5.5,0A1.73,1.73,0,0,1,111.13,9.2Zm-8.54-6.64V1.4h5.63V2.56h-2a2.89,2.89,0,0,0,.74,1.8,3.64,3.64,0,0,0,1.61,1.06c-.09.15-.23.35-.41.61s-.3.43-.34.5a4.58,4.58,0,0,1-1.33-.83,3.82,3.82,0,0,1-1-1.26,3.38,3.38,0,0,1-1,1.44,4.23,4.23,0,0,1-1.51,1l-.38-.5c-.2-.26-.35-.46-.46-.59A4.09,4.09,0,0,0,104,4.51a3.19,3.19,0,0,0,.74-1.95Zm5.46,1.77V3.2h1.61V.65h1.4V7h-1.4V4.33Zm-.66,3.85a4.46,4.46,0,0,0-1.7.27c-.4.18-.61.43-.61.75s.21.57.61.74a4.27,4.27,0,0,0,1.7.26,4.34,4.34,0,0,0,1.71-.26c.4-.18.61-.42.61-.74a.83.83,0,0,0-.61-.75A4.54,4.54,0,0,0,107.39,8.18Zm11.87,2.67h-1.32v-5H117a4.92,4.92,0,0,1-.68,2.33,1.83,1.83,0,0,1-1.64.92,1.78,1.78,0,0,1-1.32-.56,3.2,3.2,0,0,1-.76-1.4,7.08,7.08,0,0,1-.22-1.89,6.86,6.86,0,0,1,.22-1.86A3.12,3.12,0,0,1,113.39,2a1.74,1.74,0,0,1,1.32-.56,1.82,1.82,0,0,1,1.64.91A5,5,0,0,1,117,4.72h.91V.85h1.32Zm2.13.49h-1.32V.65h1.32Zm-5.9-4.19a5.64,5.64,0,0,0,.26-1.87,6,6,0,0,0-.26-1.88c-.16-.48-.42-.72-.76-.72s-.58.24-.75.72a6,6,0,0,0-.25,1.88A5.94,5.94,0,0,0,114,7.15q.26.72.75.72c.34,0,.59-.24.76-.72Zm11.6-3.26a1.34,1.34,0,0,0,.42,1,1.58,1.58,0,0,0,1.12.4,1.62,1.62,0,0,0,1.13-.4,1.33,1.33,0,0,0,.42-1,1.27,1.27,0,0,0-.42-1,1.59,1.59,0,0,0-1.13-.39,1.58,1.58,0,0,0-1.11.39,1.31,1.31,0,0,0-.43,1ZM134.26.65V11.34h-1.39V.65Zm-8.6,3.25a2.36,2.36,0,0,1,.81-1.85,3.6,3.6,0,0,1,4.32,0,2.36,2.36,0,0,1,.81,1.85,2.38,2.38,0,0,1-.81,1.85,3.13,3.13,0,0,1-2.16.72,3.17,3.17,0,0,1-2.15-.72,2.38,2.38,0,0,1-.83-1.85Zm6.77,4.7c-1.06.13-2.26.24-3.62.31q-2.4.11-3.36.09l-.2-1.2q2,0,3.48-.06c1.4,0,2.59-.14,3.58-.27Zm12,2.74h-1.33V6.09h-.89v4.76h-1.31V.84h1.31V5h.89V.65h1.33Zm-4.85-6a2.1,2.1,0,0,1,.65,1.62,2.09,2.09,0,0,1-.65,1.61,2.61,2.61,0,0,1-3.38,0,2.14,2.14,0,0,1-.65-1.59,2.1,2.1,0,0,1,.65-1.62,2.68,2.68,0,0,1,3.38,0Zm-4.26-1V3.2h5.1V4.32ZM139,6.94a1.08,1.08,0,0,0-.31-.8,1.11,1.11,0,0,0-1.54,0,1.11,1.11,0,0,0-.3.8,1.15,1.15,0,0,0,.3.81,1,1,0,0,0,.77.3,1,1,0,0,0,.77-.31,1.11,1.11,0,0,0,.31-.8Zm-2.48-4.35V1.48h2.88V2.59ZM157.08.65V8.4h-1.39V5.78h-1.52V4.64h1.52V3.44h-1.52V2.29h1.52V.65Zm-3.45,6h-5V1.32H150V3h2.23V1.29h1.39Zm-1.4-1.12V4.07H150V5.54Zm5.09,5.51h-7.27V7.75h1.39V10h5.88Zm9.93-1.88a1.79,1.79,0,0,1-1,1.58,5.16,5.16,0,0,1-2.7.59,5.08,5.08,0,0,1-2.67-.59,1.79,1.79,0,0,1,0-3.17A5.17,5.17,0,0,1,163.57,7a5.26,5.26,0,0,1,2.7.58A1.78,1.78,0,0,1,167.25,9.17Zm-.08-2.32h-1.4V5.69h-2V4.62h2V3.56H164V2.46h1.81V.65h1.4Zm-1.95,3.09a.81.81,0,0,0,0-1.55,3.84,3.84,0,0,0-1.64-.28,3.79,3.79,0,0,0-1.59.28.85.85,0,0,0-.57.78.84.84,0,0,0,.57.76,3.64,3.64,0,0,0,1.6.28A4,4,0,0,0,165.22,9.94Zm-1.42-8.6c-.11,2.78-1.69,4.64-4.74,5.6l-.74-1.13a6.4,6.4,0,0,0,2.56-1.19,3.65,3.65,0,0,0,1.36-2.11h-3.41V1.34Zm13.88,9.88h-7.53V8.53h5.73v-.6h-5.8V6.83h7.23V9.49h-5.75v.6h6.12Zm-2.2-5.29c-1,.13-2.16.22-3.43.27s-2.56.11-3.53.11l-.19-1.13c1.1,0,2.08,0,2.92,0V4.25h-1.87V1h5V2.05h-3.6V3.17h3.71V4.25h-1.83v.83c1.07-.06,2-.13,2.71-.22ZM177.32.65V6.38h-1.4V.65Zm9.54,10.7h-1.42V7.55h-4.09V6.45H191v1.1h-4.15Zm3.75-6.94L190,5.55a5.89,5.89,0,0,1-2.32-.87,3.73,3.73,0,0,1-1.49-1.56,3.51,3.51,0,0,1-1.45,1.55,6.16,6.16,0,0,1-2.35.89l-.6-1.15a4.89,4.89,0,0,0,2.56-1,2.45,2.45,0,0,0,1.09-2V.87h1.49v.55a2.19,2.19,0,0,0,.57,1.44,4.09,4.09,0,0,0,1.4,1.07,5.41,5.41,0,0,0,1.71.49Zm9.69-.61a2.24,2.24,0,0,1-.82,1.8,3.06,3.06,0,0,1-2,.7,3,3,0,0,1-2-.7,2.24,2.24,0,0,1-.82-1.8A2.4,2.4,0,0,1,195.44,2a2.87,2.87,0,0,1,2-.74,3,3,0,0,1,2,.73,2.39,2.39,0,0,1,.81,1.85Zm2.94,7.56a3.32,3.32,0,0,1-1.07-.78,3.15,3.15,0,0,1-.72-1.08,3.27,3.27,0,0,1-.66,1.16,3.34,3.34,0,0,1-1.13.91l-.42-.45-.49-.51a3.61,3.61,0,0,0,1.47-1.24,3.23,3.23,0,0,0,.52-1.81V7.09h1.38v.47a2.8,2.8,0,0,0,.55,1.72,2.91,2.91,0,0,0,1.39,1.05ZM201.71.65h1.4V6.6h-1.4Zm-3.07,9.63a2.21,2.21,0,0,1-.58-.42,2,2,0,0,1-.42-.57,3.27,3.27,0,0,1-.8,1.24,3.44,3.44,0,0,1-1.22.88l-.82-1a3.62,3.62,0,0,0,1.51-1.17,2.92,2.92,0,0,0,.55-1.76V7.13h1.37v.3a2,2,0,0,0,.36,1.19,1.9,1.9,0,0,0,.91.72Zm-.13-5.47a1.38,1.38,0,0,0,.43-1,1.4,1.4,0,0,0-.4-1,1.51,1.51,0,0,0-1.09-.4,1.45,1.45,0,0,0-1.06.41,1.34,1.34,0,0,0-.41,1,1.4,1.4,0,0,0,.41,1,1.45,1.45,0,0,0,1.06.41,1.48,1.48,0,0,0,1.06-.42ZM214,6.54h-9.66V5.42H214ZM209.2,2.6a3.19,3.19,0,0,1-1.48,1.49,7,7,0,0,1-2.35.76l-.59-1.09a6.58,6.58,0,0,0,1.75-.42,3.74,3.74,0,0,0,1.38-.93A1.9,1.9,0,0,0,208.48,1V.76h1.45V1a1.93,1.93,0,0,0,.62,1.39,4,4,0,0,0,1.45,1,5.14,5.14,0,0,0,1.64.37l-.6,1.1a7.61,7.61,0,0,1-1.51-.39,5.77,5.77,0,0,1-1.42-.78,2.75,2.75,0,0,1-.91-1.09Zm3.58,8.61h-7.19V7.12H207v1h4.4V7.09h1.39Zm-1.39-1.12v-.9H207v.9ZM223.26.65V11.34h-1.38V.65Zm-2.47,6.41L221,8.18a15.84,15.84,0,0,1-2.36.36c-1,.08-1.85.12-2.6.12h-1V1.72h1.39V7.46A19.43,19.43,0,0,0,220.79,7.06ZM232.87.65v4h1.54V5.84h-1.54v5.5h-1.4V.65ZM226.32,7.7a20.69,20.69,0,0,0,4.23-.32c0,.12,0,.31.07.56s.06.44.08.56a22.13,22.13,0,0,1-4.74.36h-1V1.63h4.88V2.76h-3.49Zm8.7,2.39V8.69h1.46v1.4ZM3.51,31.9V31l1.57-1.66a16,16,0,0,0,1.55-1.83,2.52,2.52,0,0,0,.5-1.42,1.32,1.32,0,0,0-.39-1.06,1.87,1.87,0,0,0-1.19-.32,3.21,3.21,0,0,0-1.7.55L3.6,24.21a4.59,4.59,0,0,1,2.34-.63,3,3,0,0,1,2,.62,2.18,2.18,0,0,1,.7,1.74,3,3,0,0,1-.19,1A4.2,4.2,0,0,1,7.9,28c-.27.36-.5.64-.69.86s-.46.51-.8.86l-1,1h3.3V31.9Zm6.27.19v-1.4h1.47v1.4Zm6.89-4.88a21.27,21.27,0,0,0,4.22-.33L21.05,28a22.71,22.71,0,0,1-4.73.38h-1V23.45H20v1.12H16.67Zm8.12-.82H23.28V28.9H21.87V22.65h1.41v2.6h1.51Zm-1.38,4.79a1.75,1.75,0,0,1-1,1.56,5.26,5.26,0,0,1-2.7.58,5.2,5.2,0,0,1-2.68-.58,1.76,1.76,0,0,1-.78-2.37,1.81,1.81,0,0,1,.78-.77A5.2,5.2,0,0,1,19.74,29a5.31,5.31,0,0,1,2.71.58A1.75,1.75,0,0,1,23.41,31.18Zm-2,.75a.83.83,0,0,0,.58-.75.85.85,0,0,0-.58-.76,4,4,0,0,0-1.64-.27,3.9,3.9,0,0,0-1.62.27.85.85,0,0,0-.59.76.82.82,0,0,0,.59.75,3.9,3.9,0,0,0,1.62.27,4,4,0,0,0,1.64-.27Zm12.47,1.28H26.76V29.48h7.09Zm-8.5-7.5V24.59H31v1.12h-2a2.85,2.85,0,0,0,2.32,2.23c-.16.24-.4.6-.7,1.08a4.66,4.66,0,0,1-1.37-.74,3.32,3.32,0,0,1-1-1.16,3.23,3.23,0,0,1-1,1.32,4.27,4.27,0,0,1-1.52.87c-.08-.14-.22-.33-.4-.58l-.36-.5a3.25,3.25,0,0,0,2.5-2.52ZM33.85,29h-1.4V27.14H30.83V26h1.62V22.65h1.4Zm-1.4,3.14V30.56H28.17V32.1ZM26.63,24V23h3.11V24Zm14.92,5.8-.78,1a5.4,5.4,0,0,1-1.55-1.26,4.67,4.67,0,0,1-1-1.64,4.66,4.66,0,0,1-.94,1.77,4.94,4.94,0,0,1-1.65,1.36L34.75,30a5.12,5.12,0,0,0,2.71-4.86v-.29H35.3V23.74H41v1.15H38.91v.28a4.92,4.92,0,0,0,2.64,4.67Zm1.91-7.19v4.12H45v1.16H43.45v5.41h-1.4V22.65Zm9.9,5H48.3V23.06h1.38V24.4H52V23h1.4ZM52,26.6V25.5H49.68v1.09ZM57.9,26H56.4v2.07H55V22.65h1.43v2.2h1.5Zm-1.2,7.26H49.41V30.42H55v-.68H49.32V28.62h7.07v2.84H50.8v.67h5.89ZM67.77,32H58.11v-1.1h2.36V28.83h1.4v2.06H64V28.83h1.39v2.06h2.42Zm-.94-3.67H59V27.21h1.48l-.2-2,1.4-.14.12,2.16h2.33l.29-2.14,1.35.2-.33,1.93h1.4Zm0-3.77H59V23.44h7.88Zm11,4.49H68.18V27.92h9.66Zm-1.19-2.33H69.48V23h1.4v2.6h5.77Zm.07,6.34H69.42V29.89h1.39v2h5.92Zm4.65-1.15V31L83,29.38a16,16,0,0,0,1.55-1.83,2.45,2.45,0,0,0,.5-1.42,1.29,1.29,0,0,0-.39-1.06,1.87,1.87,0,0,0-1.19-.32,3.21,3.21,0,0,0-1.7.55l-.24-1.09a4.59,4.59,0,0,1,2.34-.63,3,3,0,0,1,2,.62,2.22,2.22,0,0,1,.7,1.74,3.29,3.29,0,0,1-.19,1A4.2,4.2,0,0,1,85.78,28c-.27.36-.5.64-.69.86s-.46.51-.8.86l-1,1h3.3V31.9Zm7.33.05V25.18l-1.38.28v-.87l2.09-.93h.78V32Zm11.79,1.1H93.24V29.81h1.39v2.13h5.87ZM97.21,27.5l.17,1.13A19.37,19.37,0,0,1,93,29H92V23.33h1.39v4.5a14.27,14.27,0,0,0,3.86-.32ZM98.87,25H96.22V23.87h2.65V22.65h1.4V30.4h-1.4V26.82H96.22V25.74h2.65Zm11,6.42a3.55,3.55,0,0,1-2.28.66,3.68,3.68,0,0,1-2.25-.6,2,2,0,0,1-.41-2.8l.08-.1a3.14,3.14,0,0,1,1.22-.84,2.12,2.12,0,0,1-1.46-2,1.89,1.89,0,0,1,.77-1.55,3.33,3.33,0,0,1,2-.6,3.41,3.41,0,0,1,2,.54,1.77,1.77,0,0,1,.75,1.5,2.2,2.2,0,0,1-1.5,2c1.21.41,1.82,1.1,1.82,2.08a2.07,2.07,0,0,1-.83,1.72Zm-3.5-.76a1.88,1.88,0,0,0,1.19.34,2,2,0,0,0,1.21-.33,1,1,0,0,0,.45-.87,1.23,1.23,0,0,0-.45-1,3.8,3.8,0,0,0-1.41-.62,2.75,2.75,0,0,0-1,.62,1.23,1.23,0,0,0-.41.92,1.1,1.1,0,0,0,.44.93Zm1.43-3.54c.79-.32,1.19-.78,1.19-1.35a1,1,0,0,0-.35-.78,1.49,1.49,0,0,0-1-.3,1.62,1.62,0,0,0-1,.28.9.9,0,0,0-.36.76c0,.68.51,1.14,1.54,1.4Zm12.82,6.3h-7.66V31h5.89v-.48h-5.9v-1h7.31v2.4h-5.89v.49h6.25ZM112,24.57a1.47,1.47,0,0,1,.77-1.27,3.43,3.43,0,0,1,1.9-.5,3.33,3.33,0,0,1,1.87.5,1.53,1.53,0,0,1,.75,1.29,1.46,1.46,0,0,1-.76,1.26,3.3,3.3,0,0,1-1.86.5,3.43,3.43,0,0,1-1.9-.5,1.45,1.45,0,0,1-.77-1.28Zm4.74,4.23v-.92h2.15V22.65h1.39v6.43h-1.39V28.8Zm-1.54.29h-1.4v-1.3c-1.24.05-2,.07-2.4.07l-.2-1.11c1.32,0,2.48,0,3.47-.06,1.39-.07,2.55-.16,3.47-.28l.11,1.05c-.81.11-1.83.2-3,.27ZM113.71,24a.63.63,0,0,0-.34.56.61.61,0,0,0,.34.55,2.1,2.1,0,0,0,1.81,0,.62.62,0,0,0,.35-.54.65.65,0,0,0-.35-.56,2.06,2.06,0,0,0-1.81,0ZM125.62,32V25.18l-1.38.28v-.87l2.09-.93h.78V32Zm5.2.07a5.78,5.78,0,0,1-1.37-.17,3.47,3.47,0,0,1-1-.41l.24-1.06a3.46,3.46,0,0,0,.88.33,4.56,4.56,0,0,0,1,.13,2.12,2.12,0,0,0,1.3-.34,1.26,1.26,0,0,0,.46-1c0-.81-.57-1.23-1.7-1.24l-.86,0V27.12h.76a2,2,0,0,0,1.15-.34,1,1,0,0,0,.43-.88c0-.75-.48-1.13-1.46-1.13a4.19,4.19,0,0,0-1.77.43l-.17-1.09a4.23,4.23,0,0,1,1-.37,6.58,6.58,0,0,1,1.26-.15,3,3,0,0,1,1.86.54,1.79,1.79,0,0,1,.7,1.5,1.92,1.92,0,0,1-1.48,1.92,1.9,1.9,0,0,1,1.75,2,2.19,2.19,0,0,1-.81,1.8,3.47,3.47,0,0,1-2.23.66Zm12.83,1.24h-7.37V30.39h5.63v-.74h-5.69v-1.1h7.08v2.84h-5.61v.73h5.95ZM143.31,28h-1.39V22.65h1.39Zm-8.53-2.51a2.27,2.27,0,0,1,.8-1.77,3.29,3.29,0,0,1,4.06,0,2.26,2.26,0,0,1,.8,1.79,2.14,2.14,0,0,1-.79,1.73,3,3,0,0,1-2,.66,3.13,3.13,0,0,1-2-.65A2.11,2.11,0,0,1,134.78,25.49Zm1.83-.94a1.2,1.2,0,0,0-.44.93,1.15,1.15,0,0,0,.42.89,1.69,1.69,0,0,0,2.07,0,1.18,1.18,0,0,0,.4-.88,1.24,1.24,0,0,0-.39-.94,1.57,1.57,0,0,0-2.06,0Zm13.23,8.6a7.49,7.49,0,0,1-1.6-2.18,6.37,6.37,0,0,1-.62-2.81v-.22a6.29,6.29,0,0,1,.62-2.8,7.77,7.77,0,0,1,1.6-2.18H151a8.46,8.46,0,0,0-1.44,2.25,6.43,6.43,0,0,0-.55,2.63v.33a6.64,6.64,0,0,0,.56,2.68,8.29,8.29,0,0,0,1.43,2.3Zm9.78.06h-7.19V29.26h7.19Zm0-10.14a17.57,17.57,0,0,1-.36,3.83h1.6V28H151.2V26.89h6.73a10.09,10.09,0,0,0,.21-1.34,10.49,10.49,0,0,0,.08-1.37h-5.78V23.07Zm-1.39,9V30.33h-4.4v1.79Zm2.8,1a8,8,0,0,0,1.44-2.24,6.46,6.46,0,0,0,.55-2.63v-.35a6.71,6.71,0,0,0-.56-2.68A7.8,7.8,0,0,0,161,23h1.19a7.61,7.61,0,0,1,1.58,2.19,6.3,6.3,0,0,1,.63,2.8v.21A6.38,6.38,0,0,1,163.8,31a7.43,7.43,0,0,1-1.58,2.18Zm4,.37.48-2.42h1.51l-.86,2.42Zm8.34-1.62-2.9-8.23h1.55L174.21,30h0l2.14-6.36h1.38l-2.9,8.23Zm5.29,0V23.67h1.49V31.9Zm3.17,0V23.67h2.88c1.81,0,2.71.69,2.71,2.07a1.73,1.73,0,0,1-1.34,1.8v0a1.84,1.84,0,0,1,1.7,2h0a2.15,2.15,0,0,1-.73,1.71,3.16,3.16,0,0,1-2.14.64Zm1.47-1.1h1.41c1,0,1.53-.44,1.53-1.33a1.21,1.21,0,0,0-.4-1,2,2,0,0,0-1.21-.31h-1.33Zm0-3.62h1.15c1,0,1.51-.41,1.51-1.23a1.05,1.05,0,0,0-.35-.91,1.78,1.78,0,0,0-1.1-.27h-1.21ZM189,31.91V23.67h5.14v1.16h-3.66v2.26h2.84v1.15h-2.84v2.5h3.73v1.17Zm16.29-2.09a1.62,1.62,0,0,1,0,3,5.73,5.73,0,0,1-2.73.56,5.79,5.79,0,0,1-2.74-.56,1.6,1.6,0,0,1-.86-2.11,1.58,1.58,0,0,1,.86-.86,5.67,5.67,0,0,1,2.74-.55,5.6,5.6,0,0,1,2.73.54Zm2.21-1.37h-9.66V27.33h3.66V25.47h1.4v1.86h4.6ZM206.26,23a17.69,17.69,0,0,1-.34,3.77l-1.35-.18a10.45,10.45,0,0,0,.28-2.49H199V23Zm-1.4,8.28c0-.31-.2-.54-.61-.69a4.78,4.78,0,0,0-1.68-.24q-2.28,0-2.28.93c0,.29.21.52.61.67a6,6,0,0,0,3.35,0c.4-.15.6-.38.6-.68ZM216.77,29h-1.4V22.66h1.4Zm-7.23.52h7.24v3.88h-1.41V30.58h-5.84Zm4.92-2.18-.8,1.08a4.58,4.58,0,0,1-1.36-.85,4,4,0,0,1-1-1.3,3.28,3.28,0,0,1-1,1.47,4.17,4.17,0,0,1-1.51,1l-.86-1.12a4.06,4.06,0,0,0,1.89-1.34,3.27,3.27,0,0,0,.7-2.1v-.93H212V24a3.06,3.06,0,0,0,.73,2.06,3.85,3.85,0,0,0,1.74,1.2ZM230.52,32h-9.66v-1.1H225V28.83h-3.21V27.71h1.57l-.3-2.46,1.4-.18.21,2.64h2.15l.39-2.61,1.35.22-.44,2.39h1.5v1.12h-3.21v2.06h4.15Zm-.91-7.43h-7.88V23.45h7.88Zm11,7.38h-9.66V30.83h9.66Zm-.2-4.38-.71,1.1a7,7,0,0,1-2.34-1.07,4.41,4.41,0,0,1-1.58-1.79,4.11,4.11,0,0,1-1.57,1.83,6.61,6.61,0,0,1-2.37,1.07l-.66-1.14A5.19,5.19,0,0,0,233,27a4.71,4.71,0,0,0,1.48-1.26,2.76,2.76,0,0,0,.61-1.7v-.71h1.46V24a2.58,2.58,0,0,0,.25,1.06,3.18,3.18,0,0,0,.65.93,5.43,5.43,0,0,0,.92.74,6.84,6.84,0,0,0,1,.54,4.67,4.67,0,0,0,1,.3Zm8.82-.67h-5.57v1.17h5.93v1.1h-7.32V23.49h7.21v1.1h-5.82v1.2h5.57Zm1.47,4V32H241v-1.1Zm8.94-3.13h-5.15V23.51h5.14Zm3.68,4.6-.64,1.09a6.08,6.08,0,0,1-2.16-.65,2.88,2.88,0,0,1-1.34-1.1,2.87,2.87,0,0,1-1.36,1.12,5.92,5.92,0,0,1-2.18.61L255,32.36a5.63,5.63,0,0,0,2-.47,2.45,2.45,0,0,0,1.28-1.05h-2.9V29.76h7.52v1.07h-2.85a2.53,2.53,0,0,0,1.27,1.06,5,5,0,0,0,2,.47Zm-.52-3.82h-1.4V22.65h1.4Zm-4.54-1.88V24.58h-2.37v2.08Zm2.5,2.69h-3.29V28.27h3.29Zm15,1h-1.39V22.65h1.39Zm.24,2.66h-7.42V29.63H270V32h6Zm-8.74-7a2.49,2.49,0,0,1,.8-1.9,3.34,3.34,0,0,1,4.2,0,2.53,2.53,0,0,1,.79,1.9,2.43,2.43,0,0,1-.79,1.9,3.37,3.37,0,0,1-4.2,0,2.44,2.44,0,0,1-.8-1.9Zm1.44,0a1.5,1.5,0,0,0,.4,1.07,1.58,1.58,0,0,0,2.13,0,1.45,1.45,0,0,0,.39-1.07,1.38,1.38,0,0,0-1.31-1.44h-.15a1.45,1.45,0,0,0-1.06.41,1.47,1.47,0,0,0-.4,1Zm18,5.87H277V30.83h9.66Zm-.2-4.38-.71,1.09a6.86,6.86,0,0,1-2.35-1.07,4.28,4.28,0,0,1-1.58-1.79,4,4,0,0,1-1.57,1.83,6.71,6.71,0,0,1-2.37,1.08l-.66-1.14A5.51,5.51,0,0,0,279,27a4.55,4.55,0,0,0,1.49-1.27,2.76,2.76,0,0,0,.61-1.7v-.71h1.46V24a2.43,2.43,0,0,0,.25,1.06,3.18,3.18,0,0,0,.65.93,5.43,5.43,0,0,0,.92.74,6.84,6.84,0,0,0,1,.54,4.67,4.67,0,0,0,1,.3Zm2.42,2.25a21.27,21.27,0,0,0,4.22-.33c0,.13,0,.31.08.55s.06.43.08.56a23.64,23.64,0,0,1-4.75.34h-1V23.58h4.9v1.1h-3.51v1.95h3.32v1.12h-3.32Zm6.55-7.17v4h1.49v1.15h-1.49v5.51H294V22.65Zm11.39,9.18h-9.66v-1.1h9.66Zm-1.22-8.09a34.58,34.58,0,0,1-.5,6.35L303.71,30a18.4,18.4,0,0,0,.33-2.33c.09-.92.13-1.85.13-2.78h-5.93v-1.1Zm10.74,9.47h-7.21V29.46h7.21Zm0-4.27H315V26.45h-.86v2.41h-1.33v-6h1.32v2.48H315V22.65h1.34Zm-4-.59a18.71,18.71,0,0,1-3.95.33h-.73V25.37h2.64v-1h-2.7V23.28h4.1v3.17h-2.66v1.1a14.89,14.89,0,0,0,1.64-.06,10.67,10.67,0,0,0,1.49-.2c.08.51.13.86.16,1.06Zm2.52,3.75V30.54H310.5V32.1Zm12.23.75H325.8v-3.6h-1.35V28.11h1.35V26.59h-1.09V25.45h1.09v-2.6h1.31Zm2.14.49h-1.34V22.65h1.34Zm-4.65-9.43a8.19,8.19,0,0,1-3.8,7.34l-.92-1A7.08,7.08,0,0,0,322.26,28a6.58,6.58,0,0,0,1-3h-2.69V23.91Zm14.55,7.3a1.75,1.75,0,0,1-1,1.55,7,7,0,0,1-5.51,0,1.73,1.73,0,0,1,0-3.13,6.94,6.94,0,0,1,5.51,0,1.77,1.77,0,0,1,1,1.57Zm-8.55-6.65V23.4h5.63v1.16h-2a3,3,0,0,0,.74,1.8,3.64,3.64,0,0,0,1.61,1.06c-.09.15-.23.35-.41.61l-.34.5a4.58,4.58,0,0,1-1.33-.83,3.82,3.82,0,0,1-1-1.26,3.36,3.36,0,0,1-1,1.44,4.27,4.27,0,0,1-1.52,1l-.38-.5c-.2-.26-.35-.46-.46-.59A4.09,4.09,0,0,0,332,26.51a3.26,3.26,0,0,0,.75-2Zm5.46,1.78V25.2h1.61V22.65h1.4V29h-1.4V26.33Zm-.66,3.85a4.1,4.1,0,0,0-1.7.27q-.6.27-.6.75c0,.32.2.56.6.73a5.67,5.67,0,0,0,3.41,0c.4-.18.61-.42.61-.73a.85.85,0,0,0-.61-.76,4.54,4.54,0,0,0-1.71-.27ZM350,28.28h-9.66V27.16H350Zm-.89,5h-7.62V30.57h5.85V30h-5.84v-1.1h7.23v2.69h-5.83v.59h6.21Zm-6.25-8.57c0,.25.21.46.62.62a5.94,5.94,0,0,0,3.41,0c.42-.16.63-.37.63-.62s-.2-.45-.62-.61a6.25,6.25,0,0,0-3.43,0C343,24.26,342.83,24.47,342.83,24.72Zm-1.45,0a1.56,1.56,0,0,1,1-1.4,7.86,7.86,0,0,1,5.57,0,1.48,1.48,0,0,1,0,2.8,7.65,7.65,0,0,1-5.57,0,1.56,1.56,0,0,1-1-1.4Zm20.41,2.75h-3v.69h4.16v1.12h-9.66V28.16h4.1v-.69h-2.84V23h7.18v1.1h-5.77v.6h5.41v1.05h-5.41v.59h5.87Zm-.91,2.72a1.48,1.48,0,0,1,0,2.75,7.94,7.94,0,0,1-5.6,0,1.47,1.47,0,0,1-.82-1.92,1.49,1.49,0,0,1,.82-.83,6.08,6.08,0,0,1,2.79-.51A6,6,0,0,1,360.88,30.19Zm-.52,1.38c0-.25-.2-.45-.61-.59a5.61,5.61,0,0,0-1.68-.21,5.82,5.82,0,0,0-1.66.21c-.41.14-.61.34-.61.59s.2.43.61.56a5.48,5.48,0,0,0,1.66.2,5.64,5.64,0,0,0,1.68-.2c.41-.14.61-.33.61-.57Zm12.06,1.77h-1.33V28.09h-.89v4.75h-1.31v-10h1.31V27h.89V22.65h1.33Zm-4.85-6a2.33,2.33,0,0,1,0,3.23,2.61,2.61,0,0,1-3.38,0,2.29,2.29,0,0,1,0-3.2,2.65,2.65,0,0,1,3.38,0Zm-4.26-1V25.2h5.1v1.12ZM367,28.94a1.08,1.08,0,0,0-.31-.8,1.11,1.11,0,0,0-1.54,0,1.23,1.23,0,0,0,0,1.61,1.1,1.1,0,0,0,1.54,0,1.08,1.08,0,0,0,.31-.8Zm-2.48-4.35V23.48h2.88v1.11Zm17.79,8.75h-1.42V27.45h-1.93V26.26h1.93V22.65h1.42Zm-2.36-3.43-.8,1.05a6,6,0,0,1-1.45-1.31,5.28,5.28,0,0,1-1-1.69,5,5,0,0,1-1,1.82,5,5,0,0,1-1.56,1.36l-.84-1a5.54,5.54,0,0,0,2.65-4.93V23.55h1.44v1.56a5.52,5.52,0,0,0,2.56,4.8Zm13.89-.1a1.62,1.62,0,0,1,0,3,5.73,5.73,0,0,1-2.73.56,5.79,5.79,0,0,1-2.74-.56,1.6,1.6,0,0,1-.86-2.11,1.58,1.58,0,0,1,.86-.86,5.67,5.67,0,0,1,2.74-.55,5.54,5.54,0,0,1,2.72.55ZM396,28.44h-9.66V27.33H390V25.47h1.4v1.86H396ZM394.76,23a17.69,17.69,0,0,1-.34,3.77l-1.35-.18a10.45,10.45,0,0,0,.28-2.49h-5.9V23Zm-1.4,8.28c0-.31-.2-.54-.61-.69a4.78,4.78,0,0,0-1.68-.23q-2.28,0-2.28.93c0,.29.2.52.61.67a5.93,5.93,0,0,0,3.34,0c.41-.15.61-.38.61-.68Zm9.75-1.61-.78,1.09a5.61,5.61,0,0,1-1.54-1.25,4.69,4.69,0,0,1-1-1.62,4.4,4.4,0,0,1-.93,1.76A4.73,4.73,0,0,1,397.17,31l-.84-1A5,5,0,0,0,399,25.14v-.29h-2.14V23.74h5.68v1.12h-2.07v.27a4.74,4.74,0,0,0,2.63,4.57Zm2.16,3.64h-1.4V22.65h1.4Zm10.16-.14h-7.16V29.34h1.4v.88H414v-.9h1.43Zm-1.85-4.77c-1.17.15-2.32.24-3.43.28-1.74.07-2.92.11-3.53.11l-.2-1.12c1.1,0,2.06,0,2.9-.05v-1h-1.85V23.13h5v1.11h-3.62V25.5h3.7v1.12h-1.83v1c1-.05,1.93-.11,2.71-.2Zm1.84-5.78v6.14H414V22.65ZM414,32.12v-.84h-4.32v.84Zm11.41-9.47V33.34H424V22.65Zm-2.47,6.41.18,1.12a15.84,15.84,0,0,1-2.36.36c-1,.08-1.85.12-2.6.12h-1V23.72h1.39v5.74A19.43,19.43,0,0,0,422.93,29.06ZM435,22.65v4h1.54v1.16H435v5.5h-1.4V22.65Zm-6.55,7.05a20.69,20.69,0,0,0,4.23-.32c0,.12,0,.31.07.56s.06.44.08.56a22.13,22.13,0,0,1-4.74.36h-1V23.63H432v1.13h-3.49Zm8.7,2.39v-1.4h1.47v1.4Z"/></g></g></g></g></svg>