<svg xmlns="http://www.w3.org/2000/svg" width="171.03" height="86" viewBox="0 0 171.03 86"><defs><style>.cls-1{fill:#999;}.cls-2{fill:none;}</style></defs><title>txt_sec5_article_info6</title><g id="Layer_2" data-name="Layer 2"><g id="Layer_1-2" data-name="Layer 1"><g id="_6_txt00" data-name=" 6 txt00"><path id="패스_11378" data-name="패스 11378" d="M5.32,3.06a9.38,9.38,0,0,1-.2,1.18A10.14,10.14,0,0,0,8.75,7.37L7.48,8.9A11.69,11.69,0,0,1,4.32,6.29,8.16,8.16,0,0,1,1.56,9.22L0,7.89A6.42,6.42,0,0,0,3.24,3.06H.63V1.25H8.06V3.06ZM9.31,15h-5C2.14,15,.86,14,.86,12.28S2.14,9.52,4.35,9.52h5c2.24,0,3.5,1.14,3.5,2.76S11.55,15,9.31,15Zm-5-1.8H9c1,0,1.67-.25,1.67-.92s-.62-1-1.68-1H4.72c-1.06,0-1.68.24-1.68,1C3,12.84,3.52,13.2,4.35,13.2ZM12.59,1V9.14H10.48V5.8H7.79V4h2.69V1ZM26.83,12.84v1.93H15.18V10.23h2.11v2.61Zm1.5-8v2H26.54v4.43H24.41V1h2.13V4.82ZM17.36,1h2.12a12.26,12.26,0,0,1-.35,3A11.84,11.84,0,0,0,23.05,7.7L21.79,9.28a13.12,13.12,0,0,1-3.43-3,8.77,8.77,0,0,1-2.67,3.31L14.11,8.23A8.59,8.59,0,0,0,17.36,1Zm19.15.22V8.57H29.12V1.26h2V3.19h3.34V1.25ZM31.15,6.8h3.34V4.93H31.15ZM42.57,4.05v2H40.78V9.3H38.65V1h2.13v3Zm-5,11H32.75c-2.21,0-3.49-1-3.49-2.72s1.28-2.76,3.49-2.76h4.81c2.23,0,3.5,1.14,3.5,2.76S39.79,15,37.56,15Zm-4.81-1.8h4.81c.87,0,1.33-.36,1.33-.92s-.46-1-1.33-1H32.75c-.83,0-1.3.36-1.3,1S31.92,13.2,32.75,13.2ZM45.83,1H48a11.68,11.68,0,0,1-.33,2.88,11.83,11.83,0,0,0,3.9,3.58L50.27,9.06a13.57,13.57,0,0,1-3.43-3,8.31,8.31,0,0,1-2.67,3.29L42.59,8A8.14,8.14,0,0,0,45.83,1ZM55.3,9.94V15H53.2V11.84H43.66V9.94Zm-2.11-.69V1H55.3V9.25Zm15.12-8v13H61.19v-13h2.05V5.38h3V1.25Zm4.55,7v6.59H70.73V1h2.13v5.2h1.79v2Zm-9.62,4.06h3v-5h-3Zm24.9-3v2H82.65V15H80.4V11.33H74.91v-2ZM81.53,1.25h5.94V8.47H85.34V3.2H81.53Zm-6.1,0h5.41V8.47H78.73V3.2h-3.3Zm14.25,13v-13H91.8V12.31h6.37v1.93ZM101.63,1V14.85H99.52V1Zm11.54.22v13h-5.65v-13ZM109.5,12.34h1.66V3.17H109.5ZM119.47,1V14.85h-2V8.24h-1.2v6.45h-2V1.09h2V6.31h1.2V1ZM133.93,13.2v1.57h-12V11h9.76v-.64H121.9V8.84h4.78V8.07h-5.45V6.47h13.23v1.6h-5.65v.77h5v3.74H124v.62ZM122.09,6.1l-.64-1.44a11,11,0,0,0,5.33-1.49H121.9V1.55h4.75V.5h2.26V1.55h4.88V3.17h-4.43l-.37.38a15.17,15.17,0,0,0,5.25.93L133.68,6a15.26,15.26,0,0,1-6.1-1.34,12,12,0,0,1-5.49,1.49Zm17,1.27H152.3V9.1H139.07Zm12.56-6.11V3h-4.5a6.28,6.28,0,0,1-.48.64,13.06,13.06,0,0,0,5.5,1.56l-.82,1.58a14.08,14.08,0,0,1-6-1.92A10.8,10.8,0,0,1,140.13,7l-.9-1.55A9.32,9.32,0,0,0,144.67,3h-4.93V1.25Zm.14,11.21c0,1.63-1.31,2.53-3.52,2.53h-5.12c-2.22,0-3.53-.9-3.53-2.53s1.31-2.55,3.53-2.55h5.12C150.46,9.92,151.77,10.88,151.77,12.47Zm-2.17,0c0-.53-.44-.87-1.46-.87h-4.91c-.94,0-1.45.34-1.45.87s.44.85,1.45.85h4.91c1,0,1.46-.34,1.46-.85Zm4.32-11.22h6.68V4.6a10.64,10.64,0,0,1-5.92,9.66l-1.45-1.54a8.65,8.65,0,0,0,5.25-7.84V3.18h-4.56Zm11.58,7v6.59h-2.13V1h2.13v5.2h1.79v2Zm2,7.34-.53-1c.8-.35,1-.87,1-2.05v-.8h2.33v1c0,1.78-.89,2.75-2.78,2.94ZM.49,33.2V28.32C.49,25.6,2,24.09,4.2,24.09s3.73,1.51,3.73,4.23V33.2c0,2.68-1.47,4.19-3.73,4.19S.49,35.88.49,33.2Zm2-4.88V33.2c0,1.55.63,2.27,1.68,2.27s1.68-.72,1.68-2.27V28.32C5.88,26.78,5.26,26,4.2,26S2.52,26.78,2.52,28.32Zm8,2.92H8.41v-2h2.07V24h2.11V37.85H10.48Zm16.43-7V31.5H15V24.25h2.13V26h7.63V24.25Zm.67,8.42V34.6H24.75V38H22.62V34.6H19.31V38H17.2V34.6H14.35V32.67ZM17.15,29.58h7.63v-1.7H17.15ZM41.07,24v8.19H39V24ZM37.79,38h-5c-2.21,0-3.49-1-3.49-2.72s1.28-2.76,3.49-2.76h5c2.24,0,3.5,1.14,3.5,2.76S40,38,37.79,38Zm-5-1.8h4.6c1.06,0,1.68-.25,1.68-.92s-.62-1-1.68-1H33.19c-1,0-1.68.24-1.68,1C31.52,35.84,32,36.2,32.83,36.2Zm1.06-10.14a11.39,11.39,0,0,1-.21,1.14,10.18,10.18,0,0,0,3.66,3.17L36.08,31.9a12.1,12.1,0,0,1-3.22-2.65,8.3,8.3,0,0,1-2.83,3c-.51-.45-1-.88-1.52-1.34a6.45,6.45,0,0,0,3.28-4.82H29.12V24.25h7.5v1.81ZM47,24.25h6.91V25.4c0,3.46-3,5.84-6.77,6.23l-.81-1.73c2.83-.32,5.05-1.57,5.44-3.79H47Zm11.66,8v5.5H47.26v-5.5ZM49.37,36h7.12V34H49.37Zm11-9.25v2H58.62v2.88H56.49V24h2.13v2.72Zm1.47,5.52-1.3-1.65A8.67,8.67,0,0,0,66.44,24l2.21.37A8.39,8.39,0,0,1,68,26.46a11.83,11.83,0,0,0,6,3.62l-1.15,1.71A12.77,12.77,0,0,1,67,28.3,11.1,11.1,0,0,1,61.88,32.27Zm12,3.1v2H60.67v-2h5.47v-3.8h2.24v3.8Zm13.71-5.55v1.95h-12V24.25H87.47V26.2H77.71v3.62Zm.53,5.55v2H74.91v-2h5.47V32.46h2.24v2.91ZM105.23,24V37.85h-2.11V24Zm-11.87.22h6.77v3.28a10.81,10.81,0,0,1-6,9.73l-1.46-1.54a8.85,8.85,0,0,0,5.33-8V26.19H93.36ZM113,35.32v1.92h-5.47v-13h5.17v1.94h-3v9.13ZM119.47,24V37.85h-2.11V31.26h-1.59v6.43h-2.1V24.09h2.1v5.23h1.59V24Z"/><path id="패스_11376" data-name="패스 11376" class="cls-1" d="M.49,56.59V55.48h6v1.11H4a8.84,8.84,0,0,1-.23,1.53,9.09,9.09,0,0,0,3.35,3l-.79.9a10.72,10.72,0,0,1-3-2.58A7.82,7.82,0,0,1,1,62.35l-1-.78a6.21,6.21,0,0,0,2.81-5Zm.37,9.76V62.94H2.08v2.32h8.19v1.09ZM8.8,58.06V55.25H10v8.49H8.8V59.15H6.24V58.06Zm3.39-1.47V55.48h6v1.11H15.61a21,21,0,0,1-.27,3.16,12.23,12.23,0,0,0,3.5,5.48l-.92.76a14,14,0,0,1-3-4.28,13.6,13.6,0,0,1-2.11,4.43l-1.11-.57a14.71,14.71,0,0,0,2.69-9Zm8.06-1.34h1.23v4.48h1.58v1.1H21.48v5.65H20.25Zm5.84,0h1.22a9.25,9.25,0,0,1-.3,2.33,10,10,0,0,0,3.38,3.26l-.75.93a10.57,10.57,0,0,1-3.08-2.84,7.71,7.71,0,0,1-2.33,3.17l-1-.78A7.53,7.53,0,0,0,26.09,55.25Zm7.58,10v1.09H24.26V62.81h1.22v2.45Zm-.25-10v8.49H32.2V55.25Zm11.95,10v1.09H35.71V63.06h1.22v2.2Zm-.13-9.78v4.28H35.71V55.48Zm-8.31,3.2H44V56.57H36.93Zm4.21,5.37H39.92V62H35.1v-1.1H45.85V62H41.14Z"/><path id="패스_11582" data-name="패스 11582" class="cls-1" d="M.19,84.49v-2A2.5,2.5,0,0,1,1.46,80l1.9-1.23a1.82,1.82,0,0,0,.86-1.62c0-1-.41-1.47-1.4-1.47s-1.4.49-1.4,1.47H.19a2.32,2.32,0,0,1,2-2.57,2.49,2.49,0,0,1,.61,0,2.3,2.3,0,0,1,2.62,1.93,2.66,2.66,0,0,1,0,.63,2.72,2.72,0,0,1-1.38,2.51L2.2,80.89a1.6,1.6,0,0,0-.8,1.55v1H5.45v1.08ZM10.76,82V77.24c0-1-.49-1.54-1.4-1.54S8,76.26,8,77.24V82c0,1,.49,1.52,1.4,1.52S10.76,83,10.76,82ZM12,77.12v5a2.38,2.38,0,0,1-2.23,2.5,1.77,1.77,0,0,1-.4,0,2.37,2.37,0,0,1-2.62-2.1,2.54,2.54,0,0,1,0-.39v-5A2.38,2.38,0,0,1,9,74.6a2.77,2.77,0,0,1,.41,0A2.38,2.38,0,0,1,12,76.72C12,76.85,12,77,12,77.12Zm1.27,7.37v-2A2.5,2.5,0,0,1,14.52,80l1.9-1.23a1.81,1.81,0,0,0,.87-1.62c0-1-.42-1.47-1.4-1.47s-1.4.49-1.4,1.47H13.26a2.31,2.31,0,0,1,2-2.57,2.15,2.15,0,0,1,.62,0,2.29,2.29,0,0,1,2.61,1.93,1.9,1.9,0,0,1,0,.63,2.7,2.7,0,0,1-1.38,2.51l-1.87,1.21a1.58,1.58,0,0,0-.79,1.55v1h4v1.08Zm8.74,0H20.77V75.83h-1.1v-1.1H22ZM34.07,74.25v8.49H32.85V78.63H28.92V77.54h3.93v-1H28.92V75.47h3.93V74.25Zm-2.94,5.37v1.1H24.54V74.48h1.23v5.14Zm3.19,4.64v1.09H24.91V81.81h1.22v2.45Zm7.25-8.56c-.92,0-1.4.5-1.4,1.54v1.52a2.72,2.72,0,0,1,1.77-.61,2,2,0,0,1,2.26,1.78,1.93,1.93,0,0,1,0,.48v1.72A2.37,2.37,0,0,1,42,84.64h-.4A2.38,2.38,0,0,1,39,82.53a2.71,2.71,0,0,1,0-.4v-5a2.33,2.33,0,0,1,2.63-2.51,2.18,2.18,0,0,1,2.48,1.84,2.57,2.57,0,0,1,0,.48H42.86a1.16,1.16,0,0,0-1.29-1.23ZM43,82V80.54c0-.92-.36-1.29-1.17-1.29a1.45,1.45,0,0,0-1.62,1.27.57.57,0,0,0,0,.13V82c0,1,.48,1.52,1.4,1.52S43,83,43,82Zm2.3-2.83V78.11h7.48v1.07H48.88v1.48H47.66V79.18ZM46.13,82V81H55.3v2.76H47.36v.67h8.19v1.08H46.13v-2.8h7.94V82ZM48,74.25H49.8c1.47,0,2.33.66,2.33,1.7s-.86,1.72-2.33,1.72H48c-1.47,0-2.33-.68-2.33-1.72S46.5,74.25,48,74.25Zm1.83,1.06H48c-.73,0-1.1.28-1.1.64s.38.64,1.1.64H49.8c.73,0,1.1-.27,1.1-.64S50.53,75.31,49.8,75.31Zm1.39,5.28V79.53h2.89V74.25H55.3v6.34Z"/></g><rect class="cls-2" x="0.03" width="171" height="86"/></g></g></svg>