<svg xmlns="http://www.w3.org/2000/svg" width="393.4" height="63.16" viewBox="0 0 393.4 63.16">
  <path id="_8_tit" data-name="8_tit" d="M-196.56-4.76v9.8h24.36v-9.8Zm9.3-8.68.588-1.4h6.636v-5.32h-5.04v-1.96h-6.44v1.96h-5.04v5.32h3.3l-3.864,8.96h6.58l2.38-5.488,2.1,5.488h6.58l-2.884-7.56Zm15.064-2.94v-4.9h-6.44v15.4h6.44V-10.5h2.24v-5.88ZM-190.4-.7h12.04V.98H-190.4Zm21.868-6.02c0,7.924,2.3,11.2,8.26,11.2,4.172,0,6.552-1.624,7.616-5.32h3.136V4.2h6.44V-21.28h-6.44v4.2h-3.78c-1.26-2.52-3.5-3.64-6.972-3.64-5.964,0-8.26,3.276-8.26,11.2Zm10.36-.28c0,5.1-.56,6.16-2.1,6.16s-2.1-1.064-2.1-6.16V-9.24c0-5.1.56-6.16,2.1-6.16s2.1,1.064,2.1,6.16Zm6.16-2.52c0-.672-.028-1.344-.056-1.96h2.548v5.04h-2.492V-9.52Zm11.452,5.6V5.04h24.36V-.28h-17.92V-3.92Zm8.26-11.2c-5.936,0-8.54,1.652-8.54,5.04,0,3.444,2.6,5.04,8.54,5.04s8.54-1.6,8.54-5.04C-123.76-13.468-126.364-15.12-132.3-15.12Zm16.1.14v-6.3h-6.44V-2.8h6.44V-9.1h2.24v-5.88Zm-12.88-5.18v-1.96h-6.44v1.96h-5.04v4.48h16.52v-4.48Zm-3.22,9.24c2.324,0,2.94.168,2.94.84s-.616.84-2.94.84-2.94-.168-2.94-.84S-134.624-10.92-132.3-10.92Zm28.42-9.8V-5.04H-79.8V-20.72ZM-95.06-1.4h-9.66V4.2h25.76V-1.4h-9.66V-3.92h-6.44Zm-2.38-13.72h11.2v4.48h-11.2Zm28,.7v-2.1H-51.8v-4.2H-75.88v10.5H-51.8v-4.2Zm0,14.84V-3.5h-6.44V4.76H-51.8V.42ZM-76.72-9.1v4.48h25.76V-9.1Zm60.76-11.62h-6.16V-18.4H-33.88V-20.72h-6.16V-9.8h24.08ZM-40.88-8.4v4.34h10.5V-1.4h6.44V-4.06h8.82V-8.4ZM-33.6.42V-2.94h-6.44v7.7h24.08V.42ZM-33.88-14.9h11.76v1.6H-33.88ZM-5.04,1.2V.5H12.04v-7.56H-12.04V-3.5H5.04v.728H-12.04V4.76H12.04V1.2Zm-7-21.924v8.008H12.04v-3.416H-5.6V-17.3H12.04V-20.72Zm-.84,8.848V-7.9H12.88v-3.976ZM35.28-21.28H30.52v9.38H29.092c.028-1.12.028-2.3.028-3.5v-5.04h-6.3v5.6h1.54c0,3.444-.112,6.468-.336,9.52A85.3,85.3,0,0,1,22.68,4.2h4.76a83,83,0,0,0,1.372-9.8,6.4,6.4,0,0,1,.056-.7H30.52V4.2h4.76ZM20.3,4.2a83,83,0,0,0,1.372-9.8c.224-3.136.308-6.3.308-9.8v-5.04H14.56v5.6h2.66c0,3.444-.112,6.468-.336,9.52A85.3,85.3,0,0,1,15.54,4.2ZM40.88-21.28H36.12V4.2h4.76ZM67.06-19.6v-2.52H60.62v2.52H51.8V-14h6.16L51.24-5.6h7.7l4.732-5.74L68.628-5.6H76.44l-5.712-6.72H64.484L65.856-14H75.88v-5.6ZM50.96-4.48v5.6h9.66V5.04h6.44V1.12h9.66v-5.6Zm53.48-16.8H98v5.04H95.48v-3.92H90.44v-1.96H84v1.96H78.96v5.32h3.3L78.4-5.88h6.58l2.38-5.488,2.1,5.488h6.58l-2.884-7.56h-4.9l.588-1.4H95.2v4.2H98v4.76h6.44ZM78.96-4.76v9.8h25.48v-9.8ZM85.12-.7H98.28V.98H85.12ZM114.8,1.2V.5h17.08v-7.56H107.8V-3.5h17.08v.728H107.8V4.76h24.08V1.2ZM132.16-17c0-2.632-2.492-4.424-12.32-4.424S107.52-19.628,107.52-17s2.492,4.424,12.32,4.424S132.16-14.364,132.16-17Zm-25.2,5.124V-7.9h25.76v-3.976ZM126-17c0,.532-.308.868-6.16.868s-6.16-.336-6.16-.868.308-.868,6.16-.868S126-17.528,126-17Zm32.9,7.952v-.84h8.82v-3.164H150.08v-.812h17.36v-2.884h-23.8v6.86h8.82v.84H142.8v3.976h25.76V-9.044ZM168,.532c0-2.828-2.492-4.788-12.32-4.788S143.36-2.3,143.36.532s2.492,4.788,12.32,4.788S168,3.36,168,.532Zm-.28-18.088V-20.72H143.64v3.164ZM161.84.532c0,.56-.476.868-6.16.868s-6.16-.308-6.16-.868.476-.868,6.16-.868S161.84-.028,161.84.532ZM196.28-21.28H191.1v9.38h-1.4v-9.38h-5.18V4.2h5.18V-6.3h1.4V4.2h5.18ZM176.96,4.48c4.508,0,6.44-3,6.44-8.4V-5.88c0-5.4-1.932-8.4-6.44-8.4s-6.44,3-6.44,8.4v1.96C170.52,1.484,172.452,4.48,176.96,4.48Zm2.94-24.36v-2.24h-5.88v2.24h-3.5v5.04H183.4v-5.04ZM176.96-.84c-.98,0-1.4-.672-1.4-3.36V-5.6c0-2.688.42-3.36,1.4-3.36s1.4.672,1.4,3.36v1.4C178.36-1.512,177.94-.84,176.96-.84ZM-154.462,19.34h-3.22l.7-3.78h-5.684l-.7,3.78h-3.584l.7-3.78h-5.684l-.7,3.78H-176.3l-1.008,5.488h3.668l-1.064,5.824h-3.668l-1.008,5.488h3.668l-.7,3.78h5.684l.7-3.78h3.584l-.7,3.78h5.684l.7-3.78h3.22l1.008-5.488h-3.22l1.064-5.824h3.22Zm-13.5,5.488h3.584l-1.064,5.824h-3.584ZM-127.3,14.72h-5.18V24.1h-1.4V14.72h-5.18V40.2h5.18V29.7h1.4V40.2h5.18ZM-147.182,33.7V15.56h-5.88V40.2l12.88-1.96v-5.6ZM-117.5,21.02V19.48h17.64v-4.2h-24.08v9.94h8.82v1.12h-9.66v4.48h25.76V26.34h-9.66V25.22h8.82v-4.2Zm0,15.4V31.94h-6.44v8.82h24.08V36.42Zm46.2-21.7h-5.18V24.1h-1.4V14.72h-5.18V40.2h5.18V29.7h1.4V40.2h5.18ZM-91.182,33.7V15.56h-5.88V40.2l12.88-1.96v-5.6Zm23.24-2.324v9.38h24.08V36.616H-61.5V35.58h17.64v-4.2ZM-61.5,20.6V19.34h17.64V15.28h-24.08v9.38h24.08V20.6Zm-7.28,5.18v4.48h25.76V25.78Zm42.84,11.62v-.84h18.48V28.72h-25.48v3.64h18.48v.84h-18.48v7.84h25.48V37.4Zm7.476-14.56V19.62h2.044V15.56h-16.52v4.06H-30.9v4.06l-2.044.14v4.06l16.52-1.12V22.7Zm11-8.12H-13.9V27.88h6.44Zm-18.564,4.9h2.688v3.556l-2.688.168ZM7.91,22.252,12.726,30.4h7.812l-6.272-9.8H8.918l3.36-5.6H4.858l-9.52,15.4h7.7ZM-4.942,31.52v5.6h9.66v3.92h6.44V37.12h9.66v-5.6Zm27.72,0v9.52h25.76V31.52Zm0-10.78V30.4l12.04-.84v-4.2l-6.16.448V24.66h5.88V20.74Zm19.6-6.02h-5.04v5.32h-1.96v5.04h1.96V30.4h5.04Zm6.16,0H43.5V30.4h5.04Zm-25.76.84v4.2h12.04v-4.2Zm6.16,20.02h13.44v1.4H28.938ZM58.9,37.2v-.7h17.08v-7.56H51.9V32.5h17.08v.728H51.9V40.76h24.08V37.2ZM76.258,19c0-2.632-2.492-4.424-12.32-4.424S51.618,16.372,51.618,19s2.492,4.424,12.32,4.424S76.258,21.636,76.258,19Zm-25.2,5.124V28.1h25.76V24.128ZM70.1,19c0,.532-.308.868-6.16.868s-6.16-.336-6.16-.868.308-.868,6.16-.868S70.1,18.472,70.1,19Zm24.08,7.2V20.88h17.64v-5.6H87.738V31.8h24.08V26.2ZM86.9,34.6v5.6h25.76V34.6Zm34.44-.784v-3.7h9.52V15.56H114.9v5.6h9.52v3.36H114.9V40.2l16.24-1.96v-5.6Zm19.04-19.1h-6.44v4.2h-1.96v5.6h1.96v5.04h-1.96v5.6h1.96V40.2h6.44Zm27.72,8.12c0-5.264-3.808-8.12-12.32-8.12s-12.32,2.856-12.32,8.12,3.808,8.12,12.32,8.12S168.1,28.1,168.1,22.84Zm-9.94,11.76H153.4V31.8h-6.44v2.8H142.9v5.6h25.76V34.6H164.6V31.8h-6.44Zm3.78-11.76c0,1.96-1.288,2.8-6.16,2.8s-6.16-.84-6.16-2.8,1.288-2.8,6.16-2.8S161.938,20.88,161.938,22.84Zm16.044,10.192V15.56h-6.244V33.032Zm0,6.888V34.432h-6.244V39.92Z" transform="translate(197.12 22.12)"/>
</svg>
