<svg xmlns="http://www.w3.org/2000/svg" width="520" height="118" viewBox="0 0 520 118"><defs><style>.cls-1{fill:#111;}.cls-2{fill:#ff006b;}.cls-3{fill:none;}</style></defs><title>txt_sec6_title_w460</title><g id="Layer_2" data-name="Layer 2"><g id="Layer_1-2" data-name="Layer 1"><g id="_7_tit" data-name=" 7 tit"><path id="패스_11208" data-name="패스 11208" d="M239.34,15.16V12.24h-6.58V9.3h5.88V6.56h-5.88V3.9H239V1h-9.52V15.16ZM254.08,1H250.3L247,11H247L243.68,1h-3.84l5.36,14.16h3.42Zm11,14.16V12.24h-6.58V9.3h5.88V6.56h-5.88V3.9h6.22V1h-9.52V15.16Zm15.14,0V1h-3.32l.08,9.24H277L271.28,1h-3.9V15.16h3.32l-.08-9.26h.06l5.7,9.26Zm13-11.24V1H281.82V3.92h4V15.16h3.42V3.92Z"/><path id="패스_11207" data-name="패스 11207" class="cls-1" d="M207.63,63.4c0-3.6-3-6.22-15-6.22s-15,2.61-15,6.22,3,6.22,15,6.22S207.63,67,207.63,63.4ZM198.76,44l-.65,5.44h7.82L207.29,38H178.05v6Zm-5.58,6.8V46.33h-7.82v4.42H177v5.44h31.28V50.75Zm7,12.65c0,.75-.75,1.19-7.48,1.19s-7.48-.44-7.48-1.19.75-1.19,7.48-1.19S200.15,62.65,200.15,63.4Zm10.88-6v11.9h29.58V57.38Zm18-1.36c1.73-4.79,2-9.83,2-14.62V38.34H211v6.8H223.2a42.41,42.41,0,0,1-2,10.88Zm11.56-12.75v-6h-7.82V56h7.82V50.41h2.72V43.27Zm-22.1,19h14.62v2H218.51Zm57.46-25h-6.29V44H268V37.32h-6.29V57H268V50.41h1.7V57H276ZM252.51,44.8c-5.71,0-8.16,2.21-8.16,6.12S246.8,57,252.51,57s8.16-2.21,8.16-6.12S258.22,44.8,252.51,44.8ZM265.6,64.62l3,4.66h8.74l-5.61-8.84h-3.47l1.5-2.38h-8.23l-7.07,11.22h8.23Zm-9.52-25.94V36.3h-7.14v2.38h-4.25v5.44h15.64V38.68Zm3.74,19.38h-8.43l-7,11.22h8.4Zm-7.31-8.33c1.9,0,2.72.27,2.72,1.19s-.82,1.19-2.72,1.19-2.72-.27-2.72-1.19S250.61,49.73,252.51,49.73ZM279,38.34V68.26l20.06-2.38v-6.8l-12.24,1.46V45.14h12.24v-6.8Zm29.58,10v-11h-7.82V68.26h7.82V55.85h2.72V48.37Zm4.42-10v18l20.06-1.7V53.3h3.06v5.78H344V37.32h-7.82V40h-3.06v-1.7Zm0,19.38V69.28H344V62.82H320.85v-5.1Zm7.31-12.92h5.44v4.05l-5.44.44Zm12.75.68h3.06v2.38h-3.06Z"/><path id="패스_11206" data-name="패스 11206" class="cls-2" d="M39,90.93H35.13L36,86.34h-6.9l-.85,4.59H23.88l.85-4.59h-6.9L17,90.93H12.52L11.3,97.59h4.45l-1.29,7.08H10l-1.23,6.66h4.45l-.85,4.59h6.9l.85-4.59h4.36l-.85,4.59h6.9l.85-4.59H35.3l1.22-6.66H32.61l1.29-7.08h3.91ZM22.65,97.59H27l-1.29,7.08H21.36ZM72,85.32H65.73V96.71H64V85.32H57.74v30.94H64V103.51h1.7v12.75H72ZM47.88,108.37v-22H40.74v29.92l15.64-2.38v-6.8Zm36-15.4V91.1h21.42V86H76.1V98.07H86.81v1.36H75.08v5.44h31.28V99.43H94.63V98.07h10.71V93Zm0,18.7v-5.44H76.1v10.71h29.24v-5.27ZM140,85.32h-6.29V96.71H132V85.32h-6.29v30.94H132V103.51h1.7v12.75H140Zm-24.14,23.05v-22h-7.14v29.92l15.64-2.38v-6.8Zm28.22-2.82v11.39h29.24v-5H151.92v-1.26h21.42v-5.1Zm7.82-13.09V90.93h21.42V86H144.1V97.39h29.24V92.46Zm-8.84,6.29v5.44h31.28V98.75Zm51.68,14.11v-1h22.78v-9.52H186.26v4.42H209v1H186.26v9.52h31.28v-4.42Zm.65-18.7L196,92.8h6V87h-4.25V84.3h-7.14V87h-4.25V92.8h3l-3.64,8.5h6.9l1.9-4.62,1.4,4.62h6.8l-2.48-7.14Zm22.13-8.84h-6.29v5.1h-1.7v-5.1h-6.29v16h6.29V96.2h1.7v5.1h6.29Zm3.06,1v5.1h12.24v1.19H220.6v11.73l20.74-1v-5.1l-12.92.65v-1.5h12.24v-11Zm0,19.38v11.56h30.94v-6.46H228.42v-5.1Zm30.94-20.4h-7.82v21.76h7.82Zm15,12.24,1.12-4.42h7v-6.8H254.6v6.8h5.1l-5.78,23.12h8l2.89-11.59,2.55,11.59h8l-4.08-18.7Zm19-12.24h-7.82v30.94h7.82Z"/><path id="패스_11205" data-name="패스 11205" class="cls-1" d="M312.56,85.32h-6.12V96.71h-2.11C303.92,89,301.51,86,296.58,86c-5.44,0-7.82,3.6-7.82,13.26v4.08c0,9.66,2.38,13.26,7.82,13.26s7.78-3.57,7.82-13.09h2v12.75h6.12Zm7.48,0h-6.12v30.94H320Zm-21.76,17.34c0,6-.34,7.48-1.7,7.48s-1.7-1.43-1.7-7.48V99.94c0-6,.34-7.48,1.7-7.48s1.7,1.43,1.7,7.48Zm34.34,2.72v11.9H362.2v-11.9Zm11.29-10.54.71-1.7h8.06V86.68h-6.12V84.3h-7.82v2.38h-6.12v6.46h4L331.94,104h8l2.89-6.66,2.55,6.66h8l-3.5-9.18Zm18.29-3.57v-6h-7.82V104h7.82V98.41h2.72V91.27Zm-22.1,19h14.62v2H340.1ZM366.65,103c0,9.62,2.79,13.6,10,13.6,5.07,0,8-2,9.25-6.46h3.81v6.12h7.82V85.32h-7.82v5.1h-4.59c-1.53-3.06-4.25-4.42-8.47-4.42-7.24,0-10,4-10,13.6Zm12.58-.34c0,6.19-.68,7.48-2.55,7.48s-2.55-1.29-2.55-7.48V99.94c0-6.19.68-7.48,2.55-7.48s2.55,1.29,2.55,7.48Zm7.48-3.06c0-.82,0-1.63-.07-2.38h3.1v6.12h-3Zm34,5.61c0-6.9-3-11.39-10-11.39s-10,4.49-10,11.39,3,11.39,10,11.39S420.68,112.11,420.68,105.21Zm9.52-8.84V85.32h-7.82v30.94h7.82V103.85h2.72V96.37ZM414.56,87V84.3h-7.82V87h-6.12v6.12h20.06V87Zm-1.36,18.19c0,3.6-.75,4.93-2.55,4.93s-2.55-1.33-2.55-4.93.75-4.93,2.55-4.93S413.2,101.61,413.2,105.21Zm29.24-.31,1.36,11.36h6.8L447.67,94.5h-3.46l1.46-8.5H439l-5.37,30.26h6.9Zm15.64-19.58H452V95h-2.72v6.8H452v14.45h6.12Zm7.48,0h-6.12v30.94h6.12Zm33.66,9.86c0-6.39-4.63-9.86-15-9.86s-15,3.47-15,9.86,4.62,9.86,15,9.86S499.22,101.57,499.22,95.18Zm-12.07,14.28h-5.78v-3.4h-7.82v3.4h-4.93v6.8H499.9v-6.8H495v-3.4h-7.82Zm4.59-14.28c0,2.38-1.57,3.4-7.48,3.4s-7.48-1-7.48-3.4,1.56-3.4,7.48-3.4S491.74,92.8,491.74,95.18Zm19.48,12.38V86.34h-7.58v21.22Zm0,8.36v-6.66h-7.58v6.66Z"/></g><rect class="cls-3" width="520" height="118"/></g></g></svg>