<svg xmlns="http://www.w3.org/2000/svg" width="210" height="61" viewBox="0 0 210 61"><defs><style>.cls-1{fill:#666;}.cls-2{fill:none;}</style></defs><title>txt_sec8_reward_info3_w210</title><g id="Layer_2" data-name="Layer 2"><g id="Layer_1-2" data-name="Layer 1"><g id="_8_txt03" data-name=" 8 txt03"><path id="패스_11429" data-name="패스 11429" class="cls-1" d="M37.57,7.54l-.74-.91a7.5,7.5,0,0,0,5-5.63L43,1.23a6.68,6.68,0,0,1-.49,1.65,9.92,9.92,0,0,0,5,3.27l-.63,1A11.2,11.2,0,0,1,42,4,9.08,9.08,0,0,1,37.57,7.54Zm10,3.09v1.11H36.83V10.63H41.6V7.06h1.22v3.57Zm1-4.51H59.28V7.21H48.53Zm7.34-.84H52C50,5.28,49,4.54,49,3.13S50,1,52,1h3.92c2,0,2.93.84,2.93,2.13S57.83,5.28,55.87,5.28ZM52,4.2h3.92c1.22,0,1.65-.46,1.65-1.07s-.43-1.06-1.65-1.06H52c-1.09,0-1.65.45-1.65,1.06S50.73,4.2,52,4.2Zm6.72,4v3.9H49.14V8.2ZM50.37,11h7.08V9.28H50.37ZM70.26,1V12.23H69V1ZM61.82,4.67V8.33c0,1.7.61,2.43,1.78,2.43s1.77-.73,1.77-2.43V4.67c0-1.72-.61-2.45-1.77-2.45S61.82,3,61.82,4.67ZM60.6,8.33V4.67c0-2.4,1.22-3.55,3-3.55s3,1.15,3,3.55V8.33c0,2.37-1.22,3.52-3,3.52S60.6,10.7,60.6,8.33ZM85,1V7.32H83.79V1ZM76,12.1l-.91-.82A5,5,0,0,0,78,7.5l1.15.17A4.83,4.83,0,0,1,78.84,9a6.11,6.11,0,0,0,1.67,1.69A4.9,4.9,0,0,0,82.28,7.5l1.17.17a4.21,4.21,0,0,1-.34,1.44,10.1,10.1,0,0,0,2.69,2l-.7,1a13.33,13.33,0,0,1-2.52-1.9,6.76,6.76,0,0,1-2,2,8.54,8.54,0,0,1-2.31-2.05,6.3,6.3,0,0,1-2.23,2Zm.44-8.23a1.7,1.7,0,0,0,1.63,1.77h.14A1.7,1.7,0,0,0,80,4V3.87a1.7,1.7,0,0,0-1.63-1.78h-.15a1.69,1.69,0,0,0-1.76,1.63.38.38,0,0,0,0,.15Zm-1.22,0A2.86,2.86,0,0,1,78.05,1h.17a2.86,2.86,0,0,1,3,2.69v.18a2.86,2.86,0,0,1-2.83,2.87h-.17a2.84,2.84,0,0,1-3-2.7.85.85,0,0,1,0-.16Zm12.92,0a1.7,1.7,0,0,0,1.61,1.77h.11A1.69,1.69,0,0,0,91.57,4v-.1A1.69,1.69,0,0,0,90,2.09h-.11a1.7,1.7,0,0,0-1.72,1.67.45.45,0,0,0,0,.11Zm-1.22,0A2.82,2.82,0,0,1,89.71,1h.16A2.83,2.83,0,0,1,92.8,3.71v.16A2.82,2.82,0,0,1,90,6.73h-.14A2.81,2.81,0,0,1,86.94,4a.43.43,0,0,1,0-.16Zm.78,8.23-.91-.82A5,5,0,0,0,89.72,7.5l1.15.17A4.83,4.83,0,0,1,90.54,9a6.11,6.11,0,0,0,1.67,1.69A4.9,4.9,0,0,0,94,7.5l1.17.17a4.21,4.21,0,0,1-.34,1.44,10.1,10.1,0,0,0,2.69,2l-.7,1a13.33,13.33,0,0,1-2.52-1.9,6.76,6.76,0,0,1-2,2A8.54,8.54,0,0,1,90,10.1a6.3,6.3,0,0,1-2.23,2ZM95.49,1h1.22V7.32H95.49V4.42h-2.2V3.31h2.2Zm2.9,5.62h10.75v1.1H98.39ZM108.66,11V12.1H99V8.7h1.22V11ZM99,5.12v-4h1.22V4.06h8.44V5.12Zm16.07,5.51v1.11h-4.49V1.24h4.18v1.1h-3v8.29Zm2.42-9.58v11h-1.23V6.73h-2.62V5.64h2.62V1.05Zm2.62,11.18h-1.22V1h1.22Zm6.2-8.36a1.69,1.69,0,0,0,1.6,1.77H128A1.68,1.68,0,0,0,129.73,4V3.87a1.7,1.7,0,0,0-1.6-1.78H128a1.69,1.69,0,0,0-1.72,1.66v.12Zm-1.22,0A2.82,2.82,0,0,1,127.87,1H128A2.82,2.82,0,0,1,131,3.72v.15a2.81,2.81,0,0,1-2.77,2.86H128A2.82,2.82,0,0,1,125.09,4V3.87Zm7.19,3.67,1.14.12A5,5,0,0,1,133.18,9a7.55,7.55,0,0,0,2.48,2.15l-.75.92a9.46,9.46,0,0,1-2.24-1.94,5.6,5.6,0,0,1-1.91,2l-.53-.48v.48H125.7V7.59H127V8.75h2V7.59h1.22v3.46a4.56,4.56,0,0,0,2.06-3.51ZM129,9.79h-2.08v1.26H129ZM133.64,1h1.23V7.07h-1.23V4.42h-2.2V3.31h2.2Zm3.48,4.09-.58-1c2.29-.28,4.25-1.15,4.93-3.09l1.26.18a5.4,5.4,0,0,1-.36.77,9.93,9.93,0,0,0,4.92,2l-.5,1a11.23,11.23,0,0,1-5.09-2A7.25,7.25,0,0,1,137.12,5.09Zm9.56,2.5V12.1h-9.53V7.59h1.23V8.7h7.08V7.59ZM138.38,11h7.08V9.77h-7.08Zm-1.84-5.25h10.75V6.86H136.54ZM158.27,1V12.23H157V1Zm-9.53,10.74V1.24H150v9.4h5.86v1.1Zm18.54,0h-6.84V1.24h6.11v1.1h-4.89v8.29h5.62Zm2.44-5.16v5.65H168.5V1h1.22V5.48h1.58v1.1Zm3.65,5H171.9V10.16h1.47Z"/><path id="패스_11347" data-name="패스 11347" d="M36.81,33.34l-2.08-2.7a10.28,10.28,0,0,0,7-8l3.66.56A11.74,11.74,0,0,1,44.53,26a14.21,14.21,0,0,0,7.12,4l-1.92,2.8a14.86,14.86,0,0,1-7-3.9A13.81,13.81,0,0,1,36.81,33.34Zm14.64,3v3.18H34.91V36.34h6.36v-4H45v4Zm2,3V23h3.42V36.16h6.92v3.18ZM68.71,22.82V40.1H65.29V22.82ZM71.47,35.7V31.94a3.57,3.57,0,0,1,3.27-3.85,2.68,2.68,0,0,1,.49,0A3.55,3.55,0,0,1,78.55,30h1.26V22.9h3.1v17h-3.1V33.12H79V35.7a3.58,3.58,0,0,1-3.29,3.82h-.47a3.56,3.56,0,0,1-3.76-3.35A3.69,3.69,0,0,1,71.47,35.7Zm3.1-3.76V35.7a.69.69,0,0,0,.59.77h.07c.38,0,.66-.28.66-.78V31.94c0-.52-.28-.8-.66-.8S74.57,31.42,74.57,31.94Zm9,8.16V22.82h3.16V40.1ZM71.11,27.44V24.32h2.4V22.24h3.28v2.08h2.36v3.12Zm34.34,8.9v3.18H88.91V36.34ZM104.89,30v3.2H89.67V23h15v3.2H93.09V30Zm4.34-7.14h3.2a23.56,23.56,0,0,1-.22,3.46,10.89,10.89,0,0,0,3.48,4.3l-2.1,2a10.38,10.38,0,0,1-2.4-2.46,9.3,9.3,0,0,1-2.06,3l-2.6-1.56C108.67,29.5,109.23,26.5,109.23,22.82Zm13.48,10.7h-3.18V22.82h3.18Zm-6,1.22a13.52,13.52,0,0,0,6.5,2.6l-1.44,2.76a16,16,0,0,1-6.82-3,11.18,11.18,0,0,1-6,3.06L107,37.48c3.3-.42,6-2.24,6.94-4.72l3.2.92A6.66,6.66,0,0,1,116.69,34.74Zm-1-11.84h3.08v10h-3.08V28.2h-2v-3h2Zm17.56,3.68v9.76c0,.94.34,1.12,1.46,1.12v3.2c-3.58,0-4.88-.94-4.88-4.12V26.38c0-3.2,1.3-4.14,4.88-4.14v3.2C133.59,25.44,133.25,25.64,133.25,26.58Zm7,12.2h-3.42V26.58h-1.3v-3.2h4.72ZM148,34.94v-7.7c0-.58-.42-.86-1-.86s-1,.28-1,.86v7.7c0,.56.42.84,1,.84S148,35.5,148,34.94Zm3.44-7.9v8.08c0,2.34-1.52,3.84-4.42,3.84s-4.42-1.5-4.42-3.84V27c0-2.34,1.5-3.86,4.42-3.86S151.45,24.7,151.45,27Zm12.76,13.24H158c-2.72,0-4.5-1.5-4.5-3.64S155.27,33,158,33h6.22c2.72,0,4.5,1.5,4.5,3.68S166.93,40.28,164.21,40.28ZM162.33,23v8.84h-9V23Zm.56,8V28h2.22v-1h-2.22v-3h2.22v-1.1h3.42v9.8h-3.42V31ZM158,37.46h6.22c.64,0,1-.36,1-.82a.9.9,0,0,0-.93-.87H158c-.66,0-1,.38-1,.86S157.33,37.46,158,37.46Zm-1.5-8.34h2.64v-3.4h-2.64Zm15.36,7.22V26.58c0-.94-.34-1.14-1.48-1.14v-3.2c3.58,0,4.9.94,4.9,4.14V36.54c0,3.18-1.32,4.12-4.9,4.12v-3.2C171.51,37.46,171.85,37.28,171.85,36.34Z"/><path id="패스_11345" data-name="패스 11345" class="cls-1" d="M52.16,60.05l-2.39-9.6h1.75l1.64,7.11h0l2-7.11h1.4l1.93,7.11h0l1.66-7.11h1.55l-2.35,9.6H57.68l-1.88-7h0l-1.9,7Zm10.73,0v-9.6h1.72v4H68.7v-4h1.72v9.6H68.7V55.76H64.61v4.29ZM72,56.84V55.5h3.85v1.34Zm6.28,3.26V52.2l-1.61.32v-1l2.44-1.09H80V60.1Zm7.24.11a3.44,3.44,0,0,1-2.7-1.14,5.06,5.06,0,0,1-1-3.46V55a6.9,6.9,0,0,1,.3-2.17,3.54,3.54,0,0,1,.83-1.46,3.42,3.42,0,0,1,1.18-.78,3.88,3.88,0,0,1,1.43-.25,3.4,3.4,0,0,1,2.66,1.12,5,5,0,0,1,1,3.5v.6a5,5,0,0,1-1,3.51A3.42,3.42,0,0,1,85.48,60.21Zm0-1.31a1.61,1.61,0,0,0,1.46-.77,4.83,4.83,0,0,0,.47-2.45V55c0-2.19-.64-3.29-1.92-3.29a1.63,1.63,0,0,0-1.47.77,4.73,4.73,0,0,0-.47,2.43v.74C83.55,57.8,84.19,58.9,85.48,58.9Zm8.69,1.31a3.44,3.44,0,0,1-2.7-1.14,5.11,5.11,0,0,1-1-3.46V55a7.2,7.2,0,0,1,.3-2.17,3.56,3.56,0,0,1,.84-1.46,3.25,3.25,0,0,1,1.18-.78,3.8,3.8,0,0,1,1.42-.25,3.44,3.44,0,0,1,2.67,1.12,5.09,5.09,0,0,1,1,3.5v.6a5.09,5.09,0,0,1-1,3.51A3.44,3.44,0,0,1,94.17,60.21Zm0-1.31a1.61,1.61,0,0,0,1.46-.77,4.83,4.83,0,0,0,.48-2.45V55c0-2.19-.64-3.29-1.92-3.29a1.62,1.62,0,0,0-1.47.77,4.74,4.74,0,0,0-.48,2.43v.74C92.24,57.8,92.89,58.9,94.17,58.9Zm8.7,1.31a3.41,3.41,0,0,1-2.7-1.14,5.07,5.07,0,0,1-1-3.46V55a7.2,7.2,0,0,1,.3-2.17,3.56,3.56,0,0,1,.84-1.46,3.33,3.33,0,0,1,1.18-.78,3.88,3.88,0,0,1,1.42-.26,3.49,3.49,0,0,1,2.67,1.12,5.07,5.07,0,0,1,1,3.5v.6a5.12,5.12,0,0,1-1,3.52A3.43,3.43,0,0,1,102.87,60.21Zm0-1.31a1.58,1.58,0,0,0,1.45-.77,4.73,4.73,0,0,0,.48-2.45V55c0-2.19-.64-3.29-1.92-3.29a1.62,1.62,0,0,0-1.47.77,4.73,4.73,0,0,0-.47,2.43v.74C100.94,57.8,101.58,58.9,102.87,58.9Zm4.62,1.15,3-4.92-2.85-4.69h1.92L111.75,54h0l2-3.53h1.75l-2.78,4.68,3,4.93h-1.92l-2.25-3.74h-.05l-2.26,3.74Zm9.42,0v-9.6h2.42l2.34,7.23h0l2.34-7.24h2.41V60h-1.72V52.58h-.06l-2.41,7.47h-1.41l-2.39-7.47h0v7.47Zm13.62.14a6.68,6.68,0,0,1-1.6-.2,4.5,4.5,0,0,1-1.21-.48l.28-1.25a3.77,3.77,0,0,0,1,.39,5.5,5.5,0,0,0,1.21.16,2.43,2.43,0,0,0,1.51-.41,1.4,1.4,0,0,0,.54-1.2c0-1-.67-1.43-2-1.45l-1,0V54.47h.88a2.32,2.32,0,0,0,1.35-.4,1.22,1.22,0,0,0,.5-1q0-1.32-1.71-1.32a5,5,0,0,0-2,.5l-.2-1.27a4.48,4.48,0,0,1,1.23-.42,7.3,7.3,0,0,1,1.47-.18,3.5,3.5,0,0,1,2.17.63,2.08,2.08,0,0,1,.81,1.75A2.24,2.24,0,0,1,132,55a2.23,2.23,0,0,1,2.05,2.36,2.56,2.56,0,0,1-1,2.1A4,4,0,0,1,130.53,60.19Zm9.84-.75a3.72,3.72,0,0,1-2.57.77,6.06,6.06,0,0,1-2.87-.61V58.24a6.94,6.94,0,0,0,2.73.59c1.22,0,1.83-.47,1.83-1.4a1.15,1.15,0,0,0-.3-.88,2.78,2.78,0,0,0-1.1-.55l-.91-.25a3.36,3.36,0,0,1-1.63-.94A2.69,2.69,0,0,1,135,53a2.52,2.52,0,0,1,.82-2,3.51,3.51,0,0,1,2.4-.74,5.35,5.35,0,0,1,2.48.52v1.35a6.44,6.44,0,0,0-2.45-.48,2,2,0,0,0-1.17.31,1,1,0,0,0-.4.88,1.21,1.21,0,0,0,.26.86,2,2,0,0,0,1,.49l.9.28a4.15,4.15,0,0,1,1.83,1,2.53,2.53,0,0,1,.6,1.81A2.84,2.84,0,0,1,140.37,59.44Zm2.25.61v-9.6H145l2.34,7.23h0l2.34-7.24h2.4V60h-1.72V52.58h-.05L148,60.05h-1.42l-2.39-7.47h0v7.47Zm11.45,0v-9.6h6V51.8h-4.27v2.63h3.32v1.35h-3.32v2.91h4.35v1.36Z"/></g><rect class="cls-2" width="210" height="61"/></g></g></svg>