<svg xmlns="http://www.w3.org/2000/svg" width="375" height="16" viewBox="0 0 375 16"><defs><style>.cls-1{fill:none;}</style></defs><title>txt_sec8_description_w375</title><g id="Layer_2" data-name="Layer 2"><g id="Layer_1-2" data-name="Layer 1"><path d="M61,15.1H59.1V.85H61ZM50.57,10.6a6.21,6.21,0,0,1-1-3.68,6.37,6.37,0,0,1,1-3.7,3.29,3.29,0,0,1,4.59-.81,3.5,3.5,0,0,1,.82.81,6.36,6.36,0,0,1,1,3.7,6.25,6.25,0,0,1-1,3.67,3.32,3.32,0,0,1-4.63.79A3.21,3.21,0,0,1,50.57,10.6Zm4.6-3.68a5.54,5.54,0,0,0-.53-2.63,1.58,1.58,0,0,0-1.38-1,1.54,1.54,0,0,0-1.33,1,5.56,5.56,0,0,0-.52,2.63,5.4,5.4,0,0,0,.52,2.62,1.52,1.52,0,0,0,1.33,1,1.57,1.57,0,0,0,1.38-1,5.49,5.49,0,0,0,.53-2.61Zm13.49,2H62.88v-7h1.89V4h2V1.9h1.88V4.54h1.28V1.1h1.77V11H69.94v-5H68.66Zm6.19,5.86H64.78V10.17h1.86v3.09h8.21Zm-.35-3.34H72.72V.85H74.5Zm-7.72-4V5.47h-2v2Zm19.73-.91H79.09V8.06H87V9.54H77.23V2h9.62V3.44H79.09V5h7.42Zm1.95,5.33v1.47H75.58V11.84Zm15.69,3.26h-1.88V.85h1.88ZM99.76,2.34a11.28,11.28,0,0,1-6.37,10.19l-1.15-1.41a9.74,9.74,0,0,0,3.81-3.07,8.06,8.06,0,0,0,1.7-4.16H93.11V2.34Zm19,4.11h-2v4.72h-1.88V.85h1.88V4.91h2Zm-6-4.51a7.11,7.11,0,0,1-1.83,4.93,9.09,9.09,0,0,1-4.6,2.7l-.93-1.49a7.45,7.45,0,0,0,3.46-1.58,4.94,4.94,0,0,0,1.88-3h-4.62V1.94Zm4.34,12.75h-9.52v-4.6h1.88v3.1h7.64Zm6-8V4.75h2V6.64Zm0,5.79V10.54h2v1.89Zm6.92.76V12l2.1-2.21a21.88,21.88,0,0,0,2.07-2.44,3.34,3.34,0,0,0,.67-1.9,1.74,1.74,0,0,0-.52-1.41,2.51,2.51,0,0,0-1.59-.43,4.47,4.47,0,0,0-2.27.74l-.32-1.46a6.08,6.08,0,0,1,3.12-.83,3.93,3.93,0,0,1,2.7.82,2.88,2.88,0,0,1,.92,2.32,4,4,0,0,1-.24,1.38A5.4,5.4,0,0,1,135.84,8c-.35.47-.66.86-.92,1.15s-.62.67-1.06,1.14l-1.3,1.33H137v1.54Zm12.21.19a4,4,0,0,1-3.09-1.3,5.75,5.75,0,0,1-1.16-4v-.7a8,8,0,0,1,.34-2.48,4.12,4.12,0,0,1,.95-1.66,3.86,3.86,0,0,1,1.35-.9,4.31,4.31,0,0,1,1.63-.29,4,4,0,0,1,3,1.28,5.81,5.81,0,0,1,1.17,4v.69a5.81,5.81,0,0,1-1.18,4,4,4,0,0,1-3.06,1.29Zm0-1.5a1.86,1.86,0,0,0,1.67-.87,5.57,5.57,0,0,0,.54-2.81V7.37c0-2.5-.73-3.76-2.19-3.76a1.84,1.84,0,0,0-1.68.88A5.41,5.41,0,0,0,140,7.26v.85c0,2.51.74,3.76,2.21,3.76Zm5.41,1.31V12l2.1-2.21a22.91,22.91,0,0,0,2.06-2.44,3.35,3.35,0,0,0,.68-1.9,1.77,1.77,0,0,0-.52-1.41,2.52,2.52,0,0,0-1.6-.43,4.5,4.5,0,0,0-2.27.74l-.32-1.46a6.1,6.1,0,0,1,3.12-.83,4,4,0,0,1,2.7.82,3,3,0,0,1,.93,2.32,4.32,4.32,0,0,1-.25,1.38A5.4,5.4,0,0,1,153.45,8c-.35.48-.66.86-.92,1.15s-.61.68-1.06,1.15l-1.3,1.33h4.4v1.53Zm9.54.06v-9l-1.84.37V3.44l2.78-1.25h1V13.25Zm15.47,1.47h-9.68V10.4h1.85v2.83h7.83Zm-4.39-7.39.23,1.5a27,27,0,0,1-5.81.5h-1.42V1.76h1.85v6A19,19,0,0,0,168.22,7.33Zm2.21-3.39H166.9V2.48h3.53V.85h1.87V11.18h-1.87V6.41H166.9V5h3.53Zm11.19,9.44a3.62,3.62,0,0,1-3-1.29,5.58,5.58,0,0,1-1-3.58V7.73a6,6,0,0,1,1.3-4.26,4.49,4.49,0,0,1,3.41-1.36,5,5,0,0,1,2.56.61l-.39,1.44a3.89,3.89,0,0,0-.94-.33,4.26,4.26,0,0,0-1.12-.15,2.55,2.55,0,0,0-2,.81,4.52,4.52,0,0,0-.83,2.8,3.85,3.85,0,0,1,2.56-1,3.28,3.28,0,0,1,2.36.88,3.2,3.2,0,0,1,.9,2.4,3.78,3.78,0,0,1-1,2.7,3.53,3.53,0,0,1-2.74,1.06Zm-.05-1.46a1.73,1.73,0,0,0,1.38-.57,2.28,2.28,0,0,0,.5-1.59c0-1.34-.64-2-1.93-2a2,2,0,0,0-1.1.32,2.85,2.85,0,0,0-.87.75v.1c0,2,.67,3,2,3Zm16.81,3.23h-10.2V11.94H196V11.3h-7.87V10h9.74v3.2h-7.85v.66h8.33ZM186.88,3.41a2,2,0,0,1,1-1.7,4.59,4.59,0,0,1,2.53-.66,4.36,4.36,0,0,1,2.48.67,2,2,0,0,1,1,1.72,2,2,0,0,1-1,1.68,4.44,4.44,0,0,1-2.48.65,4.58,4.58,0,0,1-2.53-.65,2,2,0,0,1-1-1.71Zm6.32,5.65V7.82h2.87v-7h1.85V9.42h-1.85V9.05Zm-2.06.38h-1.87V7.71c-1.64.07-2.71.1-3.2.1l-.26-1.49c1.76,0,3.3,0,4.62-.08,1.86-.09,3.4-.21,4.63-.37l.14,1.39c-1.08.15-2.43.27-4.06.37Zm-1.91-6.76a.85.85,0,0,0-.46.75.82.82,0,0,0,.46.73,2.78,2.78,0,0,0,2.41,0,.83.83,0,0,0,.46-.72.86.86,0,0,0-.46-.74,2.22,2.22,0,0,0-1.2-.29,2.33,2.33,0,0,0-1.22.28ZM203,13.18V12l2.1-2.21a21.88,21.88,0,0,0,2.07-2.44,3.34,3.34,0,0,0,.67-1.9,1.74,1.74,0,0,0-.52-1.41,2.51,2.51,0,0,0-1.59-.43,4.53,4.53,0,0,0-2.28.74l-.32-1.46a6.13,6.13,0,0,1,3.12-.83,3.93,3.93,0,0,1,2.7.82,2.92,2.92,0,0,1,.93,2.32,3.83,3.83,0,0,1-.25,1.38A5.37,5.37,0,0,1,208.87,8c-.35.47-.66.86-.92,1.15s-.62.67-1.07,1.14l-1.3,1.33H210v1.54Zm9.54.07v-9l-1.84.37V3.44l2.78-1.25h1V13.25ZM228.16,15h-9.81V11.17h7.5v-1h-7.59V8.7h9.44v3.81h-7.48v1h7.93Zm-.44-7h-1.86V.85h1.86ZM216.35,4.64a3,3,0,0,1,1.07-2.37,4.4,4.4,0,0,1,5.42,0,3,3,0,0,1,1.06,2.39,2.84,2.84,0,0,1-1.05,2.3,4.08,4.08,0,0,1-2.7.88,4.22,4.22,0,0,1-2.7-.87A2.79,2.79,0,0,1,216.35,4.64Zm2.43-1.26a1.61,1.61,0,0,0-.58,1.24,1.49,1.49,0,0,0,.56,1.19,2.09,2.09,0,0,0,1.38.46,2,2,0,0,0,1.38-.48A1.49,1.49,0,0,0,222,4.62a1.63,1.63,0,0,0-.51-1.25,1.89,1.89,0,0,0-1.39-.5,2,2,0,0,0-1.36.51Zm18.74,3.45.28.2.31.22.29.17a1.41,1.41,0,0,0,.32.17l.29.09a1.26,1.26,0,0,0,.33.05,1,1,0,0,0,.78-.44,1.93,1.93,0,0,0,.4-1.08l1.35.48a3.07,3.07,0,0,1-.85,2,2.33,2.33,0,0,1-1.66.63,3.44,3.44,0,0,1-1.86-.64,4.47,4.47,0,0,0-1.79-1h0a1,1,0,0,0-.85.32,1.85,1.85,0,0,0-.52,1l-.58-.28-.67-.33a2.92,2.92,0,0,1,1.06-1.87,2.29,2.29,0,0,1,1.7-.42,3.35,3.35,0,0,1,1.66.77Zm9.58,6.35,4-9.34h-5V2.29h7.1V3.45l-3.95,9.73Zm19,2h-10.2V11.94h7.86V11.3h-7.87V10h9.74v3.2h-7.86v.66h8.34ZM254.59,3.41a2,2,0,0,1,1-1.7,4.58,4.58,0,0,1,2.52-.66,4.44,4.44,0,0,1,2.49.66,2,2,0,0,1,1,1.72,1.93,1.93,0,0,1-1,1.68,4.4,4.4,0,0,1-2.48.66,4.58,4.58,0,0,1-2.52-.66,2,2,0,0,1-1-1.7Zm6.32,5.64V7.82h2.87v-7h1.85V9.42h-1.85V9.05Zm-2.06.39H257V7.71c-1.65.07-2.71.1-3.2.1l-.26-1.49c1.76,0,3.3,0,4.62-.08,1.86-.08,3.4-.21,4.63-.37l.14,1.4c-1.08.15-2.43.27-4.06.36Zm-1.91-6.76a.83.83,0,0,0,0,1.48,2.76,2.76,0,0,0,2.4,0,.85.85,0,0,0,.47-.73.85.85,0,0,0-.47-.73,2.18,2.18,0,0,0-1.2-.29A2.26,2.26,0,0,0,256.94,2.68Zm16.72,10.66a7.58,7.58,0,0,1-1.83-.23,4.56,4.56,0,0,1-1.38-.54l.32-1.42a4.47,4.47,0,0,0,1.17.44,6.54,6.54,0,0,0,1.39.18,2.79,2.79,0,0,0,1.73-.46,1.64,1.64,0,0,0,.6-1.38c0-1.09-.75-1.64-2.27-1.66l-1.13,0V6.81h1a2.63,2.63,0,0,0,1.54-.46,1.39,1.39,0,0,0,.58-1.17c0-1-.66-1.5-2-1.5a5.56,5.56,0,0,0-2.33.57l-.23-1.45a5,5,0,0,1,1.4-.49,7.28,7.28,0,0,1,1.68-.2,3.94,3.94,0,0,1,2.48.71,2.38,2.38,0,0,1,.92,2,2.57,2.57,0,0,1-2,2.56,2.53,2.53,0,0,1,2.33,2.69,2.92,2.92,0,0,1-1.09,2.4,4.59,4.59,0,0,1-3,.87Zm6.61-.1v-9l-1.84.37V3.44l2.79-1.25h1V13.25ZM295.89,15h-9.81V11.17h7.5v-1H286V8.7h9.44v3.81H288v1h7.93Zm-.45-7h-1.86V.85h1.86ZM284.08,4.64a3,3,0,0,1,1.07-2.37,4.38,4.38,0,0,1,5.41,0,3,3,0,0,1,1.07,2.39,2.84,2.84,0,0,1-1.05,2.3,4.08,4.08,0,0,1-2.7.88,4.22,4.22,0,0,1-2.7-.87,2.79,2.79,0,0,1-1.1-2.31Zm2.43-1.26a1.6,1.6,0,0,0-.57,1.24,1.48,1.48,0,0,0,.55,1.19,2.09,2.09,0,0,0,1.38.46,2,2,0,0,0,1.38-.48,1.53,1.53,0,0,0,.53-1.17,1.68,1.68,0,0,0-.52-1.25,1.87,1.87,0,0,0-1.39-.5,2,2,0,0,0-1.36.51ZM311.65.85V6.51h2V8.06h-2v7h-1.81V.85Zm-6.91,1.49A16.42,16.42,0,0,1,304,7.9,11.77,11.77,0,0,1,301.41,12L300,10.93a8.84,8.84,0,0,0,2.21-3.22A9.81,9.81,0,0,0,303,3.89h-2.07V2.34Zm3.95,0a21.33,21.33,0,0,1-.67,6,12.81,12.81,0,0,1-2.55,4.5l-1.45-1a11,11,0,0,0,2.91-7.92h-1.55V2.34Zm13.85,7.92-1,1.45a7.3,7.3,0,0,1-2.05-1.66,6.26,6.26,0,0,1-1.39-2.16,5.82,5.82,0,0,1-1.24,2.34,6.34,6.34,0,0,1-2.2,1.82l-1.12-1.39q3.57-1.9,3.57-6.48V3.79h-2.85V2.3h7.57V3.79H319v.37a6.3,6.3,0,0,0,3.51,6.09Zm2.88,4.85h-1.87V.85h1.87Z"/><rect class="cls-1" width="375" height="16"/></g></g></svg>