<svg xmlns="http://www.w3.org/2000/svg" width="375" height="69" viewBox="0 0 375 69"><defs><style>.cls-1{fill:#fff;}.cls-2{fill:none;}</style></defs><title>txt_sec3_title_w375</title><g id="Layer_2" data-name="Layer 2"><g id="Layer_1-2" data-name="Layer 1"><g id="_4_tit" data-name=" 4 tit"><path id="패스_11253" data-name="패스 11253" class="cls-1" d="M117,6H113.8l.7-3.78h-5.68L108.12,6h-3.59l.7-3.78H99.55L98.85,6H95.18l-1,5.49h3.67l-1.06,5.82H93.11l-1,5.49h3.67l-.7,3.78h5.68l.7-3.78H105l-.7,3.78H110l.7-3.78h3.22l1-5.49h-3.22l1.06-5.82H116Zm-13.5,5.49h3.58L106,17.27h-3.58ZM144.18,1.34H139v9.38h-1.4V1.34h-5.18V26.82h5.18V16.32H139v10.5h5.18Zm-19.88,19V2.18h-5.88V26.82l12.88-2v-5.6ZM154,7.64V6.1h17.64V1.9H147.54v9.94h8.82V13H146.7v4.48h25.76V13H162.8V11.84h8.82V7.64ZM154,23V18.56h-6.44v8.82h24.08V23Zm46.2-21.7H195v9.38h-1.4V1.34h-5.18V26.82h5.18V16.32H195v10.5h5.18Zm-19.88,19V2.18h-5.88V26.82l12.88-2v-5.6ZM203.54,18v9.38h24.08V23.24H210v-1h17.64V18ZM210,7.22V6h17.64V1.9H203.54v9.38h24.08V7.22ZM202.7,12.4v4.48h25.76V12.4Zm44.52,5.32c0-5.68-2.46-9.38-8.26-9.38s-8.26,3.7-8.26,9.38,2.46,9.38,8.26,9.38S247.22,23.4,247.22,17.72Zm7.84-7.28V1.34h-6.44V26.82h6.44V16.6h2.24V10.44Zm-12.88-7.7V.5h-6.44V2.74h-5v5h16.52v-5Zm-1.12,15c0,3-.62,4.06-2.1,4.06s-2.1-1.09-2.1-4.06.62-4.06,2.1-4.06S241.06,14.75,241.06,17.72ZM258.7,2.18V17l16.52-1.4V14.5h2.52v4.76h6.44V1.34h-6.44V3.58h-2.52V2.18Zm0,16v9.52h25.48V22.34h-19v-4.2Zm6-10.64h4.48v3.33l-4.48.37Zm10.5.56h2.52v2h-2.52ZM53.32,41.34H46.88v3.92H43.72c-1-2.74-3.73-4.2-8.18-4.2-5.6,0-8.54,2.3-8.54,6.58s2.94,6.58,8.54,6.58c4.14,0,6.83-1.23,8-3.64h3.39V54.5h6.44ZM34.84,64v-.84H53.32V55.34H27.84V59H46.32v.84H27.84v7.84H53.32V64Zm.7-14.56c-2.24,0-2.94-.67-2.94-1.82s.7-1.82,2.94-1.82,2.94.67,2.94,1.82S37.78,49.46,35.54,49.46Zm20.3-7.28V66.82l16.24-1.93V42.18ZM80.2,50.44v-9.1H73.76V66.82H80.2V56.6h2.24V50.44ZM62,47.5h3.92V60.32L62,60.77Zm28.28,13V42.18H83.84V66.82l16.52-2v-5.6Zm17.92-10v-9.1h-6.44V66.82h6.44V56.6h2.24V50.44Zm4.2,17.78h3.92l1.4-7.17H112.4ZM124.75,55.9c0,7.92,2.3,11.2,8.26,11.2s8.15-3.14,8.26-10.64h2.49V66.82h6.44V41.34h-6.44v9.24h-2.6c-.48-6.1-2.86-8.68-8.15-8.68-6,0-8.26,3.28-8.26,11.2Zm10.36-.28c0,5.1-.56,6.16-2.1,6.16s-2.1-1.06-2.1-6.16V53.38c0-5.1.56-6.16,2.1-6.16s2.1,1.06,2.1,6.16ZM178.76,64c0-2.8-2.24-4.06-13.3-4.06s-13.3,1.26-13.3,4.06,2.24,4.06,13.3,4.06S178.76,66.82,178.76,64Zm-10.08-8.4v-1.4h-6.44v1.4h-9.8V59.4h26V55.62ZM158,49V46.8h2.66V42.18h-8.26V53.94l8.26-.53V48.79Zm20.44-7.62H172.6v3.92h-2.24v5.32h2.24V54.5h5.88Zm-11.34,7V46.8h2.66V42.18h-8.26V53.35l8.26-.53V48.2ZM172.32,64c0,.5-.42.7-6.86.7s-6.86-.2-6.86-.7.42-.7,6.86-.7S172.32,63.52,172.32,64ZM200,41.34h-5v9.38h-1.71c0-1.12,0-2.3,0-3.5v-5H180.44v5.6h7c0,3.44-.11,6.47-.34,9.52a82.59,82.59,0,0,1-1.34,9.52h5.88A83.09,83.09,0,0,0,193,57c0-.23,0-.47.06-.7H195v10.5h5Zm6.16,0h-5V66.82h5Zm10.36,25.48,16.52-2V42.18h-6.16v7h-4.2v-7h-6.16Zm24.36-16.38v-9.1h-6.44V66.82h6.44V56.6h2.24V50.44Zm-18.2,4.06h4.2v5.77l-4.2.5Zm47.6-13.16h-5.88V66.82h5.88ZM244,56.46v5.6h6.44v5.6h6.16v-5.6H263v-5.6Zm9.38-14.28h-9.1v5.6h2.77l-.56,7.56h5.88Zm9.66,0h-8.82v5.6h2.49l-.56,7.56H262Zm16,18.28V42.18h-6.44V66.82l16.52-2v-5.6Zm17.92-10v-9.1h-6.44V66.82h6.44V56.6h2.24V50.44Zm28.84-1c0-5.26-3.81-8.12-12.32-8.12s-12.32,2.86-12.32,8.12,3.81,8.12,12.32,8.12S325.76,54.72,325.76,49.46Zm-9.94,11.76h-4.76v-2.8h-6.44v2.8h-4.06v5.6h25.76v-5.6h-4.06v-2.8h-6.44Zm3.78-11.76c0,2-1.29,2.8-6.16,2.8s-6.16-.84-6.16-2.8,1.29-2.8,6.16-2.8S319.6,47.5,319.6,49.46Zm18.7,2.18c-2.16,0-2.8.82-2.8,2.8v5.21h6.24v-2.6c5.35-.75,7.54-3.47,7.54-7.61,0-4.9-3.2-7.82-10.36-7.82s-10.36,2.91-10.36,7.53v.48H335v-.48c0-1.43,1.23-1.93,3.89-1.93s3.89.5,3.89,2.21-1.09,2.21-4.31,2.21Zm3.44,14.9V61.05H335.5v5.49Z"/></g><rect class="cls-2" width="375" height="69"/></g></g></svg>