<svg xmlns="http://www.w3.org/2000/svg" width="375" height="133" viewBox="0 0 375 133"><defs><style>.cls-1{fill:#111;}.cls-2{fill:#ff006b;}.cls-3{fill:none;}</style></defs><title>txt_sec6_title_w375</title><g id="Layer_2" data-name="Layer 2"><g id="Layer_1-2" data-name="Layer 1"><g id="_7_tit" data-name=" 7 tit"><path id="패스_11213" data-name="패스 11213" class="cls-1" d="M143.94,51.44c0-3-2.5-5.12-12.32-5.12s-12.32,2.15-12.32,5.12,2.49,5.12,12.32,5.12S143.94,54.41,143.94,51.44Zm-7.31-16-.53,4.48h6.44l1.12-9.38H119.58v4.9ZM132,41V37.38H125.6V41h-6.86V45.5H144.5V41Zm5.74,10.42c0,.62-.62,1-6.16,1s-6.16-.36-6.16-1,.61-1,6.16-1S137.78,50.82,137.78,51.44Zm9-4.95v9.8H171.1v-9.8Zm14.84-1.12a35.38,35.38,0,0,0,1.68-12V30.81H146.74v5.6h10a35.38,35.38,0,0,1-1.62,9Zm9.52-10.5V30h-6.44v15.4h6.44V40.74h2.24V34.86ZM152.9,50.54h12v1.68h-12ZM200.22,30H195v5.46h-1.4V30h-5.18V46.2h5.18V40.74H195V46.2h5.18ZM180.9,36.12c-4.7,0-6.72,1.82-6.72,5s2,5,6.72,5,6.72-1.82,6.72-5S185.6,36.12,180.9,36.12Zm10.78,16.32,2.46,3.84h7.2L196.72,49h-2.86l1.23-2h-6.77l-5.83,9.24h6.78Zm-7.84-21.36v-2H178v2h-3.5v4.48h12.88V31.08Zm3.08,16H180l-5.8,9.24h6.92Zm-6-6.86c1.56,0,2.24.23,2.24,1s-.68,1-2.24,1-2.24-.22-2.24-1S179.33,40.18,180.9,40.18Zm21.84-9.38V55.44l16.52-2v-5.6l-10.08,1.2V36.4h10.08V30.8Zm24.36,8.26V30h-6.44V55.44h6.44V45.22h2.24V39.06Zm3.64-8.26V45.64l16.52-1.4V43.12h2.52v4.76h6.44V30h-6.44V32.2h-2.52V30.8Zm0,16v9.52h25.48V51h-19v-4.2Zm6-10.64h4.48v3.34l-4.48.36Zm10.5.56h2.52v2h-2.52Z"/><path id="패스_11212" data-name="패스 11212" class="cls-2" d="M84.16,72.58H80.94l.7-3.78H76l-.7,3.78H71.67l.7-3.78H66.68L66,72.58H62.32l-1,5.49H65L63.92,83.9H60.25l-1,5.48H62.9l-.7,3.78h5.69l.7-3.78h3.58l-.7,3.78h5.69l.7-3.78h3.22l1-5.48H78.86l1.07-5.83h3.22Zm-13.5,5.49h3.58L73.18,83.9H69.59ZM111.32,68h-5.18v9.38h-1.4V68H99.56V93.44h5.18V82.94h1.4v10.5h5.18Zm-19.88,19V68.8H85.56V93.44l12.88-2v-5.6Zm29.68-12.68V72.72h17.64v-4.2H114.68v9.94h8.82v1.12h-9.66v4.48H139.6V79.58h-9.66V78.46h8.82v-4.2Zm0,15.4V85.18h-6.44V94h24.08V89.66ZM167.32,68h-5.18v9.38h-1.4V68h-5.18V93.44h5.18V82.94h1.4v10.5h5.18Zm-19.88,19V68.8h-5.88V93.44l12.88-2v-5.6Zm23.24-2.32V94h24.08V89.86H177.12v-1h17.64v-4.2Zm6.44-10.78V72.58h17.64V68.52H170.68V77.9h24.08V73.84ZM169.84,79V83.5H195.6V79ZM212.4,90.64V89.8h18.76V82H205.4V85.6h18.76v.84H205.4v7.84h25.76V90.64Zm.53-15.4.45-1.12h4.9V69.36h-3.5V67.12H208.9v2.24h-3.5v4.76h2.43l-3,7h5.69l1.56-3.8,1.16,3.8h5.6l-2.05-5.88ZM231.16,68H226v4.2h-1.4V68H219.4V81.12h5.18v-4.2H226v4.2h5.18Zm2.52.84V73h10.08v1H233.68v9.66l17.08-.84V78.6l-10.64.54V77.9H250.2V68.8Zm0,16v9.52h25.48V89h-19v-4.2ZM259.16,68h-6.44V85.88h6.44ZM271.53,78l.93-3.64h5.74V68.8H261.68v5.6h4.2l-4.76,19h6.58l2.38-9.54,2.1,9.54h6.58L275.4,78ZM287.16,68h-6.44V93.44h6.44Z"/><path id="패스_11211" data-name="패스 11211" class="cls-1" d="M309.06,68h-5v9.38h-1.74c-.34-6.38-2.32-8.82-6.38-8.82-4.48,0-6.44,3-6.44,10.92V82.8c0,8,2,10.92,6.44,10.92s6.41-2.94,6.44-10.78H304v10.5h5Zm6.16,0h-5V93.44h5ZM297.3,82.24c0,5-.28,6.16-1.4,6.16s-1.4-1.17-1.4-6.16V80c0-5,.28-6.16,1.4-6.16S297.3,75,297.3,80Z"/><path id="패스_11210" data-name="패스 11210" class="cls-1" d="M113.65,122.48v9.8H138v-9.8Zm9.3-8.68.59-1.4h6.64v-5.32h-5v-2H118.7v2h-5v5.32H117l-3.87,9h6.58l2.38-5.48,2.1,5.48h6.58l-2.88-7.56ZM138,110.86V106h-6.44v15.4H138v-4.62h2.24v-5.88Zm-18.2,15.68h12v1.68h-12Zm21.86-6c0,7.93,2.3,11.2,8.26,11.2,4.18,0,6.56-1.62,7.62-5.32h3.14v5h6.44V106H160.7v4.2h-3.78c-1.26-2.52-3.5-3.64-7-3.64-6,0-8.26,3.28-8.26,11.2Zm10.36-.28c0,5.1-.56,6.16-2.1,6.16s-2.1-1.06-2.1-6.16V118c0-5.1.56-6.16,2.1-6.16s2.1,1.07,2.1,6.16Zm6.16-2.52c0-.67,0-1.34,0-2h2.54v5H158.2Zm28,4.62c0-5.68-2.46-9.38-8.26-9.38s-8.26,3.7-8.26,9.38,2.47,9.38,8.27,9.38S186.17,128,186.17,122.34Zm7.85-7.28V106h-6.45v25.48H194V121.22h2.24v-6.16Zm-12.88-7.7v-2.24H174.7v2.24h-5v5h16.52v-5Zm-1.12,15c0,3-.62,4.06-2.1,4.06s-2.1-1.09-2.1-4.06.61-4.06,2.1-4.06S180,119.38,180,122.34Zm24.08-.25,1.12,9.35h5.6l-2.41-17.92h-2.86l1.2-7h-5.51l-4.42,24.92h5.68ZM217,106h-5v8h-2.24v5.6h2.24v11.9h5Zm6.16,0h-5v25.48h5Zm27.72,8.12c0-5.26-3.8-8.12-12.32-8.12s-12.31,2.86-12.31,8.12,3.8,8.12,12.32,8.12S250.85,119.34,250.85,114.08Zm-9.93,11.76h-4.76V123h-6.44v2.8h-4.06v5.6h25.76v-5.6h-4.06V123h-6.44Zm3.78-11.76c0,2-1.29,2.8-6.16,2.8s-6.16-.84-6.16-2.8,1.28-2.8,6.16-2.8,6.15.84,6.15,2.8Zm16,10.2V106.8h-6.25v17.48Zm0,6.88v-5.48h-6.25v5.48Z"/><path id="패스_11215" data-name="패스 11215" d="M168.42,13.24V10.62h-5.93V8h5.3V5.5h-5.3V3.11h5.6V.5h-8.56V13.24ZM181.68.5h-3.4l-2.93,9h-.07l-2.95-9h-3.46l4.82,12.74h3.08Zm9.94,12.74V10.62H185.7V8H191V5.5H185.7V3.11h5.6V.5h-8.57V13.24Zm13.63,0V.5h-3l.07,8.32h-.05L197.16.5h-3.51V13.24h3l-.07-8.33h.05l5.13,8.33ZM216.93,3.13V.5H206.65V3.13h3.6V13.24h3.08V3.13Z"/></g><rect class="cls-3" width="375" height="133"/></g></g></svg>