<svg xmlns="http://www.w3.org/2000/svg" width="375" height="124" viewBox="0 0 375 124"><defs><style>.cls-1{fill:#8214ff;}.cls-2{fill:#111;}.cls-3{fill:none;}</style></defs><title>txt_sec2_title_w375</title><g id="Layer_2" data-name="Layer 2"><g id="Layer_1-2" data-name="Layer 1"><g id="_3_tit" data-name=" 3 tit"><path id="패스_11248" data-name="패스 11248" class="cls-1" d="M129.34,41.6h-7V54.33h-1.9V41.6h-7V76.18h7V61.93h1.9V76.18h7Zm-27,25.76V42.74h-8V76.18l17.48-2.66v-7.6Zm40.28-17.21V48.06h23.94v-5.7H133.9V55.85h12v1.52H132.76v6.08h35V57.37H154.61V55.85h12v-5.7Zm0,20.9V65H133.9v12h32.68V71.05Zm62.7-29.45h-7V54.33h-1.9V41.6h-7V76.18h7V61.93h1.9V76.18h7Zm-27,25.76V42.74h-8V76.18l17.48-2.66v-7.6Zm31.54-3.15V76.94h32.68V71.32H218.64V69.91h23.94v-5.7Zm8.74-14.63V47.87h23.94V42.36H209.9V55.09h32.68V49.58Zm-9.88,7v6.08h35V56.61ZM273,41.6h-6.84V54.33h-2.36c-.45-8.66-3.15-12-8.66-12-6.08,0-8.74,4-8.74,14.82v4.56c0,10.79,2.66,14.82,8.74,14.82s8.7-4,8.74-14.63h2.28V76.18H273Zm8.36,0H274.5V76.18h6.84ZM257,61c0,6.76-.38,8.36-1.9,8.36s-1.9-1.6-1.9-8.36v-3c0-6.76.38-8.36,1.9-8.36s1.9,1.6,1.9,8.36ZM107.45,98.24l.8-1.9h8.93v-7.6H94.76v7.6h4.56L94,108.88h8.93l3.27-7.68,2.81,7.68h8.93L114,98.24ZM94.76,110.4v12.92h34.58V116.1H103.5v-5.7Zm34.58-22.8H120.6v24.32h8.74ZM132.76,110v13.3h34.58V110Zm11.78-10.91,3.23,9.39h8.93L152.41,96h-6.65l3-7.6h-8.93L132,108.5h8.93Zm22.8-11.51H158.6v20.9h8.74Zm-26.22,27.93H159v2.28H141.12Zm64.22-8.17H196.6v3.23H179.5v-3.23h-8.74v16h34.58ZM192.8,96.53c0-5.81-4-9.31-11.59-9.31s-11.59,3.5-11.59,9.31,4,9.31,11.59,9.31S192.8,102.34,192.8,96.53Zm12.54-8.93H196.6v18.62h8.74ZM181.21,99.38c-3,0-4-1.29-4-2.85s.95-2.85,4-2.85,4,1.29,4,2.85S184.25,99.38,181.21,99.38Zm-1.71,16.34h17.1v2.09H179.5Zm38-2.17V88.74h-8.74v33.44l22.42-2.66v-7.6ZM243.34,87.6H234.6v34.58h8.74Zm3.42,1.14v33.44l22.42-2.66v-7.6l-13.68,1.63V96.34h13.68v-7.6ZM279.82,100V87.6h-8.74v34.58h8.74V108.31h3V100Z"/><g id="SMALL_TIT" data-name="SMALL TIT"><path id="패스_11250" data-name="패스 11250" class="cls-2" d="M107,17.27V1.72h-5V22.84l11-1.68v-4.8ZM118.76,1h-4.32V7.6h-4.32v4.8h4.32V22.84h4.32ZM124,1h-4.32V22.84H124Zm24,0h-5.52V22.84H148ZM126.22,13.48c0,6.79,2,9.6,7.08,9.6s7.08-2.81,7.08-9.6v-2.4c0-6.79-2-9.6-7.08-9.6s-7.08,2.81-7.08,9.6Zm8.88-.24c0,4.37-.48,5.28-1.8,5.28s-1.8-.91-1.8-5.28V11.32C131.5,7,132,6,133.3,6s1.8.91,1.8,5.28Zm31.42.72v8.88H172V1h-5.52V8.92h-2.16V1.72h-5.28v6h-3.6v-6H150.2V22.84l14.16-1.68V14Zm-11-1.68h3.6v4.94l-3.6.44Z"/><g id="VIBE"><g id="그룹_4493" data-name="그룹 4493"><g id="그룹_4492" data-name="그룹 4492"><path id="패스_11055" data-name="패스 11055" class="cls-2" d="M190.85,14.91,186.25,2.2a.55.55,0,0,0-.51-.36H181a.55.55,0,0,0-.54.55.41.41,0,0,0,0,.19l7.83,19.72a.57.57,0,0,0,.51.34h4a.56.56,0,0,0,.5-.34l7.83-19.72a.55.55,0,0,0-.3-.7.71.71,0,0,0-.2,0H196a.55.55,0,0,0-.51.36Z"/><rect id="사각형_144" data-name="사각형 144" class="cls-2" x="204.77" y="1.84" width="5.41" height="20.79" rx="1"/><path id="패스_11056" data-name="패스 11056" class="cls-2" d="M248,5.88V2.38a.54.54,0,0,0-.54-.54H234.85a.54.54,0,0,0-.54.54h0V22.1a.54.54,0,0,0,.54.54h12.64a.54.54,0,0,0,.54-.54h0V18.6a.54.54,0,0,0-.54-.54H239.4V14.37h7.47a.54.54,0,0,0,.54-.54h0V10.54a.55.55,0,0,0-.54-.54H239.4V6.42h8.09a.54.54,0,0,0,.54-.54Z"/><path id="패스_11057" data-name="패스 11057" class="cls-2" d="M227.35,11.82a5.8,5.8,0,0,0,2.72-4.64c0-3-2.15-5.34-5.67-5.34h-8.7a.55.55,0,0,0-.54.54h0V22.1a.54.54,0,0,0,.54.54h8.69c3.51,0,6.16-1.71,6.16-5.7a5.25,5.25,0,0,0-3.2-5.12ZM220.25,6h2.63A2,2,0,0,1,225,7.93a.74.74,0,0,1,0,.21c0,1.76-1,2.23-1.81,2.23h-3Zm3,12.48h-3V14.11h2.81a2,2,0,0,1,2.28,1.69,2.07,2.07,0,0,1,0,.5,2,2,0,0,1-1.73,2.17A1.53,1.53,0,0,1,223.27,18.48Z"/></g></g></g><path id="패스_11249" data-name="패스 11249" class="cls-2" d="M258.44,6.28V1.48h-5.52V10h20.64V6.28Zm0,13.32V15.76h-5.52v7.56h20.64V19.6ZM252.2,11V14.8h22.08V11Z"/></g></g><rect class="cls-3" width="375" height="124"/></g></g></svg>