<svg xmlns="http://www.w3.org/2000/svg" width="240" height="77" viewBox="0 0 240 77"><defs><style>.cls-1{fill:#666;}.cls-2{fill:none;}</style></defs><title>txt_sec8_reward_info3_w240</title><g id="Layer_2" data-name="Layer 2"><g id="Layer_1-2" data-name="Layer 1"><g id="_8_txt03" data-name=" 8 txt03"><path id="패스_11408" data-name="패스 11408" class="cls-1" d="M37.25,9l-.92-1.12A9.2,9.2,0,0,0,42.46,1L44,1.28a8.56,8.56,0,0,1-.61,2,12.36,12.36,0,0,0,6.23,4l-.79,1.2a14,14,0,0,1-6.14-3.9A11.09,11.09,0,0,1,37.25,9Zm12.32,3.81v1.36H36.33V12.85h5.88V8.45h1.5v4.4Zm.76-5.55H63.57V8.64H50.33Zm9-1H54.54c-2.4,0-3.6-.91-3.6-2.64S52.14,1,54.54,1h4.82C61.77,1,63,2,63,3.62S61.78,6.26,59.36,6.26ZM54.54,4.94h4.82c1.5,0,2-.56,2-1.32s-.53-1.31-2-1.31H54.54c-1.34,0-2,.56-2,1.31S53,4.94,54.54,4.94Zm8.27,4.92v4.8H51.09V9.86ZM52.59,13.34h8.72V11.19H52.59ZM76.67,1V14.82h-1.5V1ZM66.29,5.51V10c0,2.1.75,3,2.19,3s2.17-.9,2.17-3V5.51c0-2.11-.75-3-2.17-3S66.29,3.4,66.29,5.51ZM64.79,10V5.51c0-2.95,1.5-4.37,3.7-4.37s3.68,1.42,3.68,4.37V10c0,2.91-1.5,4.34-3.68,4.34S64.78,12.94,64.78,10ZM94,1V8.77h-1.5V1ZM83,14.66l-1.12-1A6.18,6.18,0,0,0,85.42,9l1.43.2a6,6,0,0,1-.42,1.68A7.69,7.69,0,0,0,88.49,13a6.07,6.07,0,0,0,2.18-4l1.44.2A5.39,5.39,0,0,1,91.69,11,12.86,12.86,0,0,0,95,13.43l-.87,1.17A16.39,16.39,0,0,1,91,12.26a8.2,8.2,0,0,1-2.48,2.46,10.41,10.41,0,0,1-2.85-2.52A7.83,7.83,0,0,1,83,14.66ZM83.5,4.54a2.1,2.1,0,0,0,2,2.17h.17a2.1,2.1,0,0,0,2.19-2V4.54a2.1,2.1,0,0,0-2-2.2h-.19a2.09,2.09,0,0,0-2.18,2Zm-1.5,0A3.51,3.51,0,0,1,85.46,1h.22a3.5,3.5,0,0,1,3.69,3.31,1.69,1.69,0,0,1,0,.23A3.5,3.5,0,0,1,85.9,8.06h-.22A3.51,3.51,0,0,1,82,4.74v-.2Zm15.5,0a2.08,2.08,0,0,0,2,2.17h.13a2.08,2.08,0,0,0,2.11-2,.53.53,0,0,0,0-.13,2.07,2.07,0,0,0-1.95-2.19h-.15A2.08,2.08,0,0,0,97.5,4.39Zm-1.5,0A3.48,3.48,0,0,1,99.42,1h.2a3.48,3.48,0,0,1,3.6,3.35v.19A3.47,3.47,0,0,1,99.8,8.06h-.18A3.48,3.48,0,0,1,96,4.73V4.54Zm1,10.12-1.12-1A6.18,6.18,0,0,0,99.42,9l1.43.2a6,6,0,0,1-.42,1.68A7.69,7.69,0,0,0,102.49,13a6.07,6.07,0,0,0,2.18-4l1.44.2a5.39,5.39,0,0,1-.42,1.78A12.86,12.86,0,0,0,109,13.43l-.87,1.17a16.39,16.39,0,0,1-3.1-2.34,8.2,8.2,0,0,1-2.48,2.46,10.41,10.41,0,0,1-2.85-2.52A7.83,7.83,0,0,1,97,14.66ZM106.53,1H108V8.78h-1.5V5.2h-2.7V3.84h2.7Zm3.17,6.91h13.23V9.27H109.69Zm12.63,5.41v1.34H110.45V10.47H112v2.85ZM110.45,6.07V1.14H112V4.76h10.38V6.07Zm19.37,6.78v1.36H124.3V1.28h5.14V2.64h-3.63V12.85Zm3-11.79v13.6h-1.5V8.05h-3.24V6.71h3.23V1.06ZM136,14.82h-1.5V1H136Zm6.83-10.28a2.08,2.08,0,0,0,2,2.17H145a2.08,2.08,0,0,0,2.1-2V4.53a2.09,2.09,0,0,0-2-2.19H145a2.07,2.07,0,0,0-2.12,2Zm-1.5,0A3.49,3.49,0,0,1,144.77,1H145a3.47,3.47,0,0,1,3.6,3.34v.2a3.47,3.47,0,0,1-3.42,3.52H145a3.48,3.48,0,0,1-3.62-3.33V4.54Zm8.85,4.51,1.41.14a6.34,6.34,0,0,1-.3,1.63,9.11,9.11,0,0,0,3.05,2.64l-.93,1.14a11.86,11.86,0,0,1-2.75-2.39,6.92,6.92,0,0,1-2.36,2.45l-.65-.59v.59h-5.57V9.11h1.54v1.43h2.53V9.11h1.5v4.25A5.62,5.62,0,0,0,150.21,9Zm-4,2.76h-2.56v1.55h2.56ZM151.89,1h1.5V8.47h-1.5V5.2h-2.71V3.84h2.7Zm3.87,5-.7-1.24c2.81-.35,5.23-1.42,6.06-3.8l1.55.22a6.69,6.69,0,0,1-.44.94,12.19,12.19,0,0,0,6.06,2.44l-.63,1.21a13.69,13.69,0,0,1-6.25-2.51A9.05,9.05,0,0,1,155.76,6Zm11.77,3.07v5.55H155.81V9.11h1.5v1.36H166V9.11Zm-10.22,4.23H166V11.8h-8.72Zm-2.26-6.47h13.24V8.21H155.05ZM181.39,1V14.82h-1.5V1ZM169.66,14.21V1.28h1.5V12.85h7.22v1.36Zm22.42,0h-8.42V1.28h7.52V2.64h-6V12.85h6.91Zm3-6.35v7h-1.51V1h1.5V6.52h2V7.86Zm4.1,6.21h-1.81V12.28h1.8Z"/><path id="패스_11360" data-name="패스 11360" d="M38.17,44.17l-2.5-3.24a12.32,12.32,0,0,0,8.38-9.62l4.4.67a14.39,14.39,0,0,1-1,3.41A17.14,17.14,0,0,0,56,40.17l-2.3,3.36a17.82,17.82,0,0,1-8.35-4.68A16.6,16.6,0,0,1,38.17,44.17Zm17.57,3.6v3.82H35.89V47.77h7.64V43H48v4.82Zm2.43,3.6V31.77h4.1V47.56h8.3v3.81ZM76.45,31.55V52.29h-4.1V31.55ZM79.77,47V42.49a4.28,4.28,0,0,1,3.92-4.62,3.88,3.88,0,0,1,.59,0,4.23,4.23,0,0,1,4,2.26h1.51V31.65h3.72v20.4H89.77V43.91h-1V47a4.29,4.29,0,0,1-4,4.58h-.55a4.28,4.28,0,0,1-4.52-4A3.49,3.49,0,0,1,79.77,47Zm3.72-4.51V47a.82.82,0,0,0,.71.93h.08c.45,0,.79-.34.79-.94V42.49c0-.62-.34-1-.79-1s-.79.34-.79,1Zm10.77,9.79V31.55h3.79V52.29ZM79.33,37.09V33.35h2.88v-2.5h3.94v2.5H89v3.74Zm41.21,10.68v3.82H100.69V47.77Zm-.67-7.65V44H101.61V31.77h18v3.84H105.71v4.51Zm5.21-8.57h3.84a28.74,28.74,0,0,1-.27,4.15,12.9,12.9,0,0,0,4.18,5.16l-2.52,2.45a12.6,12.6,0,0,1-2.88-3A11.07,11.07,0,0,1,125,44l-3.12-1.88C124.41,39.57,125.08,36,125.08,31.55Zm16.17,12.84h-3.81V31.55h3.82ZM134,45.85a16.11,16.11,0,0,0,7.8,3.12l-1.73,3.32a19.14,19.14,0,0,1-8.18-3.6,13.47,13.47,0,0,1-7.25,3.67l-2.26-3.22c4-.5,7.25-2.69,8.33-5.66l3.84,1.1A8.4,8.4,0,0,1,134,45.85Zm-1.2-14.2h3.7v12h-3.7V38h-2.4V34.43h2.4Zm21.07,4.41V47.77c0,1.13.41,1.35,1.75,1.35V53c-4.3,0-5.85-1.13-5.85-5V35.82c0-3.84,1.56-5,5.85-5v3.84C154.31,34.69,153.9,34.93,153.9,36.06Zm8.43,14.64h-4.1V36.06h-1.57V32.22h5.67Zm9.28-4.61V36.85c0-.7-.5-1-1.17-1s-1.2.34-1.2,1v9.24c0,.68.5,1,1.2,1S171.61,46.77,171.61,46.09Zm4.13-9.48v9.7c0,2.81-1.82,4.61-5.3,4.61s-5.3-1.8-5.3-4.61v-9.7c0-2.81,1.8-4.63,5.3-4.63S175.74,33.81,175.74,36.61ZM191.05,52.5h-7.46c-3.26,0-5.4-1.8-5.4-4.37s2.14-4.41,5.4-4.41h7.46c3.27,0,5.4,1.8,5.4,4.41S194.32,52.5,191.05,52.5ZM188.8,31.77v10.6H178V31.77Zm.67,9.57V37.72h2.66V36.49h-2.66V32.87h2.66V31.55h4.11V43.31h-4.1v-2Zm-5.88,7.78h7.46c.77,0,1.23-.43,1.23-1a1.09,1.09,0,0,0-1.12-1h-7.57c-.79,0-1.22.46-1.22,1S182.8,49.12,183.59,49.12Zm-1.8-10H185V35h-3.17Zm18.43,8.66V36.06c0-1.13-.41-1.37-1.77-1.37V30.85c4.3,0,5.88,1.13,5.88,5V48c0,3.82-1.59,4.94-5.88,4.94V49.12C199.81,49.12,200.22,48.9,200.22,47.77Z"/><path id="패스_11358" data-name="패스 11358" class="cls-1" d="M59.63,75.76l-2.73-11h2l1.87,8.13h0l2.24-8.13h1.6l2.21,8.13h0l1.89-8.13h1.78l-2.69,11h-2l-2.15-8h0l-2.18,8Zm12.26,0v-11h2v4.53h4.67V64.78h2v11h-2v-4.9H73.86v4.9Zm10.37-3.67V70.56h4.4v1.53Zm7.18,3.73v-9l-1.84.36V66l2.79-1.25h1V75.82Zm8.27.13a4,4,0,0,1-3.08-1.3,5.75,5.75,0,0,1-1.17-4V70a8,8,0,0,1,.34-2.48,4.16,4.16,0,0,1,1-1.67A3.86,3.86,0,0,1,96.1,65a4.52,4.52,0,0,1,1.63-.29,3.93,3.93,0,0,1,3,1.28,5.76,5.76,0,0,1,1.18,4v.69a5.81,5.81,0,0,1-1.18,4A4,4,0,0,1,97.71,76Zm0-1.5a1.83,1.83,0,0,0,1.67-.87,5.59,5.59,0,0,0,.54-2.81V70c0-2.51-.73-3.76-2.19-3.76a1.84,1.84,0,0,0-1.68.87,5.44,5.44,0,0,0-.54,2.78v.85c0,2.5.73,3.75,2.2,3.75Zm9.94,1.5a4,4,0,0,1-3.09-1.3,5.8,5.8,0,0,1-1.17-4V70a8.31,8.31,0,0,1,.35-2.48,4.12,4.12,0,0,1,1-1.66A3.72,3.72,0,0,1,106,65a4.31,4.31,0,0,1,1.63-.29,3.93,3.93,0,0,1,3,1.28,5.75,5.75,0,0,1,1.18,4v.69a5.79,5.79,0,0,1-1.18,4A4,4,0,0,1,107.65,76Zm0-1.5a1.83,1.83,0,0,0,1.66-.87,5.5,5.5,0,0,0,.55-2.81V70c0-2.51-.73-3.76-2.19-3.76a1.83,1.83,0,0,0-1.68.87,5.45,5.45,0,0,0-.55,2.78v.85c0,2.5.74,3.75,2.21,3.75Zm9.94,1.5a4,4,0,0,1-3.09-1.3,5.84,5.84,0,0,1-1.17-4V70a8,8,0,0,1,.34-2.48,4.14,4.14,0,0,1,1-1.66A3.86,3.86,0,0,1,116,65a4.3,4.3,0,0,1,1.62-.29A3.93,3.93,0,0,1,120.65,66a5.75,5.75,0,0,1,1.18,4v.69a5.8,5.8,0,0,1-1.19,4A4,4,0,0,1,117.59,76Zm0-1.5a1.82,1.82,0,0,0,1.66-.88,5.45,5.45,0,0,0,.54-2.81V70c0-2.51-.73-3.76-2.19-3.76a1.85,1.85,0,0,0-1.68.87,5.44,5.44,0,0,0-.54,2.78v.84c0,2.51.73,3.76,2.21,3.76Zm5.28,1.31,3.47-5.62-3.25-5.36h2.19l2.45,4h.06l2.26-4h2l-3.18,5.34,3.39,5.64h-2.19l-2.58-4.28h0l-2.59,4.28Zm10.76,0v-11h2.77l2.67,8.27h.05l2.67-8.27h2.76v11h-2V67.23h-.07l-2.75,8.53h-1.61l-2.74-8.53h0v8.53Zm15.57.15a7.57,7.57,0,0,1-1.83-.22,4.84,4.84,0,0,1-1.38-.54l.32-1.43a3.77,3.77,0,0,0,1.17.44,6,6,0,0,0,1.39.19,2.75,2.75,0,0,0,1.72-.47,1.59,1.59,0,0,0,.61-1.37c0-1.09-.75-1.64-2.27-1.66l-1.14,0V69.39l1,0a2.63,2.63,0,0,0,1.54-.46,1.36,1.36,0,0,0,.57-1.17q0-1.5-1.95-1.5a5.52,5.52,0,0,0-2.33.57l-.23-1.45a5,5,0,0,1,1.39-.49,7.42,7.42,0,0,1,1.68-.2,3.9,3.9,0,0,1,2.48.71,2.39,2.39,0,0,1,.93,2,2.57,2.57,0,0,1-2,2.56,2.53,2.53,0,0,1,2.34,2.69,2.92,2.92,0,0,1-1.09,2.4A4.59,4.59,0,0,1,149.2,75.91Zm11.24-.85a4.23,4.23,0,0,1-2.93.88,6.88,6.88,0,0,1-3.28-.7V73.69a7.61,7.61,0,0,0,3.12.67c1.4,0,2.1-.53,2.1-1.6a1.31,1.31,0,0,0-.35-1,3.28,3.28,0,0,0-1.25-.63l-1-.29a3.79,3.79,0,0,1-1.87-1.07,3,3,0,0,1-.63-2,2.93,2.93,0,0,1,.93-2.28A4,4,0,0,1,158,64.6a6,6,0,0,1,2.83.6v1.53a7.09,7.09,0,0,0-2.8-.54,2.15,2.15,0,0,0-1.33.35,1.2,1.2,0,0,0-.46,1,1.4,1.4,0,0,0,.3,1,2.33,2.33,0,0,0,1.11.55l1,.32a4.64,4.64,0,0,1,2.09,1.1,2.87,2.87,0,0,1,.68,2.08,3.17,3.17,0,0,1-1,2.48Zm2.57.7v-11h2.77l2.67,8.27h.05l2.67-8.27h2.75v11h-2V67.23h-.06l-2.75,8.53h-1.62l-2.73-8.53h0v8.53Zm13.09,0v-11H183v1.55h-4.88v3h3.79v1.54h-3.79V74.2h5v1.56Z"/></g><rect class="cls-2" width="240" height="77"/></g></g></svg>