<svg xmlns="http://www.w3.org/2000/svg" width="375" height="59" viewBox="0 0 375 59"><defs><style>.cls-1{fill:none;}</style></defs><title>txt_sec8_title_w375</title><g id="Layer_2" data-name="Layer 2"><g id="Layer_1-2" data-name="Layer 1"><path d="M29.48,15.88v8.4H50.36v-8.4Zm8-7.44.5-1.2h5.69V2.68H39.32V1H33.8V2.68H29.48V7.24h2.83L29,14.92h5.64l2-4.7,1.8,4.7h5.64L41.65,8.44ZM50.36,5.92V1.72H44.84v13.2h5.52V11h1.92v-5ZM34.76,19.36H45.08V20.8H34.76ZM52.31,14.2c0,6.79,2,9.6,7.08,9.6,3.57,0,5.61-1.39,6.53-4.56H68.6v4.32h5.52V1.72H68.6v3.6H65.36c-1.08-2.16-3-3.12-6-3.12-5.11,0-7.08,2.81-7.08,9.6ZM61.19,14c0,4.37-.48,5.28-1.8,5.28s-1.8-.91-1.8-5.28V12c0-4.37.48-5.28,1.8-5.28s1.8.91,1.8,5.28Zm5.28-2.16c0-.58,0-1.15,0-1.68H68.6v4.32H66.46V11.8Zm8.61,4.8v7.68H96V19.72H80.6V16.6ZM82.16,7c-5.08,0-7.32,1.42-7.32,4.32s2.24,4.32,7.32,4.32,7.32-1.37,7.32-4.32S87.25,7,82.16,7ZM96,7.12V1.72H90.44V17.56H96v-5.4h1.92v-5Zm-11-4.44V1H79.4V2.68H75.08V6.52H89.24V2.68ZM82.16,10.6c2,0,2.52.14,2.52.72s-.52.72-2.52.72-2.52-.14-2.52-.72S80.17,10.6,82.16,10.6Zm22-8.4V15.64h20.64V2.2Zm7.56,16.56H103.4v4.8h22.08v-4.8H117.2V16.6h-5.52ZM109.64,7h9.6v3.84h-9.6Zm22.8.6V5.8h15.12V2.2H126.92v9h20.64V7.6Zm0,12.72V17h-5.52V24h20.64V20.32Zm-6.24-8.16V16h22.08V12.16Zm49.68-10H170.6v2H160.52v-2h-5.28v9.36h20.64ZM154.52,12.76v3.72h9v2.28H169V16.48h7.56V12.76Zm6.24,7.56V17.44h-5.52V24h20.64V20.32Zm-.24-13.13H170.6V8.56H160.52ZM184,21v-.6h14.64V13.91H178V17h14.64v.62H178V24h20.64V21ZM178,2.2V9.06h20.64V6.13H183.56v-1h15.12V2.2Zm-.72,7.58v3.41H199.4V9.78ZM217.4,1.72h-4.08v8H212.1c0-1,0-2,0-3V2.44h-5.4v4.8H208c0,2.95-.1,5.54-.28,8.16a72.51,72.51,0,0,1-1.16,8.16h4.08a69.86,69.86,0,0,0,1.18-8.4c0-.2,0-.4,0-.6h1.41v9h4.08ZM204.56,23.56a69.86,69.86,0,0,0,1.18-8.4c.19-2.69.26-5.4.26-8.4V2.44h-6.36v4.8h2.28c0,2.95-.1,5.54-.28,8.16a72.51,72.51,0,0,1-1.16,8.16ZM222.2,1.72h-4.08V23.56h4.08Zm20,1.44V1h-5.52V3.16h-7.56V8h5.28l-5.76,7.2h6.6l4.06-4.92,4.25,4.92h6.7l-4.9-5.76H240L241.21,8h8.59V3.16Zm-13.8,13v4.8h8.28v3.36h5.52V20.92h8.28v-4.8Zm44.64-14.4h-5.52V6H265.4V2.68h-4.32V1h-5.52V2.68h-4.32V7.24h2.84l-3.32,7.68h5.64l2-4.7,1.8,4.7h5.64l-2.47-6.48h-4.2l.5-1.2h5.45v3.6h2.4v4.08h5.52ZM251.24,15.88v8.4h21.84v-8.4Zm5.28,3.48H267.8V20.8H256.52ZM280.76,21v-.6H295.4V13.91H274.76V17H289.4v.62H274.76V24H295.4V21Zm14.88-15.6c0-2.25-2.13-3.79-10.56-3.79s-10.56,1.54-10.56,3.79,2.14,3.79,10.56,3.79S295.64,7.65,295.64,5.39ZM274,9.78v3.41h22.08V9.78Zm16.32-4.39c0,.46-.26.75-5.28.75s-5.28-.29-5.28-.75.27-.74,5.28-.74S290.36,4.94,290.36,5.39Zm25.8,6.82v-.72h7.56V8.78H308.6v-.7h14.88V5.6h-20.4v5.88h7.56v.72h-8.28v3.41h22.08v-3.4Zm7.8,8.21c0-2.43-2.13-4.1-10.56-4.1s-10.56,1.68-10.56,4.1,2.14,4.1,10.56,4.1S324,22.84,324,20.42Zm-.24-15.5V2.2H303.08V4.91Zm-5,15.5c0,.48-.4.74-5.28.74s-5.28-.26-5.28-.74.41-.75,5.28-.75S318.68,19.94,318.68,20.42ZM347,1.72h-4.44v8h-1.2v-8h-4.44V23.56h4.44v-9h1.2v9H347ZM330.44,23.8c3.87,0,5.52-2.57,5.52-7.2V14.92c0-4.63-1.65-7.2-5.52-7.2s-5.52,2.57-5.52,7.2V16.6C324.92,21.23,326.58,23.8,330.44,23.8ZM333,2.92V1h-5V2.92h-3V7.24h11V2.92Zm-2.52,16.32c-.84,0-1.2-.58-1.2-2.88v-1.2c0-2.3.36-2.88,1.2-2.88s1.2.58,1.2,2.88v1.2C331.64,18.66,331.28,19.24,330.44,19.24ZM64.36,39.68H61.6l.6-3.24H57.33l-.6,3.24H53.66l.6-3.24H49.39l-.6,3.24H45.65l-.87,4.7h3.15l-.91,5H43.87L43,54.07h3.14l-.6,3.24h4.87l.6-3.24H54.1l-.6,3.24h4.86l.6-3.24h2.76l.87-4.7H59.83l.91-5H63.5ZM52.8,44.38h3.07l-.91,5H51.88Zm33.64-8.66H82v8H80.8v-8H76.36V57.56H80.8v-9H82v9h4.44ZM69.4,52V36.44h-5V57.56l11-1.68v-4.8ZM93.64,41.12V39.8h15.12V36.2H88.12v8.52h7.56v1H87.4v3.84h22.08V45.68H101.2v-1h7.56v-3.6Zm0,13.2V50.48H88.12V58h20.64V54.32ZM132,35.72H127.6v8h-1.2v-8H122V57.56h4.44v-9h1.2v9H132ZM115,52V36.44h-5V57.56l11-1.68v-4.8Zm18.72-2v8h20.64V54.49H139.24V53.6h15.12V50Zm5.52-9.24V39.68h15.12V36.2H133.72v8h20.64V40.76ZM133,45.2V49h22.08V45.2Zm34.32,10v-.72h15.84V47.72H161.32v3.12h15.84v.72H161.32v6.72h21.84V55.16Zm6.41-12.48V39.92h1.75V36.44H161.32v3.48h1.76V43.4l-1.76.12V47l14.16-1V42.56Zm9.43-7h-5.52V47h5.52Zm-15.91,4.2h2.3v3l-2.3.14Zm27.89,2.26,4.13,7H206l-5.37-8.4H196l2.88-4.8h-6.36l-8.17,13.2H191Zm-11,7.94v4.8h8.28v3.36h5.52V54.92h8.28v-4.8Zm22.56,0v8.16h22.07V50.12Zm0-9.24v8.28L217,48.44v-3.6l-5.28.38v-1h5V40.88Zm16.8-5.16h-4.33v4.56h-1.68V44.6h1.68v4.56h4.32Zm5.28,0h-4.32V49.16h4.31Zm-22.08.72V40H217v-3.6ZM212,53.6h11.52v1.2H212ZM236.44,55v-.6h14.64V47.91H230.45V51h14.64v.62H230.45V58h20.64V55Zm14.88-15.6c0-2.25-2.13-3.79-10.56-3.79s-10.56,1.54-10.56,3.79,2.14,3.79,10.56,3.79,10.57-1.53,10.57-3.79Zm-21.6,4.39v3.41H251.8V43.78ZM246,39.39c0,.46-.26.75-5.28.75s-5.28-.29-5.28-.75.27-.74,5.28-.74,5.29.29,5.29.74Zm18.25,6.17V41h15.12V36.2H258.76V50.36H279.4v-4.8Zm-6.24,7.2v4.8h22.08v-4.8Zm28.31-.67V48.92h8.16V36.44H280.85v4.8H289v2.88h-8.16V57.56l13.92-1.68v-4.8Zm16.32-16.37h-5.52v3.6h-1.68v4.8h1.68v4.32h-1.68v4.8h1.68v4.32h5.52Zm22.56,7c0-4.51-3.26-7-10.56-7s-10.56,2.45-10.56,7,3.27,7,10.56,7,10.57-2.45,10.57-7Zm-8.52,10.08h-4.08v-2.4h-5.52v2.4h-3.48v4.8h22.08v-4.8h-3.48v-2.4h-5.52ZM320,42.68c0,1.68-1.1,2.4-5.28,2.4s-5.28-.72-5.28-2.4,1.1-2.4,5.28-2.4S320,41,320,42.68Zm12.56,8.74v-15h-5.36v15Zm0,5.9v-4.7h-5.36v4.7Z"/><rect class="cls-1" width="375" height="59"/></g></g></svg>