<svg xmlns="http://www.w3.org/2000/svg" width="460" height="23" viewBox="0 0 460 23"><defs><style>.cls-1{fill:none;}</style></defs><title>txt_sec7_description_w460</title><g id="Layer_2" data-name="Layer 2"><g id="Layer_1-2" data-name="Layer 1"><g id="_9_tit" data-name=" 9 tit"><g id="그룹_4672" data-name="그룹 4672"><path id="패스_11532" data-name="패스 11532" d="M56.94,14.39,54.8,12.21a9.05,9.05,0,0,0,5.38-6.6H55.71V2.9H60.1V.76h3.22V2.9h4.34V5.61H63.34A9.67,9.67,0,0,1,63,7.29a13.74,13.74,0,0,0,5.72,4.12L67,13.81a16.52,16.52,0,0,1-5.28-3.75A11.47,11.47,0,0,1,56.94,14.39Zm17.4,5.18-1.28,2.59a18,18,0,0,1-8.5-3.72,13.38,13.38,0,0,1-7.65,3.77l-1.54-2.54c3.91-.46,7.3-2.38,8.47-5.67l3,.87a8,8,0,0,1-.62,1.37,16.09,16.09,0,0,0,8.12,3.33Zm-3.87-18h3.17V14.92H70.47V9.37h-3.7V6.68h3.7ZM101,12.71H97.81V4.81H83.17V1.88H101Zm1,1.34v3H93.77v5.5H90.39V17H82.16v-3Zm2.76-4.7V1.89H122.6V4.48H108V6.76h14.76V9.35h-7.51v2h8.4V14H103.76V11.34H112v-2Zm0,8.86V15.59H122.6V22.5h-3.19V18.21ZM126.15,1.89h11.52v2.9h-4.53A39.06,39.06,0,0,1,132.7,10a23.5,23.5,0,0,0,6.17,9.51l-2.45,2a25.69,25.69,0,0,1-4.82-6.77,24.45,24.45,0,0,1-3.53,6.94l-2.83-1.54c3.29-4.48,4.63-9.16,4.73-15.33h-3.82Zm17.5,10.51v9.88h-3.19V1.55h3.19v7.8h2.69V12.4Zm3.31-.89h19.85v2.83H147ZM166,19.26v2.9H148V15.78h3.19v3.48ZM148,9.42V1.64h3.19v5H166V9.42Zm28.75-2.69h-2.25l-.36-5.3h2.95Zm20.84-4.85v10H179.72v-10ZM182.91,9h11.45V4.79H182.91Zm15.65,5.5v2.93h-8.23V22.5h-3.39V17.44h-8.23V14.51ZM201.1,1.88H210v2.9h-3c0,1.64-.1,3.2-.27,4.68a30.92,30.92,0,0,0,4.59,10.18c-.86.5-1.7,1.06-2.57,1.54a31.24,31.24,0,0,1-3-6.07,28.17,28.17,0,0,1-2.64,6.55l-2.86-1.08c2.69-4.85,3.67-9.5,3.75-15.79H201.1ZM219,22.28H216V1.55H219ZM214.4,1.64V22h-3V11.92h-2.86V9h2.86V1.65Zm19.25,9c0,2.68-2.26,4.61-5.43,4.61s-5.4-1.92-5.4-4.61S225.08,6,228.22,6,233.65,7.88,233.65,10.6Zm7,8.66v2.9H223.16V16h3.17v3.29Zm2.26-11.81v3H240.2v6.64H237V1.55h3.19v5.9Zm-8.33-4.82V5.22H222V2.63h4.56V.76h3.19V2.63Zm-4,8a2.19,2.19,0,0,0-2.18-2.2h-.2a2.15,2.15,0,0,0-2.34,1.94,2,2,0,0,0,0,.25,2.12,2.12,0,0,0,2.1,2.12h.25a2.16,2.16,0,0,0,2.37-1.91A1.41,1.41,0,0,0,230.6,10.6Zm37.51-1.35h-18V1.88H268V4.43H253.35V6.71h14.76Zm-19,1.51H269v2.57H249.15Zm4.2,8.88h14.86v2.52h-18V14.92H268v2.52H253.35ZM289.47,1.55V22.28H286.3V1.55Zm-17.81.33h10.16V6.8a16.22,16.22,0,0,1-9,14.6l-2.19-2.31c5.07-2.47,8-6.93,8-12V4.79h-7Zm23.21,4.85h-2.25l-.36-5.3h2.95ZM308.74,9h3.17v5.18h1.78V17.1h-1.78v3.48h-3.17V17.1H302V14.63l5.3-12.53h3.39l-4.84,12.07h2.92Zm7-7.1h7.56V7.58c0,5.52-1.72,10.39-5.88,13.92l-2.61-1.83a14.33,14.33,0,0,0,5.3-11.79V4.78H315.7Zm17.93-.34V22.28h-3.17V12.4h-2.25V22h-3.15V1.64h3.15V9.49h2.25V1.55ZM338,16.05V13.81h17.25v5.3H341.14V20h14.55v2.25H338V16.93h14.11V16Zm3.5-14.5h3.38c2.78,0,4.39,1.2,4.39,3.1s-1.61,3.12-4.39,3.12h-3.38c-2.79,0-4.4-1.22-4.4-3.12s1.62-3.1,4.4-3.1Zm3.38,2.3h-3.38c-.92,0-1.35.31-1.35.79s.43.84,1.35.84h3.38c.89,0,1.34-.33,1.34-.84s-.45-.79-1.34-.79Zm-8.35,6.82V8.39h13.63v2.28h-6.38v2.66h-3.19V10.67Zm10.8,2.59V11.1h4.75V1.55h3.17V13.26ZM382.59,1.88v10H364.76v-10ZM368,9H379.4V4.79H368Zm15.65,5.5v2.93h-8.23V22.5H372V17.44h-8.24V14.51Zm20.81-2.62v2.76H386.36V6.88H401V4.62H386.36V1.88h17.83V9.54H389.55v2.35Zm.79,6.7v2.9H385.35v-2.9h4.15V15.37h3.2v3.22h5.18V15.37h3.17v3.22Z"/></g></g><rect class="cls-1" width="460" height="23"/></g></g></svg>