<svg xmlns="http://www.w3.org/2000/svg" width="240" height="78" viewBox="0 0 240 78"><defs><style>.cls-1{fill:#666;}.cls-2{fill:none;}</style></defs><title>txt_sec8_reward_info5_w240</title><g id="Layer_2" data-name="Layer 2"><g id="Layer_1-2" data-name="Layer 1"><g id="_8_txt05" data-name=" 8 txt05"><path id="패스_11460" data-name="패스 11460" d="M44.61,38.24l1-5.84H49.8l-4,17.8H41.66L37.71,32.4h4.14l1,5.84.87,6.83ZM54.82,50.11H50.89V32.4h3.93Zm1.93,0V32.4h5.64c3.45,0,5.17,1.93,5.17,4.69A4.18,4.18,0,0,1,65.49,41c1.64.78,2.39,2.07,2.39,4.23,0,2.93-1.93,4.86-5.17,4.86Zm3.94-3.66H62c1.4,0,2-.71,2-1.84s-.71-1.72-2-1.72H60.69Zm1.24-10.38H60.69V39.2h1.17a1.56,1.56,0,0,0,1.76-1.31,1.71,1.71,0,0,0,0-.32C63.63,36.56,63,36.07,61.93,36.07ZM69,32.39h9.52v3.68H72.94v3h5v3.68h-5v3.68h6v3.66H69ZM90.75,50.1H86.81v-14H85.32V32.39h5.43ZM94.27,32h7.56v6.28c0,4.92-1.52,9.47-5.38,12.67l-3-2.23a12.42,12.42,0,0,0,4.49-10v-3H94.27Zm17.52-.21V51.63h-3.93v-9H106.8V51.4h-3.86V31.85h3.86V39h1.06V31.75Zm3.84,14V43.35h16.86v5.29h-13v.55h13.41v2.44h-17.3V46.29h13v-.53Zm3.45-14h3.25c2.71,0,4.32,1.15,4.32,3s-1.61,2.92-4.32,2.92h-3.25c-2.73,0-4.32-1.13-4.32-2.92S116.35,31.75,119.08,31.75Zm3.25,2.49h-3.25c-.41,0-.64.14-.64.46s.23.43.64.43h3.25c.41,0,.64-.13.64-.43S122.74,34.24,122.33,34.24Zm-8,6.25V38h12.9v2.46h-5.39V43h-3.93V40.49ZM124.58,43V40.75h4v-9h3.93V43Zm34-11.22V51.63h-3.94V31.75Zm-6.49,5.82v7.57c0,3.66-2.16,5.82-5.63,5.82s-5.62-2.16-5.62-5.82V37.57c0-3.65,2.17-5.81,5.62-5.81S152.11,33.92,152.11,37.57Zm-3.72,7.57V37.57c0-1.4-.72-2.18-1.91-2.18s-1.89.78-1.89,2.18v7.57c0,1.43.71,2.21,1.89,2.21S148.39,46.57,148.39,45.14Zm31.11,2.92c0,2.37-1.93,3.77-5,3.77h-7.78c-3,0-5-1.4-5-3.77s2-3.77,5-3.77h7.78C177.57,44.29,179.5,45.69,179.5,48.06Zm-4,0c0-.53-.48-.83-1.24-.83H167c-.76,0-1.27.3-1.27.83s.51.83,1.27.83h7.22C175,48.89,175.5,48.59,175.5,48.06Zm-2.9-8.74h-3.93v1.15h3.93Zm-7.82-.21a3.44,3.44,0,0,1-3-3.58c0-2.28,1.75-3.78,5-3.78h7.78c3.24,0,5,1.5,5,3.78a3.4,3.4,0,0,1-3,3.58v1.36h3.66v3h-19v-3h3.65Zm2-2.85h7.71c.64,0,1-.23,1-.73s-.39-.74-1-.74h-7.71c-.64,0-1,.25-1,.74s.39.73,1,.73ZM200,31.75V46.68h-3.94V45.44h-4.27V42.56h4.27V31.75ZM193.76,38h-3.88V35.39h-7.41V32h11.29Zm6.67,10v3.57h-17.3V45.55h3.94v2.51ZM188.91,45H185V41.9h-3.2V38.7H195v3.2h-6.05Z"/><path id="패스_11459" data-name="패스 11459" class="cls-1" d="M31.38,14.68H23V1.75h7.52V3.11h-6V13.32h6.91Zm3-6.36v7h-1.5V1.46h1.5V7h2V8.32ZM39.06,1.6h1.5a32.58,32.58,0,0,1-.3,4.64,16.09,16.09,0,0,0,4.13,7.41l-1.1,1a16.63,16.63,0,0,1-3.53-5.59,21.43,21.43,0,0,1-2.2,5.78l-1.34-.7A25.43,25.43,0,0,0,39.06,1.6Zm8.13-.14h1.5V15.28h-1.5Zm14.21,6c0,1.72-1.44,3-3.47,3s-3.45-1.28-3.45-3,1.42-3,3.45-3S61.4,5.75,61.4,7.48Zm4.66,6.3v1.34H54.63v-4h1.5v2.7Zm1.64-8V7.11h-2v4.94h-1.5V1.46h1.5v4.3ZM62.15,2.44V3.76H53.88V2.44h3.3V1h1.5V2.44Zm-2.25,5A1.77,1.77,0,0,0,58.15,5.7l-.22,0A1.73,1.73,0,0,0,56,7.24a1,1,0,0,0,0,.24,1.72,1.72,0,0,0,1.7,1.74l.25,0a1.73,1.73,0,0,0,2-1.49A2,2,0,0,0,59.9,7.48ZM75.1,1.75V9.51H68.33V1.75h1.5v2.5h3.76V1.75Zm5.26,12v1.34H68.78V10.93h1.5v2.85Zm-.3-12.32V11.91h-1.5V6.26h-2.7V4.92h2.7V1.46ZM69.83,8.15h3.76V5.59H69.83ZM97.42,14v1.32H86v-3.8H95.6V10.29H86V9H97.11v3.79H87.49V14Zm1.64-9.65V5.67h-2V8.28h-1.5V1.46h1.5V4.31Zm-6.3-2.56v6H85.69v-6ZM87.19,6.42h4.07V3.09H87.19Zm12.64,5v-2a3.24,3.24,0,0,1,3-3.46h.51a3.25,3.25,0,0,1,3.53,3,2.9,2.9,0,0,1,0,.51v2a3.25,3.25,0,0,1-3,3.45,4,4,0,0,1-.49,0,3.25,3.25,0,0,1-3.53-2.94A2.79,2.79,0,0,1,99.83,11.38Zm11.28-3.06v7h-1.5V1.46h1.5V7h2V8.32Zm-9.77,1.1v2a2.05,2.05,0,0,0,4.07.42,2,2,0,0,0,0-.42v-2a1.89,1.89,0,0,0-1.63-2.11,1.78,1.78,0,0,0-.4,0,1.88,1.88,0,0,0-2,1.71,1.8,1.8,0,0,0,0,.4Zm6-5h-8V3.1h3.2V1h1.5V3.11h3.27Zm6.34-1.36V1.74H121V3.1H117.9a26.78,26.78,0,0,1-.34,3.9,15.3,15.3,0,0,0,4.3,6.75l-1.13.93A17.16,17.16,0,0,1,117,9.41a16.83,16.83,0,0,1-2.59,5.46l-1.36-.7c2.43-3.28,3.25-6.9,3.31-11.06Zm10.22-1.64h1.5V15.28h-1.5ZM141.06,5.6V7h-1.95V11.9H137.6V1.46h1.5V5.6Zm-1.64,8.18v1.34H128V10.77h1.5v3Zm-4.66-12V9.12h-7.07V1.75Zm-5.57,6h4.07V3.11h-4.07ZM155,10V1.46h1.5V5h1.95V6.34h-1.95V10Zm-5.92-6.88V1.75h4.33V6.56h-1.5V3.11Zm-4.16,0V1.75h3.61V6.56H147V3.11Zm3.91,7.37h4.36c2.19,0,3.61.9,3.61,2.48s-1.42,2.47-3.61,2.47H148.8c-2.19,0-3.61-.9-3.61-2.47S146.62,10.48,148.8,10.48Zm4.36,1.32H148.8c-1.2,0-2,.42-2,1.17s.83,1.13,2,1.13h4.36c1.21,0,2-.4,2-1.14S154.38,11.8,153.16,11.8Zm-8.72-2.56V7.89h4.9V5.06h1.5V7.89h3.38V9.24Zm26.64,4.54v1.34H159.19v-3.6h1.5v2.26Zm-12.64-5h13.23v1.36H158.44Zm8.88-1.34H162.8c-2.41,0-3.76-1.06-3.76-3s1.35-3,3.76-3h4.52c2.4,0,3.76,1.2,3.76,3S169.72,7.48,167.32,7.48ZM162.8,6.12h4.52c1.5,0,2.1-.68,2.1-1.65s-.6-1.67-2.1-1.67H162.8c-1.36,0-2.11.69-2.11,1.67S161.3,6.12,162.8,6.12ZM177.6,5a2.07,2.07,0,0,0,2,2.17h.14a2.08,2.08,0,0,0,2.1-2V5a2.08,2.08,0,0,0-2-2.19h-.14a2.08,2.08,0,0,0-2.12,2Zm-1.5,0a3.49,3.49,0,0,1,3.42-3.54h.2a3.48,3.48,0,0,1,3.6,3.35V5a3.47,3.47,0,0,1-3.42,3.52h-.18a3.47,3.47,0,0,1-3.61-3.33A1.21,1.21,0,0,1,176.1,5ZM185,9.51l1.41.15a6.51,6.51,0,0,1-.3,1.63,9.19,9.19,0,0,0,3.05,2.63l-.93,1.14a12,12,0,0,1-2.75-2.38,6.87,6.87,0,0,1-2.35,2.44l-.66-.59v.59h-5.56V9.57h1.53V11h2.53V9.57h1.5v4.26A5.63,5.63,0,0,0,185,9.51Zm-4,2.77h-2.56v1.55h2.56Zm5.71-10.82h1.5V8.93h-1.5V5.67h-2.7V4.31h2.7Zm3.62,9V6c0-2.86,1.44-4.37,3.61-4.37s3.62,1.5,3.62,4.37v4.51c0,2.84-1.44,4.34-3.62,4.34S190.25,13.32,190.25,10.48ZM191.75,6v4.51c0,2.1.75,3,2.11,3s2.11-.9,2.11-3V6c0-2.11-.75-3-2.11-3s-2.11.9-2.11,3Zm8.88,2.4h-2.56V7h2.56V1.46h1.5V15.28h-1.5Zm11.6.61h-3.61c-2.56,0-4.37-1.5-4.37-3.76s1.81-3.76,4.37-3.76h3.61c2.55,0,4.35,1.5,4.35,3.76S214.78,9,212.23,9Zm-3.61-1.36h3.61A2.48,2.48,0,0,0,215,5.46a1.93,1.93,0,0,0,0-.24,2.47,2.47,0,0,0-2.51-2.44l-.26,0h-3.61A2.49,2.49,0,0,0,205.85,5a1.94,1.94,0,0,0,0,.24,2.5,2.5,0,0,0,2.56,2.42Zm8.41,5.7v1.36H203.8V13.32h3V9.88h1.5v3.44h4.21V9.88H214v3.44Z"/><path id="패스_11458" data-name="패스 11458" class="cls-1" d="M95.62,77H86.38V72.12h9.24ZM84.78,67.08V65.6H92.3v1.48H89.58c.29,1.37,1.31,2.31,3.06,2.81l-.93,1.46a6.68,6.68,0,0,1-1.83-1,4.29,4.29,0,0,1-1.32-1.55,4.81,4.81,0,0,1-1.33,1.77,5.48,5.48,0,0,1-2,1.16c-.23-.32-.57-.8-1-1.44q2.91-1,3.32-3.2Zm12.87,1h-2V71.4H93.76V62.88h1.86v3.7h2Zm-3.9,7.37V73.54H88.26v1.95ZM86.48,64.8V63.35h4.15V64.8Zm19.25,7.08.06-1.6h2v-3h-2l-.06-1.58h2.11V62.88h1.87V77.14h-1.87V71.88ZM98,69a6.38,6.38,0,0,1,1-3.7,3.29,3.29,0,0,1,5.39,0,6.3,6.3,0,0,1,1,3.7,6.37,6.37,0,0,1-1,3.68,3.29,3.29,0,0,1-5.39,0A6.28,6.28,0,0,1,98,69Zm5.56,0a5.68,5.68,0,0,0-.52-2.63,1.57,1.57,0,0,0-1.37-1,1.53,1.53,0,0,0-1.33,1A5.68,5.68,0,0,0,99.83,69a5.51,5.51,0,0,0,.51,2.62,1.52,1.52,0,0,0,1.32,1,1.57,1.57,0,0,0,1.37-1,5.4,5.4,0,0,0,.52-2.62ZM120,72.47l-1,1.36a7.32,7.32,0,0,1-2.07-1.68A6.4,6.4,0,0,1,115.5,70a6.19,6.19,0,0,1-1.25,2.36,6.42,6.42,0,0,1-2.2,1.81l-1.15-1.39a6.83,6.83,0,0,0,3.61-6.48v-.38h-2.88V64.34h7.6v1.54h-2.78v.36A6.57,6.57,0,0,0,120,72.47Zm2.54-9.59v5.5h2v1.55h-2v7.21h-1.87V62.88Zm6.59,2.68V64h7.52v1.54h-2.73a4.3,4.3,0,0,0,.93,2.71,4.56,4.56,0,0,0,2.24,1.57l-1,1.48a5.81,5.81,0,0,1-1.75-1.14,5.49,5.49,0,0,1-1.34-1.76,4.88,4.88,0,0,1-1.28,2,5.62,5.62,0,0,1-2,1.32l-1.1-1.48a5.37,5.37,0,0,0,2.5-1.8A4.62,4.62,0,0,0,132,65.6v0Zm11.3,7.66h-1.87v-5h-2.15v-1.5h2.15v-3.8h1.87Zm.3,3.54h-9.84v-4.5h1.89v3h7.95Zm8.45-12.68a2.3,2.3,0,0,1,1,1.9,2.24,2.24,0,0,1-1,1.89,4.18,4.18,0,0,1-2.57.74,4.42,4.42,0,0,1-2.59-.74A2.26,2.26,0,0,1,143,66a2.21,2.21,0,0,1,1-1.88,4.34,4.34,0,0,1,2.59-.75A4.18,4.18,0,0,1,149.15,64.08Zm.34,8.39V71.12h2.71V62.88h1.88v11H152.2V72.47Zm4.81,4.29H143.84V72.55h1.87v2.72h8.59Zm-6.25-3.54h-1.86V70.68c-1.32,0-2.64.06-3.95.06-.13-.77-.21-1.26-.26-1.47a76.63,76.63,0,0,0,9.09-.43l.11,1.37c-.79.13-1.83.24-3.13.34Zm-.22-6.38a1,1,0,0,0,.47-.85,1.1,1.1,0,0,0-.48-.88,1.88,1.88,0,0,0-1.23-.39,1.94,1.94,0,0,0-1.25.39,1.11,1.11,0,0,0-.48.88,1.06,1.06,0,0,0,.48.85,1.93,1.93,0,0,0,1.25.36A2,2,0,0,0,147.83,66.84Z"/></g><rect class="cls-2" width="240" height="78"/></g></g></svg>