<svg xmlns="http://www.w3.org/2000/svg" width="240" height="78" viewBox="0 0 240 78"><defs><style>.cls-1{fill:#666;}.cls-2{fill:none;}</style></defs><title>txt_sec8_reward_info4_w240</title><g id="Layer_2" data-name="Layer 2"><g id="Layer_1-2" data-name="Layer 1"><g id="_8_txt04" data-name=" 8 txt04"><path id="패스_11409" data-name="패스 11409" class="cls-1" d="M16.54,1.29V14.22H9.77V1.29h1.5V5.8H15V1.29Zm4.65,6.57v7h-1.5V1h1.5V6.52h1.95V7.86Zm-9.92,5H15V7.16H11.27ZM35.5,1V14.82H34V1ZM25.11,5.51V10c0,2.1.75,3,2.19,3s2.18-.9,2.18-3V5.51c0-2.11-.75-3-2.18-3S25.11,3.4,25.11,5.51ZM23.61,10V5.51c0-2.94,1.5-4.37,3.7-4.37S31,2.57,31,5.51V10c0,2.92-1.5,4.34-3.68,4.34S23.6,12.94,23.6,10Zm26-8.73V9.72H37.91V1.29h1.5V4h8.72V1.29ZM39.42,8.36h8.72v-3H39.42Zm11,4.5v1.36H37.16V12.86ZM59,4.16V7h2.64V8.36H59v3.17h-1.5V8.36H54.84V7h2.63V4.15ZM73.42,1.3V14.22H66.65V1.29ZM68.15,12.86h3.76V2.65H68.15Zm9.92-5v7h-1.5V1h1.5V6.52h2V7.86ZM92.37,1V14.82h-1.5V1ZM82,5.51V10c0,2.1.75,3,2.19,3s2.18-.9,2.18-3V5.51c0-2.11-.75-3-2.18-3S82,3.4,82,5.51ZM80.49,10V5.51c0-2.94,1.5-4.37,3.7-4.37s3.68,1.43,3.68,4.37V10c0,2.92-1.5,4.34-3.68,4.34s-3.7-1.42-3.7-4.34Zm26,1.5H105V8.06H94.79V6.71H105V2.65H94.79V1.29h11.73Zm.76,1.33v1.36H94V12.86Zm14.57-4.19V10h-6.77V8.66Zm0-3.31V6.71h-6.77V5.35ZM126.73,10V5.51c0-2.86,1.44-4.37,3.61-4.37S134,2.64,134,5.51V10c0,2.84-1.44,4.34-3.62,4.34S126.73,12.86,126.73,10Zm1.5-4.51V10c0,2.1.75,3,2.11,3s2.11-.9,2.11-3V5.51c0-2.11-.75-3-2.11-3s-2.11.9-2.11,3Zm8.88,4.8h-2.56V9h2.56V5.8h-2.56V4.46h2.56V1h1.5V14.82h-1.5Zm3.77-9h6.61V4.12a11.23,11.23,0,0,1-6.24,10.11l-1-1.13A9.74,9.74,0,0,0,146,4.26V2.65h-5.1ZM152.61,1V14.82h-1.5V1Zm2.27.29h6.47v3a11,11,0,0,1-6.1,10l-1-1.13a9.39,9.39,0,0,0,5.57-8.55V2.65h-5Zm11.43,6.57v7H164.8V1h1.5V6.52h2V7.86ZM179,1.29V14.22h-6.76V1.29h1.5V5.8h3.76V1.29Zm4.66,6.57v7h-1.5V1h1.5V6.52h2V7.86Zm-9.92,5h3.76V7.16h-3.76ZM198.28,8.3V9.64H186.39V4.76h10.23V2.65H186.39V1.29h11.73V6.1H187.9V8.3Zm.59,4.56v1.36H185.64V12.86h5.87V10.41H193v2.45Zm16.61-2.08H214V7H203.75V5.66H214v-3H203.75V1.29h11.73Zm.75,2.08v1.36H203V12.86h4.82v-4h1.5v4Zm1.52-11.72h1.5v5.8h10.39V8.3H217.75Zm12.48,11.72v1.36H217V12.86h5.88V9.06h1.5v3.8Z"/><path id="패스_11357" data-name="패스 11357" d="M33,49.52v2.65H15.51V46.39H28.87v-.53H15.51V43.21h17.3V49H19.44v.56ZM14.64,40h19v2.69h-19Zm14.23-3.2V36H19.44v.76Zm3.94-4.28v6.9H15.51V32.5h3.93v1h9.43v-1Zm20.7,0v7.2H40.15v1.08H53.72v3.15H36.22V36.66H49.57v-1H36.21V32.5ZM47,52.37H42.7V48.6H35.34V45h19V48.6H47ZM74.21,36.66v3H60.84v1.08H74.41v3.15H56.91V32.5h17.3v3.15H60.84v1ZM67.72,52.37H63.4V48.6H56V45h19V48.6H67.72Zm28-4.53V51.5h-19V47.84ZM78.92,44.39l-2.39-3.1a11.85,11.85,0,0,0,8-9.23l4.21.65a13.75,13.75,0,0,1-1,3.26A16.3,16.3,0,0,0,96,40.55l-2.21,3.22a17,17,0,0,1-8-4.48A15.93,15.93,0,0,1,78.92,44.39Zm35.3-11.89V51.29H103.49V32.5Zm6.35,10.7v9h-3.93V32.29h3.93v7h2.37V43.2Zm-13.36,4.48h3.31V36.13h-3.31Zm34.5-15.39V52.17h-3.93V32.29Zm-6.48,5.82v7.57c0,3.66-2.17,5.82-5.64,5.82S124,49.34,124,45.68V38.11c0-3.65,2.16-5.82,5.61-5.82S135.23,34.46,135.23,38.11Zm-3.73,7.57V38.11c0-1.4-.71-2.18-1.91-2.18s-1.88.78-1.88,2.18v7.57c0,1.43.71,2.21,1.88,2.21S131.5,47.11,131.5,45.68Zm30.91.87h-3.93V43.49H145.12V39.86h13.36V36.18H145.12V32.5h17.3Zm.85,1.29V51.5h-19V47.84Zm11.27-11.23V47.84c0,1.08.39,1.29,1.68,1.29v3.68c-4.11,0-5.61-1.08-5.61-4.73V36.39c0-3.68,1.5-4.76,5.61-4.76v3.68C174.92,35.31,174.53,35.54,174.53,36.61Zm8.08,14h-3.94v-14h-1.5V32.93h5.43Zm8.9-4.41V37.37c0-.66-.49-1-1.13-1s-1.15.33-1.15,1v8.86c0,.64.48,1,1.15,1s1.13-.31,1.13-1Zm4-9.09v9.29c0,2.7-1.74,4.42-5.08,4.42s-5.08-1.72-5.08-4.42V37.14c0-2.69,1.72-4.44,5.08-4.44s5.08,1.76,5.08,4.45Zm14.68,15.23H203c-3.12,0-5.17-1.72-5.17-4.18S199.86,44,203,44h7.16c3.13,0,5.17,1.73,5.17,4.24S213.27,52.37,210.14,52.37ZM208,32.5V42.67h-10.4V32.5Zm.65,9.18V38.2h2.55V37h-2.55V33.56h2.55V32.29h3.94V43.56h-3.94V41.68ZM203,49.13h7.16c.73,0,1.17-.41,1.17-.94a1,1,0,0,0-1.07-1H203c-.75,0-1.17.43-1.17,1S202.23,49.13,203,49.13Zm-1.72-9.59h3V35.63h-3Zm17.66,8.3V36.61c0-1.08-.39-1.31-1.7-1.31V31.62c4.12,0,5.64,1.08,5.64,4.76V48.07c0,3.66-1.52,4.74-5.64,4.74V49.13c1.31,0,1.7-.21,1.7-1.29Z"/><path id="패스_11355" data-name="패스 11355" class="cls-1" d="M64.58,75.76l-3.87-11h2.06l2.88,8.48h0l2.86-8.48H70.4l-3.87,11Zm7.06,0v-11h2v11Zm4.22,0v-11H79.7c2.41,0,3.62.93,3.62,2.77a2.34,2.34,0,0,1-1.8,2.4v0a2.45,2.45,0,0,1,2.28,2.6v0a2.9,2.9,0,0,1-1,2.28,4.18,4.18,0,0,1-2.85.86Zm2-1.47H79.7c1.35,0,2-.6,2-1.78a1.59,1.59,0,0,0-.53-1.34,2.69,2.69,0,0,0-1.61-.4H77.81Zm0-4.84h1.54c1.34,0,2-.54,2-1.63a1.41,1.41,0,0,0-.47-1.22,2.43,2.43,0,0,0-1.46-.36H77.81Zm7.59,6.3v-11h6.84v1.55H87.36v3h3.8v1.54h-3.8v3.33h5v1.55Zm24.65.07H97.17V74.33h12.88ZM109.78,70l-.94,1.45A9,9,0,0,1,105.72,70a5.68,5.68,0,0,1-2.12-2.38,5.38,5.38,0,0,1-2.08,2.44,8.86,8.86,0,0,1-3.16,1.43L97.48,70a6.93,6.93,0,0,0,2.37-.8,6.07,6.07,0,0,0,2-1.69,3.57,3.57,0,0,0,.81-2.26v-.94h2v.94a3.31,3.31,0,0,0,.32,1.42,4.51,4.51,0,0,0,.88,1.24,7.18,7.18,0,0,0,1.22,1,7.56,7.56,0,0,0,1.38.72,6.76,6.76,0,0,0,1.38.39Zm7.58,4a42.32,42.32,0,0,1-6.75.47c0-.17-.07-.44-.12-.82s-.09-.64-.12-.81h1.38c0-.17-.06-.92-.15-2.23s-.15-2.31-.19-3c.35,0,1-.1,1.81-.22l.19,5.42,1,0c0-.4,0-1,.07-1.68s.06-1.37.08-2,.06-1.17.09-1.7l1.74.19c-.16,2.11-.29,3.8-.4,5.07.45,0,.86-.08,1.24-.14Zm2.76,3h-1.78V70.46h-1.52V68.94h1.52V63.69h1.78Zm2.62.66H121V63.42h1.78Zm-5.49-11.07h-6.57V65.13h6.58Zm19,11h-9.81V73.79H134v-.93h-7.58V71.37h9.45v3.78h-7.48v.91h7.92Zm-4.44-11.38V64.73H134V63.42h1.87v7.23H134V68.71h-2.13V67.23H134v-1Zm.69,3.12-1,1.39a5.43,5.43,0,0,1-1.81-1.1,5.38,5.38,0,0,1-1.38-1.72,4.12,4.12,0,0,1-1.27,1.93,5.68,5.68,0,0,1-2,1.26l-1.07-1.41a5.3,5.3,0,0,0,2.48-1.77,4.4,4.4,0,0,0,.91-2.78V63.87h2V65a4.14,4.14,0,0,0,.95,2.72,4.85,4.85,0,0,0,2.3,1.59ZM150.58,77h-1.76V70.38H147.6a6.42,6.42,0,0,1-.9,3.11,2.43,2.43,0,0,1-2.18,1.22,2.3,2.3,0,0,1-1.76-.75,4.09,4.09,0,0,1-1-1.87,9.64,9.64,0,0,1-.3-2.51,9.46,9.46,0,0,1,.3-2.48,4.08,4.08,0,0,1,1-1.85,2.35,2.35,0,0,1,1.76-.76,2.47,2.47,0,0,1,2.19,1.22,6.78,6.78,0,0,1,.9,3.13h1.21V63.69h1.76Zm2.85.66h-1.76V63.42h1.76Zm-7.87-5.59a9.63,9.63,0,0,0,0-5c-.23-.64-.57-1-1-1s-.77.32-1,1a7.86,7.86,0,0,0-.34,2.5,7.73,7.73,0,0,0,.34,2.49c.22.65.55,1,1,1S145.33,72.73,145.56,72.09Zm20.86,5.59h-1.89V63.42h1.89Zm-9-5a28.94,28.94,0,0,0,5.81-.43q0,.21.24,1.53a29.93,29.93,0,0,1-6.48.48h-1.42v-9.5h6.48v1.49h-4.63Zm20.66-5.78H176V65.41h2.14v-2H180V73.76H178.1v-4H176v-1.5h2.14Zm2.18,10.4h-9.7V72.81h1.87v3h7.83Zm-3.62-6.68-1.06,1.47a5.35,5.35,0,0,1-1.77-1.24,6.83,6.83,0,0,1-1.43-1.91,5.13,5.13,0,0,1-1.3,2.12,5.22,5.22,0,0,1-2,1.4L168,71a5.19,5.19,0,0,0,2.5-1.93,5,5,0,0,0,.94-3V64.24h1.94V66a5.12,5.12,0,0,0,3.29,4.64Z"/></g><rect class="cls-2" width="240" height="78"/></g></g></svg>