<svg xmlns="http://www.w3.org/2000/svg" width="375" height="66" viewBox="0 0 375 66"><defs><style>.cls-1{fill:#ff006b;}.cls-2{fill:none;}</style></defs><title>txt_sec7_title_w375</title><g id="Layer_2" data-name="Layer 2"><g id="Layer_1-2" data-name="Layer 1"><g id="_9_tit" data-name=" 9 tit"><g id="그룹_4671" data-name="그룹 4671"><path id="패스_11528" data-name="패스 11528" d="M60.1,23.12v-.7H77.18V14.86H53.1v3.56H70.18v.73H53.1v7.53H77.18V23.12ZM53.1,1.2v8H77.18V5.79H59.54V4.62H77.18V1.2ZM52.26,10v4H78V10ZM86.7,23.12v-.7h17.08V14.86H79.7v3.56H96.78v.73H79.7v7.53h24.08V23.12Zm17.36-18.2c0-2.63-2.49-4.42-12.32-4.42S79.42,2.29,79.42,4.92s2.49,4.42,12.32,4.42S104.06,7.56,104.06,4.92ZM78.86,10v4h25.76V10Zm19-5.12c0,.53-.31.87-6.16.87s-6.16-.34-6.16-.87.31-.87,6.16-.87S97.9,4.39,97.9,4.92Zm20.41,3.25,4.82,8.15h7.81l-6.27-9.8h-5.35l3.36-5.6h-7.42l-9.52,15.4h7.7Zm-12.85,9.27V23h9.66V27h6.44V23h9.66v-5.6ZM150.54,4.53v.84H132.9V12.6h8.82v.84h-9.66v4.25h25.76V13.44h-9.66V12.6H157V9.26H139.34V8.42H157V1.2H132.9V4.53Zm0,18.12v4H157V18.53H132.9v4.12Zm14.59-7.45c0,7.92,2.3,11.2,8.26,11.2s8.26-3.28,8.26-11.2V12.4c0-7.92-2.3-11.2-8.26-11.2s-8.26,3.28-8.26,11.2Zm24.33-5.46V.64H183V26.12h6.44V15.9h2.24V9.74Zm-14,5.18c0,5.1-.56,6.16-2.1,6.16s-2.1-1.06-2.1-6.16V12.68c0-5.1.56-6.16,2.1-6.16s2.1,1.06,2.1,6.16ZM191.7,8.48V26.12l16.52-2v-5.6l-10.08,1.2V14.08h10.08V8.48ZM217.18.64h-6.44V26.12h6.44Zm-25.48.84v5.6h16.52V1.48Zm39.51,6.86,5.26,9.38h7.81l-6.77-11.2h-5.24l3.25-5.6H228.1l-10,16.8h7.7ZM218.3,20.52v5.6h25.76v-5.6Zm33.88-7.14V11.84h17.36V7.5h-23.8V18.14h24.08V13.38Zm-7.28,7.14v5.6h25.76v-5.6Zm.84-19.32V6h24.08V1.2ZM290.82.64h-5V10H284c-.33-6.38-2.32-8.82-6.38-8.82-4.48,0-6.44,3-6.44,10.92v3.36c0,8,2,10.92,6.44,10.92s6.41-2.94,6.44-10.78h1.68v10.5h5Zm6.16,0h-5V26.12h5ZM279.06,14.92c0,5-.28,6.16-1.4,6.16s-1.4-1.18-1.4-6.16V12.68c0-5,.28-6.16,1.4-6.16s1.4,1.18,1.4,6.16ZM317.42.64h-5V10h-1.71c0-1.12,0-2.3,0-3.5v-5H297.82v5.6h7c0,3.44-.11,6.47-.34,9.52a82.59,82.59,0,0,1-1.34,9.52H309a83.09,83.09,0,0,0,1.37-9.8c0-.23,0-.47.06-.7h1.93v10.5h5Zm6.16,0h-5V26.12h5Z"/><path id="패스_11527" data-name="패스 11527" d="M24.28,56v9H49.76V56Zm8.26-11.2c-5.94,0-8.54,1.65-8.54,5s2.6,5,8.54,5,8.54-1.6,8.54-5S38.48,44.8,32.54,44.8Zm17.22-6.16H43.32V54.88h6.44Zm-14,1.12v-2H29.32v2h-5v4.48H40.8V39.76Zm-5.32,20H43.6v1.4H30.44ZM32.54,49c2.32,0,2.94.17,2.94.84s-.62.84-2.94.84-2.94-.17-2.94-.84S30.22,49,32.54,49ZM76.36,38.64H69.92V64.12h6.44ZM50.91,53.2c0,7.92,2.3,11.2,8.26,11.2s8.26-3.28,8.26-11.2V50.4c0-7.92-2.3-11.2-8.26-11.2s-8.26,3.28-8.26,11.2Zm10.36-.28c0,5.1-.56,6.16-2.1,6.16s-2.1-1.06-2.1-6.16V50.68c0-5.1.56-6.16,2.1-6.16s2.1,1.06,2.1,6.16ZM77.48,39.48v15.4H94.56V49.56H83.92V44.8H94.56V39.48ZM103,38.64H96.52V64.12H103Zm-20,19.88h-6v5.6h18.2v-5.6h-6V56H82.94ZM111.36,44.8V39.2h-6.44v9.94H129V44.8Zm0,15.54V55.86h-6.44v8.82H129V60.34Zm-7.28-10.08v4.48h25.76V50.26Z"/><path id="패스_11526" data-name="패스 11526" class="cls-1" d="M160.2,43.26H157l.7-3.78H152l-.7,3.78h-3.59l.7-3.78h-5.68l-.7,3.78h-3.67l-1,5.49H141L140,54.57h-3.67l-1,5.49H139l-.7,3.78h5.68l.7-3.78h3.59l-.7,3.78h5.68l.7-3.78h3.22l1-5.49h-3.22L156,48.75h3.22Zm-13.5,5.49h3.58l-1.06,5.82h-3.58ZM186,38.64h-5.18V48h-1.4V38.64H174.2V64.12h5.18V53.62h1.4v10.5H186Zm-19.88,19V39.48H160.2V64.12l12.88-2v-5.6Zm28.28-12.68V43.4H212V39.2H187.92v9.94h8.82v1.12h-9.66v4.48h25.76V50.26h-9.66V49.14H212v-4.2Zm0,15.4V55.86h-6.44v8.82H212V60.34Zm44.8-21.7H234V48h-1.4V38.64H227.4V64.12h5.18V53.62H234v10.5h5.18Zm-19.88,19V39.48H213.4V64.12l12.88-2v-5.6Zm21.84-2.32v9.38H265.2V60.54H247.56v-1H265.2V55.3Zm6.44-10.78V43.26H265.2V39.2H241.12v9.38H265.2V44.52Zm-7.28,5.18v4.48H266V49.7Zm33,14.42,16.52-2V39.48h-6.16v7h-4.2v-7h-6.16Zm24.36-16.38v-9.1h-6.44V64.12h6.44V53.9h2.24V47.74Zm-18.2,4.06h4.2v5.77l-4.2.5ZM325.4,38.64H319V64.12h6.44ZM300,53.2c0,7.92,2.3,11.2,8.26,11.2s8.26-3.28,8.26-11.2V50.4c0-7.92-2.3-11.2-8.26-11.2S300,42.48,300,50.4Zm10.36-.28c0,5.1-.56,6.16-2.1,6.16s-2.1-1.06-2.1-6.16V50.68c0-5.1.56-6.16,2.1-6.16s2.1,1.06,2.1,6.16Zm35-13.72v3.64H333.52V39.2h-6.16V55.72h24.08V39.2ZM326.52,58.52v5.6h25.76v-5.6Zm7-10.64h11.76V50.4H333.52Z"/><rect class="cls-2" width="375" height="66"/></g></g></g></g></svg>